<svg xmlns="http://www.w3.org/2000/svg" xmlns:xlink="http://www.w3.org/1999/xlink" width="726" height="631" viewBox="0 0 726 631"><defs><filter id="a" x="0" y="0" width="726" height="631" filterUnits="userSpaceOnUse"><feOffset dy="3" input="SourceAlpha"/><feGaussianBlur stdDeviation="3" result="b"/><feFlood flood-opacity="0.161"/><feComposite operator="in" in2="b"/><feComposite in="SourceGraphic"/></filter><filter id="c" x="94.224" y="158.463" width="92.553" height="87.595" filterUnits="userSpaceOnUse"><feOffset input="SourceAlpha"/><feGaussianBlur stdDeviation="3" result="d"/><feFlood flood-opacity="0.4"/><feComposite operator="in" in2="d"/><feComposite in="SourceGraphic"/></filter><filter id="e" x="156.866" y="153.673" width="90.308" height="67.245" filterUnits="userSpaceOnUse"><feOffset input="SourceAlpha"/><feGaussianBlur stdDeviation="3" result="f"/><feFlood flood-opacity="0.4"/><feComposite operator="in" in2="f"/><feComposite in="SourceGraphic"/></filter><filter id="g" x="217.666" y="158.422" width="92.256" height="84.536" filterUnits="userSpaceOnUse"><feOffset input="SourceAlpha"/><feGaussianBlur stdDeviation="3" result="h"/><feFlood flood-opacity="0.4"/><feComposite operator="in" in2="h"/><feComposite in="SourceGraphic"/></filter><filter id="i" x="261.428" y="194.463" width="84.921" height="91.595" filterUnits="userSpaceOnUse"><feOffset input="SourceAlpha"/><feGaussianBlur stdDeviation="3" result="j"/><feFlood flood-opacity="0.4"/><feComposite operator="in" in2="j"/><feComposite in="SourceGraphic"/></filter><filter id="k" x="287.484" y="257.108" width="63.784" height="90.584" filterUnits="userSpaceOnUse"><feOffset input="SourceAlpha"/><feGaussianBlur stdDeviation="3" result="l"/><feFlood flood-opacity="0.4"/><feComposite operator="in" in2="l"/><feComposite in="SourceGraphic"/></filter><filter id="m" x="261.875" y="318.744" width="84.687" height="91.974" filterUnits="userSpaceOnUse"><feOffset input="SourceAlpha"/><feGaussianBlur stdDeviation="3" result="n"/><feFlood flood-opacity="0.4"/><feComposite operator="in" in2="n"/><feComposite in="SourceGraphic"/></filter><filter id="o" x="217.887" y="362.233" width="92.474" height="84.923" filterUnits="userSpaceOnUse"><feOffset input="SourceAlpha"/><feGaussianBlur stdDeviation="3" result="p"/><feFlood flood-opacity="0.4"/><feComposite operator="in" in2="p"/><feComposite in="SourceGraphic"/></filter><filter id="q" x="156.651" y="384.637" width="90.746" height="67.31" filterUnits="userSpaceOnUse"><feOffset input="SourceAlpha"/><feGaussianBlur stdDeviation="3" result="r"/><feFlood flood-opacity="0.4"/><feComposite operator="in" in2="r"/><feComposite in="SourceGraphic"/></filter><filter id="s" x="93.786" y="359.114" width="92.773" height="87.967" filterUnits="userSpaceOnUse"><feOffset input="SourceAlpha"/><feGaussianBlur stdDeviation="3" result="t"/><feFlood flood-opacity="0.4"/><feComposite operator="in" in2="t"/><feComposite in="SourceGraphic"/></filter><filter id="u" x="57.679" y="317.188" width="87.592" height="93.412" filterUnits="userSpaceOnUse"><feOffset input="SourceAlpha"/><feGaussianBlur stdDeviation="3" result="v"/><feFlood flood-opacity="0.4"/><feComposite operator="in" in2="v"/><feComposite in="SourceGraphic"/></filter><filter id="w" x="53" y="257.168" width="69.344" height="90.466" filterUnits="userSpaceOnUse"><feOffset input="SourceAlpha"/><feGaussianBlur stdDeviation="3" result="x"/><feFlood flood-opacity="0.4"/><feComposite operator="in" in2="x"/><feComposite in="SourceGraphic"/></filter><filter id="y" x="57.904" y="194.582" width="87.797" height="93.03" filterUnits="userSpaceOnUse"><feOffset input="SourceAlpha"/><feGaussianBlur stdDeviation="3" result="z"/><feFlood flood-opacity="0.4"/><feComposite operator="in" in2="z"/><feComposite in="SourceGraphic"/></filter><filter id="aa" x="91.766" y="234.264" width="36.04" height="36.04" filterUnits="userSpaceOnUse"><feOffset dx="7" dy="7" input="SourceAlpha"/><feGaussianBlur stdDeviation="2.5" result="ab"/><feFlood flood-opacity="0.251"/><feComposite operator="in" in2="ab"/><feComposite in="SourceGraphic"/></filter><filter id="ac" x="91.766" y="349.244" width="36.04" height="36.04" filterUnits="userSpaceOnUse"><feOffset dx="7" dy="7" input="SourceAlpha"/><feGaussianBlur stdDeviation="2.5" result="ad"/><feFlood flood-opacity="0.251"/><feComposite operator="in" in2="ad"/><feComposite in="SourceGraphic"/></filter><filter id="ae" x="76.652" y="291.381" width="36.04" height="36.04" filterUnits="userSpaceOnUse"><feOffset dx="7" dy="7" input="SourceAlpha"/><feGaussianBlur stdDeviation="2.5" result="af"/><feFlood flood-opacity="0.251"/><feComposite operator="in" in2="af"/><feComposite in="SourceGraphic"/></filter><filter id="ag" x="415.957" y="158.459" width="92.553" height="87.595" filterUnits="userSpaceOnUse"><feOffset input="SourceAlpha"/><feGaussianBlur stdDeviation="3" result="ah"/><feFlood flood-opacity="0.4"/><feComposite operator="in" in2="ah"/><feComposite in="SourceGraphic"/></filter><filter id="ai" x="478.598" y="153.669" width="90.308" height="67.245" filterUnits="userSpaceOnUse"><feOffset input="SourceAlpha"/><feGaussianBlur stdDeviation="3" result="aj"/><feFlood flood-opacity="0.4"/><feComposite operator="in" in2="aj"/><feComposite in="SourceGraphic"/></filter><filter id="ak" x="539.398" y="158.418" width="92.257" height="84.536" filterUnits="userSpaceOnUse"><feOffset input="SourceAlpha"/><feGaussianBlur stdDeviation="3" result="al"/><feFlood flood-opacity="0.4"/><feComposite operator="in" in2="al"/><feComposite in="SourceGraphic"/></filter><filter id="am" x="583.161" y="194.459" width="84.921" height="91.595" filterUnits="userSpaceOnUse"><feOffset input="SourceAlpha"/><feGaussianBlur stdDeviation="3" result="an"/><feFlood flood-opacity="0.4"/><feComposite operator="in" in2="an"/><feComposite in="SourceGraphic"/></filter><filter id="ao" x="609.217" y="257.104" width="63.783" height="90.584" filterUnits="userSpaceOnUse"><feOffset input="SourceAlpha"/><feGaussianBlur stdDeviation="3" result="ap"/><feFlood flood-opacity="0.4"/><feComposite operator="in" in2="ap"/><feComposite in="SourceGraphic"/></filter><filter id="aq" x="583.608" y="318.74" width="84.687" height="91.974" filterUnits="userSpaceOnUse"><feOffset input="SourceAlpha"/><feGaussianBlur stdDeviation="3" result="ar"/><feFlood flood-opacity="0.4"/><feComposite operator="in" in2="ar"/><feComposite in="SourceGraphic"/></filter><filter id="as" x="539.619" y="362.229" width="92.474" height="84.923" filterUnits="userSpaceOnUse"><feOffset input="SourceAlpha"/><feGaussianBlur stdDeviation="3" result="at"/><feFlood flood-opacity="0.4"/><feComposite operator="in" in2="at"/><feComposite in="SourceGraphic"/></filter><filter id="au" x="478.384" y="384.633" width="90.746" height="67.31" filterUnits="userSpaceOnUse"><feOffset input="SourceAlpha"/><feGaussianBlur stdDeviation="3" result="av"/><feFlood flood-opacity="0.4"/><feComposite operator="in" in2="av"/><feComposite in="SourceGraphic"/></filter><filter id="aw" x="415.519" y="359.11" width="92.773" height="87.967" filterUnits="userSpaceOnUse"><feOffset input="SourceAlpha"/><feGaussianBlur stdDeviation="3" result="ax"/><feFlood flood-opacity="0.4"/><feComposite operator="in" in2="ax"/><feComposite in="SourceGraphic"/></filter><filter id="ay" x="379.412" y="317.184" width="87.592" height="93.412" filterUnits="userSpaceOnUse"><feOffset input="SourceAlpha"/><feGaussianBlur stdDeviation="3" result="az"/><feFlood flood-opacity="0.4"/><feComposite operator="in" in2="az"/><feComposite in="SourceGraphic"/></filter><filter id="ba" x="374.733" y="257.165" width="69.343" height="90.465" filterUnits="userSpaceOnUse"><feOffset input="SourceAlpha"/><feGaussianBlur stdDeviation="3" result="bb"/><feFlood flood-opacity="0.4"/><feComposite operator="in" in2="bb"/><feComposite in="SourceGraphic"/></filter><filter id="bc" x="379.636" y="194.578" width="87.797" height="93.03" filterUnits="userSpaceOnUse"><feOffset input="SourceAlpha"/><feGaussianBlur stdDeviation="3" result="bd"/><feFlood flood-opacity="0.4"/><feComposite operator="in" in2="bd"/><feComposite in="SourceGraphic"/></filter><filter id="be" x="512.99" y="176.989" width="36.04" height="36.04" filterUnits="userSpaceOnUse"><feOffset dx="7" dy="7" input="SourceAlpha"/><feGaussianBlur stdDeviation="2.5" result="bf"/><feFlood flood-opacity="0.251"/><feComposite operator="in" in2="bf"/><feComposite in="SourceGraphic"/></filter><filter id="bg" x="413.415" y="234.479" width="36.04" height="36.04" filterUnits="userSpaceOnUse"><feOffset dx="7" dy="7" input="SourceAlpha"/><feGaussianBlur stdDeviation="2.5" result="bh"/><feFlood flood-opacity="0.251"/><feComposite operator="in" in2="bh"/><feComposite in="SourceGraphic"/></filter><filter id="bi" x="455.969" y="192.458" width="36.04" height="36.04" filterUnits="userSpaceOnUse"><feOffset dx="7" dy="7" input="SourceAlpha"/><feGaussianBlur stdDeviation="2.5" result="bj"/><feFlood flood-opacity="0.251"/><feComposite operator="in" in2="bj"/><feComposite in="SourceGraphic"/></filter></defs><g transform="translate(-691 -1841)"><g transform="matrix(1, 0, 0, 1, 691, 1841)" filter="url(#a)"><rect width="708" height="613" rx="14" transform="translate(9 6)" fill="#fff"/></g><g transform="translate(3397.095 1097.348)"><g transform="matrix(1, 0, 0, 1, -2706.09, 743.65)" filter="url(#c)"><path d="M-2507.652,957.974a94.876,94.876,0,0,0-41.076,25.14l-33.477-33.477a139.421,139.421,0,0,1,62.642-36.118Z" transform="translate(2685.43 -746.06)" fill="#f9f158"/></g><g transform="matrix(1, 0, 0, 1, -2706.09, 743.65)" filter="url(#e)"><path d="M-2415.852,911.076l-11.507,42.947a95.173,95.173,0,0,0-21.542-2.457,94.9,94.9,0,0,0-27.347,4.006l-11.912-44.455A139.418,139.418,0,0,1-2415.852,911.076Z" transform="translate(2654.03 -743.65)" fill="#f7cd5a"/></g><g transform="matrix(1, 0, 0, 1, -2706.09, 743.65)" filter="url(#g)"><path d="M-2396.879,956.4l11.507-42.947a140.6,140.6,0,0,1,34.018,14.04,140.649,140.649,0,0,1,28.731,22l-30.495,30.495A94.7,94.7,0,0,0-2396.879,956.4Z" transform="translate(2623.55 -746.03)" fill="#fbac3a"/></g><g transform="matrix(1, 0, 0, 1, -2706.09, 743.65)" filter="url(#i)"><path d="M-2331.179,998.061l30.495-30.495a139.406,139.406,0,0,1,36.426,62.645l-40.865,10.95A94.858,94.858,0,0,0-2331.179,998.061Z" transform="translate(2601.61 -764.1)" fill="#f47140"/></g><g transform="matrix(1, 0, 0, 1, -2706.09, 743.65)" filter="url(#k)"><path d="M-2288.523,1098.318a94.951,94.951,0,0,0-3.538-25.752l40.865-10.95c.041.147.089.289.128.436a139.422,139.422,0,0,1,.085,72.148l-40.857-10.948A95.014,95.014,0,0,0-2288.523,1098.318Z" transform="translate(2588.54 -795.51)" fill="#ec4c40"/></g><g transform="matrix(1, 0, 0, 1, -2706.09, 743.65)" filter="url(#m)"><path d="M-2304.677,1154.151l40.857,10.948a140.594,140.594,0,0,1-14.083,34.179,140.666,140.666,0,0,1-22.119,28.847l-30.485-30.485A94.83,94.83,0,0,0-2304.677,1154.151Z" transform="translate(2601.38 -826.41)" fill="#ca295d"/></g><g transform="matrix(1, 0, 0, 1, -2706.09, 743.65)" filter="url(#o)"><path d="M-2352.559,1219.441l30.485,30.485a139.419,139.419,0,0,1-62.964,36.438l-11.51-42.958A94.708,94.708,0,0,0-2352.559,1219.441Z" transform="translate(2623.43 -848.21)" fill="#9653aa"/></g><g transform="matrix(1, 0, 0, 1, -2706.09, 743.65)" filter="url(#q)"><path d="M-2449.009,1257.149a95.177,95.177,0,0,0,21.763-2.511l11.51,42.958a139.413,139.413,0,0,1-72.746-.075l11.908-44.444A94.88,94.88,0,0,0-2449.009,1257.149Z" transform="translate(2654.13 -859.44)" fill="#644ca5"/></g><g transform="matrix(1, 0, 0, 1, -2706.09, 743.65)" filter="url(#s)"><path d="M-2508.089,1240.282-2520,1284.726a140.65,140.65,0,0,1-33.58-13.923,140.657,140.657,0,0,1-29.285-22.558l33.485-33.485A94.891,94.891,0,0,0-2508.089,1240.282Z" transform="translate(2685.65 -846.64)" fill="#5c77bd"/></g><g transform="matrix(1, 0, 0, 1, -2706.09, 743.65)" filter="url(#u)"><path d="M-2567.478,1193.741l-33.485,33.485a139.422,139.422,0,0,1-36-62.524c-.039-.147-.068-.294-.106-.442l46.451-12.446A94.727,94.727,0,0,0-2567.478,1193.741Z" transform="translate(2703.75 -825.63)" fill="#37a7d9"/></g><g transform="matrix(1, 0, 0, 1, -2706.09, 743.65)" filter="url(#w)"><path d="M-2595.869,1098.348a95.063,95.063,0,0,0,2.9,23.377l-46.451,12.446a139.407,139.407,0,0,1,.224-72.466l46.44,12.444A95.037,95.037,0,0,0-2595.869,1098.348Z" transform="translate(2706.09 -795.54)" fill="#81c163"/></g><g transform="matrix(1, 0, 0, 1, -2706.09, 743.65)" filter="url(#y)"><path d="M-2566.936,1001.221a94.76,94.76,0,0,0-23.357,41.554l-46.44-12.444a140.635,140.635,0,0,1,13.88-33.419,140.646,140.646,0,0,1,22.44-29.168Z" transform="translate(2703.64 -764.16)" fill="#d7e458"/></g><g transform="translate(-2627.443 979.917)"><path d="M-2590.186,1030.352c-12.735,23.357-25.246,68.88,0,116.753" transform="translate(2614.321 -1021.332)" fill="none" stroke="#fff" stroke-linecap="round" stroke-linejoin="round" stroke-width="3" stroke-dasharray="0 6"/><g transform="matrix(1, 0, 0, 1, -78.65, -236.26)" filter="url(#aa)"><circle cx="9.02" cy="9.02" r="9.02" transform="translate(93.77 236.26)" fill="#d7e458" stroke="#fff" stroke-miterlimit="10" stroke-width="3"/></g><g transform="matrix(1, 0, 0, 1, -78.65, -236.26)" filter="url(#ac)"><circle cx="9.02" cy="9.02" r="9.02" transform="translate(93.77 351.24)" fill="#37a7d9" stroke="#fff" stroke-miterlimit="10" stroke-width="3"/></g><g transform="matrix(1, 0, 0, 1, -78.65, -236.26)" filter="url(#ae)"><circle cx="9.02" cy="9.02" r="9.02" transform="translate(78.65 293.38)" fill="#81c163" stroke="#fff" stroke-miterlimit="10" stroke-width="3"/></g></g><g transform="translate(-2322.362 906.322)"><g transform="matrix(1, 0, 0, 1, -383.73, -162.67)" filter="url(#ag)"><path d="M-2024.63,957.968a94.88,94.88,0,0,0-41.077,25.14l-33.477-33.477a139.419,139.419,0,0,1,62.642-36.118Z" transform="translate(2524.14 -746.05)" fill="#f9f158"/></g><g transform="matrix(1, 0, 0, 1, -383.73, -162.67)" filter="url(#ai)"><path d="M-1932.83,911.07l-11.508,42.947a95.178,95.178,0,0,0-21.542-2.457,94.9,94.9,0,0,0-27.347,4.007l-11.912-44.455A139.418,139.418,0,0,1-1932.83,911.07Z" transform="translate(2492.74 -743.65)" fill="#f7cd5a"/></g><g transform="matrix(1, 0, 0, 1, -383.73, -162.67)" filter="url(#ak)"><path d="M-1913.858,956.4l11.508-42.947a140.6,140.6,0,0,1,34.018,14.04,140.648,140.648,0,0,1,28.731,22l-30.495,30.495A94.7,94.7,0,0,0-1913.858,956.4Z" transform="translate(2462.26 -746.03)" fill="#fbac3a"/></g><g transform="matrix(1, 0, 0, 1, -383.73, -162.67)" filter="url(#am)"><path d="M-1848.157,998.055l30.495-30.495a139.413,139.413,0,0,1,36.426,62.645l-40.865,10.95A94.868,94.868,0,0,0-1848.157,998.055Z" transform="translate(2440.32 -764.1)" fill="#f47140"/></g><g transform="matrix(1, 0, 0, 1, -383.73, -162.67)" filter="url(#ao)"><path d="M-1805.5,1098.312a94.989,94.989,0,0,0-3.538-25.752l40.865-10.95c.04.147.089.289.129.436a139.432,139.432,0,0,1,.085,72.148l-40.858-10.948A94.973,94.973,0,0,0-1805.5,1098.312Z" transform="translate(2427.26 -795.51)" fill="#ec4c40"/></g><g transform="matrix(1, 0, 0, 1, -383.73, -162.67)" filter="url(#aq)"><path d="M-1821.656,1154.145l40.858,10.948a140.656,140.656,0,0,1-14.083,34.179A140.666,140.666,0,0,1-1817,1228.119l-30.485-30.485A94.823,94.823,0,0,0-1821.656,1154.145Z" transform="translate(2440.09 -826.4)" fill="#ca295d"/></g><g transform="matrix(1, 0, 0, 1, -383.73, -162.67)" filter="url(#as)"><path d="M-1869.537,1219.435l30.485,30.485a139.416,139.416,0,0,1-62.963,36.438l-11.51-42.958A94.706,94.706,0,0,0-1869.537,1219.435Z" transform="translate(2462.15 -848.21)" fill="#9653aa"/></g><g transform="matrix(1, 0, 0, 1, -383.73, -162.67)" filter="url(#au)"><path d="M-1965.987,1257.143a95.172,95.172,0,0,0,21.763-2.511l11.511,42.958a139.411,139.411,0,0,1-72.746-.075l11.908-44.444A94.876,94.876,0,0,0-1965.987,1257.143Z" transform="translate(2492.84 -859.44)" fill="#644ca5"/></g><g transform="matrix(1, 0, 0, 1, -383.73, -162.67)" filter="url(#aw)"><path d="M-2025.067,1240.276l-11.908,44.444a140.647,140.647,0,0,1-33.58-13.923,140.651,140.651,0,0,1-29.285-22.558l33.485-33.485A94.893,94.893,0,0,0-2025.067,1240.276Z" transform="translate(2524.36 -846.64)" fill="#5c77bd"/></g><g transform="matrix(1, 0, 0, 1, -383.73, -162.67)" filter="url(#ay)"><path d="M-2084.456,1193.735l-33.485,33.485a139.425,139.425,0,0,1-36-62.524c-.039-.147-.068-.294-.107-.442l46.451-12.447A94.726,94.726,0,0,0-2084.456,1193.735Z" transform="translate(2542.46 -825.62)" fill="#37a7d9"/></g><g transform="matrix(1, 0, 0, 1, -383.73, -162.67)" filter="url(#ba)"><path d="M-2112.847,1098.342a95.063,95.063,0,0,0,2.9,23.377l-46.451,12.446a139.413,139.413,0,0,1,.224-72.465l46.44,12.443A95.068,95.068,0,0,0-2112.847,1098.342Z" transform="translate(2544.81 -795.54)" fill="#81c163"/></g><g transform="matrix(1, 0, 0, 1, -383.73, -162.67)" filter="url(#bc)"><path d="M-2083.915,1001.215a94.764,94.764,0,0,0-23.357,41.554l-46.44-12.443a140.671,140.671,0,0,1,13.88-33.419,140.623,140.623,0,0,1,22.44-29.168Z" transform="translate(2542.35 -764.16)" fill="#d7e458"/></g></g><g transform="translate(-2290.68 922.642)"><path d="M-2001.16,944.365c-26.595.649-72.274,12.576-101.111,58.376" transform="translate(2109.755 -935.345)" fill="none" stroke="#fff" stroke-linecap="round" stroke-linejoin="round" stroke-width="3" stroke-dasharray="0 6"/><g transform="matrix(1, 0, 0, 1, -415.42, -178.99)" filter="url(#be)"><circle cx="9.02" cy="9.02" r="9.02" transform="translate(514.99 178.99)" fill="#f7cd5a" stroke="#fff" stroke-miterlimit="10" stroke-width="3"/></g><g transform="matrix(1, 0, 0, 1, -415.42, -178.99)" filter="url(#bg)"><circle cx="9.02" cy="9.02" r="9.02" transform="translate(415.42 236.48)" fill="#d7e458" stroke="#fff" stroke-miterlimit="10" stroke-width="3"/></g><g transform="matrix(1, 0, 0, 1, -415.42, -178.99)" filter="url(#bi)"><circle cx="9.02" cy="9.02" r="9.02" transform="translate(457.97 194.46)" fill="#f9f158" stroke="#fff" stroke-miterlimit="10" stroke-width="3"/></g></g></g><path d="M84.02,14.065a4.364,4.364,0,0,1-1.428,3.017,4.867,4.867,0,0,1-3.312,1.083,4.713,4.713,0,0,1-2.544-.685,4.5,4.5,0,0,1-1.7-1.947,7.024,7.024,0,0,1-.623-2.93V11.476a7.075,7.075,0,0,1,.606-3.013A4.567,4.567,0,0,1,76.76,6.454a4.851,4.851,0,0,1,2.619-.706A4.672,4.672,0,0,1,82.6,6.831,4.527,4.527,0,0,1,84.02,9.9H81.928a2.985,2.985,0,0,0-.76-1.88,2.51,2.51,0,0,0-1.789-.577,2.452,2.452,0,0,0-2.1,1,5,5,0,0,0-.751,2.937v1.072a5.308,5.308,0,0,0,.7,2.991,2.328,2.328,0,0,0,2.054,1.03,2.715,2.715,0,0,0,1.859-.556,2.9,2.9,0,0,0,.789-1.851Zm1.3-.639a5.3,5.3,0,0,1,.523-2.378,3.819,3.819,0,0,1,1.469-1.627,4.14,4.14,0,0,1,2.175-.569,3.923,3.923,0,0,1,2.951,1.17,4.6,4.6,0,0,1,1.224,3.1l.008.473a5.343,5.343,0,0,1-.51,2.374A3.773,3.773,0,0,1,91.7,17.593a4.17,4.17,0,0,1-2.2.573A3.9,3.9,0,0,1,86.464,16.9a4.848,4.848,0,0,1-1.141-3.374Zm2.017.174a3.619,3.619,0,0,0,.573,2.171,1.862,1.862,0,0,0,1.594.784,1.842,1.842,0,0,0,1.59-.8,4,4,0,0,0,.569-2.333,3.572,3.572,0,0,0-.585-2.158,1.973,1.973,0,0,0-3.158-.012A3.922,3.922,0,0,0,87.34,13.6ZM97.525,18H95.508V5.25h2.017Zm1.818-4.574a5.3,5.3,0,0,1,.523-2.378,3.819,3.819,0,0,1,1.469-1.627,4.14,4.14,0,0,1,2.175-.569,3.923,3.923,0,0,1,2.951,1.17,4.6,4.6,0,0,1,1.224,3.1l.008.473a5.343,5.343,0,0,1-.51,2.374,3.773,3.773,0,0,1-1.461,1.619,4.17,4.17,0,0,1-2.2.573,3.9,3.9,0,0,1-3.042-1.266,4.848,4.848,0,0,1-1.141-3.374Zm2.017.174a3.619,3.619,0,0,0,.573,2.171,1.862,1.862,0,0,0,1.594.784,1.842,1.842,0,0,0,1.59-.8,4,4,0,0,0,.569-2.333,3.572,3.572,0,0,0-.585-2.158,1.973,1.973,0,0,0-3.158-.012A3.922,3.922,0,0,0,101.36,13.6ZM114.1,10.861a4.991,4.991,0,0,0-.822-.066,1.85,1.85,0,0,0-1.868,1.063V18H109.4V9.019h1.926l.05,1a2.273,2.273,0,0,1,2.025-1.17,1.888,1.888,0,0,1,.714.116Zm5.229,7.3a4.173,4.173,0,0,1-3.109-1.208,4.381,4.381,0,0,1-1.191-3.217v-.249a5.389,5.389,0,0,1,.519-2.4,3.949,3.949,0,0,1,1.457-1.648,3.851,3.851,0,0,1,2.092-.589,3.525,3.525,0,0,1,2.835,1.17,4.949,4.949,0,0,1,1,3.312v.813h-5.869a2.7,2.7,0,0,0,.743,1.76,2.23,2.23,0,0,0,1.639.647,2.731,2.731,0,0,0,2.258-1.121l1.087,1.038a3.631,3.631,0,0,1-1.44,1.249A4.509,4.509,0,0,1,119.331,18.166Zm-.241-7.695a1.7,1.7,0,0,0-1.341.581,3.012,3.012,0,0,0-.652,1.619h3.843v-.149a2.452,2.452,0,0,0-.54-1.531A1.686,1.686,0,0,0,119.09,10.471Zm10.442,5.088a.914.914,0,0,0-.444-.822,4.723,4.723,0,0,0-1.473-.5,7.574,7.574,0,0,1-1.718-.548,2.293,2.293,0,0,1-1.511-2.117,2.391,2.391,0,0,1,.979-1.942,3.872,3.872,0,0,1,2.49-.78,4.029,4.029,0,0,1,2.6.8,2.529,2.529,0,0,1,.992,2.067h-2.017a1.243,1.243,0,0,0-.432-.967,1.654,1.654,0,0,0-1.146-.386,1.787,1.787,0,0,0-1.083.307.968.968,0,0,0-.419.822.818.818,0,0,0,.39.722,5.365,5.365,0,0,0,1.577.519,7.466,7.466,0,0,1,1.864.623,2.639,2.639,0,0,1,1,.867,2.212,2.212,0,0,1,.328,1.229,2.34,2.34,0,0,1-1,1.963,4.283,4.283,0,0,1-2.631.751,4.644,4.644,0,0,1-1.967-.4,3.238,3.238,0,0,1-1.345-1.1,2.594,2.594,0,0,1-.481-1.5h1.959a1.421,1.421,0,0,0,.54,1.1,2.1,2.1,0,0,0,1.32.386,2.04,2.04,0,0,0,1.212-.3A.938.938,0,0,0,129.533,15.56ZM142.872,18a3.113,3.113,0,0,1-.232-.838,3.393,3.393,0,0,1-4.565.232,2.47,2.47,0,0,1-.855-1.909,2.55,2.55,0,0,1,1.067-2.2,5.169,5.169,0,0,1,3.051-.768h1.237v-.589a1.573,1.573,0,0,0-.39-1.116A1.547,1.547,0,0,0,141,10.388a1.777,1.777,0,0,0-1.129.344,1.066,1.066,0,0,0-.44.876H137.41a2.239,2.239,0,0,1,.49-1.382,3.263,3.263,0,0,1,1.332-1.009,4.68,4.68,0,0,1,1.88-.365,3.769,3.769,0,0,1,2.515.793,2.827,2.827,0,0,1,.963,2.229v4.051a4.591,4.591,0,0,0,.34,1.934V18Zm-2.216-1.453a2.294,2.294,0,0,0,1.125-.291,1.941,1.941,0,0,0,.793-.78V13.783h-1.087a2.973,2.973,0,0,0-1.685.39,1.264,1.264,0,0,0-.564,1.1,1.179,1.179,0,0,0,.386.926A1.5,1.5,0,0,0,140.656,16.547Zm7.919-7.529.058,1.038a3.229,3.229,0,0,1,2.615-1.2q2.806,0,2.855,3.212V18h-2.017V12.181a1.85,1.85,0,0,0-.369-1.266,1.554,1.554,0,0,0-1.208-.411,1.944,1.944,0,0,0-1.818,1.1V18h-2.017V9.019ZM161.524,18a3.113,3.113,0,0,1-.232-.838,3.393,3.393,0,0,1-4.565.232,2.47,2.47,0,0,1-.855-1.909,2.55,2.55,0,0,1,1.067-2.2,5.169,5.169,0,0,1,3.051-.768h1.237v-.589a1.573,1.573,0,0,0-.39-1.116,1.547,1.547,0,0,0-1.187-.419,1.777,1.777,0,0,0-1.129.344,1.066,1.066,0,0,0-.44.876h-2.017a2.239,2.239,0,0,1,.49-1.382,3.263,3.263,0,0,1,1.332-1.009,4.68,4.68,0,0,1,1.88-.365,3.769,3.769,0,0,1,2.515.793,2.827,2.827,0,0,1,.963,2.229v4.051a4.591,4.591,0,0,0,.34,1.934V18Zm-2.216-1.453a2.294,2.294,0,0,0,1.125-.291,1.941,1.941,0,0,0,.793-.78V13.783h-1.087a2.973,2.973,0,0,0-1.685.39,1.264,1.264,0,0,0-.564,1.1,1.179,1.179,0,0,0,.386.926A1.5,1.5,0,0,0,159.308,16.547Zm1.121-11.3h2.3l-2.3,2.515-1.619,0ZM167.5,18h-2.017V5.25H167.5Zm1.818-4.574a5.3,5.3,0,0,1,.523-2.378,3.819,3.819,0,0,1,1.469-1.627,4.14,4.14,0,0,1,2.175-.569,3.923,3.923,0,0,1,2.951,1.17,4.6,4.6,0,0,1,1.224,3.1l.008.473a5.343,5.343,0,0,1-.51,2.374,3.773,3.773,0,0,1-1.461,1.619,4.17,4.17,0,0,1-2.2.573A3.9,3.9,0,0,1,170.46,16.9a4.848,4.848,0,0,1-1.141-3.374Zm2.017.174a3.619,3.619,0,0,0,.573,2.171,1.862,1.862,0,0,0,1.594.784,1.842,1.842,0,0,0,1.59-.8,4,4,0,0,0,.569-2.333,3.572,3.572,0,0,0-.585-2.158,1.973,1.973,0,0,0-3.158-.012A3.922,3.922,0,0,0,171.335,13.6Zm7.687-.158a5.253,5.253,0,0,1,.984-3.341,3.157,3.157,0,0,1,2.611-1.249,2.958,2.958,0,0,1,2.416,1.071l.091-.9h1.818v8.708a3.619,3.619,0,0,1-1.1,2.789,4.189,4.189,0,0,1-2.968,1.021,4.783,4.783,0,0,1-1.93-.411,3.429,3.429,0,0,1-1.432-1.075l.955-1.212a2.883,2.883,0,0,0,2.291,1.1,2.228,2.228,0,0,0,1.585-.544,2.084,2.084,0,0,0,.581-1.6v-.606a2.97,2.97,0,0,1-2.324.971,3.15,3.15,0,0,1-2.577-1.253A5.423,5.423,0,0,1,179.022,13.443Zm2.009.174a3.616,3.616,0,0,0,.552,2.129,1.775,1.775,0,0,0,1.531.776,1.941,1.941,0,0,0,1.81-1.046V11.525a1.913,1.913,0,0,0-1.793-1.021,1.782,1.782,0,0,0-1.548.789A4.049,4.049,0,0,0,181.031,13.617Zm7.6-.191a5.3,5.3,0,0,1,.523-2.378,3.819,3.819,0,0,1,1.469-1.627,4.14,4.14,0,0,1,2.175-.569,3.923,3.923,0,0,1,2.951,1.17,4.6,4.6,0,0,1,1.224,3.1l.008.473a5.343,5.343,0,0,1-.51,2.374,3.773,3.773,0,0,1-1.461,1.619,4.17,4.17,0,0,1-2.2.573,3.9,3.9,0,0,1-3.042-1.266,4.848,4.848,0,0,1-1.141-3.374Zm2.017.174a3.619,3.619,0,0,0,.573,2.171,1.862,1.862,0,0,0,1.594.784,1.842,1.842,0,0,0,1.59-.8,4,4,0,0,0,.569-2.333,3.572,3.572,0,0,0-.585-2.158,1.973,1.973,0,0,0-3.158-.012A3.922,3.922,0,0,0,190.651,13.6Zm13.074,1.959a.914.914,0,0,0-.444-.822,4.723,4.723,0,0,0-1.473-.5,7.574,7.574,0,0,1-1.718-.548,2.293,2.293,0,0,1-1.511-2.117,2.391,2.391,0,0,1,.979-1.942,3.872,3.872,0,0,1,2.49-.78,4.029,4.029,0,0,1,2.6.8,2.529,2.529,0,0,1,.992,2.067h-2.017a1.243,1.243,0,0,0-.432-.967,1.654,1.654,0,0,0-1.146-.386,1.787,1.787,0,0,0-1.083.307.968.968,0,0,0-.419.822.818.818,0,0,0,.39.722,5.365,5.365,0,0,0,1.577.519,7.466,7.466,0,0,1,1.864.623,2.639,2.639,0,0,1,1,.867,2.212,2.212,0,0,1,.328,1.229,2.34,2.34,0,0,1-1,1.963,4.283,4.283,0,0,1-2.631.751,4.644,4.644,0,0,1-1.967-.4,3.238,3.238,0,0,1-1.345-1.1,2.594,2.594,0,0,1-.481-1.5h1.959a1.421,1.421,0,0,0,.54,1.1,2.1,2.1,0,0,0,1.32.386,2.04,2.04,0,0,0,1.212-.3A.938.938,0,0,0,203.725,15.56ZM105.9,37.443a5.34,5.34,0,0,1,.963-3.333,3.085,3.085,0,0,1,2.582-1.258,2.931,2.931,0,0,1,2.308,1v-4.6h2.017V42h-1.826l-.1-.93a2.973,2.973,0,0,1-2.416,1.1,3.068,3.068,0,0,1-2.552-1.27A5.535,5.535,0,0,1,105.9,37.443Zm2.017.174a3.739,3.739,0,0,0,.527,2.137,1.71,1.71,0,0,0,1.5.768,1.9,1.9,0,0,0,1.81-1.1V35.583a1.876,1.876,0,0,0-1.793-1.079,1.723,1.723,0,0,0-1.511.776A4.163,4.163,0,0,0,107.913,37.617Zm11.912,4.549a4.173,4.173,0,0,1-3.109-1.208,4.381,4.381,0,0,1-1.191-3.217v-.249a5.389,5.389,0,0,1,.519-2.4,3.949,3.949,0,0,1,1.457-1.648,3.851,3.851,0,0,1,2.092-.589,3.525,3.525,0,0,1,2.835,1.17,4.949,4.949,0,0,1,1,3.312v.813h-5.869a2.7,2.7,0,0,0,.743,1.76,2.23,2.23,0,0,0,1.639.647,2.731,2.731,0,0,0,2.258-1.121l1.087,1.038a3.631,3.631,0,0,1-1.44,1.249A4.509,4.509,0,0,1,119.825,42.166Zm-.241-7.695a1.7,1.7,0,0,0-1.341.581,3.012,3.012,0,0,0-.652,1.619h3.843v-.149a2.452,2.452,0,0,0-.54-1.531A1.686,1.686,0,0,0,119.584,34.471ZM127.138,42h-2.017V29.25h2.017Zm9.6-2.557,1.9-6.425h2.083L137.605,42h-1.751l-3.138-8.981h2.092Zm9.2,2.723a4.173,4.173,0,0,1-3.109-1.208,4.381,4.381,0,0,1-1.191-3.217v-.249a5.389,5.389,0,0,1,.519-2.4,3.949,3.949,0,0,1,1.457-1.648,3.851,3.851,0,0,1,2.092-.589,3.525,3.525,0,0,1,2.835,1.17,4.949,4.949,0,0,1,1,3.312v.813h-5.869a2.7,2.7,0,0,0,.743,1.76,2.23,2.23,0,0,0,1.639.647,2.731,2.731,0,0,0,2.258-1.121l1.087,1.038a3.631,3.631,0,0,1-1.44,1.249A4.509,4.509,0,0,1,145.931,42.166Zm-.241-7.695a1.7,1.7,0,0,0-1.341.581,3.012,3.012,0,0,0-.652,1.619h3.843v-.149A2.452,2.452,0,0,0,147,34.99,1.686,1.686,0,0,0,145.69,34.471Zm10.11.39a4.992,4.992,0,0,0-.822-.066,1.85,1.85,0,0,0-1.868,1.063V42h-2.017V33.019h1.926l.05,1a2.273,2.273,0,0,1,2.025-1.17,1.888,1.888,0,0,1,.714.116Zm.9,2.582a5.34,5.34,0,0,1,.963-3.333,3.085,3.085,0,0,1,2.582-1.258,2.931,2.931,0,0,1,2.308,1v-4.6h2.017V42H162.74l-.1-.93a2.973,2.973,0,0,1-2.416,1.1,3.068,3.068,0,0,1-2.552-1.27A5.535,5.535,0,0,1,156.7,37.443Zm2.017.174a3.739,3.739,0,0,0,.527,2.137,1.71,1.71,0,0,0,1.5.768,1.9,1.9,0,0,0,1.81-1.1V35.583a1.876,1.876,0,0,0-1.793-1.079,1.723,1.723,0,0,0-1.511.776A4.163,4.163,0,0,0,158.714,37.617Zm11.912,4.549a4.173,4.173,0,0,1-3.109-1.208,4.381,4.381,0,0,1-1.191-3.217v-.249a5.389,5.389,0,0,1,.519-2.4,3.949,3.949,0,0,1,1.457-1.648,3.851,3.851,0,0,1,2.092-.589,3.525,3.525,0,0,1,2.835,1.17,4.949,4.949,0,0,1,1,3.312v.813H168.36a2.7,2.7,0,0,0,.743,1.76,2.23,2.23,0,0,0,1.639.647A2.731,2.731,0,0,0,173,39.435l1.087,1.038a3.631,3.631,0,0,1-1.44,1.249A4.509,4.509,0,0,1,170.626,42.166Zm-.241-7.695a1.7,1.7,0,0,0-1.341.581,3.012,3.012,0,0,0-.652,1.619h3.843v-.149a2.452,2.452,0,0,0-.54-1.531A1.686,1.686,0,0,0,170.385,34.471Z" transform="translate(753 2305)" fill="#12263f"/><path d="M79.02,14.065a4.364,4.364,0,0,1-1.428,3.017,4.867,4.867,0,0,1-3.312,1.083,4.713,4.713,0,0,1-2.544-.685,4.5,4.5,0,0,1-1.7-1.947,7.024,7.024,0,0,1-.623-2.93V11.476a7.075,7.075,0,0,1,.606-3.013A4.567,4.567,0,0,1,71.76,6.454a4.851,4.851,0,0,1,2.619-.706A4.672,4.672,0,0,1,77.6,6.831,4.527,4.527,0,0,1,79.02,9.9H76.928a2.985,2.985,0,0,0-.76-1.88,2.51,2.51,0,0,0-1.789-.577,2.452,2.452,0,0,0-2.1,1,5,5,0,0,0-.751,2.937v1.072a5.308,5.308,0,0,0,.7,2.991,2.328,2.328,0,0,0,2.054,1.03,2.715,2.715,0,0,0,1.859-.556,2.9,2.9,0,0,0,.789-1.851Zm1.3-.639a5.3,5.3,0,0,1,.523-2.378,3.819,3.819,0,0,1,1.469-1.627,4.14,4.14,0,0,1,2.175-.569,3.923,3.923,0,0,1,2.951,1.17,4.6,4.6,0,0,1,1.224,3.1l.008.473a5.343,5.343,0,0,1-.51,2.374A3.773,3.773,0,0,1,86.7,17.593a4.17,4.17,0,0,1-2.2.573A3.9,3.9,0,0,1,81.464,16.9a4.848,4.848,0,0,1-1.141-3.374Zm2.017.174a3.619,3.619,0,0,0,.573,2.171,1.862,1.862,0,0,0,1.594.784,1.842,1.842,0,0,0,1.59-.8,4,4,0,0,0,.569-2.333,3.572,3.572,0,0,0-.585-2.158,1.973,1.973,0,0,0-3.158-.012A3.922,3.922,0,0,0,82.34,13.6ZM92.525,18H90.508V5.25h2.017Zm1.818-4.574a5.3,5.3,0,0,1,.523-2.378,3.819,3.819,0,0,1,1.469-1.627,4.14,4.14,0,0,1,2.175-.569,3.923,3.923,0,0,1,2.951,1.17,4.6,4.6,0,0,1,1.224,3.1l.008.473a5.343,5.343,0,0,1-.51,2.374,3.773,3.773,0,0,1-1.461,1.619,4.17,4.17,0,0,1-2.2.573A3.9,3.9,0,0,1,95.484,16.9a4.848,4.848,0,0,1-1.141-3.374Zm2.017.174a3.619,3.619,0,0,0,.573,2.171,1.862,1.862,0,0,0,1.594.784,1.842,1.842,0,0,0,1.59-.8,4,4,0,0,0,.569-2.333,3.572,3.572,0,0,0-.585-2.158,1.973,1.973,0,0,0-3.158-.012A3.922,3.922,0,0,0,96.36,13.6ZM109.1,10.861a4.991,4.991,0,0,0-.822-.066,1.85,1.85,0,0,0-1.868,1.063V18H104.4V9.019h1.926l.05,1a2.273,2.273,0,0,1,2.025-1.17,1.888,1.888,0,0,1,.714.116Zm5.229,7.3a4.173,4.173,0,0,1-3.109-1.208,4.381,4.381,0,0,1-1.191-3.217v-.249a5.389,5.389,0,0,1,.519-2.4,3.949,3.949,0,0,1,1.457-1.648,3.851,3.851,0,0,1,2.092-.589,3.525,3.525,0,0,1,2.835,1.17,4.949,4.949,0,0,1,1,3.312v.813h-5.869a2.7,2.7,0,0,0,.743,1.76,2.23,2.23,0,0,0,1.639.647,2.731,2.731,0,0,0,2.258-1.121l1.087,1.038a3.631,3.631,0,0,1-1.44,1.249A4.509,4.509,0,0,1,114.331,18.166Zm-.241-7.695a1.7,1.7,0,0,0-1.341.581,3.012,3.012,0,0,0-.652,1.619h3.843v-.149a2.452,2.452,0,0,0-.54-1.531A1.686,1.686,0,0,0,114.09,10.471Zm10.442,5.088a.914.914,0,0,0-.444-.822,4.723,4.723,0,0,0-1.473-.5,7.574,7.574,0,0,1-1.718-.548,2.293,2.293,0,0,1-1.511-2.117,2.391,2.391,0,0,1,.979-1.942,3.872,3.872,0,0,1,2.49-.78,4.029,4.029,0,0,1,2.6.8,2.529,2.529,0,0,1,.992,2.067h-2.017a1.243,1.243,0,0,0-.432-.967,1.654,1.654,0,0,0-1.146-.386,1.787,1.787,0,0,0-1.083.307.968.968,0,0,0-.419.822.818.818,0,0,0,.39.722,5.365,5.365,0,0,0,1.577.519,7.466,7.466,0,0,1,1.864.623,2.639,2.639,0,0,1,1,.867,2.212,2.212,0,0,1,.328,1.229,2.34,2.34,0,0,1-1,1.963,4.283,4.283,0,0,1-2.631.751,4.644,4.644,0,0,1-1.967-.4,3.238,3.238,0,0,1-1.345-1.1,2.594,2.594,0,0,1-.481-1.5h1.959a1.421,1.421,0,0,0,.54,1.1,2.1,2.1,0,0,0,1.32.386,2.04,2.04,0,0,0,1.212-.3A.938.938,0,0,0,124.533,15.56ZM137.872,18a3.113,3.113,0,0,1-.232-.838,3.393,3.393,0,0,1-4.565.232,2.47,2.47,0,0,1-.855-1.909,2.55,2.55,0,0,1,1.067-2.2,5.169,5.169,0,0,1,3.051-.768h1.237v-.589a1.573,1.573,0,0,0-.39-1.116A1.547,1.547,0,0,0,136,10.388a1.777,1.777,0,0,0-1.129.344,1.066,1.066,0,0,0-.44.876H132.41a2.239,2.239,0,0,1,.49-1.382,3.263,3.263,0,0,1,1.332-1.009,4.68,4.68,0,0,1,1.88-.365,3.769,3.769,0,0,1,2.515.793,2.827,2.827,0,0,1,.963,2.229v4.051a4.591,4.591,0,0,0,.34,1.934V18Zm-2.216-1.453a2.294,2.294,0,0,0,1.125-.291,1.941,1.941,0,0,0,.793-.78V13.783h-1.087a2.973,2.973,0,0,0-1.685.39,1.264,1.264,0,0,0-.564,1.1,1.179,1.179,0,0,0,.386.926A1.5,1.5,0,0,0,135.656,16.547Zm7.919-7.529.058,1.038a3.229,3.229,0,0,1,2.615-1.2q2.806,0,2.855,3.212V18h-2.017V12.181a1.85,1.85,0,0,0-.369-1.266,1.554,1.554,0,0,0-1.208-.411,1.944,1.944,0,0,0-1.818,1.1V18h-2.017V9.019ZM156.524,18a3.113,3.113,0,0,1-.232-.838,3.393,3.393,0,0,1-4.565.232,2.47,2.47,0,0,1-.855-1.909,2.55,2.55,0,0,1,1.067-2.2,5.169,5.169,0,0,1,3.051-.768h1.237v-.589a1.573,1.573,0,0,0-.39-1.116,1.547,1.547,0,0,0-1.187-.419,1.777,1.777,0,0,0-1.129.344,1.066,1.066,0,0,0-.44.876h-2.017a2.239,2.239,0,0,1,.49-1.382,3.263,3.263,0,0,1,1.332-1.009,4.68,4.68,0,0,1,1.88-.365,3.769,3.769,0,0,1,2.515.793,2.827,2.827,0,0,1,.963,2.229v4.051a4.591,4.591,0,0,0,.34,1.934V18Zm-2.216-1.453a2.294,2.294,0,0,0,1.125-.291,1.941,1.941,0,0,0,.793-.78V13.783h-1.087a2.973,2.973,0,0,0-1.685.39,1.264,1.264,0,0,0-.564,1.1,1.179,1.179,0,0,0,.386.926A1.5,1.5,0,0,0,154.308,16.547Zm1.121-11.3h2.3l-2.3,2.515-1.619,0ZM162.5,18h-2.017V5.25H162.5Zm1.818-4.574a5.3,5.3,0,0,1,.523-2.378,3.819,3.819,0,0,1,1.469-1.627,4.14,4.14,0,0,1,2.175-.569,3.923,3.923,0,0,1,2.951,1.17,4.6,4.6,0,0,1,1.224,3.1l.008.473a5.343,5.343,0,0,1-.51,2.374,3.773,3.773,0,0,1-1.461,1.619,4.17,4.17,0,0,1-2.2.573A3.9,3.9,0,0,1,165.46,16.9a4.848,4.848,0,0,1-1.141-3.374Zm2.017.174a3.619,3.619,0,0,0,.573,2.171,1.862,1.862,0,0,0,1.594.784,1.842,1.842,0,0,0,1.59-.8,4,4,0,0,0,.569-2.333,3.572,3.572,0,0,0-.585-2.158,1.973,1.973,0,0,0-3.158-.012A3.922,3.922,0,0,0,166.335,13.6Zm7.687-.158a5.253,5.253,0,0,1,.984-3.341,3.157,3.157,0,0,1,2.611-1.249,2.958,2.958,0,0,1,2.416,1.071l.091-.9h1.818v8.708a3.619,3.619,0,0,1-1.1,2.789,4.189,4.189,0,0,1-2.968,1.021,4.783,4.783,0,0,1-1.93-.411,3.429,3.429,0,0,1-1.432-1.075l.955-1.212a2.883,2.883,0,0,0,2.291,1.1,2.228,2.228,0,0,0,1.585-.544,2.084,2.084,0,0,0,.581-1.6v-.606a2.97,2.97,0,0,1-2.324.971,3.15,3.15,0,0,1-2.577-1.253A5.423,5.423,0,0,1,174.022,13.443Zm2.009.174a3.616,3.616,0,0,0,.552,2.129,1.775,1.775,0,0,0,1.531.776,1.941,1.941,0,0,0,1.81-1.046V11.525a1.913,1.913,0,0,0-1.793-1.021,1.782,1.782,0,0,0-1.548.789A4.049,4.049,0,0,0,176.031,13.617Zm7.6-.191a5.3,5.3,0,0,1,.523-2.378,3.819,3.819,0,0,1,1.469-1.627,4.14,4.14,0,0,1,2.175-.569,3.923,3.923,0,0,1,2.951,1.17,4.6,4.6,0,0,1,1.224,3.1l.008.473a5.343,5.343,0,0,1-.51,2.374,3.773,3.773,0,0,1-1.461,1.619,4.17,4.17,0,0,1-2.2.573,3.9,3.9,0,0,1-3.042-1.266,4.848,4.848,0,0,1-1.141-3.374Zm2.017.174a3.619,3.619,0,0,0,.573,2.171,1.862,1.862,0,0,0,1.594.784,1.842,1.842,0,0,0,1.59-.8,4,4,0,0,0,.569-2.333,3.572,3.572,0,0,0-.585-2.158,1.973,1.973,0,0,0-3.158-.012A3.922,3.922,0,0,0,185.651,13.6Zm13.074,1.959a.914.914,0,0,0-.444-.822,4.723,4.723,0,0,0-1.473-.5,7.574,7.574,0,0,1-1.718-.548,2.293,2.293,0,0,1-1.511-2.117,2.391,2.391,0,0,1,.979-1.942,3.872,3.872,0,0,1,2.49-.78,4.029,4.029,0,0,1,2.6.8,2.529,2.529,0,0,1,.992,2.067h-2.017a1.243,1.243,0,0,0-.432-.967,1.654,1.654,0,0,0-1.146-.386,1.787,1.787,0,0,0-1.083.307.968.968,0,0,0-.419.822.818.818,0,0,0,.39.722,5.365,5.365,0,0,0,1.577.519,7.466,7.466,0,0,1,1.864.623,2.639,2.639,0,0,1,1,.867,2.212,2.212,0,0,1,.328,1.229,2.34,2.34,0,0,1-1,1.963,4.283,4.283,0,0,1-2.631.751,4.644,4.644,0,0,1-1.967-.4,3.238,3.238,0,0,1-1.345-1.1,2.594,2.594,0,0,1-.481-1.5h1.959a1.421,1.421,0,0,0,.54,1.1,2.1,2.1,0,0,0,1.32.386,2.04,2.04,0,0,0,1.212-.3A.938.938,0,0,0,198.725,15.56ZM91.076,37.443a5.34,5.34,0,0,1,.963-3.333,3.085,3.085,0,0,1,2.582-1.258,2.931,2.931,0,0,1,2.308,1v-4.6h2.017V42H97.119l-.1-.93a2.973,2.973,0,0,1-2.416,1.1,3.068,3.068,0,0,1-2.552-1.27A5.535,5.535,0,0,1,91.076,37.443Zm2.017.174a3.739,3.739,0,0,0,.527,2.137,1.71,1.71,0,0,0,1.5.768,1.9,1.9,0,0,0,1.81-1.1V35.583A1.876,1.876,0,0,0,95.135,34.5a1.723,1.723,0,0,0-1.511.776A4.163,4.163,0,0,0,93.094,37.617Zm11.912,4.549a4.173,4.173,0,0,1-3.109-1.208,4.381,4.381,0,0,1-1.191-3.217v-.249a5.389,5.389,0,0,1,.519-2.4,3.949,3.949,0,0,1,1.457-1.648,3.851,3.851,0,0,1,2.092-.589,3.525,3.525,0,0,1,2.835,1.17,4.949,4.949,0,0,1,1,3.312v.813h-5.869a2.7,2.7,0,0,0,.743,1.76,2.23,2.23,0,0,0,1.639.647,2.731,2.731,0,0,0,2.258-1.121l1.087,1.038a3.631,3.631,0,0,1-1.44,1.249A4.509,4.509,0,0,1,105.005,42.166Zm-.241-7.695a1.7,1.7,0,0,0-1.341.581,3.012,3.012,0,0,0-.652,1.619h3.843v-.149a2.452,2.452,0,0,0-.54-1.531A1.686,1.686,0,0,0,104.764,34.471ZM112.318,42H110.3V29.25h2.017Zm11.8,0a3.113,3.113,0,0,1-.232-.838,3.393,3.393,0,0,1-4.565.232,2.47,2.47,0,0,1-.855-1.909,2.55,2.55,0,0,1,1.067-2.2,5.169,5.169,0,0,1,3.051-.768h1.237v-.589a1.573,1.573,0,0,0-.39-1.116,1.547,1.547,0,0,0-1.187-.419,1.777,1.777,0,0,0-1.129.344,1.066,1.066,0,0,0-.44.876h-2.017a2.239,2.239,0,0,1,.49-1.382,3.263,3.263,0,0,1,1.332-1.009,4.68,4.68,0,0,1,1.88-.365,3.769,3.769,0,0,1,2.515.793,2.827,2.827,0,0,1,.963,2.229v4.051a4.591,4.591,0,0,0,.34,1.934V42ZM121.9,40.547a2.294,2.294,0,0,0,1.125-.291,1.941,1.941,0,0,0,.793-.78V37.783h-1.087a2.973,2.973,0,0,0-1.685.39,1.264,1.264,0,0,0-.564,1.1,1.179,1.179,0,0,0,.386.926A1.5,1.5,0,0,0,121.9,40.547Zm7.944-7.529.058.938a3.232,3.232,0,0,1,2.59-1.1,2.483,2.483,0,0,1,2.465,1.378,3.186,3.186,0,0,1,2.756-1.378,2.8,2.8,0,0,1,2.212.822,3.618,3.618,0,0,1,.743,2.424V42h-2.017V36.156a1.786,1.786,0,0,0-.374-1.253,1.635,1.635,0,0,0-1.237-.4,1.679,1.679,0,0,0-1.125.369,1.948,1.948,0,0,0-.61.967L135.311,42h-2.017V36.09a1.439,1.439,0,0,0-1.619-1.585,1.776,1.776,0,0,0-1.718.988V42H127.94V33.019ZM148.1,42a3.113,3.113,0,0,1-.232-.838,3.393,3.393,0,0,1-4.565.232,2.47,2.47,0,0,1-.855-1.909,2.55,2.55,0,0,1,1.067-2.2,5.169,5.169,0,0,1,3.051-.768H147.8v-.589a1.573,1.573,0,0,0-.39-1.116,1.547,1.547,0,0,0-1.187-.419,1.777,1.777,0,0,0-1.129.344,1.066,1.066,0,0,0-.44.876h-2.017a2.239,2.239,0,0,1,.49-1.382,3.263,3.263,0,0,1,1.332-1.009,4.68,4.68,0,0,1,1.88-.365,3.769,3.769,0,0,1,2.515.793,2.827,2.827,0,0,1,.963,2.229v4.051a4.591,4.591,0,0,0,.34,1.934V42Zm-2.216-1.453a2.294,2.294,0,0,0,1.125-.291,1.941,1.941,0,0,0,.793-.78V37.783h-1.087a2.973,2.973,0,0,0-1.685.39,1.264,1.264,0,0,0-.564,1.1,1.179,1.179,0,0,0,.386.926A1.5,1.5,0,0,0,145.886,40.547Zm10.75-5.686a4.992,4.992,0,0,0-.822-.066,1.85,1.85,0,0,0-1.868,1.063V42h-2.017V33.019h1.926l.05,1a2.273,2.273,0,0,1,2.025-1.17,1.888,1.888,0,0,1,.714.116ZM160.056,42h-2.017V33.019h2.017Zm-2.142-11.314a1.07,1.07,0,0,1,.295-.772,1.113,1.113,0,0,1,.843-.307,1.127,1.127,0,0,1,.847.307,1.062,1.062,0,0,1,.3.772,1.038,1.038,0,0,1-.3.76,1.136,1.136,0,0,1-.847.3,1.122,1.122,0,0,1-.843-.3A1.046,1.046,0,0,1,157.914,30.686ZM164.4,42H162.38V29.25H164.4Zm4.341,0h-2.017V29.25h2.017Zm1.818-4.574a5.3,5.3,0,0,1,.523-2.378,3.819,3.819,0,0,1,1.469-1.627,4.14,4.14,0,0,1,2.175-.569,3.923,3.923,0,0,1,2.951,1.17,4.6,4.6,0,0,1,1.224,3.1l.008.473a5.343,5.343,0,0,1-.51,2.374,3.773,3.773,0,0,1-1.461,1.619,4.17,4.17,0,0,1-2.2.573A3.9,3.9,0,0,1,171.7,40.9a4.848,4.848,0,0,1-1.141-3.374Zm2.017.174a3.619,3.619,0,0,0,.573,2.171,1.862,1.862,0,0,0,1.594.784,1.842,1.842,0,0,0,1.59-.8,4,4,0,0,0,.569-2.333,3.572,3.572,0,0,0-.585-2.158,1.973,1.973,0,0,0-3.158-.012A3.922,3.922,0,0,0,172.573,37.6Z" transform="translate(1071 2305)" fill="#12263f"/><path d="M74.082,16.186a5.193,5.193,0,0,1-.8,2.622,4.833,4.833,0,0,1-2.056,1.763A7,7,0,0,1,68.2,21.2a5.584,5.584,0,0,1-4.414-1.826,7.54,7.54,0,0,1-1.611-5.156v-.7a8.607,8.607,0,0,1,.728-3.657A5.513,5.513,0,0,1,65,7.431a5.844,5.844,0,0,1,3.164-.854,6.129,6.129,0,0,1,4.16,1.362,5.383,5.383,0,0,1,1.787,3.755H70.693a2.547,2.547,0,0,0-.654-1.865,2.691,2.691,0,0,0-1.875-.566,2.048,2.048,0,0,0-1.875.957,6.151,6.151,0,0,0-.625,3.057v1.006a6.806,6.806,0,0,0,.571,3.252,2.091,2.091,0,0,0,1.968.977,2.632,2.632,0,0,0,1.807-.557,2.363,2.363,0,0,0,.664-1.768Zm1.055-.566a6.236,6.236,0,0,1,.615-2.817,4.4,4.4,0,0,1,1.768-1.9,5.323,5.323,0,0,1,2.705-.664,4.858,4.858,0,0,1,3.74,1.47,5.64,5.64,0,0,1,1.367,4v.117a5.472,5.472,0,0,1-1.372,3.921,4.871,4.871,0,0,1-3.716,1.45,4.927,4.927,0,0,1-3.623-1.353,5.29,5.29,0,0,1-1.475-3.667Zm3.291.205a3.932,3.932,0,0,0,.459,2.148,1.529,1.529,0,0,0,1.357.684q1.758,0,1.8-2.705v-.332q0-2.842-1.816-2.842-1.65,0-1.787,2.451ZM90.254,21h-3.3V6h3.3Zm1.611-5.381A6.236,6.236,0,0,1,92.48,12.8a4.4,4.4,0,0,1,1.768-1.9,5.323,5.323,0,0,1,2.705-.664,4.858,4.858,0,0,1,3.74,1.47,5.64,5.64,0,0,1,1.367,4v.117a5.472,5.472,0,0,1-1.372,3.921,4.871,4.871,0,0,1-3.716,1.45,4.927,4.927,0,0,1-3.623-1.353,5.29,5.29,0,0,1-1.475-3.667Zm3.291.205a3.932,3.932,0,0,0,.459,2.148,1.529,1.529,0,0,0,1.357.684q1.758,0,1.8-2.705v-.332q0-2.842-1.816-2.842-1.65,0-1.787,2.451ZM109.9,13.412l-1.084-.078a1.947,1.947,0,0,0-1.992.977V21h-3.291V10.434h3.086l.107,1.357a2.548,2.548,0,0,1,2.314-1.553,3.209,3.209,0,0,1,.918.117Zm6.3,7.783a5.432,5.432,0,0,1-3.936-1.45,5.008,5.008,0,0,1-1.5-3.774V15.7a6.489,6.489,0,0,1,.6-2.861,4.395,4.395,0,0,1,1.753-1.919,5.292,5.292,0,0,1,2.734-.679,4.574,4.574,0,0,1,3.516,1.382,5.43,5.43,0,0,1,1.289,3.853v1.279h-6.543a2.372,2.372,0,0,0,.771,1.4,2.3,2.3,0,0,0,1.543.508,2.958,2.958,0,0,0,2.441-1.094l1.5,1.777a4.2,4.2,0,0,1-1.743,1.353A5.891,5.891,0,0,1,116.2,21.2Zm-.371-8.418q-1.445,0-1.719,1.914h3.32v-.254a1.63,1.63,0,0,0-.4-1.226A1.593,1.593,0,0,0,115.83,12.777Zm11.68,5.254a.76.76,0,0,0-.439-.674,6.684,6.684,0,0,0-1.67-.527,7.615,7.615,0,0,1-2.031-.718,3.4,3.4,0,0,1-1.221-1.079,2.577,2.577,0,0,1-.42-1.455,2.92,2.92,0,0,1,1.2-2.4,4.948,4.948,0,0,1,3.145-.942,5.482,5.482,0,0,1,3.359.947,2.962,2.962,0,0,1,1.27,2.49h-3.3q0-1.27-1.338-1.27a1.326,1.326,0,0,0-.869.288.892.892,0,0,0-.352.718.819.819,0,0,0,.43.713,4.06,4.06,0,0,0,1.372.449,11.857,11.857,0,0,1,1.655.42,3.007,3.007,0,0,1,2.383,2.939,2.767,2.767,0,0,1-1.284,2.354,5.632,5.632,0,0,1-3.325.908,5.747,5.747,0,0,1-2.422-.488,4.05,4.05,0,0,1-1.66-1.328,3.007,3.007,0,0,1-.6-1.768h3.076a1.272,1.272,0,0,0,.488,1.069,2.009,2.009,0,0,0,1.2.337,1.58,1.58,0,0,0,1.011-.273A.875.875,0,0,0,127.51,18.031ZM143.154,21a3.716,3.716,0,0,1-.312-.947A3.06,3.06,0,0,1,140.3,21.2a3.749,3.749,0,0,1-2.539-.9,2.875,2.875,0,0,1-1.045-2.271,2.955,2.955,0,0,1,1.27-2.6,6.468,6.468,0,0,1,3.691-.879H142.7v-.559q0-1.462-1.26-1.462a1.03,1.03,0,0,0-1.172,1.158h-3.291a2.95,2.95,0,0,1,1.3-2.487,5.479,5.479,0,0,1,3.325-.956,4.8,4.8,0,0,1,3.193.986A3.429,3.429,0,0,1,146,13.93v4.678a4.79,4.79,0,0,0,.449,2.227V21Zm-2.061-2.148a1.836,1.836,0,0,0,1.021-.264,1.653,1.653,0,0,0,.581-.6V16.3h-.957q-1.719,0-1.719,1.543a.942.942,0,0,0,.3.728A1.1,1.1,0,0,0,141.094,18.852Zm9.746-8.418.107,1.24a3.583,3.583,0,0,1,3.018-1.436,3.015,3.015,0,0,1,2.466.986,4.7,4.7,0,0,1,.845,2.969V21h-3.3V14.33a1.783,1.783,0,0,0-.322-1.177,1.491,1.491,0,0,0-1.172-.376,1.569,1.569,0,0,0-1.436.762V21h-3.291V10.434ZM165.049,21a3.716,3.716,0,0,1-.312-.947A3.06,3.06,0,0,1,162.2,21.2a3.749,3.749,0,0,1-2.539-.9,2.875,2.875,0,0,1-1.045-2.271,2.955,2.955,0,0,1,1.27-2.6,6.468,6.468,0,0,1,3.691-.879h1.016v-.559q0-1.462-1.26-1.462a1.03,1.03,0,0,0-1.172,1.158h-3.291a2.95,2.95,0,0,1,1.3-2.487,5.479,5.479,0,0,1,3.325-.956,4.8,4.8,0,0,1,3.193.986,3.429,3.429,0,0,1,1.2,2.705v4.678a4.79,4.79,0,0,0,.449,2.227V21Zm-2.061-2.148a1.836,1.836,0,0,0,1.021-.264,1.653,1.653,0,0,0,.581-.6V16.3h-.957q-1.719,0-1.719,1.543a.942.942,0,0,0,.3.728A1.1,1.1,0,0,0,162.988,18.852ZM163.809,6h3.477L164.57,9.066l-2.686,0Zm9.375,15h-3.3V6h3.3Zm1.611-5.381a6.236,6.236,0,0,1,.615-2.817,4.4,4.4,0,0,1,1.768-1.9,5.323,5.323,0,0,1,2.705-.664,4.858,4.858,0,0,1,3.74,1.47,5.64,5.64,0,0,1,1.367,4v.117a5.472,5.472,0,0,1-1.372,3.921A4.871,4.871,0,0,1,179.9,21.2a4.927,4.927,0,0,1-3.623-1.353,5.29,5.29,0,0,1-1.475-3.667Zm3.291.205a3.932,3.932,0,0,0,.459,2.148,1.529,1.529,0,0,0,1.357.684q1.758,0,1.8-2.705v-.332q0-2.842-1.816-2.842-1.65,0-1.787,2.451Zm7.969-.186a7.134,7.134,0,0,1,.527-2.832,4.245,4.245,0,0,1,1.514-1.9,3.99,3.99,0,0,1,2.295-.669,3.173,3.173,0,0,1,2.578,1.113l.117-.918h2.988V20.6a4.455,4.455,0,0,1-.649,2.427,4.167,4.167,0,0,1-1.88,1.582,6.91,6.91,0,0,1-2.852.552,5.961,5.961,0,0,1-2.251-.439,4.063,4.063,0,0,1-1.665-1.143l1.377-1.934a3.018,3.018,0,0,0,2.422,1.084,1.96,1.96,0,0,0,2.188-2.246V20.15a3.09,3.09,0,0,1-2.393,1.045,3.819,3.819,0,0,1-3.125-1.479,6.13,6.13,0,0,1-1.191-3.96Zm3.3.205a3.759,3.759,0,0,0,.488,2.056,1.541,1.541,0,0,0,1.367.757,1.748,1.748,0,0,0,1.553-.713V13.5a1.7,1.7,0,0,0-1.533-.723,1.551,1.551,0,0,0-1.377.786A4.287,4.287,0,0,0,189.355,15.844Zm8.174-.225a6.236,6.236,0,0,1,.615-2.817,4.4,4.4,0,0,1,1.768-1.9,5.323,5.323,0,0,1,2.705-.664,4.858,4.858,0,0,1,3.74,1.47,5.64,5.64,0,0,1,1.367,4v.117a5.472,5.472,0,0,1-1.372,3.921,4.871,4.871,0,0,1-3.716,1.45,4.927,4.927,0,0,1-3.623-1.353,5.29,5.29,0,0,1-1.475-3.667Zm3.291.205a3.932,3.932,0,0,0,.459,2.148,1.529,1.529,0,0,0,1.357.684q1.758,0,1.8-2.705v-.332q0-2.842-1.816-2.842-1.65,0-1.787,2.451Zm13.887,2.207a.76.76,0,0,0-.439-.674,6.684,6.684,0,0,0-1.67-.527,7.615,7.615,0,0,1-2.031-.718,3.4,3.4,0,0,1-1.221-1.079,2.577,2.577,0,0,1-.42-1.455,2.92,2.92,0,0,1,1.2-2.4,4.948,4.948,0,0,1,3.145-.942,5.482,5.482,0,0,1,3.359.947,2.962,2.962,0,0,1,1.27,2.49h-3.3q0-1.27-1.338-1.27a1.326,1.326,0,0,0-.869.288.892.892,0,0,0-.352.718.819.819,0,0,0,.43.713,4.06,4.06,0,0,0,1.372.449,11.857,11.857,0,0,1,1.655.42,3.007,3.007,0,0,1,2.383,2.939,2.767,2.767,0,0,1-1.284,2.354,5.632,5.632,0,0,1-3.325.908,5.747,5.747,0,0,1-2.422-.488,4.05,4.05,0,0,1-1.66-1.328,3.007,3.007,0,0,1-.6-1.768h3.076a1.272,1.272,0,0,0,.488,1.069,2.009,2.009,0,0,0,1.2.337,1.58,1.58,0,0,0,1.011-.273A.875.875,0,0,0,214.707,18.031ZM65.645,38.35a8.782,8.782,0,0,1-.654,3.55,5.485,5.485,0,0,1-1.836,2.329l2.539,1.992L64.414,47.4l-3-2.383a6.1,6.1,0,0,1-1.484.176,5.3,5.3,0,0,1-5-3.179,8.439,8.439,0,0,1-.737-3.54V37.451a8.691,8.691,0,0,1,.713-3.623,5.272,5.272,0,0,1,5-3.242,5.505,5.505,0,0,1,3.022.83A5.355,5.355,0,0,1,64.941,33.8a8.77,8.77,0,0,1,.7,3.638Zm-1.875-.918a6.453,6.453,0,0,0-1-3.872,3.612,3.612,0,0,0-5.645-.01,6.245,6.245,0,0,0-1.05,3.755V38.35A6.434,6.434,0,0,0,57.095,42.2a3.607,3.607,0,0,0,5.649.083,6.348,6.348,0,0,0,1.025-3.794Zm11.006,6.523a3.837,3.837,0,0,1-3.1,1.24,3.285,3.285,0,0,1-2.573-.981,4.248,4.248,0,0,1-.894-2.905V34.434H70.02V41.26q0,2.4,1.953,2.4a2.7,2.7,0,0,0,2.754-1.543V34.434h1.807V45H74.814Zm8.887,1.24a4.617,4.617,0,0,1-3.5-1.411,5.237,5.237,0,0,1-1.348-3.774v-.332a6.341,6.341,0,0,1,.6-2.808,4.685,4.685,0,0,1,1.68-1.934,4.223,4.223,0,0,1,2.339-.7,3.957,3.957,0,0,1,3.2,1.357,5.877,5.877,0,0,1,1.143,3.887v.752H80.625a3.756,3.756,0,0,0,.913,2.524,2.87,2.87,0,0,0,2.222.962,3.147,3.147,0,0,0,1.621-.391,4.073,4.073,0,0,0,1.162-1.035l1.1.859A4.437,4.437,0,0,1,83.662,45.2Zm-.225-9.473a2.41,2.41,0,0,0-1.836.8,3.869,3.869,0,0,0-.918,2.231h5.293v-.137a3.441,3.441,0,0,0-.742-2.134A2.269,2.269,0,0,0,83.438,35.723ZM84.316,30H86.5l-2.617,2.871-1.455,0Zm16.66,12.2a1.33,1.33,0,0,0-.552-1.138,5.311,5.311,0,0,0-1.924-.7,9.1,9.1,0,0,1-2.178-.7,3.1,3.1,0,0,1-1.191-.977,2.336,2.336,0,0,1-.386-1.348,2.741,2.741,0,0,1,1.1-2.2,4.291,4.291,0,0,1,2.808-.9,4.415,4.415,0,0,1,2.915.928,2.947,2.947,0,0,1,1.118,2.373h-1.816a1.631,1.631,0,0,0-.63-1.279,2.36,2.36,0,0,0-1.587-.537,2.47,2.47,0,0,0-1.543.43,1.353,1.353,0,0,0-.557,1.123,1.1,1.1,0,0,0,.518.986,6.368,6.368,0,0,0,1.87.635,9.744,9.744,0,0,1,2.192.723,3.2,3.2,0,0,1,1.245,1.011,2.485,2.485,0,0,1,.405,1.44,2.7,2.7,0,0,1-1.133,2.271,4.752,4.752,0,0,1-2.939.854,5.321,5.321,0,0,1-2.246-.449,3.653,3.653,0,0,1-1.528-1.255,3.025,3.025,0,0,1-.552-1.743h1.807a1.87,1.87,0,0,0,.728,1.44,2.822,2.822,0,0,0,1.792.532,2.913,2.913,0,0,0,1.646-.415A1.275,1.275,0,0,0,100.977,42.2Zm3.682-2.578a6.241,6.241,0,0,1,.61-2.793,4.553,4.553,0,0,1,1.7-1.914,4.626,4.626,0,0,1,2.485-.674,4.456,4.456,0,0,1,3.491,1.494,5.748,5.748,0,0,1,1.333,3.975v.127a6.3,6.3,0,0,1-.591,2.769A4.486,4.486,0,0,1,112,44.512a4.679,4.679,0,0,1-2.524.684,4.445,4.445,0,0,1-3.481-1.494,5.719,5.719,0,0,1-1.333-3.955Zm1.816.215a4.52,4.52,0,0,0,.815,2.822,2.763,2.763,0,0,0,4.37-.015,4.943,4.943,0,0,0,.811-3.022,4.513,4.513,0,0,0-.825-2.817,2.623,2.623,0,0,0-2.192-1.079,2.594,2.594,0,0,0-2.158,1.064A4.906,4.906,0,0,0,106.475,39.834Zm11.777-5.4.059,1.328a3.85,3.85,0,0,1,3.164-1.523q3.35,0,3.379,3.779V45h-1.807V38.008a2.432,2.432,0,0,0-.522-1.689,2.094,2.094,0,0,0-1.6-.547,2.607,2.607,0,0,0-1.543.469,3.183,3.183,0,0,0-1.035,1.23V45h-1.807V34.434Zm17.734,7.92,2.461-7.92h1.934l-4.248,12.2q-.986,2.637-3.135,2.637l-.342-.029-.674-.127V47.646l.488.039a2.4,2.4,0,0,0,1.431-.371,2.686,2.686,0,0,0,.845-1.357l.4-1.074-3.77-10.449h1.973ZM151.328,45.2a4.617,4.617,0,0,1-3.5-1.411,5.237,5.237,0,0,1-1.348-3.774v-.332a6.341,6.341,0,0,1,.6-2.808,4.685,4.685,0,0,1,1.68-1.934,4.223,4.223,0,0,1,2.339-.7,3.957,3.957,0,0,1,3.2,1.357,5.877,5.877,0,0,1,1.143,3.887v.752h-7.158a3.756,3.756,0,0,0,.913,2.524,2.87,2.87,0,0,0,2.222.962,3.147,3.147,0,0,0,1.621-.391,4.073,4.073,0,0,0,1.162-1.035l1.1.859A4.437,4.437,0,0,1,151.328,45.2Zm-.225-9.473a2.41,2.41,0,0,0-1.836.8,3.868,3.868,0,0,0-.918,2.231h5.293v-.137a3.441,3.441,0,0,0-.742-2.134A2.269,2.269,0,0,0,151.1,35.723Zm8.3-1.289V46.221q0,3.047-2.764,3.047a3.371,3.371,0,0,1-1.1-.175V47.656a3.493,3.493,0,0,0,.82.078,1.227,1.227,0,0,0,.923-.327,1.619,1.619,0,0,0,.317-1.139V34.434Zm-1.992-2.8a1.083,1.083,0,0,1,.269-.737.987.987,0,0,1,.786-.308,1.024,1.024,0,0,1,.8.3,1.067,1.067,0,0,1,.273.742,1.032,1.032,0,0,1-.273.732,1.043,1.043,0,0,1-.8.293,1.01,1.01,0,0,1-.791-.293A1.054,1.054,0,0,1,157.412,31.631ZM166.7,45.2a4.617,4.617,0,0,1-3.5-1.411,5.237,5.237,0,0,1-1.348-3.774v-.332a6.341,6.341,0,0,1,.6-2.808,4.685,4.685,0,0,1,1.68-1.934,4.223,4.223,0,0,1,2.339-.7,3.957,3.957,0,0,1,3.2,1.357,5.877,5.877,0,0,1,1.143,3.887v.752h-7.158a3.756,3.756,0,0,0,.913,2.524,2.87,2.87,0,0,0,2.222.962,3.147,3.147,0,0,0,1.621-.391,4.073,4.073,0,0,0,1.162-1.035l1.1.859A4.437,4.437,0,0,1,166.7,45.2Zm-.225-9.473a2.41,2.41,0,0,0-1.836.8,3.868,3.868,0,0,0-.918,2.231h5.293v-.137a3.441,3.441,0,0,0-.742-2.134A2.269,2.269,0,0,0,166.475,35.723Zm8.135-1.289.049,1.172a3.9,3.9,0,0,1,3.135-1.367,3.021,3.021,0,0,1,3.018,1.7,4,4,0,0,1,1.372-1.23,4.052,4.052,0,0,1,2-.469q3.477,0,3.535,3.682V45h-1.807V38.027a2.426,2.426,0,0,0-.518-1.694,2.279,2.279,0,0,0-1.738-.562,2.4,2.4,0,0,0-1.67.6,2.436,2.436,0,0,0-.771,1.616V45h-1.816V38.076a2.016,2.016,0,0,0-2.256-2.3,2.417,2.417,0,0,0-2.432,1.514V45H172.9V34.434Zm24.756,5.4a6.327,6.327,0,0,1-1.1,3.887,3.537,3.537,0,0,1-2.988,1.475,3.875,3.875,0,0,1-3.027-1.221v5.088h-1.807V34.434h1.65l.088,1.172a3.722,3.722,0,0,1,3.066-1.367,3.6,3.6,0,0,1,3.013,1.436,6.4,6.4,0,0,1,1.108,3.994Zm-1.807-.205a4.669,4.669,0,0,0-.762-2.822,2.454,2.454,0,0,0-2.09-1.035,2.656,2.656,0,0,0-2.461,1.455v5.049a2.661,2.661,0,0,0,2.48,1.445,2.442,2.442,0,0,0,2.065-1.03A5.1,5.1,0,0,0,197.559,39.629ZM203.623,45h-1.807V30h1.807Zm2.412-5.381a6.241,6.241,0,0,1,.61-2.793,4.553,4.553,0,0,1,1.7-1.914,4.626,4.626,0,0,1,2.485-.674,4.456,4.456,0,0,1,3.491,1.494,5.748,5.748,0,0,1,1.333,3.975v.127a6.3,6.3,0,0,1-.591,2.769,4.486,4.486,0,0,1-1.689,1.909,4.679,4.679,0,0,1-2.524.684,4.445,4.445,0,0,1-3.481-1.494,5.719,5.719,0,0,1-1.333-3.955Zm1.816.215a4.52,4.52,0,0,0,.815,2.822,2.763,2.763,0,0,0,4.37-.015,4.943,4.943,0,0,0,.811-3.022,4.513,4.513,0,0,0-.825-2.817,2.623,2.623,0,0,0-2.192-1.079,2.594,2.594,0,0,0-2.158,1.064A4.906,4.906,0,0,0,207.852,39.834ZM224.072,42.2a1.33,1.33,0,0,0-.552-1.138,5.311,5.311,0,0,0-1.924-.7,9.1,9.1,0,0,1-2.178-.7,3.1,3.1,0,0,1-1.191-.977,2.336,2.336,0,0,1-.386-1.348,2.741,2.741,0,0,1,1.1-2.2,4.291,4.291,0,0,1,2.808-.9,4.415,4.415,0,0,1,2.915.928,2.947,2.947,0,0,1,1.118,2.373h-1.816a1.631,1.631,0,0,0-.63-1.279,2.36,2.36,0,0,0-1.587-.537,2.47,2.47,0,0,0-1.543.43,1.353,1.353,0,0,0-.557,1.123,1.1,1.1,0,0,0,.518.986,6.368,6.368,0,0,0,1.87.635,9.744,9.744,0,0,1,2.192.723,3.2,3.2,0,0,1,1.245,1.011,2.485,2.485,0,0,1,.405,1.44,2.7,2.7,0,0,1-1.133,2.271,4.752,4.752,0,0,1-2.939.854,5.321,5.321,0,0,1-2.246-.449,3.653,3.653,0,0,1-1.528-1.255,3.025,3.025,0,0,1-.552-1.743h1.807a1.87,1.87,0,0,0,.728,1.44,2.822,2.822,0,0,0,1.792.532,2.913,2.913,0,0,0,1.646-.415A1.275,1.275,0,0,0,224.072,42.2Z" transform="translate(914 1920)" fill="#12263f"/></g></svg>