<svg xmlns="http://www.w3.org/2000/svg" xmlns:xlink="http://www.w3.org/1999/xlink" width="726" height="631" viewBox="0 0 726 631"><defs><filter id="a" x="0" y="0" width="726" height="631" filterUnits="userSpaceOnUse"><feOffset dy="3" input="SourceAlpha"/><feGaussianBlur stdDeviation="3" result="b"/><feFlood flood-opacity="0.161"/><feComposite operator="in" in2="b"/><feComposite in="SourceGraphic"/></filter></defs><g transform="translate(-691 -1188)"><g transform="matrix(1, 0, 0, 1, 691, 1188)" filter="url(#a)"><rect width="708" height="613" rx="14" transform="translate(9 6)" fill="#fff"/></g><g transform="translate(578.572 782.12)"><g transform="translate(257.104 509.966)"><g transform="translate(109.027)"><path d="M465.045,508.833c-.236,0-.467-.018-.7-.018A215.9,215.9,0,0,0,356.4,537.6L465.045,725.787Z" transform="translate(-356.397 -508.815)"/></g><g transform="translate(29.267 28.787)"><path d="M361.762,535.666A216.214,216.214,0,0,0,282,615.072L470.41,723.85Z" transform="translate(-282.002 -535.666)" fill="#fff"/></g><g transform="translate(217.675 29.394)"><path d="M645.089,615.642a216.224,216.224,0,0,0-79.055-79.41L457.737,723.81Z" transform="translate(-457.737 -536.232)" fill="#58585a"/></g><g transform="translate(217.675 0.018)"><path d="M566.035,538.208a215.874,215.874,0,0,0-108.3-29.376V725.786Z" transform="translate(-457.737 -508.832)" fill="#38383a"/></g><g transform="translate(217.675 108.804)"><path d="M674.007,718.468A215.884,215.884,0,0,0,645.089,610.3L457.737,718.468Z" transform="translate(-457.737 -610.3)" fill="#707173"/></g><g transform="translate(0 108.194)"><path d="M283.971,609.731A215.887,215.887,0,0,0,254.7,718.509H472.379Z" transform="translate(-254.704 -609.731)" fill="#ececee"/></g><g transform="translate(29.268 216.972)"><path d="M282,819.969a216.2,216.2,0,0,0,79.76,79.405L470.41,711.192Z" transform="translate(-282.003 -711.192)" fill="#d9dadc"/></g><g transform="translate(0 216.972)"><path d="M254.7,711.192a215.873,215.873,0,0,0,29.268,108.777L472.379,711.192Z" transform="translate(-254.704 -711.192)" fill="#d9dadc"/></g><g transform="translate(217.675 216.972)"><path d="M457.737,711.192,645.089,819.36a215.884,215.884,0,0,0,28.917-108.168Z" transform="translate(-457.737 -711.192)" fill="#87888a"/></g><g transform="translate(217.675 216.972)"><path d="M566.035,898.769a216.21,216.21,0,0,0,79.055-79.409L457.737,711.192Z" transform="translate(-457.737 -711.192)" fill="#9d9ea0"/></g><g transform="translate(109.028 216.972)"><path d="M356.4,899.374a215.881,215.881,0,0,0,107.945,28.788c.235,0,.466-.016.7-.017V711.192Z" transform="translate(-356.398 -711.192)" fill="#c6c7c9"/></g><g transform="translate(217.675 216.972)"><path d="M457.737,928.146a215.884,215.884,0,0,0,108.3-29.377l-108.3-187.577Z" transform="translate(-457.737 -711.192)" fill="#b2b3b5"/></g></g><text transform="translate(321.608 614.239)" font-size="16" font-family="Roboto-Black, Roboto" font-weight="800"><tspan x="0" y="0">BLANCO</tspan></text><text transform="translate(370.876 507.851)" font-size="16" font-family="Roboto-Black, Roboto" font-weight="800"><tspan x="0" y="0">NEGRO</tspan></text><text transform="translate(410.456 572.304)" fill="#fff" font-size="15" font-family="Roboto-Black, Roboto" font-weight="800"><tspan x="0" y="0">100%</tspan></text><g transform="translate(653.64 546.384)"><path d="M681.851,821.247l-3.72-1.526A254.417,254.417,0,0,0,624.567,545.6l2.874-2.812a258.441,258.441,0,0,1,54.41,278.464Z" transform="translate(-624.567 -542.783)" fill="#74766b"/><g transform="translate(42.668 258.972)"><path d="M679.527,797.019l-8.485-12.684-.456.28-1.3,22.838q-2.464,11.106-4.925,22.213,6.9-9.048,13.794-18.094l16.613-15.726-.014-.5Z" transform="translate(-664.365 -784.335)" fill="#74766b"/></g></g><g transform="translate(221.428 589.462)"><path d="M284,887.5a258.435,258.435,0,0,1-36.651-281.352l3.616,1.758A254.414,254.414,0,0,0,287.046,884.88Z" transform="translate(-221.428 -581.291)" fill="#74766b"/><g transform="translate(9.637)"><path d="M245.723,614.583l7.665,13.2.472-.25,2.741-22.711q3.162-10.929,6.323-21.856-7.455,8.592-14.913,17.183l-17.576,14.641-.017.5Z" transform="translate(-230.417 -582.963)" fill="#74766b"/></g></g></g></g></svg>