<svg xmlns="http://www.w3.org/2000/svg" xmlns:xlink="http://www.w3.org/1999/xlink" width="726" height="631" viewBox="0 0 726 631"><defs><filter id="a" x="0" y="0" width="726" height="631" filterUnits="userSpaceOnUse"><feOffset dy="3" input="SourceAlpha"/><feGaussianBlur stdDeviation="3" result="b"/><feFlood flood-opacity="0.161"/><feComposite operator="in" in2="b"/><feComposite in="SourceGraphic"/></filter><filter id="c" x="333.705" y="148.073" width="321.687" height="245.349" filterUnits="userSpaceOnUse"><feOffset dy="3" input="SourceAlpha"/><feGaussianBlur stdDeviation="3" result="d"/><feFlood flood-opacity="0.161"/><feComposite operator="in" in2="d"/><feComposite in="SourceGraphic"/></filter></defs><g transform="translate(-691 -3800)"><g transform="matrix(1, 0, 0, 1, 691, 3800)" filter="url(#a)"><rect width="708" height="613" rx="14" transform="translate(9 6)" fill="#fff"/></g><g transform="matrix(-0.966, -0.259, 0.259, -0.966, -4260.891, 6441.43)"><g transform="translate(-4752.589 3383.633)"><g transform="translate(121.134)"><path d="M-4480.064,3583.564v-168.59a215.726,215.726,0,0,0-108.383,29.008l84.308,146.026A47.92,47.92,0,0,1-4480.064,3583.564Z" transform="translate(4601.235 -3389.403)" fill="#b52615"/><path d="M-4482.949,3409.2v-25.571a241.189,241.189,0,0,0-121.17,32.431l12.788,22.148A215.731,215.731,0,0,1-4482.949,3409.2Z" transform="translate(4604.12 -3383.632)" fill="#84190c"/><path d="M-4477.517,3588.658V3442.641a193.266,193.266,0,0,0-97.095,25.986l73.021,126.475A47.918,47.918,0,0,1-4477.517,3588.658Z" transform="translate(4598.687 -3394.497)" fill="#cd2c19"/><path d="M-4474.81,3594.07V3472.035a169.382,169.382,0,0,0-85.1,22.778l61.027,105.7A47.923,47.923,0,0,1-4474.81,3594.07Z" transform="translate(4595.981 -3399.909)" fill="#f1361f"/><path d="M-4472.144,3599.4V3501a145.866,145.866,0,0,0-73.284,19.614l49.209,85.234A47.922,47.922,0,0,1-4472.144,3599.4Z" transform="translate(4593.314 -3405.241)" fill="#f14350"/><path d="M-4516.984,3570.7a95.314,95.314,0,0,1,47.885-12.817V3534.1a119.193,119.193,0,0,0-59.793,15.978Z" transform="translate(4590.27 -3411.334)" fill="#f36780"/><path d="M-4502.3,3596.84a71.435,71.435,0,0,1,35.892-9.608v-23.984a95.311,95.311,0,0,0-47.886,12.818Z" transform="translate(4587.583 -3416.702)" fill="#f593b2"/><path d="M-4463.746,3616.2v-23.984a71.8,71.8,0,0,0-36.068,9.655l11.994,20.774A47.917,47.917,0,0,1-4463.746,3616.2Z" transform="translate(4584.917 -3422.034)" fill="#f9cfe4"/></g><g transform="translate(0.779 122.005)"><path d="M-4545.215,3633.134l-146-84.295a215.738,215.738,0,0,0-29.07,108.367h168.618A47.915,47.915,0,0,1-4545.215,3633.134Z" transform="translate(4745.863 -3536.053)" fill="#001cb7"/><path d="M-4696.989,3545.954l-22.145-12.786a241.181,241.181,0,0,0-32.5,121.152h25.575A215.717,215.717,0,0,1-4696.989,3545.954Z" transform="translate(4751.633 -3533.168)" fill="#001286"/><path d="M-4540.121,3635.681l-126.455-73.008a193.262,193.262,0,0,0-26.042,97.08h146.041A47.922,47.922,0,0,1-4540.121,3635.681Z" transform="translate(4740.767 -3538.6)" fill="#0022d0"/><path d="M-4534.708,3638.387l-105.684-61.016a169.379,169.379,0,0,0-22.826,85.088h122.053A47.924,47.924,0,0,1-4534.708,3638.387Z" transform="translate(4735.355 -3541.306)" fill="#1f2bf5"/><path d="M-4529.375,3641.053l-85.219-49.2a145.862,145.862,0,0,0-19.656,73.273h98.419A47.917,47.917,0,0,1-4529.375,3641.053Z" transform="translate(4730.021 -3543.973)" fill="#4e3cf6"/><path d="M-4577.362,3668.172a95.31,95.31,0,0,1,12.842-47.879l-20.6-11.893a119.192,119.192,0,0,0-16.06,59.772Z" transform="translate(4723.933 -3547.02)" fill="#6d62f7"/><path d="M-4548,3670.855a71.441,71.441,0,0,1,9.626-35.886l-20.77-11.992a95.307,95.307,0,0,0-12.842,47.878Z" transform="translate(4718.56 -3549.703)" fill="#9485f5"/><path d="M-4512.578,3649.449l-20.771-11.991a71.787,71.787,0,0,0-9.673,36.063h23.987A47.917,47.917,0,0,1-4512.578,3649.449Z" transform="translate(4713.226 -3552.37)" fill="#bcb6fa"/></g><g transform="translate(32.89 32.637)"><path d="M-4521.477,3596.781l-84.295-146a215.724,215.724,0,0,0-79.359,79.314L-4539.1,3614.4A47.921,47.921,0,0,1-4521.477,3596.781Z" transform="translate(4707.279 -3428.632)" fill="#5021b7"/><path d="M-4610.769,3445.78l-12.787-22.145a241.183,241.183,0,0,0-88.721,88.672l22.148,12.787A215.714,215.714,0,0,1-4610.769,3445.78Z" transform="translate(4712.276 -3423.635)" fill="#1e1387"/><path d="M-4517.064,3601.191l-73.009-126.454a193.255,193.255,0,0,0-71.094,71.053l126.475,73.021A47.926,47.926,0,0,1-4517.064,3601.191Z" transform="translate(4702.866 -3433.043)" fill="#6929d2"/><path d="M-4512.376,3605.879l-61.017-105.685a169.394,169.394,0,0,0-62.312,62.276L-4530,3623.5A47.913,47.913,0,0,1-4512.376,3605.879Z" transform="translate(4698.179 -3437.73)" fill="#8d34f6"/><path d="M-4507.757,3610.5l-49.2-85.22a145.868,145.868,0,0,0-53.659,53.628l85.233,49.21A47.913,47.913,0,0,1-4507.757,3610.5Z" transform="translate(4693.56 -3442.348)" fill="#9a4af6"/><path d="M-4561.354,3609.58a95.325,95.325,0,0,1,35.061-35.043l-11.892-20.6a119.184,119.184,0,0,0-43.795,43.734Z" transform="translate(4688.288 -3447.625)" fill="#a350f6"/><path d="M-4535.926,3626.222a71.437,71.437,0,0,1,26.28-26.266l-11.993-20.771a95.334,95.334,0,0,0-35.062,35.043Z" transform="translate(4683.634 -3452.273)" fill="#b571f6"/><path d="M-4493.211,3625.04l-11.993-20.771a71.791,71.791,0,0,0-26.409,26.4l20.773,11.993A47.915,47.915,0,0,1-4493.211,3625.04Z" transform="translate(4679.015 -3456.891)" fill="#e3d0fc"/></g><g transform="translate(120.841 285.108)"><path d="M-4480.422,3739.522v168.589a215.734,215.734,0,0,1-108.384-29.007l84.308-146.027A47.913,47.913,0,0,0-4480.422,3739.522Z" transform="translate(4601.593 -3733.076)" fill="#49ba63"/><path d="M-4483.308,3941.063v25.571a241.19,241.19,0,0,1-121.171-32.43l12.787-22.148A215.74,215.74,0,0,0-4483.308,3941.063Z" transform="translate(4604.479 -3766.029)" fill="#348936"/><path d="M-4477.875,3739.522v146.017a193.267,193.267,0,0,1-97.1-25.987l73.021-126.476A47.908,47.908,0,0,0-4477.875,3739.522Z" transform="translate(4599.046 -3733.076)" fill="#53d37d"/><path d="M-4475.168,3739.522v122.034a169.4,169.4,0,0,1-85.1-22.776l61.027-105.7A47.91,47.91,0,0,0-4475.168,3739.522Z" transform="translate(4596.339 -3733.076)" fill="#63f9a2"/><path d="M-4472.5,3739.522v98.4a145.871,145.871,0,0,1-73.285-19.614l49.209-85.234A47.911,47.911,0,0,0-4472.5,3739.522Z" transform="translate(4593.673 -3733.076)" fill="#6cffa7"/><path d="M-4517.342,3783.624a95.306,95.306,0,0,0,47.885,12.818v23.786a119.177,119.177,0,0,1-59.794-15.979Z" transform="translate(4590.628 -3742.383)" fill="#86fac3"/><path d="M-4502.663,3758.164a71.449,71.449,0,0,0,35.893,9.607v23.984a95.313,95.313,0,0,1-47.886-12.818Z" transform="translate(4587.941 -3737.696)" fill="#a1fbcf"/><path d="M-4464.1,3739.522V3763.5a71.8,71.8,0,0,1-36.068-9.654l11.993-20.774A47.913,47.913,0,0,0-4464.1,3739.522Z" transform="translate(4585.275 -3733.076)" fill="#a1fbcf"/></g><g transform="translate(0 242.993)"><path d="M-4546.169,3705.53l-146,84.3a215.722,215.722,0,0,1-29.07-108.366h168.617A47.914,47.914,0,0,0-4546.169,3705.53Z" transform="translate(4746.817 -3681.459)" fill="#001cb7"/><path d="M-4697.943,3789.825l-22.145,12.786a241.188,241.188,0,0,1-32.5-121.152h25.575A215.722,215.722,0,0,0-4697.943,3789.825Z" transform="translate(4752.589 -3681.459)" fill="#001286"/><path d="M-4541.075,3705.53l-126.455,73.009a193.269,193.269,0,0,1-26.043-97.08h146.041A47.924,47.924,0,0,0-4541.075,3705.53Z" transform="translate(4741.723 -3681.459)" fill="#0022d1"/><path d="M-4535.662,3705.53l-105.684,61.017a169.38,169.38,0,0,1-22.826-85.088h122.053A47.924,47.924,0,0,0-4535.662,3705.53Z" transform="translate(4736.31 -3681.459)" fill="#0032f5"/><path d="M-4530.329,3705.53l-85.219,49.2a145.876,145.876,0,0,1-19.657-73.274h98.419A47.924,47.924,0,0,0-4530.329,3705.53Z" transform="translate(4730.977 -3681.459)" fill="#1241f6"/><path d="M-4578.318,3681.459a95.327,95.327,0,0,0,12.843,47.879l-20.6,11.893a119.184,119.184,0,0,1-16.06-59.771Z" transform="translate(4724.888 -3681.459)" fill="#3b60f5"/><path d="M-4548.957,3681.459a71.439,71.439,0,0,0,9.626,35.886l-20.771,11.992a95.327,95.327,0,0,1-12.843-47.879Z" transform="translate(4719.515 -3681.459)" fill="#6377f7"/><path d="M-4513.532,3705.53l-20.771,11.991a71.792,71.792,0,0,1-9.673-36.062h23.987A47.914,47.914,0,0,0-4513.532,3705.53Z" transform="translate(4714.181 -3681.459)" fill="#8c9cf8"/></g><g transform="translate(32.598 267.31)"><path d="M-4521.835,3728.881l-84.295,146a215.736,215.736,0,0,1-79.358-79.313l146.025-84.309A47.928,47.928,0,0,0-4521.835,3728.881Z" transform="translate(4707.637 -3711.262)" fill="#0030b9"/><path d="M-4611.127,3893.909l-12.785,22.145a241.176,241.176,0,0,1-88.722-88.67l22.148-12.788A215.729,215.729,0,0,0-4611.127,3893.909Z" transform="translate(4712.634 -3730.287)" fill="#001283"/><path d="M-4517.423,3728.881l-73.008,126.455a193.256,193.256,0,0,1-71.094-71.054l126.474-73.02A47.928,47.928,0,0,0-4517.423,3728.881Z" transform="translate(4703.224 -3711.262)" fill="#0047d0"/><path d="M-4512.735,3728.881l-61.016,105.684a169.373,169.373,0,0,1-62.312-62.276l105.7-61.027A47.929,47.929,0,0,0-4512.735,3728.881Z" transform="translate(4698.537 -3711.262)" fill="#076bf6"/><path d="M-4508.117,3728.881l-49.2,85.219a145.87,145.87,0,0,1-53.66-53.629l85.234-49.209A47.919,47.919,0,0,0-4508.117,3728.881Z" transform="translate(4693.918 -3711.262)" fill="#3082f7"/><path d="M-4561.712,3740.446a95.312,95.312,0,0,0,35.062,35.043l-11.894,20.6a119.184,119.184,0,0,1-43.794-43.734Z" transform="translate(4688.646 -3716.635)" fill="#5f9af8"/><path d="M-4536.284,3725.745a71.45,71.45,0,0,0,26.28,26.267L-4522,3772.783a95.329,95.329,0,0,1-35.062-35.043Z" transform="translate(4683.992 -3713.929)" fill="#87bffa"/><path d="M-4493.572,3728.881l-11.991,20.77a71.791,71.791,0,0,1-26.409-26.4l20.773-11.993A47.93,47.93,0,0,0-4493.572,3728.881Z" transform="translate(4679.373 -3711.262)" fill="#b6dafc"/></g><g transform="translate(242.313 285.108)"><path d="M-4455.6,3739.522v168.589a215.729,215.729,0,0,0,108.383-29.007l-84.308-146.027A47.909,47.909,0,0,1-4455.6,3739.522Z" transform="translate(4455.597 -3733.076)" fill="#4aba36"/><path d="M-4455.6,3941.063v25.571a241.186,241.186,0,0,0,121.171-32.43l-12.788-22.148A215.734,215.734,0,0,1-4455.6,3941.063Z" transform="translate(4455.597 -3766.029)" fill="#348825"/><path d="M-4455.6,3739.522v146.017a193.266,193.266,0,0,0,97.1-25.987l-73.021-126.476A47.909,47.909,0,0,1-4455.6,3739.522Z" transform="translate(4455.597 -3733.076)" fill="#55d33e"/><path d="M-4455.6,3739.522v122.034a169.4,169.4,0,0,0,85.1-22.776l-61.027-105.7A47.909,47.909,0,0,1-4455.6,3739.522Z" transform="translate(4455.597 -3733.076)" fill="#69ef52"/><path d="M-4455.6,3739.522v98.4a145.873,145.873,0,0,0,73.285-19.614l-49.209-85.234A47.909,47.909,0,0,1-4455.6,3739.522Z" transform="translate(4455.597 -3733.076)" fill="#6ff85f"/><path d="M-4407.711,3783.624a95.311,95.311,0,0,1-47.886,12.818v23.786a119.175,119.175,0,0,0,59.794-15.979Z" transform="translate(4455.597 -3742.383)" fill="#88f882"/><path d="M-4419.7,3758.164a71.444,71.444,0,0,1-35.892,9.607v23.984a95.316,95.316,0,0,0,47.886-12.818Z" transform="translate(4455.597 -3737.696)" fill="#a1f9ae"/><path d="M-4455.6,3739.522V3763.5a71.792,71.792,0,0,0,36.068-9.654l-11.993-20.774A47.909,47.909,0,0,1-4455.6,3739.522Z" transform="translate(4455.597 -3733.076)" fill="#c9fccf"/></g><g transform="translate(283.678 242.993)"><path d="M-4404.9,3705.53l146,84.3a215.732,215.732,0,0,0,29.07-108.366h-168.617A47.924,47.924,0,0,1-4404.9,3705.53Z" transform="translate(4404.897 -3681.459)" fill="#c0bd3b"/><path d="M-4225.948,3789.825l22.145,12.786a241.177,241.177,0,0,0,32.5-121.152h-25.575A215.727,215.727,0,0,1-4225.948,3789.825Z" transform="translate(4371.951 -3681.459)" fill="#8c8b29"/><path d="M-4404.9,3705.53l126.455,73.009a193.263,193.263,0,0,0,26.042-97.08h-146.041A47.918,47.918,0,0,1-4404.9,3705.53Z" transform="translate(4404.897 -3681.459)" fill="#dad744"/><path d="M-4404.9,3705.53l105.685,61.017a169.394,169.394,0,0,0,22.825-85.088h-122.054A47.918,47.918,0,0,1-4404.9,3705.53Z" transform="translate(4404.897 -3681.459)" fill="#fffc52"/><path d="M-4404.9,3705.53l85.22,49.2a145.884,145.884,0,0,0,19.656-73.274h-98.419A47.924,47.924,0,0,1-4404.9,3705.53Z" transform="translate(4404.897 -3681.459)" fill="#fffd5f"/><path d="M-4341.516,3681.459a95.316,95.316,0,0,1-12.842,47.879l20.6,11.893a119.2,119.2,0,0,0,16.06-59.771Z" transform="translate(4395.592 -3681.459)" fill="#fffd7c"/><path d="M-4370.189,3681.459a71.439,71.439,0,0,1-9.626,35.886l20.771,11.992a95.316,95.316,0,0,0,12.842-47.879Z" transform="translate(4400.28 -3681.459)" fill="#fffda5"/><path d="M-4404.9,3705.53l20.77,11.991a71.782,71.782,0,0,0,9.673-36.062h-23.986A47.924,47.924,0,0,1-4404.9,3705.53Z" transform="translate(4404.897 -3681.459)" fill="#fffdc9"/></g><g transform="translate(265.926 267.31)"><path d="M-4426.656,3728.881l84.3,146A215.748,215.748,0,0,0-4263,3795.571l-146.027-84.309A47.926,47.926,0,0,1-4426.656,3728.881Z" transform="translate(4426.656 -3711.262)" fill="#52ba36"/><path d="M-4323.338,3893.909l12.786,22.145a241.2,241.2,0,0,0,88.722-88.67l-22.148-12.788A215.743,215.743,0,0,1-4323.338,3893.909Z" transform="translate(4407.633 -3730.287)" fill="#348825"/><path d="M-4426.656,3728.881l73.009,126.455a193.263,193.263,0,0,0,71.094-71.054l-126.475-73.02A47.926,47.926,0,0,1-4426.656,3728.881Z" transform="translate(4426.656 -3711.262)" fill="#67d43f"/><path d="M-4426.3,3730.177l61.017,105.684a169.391,169.391,0,0,0,62.313-62.276l-105.7-61.027A47.923,47.923,0,0,1-4426.3,3730.177Z" transform="translate(4426.59 -3711.501)" fill="#88f95a"/><path d="M-4426.656,3728.881l49.2,85.219a145.857,145.857,0,0,0,53.659-53.629l-85.232-49.209A47.926,47.926,0,0,1-4426.656,3728.881Z" transform="translate(4426.656 -3711.262)" fill="#99f85a"/><path d="M-4362.415,3740.446a95.311,95.311,0,0,1-35.06,35.043l11.893,20.6a119.188,119.188,0,0,0,43.794-43.734Z" transform="translate(4421.282 -3716.635)" fill="#b6fa7b"/><path d="M-4385.893,3725.745a71.451,71.451,0,0,1-26.28,26.267l11.992,20.771a95.326,95.326,0,0,0,35.061-35.043Z" transform="translate(4423.989 -3713.929)" fill="#c9fba4"/><path d="M-4426.656,3728.881l11.993,20.77a71.8,71.8,0,0,0,26.409-26.4l-20.773-11.993A47.926,47.926,0,0,1-4426.656,3728.881Z" transform="translate(4426.656 -3711.262)" fill="#e5fdd1"/></g><g transform="translate(242.606)"><path d="M-4455.238,3583.564v-168.59a215.729,215.729,0,0,1,108.383,29.008l-84.309,146.026A47.918,47.918,0,0,0-4455.238,3583.564Z" transform="translate(4455.238 -3389.403)" fill="#b42614"/><path d="M-4455.238,3409.2v-25.571a241.185,241.185,0,0,1,121.17,32.431l-12.787,22.148A215.734,215.734,0,0,0-4455.238,3409.2Z" transform="translate(4455.238 -3383.632)" fill="#84190c"/><path d="M-4455.238,3588.658V3442.641a193.268,193.268,0,0,1,97.1,25.986l-73.021,126.475A47.918,47.918,0,0,0-4455.238,3588.658Z" transform="translate(4455.238 -3394.497)" fill="#cd2c1f"/><path d="M-4455.238,3594.07V3472.035a169.38,169.38,0,0,1,85.1,22.778l-61.027,105.7A47.918,47.918,0,0,0-4455.238,3594.07Z" transform="translate(4455.238 -3399.909)" fill="#f23d3c"/><path d="M-4455.238,3599.4V3501a145.864,145.864,0,0,1,73.284,19.614l-49.209,85.234A47.919,47.919,0,0,0-4455.238,3599.4Z" transform="translate(4455.238 -3405.241)" fill="#f25c5d"/><path d="M-4407.352,3570.7a95.317,95.317,0,0,0-47.886-12.817V3534.1a119.19,119.19,0,0,1,59.793,15.978Z" transform="translate(4455.238 -3411.334)" fill="#f47c80"/><path d="M-4419.346,3596.84a71.439,71.439,0,0,0-35.892-9.608v-23.984a95.313,95.313,0,0,1,47.886,12.818Z" transform="translate(4455.238 -3416.702)" fill="#f69fa6"/><path d="M-4455.238,3616.2v-23.984a71.8,71.8,0,0,1,36.068,9.655l-11.994,20.774A47.918,47.918,0,0,0-4455.238,3616.2Z" transform="translate(4455.238 -3422.034)" fill="#facece"/></g><g transform="translate(283.97 121.568)"><path d="M-4404.54,3632.6l146-84.295a215.736,215.736,0,0,1,29.07,108.367h-168.617A47.922,47.922,0,0,0-4404.54,3632.6Z" transform="translate(4404.54 -3535.519)" fill="#a5541e"/><path d="M-4225.589,3545.418l22.145-12.785a241.179,241.179,0,0,1,32.5,121.152h-25.576A215.73,215.73,0,0,0-4225.589,3545.418Z" transform="translate(4371.593 -3532.634)" fill="#852f10"/><path d="M-4404.54,3635.146l126.456-73.01a193.273,193.273,0,0,1,26.042,97.082h-146.041A47.919,47.919,0,0,0-4404.54,3635.146Z" transform="translate(4404.54 -3538.065)" fill="#b65e20"/><path d="M-4404.54,3637.852l105.685-61.017a169.392,169.392,0,0,1,22.825,85.088h-122.053A47.922,47.922,0,0,0-4404.54,3637.852Z" transform="translate(4404.54 -3540.772)" fill="#f69d35"/><path d="M-4404.54,3640.518l85.22-49.2a145.864,145.864,0,0,1,19.655,73.273h-98.418A47.92,47.92,0,0,0-4404.54,3640.518Z" transform="translate(4404.54 -3543.438)" fill="#f8b44e"/><path d="M-4341.157,3667.637A95.319,95.319,0,0,0-4354,3619.758l20.6-11.894a119.2,119.2,0,0,1,16.059,59.772Z" transform="translate(4395.235 -3546.484)" fill="#f9c074"/><path d="M-4369.831,3670.32a71.443,71.443,0,0,0-9.626-35.888l20.771-11.991a95.321,95.321,0,0,1,12.843,47.879Z" transform="translate(4399.922 -3549.168)" fill="#fad9a2"/><path d="M-4404.54,3648.914l20.771-11.992a71.792,71.792,0,0,1,9.673,36.064h-23.986A47.923,47.923,0,0,0-4404.54,3648.914Z" transform="translate(4404.54 -3551.834)" fill="#fce5cf"/></g><g transform="translate(266.218 32.637)"><path d="M-4426.3,3596.781l84.3-146a215.729,215.729,0,0,1,79.359,79.314l-146.026,84.308A47.919,47.919,0,0,0-4426.3,3596.781Z" transform="translate(4426.298 -3428.632)" fill="#b53617"/><path d="M-4322.981,3445.78l12.786-22.145a241.186,241.186,0,0,1,88.722,88.672l-22.148,12.787A215.728,215.728,0,0,0-4322.981,3445.78Z" transform="translate(4407.276 -3423.635)" fill="#83190c"/><path d="M-4426.3,3601.191l73.01-126.454a193.262,193.262,0,0,1,71.092,71.053l-126.474,73.021A47.927,47.927,0,0,0-4426.3,3601.191Z" transform="translate(4426.298 -3433.043)" fill="#ce4c1e"/><path d="M-4426.3,3605.879l61.017-105.685a169.394,169.394,0,0,1,62.313,62.276l-105.7,61.027A47.919,47.919,0,0,0-4426.3,3605.879Z" transform="translate(4426.298 -3437.73)" fill="#f4702a"/><path d="M-4426.3,3610.5l49.2-85.22a145.858,145.858,0,0,1,53.658,53.628l-85.232,49.21A47.922,47.922,0,0,0-4426.3,3610.5Z" transform="translate(4426.298 -3442.348)" fill="#f58745"/><path d="M-4362.057,3609.58a95.317,95.317,0,0,0-35.061-35.043l11.892-20.6a119.179,119.179,0,0,1,43.794,43.734Z" transform="translate(4420.924 -3447.625)" fill="#f59e6f"/><path d="M-4385.536,3626.222a71.439,71.439,0,0,0-26.28-26.266l11.992-20.771a95.327,95.327,0,0,1,35.062,35.043Z" transform="translate(4423.631 -3452.273)" fill="#f7c29f"/><path d="M-4426.3,3625.04l11.992-20.771a71.786,71.786,0,0,1,26.41,26.4l-20.773,11.993A47.922,47.922,0,0,0-4426.3,3625.04Z" transform="translate(4426.298 -3456.891)" fill="#fadad0"/></g></g></g><g transform="matrix(1, 0, 0, 1, 691, 3800)" filter="url(#c)"><path d="M-3947.431,4676.726H-4154.1a317.008,317.008,0,0,0,42.626,159.267l29.112-16.807,110.619-63.866h0l18.2-10.5,63.123-36.444h0a63.235,63.235,0,0,1-3.5-7.042q-.835-1.978-1.542-4.021-1-2.9-1.717-5.929-.48-2.016-.826-4.08a63.6,63.6,0,0,1-.88-10.573Z" transform="matrix(-0.97, -0.26, 0.26, -0.97, -4619.78, 3821.79)" fill="#fff" stroke="#fff" stroke-width="3"/></g><g transform="matrix(-0.966, -0.259, 0.259, -0.966, 1292.42, 4177.303)"><path d="M-4495.034,3712.561l-188.648,108.916a278.731,278.731,0,0,1-37.561-140.018h217.866A61.91,61.91,0,0,0-4495.034,3712.561Z" transform="translate(4754.288 -3681.459)" fill="#001cb7"/><path d="M-4681.983,3821.477-4710.6,3838a311.63,311.63,0,0,1-41.993-156.538h33.045A278.731,278.731,0,0,0-4681.983,3821.477Z" transform="translate(4752.589 -3681.459)" fill="#001286"/><path d="M-4496.534,3712.561l-163.389,94.333a249.72,249.72,0,0,1-33.65-125.435h188.7A61.92,61.92,0,0,0-4496.534,3712.561Z" transform="translate(4755.786 -3681.459)" fill="#0022d1"/><path d="M-4498.127,3712.561l-136.552,78.838a218.853,218.853,0,0,1-29.492-109.94h157.7A61.925,61.925,0,0,0-4498.127,3712.561Z" transform="translate(4757.379 -3681.459)" fill="#0032f5"/><path d="M-4499.7,3712.561l-110.109,63.573a188.489,188.489,0,0,1-25.4-94.675h127.165A61.92,61.92,0,0,0-4499.7,3712.561Z" transform="translate(4758.95 -3681.459)" fill="#1241f6"/><path d="M-4571.362,3681.459a123.174,123.174,0,0,0,16.594,61.863l-26.616,15.367a153.993,153.993,0,0,1-20.75-77.229Z" transform="translate(4760.742 -3681.459)" fill="#3b60f5"/><path d="M-4541.951,3681.459a92.31,92.31,0,0,0,12.438,46.368l-26.838,15.495a123.169,123.169,0,0,1-16.594-61.863Z" transform="translate(4762.325 -3681.459)" fill="#6377f7"/><path d="M-4504.641,3712.561l-26.838,15.493a92.753,92.753,0,0,1-12.5-46.6h30.993A61.92,61.92,0,0,0-4504.641,3712.561Z" transform="translate(4763.894 -3681.459)" fill="#8c9cf8"/></g></g></svg>