<svg xmlns="http://www.w3.org/2000/svg" xmlns:xlink="http://www.w3.org/1999/xlink" width="726" height="631" viewBox="0 0 726 631"><defs><filter id="a" x="0" y="0" width="726" height="631" filterUnits="userSpaceOnUse"><feOffset dy="3" input="SourceAlpha"/><feGaussianBlur stdDeviation="3" result="b"/><feFlood flood-opacity="0.161"/><feComposite operator="in" in2="b"/><feComposite in="SourceGraphic"/></filter></defs><g transform="translate(-691 -10330)"><g transform="matrix(1, 0, 0, 1, 691, 10330)" filter="url(#a)"><rect width="708" height="613" rx="14" transform="translate(9 6)" fill="#fff"/></g><g transform="translate(-7 10)"><g transform="translate(4208.292 9072.623)"><circle cx="13.69" cy="13.69" r="13.69" transform="translate(-3319.939 1637.687)" fill="#44215b"/><circle cx="13.69" cy="13.69" r="13.69" transform="translate(-3279.811 1637.687)" fill="#87d057"/><circle cx="13.69" cy="13.69" r="13.69" transform="translate(-3239.683 1637.687)" fill="#236548"/><circle cx="13.69" cy="13.69" r="13.69" transform="translate(-3199.555 1637.687)" fill="#266c55"/><circle cx="13.69" cy="13.69" r="13.69" transform="translate(-3159.427 1637.687)" fill="#d3324f"/><circle cx="13.69" cy="13.69" r="13.69" transform="translate(-3319.939 1689.829)" fill="#02255a"/><circle cx="13.69" cy="13.69" r="13.69" transform="translate(-3279.811 1689.829)" fill="#f14a90"/><circle cx="13.69" cy="13.69" r="13.69" transform="translate(-3239.683 1689.829)" fill="#f380b4"/><circle cx="13.69" cy="13.69" r="13.69" transform="translate(-3199.555 1689.829)" fill="#e33a2d"/><circle cx="13.69" cy="13.69" r="13.69" transform="translate(-3159.427 1689.829)" fill="#277db1"/><circle cx="13.69" cy="13.69" r="13.69" transform="translate(-3319.939 1741.443)" fill="#181724"/><circle cx="13.69" cy="13.69" r="13.69" transform="translate(-3279.811 1741.443)" fill="#3b4b54"/><circle cx="13.69" cy="13.69" r="13.69" transform="translate(-3239.683 1741.443)" fill="#7e213d"/><circle cx="13.69" cy="13.69" r="13.69" transform="translate(-3199.555 1741.443)" fill="#3b1308"/><circle cx="13.69" cy="13.69" r="13.69" transform="translate(-3159.427 1741.443)" fill="#fff" stroke="#898989" stroke-miterlimit="10" stroke-width="1"/><circle cx="13.69" cy="13.69" r="13.69" transform="translate(-3319.939 1460.191)" fill="#22665e"/><circle cx="13.69" cy="13.69" r="13.69" transform="translate(-3279.811 1460.191)" fill="#7db9a0"/><circle cx="13.69" cy="13.69" r="13.69" transform="translate(-3239.683 1460.191)" fill="#fffeb9"/><circle cx="13.69" cy="13.69" r="13.69" transform="translate(-3319.939 1512.333)" fill="#2f5374"/><circle cx="13.69" cy="13.69" r="13.69" transform="translate(-3279.811 1512.333)" fill="#7e87a8"/><circle cx="13.69" cy="13.69" r="13.69" transform="translate(-3239.683 1512.333)" fill="#616065"/><circle cx="13.69" cy="13.69" r="13.69" transform="translate(-3199.555 1512.333)" fill="#fff" stroke="#898989" stroke-miterlimit="10" stroke-width="1"/><circle cx="13.69" cy="13.69" r="13.69" transform="translate(-3159.427 1512.333)" fill="#9b8b8c"/><circle cx="13.69" cy="13.69" r="13.69" transform="translate(-3319.939 1563.946)" fill="#3c6e8b"/><circle cx="13.69" cy="13.69" r="13.69" transform="translate(-3279.811 1563.946)" fill="#7d3d54"/><circle cx="13.69" cy="13.69" r="13.69" transform="translate(-3239.683 1563.946)" fill="#9f2d49"/><circle cx="13.69" cy="13.69" r="13.69" transform="translate(-3199.555 1563.946)" fill="#ea90af"/><circle cx="13.69" cy="13.69" r="13.69" transform="translate(-3159.427 1563.946)" fill="#f7abb5"/><circle cx="13.69" cy="13.69" r="13.69" transform="translate(-3084.949 1637.687)" fill="#cf4732"/><circle cx="13.69" cy="13.69" r="13.69" transform="translate(-3044.821 1637.687)" fill="#822c15"/><circle cx="13.69" cy="13.69" r="13.69" transform="translate(-3004.693 1637.687)" fill="#8f5328"/><circle cx="13.69" cy="13.69" r="13.69" transform="translate(-2964.565 1637.687)" fill="#479235"/><circle cx="13.69" cy="13.69" r="13.69" transform="translate(-3084.949 1689.829)" fill="#1e3e16"/><circle cx="13.69" cy="13.69" r="13.69" transform="translate(-3044.821 1689.829)" fill="#f37e2d"/><circle cx="13.69" cy="13.69" r="13.69" transform="translate(-3004.693 1689.829)" fill="#f26c3c"/><circle cx="13.69" cy="13.69" r="13.69" transform="translate(-2964.565 1689.829)" fill="#76641d"/><circle cx="13.69" cy="13.69" r="13.69" transform="translate(-2924.437 1689.829)" fill="#f48680"/><circle cx="13.69" cy="13.69" r="13.69" transform="translate(-3084.949 1741.443)" fill="#287ca4"/><circle cx="13.69" cy="13.69" r="13.69" transform="translate(-3044.821 1741.443)" fill="#d4a836"/><circle cx="13.69" cy="13.69" r="13.69" transform="translate(-3004.693 1741.443)" fill="#fff" stroke="#898989" stroke-miterlimit="10" stroke-width="1"/><circle cx="13.69" cy="13.69" r="13.69" transform="translate(-2964.565 1741.443)" fill="#d5bf73"/><circle cx="13.69" cy="13.69" r="13.69" transform="translate(-2924.437 1741.443)" fill="#ef6358"/><circle cx="13.69" cy="13.69" r="13.69" transform="translate(-3084.949 1460.191)" fill="#a7d98c"/><circle cx="13.69" cy="13.69" r="13.69" transform="translate(-3044.821 1460.191)" fill="#399348"/><circle cx="13.69" cy="13.69" r="13.69" transform="translate(-3004.693 1460.191)" fill="#4fd1d0"/><circle cx="13.69" cy="13.69" r="13.69" transform="translate(-3084.949 1512.333)" fill="#fcd85f"/><circle cx="13.69" cy="13.69" r="13.69" transform="translate(-3044.821 1512.333)" fill="#2b2249"/><circle cx="13.69" cy="13.69" r="13.69" transform="translate(-3004.693 1512.333)" fill="#f58f45"/><circle cx="13.69" cy="13.69" r="13.69" transform="translate(-2964.565 1512.333)" fill="#d69e7d"/><circle cx="13.69" cy="13.69" r="13.69" transform="translate(-2924.437 1512.333)" fill="#5d382f"/><circle cx="13.69" cy="13.69" r="13.69" transform="translate(-3084.949 1563.946)" fill="#ca5a9e"/><circle cx="13.69" cy="13.69" r="13.69" transform="translate(-3044.821 1563.946)" fill="#f8bc9f"/><circle cx="13.69" cy="13.69" r="13.69" transform="translate(-3004.693 1563.946)" fill="#d1351b"/><circle cx="13.69" cy="13.69" r="13.69" transform="translate(-2964.565 1563.946)" fill="#f06964"/><circle cx="13.69" cy="13.69" r="13.69" transform="translate(-2924.437 1563.946)" fill="#f3948f"/><line y2="411.278" transform="translate(-3351.836 1368.677)" fill="none" stroke="#b1b1b1" stroke-miterlimit="10" stroke-width="2"/><line x2="541.69" transform="translate(-3408.292 1410.172)" fill="none" stroke="#b1b1b1" stroke-miterlimit="10" stroke-width="2"/></g><text transform="translate(858 10413)" fill="#12263f" font-size="18" font-family="Roboto-Bold, Roboto" font-weight="700"><tspan x="-63.945" y="19">TEMPERATURA</tspan></text><text transform="translate(781 10853) rotate(-90)" fill="#12263f" font-size="18" font-family="Roboto-Bold, Roboto" font-weight="700"><tspan x="-59.678" y="19">LUMINOSIDAD</tspan></text><text transform="translate(858 10449)" fill="#12263f" font-size="18" font-family="Roboto-Medium, Roboto" font-weight="500"><tspan x="-15.227" y="19">Fría</tspan></text><text transform="translate(1097 10449)" fill="#12263f" font-size="18" font-family="Roboto-Medium, Roboto" font-weight="500"><tspan x="-25.291" y="19">Cálida</tspan></text><text transform="translate(820 10853) rotate(-90)" fill="#12263f" font-size="18" font-family="Roboto-Medium, Roboto" font-weight="500"><tspan x="-28.472" y="19">Oscura</tspan></text><text transform="translate(888.5 10679)" fill="#12263f" font-size="16" font-family="Roboto-Medium, Roboto" font-weight="500"><tspan x="-36.09" y="17">INVIERNO</tspan></text><text transform="translate(888.5 10502)" fill="#12263f" font-size="16" font-family="Roboto-Medium, Roboto" font-weight="500"><tspan x="-31.219" y="17">VERANO</tspan></text><text transform="translate(1123.5 10679)" fill="#12263f" font-size="16" font-family="Roboto-Medium, Roboto" font-weight="500"><tspan x="-26.664" y="17">OTOÑO</tspan></text><text transform="translate(1123.5 10502)" fill="#12263f" font-size="16" font-family="Roboto-Medium, Roboto" font-weight="500"><tspan x="-44.406" y="17">PRIMAVERA</tspan></text><text transform="translate(1005.5 10672)" fill="#12263f" font-size="14" font-family="Roboto-Regular, Roboto"><tspan x="-20.792" y="15">Croma</tspan><tspan x="-25.057" y="31">brillante</tspan></text><text transform="translate(1003.5 10492)" fill="#12263f" font-size="14" font-family="Roboto-Regular, Roboto"><tspan x="-20.792" y="15">Croma</tspan><tspan x="-18.324" y="31">suave</tspan></text><text transform="translate(820 10683) rotate(-90)" fill="#12263f" font-size="18" font-family="Roboto-Medium, Roboto" font-weight="500"><tspan x="-20.944" y="19">Clara</tspan></text><path d="M22.074,14.078H.844A.767.767,0,0,0,0,14.732v3.052a.767.767,0,0,0,.844.654h21.23v2.51c0,1.165,1.818,1.749,2.881.925l6.051-4.69a1.112,1.112,0,0,0,0-1.85l-6.051-4.69c-1.063-.824-2.881-.24-2.881.925Z" transform="translate(1138 10671.5)" fill="#b9b9b9"/><path d="M22.074,14.078H.844A.767.767,0,0,0,0,14.732v3.052a.767.767,0,0,0,.844.654h21.23v2.51c0,1.165,1.818,1.749,2.881.925l6.051-4.69a1.112,1.112,0,0,0,0-1.85l-6.051-4.69c-1.063-.824-2.881-.24-2.881.925Z" transform="translate(1138 10493.5)" fill="#b9b9b9"/><path d="M22.074,14.078H.844A.767.767,0,0,0,0,14.732v3.052a.767.767,0,0,0,.844.654h21.23v2.51c0,1.165,1.818,1.749,2.881.925l6.051-4.69a1.112,1.112,0,0,0,0-1.85l-6.051-4.69c-1.063-.824-2.881-.24-2.881.925Z" transform="translate(1061.5 10704.017) rotate(180)" fill="#b9b9b9"/><path d="M22.074,14.078H.844A.767.767,0,0,0,0,14.732v3.052a.767.767,0,0,0,.844.654h21.23v2.51c0,1.165,1.818,1.749,2.881.925l6.051-4.69a1.112,1.112,0,0,0,0-1.85l-6.051-4.69c-1.063-.824-2.881-.24-2.881.925Z" transform="translate(1061.5 10526.017) rotate(180)" fill="#b9b9b9"/></g></g></svg>