<svg id="Grupo_1067755" data-name="Grupo 1067755" xmlns="http://www.w3.org/2000/svg" width="63.411" height="63.411" viewBox="0 0 63.411 63.411">
  <path id="Trazado_716195" data-name="Trazado 716195" d="M31.705,0A31.705,31.705,0,1,1,0,31.705,31.705,31.705,0,0,1,31.705,0Z" transform="translate(0 0)" fill="#f5947a"/>
  <g id="video-svgrepo-com" transform="translate(4.756 10.304)">
    <path id="Trazado_735317" data-name="Trazado 735317" d="M759.3,352h6.594c1.212,0,2.2.72,2.2,1.6v21.689c0,.884-.986,1.6-2.2,1.6h-5.5" transform="translate(-711.956 -342.708)" fill="#025157"/>
    <path id="Trazado_735318" data-name="Trazado 735318" d="M765.886,355.968H760.4V352.1h5.491a1.05,1.05,0,0,0,.258-.031V331.1a1.162,1.162,0,0,0-.258-.031H759.3V327.2h6.594c2.315,0,4.13,1.556,4.13,3.543v21.689C770.023,354.419,768.2,355.968,765.886,355.968Z" transform="translate(-711.956 -319.848)" fill="#333"/>
    <path id="Trazado_735319" data-name="Trazado 735319" d="M180.731,258h41.532a1.931,1.931,0,0,1,1.932,1.932v35.807a1.931,1.931,0,0,1-1.932,1.932H180.731a1.931,1.931,0,0,1-1.932-1.932V259.932A1.926,1.926,0,0,1,180.731,258Z" transform="translate(-176.86 -256.06)" fill="#fff"/>
    <path id="Trazado_735320" data-name="Trazado 735320" d="M199.4,276.75H157.872A3.875,3.875,0,0,1,154,272.879V237.072a3.875,3.875,0,0,1,3.872-3.872H199.4a3.875,3.875,0,0,1,3.872,3.872v35.807A3.875,3.875,0,0,1,199.4,276.75Zm-41.532-39.679v35.807H199.4V237.072Z" transform="translate(-154 -233.2)" fill="#333"/>
    <path id="Trazado_735321" data-name="Trazado 735321" d="M403.7,376.2l-14.767,10.543a.97.97,0,0,1-1.533-.79V364.87a.97.97,0,0,1,1.533-.79L403.7,374.623a.967.967,0,0,1,.227,1.353A1.04,1.04,0,0,1,403.7,376.2Z" transform="translate(-369.145 -353.677)" fill="#025157"/>
    <path id="Trazado_735322" data-name="Trazado 735322" d="M365.61,366.091a3.378,3.378,0,0,1-.485-.039,2.857,2.857,0,0,1-1.885-1.181,2.9,2.9,0,0,1-.54-1.689V342.1a2.9,2.9,0,0,1,4.591-2.362l14.767,10.543a2.909,2.909,0,0,1,.673,4.052,2.811,2.811,0,0,1-.681.68l-14.767,10.543A2.876,2.876,0,0,1,365.61,366.091Zm.954-22.1v17.325l12.131-8.658-12.131-8.666Zm13.242,7.868Z" transform="translate(-346.376 -330.909)" fill="#333"/>
  </g>
</svg>
