<svg xmlns="http://www.w3.org/2000/svg" width="415.844" height="250.6" viewBox="0 0 415.844 250.6">
  <g id="Grupo_56349" data-name="Grupo 56349" transform="translate(-20.869 -1272.394)">
    <g id="Grupo_56348" data-name="Grupo 56348" transform="translate(20.869 1272.394)">
      <g id="Grupo_56230" data-name="Grupo 56230" transform="translate(302.943 22.235)">
        <g id="Grupo_56229" data-name="Grupo 56229">
          <path id="Trazado_106418" data-name="Trazado 106418" d="M808.792,1381.1q-.314.173-.629.337a.31.31,0,0,1-.419-.132.318.318,0,0,1,.132-.419,28.741,28.741,0,0,0,3.157-1.909.311.311,0,1,1,.356.51A29.049,29.049,0,0,1,808.792,1381.1Zm-4.035,1.835a.3.3,0,0,1-.044.02,28.747,28.747,0,0,1-3.62,1.054.311.311,0,0,1-.134-.608,28.028,28.028,0,0,0,3.541-1.031.311.311,0,0,1,.257.565Zm9.516-5.759a.311.311,0,0,1-.36-.5,27.976,27.976,0,0,0,2.552-2.66.311.311,0,1,1,.476.4,28.631,28.631,0,0,1-2.609,2.72A.3.3,0,0,1,814.274,1377.179Zm-16.785,7.365a.31.31,0,0,1-.124.037,28.866,28.866,0,0,1-3.77.074.311.311,0,0,1,.029-.621,28.219,28.219,0,0,0,3.689-.072.311.311,0,0,1,.176.583Zm21.571-13.061a.311.311,0,0,1-.413-.439,28.288,28.288,0,0,0,1.773-3.234.311.311,0,1,1,.564.263,28.917,28.917,0,0,1-1.812,3.306A.309.309,0,0,1,819.06,1371.482ZM790.053,1384.2a.312.312,0,0,1-.2.034,29.1,29.1,0,0,1-3.66-.9.311.311,0,0,1,.188-.593,28.394,28.394,0,0,0,3.581.884.311.311,0,0,1,.1.579Zm32.151-19.464a.311.311,0,0,1-.447-.366,28.375,28.375,0,0,0,.879-3.583.311.311,0,0,1,.613.108,29.076,29.076,0,0,1-.9,3.661A.311.311,0,0,1,822.2,1364.737Zm-39.244,17.214a.311.311,0,0,1-.282.01,28.851,28.851,0,0,1-3.3-1.816.311.311,0,0,1,.335-.524,28.366,28.366,0,0,0,3.23,1.777.311.311,0,0,1,.019.554Zm40.542-24.543a.311.311,0,0,1-.461-.287,28.266,28.266,0,0,0-.077-3.688.311.311,0,0,1,.62-.054,28.8,28.8,0,0,1,.079,3.77A.311.311,0,0,1,823.5,1357.408Zm-46.81,20.54a.31.31,0,0,1-.35-.035,28.52,28.52,0,0,1-2.717-2.613.311.311,0,1,1,.46-.419,28.058,28.058,0,0,0,2.658,2.556.311.311,0,0,1,.037.438A.314.314,0,0,1,776.692,1377.948Zm-5.013-5.5a.312.312,0,0,1-.4-.1,29.242,29.242,0,0,1-1.594-2.568q-.181-.328-.352-.659a.311.311,0,0,1,.552-.287c.112.217.227.431.345.646a28.657,28.657,0,0,0,1.56,2.513.311.311,0,0,1-.078.433Zm-3.422-6.608a.272.272,0,0,1-.045.02.311.311,0,0,1-.4-.186,28.767,28.767,0,0,1-1.05-3.62.311.311,0,0,1,.608-.134,28.034,28.034,0,0,0,1.027,3.542A.311.311,0,0,1,768.257,1365.841Zm-1.6-7.269a.312.312,0,0,1-.46-.247,28.88,28.88,0,0,1-.069-3.771.311.311,0,0,1,.622.029,28.2,28.2,0,0,0,.068,3.689A.312.312,0,0,1,766.661,1358.572Zm43.8-26.368a.31.31,0,0,1-.319-.01,28.318,28.318,0,0,0-3.228-1.785.311.311,0,1,1,.265-.563,28.843,28.843,0,0,1,3.3,1.825.311.311,0,0,1-.017.534Zm-43.446,18.932a.311.311,0,0,1-.456-.328,29.12,29.12,0,0,1,.907-3.658.311.311,0,1,1,.593.189,28.489,28.489,0,0,0-.888,3.58A.312.312,0,0,1,767.011,1351.136Zm36.711-22.1a.311.311,0,0,1-.245.024,28.5,28.5,0,0,0-3.579-.892.311.311,0,1,1,.11-.612,29.031,29.031,0,0,1,3.658.912.311.311,0,0,1,.055.569Zm-34.453,15.01a.311.311,0,0,1-.432-.4,28.928,28.928,0,0,1,1.82-3.3.311.311,0,1,1,.524.336,28.192,28.192,0,0,0-1.78,3.228A.315.315,0,0,1,769.27,1344.044Zm27.129-16.335a.306.306,0,0,1-.165.038,28.193,28.193,0,0,0-3.688.063.311.311,0,1,1-.051-.62,28.815,28.815,0,0,1,3.77-.065.311.311,0,0,1,.135.583Zm-23.119,10.072a.311.311,0,0,1-.388-.473,28.706,28.706,0,0,1,2.616-2.714.311.311,0,1,1,.418.461,28.078,28.078,0,0,0-2.559,2.655A.306.306,0,0,1,773.28,1337.782Zm15.7-9.455a.3.3,0,0,1-.084.031,28.13,28.13,0,0,0-3.545,1.023.311.311,0,0,1-.211-.585,28.788,28.788,0,0,1,3.623-1.046.311.311,0,0,1,.217.577Zm-10.2,4.45a.311.311,0,0,1-.327-.528,29.19,29.19,0,0,1,3.229-1.942.311.311,0,1,1,.286.552,28.874,28.874,0,0,0-3.161,1.9Z" transform="translate(-766.099 -1327.092)" fill="#b5ac84"/>
        </g>
      </g>
      <g id="Grupo_56237" data-name="Grupo 56237" transform="translate(347.777 25.871)">
        <g id="Grupo_56236" data-name="Grupo 56236">
          <g id="Grupo_56231" data-name="Grupo 56231">
            <path id="Trazado_106419" data-name="Trazado 106419" d="M889.321,1352.4a8.723,8.723,0,1,1,3.428-11.849A8.732,8.732,0,0,1,889.321,1352.4Zm-7.977-14.474a7.8,7.8,0,1,0,10.6,3.068A7.813,7.813,0,0,0,881.343,1337.922Z" transform="translate(-876.389 -1336.035)" fill="#b5ac84"/>
          </g>
          <g id="Grupo_56232" data-name="Grupo 56232" transform="translate(4.359 9.258)">
            <path id="Trazado_106420" data-name="Trazado 106420" d="M888.9,1361.067a1.2,1.2,0,1,1,.474-1.636A1.205,1.205,0,0,1,888.9,1361.067Zm-.867-1.573a.592.592,0,1,0,.8.233A.593.593,0,0,0,888.03,1359.494Z" transform="translate(-887.112 -1358.809)" fill="#b5ac84"/>
          </g>
          <g id="Grupo_56233" data-name="Grupo 56233" transform="translate(10.523 5.86)">
            <path id="Trazado_106421" data-name="Trazado 106421" d="M904.062,1352.709a1.2,1.2,0,1,1,.473-1.636A1.206,1.206,0,0,1,904.062,1352.709Zm-.867-1.573a.592.592,0,1,0,.8.233A.592.592,0,0,0,903.2,1351.136Z" transform="translate(-902.277 -1350.451)" fill="#b5ac84"/>
          </g>
          <g id="Grupo_56234" data-name="Grupo 56234" transform="translate(5.742 4.476)">
            <path id="Trazado_106422" data-name="Trazado 106422" d="M890.665,1348.832a1.2,1.2,0,1,1,1.636.473A1.205,1.205,0,0,1,890.665,1348.832Zm1.573-.867a.592.592,0,1,0-.233.8A.593.593,0,0,0,892.238,1347.965Z" transform="translate(-890.515 -1347.047)" fill="#b5ac84"/>
          </g>
          <g id="Grupo_56235" data-name="Grupo 56235" transform="translate(9.14 10.641)">
            <path id="Trazado_106423" data-name="Trazado 106423" d="M899.023,1364a1.2,1.2,0,1,1,1.636.474A1.206,1.206,0,0,1,899.023,1364Zm1.573-.867a.592.592,0,1,0-.232.8A.593.593,0,0,0,900.6,1363.131Z" transform="translate(-898.874 -1362.213)" fill="#b5ac84"/>
          </g>
        </g>
      </g>
      <g id="Grupo_56256" data-name="Grupo 56256" transform="translate(46.495)">
        <g id="Grupo_56255" data-name="Grupo 56255">
          <g id="Grupo_56241" data-name="Grupo 56241" transform="translate(12.916 7.921)">
            <g id="Grupo_56238" data-name="Grupo 56238" transform="translate(0 15.8)">
              <path id="Trazado_106424" data-name="Trazado 106424" d="M167.328,1332.892a.308.308,0,0,1-.174-.053.311.311,0,0,1-.084-.432c.349-.517.714-1.034,1.087-1.534a.311.311,0,1,1,.5.371c-.367.493-.726,1-1.07,1.511A.311.311,0,0,1,167.328,1332.892Z" transform="translate(-167.018 -1330.747)" fill="#b5ac84"/>
            </g>
            <g id="Grupo_56239" data-name="Grupo 56239" transform="translate(3.194 1)">
              <path id="Trazado_106425" data-name="Trazado 106425" d="M175.185,1307.152a.311.311,0,0,1-.233-.517c.743-.842,1.532-1.664,2.344-2.442a.311.311,0,1,1,.43.449c-.8.766-1.576,1.575-2.308,2.4A.31.31,0,0,1,175.185,1307.152Zm4.847-4.643a.311.311,0,0,1-.2-.553c.875-.708,1.789-1.387,2.718-2.017a.311.311,0,0,1,.349.515c-.915.621-1.815,1.289-2.676,1.985A.308.308,0,0,1,180.032,1302.51Zm5.553-3.77a.311.311,0,0,1-.153-.582c.981-.552,2-1.068,3.018-1.533a.311.311,0,0,1,.258.566c-1.006.459-2.006.967-2.971,1.51A.311.311,0,0,1,185.586,1298.74Zm6.106-2.784a.311.311,0,0,1-.1-.6c1.06-.378,2.147-.716,3.233-1a.311.311,0,0,1,.159.6c-1.069.282-2.139.614-3.183.987A.312.312,0,0,1,191.692,1295.956Z" transform="translate(-174.875 -1294.339)" fill="#b5ac84"/>
            </g>
            <g id="Grupo_56240" data-name="Grupo 56240" transform="translate(26.195)">
              <path id="Trazado_106426" data-name="Trazado 106426" d="M231.768,1292.782a.311.311,0,0,1-.053-.617c.614-.107,1.24-.2,1.86-.281a.311.311,0,1,1,.078.617c-.61.078-1.226.171-1.831.277A.355.355,0,0,1,231.768,1292.782Z" transform="translate(-231.457 -1291.88)" fill="#b5ac84"/>
            </g>
          </g>
          <g id="Grupo_56245" data-name="Grupo 56245" transform="translate(6.148 8.639)">
            <g id="Grupo_56242" data-name="Grupo 56242" transform="translate(48.991)">
              <path id="Trazado_106427" data-name="Trazado 106427" d="M273,1294.735a.315.315,0,0,1-.085-.011c-.593-.168-1.2-.323-1.793-.462a.311.311,0,1,1,.141-.606c.606.141,1.219.3,1.821.469a.311.311,0,0,1-.084.61Z" transform="translate(-270.885 -1293.647)" fill="#b5ac84"/>
            </g>
            <g id="Grupo_56243" data-name="Grupo 56243" transform="translate(0.06 1.673)">
              <path id="Trazado_106428" data-name="Trazado 106428" d="M191.22,1375.51a.311.311,0,0,1,0-.622c1.253-.017,2.517-.093,3.756-.228a.311.311,0,0,1,.067.619c-1.259.136-2.542.213-3.815.231Zm-3.79-.126H187.4c-1.269-.1-2.544-.265-3.792-.486a.311.311,0,1,1,.109-.612c1.228.217,2.484.378,3.733.479a.311.311,0,0,1-.024.621Zm11.322-.69a.311.311,0,0,1-.062-.616c1.225-.252,2.452-.566,3.646-.934a.311.311,0,0,1,.183.595c-1.213.373-2.459.692-3.7.948A.3.3,0,0,1,198.752,1374.694Zm-18.784-.631a.315.315,0,0,1-.083-.011c-1.224-.34-2.445-.742-3.631-1.2a.311.311,0,0,1,.223-.581c1.167.448,2.369.844,3.574,1.179a.311.311,0,0,1-.083.61Zm26.026-1.6a.311.311,0,0,1-.12-.6c1.152-.48,2.3-1.021,3.4-1.61a.311.311,0,0,1,.293.549c-1.122.6-2.284,1.148-3.455,1.636A.315.315,0,0,1,205.994,1372.466Zm-33.1-1.117a.313.313,0,0,1-.138-.032c-1.136-.565-2.259-1.193-3.337-1.866a.311.311,0,1,1,.329-.528c1.062.662,2.167,1.28,3.285,1.837a.311.311,0,0,1-.139.589Zm39.788-2.448a.311.311,0,0,1-.172-.57c1.042-.691,2.064-1.439,3.037-2.225a.311.311,0,0,1,.391.484c-.988.8-2.026,1.559-3.084,2.259A.311.311,0,0,1,212.681,1368.9Zm-46.22-1.56a.31.31,0,0,1-.189-.064c-1.008-.77-1.992-1.6-2.925-2.461a.311.311,0,0,1,.422-.456c.919.85,1.888,1.665,2.881,2.424a.311.311,0,0,1-.189.558Zm52.114-3.2a.311.311,0,0,1-.217-.533c.894-.875,1.757-1.8,2.564-2.756a.311.311,0,1,1,.475.4c-.82.969-1.7,1.911-2.6,2.8A.309.309,0,0,1,218.575,1364.137Zm-57.676-1.944a.31.31,0,0,1-.232-.1c-.847-.947-1.658-1.946-2.411-2.967a.311.311,0,0,1,.5-.369c.741,1.005,1.539,1.988,2.374,2.922a.311.311,0,0,1-.232.518Zm62.57-3.842a.311.311,0,0,1-.255-.489c.714-1.027,1.387-2.1,2-3.189a.311.311,0,1,1,.542.3c-.622,1.107-1.306,2.2-2.031,3.239A.311.311,0,0,1,223.469,1358.351Zm-67.065-2.259a.311.311,0,0,1-.267-.151c-.653-1.089-1.261-2.223-1.807-3.369a.311.311,0,1,1,.561-.267c.538,1.128,1.137,2.244,1.78,3.316a.311.311,0,0,1-.267.471Zm70.781-4.346a.307.307,0,0,1-.126-.027.311.311,0,0,1-.158-.41c.507-1.143.963-2.325,1.358-3.51a.311.311,0,0,1,.59.2c-.4,1.2-.865,2.4-1.38,3.566A.312.312,0,0,1,227.184,1351.745Zm-74.041-2.494a.311.311,0,0,1-.292-.2c-.435-1.193-.816-2.422-1.135-3.651a.311.311,0,1,1,.6-.156c.313,1.21.689,2.419,1.116,3.593a.311.311,0,0,1-.292.417Zm76.435-4.7a.317.317,0,0,1-.07-.008.311.311,0,0,1-.234-.373c.279-1.217.5-2.463.665-3.7a.311.311,0,1,1,.617.081c-.165,1.26-.392,2.526-.676,3.762A.311.311,0,0,1,229.578,1344.555Zm-78.334-2.639a.311.311,0,0,1-.307-.262c-.2-1.252-.341-2.53-.421-3.8a.311.311,0,1,1,.621-.039c.079,1.25.218,2.508.415,3.74a.312.312,0,0,1-.259.356A.338.338,0,0,1,151.244,1341.916Zm79.318-4.873h-.011a.311.311,0,0,1-.3-.322c.017-.476.026-.96.026-1.438,0-.773-.023-1.555-.067-2.325a.311.311,0,0,1,.621-.036c.045.782.068,1.577.068,2.362,0,.485-.009.977-.026,1.461A.311.311,0,0,1,230.562,1337.043Zm-.441-7.566a.311.311,0,0,1-.307-.264c-.19-1.236-.442-2.477-.749-3.689a.311.311,0,0,1,.6-.153c.311,1.231.567,2.491.761,3.747a.311.311,0,0,1-.26.354A.338.338,0,0,1,230.121,1329.477Zm-1.861-7.346a.312.312,0,0,1-.293-.207c-.421-1.176-.9-2.346-1.436-3.477a.311.311,0,1,1,.563-.265c.54,1.149,1.031,2.337,1.459,3.531a.312.312,0,0,1-.188.4A.322.322,0,0,1,228.261,1322.131Zm-3.222-6.855a.311.311,0,0,1-.268-.152c-.637-1.075-1.333-2.132-2.07-3.143a.311.311,0,1,1,.5-.366c.748,1.027,1.455,2.1,2.1,3.192a.311.311,0,0,1-.268.469Zm-4.462-6.124a.311.311,0,0,1-.233-.1c-.828-.936-1.711-1.844-2.624-2.7a.311.311,0,0,1,.425-.455c.928.868,1.824,1.79,2.665,2.741a.311.311,0,0,1-.233.517Zm-5.535-5.177a.31.31,0,0,1-.19-.065c-.99-.765-2.029-1.49-3.086-2.157a.311.311,0,0,1,.332-.526c1.074.677,2.128,1.415,3.134,2.191a.311.311,0,0,1-.19.557Zm-6.413-4.043a.3.3,0,0,1-.14-.034c-1.117-.563-2.274-1.079-3.439-1.534a.311.311,0,0,1,.226-.58c1.183.462,2.359.986,3.493,1.559a.311.311,0,0,1-.141.589Z" transform="translate(-150.515 -1297.763)" fill="#b5ac84"/>
            </g>
            <g id="Grupo_56244" data-name="Grupo 56244" transform="translate(0 35.72)">
              <path id="Trazado_106429" data-name="Trazado 106429" d="M150.68,1384h-.01a.311.311,0,0,1-.3-.321c.02-.624.054-1.255.1-1.878a.311.311,0,1,1,.62.049c-.048.613-.082,1.235-.1,1.849A.311.311,0,0,1,150.68,1384Z" transform="translate(-150.369 -1381.517)" fill="#b5ac84"/>
            </g>
          </g>
          <g id="Grupo_56249" data-name="Grupo 56249" transform="translate(12.916 7.921)">
            <g id="Grupo_56246" data-name="Grupo 56246" transform="translate(0 15.8)">
              <path id="Trazado_106430" data-name="Trazado 106430" d="M167.328,1332.892a.308.308,0,0,1-.174-.053.311.311,0,0,1-.084-.432c.349-.517.714-1.034,1.087-1.534a.311.311,0,1,1,.5.371c-.367.493-.726,1-1.07,1.511A.311.311,0,0,1,167.328,1332.892Z" transform="translate(-167.018 -1330.747)" fill="#b5ac84"/>
            </g>
            <g id="Grupo_56247" data-name="Grupo 56247" transform="translate(3.194 1)">
              <path id="Trazado_106431" data-name="Trazado 106431" d="M175.185,1307.152a.311.311,0,0,1-.233-.517c.743-.842,1.532-1.664,2.344-2.442a.311.311,0,1,1,.43.449c-.8.766-1.576,1.575-2.308,2.4A.31.31,0,0,1,175.185,1307.152Zm4.847-4.643a.311.311,0,0,1-.2-.553c.875-.708,1.789-1.387,2.718-2.017a.311.311,0,0,1,.349.515c-.915.621-1.815,1.289-2.676,1.985A.308.308,0,0,1,180.032,1302.51Zm5.553-3.77a.311.311,0,0,1-.153-.582c.981-.552,2-1.068,3.018-1.533a.311.311,0,0,1,.258.566c-1.006.459-2.006.967-2.971,1.51A.311.311,0,0,1,185.586,1298.74Zm6.106-2.784a.311.311,0,0,1-.1-.6c1.06-.378,2.147-.716,3.233-1a.311.311,0,0,1,.159.6c-1.069.282-2.139.614-3.183.987A.312.312,0,0,1,191.692,1295.956Z" transform="translate(-174.875 -1294.339)" fill="#b5ac84"/>
            </g>
            <g id="Grupo_56248" data-name="Grupo 56248" transform="translate(26.195)">
              <path id="Trazado_106432" data-name="Trazado 106432" d="M231.768,1292.782a.311.311,0,0,1-.053-.617c.614-.107,1.24-.2,1.86-.281a.311.311,0,1,1,.078.617c-.61.078-1.226.171-1.831.277A.355.355,0,0,1,231.768,1292.782Z" transform="translate(-231.457 -1291.88)" fill="#b5ac84"/>
            </g>
          </g>
          <g id="Grupo_56250" data-name="Grupo 56250" transform="translate(39.346)">
            <path id="Trazado_106433" data-name="Trazado 106433" d="M244.957,1287.586,240.021,1284l-4.936,3.586,1.885-5.8-4.936-3.586h6.1l1.886-5.8,1.885,5.8h6.1l-4.936,3.586Zm-4.936-4.355,3.753,2.727-1.434-4.412,3.753-2.727h-4.639l-1.433-4.412-1.434,4.412h-4.639l3.753,2.727-1.434,4.412Z" transform="translate(-232.034 -1272.394)" fill="#b5ac84"/>
          </g>
          <g id="Grupo_56254" data-name="Grupo 56254" transform="translate(0 26.086)">
            <g id="Grupo_56251" data-name="Grupo 56251">
              <path id="Trazado_106434" data-name="Trazado 106434" d="M143.967,1354.009a8.722,8.722,0,1,1,8.722-8.722A8.732,8.732,0,0,1,143.967,1354.009Zm0-16.526a7.8,7.8,0,1,0,7.8,7.8A7.813,7.813,0,0,0,143.967,1337.483Z" transform="translate(-135.245 -1336.565)" fill="#b5ac84"/>
            </g>
            <g id="Grupo_56252" data-name="Grupo 56252" transform="translate(4.524 7.518)">
              <path id="Trazado_106435" data-name="Trazado 106435" d="M147.578,1357.468a1.2,1.2,0,1,1,1.2-1.2A1.206,1.206,0,0,1,147.578,1357.468Zm0-1.8a.592.592,0,1,0,.592.592A.593.593,0,0,0,147.578,1355.671Z" transform="translate(-146.374 -1355.059)" fill="#b5ac84"/>
            </g>
            <g id="Grupo_56253" data-name="Grupo 56253" transform="translate(10.339 7.518)">
              <path id="Trazado_106436" data-name="Trazado 106436" d="M161.883,1357.468a1.2,1.2,0,1,1,1.2-1.2A1.206,1.206,0,0,1,161.883,1357.468Zm0-1.8a.592.592,0,1,0,.592.592A.593.593,0,0,0,161.883,1355.671Z" transform="translate(-160.679 -1355.059)" fill="#b5ac84"/>
            </g>
          </g>
        </g>
      </g>
      <g id="Grupo_56257" data-name="Grupo 56257" transform="translate(349.421 189.82)">
        <path id="Trazado_106437" data-name="Trazado 106437" d="M951.522,1739.627c12.655-1.93,24.475,6.733,24.475,6.733s-8.7,11.792-21.355,13.722-24.474-6.733-24.474-6.733S938.866,1741.556,951.522,1739.627Z" transform="translate(-909.95 -1739.346)" fill="#8f8b66"/>
        <path id="Trazado_106438" data-name="Trazado 106438" d="M880.862,1774.109a.559.559,0,0,1-.226-.975,83.193,83.193,0,0,1,20.519-11.481,105.632,105.632,0,0,1,38.41-6.957.559.559,0,1,1-.011,1.119,106.017,106.017,0,0,0-37.988,6.879A82.021,82.021,0,0,0,881.35,1774,.558.558,0,0,1,880.862,1774.109Z" transform="translate(-880.433 -1748.454)" fill="#b3ae7f"/>
        <path id="Trazado_106439" data-name="Trazado 106439" d="M983.94,1751.051a.559.559,0,0,1-.177-1.012l7.79-5.122a.56.56,0,1,1,.615.935l-7.79,5.122A.555.555,0,0,1,983.94,1751.051Z" transform="translate(-941.609 -1742.598)" fill="#b3ae7f"/>
        <path id="Trazado_106440" data-name="Trazado 106440" d="M974.995,1768.466a.564.564,0,0,1-.178-.077l-9.11-6.014a.56.56,0,1,1,.617-.934l9.11,6.014a.56.56,0,0,1-.439,1.011Z" transform="translate(-930.893 -1752.404)" fill="#b3ae7f"/>
        <path id="Trazado_106441" data-name="Trazado 106441" d="M945.3,1758.672a.56.56,0,0,1-.281-.922l5.576-6.091a.56.56,0,1,1,.826.756l-5.576,6.091A.561.561,0,0,1,945.3,1758.672Z" transform="translate(-918.676 -1746.546)" fill="#b3ae7f"/>
      </g>
      <g id="Grupo_56279" data-name="Grupo 56279" transform="translate(354.522 139.551)">
        <path id="Trazado_106442" data-name="Trazado 106442" d="M1019.4,1630.845c-1.884.809-9.146-.031-9.146-.031s4.331-5.983,6.215-6.792,7.435.7,7.435.7S1021.283,1630.035,1019.4,1630.845Z" transform="translate(-962.581 -1620.491)" fill="#7d6871"/>
        <g id="Grupo_56259" data-name="Grupo 56259" transform="translate(0 8.942)">
          <g id="Grupo_56258" data-name="Grupo 56258">
            <path id="Trazado_106443" data-name="Trazado 106443" d="M893.532,1690.61l-.55-.146c10.673-40.251,50.328-52.7,50.716-52.782l.112.558C943.425,1638.317,904.124,1650.665,893.532,1690.61Z" transform="translate(-892.982 -1637.682)" fill="#54464c"/>
          </g>
        </g>
        <g id="Grupo_56262" data-name="Grupo 56262" transform="translate(37.468 14.96)">
          <path id="Trazado_106444" data-name="Trazado 106444" d="M1001.309,1661.408c-1.914-.737-6.524-6.41-6.524-6.41s7.278-1.257,9.191-.521,4.834,5.693,4.834,5.693S1003.223,1662.144,1001.309,1661.408Z" transform="translate(-990.869 -1653.531)" fill="#7d6871"/>
          <g id="Grupo_56261" data-name="Grupo 56261">
            <g id="Grupo_56260" data-name="Grupo 56260">
              <path id="Trazado_106445" data-name="Trazado 106445" d="M998.544,1657.266c-3.344-1.583-13.293-4.2-13.393-4.228l.144-.551c.411.108,10.1,2.659,13.492,4.265Z" transform="translate(-985.151 -1652.487)" fill="#54464c"/>
            </g>
          </g>
        </g>
        <g id="Grupo_56265" data-name="Grupo 56265" transform="translate(25.66 22.981)">
          <path id="Trazado_106446" data-name="Trazado 106446" d="M972.264,1681.137c-1.914-.737-6.524-6.41-6.524-6.41s7.278-1.257,9.192-.521,4.834,5.693,4.834,5.693S974.177,1681.873,972.264,1681.137Z" transform="translate(-961.823 -1673.26)" fill="#7d6871"/>
          <g id="Grupo_56264" data-name="Grupo 56264">
            <g id="Grupo_56263" data-name="Grupo 56263">
              <path id="Trazado_106447" data-name="Trazado 106447" d="M969.5,1677c-3.344-1.583-13.294-4.2-13.394-4.228l.145-.55c.411.108,10.1,2.659,13.492,4.264Z" transform="translate(-956.105 -1672.217)" fill="#54464c"/>
            </g>
          </g>
        </g>
        <g id="Grupo_56268" data-name="Grupo 56268" transform="translate(15.969 32.56)">
          <path id="Trazado_106448" data-name="Trazado 106448" d="M948.424,1704.7c-1.914-.736-6.524-6.41-6.524-6.41s7.278-1.257,9.192-.521,4.834,5.693,4.834,5.693S950.338,1705.438,948.424,1704.7Z" transform="translate(-937.984 -1696.825)" fill="#7d6871"/>
          <g id="Grupo_56267" data-name="Grupo 56267">
            <g id="Grupo_56266" data-name="Grupo 56266">
              <path id="Trazado_106449" data-name="Trazado 106449" d="M945.659,1700.561c-3.344-1.583-13.293-4.2-13.393-4.229l.144-.55c.411.108,10.1,2.659,13.493,4.264Z" transform="translate(-932.266 -1695.782)" fill="#54464c"/>
            </g>
          </g>
        </g>
        <g id="Grupo_56271" data-name="Grupo 56271" transform="translate(8.655 42.177)">
          <path id="Trazado_106450" data-name="Trazado 106450" d="M930.431,1728.358c-1.914-.737-6.524-6.41-6.524-6.41s7.278-1.257,9.192-.521,4.834,5.692,4.834,5.692S932.345,1729.095,930.431,1728.358Z" transform="translate(-919.99 -1720.482)" fill="#7d6871"/>
          <g id="Grupo_56270" data-name="Grupo 56270">
            <g id="Grupo_56269" data-name="Grupo 56269">
              <path id="Trazado_106451" data-name="Trazado 106451" d="M927.666,1724.217c-3.344-1.582-13.294-4.2-13.394-4.228l.145-.551c.411.108,10.1,2.659,13.492,4.264Z" transform="translate(-914.272 -1719.438)" fill="#54464c"/>
            </g>
          </g>
        </g>
        <g id="Grupo_56275" data-name="Grupo 56275" transform="translate(31.337)">
          <g id="Grupo_56273" data-name="Grupo 56273">
            <g id="Grupo_56272" data-name="Grupo 56272">
              <path id="Trazado_106452" data-name="Trazado 106452" d="M977.333,1623.011c-.527,1.981-5.673,7.174-5.673,7.174s-2.03-7.1-1.5-9.083,5.142-5.417,5.142-5.417S977.86,1621.029,977.333,1623.011Z" transform="translate(-970.069 -1615.685)" fill="#7d6871"/>
            </g>
          </g>
          <g id="Grupo_56274" data-name="Grupo 56274" transform="translate(0.537 4.535)">
            <path id="Trazado_106453" data-name="Trazado 106453" d="M971.952,1640.8l-.563-.085c.063-.42,1.56-10.328,2.793-13.872l.538.187C973.5,1630.523,971.967,1640.7,971.952,1640.8Z" transform="translate(-971.389 -1626.842)" fill="#54464c"/>
          </g>
        </g>
        <g id="Grupo_56278" data-name="Grupo 56278" transform="translate(16.6 9.765)">
          <path id="Trazado_106454" data-name="Trazado 106454" d="M941.226,1646.537c-.156,2.045-4.267,8.09-4.267,8.09s-3.293-6.611-3.137-8.655,4.065-6.265,4.065-6.265S941.383,1644.492,941.226,1646.537Z" transform="translate(-933.817 -1639.707)" fill="#7d6871"/>
          <g id="Grupo_56277" data-name="Grupo 56277" transform="translate(2.707 4.806)">
            <g id="Grupo_56276" data-name="Grupo 56276">
              <path id="Trazado_106455" data-name="Trazado 106455" d="M940.589,1665.677c-.015-.424-.352-10.439.211-14.148l.563.086c-.556,3.657-.208,13.94-.2,14.043Z" transform="translate(-940.475 -1651.529)" fill="#54464c"/>
            </g>
          </g>
        </g>
      </g>
      <g id="Grupo_56280" data-name="Grupo 56280" transform="translate(24.56 88.155)">
        <path id="Trazado_106456" data-name="Trazado 106456" d="M128.672,1509.222c-17.714-18.935-47.377-19.969-47.377-19.969s-.943,29.666,16.771,48.6,47.377,19.969,47.377,19.969S146.386,1528.158,128.672,1509.222Z" transform="translate(-81.287 -1489.253)" fill="#8f8b66"/>
        <path id="Trazado_106457" data-name="Trazado 106457" d="M178.112,1611.953a.789.789,0,0,1-.771-.624c-.043-.2-4.386-19.974-18.032-43.423-12.3-21.141-31.7-43.072-51.9-58.665a.789.789,0,1,1,.965-1.249c20.347,15.711,39.9,37.812,52.3,59.12,13.78,23.68,18.168,43.687,18.21,43.886a.79.79,0,0,1-.773.955Z" transform="translate(-96.61 -1500.277)" fill="#b3ae7f"/>
        <path id="Trazado_106458" data-name="Trazado 106458" d="M160.975,1538.971a.79.79,0,0,1-.749-.54l-5.971-17.915a.789.789,0,1,1,1.5-.5l5.972,17.915a.79.79,0,0,1-.749,1.039Z" transform="translate(-124.569 -1507.191)" fill="#b3ae7f"/>
        <path id="Trazado_106459" data-name="Trazado 106459" d="M161.05,1591.294l-.067,0-22.033-1.853a.789.789,0,0,1,.133-1.573l22.033,1.853a.789.789,0,0,1-.065,1.576Z" transform="translate(-115.08 -1547.776)" fill="#b3ae7f"/>
        <path id="Trazado_106460" data-name="Trazado 106460" d="M218.038,1603.588a.789.789,0,0,1-.786-.732l-1.236-16.679a.789.789,0,1,1,1.574-.116l1.235,16.679a.789.789,0,0,1-.729.846Z" transform="translate(-161.246 -1546.274)" fill="#b3ae7f"/>
      </g>
      <g id="Grupo_56283" data-name="Grupo 56283" transform="translate(39.727 140.614)">
        <path id="Trazado_106461" data-name="Trazado 106461" d="M126.752,1619.271c2.308,1.66,6.5,10.89,6.5,10.89s-10.2-.872-12.511-2.533a5.148,5.148,0,0,1,6.013-8.358Z" transform="translate(-118.597 -1618.301)" fill="#7d6871"/>
        <path id="Trazado_106462" data-name="Trazado 106462" d="M193.656,1698.671a.473.473,0,0,1-.43-.275c-.152-.328-15.624-33.174-52.162-61.187a.474.474,0,0,1,.576-.751c36.733,28.162,52.292,61.21,52.445,61.541a.473.473,0,0,1-.231.629A.468.468,0,0,1,193.656,1698.671Z" transform="translate(-131.821 -1629.019)" fill="#54464c"/>
        <g id="Grupo_56281" data-name="Grupo 56281" transform="translate(9.84 20.321)">
          <path id="Trazado_106463" data-name="Trazado 106463" d="M147.028,1668.342c2.8-.511,12.352,2.871,12.352,2.871s-7.7,6.746-10.5,7.257a5.148,5.148,0,1,1-1.851-10.128Z" transform="translate(-142.805 -1668.29)" fill="#7d6871"/>
          <path id="Trazado_106464" data-name="Trazado 106464" d="M155.029,1677.136a.474.474,0,0,1-.091-.939c8.543-1.678,12.156-2.461,12.192-2.469a.474.474,0,1,1,.2.926c-.036.008-3.656.792-12.21,2.473A.485.485,0,0,1,155.029,1677.136Z" transform="translate(-149.779 -1671.511)" fill="#54464c"/>
        </g>
        <g id="Grupo_56282" data-name="Grupo 56282" transform="translate(34.198 16.834)">
          <path id="Trazado_106465" data-name="Trazado 106465" d="M212.973,1665.437c-.318,2.825-6.316,11-6.316,11s-4.234-9.324-3.915-12.149a5.148,5.148,0,0,1,10.231,1.153Z" transform="translate(-202.724 -1659.712)" fill="#7d6871"/>
          <path id="Trazado_106466" data-name="Trazado 106466" d="M211.657,1684.768l-.038,0a.474.474,0,0,1-.435-.509c0-.036.3-3.729,1.159-12.4a.474.474,0,1,1,.943.094c-.861,8.663-1.154,12.349-1.157,12.385A.474.474,0,0,1,211.657,1684.768Z" transform="translate(-207.744 -1666.664)" fill="#54464c"/>
        </g>
      </g>
      <g id="Grupo_56284" data-name="Grupo 56284" transform="translate(352.121 83.213)">
        <rect id="Rectángulo_5469" data-name="Rectángulo 5469" width="10.811" height="118.596" transform="translate(10.138 10.135) rotate(4.904)" fill="#ff9696"/>
        <rect id="Rectángulo_5470" data-name="Rectángulo 5470" width="4.998" height="118.596" transform="translate(10.138 10.135) rotate(4.904)" fill="#c4c4c4" style="mix-blend-mode: multiply;isolation: isolate"/>
        <path id="Trazado_106467" data-name="Trazado 106467" d="M922.784,1488.154l-10.771-.924,6.295-10.135Z" transform="translate(-901.875 -1477.095)" fill="#ffbb96"/>
        <path id="Trazado_106468" data-name="Trazado 106468" d="M926.07,1480.562l-1.4-3.467-1.939,3.122c.734,1.153,1.566.456,1.566.456A1.076,1.076,0,0,0,926.07,1480.562Z" transform="translate(-908.235 -1477.095)" fill="#ff9696"/>
      </g>
      <g id="Grupo_56285" data-name="Grupo 56285" transform="translate(340.925 66.717)">
        <rect id="Rectángulo_5471" data-name="Rectángulo 5471" width="10.811" height="118.596" transform="matrix(1, 0.016, -0.016, 1, 1.928, 10.547)" fill="#c46588"/>
        <rect id="Rectángulo_5472" data-name="Rectángulo 5472" width="4.998" height="118.596" transform="translate(1.928 10.547) rotate(0.931)" fill="#c4c4c4" style="mix-blend-mode: multiply;isolation: isolate"/>
        <path id="Trazado_106469" data-name="Trazado 106469" d="M875.085,1447.239l-10.809-.176,5.578-10.547Z" transform="translate(-862.348 -1436.517)" fill="#ffbb96"/>
        <path id="Trazado_106470" data-name="Trazado 106470" d="M877.128,1439.879l-1.64-3.361-1.718,3.248c.812,1.1,1.594.346,1.594.346A1.076,1.076,0,0,0,877.128,1439.879Z" transform="translate(-867.983 -1436.517)" fill="#c46588"/>
      </g>
      <g id="Grupo_56286" data-name="Grupo 56286" transform="translate(308.753 172.999)">
        <path id="Trazado_106471" data-name="Trazado 106471" d="M840.451,1697.966H780.392l7.894,69.188h44.272Z" transform="translate(-780.392 -1697.966)" fill="#78646c"/>
        <path id="Trazado_106472" data-name="Trazado 106472" d="M809.38,1697.966H780.392l7.894,69.188h44.272l1.878-16.462C826.585,1737.779,816.4,1718.882,809.38,1697.966Z" transform="translate(-780.392 -1697.966)" fill="#c4c4c4" style="mix-blend-mode: multiply;isolation: isolate"/>
        <ellipse id="Elipse_4074" data-name="Elipse 4074" cx="6.718" cy="8.803" rx="6.718" ry="8.803" transform="translate(42.097 8.502)" fill="#1f1f1f" style="mix-blend-mode: screen;isolation: isolate"/>
      </g>
      <rect id="Rectángulo_5473" data-name="Rectángulo 5473" width="45.481" height="36.385" transform="translate(189.179 231.944) rotate(-90)" fill="#303030"/>
      <path id="Trazado_106473" data-name="Trazado 106473" d="M360.218,1852.752v-5.435l19.737-4.348h99.373l19.737,4.319v5.463Z" transform="translate(-222.27 -1611.025)" fill="#404040"/>
      <rect id="Rectángulo_5474" data-name="Rectángulo 5474" width="152.387" height="231.278" rx="2.867" transform="translate(323.011 44.822) rotate(90)" fill="#404040"/>
      <rect id="Rectángulo_5475" data-name="Rectángulo 5475" width="226.892" height="141.421" transform="translate(93.926 47.015)" fill="#737373"/>
      <rect id="Rectángulo_5476" data-name="Rectángulo 5476" width="137.474" height="222.945" transform="translate(318.844 48.989) rotate(90)" fill="#ede3b7"/>
      <rect id="Rectángulo_5477" data-name="Rectángulo 5477" width="123.439" height="208.909" transform="translate(311.827 56.007) rotate(90)" fill="#fff"/>
      <g id="Grupo_56289" data-name="Grupo 56289" transform="translate(246.541 80.489)">
        <g id="Grupo_56287" data-name="Grupo 56287">
          <rect id="Rectángulo_5478" data-name="Rectángulo 5478" width="50.486" height="50.486" transform="translate(0 1.87)" fill="#c4c4c4" opacity="0.5" style="mix-blend-mode: multiply;isolation: isolate"/>
          <rect id="Rectángulo_5479" data-name="Rectángulo 5479" width="50.486" height="50.486" transform="translate(3.072)" fill="#86bec4"/>
        </g>
        <g id="Grupo_56288" data-name="Grupo 56288" transform="translate(8.094 6.872)">
          <path id="Trazado_106474" data-name="Trazado 106474" d="M679.03,1524.641l-12.133-8.815-12.133,8.815,4.634-14.263-12.133-8.816h15L666.9,1487.3l4.635,14.263h15l-12.133,8.816ZM666.9,1513.936l9.225,6.7-3.524-10.844,9.225-6.7h-11.4l-3.524-10.844-3.524,10.844h-11.4l9.225,6.7-3.523,10.844Z" transform="translate(-647.265 -1487.299)" fill="#fff"/>
        </g>
      </g>
      <g id="Grupo_56292" data-name="Grupo 56292" transform="translate(114.346 80.489)">
        <g id="Grupo_56290" data-name="Grupo 56290">
          <rect id="Rectángulo_5480" data-name="Rectángulo 5480" width="50.486" height="50.486" transform="translate(0 1.87)" fill="#c4c4c4" opacity="0.5" style="mix-blend-mode: multiply;isolation: isolate"/>
          <rect id="Rectángulo_5481" data-name="Rectángulo 5481" width="50.486" height="50.486" transform="translate(3.072)" fill="#86bec4"/>
        </g>
        <g id="Grupo_56291" data-name="Grupo 56291" transform="translate(7.873 7.573)">
          <path id="Trazado_106475" data-name="Trazado 106475" d="M353.291,1526.365l-12.133-8.815-12.133,8.815,4.634-14.264-12.133-8.816h15l4.635-14.263,4.635,14.263h15l-12.133,8.816Zm-12.133-10.7,9.225,6.7-3.524-10.844,9.225-6.7h-11.4l-3.524-10.844-3.524,10.844h-11.4l9.225,6.7-3.524,10.844Z" transform="translate(-321.526 -1489.023)" fill="#fff"/>
        </g>
      </g>
      <g id="Grupo_56298" data-name="Grupo 56298" transform="translate(180.593 80.489)">
        <g id="Grupo_56293" data-name="Grupo 56293">
          <rect id="Rectángulo_5482" data-name="Rectángulo 5482" width="50.486" height="50.486" transform="translate(0 1.87)" fill="#c4c4c4" opacity="0.5" style="mix-blend-mode: multiply;isolation: isolate"/>
          <rect id="Rectángulo_5483" data-name="Rectángulo 5483" width="50.486" height="50.486" transform="translate(3.072)" fill="#86bec4"/>
        </g>
        <g id="Grupo_56297" data-name="Grupo 56297" transform="translate(12.627 10.142)">
          <g id="Grupo_56294" data-name="Grupo 56294">
            <path id="Trazado_106476" data-name="Trazado 106476" d="M512.1,1527.171a15.915,15.915,0,1,1,15.915-15.914A15.933,15.933,0,0,1,512.1,1527.171Zm0-30.154a14.24,14.24,0,1,0,14.24,14.24A14.256,14.256,0,0,0,512.1,1497.017Z" transform="translate(-496.184 -1495.342)" fill="#fff"/>
          </g>
          <g id="Grupo_56295" data-name="Grupo 56295" transform="translate(8.255 13.718)">
            <path id="Trazado_106477" data-name="Trazado 106477" d="M518.688,1533.481a2.2,2.2,0,1,1,2.2-2.2A2.2,2.2,0,0,1,518.688,1533.481Zm0-3.278a1.081,1.081,0,1,0,1.08,1.08A1.082,1.082,0,0,0,518.688,1530.2Z" transform="translate(-516.491 -1529.087)" fill="#fff"/>
          </g>
          <g id="Grupo_56296" data-name="Grupo 56296" transform="translate(18.865 13.718)">
            <path id="Trazado_106478" data-name="Trazado 106478" d="M544.788,1533.481a2.2,2.2,0,1,1,2.2-2.2A2.2,2.2,0,0,1,544.788,1533.481Zm0-3.278a1.081,1.081,0,1,0,1.081,1.08A1.082,1.082,0,0,0,544.788,1530.2Z" transform="translate(-542.591 -1529.087)" fill="#fff"/>
          </g>
        </g>
      </g>
      <rect id="Rectángulo_5484" data-name="Rectángulo 5484" width="10.103" height="208.909" transform="translate(311.827 56.007) rotate(90)" fill="#d4c99b"/>
      <g id="Grupo_56299" data-name="Grupo 56299" transform="translate(0 171.271)">
        <path id="Trazado_106479" data-name="Trazado 106479" d="M20.869,1697.377c31.585-11.175,60.734,5.048,69.393,24.187,0,0-19.143,6.169-25.16,5.376s-18.036-14.522-20.186-16.739-10.822-9.211-10.822-9.211Z" transform="translate(-20.869 -1693.716)" fill="#8f8b66"/>
        <path id="Trazado_106480" data-name="Trazado 106480" d="M20.869,1702.7c24.212-.586,25.779,16.651,37.21,23.294s32.183.893,32.183.893c-33.14,18.533-40.74-1.258-49.139-11.815A35.234,35.234,0,0,0,20.869,1702.7Z" transform="translate(-20.869 -1699.04)" fill="#54464c"/>
        <path id="Trazado_106481" data-name="Trazado 106481" d="M167.727,1749.987c-3.882-2.741-7.5-5.3-10.881-7.7-12.875-9.129-22.449-15.916-30.6-21.038l-1.313-5.837a.789.789,0,0,0-1.54.347l.973,4.324a109.632,109.632,0,0,0-15.6-8.129.77.77,0,0,0-.1-.326l-5.324-8.82a.789.789,0,0,0-1.351.816l4.481,7.423a84.614,84.614,0,0,0-12.288-3.56.79.79,0,0,0-.329,1.544,81.335,81.335,0,0,1,22.965,8.468l-15.2,4.054a.789.789,0,1,0,.407,1.525l16.714-4.459c.02-.005.035-.02.054-.027,1.943,1.1,3.956,2.3,6.074,3.628a.782.782,0,0,0,.726.51.711.711,0,0,0,.074-.008c7.94,5.02,17.392,11.72,30.271,20.851,3.385,2.4,7,4.965,10.884,7.706a.789.789,0,1,0,.91-1.29Z" transform="translate(-63.809 -1698.883)" fill="#b3ae7f"/>
      </g>
      <path id="Rectángulo_5485" data-name="Rectángulo 5485" d="M4.61,0H322.061a4.61,4.61,0,0,1,4.61,4.61V8.957a0,0,0,0,1,0,0H0a0,0,0,0,1,0,0V4.61A4.61,4.61,0,0,1,4.61,0Z" transform="translate(50.704 241.642)" fill="#d4c99b"/>
      <g id="Grupo_56300" data-name="Grupo 56300" transform="translate(91.146 115.736)">
        <rect id="Rectángulo_5486" data-name="Rectángulo 5486" width="54.364" height="118.77" transform="translate(12.468 6.686)" fill="#c4c4c4" style="mix-blend-mode: multiply;isolation: isolate"/>
        <rect id="Rectángulo_5487" data-name="Rectángulo 5487" width="54.364" height="125.456" fill="#78646c"/>
        <rect id="Rectángulo_5488" data-name="Rectángulo 5488" width="48.324" height="30.202" transform="translate(3.02 47.627)" fill="#ff9696"/>
        <rect id="Rectángulo_5489" data-name="Rectángulo 5489" width="48.324" height="30.202" transform="translate(3.02 85.625)" fill="#ffbb96"/>
        <rect id="Rectángulo_5490" data-name="Rectángulo 5490" width="48.324" height="30.202" transform="translate(3.02 9.629)" fill="#fff4c5"/>
      </g>
      <g id="Grupo_56302" data-name="Grupo 56302" transform="translate(268.415 95.953)">
        <path id="Trazado_106482" data-name="Trazado 106482" d="M745.189,1603.887a4.417,4.417,0,0,0-2.561,1.942c-.626,1.392-6.417,4.741-9.458,6.453s-5.122,3.884-5.171,4.726a6.65,6.65,0,0,1-1.531,2.976,5.907,5.907,0,0,0-.974,2.141c-.216-.083-.7-.738-.282-2.269s.651-2.04-.212-1.695-6.393,3.415-6.358,2.91,3.922-3.1,2.687-2.493-4.033,1.73-4.148,1.292,1.037-1.284.8-1.228c-.79.213-.168-.7.456-1.385a31.69,31.69,0,0,1,7.35-3.832c3.734-2.5,9.452-9.725,10.742-10.393a5.567,5.567,0,0,0,2.05-2.232Z" transform="translate(-702.533 -1563.253)" fill="#eb7350"/>
        <path id="Trazado_106483" data-name="Trazado 106483" d="M848.478,1625.118a4.419,4.419,0,0,1,2.3,2.245c.449,1.459,5.78,5.5,8.585,7.576s4.6,4.489,4.546,5.331a6.646,6.646,0,0,0,1.15,3.142,5.907,5.907,0,0,1,.7,2.245c.224-.056.786-.646.561-2.217s-.393-2.1.421-1.655,5.92,4.181,5.948,3.676-3.507-3.563-2.357-2.806,3.788,2.217,3.956,1.8-.87-1.4-.646-1.319c.758.308.253-.673-.28-1.431a31.7,31.7,0,0,0-6.818-4.714c-3.4-2.946-8.174-10.821-9.371-11.644a5.568,5.568,0,0,1-1.759-2.469Z" transform="translate(-780.462 -1576.353)" fill="#ff8762"/>
        <path id="Trazado_106484" data-name="Trazado 106484" d="M797.426,1508.435c8.361.224,9.259,5.724,8.305,11.279s1.8,17.62,1.8,17.62l-20.2-3.872s2.133-10.157,2.862-15.937S791.421,1508.379,797.426,1508.435Z" transform="translate(-744.168 -1508.434)" fill="#2b1710"/>
        <path id="Trazado_106485" data-name="Trazado 106485" d="M783.4,1559.189c1.01.6.561,1.684,1.2,1.983s.823.037,1.347.861,8.044,4.975,10.176,10.924,8.081,11.336,8.081,11.336c-1.122.337-1.8,2.469-3.928,3.142s-6.622.9-8.754,1.683a9.362,9.362,0,0,1-3.591.674c-.449-.9-.786-6.622-.786-6.622-.9,1.683-1.235,6.622,1.684,11.56s4.377,15.039,4.377,22.671,3.03,24.467,2.581,29.629.449,10.325.336,16.273,2.581,14.815,3.143,16.274a22.033,22.033,0,0,1,.785,4.564H759.3a18.331,18.331,0,0,0,1.683-4.452c.224-1.683.337-28.956,1.01-36.363s.112-24.579.337-30.19,5.163-19.08,5.724-21.661a54.15,54.15,0,0,0,.561-8.08,4.028,4.028,0,0,1-4.938-.224c-1.347-1.122-2.357-.449-3.816-1.683s-2.581-4.826-2.02-4.714,8.081-11.448,10.213-13.355,7.968-3.7,7.968-3.7Z" transform="translate(-726.585 -1538.557)" fill="#ffad54"/>
        <path id="Trazado_106486" data-name="Trazado 106486" d="M781.919,1596.448a.072.072,0,0,1-.072-.072,13.7,13.7,0,0,0-1.054-3.823,18.152,18.152,0,0,1-.666-2c-.252-1.134,1.843-4.948,2.631-6.383.149-.27.276-.5.289-.539a.072.072,0,0,1,.136.046c-.015.044-.1.2-.3.563-.782,1.422-2.857,5.2-2.617,6.282a18.227,18.227,0,0,0,.66,1.979,13.742,13.742,0,0,1,1.063,3.873A.072.072,0,0,1,781.919,1596.448Z" transform="translate(-739.885 -1553.036)" fill="#e0e0e0" style="mix-blend-mode: multiply;isolation: isolate"/>
        <path id="Trazado_106487" data-name="Trazado 106487" d="M803.24,1512.439c.15,3.891-3.629,6.584-4.115,6.809a2.019,2.019,0,0,1-.486,1.234c-1.122-2.132-2.731-1.309-2.768.486a2.726,2.726,0,0,0,2.693,2.656c1.01.636,1.646,5.125.711,7.033s-3.666,2.955-3.666,3.217c.486,1.571,5.275,1.683,7.557.374s2.993-1.871,2.993-1.983a13.317,13.317,0,0,1,.3-4.19,13.3,13.3,0,0,0,2.32-5.948c.112-1.758.411-4.526,0-5.686A6.059,6.059,0,0,0,803.24,1512.439Z" transform="translate(-749.084 -1510.811)" fill="#ff8762"/>
        <g id="Grupo_56301" data-name="Grupo 56301" transform="translate(0 1.61)">
          <path id="Trazado_106488" data-name="Trazado 106488" d="M712.782,1575.11c8.754,5.051,21.548,6.509,21.548,6.509l-5.611,4.6s-6.622,1.122-6.958,1.122a37.932,37.932,0,0,1-6.173-4.6C714.914,1581.844,712.782,1575.11,712.782,1575.11Z" transform="translate(-699.928 -1549.616)" fill="#eb7350"/>
          <path id="Trazado_106489" data-name="Trazado 106489" d="M684.83,1728.062s1.8,8.081.9,11.448a70.324,70.324,0,0,0-1.459,17.171c.337,6.622,1.041,20.763.592,22a24.863,24.863,0,0,0-1.01,5.611h15.937c-.562-1.459-7.969-3.928-9.428-6.509s3-30.3,4.57-34.455,1.571-13.58,1.571-13.58Z" transform="translate(-682.75 -1640.391)" fill="#eb7350"/>
          <path id="Trazado_106490" data-name="Trazado 106490" d="M690.735,1851.653c-1.2.56-1.716,2.153-2.1,2.882-1.428.848-3.05.036-4.215-.858a20.357,20.357,0,0,0-.574,3.963h15.937C699.265,1856.28,692.792,1854.042,690.735,1851.653Z" transform="translate(-682.75 -1713.742)" fill="#2b1710"/>
          <path id="Trazado_106491" data-name="Trazado 106491" d="M700.358,1728.614s1.8,8.08.9,11.448-1.01,10.325.112,16.049,3.928,21.661,3.479,22.9a24.868,24.868,0,0,0-1.01,5.611h15.937c-.561-1.459-7.968-3.928-9.428-6.509s-1.459-30.078.113-34.23,1.571-13.58,1.571-13.58Z" transform="translate(-692.554 -1640.719)" fill="#ff8762"/>
          <path id="Trazado_106492" data-name="Trazado 106492" d="M702.574,1643.807c2.469,13.131.337,35.465.112,36.026-12.233,1.683-17.845-1.571-17.845-1.571-1.122-9.652-1.571-25.813.225-30.751a21.949,21.949,0,0,1,4.377-7.519Z" transform="translate(-682.761 -1588.122)" fill="#3b4b5e"/>
          <path id="Trazado_106493" data-name="Trazado 106493" d="M694.632,1512.581c2.02-.113,4.714-.505,5.443,2.469s-2.076,6.566-2.188,6.79-7.015,9.82-7.015,10.045-.729,5.724-.841,5.892a38.612,38.612,0,0,1-4.994.562c-4.658-1.01-4.658-4.826-2.413-8.024s-1.01-9.652.73-12.907S688.515,1511.683,694.632,1512.581Z" transform="translate(-681.161 -1512.395)" fill="#2b1710"/>
          <path id="Trazado_106494" data-name="Trazado 106494" d="M693.5,1565.123c-4.152-.075-5.574,4.639-5.125,7.613s5.331,16.667,4.546,19.079a31.767,31.767,0,0,1-2.581,5.107c.617,2.469,11.9,4.77,15.768,3.311-2.133-7.014-.28-15.095-.112-16.386s-1.852-7.744-2.357-8.53-4.938-6.79-4.994-6.958-2.189-3.087-2.189-3.087S694.412,1564.693,693.5,1565.123Z" transform="translate(-685.392 -1543.594)" fill="#86bec4"/>
          <path id="Trazado_106495" data-name="Trazado 106495" d="M695.1,1566.163a2.655,2.655,0,0,0-3.171.326,7.456,7.456,0,0,0-1.988,6.79c.673,3.7,4.545,5.163,8.417,7.856s10.83,6.509,12.57,6.79,18.35-12.289,18.35-12.289c3.479-1.067,7.014-5.415,6.846-5.92a3.168,3.168,0,0,0,.673-1.263c.421-1.066.224-1.459,0-1.459s-4.546,2.132-5.5,2.132-.926-.813-.421-1.459a6.121,6.121,0,0,0,1.179-2.133c0-.393-.617.2-1.263.646a4.468,4.468,0,0,0-1.655,1.515c-.449.786-1.908,4.91-2.189,5.191a38.537,38.537,0,0,1-8,3.62,55.143,55.143,0,0,0-7.155,3.114c-1.206-.252-6.228-3.535-8.7-5.5a31.274,31.274,0,0,1-5.135-5.7A12.388,12.388,0,0,0,695.1,1566.163Z" transform="translate(-686.288 -1543.857)" fill="#ff8762"/>
          <path id="Trazado_106496" data-name="Trazado 106496" d="M707.813,1517.961a5.978,5.978,0,0,1,2.282,4.826,4.254,4.254,0,0,0,.374,2.507c.374.524,1.87.973,1.87,1.2s-1.309.861-1.422,1.2a.813.813,0,0,0,.075.786c.187.262-.168.953-.168,1.01.318.655.243.973.019,1.122s-.243.505-.075,1.01-.131,1.122-.992,1.291-2.506.243-3.011.449-2.432,4.433-.15,9.9c-2.656-4.115-4.976-5.8-6.4-6.023,1.8-2.095,1.758-6.322,1.5-6.958-1.945-.449-2.694-3.142-1.571-4.19a1.58,1.58,0,0,1,2.544.673c1.235-.673.075-2.057,1.085-2.806S708.187,1520.5,707.813,1517.961Z" transform="translate(-692.115 -1515.698)" fill="#ff8762"/>
          <path id="Trazado_106497" data-name="Trazado 106497" d="M723.286,1544.937c0-.052.3-.639.2-.937a12.147,12.147,0,0,0-2.872.821,4.215,4.215,0,0,0,2.757,1.183C723.541,1545.835,723.569,1545.519,723.286,1544.937Z" transform="translate(-704.577 -1531.151)" fill="#ff4242"/>
          <path id="Trazado_106498" data-name="Trazado 106498" d="M718.994,1534.07c0,.473-.2.856-.449.856s-.449-.383-.449-.856.2-.856.449-.856S718.994,1533.6,718.994,1534.07Z" transform="translate(-703.081 -1524.751)" fill="#2b1710"/>
          <path id="Trazado_106499" data-name="Trazado 106499" d="M714.507,1529.628a7.907,7.907,0,0,1,3.115-1.151A1.832,1.832,0,0,0,714.507,1529.628Z" transform="translate(-700.951 -1521.642)" fill="#2b1710"/>
          <path id="Trazado_106500" data-name="Trazado 106500" d="M703.5,1541.919h-.011c-.6-.094-.77-.424-.817-.611a.817.817,0,0,1,1.1-.927c-.163-.335-.551-1.041-.975-1.121a.457.457,0,0,0-.426.168.072.072,0,1,1-.1-.1.6.6,0,0,1,.556-.21c.631.12,1.14,1.331,1.161,1.382a.072.072,0,0,1-.1.089.713.713,0,0,0-.816.008.67.67,0,0,0-.259.674.762.762,0,0,0,.7.5.072.072,0,0,1-.011.142Z" transform="translate(-693.678 -1528.25)" fill="#e0b3a8" style="mix-blend-mode: multiply;isolation: isolate"/>
          <path id="Trazado_106501" data-name="Trazado 106501" d="M710.587,1550.921h-.009c-2.463-.308-3.9-1.287-4.047-2.757a.072.072,0,1,1,.143-.015c.14,1.4,1.533,2.331,3.922,2.63a.072.072,0,0,1-.009.143Z" transform="translate(-696.218 -1533.577)" fill="#e0b3a8" style="mix-blend-mode: multiply;isolation: isolate"/>
          <path id="Trazado_106502" data-name="Trazado 106502" d="M721.743,1546.228a5.753,5.753,0,0,1-1.774-.282.072.072,0,1,1,.048-.135,5.645,5.645,0,0,0,2.434.221.072.072,0,1,1,.022.142A4.849,4.849,0,0,1,721.743,1546.228Z" transform="translate(-704.165 -1532.225)" fill="#2b1710"/>
          <path id="Trazado_106503" data-name="Trazado 106503" d="M796.607,1574.6a.072.072,0,0,1-.013-.142,12.534,12.534,0,0,0,3.172-1.785.072.072,0,0,1,.08.119,12.147,12.147,0,0,1-3.225,1.807Z" transform="translate(-749.635 -1548.159)" fill="#e0b3a8" style="mix-blend-mode: multiply;isolation: isolate"/>
          <path id="Trazado_106504" data-name="Trazado 106504" d="M798.126,1577.627a.072.072,0,0,1-.057-.028.071.071,0,0,1,.013-.1,10.037,10.037,0,0,0,2.087-2.253.072.072,0,0,1,.123.074,10.221,10.221,0,0,1-2.122,2.292A.073.073,0,0,1,798.126,1577.627Z" transform="translate(-750.536 -1549.675)" fill="#e0b3a8" style="mix-blend-mode: multiply;isolation: isolate"/>
          <path id="Trazado_106505" data-name="Trazado 106505" d="M715.783,1851.653c-1.2.56-1.716,2.153-2.1,2.882-1.428.848-3.05.036-4.215-.858a20.319,20.319,0,0,0-.573,3.963h15.937C724.312,1856.28,717.839,1854.042,715.783,1851.653Z" transform="translate(-697.616 -1713.742)" fill="#2b1710"/>
        </g>
        <path id="Trazado_106506" data-name="Trazado 106506" d="M799.477,1533.521a1.145,1.145,0,0,1-1.058-.619.831.831,0,0,1,.037-.873.945.945,0,0,1,.935-.3c-.137-.273-.508-.926-.963-1.034a.588.588,0,0,0-.533.152.072.072,0,1,1-.092-.11.731.731,0,0,1,.658-.181c.644.154,1.1,1.193,1.118,1.237a.072.072,0,0,1-.078.1.908.908,0,0,0-.931.222.69.69,0,0,0-.024.723,1.006,1.006,0,0,0,.93.54.072.072,0,1,1,0,.144Z" transform="translate(-750.372 -1521.552)" fill="#e0b3a8" style="mix-blend-mode: multiply;isolation: isolate"/>
        <path id="Trazado_106507" data-name="Trazado 106507" d="M811.146,1549.724h-.039a4.789,4.789,0,0,1-3.976-2.194.072.072,0,0,1,.118-.081,4.652,4.652,0,0,0,3.859,2.132,2.528,2.528,0,0,0,1.8-.525.072.072,0,0,1,.117.083A2.534,2.534,0,0,1,811.146,1549.724Z" transform="translate(-755.916 -1531.571)" fill="#e0b3a8" style="mix-blend-mode: multiply;isolation: isolate"/>
        <path id="Trazado_106508" data-name="Trazado 106508" d="M819.981,1533.948l-.139,0a.071.071,0,0,1-.07-.073.069.069,0,0,1,.074-.07,3.734,3.734,0,0,0,1.686-.234c0-.034-.144-.145-.246-.226a1.626,1.626,0,0,1-.651-.8,6.869,6.869,0,0,1,.121-1.881c.056-.405.113-.824.139-1.172a.072.072,0,0,1,.143.01c-.027.353-.085.774-.141,1.181a7.063,7.063,0,0,0-.123,1.828,1.527,1.527,0,0,0,.6.72c.18.142.3.236.3.344a.144.144,0,0,1-.048.1A3.7,3.7,0,0,1,819.981,1533.948Z" transform="translate(-763.426 -1520.893)" fill="#2b1710"/>
        <path id="Trazado_106509" data-name="Trazado 106509" d="M816.8,1543.052a5.025,5.025,0,0,1-2.376-.515.071.071,0,1,1,.069-.125,6.423,6.423,0,0,0,3.729.367.072.072,0,1,1,.029.14A7.731,7.731,0,0,1,816.8,1543.052Z" transform="translate(-760.231 -1528.594)" fill="#2b1710"/>
        <path id="Trazado_106510" data-name="Trazado 106510" d="M818.833,1546.673a3.568,3.568,0,0,1-.893-.127.072.072,0,0,1,.036-.139,2.278,2.278,0,0,0,1.319.06.072.072,0,0,1,.057.132A1.414,1.414,0,0,1,818.833,1546.673Z" transform="translate(-762.306 -1530.97)" fill="#e0b3a8" style="mix-blend-mode: multiply;isolation: isolate"/>
        <path id="Trazado_106511" data-name="Trazado 106511" d="M815.04,1532.017c0,.444-.2.8-.444.8s-.444-.36-.444-.8.2-.8.444-.8S815.04,1531.573,815.04,1532.017Z" transform="translate(-760.089 -1521.953)" fill="#2b1710"/>
        <path id="Trazado_106512" data-name="Trazado 106512" d="M824.243,1532.569c0,.444-.2.8-.444.8s-.444-.36-.444-.8.2-.8.444-.8S824.243,1532.125,824.243,1532.569Z" transform="translate(-765.551 -1522.281)" fill="#2b1710"/>
        <path id="Trazado_106513" data-name="Trazado 106513" d="M809.044,1526.876a8.373,8.373,0,0,1,3.947-.411C811.476,1524.968,809.642,1525.436,809.044,1526.876Z" transform="translate(-757.058 -1518.589)" fill="#2b1710"/>
        <path id="Trazado_106514" data-name="Trazado 106514" d="M823.262,1527.487c1.1-.112,1.852.916,1.871.842C824.665,1526.925,823.692,1526.719,823.262,1527.487Z" transform="translate(-765.497 -1519.48)" fill="#2b1710"/>
        <path id="Trazado_106515" data-name="Trazado 106515" d="M829.185,1587.772a.071.071,0,0,1-.072-.071c0-.07-.024-7.028,4.459-8.9a.072.072,0,1,1,.055.132c-4.392,1.831-4.371,8.693-4.37,8.762a.071.071,0,0,1-.071.073Z" transform="translate(-768.969 -1550.196)" fill="#e0e0e0" style="mix-blend-mode: multiply;isolation: isolate"/>
        <path id="Trazado_106516" data-name="Trazado 106516" d="M828.53,1612.036a.133.133,0,0,1-.035,0c-.162-.047-.217-.41-.327-1.227a10.98,10.98,0,0,0-.522-2.458.072.072,0,1,1,.133-.053,11.076,11.076,0,0,1,.531,2.492,3.911,3.911,0,0,0,.223,1.106s.01-.01.023-.025a7.883,7.883,0,0,0,.583-2.357.072.072,0,1,1,.142.017,7.687,7.687,0,0,1-.615,2.432A.18.18,0,0,1,828.53,1612.036Z" transform="translate(-768.096 -1567.673)" fill="#e0e0e0" style="mix-blend-mode: multiply;isolation: isolate"/>
        <path id="Trazado_106517" data-name="Trazado 106517" d="M809.491,1612.984a.072.072,0,0,1,0-.143,6.7,6.7,0,0,0,5.176-4,.072.072,0,0,1,.129.064,6.835,6.835,0,0,1-5.3,4.08Z" transform="translate(-757.281 -1568.001)" fill="#e0e0e0" style="mix-blend-mode: multiply;isolation: isolate"/>
        <path id="Trazado_106518" data-name="Trazado 106518" d="M789.688,1756.282a.072.072,0,0,1-.072-.071c0-.131-.17-13.248-.336-23.4-.041-2.506-.217-5.293-.4-8.243-.6-9.51-1.343-21.347,1.076-37.9a.072.072,0,0,1,.142.021c-2.416,16.534-1.672,28.362-1.075,37.866.186,2.952.361,5.741.4,8.25.167,10.152.335,23.269.337,23.4a.072.072,0,0,1-.071.073Z" transform="translate(-744.736 -1614.181)" fill="#e0e0e0" style="mix-blend-mode: multiply;isolation: isolate"/>
        <path id="Trazado_106519" data-name="Trazado 106519" d="M811.556,1817.532a.072.072,0,0,1-.064-.039c-.43-.86-2.533-10.664-2.533-25.621a.072.072,0,0,1,.143,0c0,14.932,2.091,24.7,2.518,25.557a.071.071,0,0,1-.032.1A.07.07,0,0,1,811.556,1817.532Z" transform="translate(-757.008 -1676.609)" fill="#e0e0e0" style="mix-blend-mode: multiply;isolation: isolate"/>
        <path id="Trazado_106520" data-name="Trazado 106520" d="M830.738,1760.706a.072.072,0,0,1-.065-.042c-2.727-6.1-2.709-23.491-2.7-31.85v-1.176c0-7.352-2.669-32.91-2.859-33.479a.072.072,0,0,1,.045-.09.071.071,0,0,1,.091.045c.19.57,2.866,26.165,2.866,33.524v1.176c-.009,8.349-.026,25.722,2.688,31.791a.072.072,0,0,1-.036.095A.077.077,0,0,1,830.738,1760.706Z" transform="translate(-766.594 -1618.604)" fill="#e0e0e0" style="mix-blend-mode: multiply;isolation: isolate"/>
      </g>
      <g id="Grupo_56316" data-name="Grupo 56316" transform="translate(66.737 186.751)">
        <g id="Grupo_56305" data-name="Grupo 56305">
          <g id="Grupo_56303" data-name="Grupo 56303">
            <rect id="Rectángulo_5491" data-name="Rectángulo 5491" width="36.914" height="1.995" fill="#ffc49d"/>
            <path id="Trazado_106521" data-name="Trazado 106521" d="M223.459,1736.7H193.093l6.215,8.589h17.937Z" transform="translate(-189.819 -1734.708)" fill="#e6b18e"/>
          </g>
          <g id="Grupo_56304" data-name="Grupo 56304" transform="translate(0 44.287)">
            <rect id="Rectángulo_5492" data-name="Rectángulo 5492" width="36.914" height="1.995" transform="translate(0 8.589)" fill="#ffc49d"/>
            <path id="Trazado_106522" data-name="Trazado 106522" d="M223.459,1849.33H193.093l6.215-8.589h17.937Z" transform="translate(-189.819 -1840.74)" fill="#e6b18e"/>
          </g>
          <rect id="Rectángulo_5493" data-name="Rectángulo 5493" width="22.572" height="33.796" transform="translate(7.233 10.351)" fill="#c46588"/>
          <path id="Trazado_106523" data-name="Trazado 106523" d="M203.012,1790.979a.956.956,0,0,1-.231-1.884l17.192-4.3-17.26-3.8a.956.956,0,0,1,0-1.867l16.828-3.681L202.7,1771.5a.956.956,0,0,1,.026-1.868l16.35-3.358-16.487-3.327a.956.956,0,1,1,.378-1.874l21.092,4.256a.956.956,0,0,1,0,1.874l-16.691,3.428,16.716,3.918a.956.956,0,0,1-.014,1.865l-16.7,3.652,16.978,3.74a.956.956,0,0,1,.026,1.861l-21.138,5.285A.95.95,0,0,1,203.012,1790.979Z" transform="translate(-195 -1749.159)" fill="#d97096"/>
        </g>
        <g id="Grupo_56315" data-name="Grupo 56315" transform="translate(35.184 25.079)">
          <path id="Trazado_106524" data-name="Trazado 106524" d="M301.417,1819.426c-.935-12.814-1.683-25.721-11.972-25.815h-.935c-10.288.094-11.037,13-11.972,25.815Z" transform="translate(-274.526 -1793.561)" fill="#bf9fac"/>
          <rect id="Rectángulo_5494" data-name="Rectángulo 5494" width="28.901" height="4.022" rx="1.709" transform="translate(0 25.771)" fill="#a18591"/>
          <path id="Trazado_106525" data-name="Trazado 106525" d="M281.95,1825.584h22.679a2.011,2.011,0,0,0,0-4.022h-.007c-.743-10.194-1.389-20.419-6.822-24.194C298.4,1810.314,288.835,1820.194,281.95,1825.584Z" transform="translate(-277.739 -1795.791)" fill="#c4c4c4" style="mix-blend-mode: multiply;isolation: isolate"/>
          <g id="Grupo_56306" data-name="Grupo 56306" transform="translate(6.5 4.602)">
            <circle id="Elipse_4075" data-name="Elipse 4075" cx="1.964" cy="1.964" r="1.964" fill="#e8e8e8" style="mix-blend-mode: multiply;isolation: isolate"/>
            <path id="Trazado_106526" data-name="Trazado 106526" d="M291.161,1804.821a1.958,1.958,0,0,1-.891,3.7c-.017,0-.033,0-.05,0a1.94,1.94,0,0,0,.891.223,1.962,1.962,0,0,0,.05-3.923Z" transform="translate(-289.147 -1804.816)" fill="#e8e8e8" style="mix-blend-mode: multiply;isolation: isolate"/>
          </g>
          <g id="Grupo_56307" data-name="Grupo 56307" transform="translate(17.974 4.602)">
            <circle id="Elipse_4076" data-name="Elipse 4076" cx="1.964" cy="1.964" r="1.964" fill="#e8e8e8" style="mix-blend-mode: multiply;isolation: isolate"/>
            <path id="Trazado_106527" data-name="Trazado 106527" d="M319.385,1804.821a1.958,1.958,0,0,1-.891,3.7c-.017,0-.033,0-.05,0a1.94,1.94,0,0,0,.891.223,1.962,1.962,0,0,0,.05-3.923Z" transform="translate(-317.371 -1804.816)" fill="#e8e8e8" style="mix-blend-mode: multiply;isolation: isolate"/>
          </g>
          <g id="Grupo_56308" data-name="Grupo 56308" transform="translate(5.898 16.907)">
            <circle id="Elipse_4077" data-name="Elipse 4077" cx="1.964" cy="1.964" r="1.964" transform="translate(0 1.503) rotate(-22.5)" fill="#e8e8e8" style="mix-blend-mode: multiply;isolation: isolate"/>
            <path id="Trazado_106528" data-name="Trazado 106528" d="M291.161,1836.573a1.958,1.958,0,0,1-.891,3.7c-.017,0-.033,0-.05,0a1.959,1.959,0,1,0,.941-3.7Z" transform="translate(-288.545 -1835.966)" fill="#e8e8e8" style="mix-blend-mode: multiply;isolation: isolate"/>
          </g>
          <g id="Grupo_56309" data-name="Grupo 56309" transform="translate(17.575 17.11)">
            <circle id="Elipse_4078" data-name="Elipse 4078" cx="1.964" cy="1.964" r="1.964" transform="matrix(0.23, -0.973, 0.973, 0.23, 0, 3.823)" fill="#e8e8e8" style="mix-blend-mode: multiply;isolation: isolate"/>
            <path id="Trazado_106529" data-name="Trazado 106529" d="M319.385,1836.573a1.958,1.958,0,0,1-.891,3.7c-.017,0-.033,0-.05,0a1.959,1.959,0,1,0,.941-3.7Z" transform="translate(-316.973 -1836.169)" fill="#e8e8e8" style="mix-blend-mode: multiply;isolation: isolate"/>
          </g>
          <g id="Grupo_56310" data-name="Grupo 56310" transform="translate(11.626 0)">
            <circle id="Elipse_4079" data-name="Elipse 4079" cx="1.964" cy="1.964" r="1.964" transform="translate(0 2.778) rotate(-45)" fill="#e8e8e8" style="mix-blend-mode: multiply;isolation: isolate"/>
            <path id="Trazado_106530" data-name="Trazado 106530" d="M305.772,1795.5a1.959,1.959,0,0,1-.892,3.705c-.017,0-.033,0-.05-.005a1.939,1.939,0,0,0,.891.224,1.962,1.962,0,0,0,.05-3.924Z" transform="translate(-302.945 -1794.683)" fill="#e8e8e8" style="mix-blend-mode: multiply;isolation: isolate"/>
          </g>
          <g id="Grupo_56311" data-name="Grupo 56311" transform="translate(12.041 10.454)">
            <circle id="Elipse_4080" data-name="Elipse 4080" cx="1.964" cy="1.964" r="1.964" transform="translate(0 3.823) rotate(-76.717)" fill="#e8e8e8" style="mix-blend-mode: multiply;isolation: isolate"/>
            <path id="Trazado_106531" data-name="Trazado 106531" d="M305.772,1820.2a1.959,1.959,0,0,1-.892,3.705c-.017,0-.033,0-.05-.005a1.937,1.937,0,0,0,.891.224,1.962,1.962,0,0,0,.05-3.924Z" transform="translate(-303.359 -1819.794)" fill="#e8e8e8" style="mix-blend-mode: multiply;isolation: isolate"/>
          </g>
          <g id="Grupo_56312" data-name="Grupo 56312" transform="translate(3.115 10.853)">
            <path id="Trazado_106532" data-name="Trazado 106532" d="M280.5,1824.115a1.964,1.964,0,0,0,0-3.928,1.942,1.942,0,0,0-.63.113c-.241,1.071-.444,2.193-.619,3.355A1.945,1.945,0,0,0,280.5,1824.115Z" transform="translate(-279.254 -1820.186)" fill="#e8e8e8" style="mix-blend-mode: multiply;isolation: isolate"/>
            <path id="Trazado_106533" data-name="Trazado 106533" d="M281.076,1820.2a1.959,1.959,0,0,1-.892,3.705c-.017,0-.033,0-.05-.005a1.939,1.939,0,0,0,.891.224,1.962,1.962,0,0,0,.05-3.924Z" transform="translate(-279.777 -1820.193)" fill="#e8e8e8" style="mix-blend-mode: multiply;isolation: isolate"/>
          </g>
          <g id="Grupo_56314" data-name="Grupo 56314" transform="translate(22.479 10.853)">
            <path id="Trazado_106534" data-name="Trazado 106534" d="M328.852,1824.115a1.953,1.953,0,0,0,1.33-.527c-.172-1.127-.37-2.217-.6-3.259a1.963,1.963,0,1,0-.726,3.786Z" transform="translate(-326.888 -1820.186)" fill="#e8e8e8" style="mix-blend-mode: multiply;isolation: isolate"/>
            <g id="Grupo_56313" data-name="Grupo 56313" transform="translate(1.073 0.005)">
              <path id="Trazado_106535" data-name="Trazado 106535" d="M329.577,1826.825c-.017,0-.033-.005-.05-.005a2.165,2.165,0,0,0,.273.115c.055.018.11.038.167.052.04.01.081.017.122.024a1.969,1.969,0,0,0,.327.033h0a1.745,1.745,0,0,0,.652-.119c.026-.01.054-.014.079-.025a1.984,1.984,0,0,0,.6-.383c-.072-.474-.152-.936-.234-1.4A1.958,1.958,0,0,1,329.577,1826.825Z" transform="translate(-329.527 -1823.119)" fill="#e8e8e8" style="mix-blend-mode: multiply;isolation: isolate"/>
              <path id="Trazado_106536" data-name="Trazado 106536" d="M332.213,1820.245a1.993,1.993,0,0,0-.367-.046h0a1.993,1.993,0,0,1,.8.761c-.043-.2-.081-.415-.126-.617a1.936,1.936,0,0,0-.2-.068C332.281,1820.266,332.248,1820.252,332.213,1820.245Z" transform="translate(-330.901 -1820.198)" fill="#e8e8e8" style="mix-blend-mode: multiply;isolation: isolate"/>
            </g>
          </g>
        </g>
      </g>
      <g id="Grupo_56321" data-name="Grupo 56321" transform="translate(387.741 220.756)">
        <g id="Grupo_56320" data-name="Grupo 56320">
          <g id="Grupo_56317" data-name="Grupo 56317">
            <path id="Trazado_106537" data-name="Trazado 106537" d="M979.731,1825.505a5.03,5.03,0,1,1,5.03-5.03A5.035,5.035,0,0,1,979.731,1825.505Zm0-9.53a4.5,4.5,0,1,0,4.5,4.5A4.506,4.506,0,0,0,979.731,1815.975Z" transform="translate(-974.701 -1815.446)" fill="#b5ac84"/>
          </g>
          <g id="Grupo_56318" data-name="Grupo 56318" transform="translate(2.256 4.335)">
            <path id="Trazado_106538" data-name="Trazado 106538" d="M980.945,1827.5a.694.694,0,1,1,.695-.694A.695.695,0,0,1,980.945,1827.5Zm0-1.036a.341.341,0,1,0,.341.342A.342.342,0,0,0,980.945,1826.464Z" transform="translate(-980.251 -1826.111)" fill="#b5ac84"/>
          </g>
          <g id="Grupo_56319" data-name="Grupo 56319" transform="translate(6.316 4.335)">
            <path id="Trazado_106539" data-name="Trazado 106539" d="M990.931,1827.5a.694.694,0,1,1,.694-.694A.695.695,0,0,1,990.931,1827.5Zm0-1.036a.341.341,0,1,0,.341.342A.342.342,0,0,0,990.931,1826.464Z" transform="translate(-990.237 -1826.111)" fill="#b5ac84"/>
          </g>
        </g>
      </g>
      <g id="Grupo_56326" data-name="Grupo 56326" transform="translate(378.392 55.562)">
        <g id="Grupo_56325" data-name="Grupo 56325">
          <g id="Grupo_56322" data-name="Grupo 56322">
            <path id="Trazado_106540" data-name="Trazado 106540" d="M956.732,1419.134a5.03,5.03,0,1,1,5.03-5.03A5.036,5.036,0,0,1,956.732,1419.134Zm0-9.53a4.5,4.5,0,1,0,4.5,4.5A4.505,4.505,0,0,0,956.732,1409.6Z" transform="translate(-951.702 -1409.074)" fill="#b5ac84"/>
          </g>
          <g id="Grupo_56323" data-name="Grupo 56323" transform="translate(2.256 4.335)">
            <path id="Trazado_106541" data-name="Trazado 106541" d="M957.946,1421.128a.695.695,0,1,1,.695-.695A.7.7,0,0,1,957.946,1421.128Zm0-1.036a.341.341,0,1,0,.341.341A.342.342,0,0,0,957.946,1420.093Z" transform="translate(-957.252 -1419.739)" fill="#b5ac84"/>
          </g>
          <g id="Grupo_56324" data-name="Grupo 56324" transform="translate(6.315 4.335)">
            <path id="Trazado_106542" data-name="Trazado 106542" d="M967.932,1421.128a.695.695,0,1,1,.694-.695A.7.7,0,0,1,967.932,1421.128Zm0-1.036a.341.341,0,1,0,.342.341A.341.341,0,0,0,967.932,1420.093Z" transform="translate(-967.237 -1419.739)" fill="#b5ac84"/>
          </g>
        </g>
      </g>
      <g id="Grupo_56331" data-name="Grupo 56331" transform="translate(46.666 219.993)">
        <g id="Grupo_56330" data-name="Grupo 56330">
          <g id="Grupo_56327" data-name="Grupo 56327">
            <path id="Trazado_106543" data-name="Trazado 106543" d="M140.7,1823.629a5.03,5.03,0,1,1,5.03-5.03A5.036,5.036,0,0,1,140.7,1823.629Zm0-9.53a4.5,4.5,0,1,0,4.5,4.5A4.505,4.505,0,0,0,140.7,1814.1Z" transform="translate(-135.665 -1813.569)" fill="#b5ac84"/>
          </g>
          <g id="Grupo_56328" data-name="Grupo 56328" transform="translate(2.256 4.335)">
            <path id="Trazado_106544" data-name="Trazado 106544" d="M141.909,1825.623a.694.694,0,1,1,.694-.694A.695.695,0,0,1,141.909,1825.623Zm0-1.036a.341.341,0,1,0,.341.341A.342.342,0,0,0,141.909,1824.587Z" transform="translate(-141.215 -1824.234)" fill="#b5ac84"/>
          </g>
          <g id="Grupo_56329" data-name="Grupo 56329" transform="translate(6.315 4.335)">
            <path id="Trazado_106545" data-name="Trazado 106545" d="M151.895,1825.623a.694.694,0,1,1,.694-.694A.7.7,0,0,1,151.895,1825.623Zm0-1.036a.341.341,0,1,0,.341.341A.342.342,0,0,0,151.895,1824.587Z" transform="translate(-151.2 -1824.234)" fill="#b5ac84"/>
          </g>
        </g>
      </g>
      <g id="Grupo_56340" data-name="Grupo 56340" transform="translate(391.581 93.25)">
        <g id="Grupo_56339" data-name="Grupo 56339">
          <g id="Grupo_56332" data-name="Grupo 56332" transform="translate(0 2.356)">
            <path id="Trazado_106546" data-name="Trazado 106546" d="M994.683,1523.982H984.145v-16.4h10.538Zm-9.736-.8h8.933v-14.8h-8.933Z" transform="translate(-984.145 -1507.581)" fill="#b5ac84"/>
          </g>
          <g id="Grupo_56333" data-name="Grupo 56333" transform="translate(2.931)">
            <path id="Trazado_106547" data-name="Trazado 106547" d="M996.031,1504.892h-4.676v-3.106h4.676Zm-3.873-.8h3.071v-1.5h-3.071Z" transform="translate(-991.355 -1501.786)" fill="#b5ac84"/>
          </g>
          <g id="Grupo_56334" data-name="Grupo 56334" transform="translate(2.931 17.977)">
            <path id="Trazado_106548" data-name="Trazado 106548" d="M996.031,1549.115h-4.676v-3.106h4.676Zm-3.873-.8h3.071v-1.5h-3.071Z" transform="translate(-991.355 -1546.009)" fill="#b5ac84"/>
          </g>
          <g id="Grupo_56335" data-name="Grupo 56335" transform="translate(1.029 3.647)">
            <path id="Trazado_106549" data-name="Trazado 106549" d="M994.581,1516.394a.407.407,0,0,1-.1-.014c-1.455-.392-5.991-2.308-7.735-5a.4.4,0,1,1,.674-.436c1.6,2.469,5.95,4.309,7.27,4.665a.4.4,0,0,1-.1.789Z" transform="translate(-986.677 -1510.757)" fill="#b5ac84"/>
          </g>
          <g id="Grupo_56336" data-name="Grupo 56336" transform="translate(1.029 6.211)">
            <path id="Trazado_106550" data-name="Trazado 106550" d="M994.581,1522.7a.4.4,0,0,1-.1-.014c-1.455-.392-5.991-2.307-7.735-5a.4.4,0,1,1,.674-.436c1.6,2.469,5.95,4.309,7.27,4.665a.4.4,0,0,1-.1.789Z" transform="translate(-986.677 -1517.065)" fill="#b5ac84"/>
          </g>
          <g id="Grupo_56337" data-name="Grupo 56337" transform="translate(1.029 8.775)">
            <path id="Trazado_106551" data-name="Trazado 106551" d="M994.581,1529.01a.407.407,0,0,1-.1-.014c-1.455-.392-5.991-2.307-7.735-5a.4.4,0,1,1,.674-.436c1.6,2.469,5.95,4.309,7.27,4.665a.4.4,0,0,1-.1.789Z" transform="translate(-986.677 -1523.373)" fill="#b5ac84"/>
          </g>
          <g id="Grupo_56338" data-name="Grupo 56338" transform="translate(1.029 11.339)">
            <path id="Trazado_106552" data-name="Trazado 106552" d="M994.581,1535.318a.4.4,0,0,1-.1-.014c-1.455-.392-5.991-2.307-7.735-5a.4.4,0,0,1,.674-.436c1.6,2.469,5.95,4.309,7.27,4.665a.4.4,0,0,1-.1.789Z" transform="translate(-986.677 -1529.681)" fill="#b5ac84"/>
          </g>
        </g>
      </g>
      <g id="Grupo_56345" data-name="Grupo 56345" transform="translate(238.085 23.21)">
        <g id="Grupo_56344" data-name="Grupo 56344">
          <g id="Grupo_56341" data-name="Grupo 56341">
            <path id="Trazado_106553" data-name="Trazado 106553" d="M633.5,1342.844c-1.179,2.639-8.7,1.17-15.284-1.774s-12.7-7.566-11.516-10.2,8.7-1.17,15.284,1.773S634.675,1340.206,633.5,1342.844Zm-26.241-11.728c-.789,1.766,3.526,5.963,11.207,9.4s13.686,3.848,14.475,2.082-3.525-5.963-11.206-9.4S608.045,1329.35,607.255,1331.116Z" transform="translate(-606.549 -1329.49)" fill="#b5ac84"/>
          </g>
          <g id="Grupo_56342" data-name="Grupo 56342" transform="translate(18.511 8.405)">
            <path id="Trazado_106554" data-name="Trazado 106554" d="M660.521,1355.115c-.618,1.383-2.922,1.653-5.245.615s-3.659-2.935-3.04-4.318,2.922-1.653,5.245-.615S661.139,1353.732,660.521,1355.115Zm-7.727-3.453c-.462,1.034.789,2.641,2.731,3.509s3.974.729,4.436-.306-.789-2.641-2.731-3.509S653.257,1350.628,652.794,1351.662Z" transform="translate(-652.085 -1350.167)" fill="#b5ac84"/>
          </g>
          <g id="Grupo_56343" data-name="Grupo 56343" transform="translate(0.308 0.302)">
            <path id="Trazado_106555" data-name="Trazado 106555" d="M612.091,1333.517a1.835,1.835,0,0,1,2.379-.945,8.658,8.658,0,0,1,1.532-1.487c-4.467-1.206-7.9-1.166-8.576.348s1.564,4.076,5.411,6.589a8.355,8.355,0,0,1,.109-2.115A1.835,1.835,0,0,1,612.091,1333.517Z" transform="translate(-607.307 -1330.234)" fill="#b5ac84"/>
          </g>
        </g>
      </g>
      <g id="Grupo_56347" data-name="Grupo 56347" transform="translate(8.339 128.913)">
        <g id="Grupo_56346" data-name="Grupo 56346">
          <path id="Trazado_106556" data-name="Trazado 106556" d="M54.3,1604.707l-4.936-3.586-4.936,3.586,1.885-5.8-4.936-3.586h6.1l1.886-5.8,1.885,5.8h6.1L52.42,1598.9Zm-4.936-4.355,3.753,2.727-1.434-4.412,3.753-2.727H50.8l-1.433-4.412-1.434,4.412H43.3l3.753,2.727-1.433,4.412Z" transform="translate(-41.382 -1589.515)" fill="#b5ac84"/>
        </g>
      </g>
      <circle id="Elipse_4081" data-name="Elipse 4081" cx="2.16" cy="2.16" r="2.16" transform="translate(108.352 62.519) rotate(-76.717)" fill="#ede3b7"/>
      <circle id="Elipse_4082" data-name="Elipse 4082" cx="2.16" cy="2.16" r="2.16" transform="translate(114.618 62.519) rotate(-76.717)" fill="#ede3b7"/>
      <circle id="Elipse_4083" data-name="Elipse 4083" cx="2.16" cy="2.16" r="2.16" transform="translate(120.885 62.519) rotate(-76.717)" fill="#fff"/>
      <rect id="Rectángulo_5495" data-name="Rectángulo 5495" width="49.276" height="4.437" transform="translate(182.734 141.074)" fill="#ede3b7"/>
      <rect id="Rectángulo_5496" data-name="Rectángulo 5496" width="49.276" height="4.437" transform="translate(182.734 150.325)" fill="#ede3b7"/>
      <rect id="Rectángulo_5497" data-name="Rectángulo 5497" width="28.388" height="4.437" transform="translate(203.623 159.576)" fill="#ede3b7"/>
    </g>
  </g>
</svg>
