<svg xmlns="http://www.w3.org/2000/svg" xmlns:xlink="http://www.w3.org/1999/xlink" width="466.525" height="306.618" viewBox="0 0 466.525 306.618">
  <defs>
    <clipPath id="clip-path">
      <path id="Trazado_771947" data-name="Trazado 771947" d="M147.744,175.563s-18.239,1.864-19.391,16.966,6.44,77.742,6.44,77.742l49.717-3.173-4.684-71a22.055,22.055,0,0,0-3.439-10.807c-1.907-2.979-4.137-6.353-5.411-6.511l-20.455-5.26Z" transform="translate(-128.235 -173.52)"/>
    </clipPath>
    <clipPath id="clip-path-2">
      <path id="Trazado_771961" data-name="Trazado 771961" d="M147.284,190.118s-4.59-12.9-13.455-7.468-.856,45.242,4.065,50.667L162.753,214.8Z" transform="translate(-129.851 -181.315)"/>
    </clipPath>
  </defs>
  <g id="Grupo_1067805" data-name="Grupo 1067805" transform="translate(-960.526 -397.5)">
    <path id="Trazado_773547" data-name="Trazado 773547" d="M130.781,722.337c-.354-1.321-.686-2.644-1.016-3.961-3.743-14.951-7.191-29.267-25.065-38.566-14.543-7.565-34-6.874-51.074-3.518s-33.417,9.064-50.924,10.7c-26.768,2.5-54.861-5.4-73.01-20.517-12.9-10.749-21.669-25.224-38.934-31.546-11.281-4.132-24.6-4-36.765-1.724a106.391,106.391,0,0,0-55.683,29.272c-13.792,13.987-22.158,30.725-26.805,47.828a127.728,127.728,0,0,0,.746,69.824c7.124,24.222,22.033,47.733,46.6,64.142,11.777,7.866,25.489,13.934,39.777,18.86,59.556,20.531,127.665,21.18,192.784,16.376,40.035-2.953,80.923-8.114,115.556-23.62,20.156-9.024,23.108-25.291,30.174-40.707,7.132-15.56,2.91-34.407-12.535-46.313-14-10.793-35.157-16.058-45.708-28.908C134.535,734.64,132.432,728.507,130.781,722.337Z" transform="translate(1226.545 -234.123)" fill="#baefe4"/>
    <g id="Grupo_1067801" data-name="Grupo 1067801" transform="translate(960.526 407.116)">
      <g id="Grupo_1054407" data-name="Grupo 1054407" transform="translate(66.761 63.016)">
        <path id="Trazado_771827" data-name="Trazado 771827" d="M168.76,175.5s-.46-3.749,3-4.3,13.75-3.705,38.875-1.324c0,0,4.13-21.16,4.166-23.017.108-4.842,1.64-11.123,5.382-14.44.309-.273.532,12,.662,18.556,0,0,3.159,32.982-.691,36.3S164.925,186.8,168.76,175.5Z" transform="translate(-165.097 -132.424)" fill="#d1744f"/>
        <path id="Trazado_771828" data-name="Trazado 771828" d="M197.008,183.314c-15.412-.36-22.492,1.72-25.247,2.159-3.468.547-3,4.3-3,4.3-2.569,7.576,19.671,11.778,35.781,12.721A185.919,185.919,0,0,1,197.008,183.314Z" transform="translate(-165.097 -146.687)" fill="#945947"/>
        <path id="Trazado_771829" data-name="Trazado 771829" d="M176.773,177.933s-13.4-2.223-13.016,8.224S190.263,203.7,197.357,202l.029-22.578Z" transform="translate(-163.748 -145.133)" fill="#f79477"/>
        <g id="Grupo_1054406" data-name="Grupo 1054406" transform="translate(12.299 32.721)">
          <g id="Grupo_1054405" data-name="Grupo 1054405">
            <path id="Trazado_771830" data-name="Trazado 771830" d="M186.179,177.929c-1.864.633-4.353,1.36-5.08,3.432a4.182,4.182,0,0,0,2.6,5.411c2.835,1.072,5.806-.36,8.656-.6a17.785,17.785,0,0,1,9.138,1.648c.576.273,1.079-.583.5-.856a19.019,19.019,0,0,0-6.994-1.813,18.248,18.248,0,0,0-3.705.158c-1.338.194-2.633.576-3.972.77-2.281.331-5.533-.3-5.483-3.223.043-2.54,2.6-3.274,4.6-3.957.6-.209.345-1.166-.266-.964Z" transform="translate(-180.842 -177.902)" fill="#fbf3e8"/>
          </g>
        </g>
        <path id="Trazado_771831" data-name="Trazado 771831" d="M200.658,203.973c-2.087,2.5-22.477-2.748-24.715-6.152,0,0-.345-11.411.518-11.649C185.318,183.777,200.658,203.973,200.658,203.973Z" transform="translate(-167.15 -147.445)" fill="#c6765e"/>
      </g>
      <g id="Grupo_1054433" data-name="Grupo 1054433" transform="translate(318.435 166.153)">
        <g id="Grupo_1054432" data-name="Grupo 1054432">
          <g id="Grupo_1054409" data-name="Grupo 1054409" transform="translate(42.727 43.201)">
            <g id="Grupo_1054408" data-name="Grupo 1054408">
              <path id="Trazado_771832" data-name="Trazado 771832" d="M577.7,375.923a102.382,102.382,0,0,1-3.008-39.616c.079-.662-.957-.655-1.036,0A103.082,103.082,0,0,0,576.7,376.2a.519.519,0,0,0,1-.273Z" transform="translate(-572.923 -335.814)" fill="#34755a"/>
            </g>
          </g>
          <g id="Grupo_1054410" data-name="Grupo 1054410" transform="translate(0 9.843)">
            <path id="Trazado_771833" data-name="Trazado 771833" d="M545.1,360.8a15.535,15.535,0,0,1-17.167-8.684,22.814,22.814,0,0,0,9.7.878c-9.972-2.957-16.139-12.958-19.52-22.794a84.789,84.789,0,0,1-4.569-28.629L521.641,309c-2.59-2.691-5.231-5.447-6.763-8.85s-1.763-7.641.381-10.7a137.943,137.943,0,0,1,22.923,16.959,5.326,5.326,0,0,1,1.648,2.151,5.4,5.4,0,0,1-.245,3.043q-1.619,5.774-3.245,11.548a51.739,51.739,0,0,1,6.181-9.6,70.443,70.443,0,0,1,11.253,48.9" transform="translate(-513.539 -289.45)" fill="#6fd9c0"/>
          </g>
          <g id="Grupo_1054411" data-name="Grupo 1054411" transform="translate(47.479 51.215)">
            <path id="Trazado_771834" data-name="Trazado 771834" d="M579.544,376.133a44.964,44.964,0,0,1,4.116-20.017c2.216-4.8,6.411-9.749,11.656-9.109,3.043.374,5.511,2.569,7.67,4.741a119.044,119.044,0,0,1,17.887,23.067c2.36,3.972,4.54,8.246,4.821,12.858-7.9-6.605-9.469-19.261-18.383-24.413-.849-.489-2.007-.863-2.72-.194-1.957,1.82,3.842,4.943,1.986,6.871q-3.508-3.626-7.008-7.26a4.1,4.1,0,0,0-1.835-1.3c-1.238-.309-2.439.568-3.4,1.417A57.981,57.981,0,0,0,582.443,377.6" transform="translate(-579.527 -346.952)" fill="#6fd9c0"/>
          </g>
          <g id="Grupo_1054412" data-name="Grupo 1054412" transform="translate(42.926)">
            <path id="Trazado_771835" data-name="Trazado 771835" d="M573.2,327.819a62.68,62.68,0,0,1,7.555-28.384,34.032,34.032,0,0,0,1,15.289c-.209-6.583-.252-13.721,3.669-19.016a27.142,27.142,0,0,1,6.18-5.6,166.572,166.572,0,0,1,23.887-14.34q-2.579,9.843-5.159,19.693a2.5,2.5,0,0,1-.669,1.345,2.528,2.528,0,0,1-1.676.389q-4.274-.032-8.555-.072a16.734,16.734,0,0,0,6.562,3.346c.655.165,1.432.381,1.655,1.022a1.919,1.919,0,0,1-.259,1.425,48.809,48.809,0,0,1-33.313,26.406" transform="translate(-573.2 -275.77)" fill="#6fd9c0"/>
          </g>
          <g id="Grupo_1054431" data-name="Grupo 1054431" transform="translate(10.698 15.873)" opacity="0.3">
            <g id="Grupo_1054414" data-name="Grupo 1054414" transform="translate(4.869 6.692)">
              <g id="Grupo_1054413" data-name="Grupo 1054413">
                <path id="Trazado_771836" data-name="Trazado 771836" d="M535.178,307.5a59.371,59.371,0,0,1,.446,12.786c-.029.381.568.381.6,0a60.373,60.373,0,0,0-.468-12.944c-.057-.374-.633-.216-.576.158Z" transform="translate(-535.174 -307.133)" fill="#fbf3e8"/>
              </g>
            </g>
            <g id="Grupo_1054416" data-name="Grupo 1054416" transform="translate(7.85 9.793)">
              <g id="Grupo_1054415" data-name="Grupo 1054415">
                <path id="Trazado_771837" data-name="Trazado 771837" d="M540.636,311.728q-.658,5.806-1.317,11.62c-.043.381.554.374.6,0q.658-5.806,1.317-11.62c.043-.381-.554-.381-.6,0Z" transform="translate(-539.317 -311.443)" fill="#fbf3e8"/>
              </g>
            </g>
            <g id="Grupo_1054418" data-name="Grupo 1054418" transform="translate(0 14.544)">
              <g id="Grupo_1054417" data-name="Grupo 1054417">
                <path id="Trazado_771838" data-name="Trazado 771838" d="M555.16,364.277a183.486,183.486,0,0,0-19.376-36.716q-3.292-4.813-6.886-9.411c-.237-.3-.655.122-.424.424a182.6,182.6,0,0,1,21.456,34.989q2.5,5.364,4.655,10.879c.144.345.72.194.576-.165Z" transform="translate(-528.407 -318.046)" fill="#fbf3e8"/>
              </g>
            </g>
            <g id="Grupo_1054420" data-name="Grupo 1054420" transform="translate(46.43 3.051)">
              <g id="Grupo_1054419" data-name="Grupo 1054419">
                <path id="Trazado_771839" data-name="Trazado 771839" d="M593.537,315.209q.615-6.422,1.223-12.85c.036-.381-.561-.381-.6,0q-.615,6.422-1.223,12.85c-.036.381.561.381.6,0Z" transform="translate(-592.938 -302.073)" fill="#fbf3e8"/>
              </g>
            </g>
            <g id="Grupo_1054422" data-name="Grupo 1054422" transform="translate(48.746)">
              <g id="Grupo_1054421" data-name="Grupo 1054421">
                <path id="Trazado_771840" data-name="Trazado 771840" d="M599.31,298.032a50.611,50.611,0,0,0-3.151,12.915c-.043.381.554.381.6,0a49.921,49.921,0,0,1,3.13-12.757c.144-.36-.432-.511-.576-.158Z" transform="translate(-596.157 -297.832)" fill="#fbf3e8"/>
              </g>
            </g>
            <g id="Grupo_1054424" data-name="Grupo 1054424" transform="translate(34.321 10.351)">
              <g id="Grupo_1054423" data-name="Grupo 1054423">
                <path id="Trazado_771841" data-name="Trazado 771841" d="M576.656,336.028a50.775,50.775,0,0,1,21.729-23.254c.338-.187.036-.7-.3-.518a51.367,51.367,0,0,0-21.945,23.47c-.158.353.353.655.518.3Z" transform="translate(-576.108 -312.217)" fill="#fbf3e8"/>
              </g>
            </g>
            <g id="Grupo_1054426" data-name="Grupo 1054426" transform="translate(51.26 41.584)">
              <g id="Grupo_1054425" data-name="Grupo 1054425">
                <path id="Trazado_771842" data-name="Trazado 771842" d="M599.737,356.14l6.735,6.734c.273.273.691-.151.425-.424l-6.734-6.735c-.273-.273-.691.151-.425.425Z" transform="translate(-599.651 -355.627)" fill="#fbf3e8"/>
              </g>
            </g>
            <g id="Grupo_1054428" data-name="Grupo 1054428" transform="translate(54.851 41.106)">
              <g id="Grupo_1054427" data-name="Grupo 1054427">
                <path id="Trazado_771843" data-name="Trazado 771843" d="M604.777,355.529a84.384,84.384,0,0,1,16.045,13.793c.259.288.676-.137.424-.425a84.874,84.874,0,0,0-16.167-13.886c-.324-.209-.619.309-.3.518Z" transform="translate(-604.642 -354.962)" fill="#fbf3e8"/>
              </g>
            </g>
            <g id="Grupo_1054430" data-name="Grupo 1054430" transform="translate(40.272 41.372)">
              <g id="Grupo_1054429" data-name="Grupo 1054429">
                <path id="Trazado_771844" data-name="Trazado 771844" d="M600.691,356.187a6.046,6.046,0,0,0-5.95-.144,11.4,11.4,0,0,0-4.756,5.252,63.258,63.258,0,0,0-5.6,15.9c-.079.374.5.532.576.158a67.234,67.234,0,0,1,4.885-14.44,14.875,14.875,0,0,1,3.864-5.511,5.8,5.8,0,0,1,6.684-.691c.317.2.612-.309.295-.525Z" transform="translate(-584.38 -355.332)" fill="#fbf3e8"/>
              </g>
            </g>
          </g>
        </g>
        <path id="Trazado_771845" data-name="Trazado 771845" d="M577.254,432.547H551.791A13.95,13.95,0,0,1,537.84,418.6V381.16h53.365V418.6A13.95,13.95,0,0,1,577.254,432.547Z" transform="translate(-520.355 -305.332)" fill="#945947"/>
        <path id="Trazado_771846" data-name="Trazado 771846" d="M577.254,432.547H551.791A13.95,13.95,0,0,1,537.84,418.6V381.16" transform="translate(-520.355 -305.332)" fill="#d1744f"/>
      </g>
      <path id="Trazado_771848" data-name="Trazado 771848" d="M236.23,447.825c7.447,0,18.247-10.008,18.247-17.455H459.966s-.791,17.455-20.628,17.455H236.23" transform="translate(-117.32 -152.982)" fill="#945947"/>
      <g id="Grupo_1054459" data-name="Grupo 1054459" transform="translate(118.809 50.257)">
        <g id="Grupo_1054438" data-name="Grupo 1054438" transform="translate(134.439 149.066)">
          <rect id="Rectángulo_361901" data-name="Rectángulo 361901" width="38.126" height="14.246" transform="translate(0 18.858)" fill="#f67d68"/>
          <rect id="Rectángulo_361902" data-name="Rectángulo 361902" width="38.126" height="14.246" transform="translate(0.216 0)" fill="#004046"/>
        </g>
        <g id="Grupo_1054443" data-name="Grupo 1054443" transform="translate(0.253)">
          <g id="Grupo_1054440" data-name="Grupo 1054440" transform="translate(21.822 33.629)">
            <g id="Grupo_1054439" data-name="Grupo 1054439" transform="translate(0 4.547)">
              <path id="Trazado_771852" data-name="Trazado 771852" d="M298.867,209.79h-32.1V167.75h42.04v32.1C304.925,203.725,302.752,205.905,298.867,209.79Z" transform="translate(-266.77 -167.75)" fill="#f67d68"/>
              <path id="Trazado_771853" data-name="Trazado 771853" d="M311.08,222.066c2.6-3.777.475-9.684.475-9.684l9.685-.022C321.239,212.353,314.275,223.519,311.08,222.066Z" transform="translate(-279.199 -180.263)" fill="#f6ada0"/>
            </g>
            <rect id="Rectángulo_361903" data-name="Rectángulo 361903" width="19.844" height="7.785" transform="translate(10.102)" fill="#f79477"/>
          </g>
          <g id="Grupo_1054442" data-name="Grupo 1054442">
            <g id="Grupo_1054441" data-name="Grupo 1054441" transform="translate(0 4.54)">
              <path id="Trazado_771854" data-name="Trazado 771854" d="M268.537,163.04h-32.1V121h42.04v32.1Z" transform="translate(-236.44 -121)" fill="#6fd9c0"/>
              <path id="Trazado_771855" data-name="Trazado 771855" d="M280.75,175.316c2.6-3.777.475-9.684.475-9.684l9.684-.022S283.945,176.777,280.75,175.316Z" transform="translate(-248.869 -133.513)" fill="#659c85"/>
            </g>
            <rect id="Rectángulo_361904" data-name="Rectángulo 361904" width="19.844" height="7.785" transform="translate(10.102)" fill="#f79477"/>
          </g>
        </g>
        <g id="Grupo_1054457" data-name="Grupo 1054457" transform="translate(12.664 6.317)">
          <g id="Grupo_1054446" data-name="Grupo 1054446" transform="translate(62.776)">
            <path id="Trazado_771856" data-name="Trazado 771856" d="M379.678,147.732c-21.067,0-24.262-24.262-24.262-24.262l-8.3,2.554s12.447,56.5-6.173,53.207V218.6h39.371" transform="translate(-340.94 -123.47)" fill="none" stroke="#064260" stroke-miterlimit="10" stroke-width="0.553"/>
            <g id="Grupo_1054445" data-name="Grupo 1054445" transform="translate(39.378 7.03)" opacity="0.49">
              <g id="Grupo_1054444" data-name="Grupo 1054444">
                <line id="Línea_300" data-name="Línea 300" y2="2.382" fill="none" stroke="#064260" stroke-linecap="round" stroke-linejoin="round" stroke-width="0.829"/>
                <line id="Línea_301" data-name="Línea 301" y2="87.34" transform="translate(0 7.375)" fill="none" stroke="#064260" stroke-linecap="round" stroke-linejoin="round" stroke-width="0.829" stroke-dasharray="6.937 6.937"/>
                <line id="Línea_302" data-name="Línea 302" y2="2.382" transform="translate(0 97.212)" fill="none" stroke="#064260" stroke-linecap="round" stroke-linejoin="round" stroke-width="0.829"/>
              </g>
            </g>
            <line id="Línea_303" data-name="Línea 303" y1="24.859" transform="translate(20.959 70)" fill="none" stroke="#064260" stroke-miterlimit="10" stroke-width="1.334"/>
          </g>
          <g id="Grupo_1054447" data-name="Grupo 1054447" transform="translate(0 133.777)">
            <path id="Trazado_771857" data-name="Trazado 771857" d="M265.74,338.561c0-11.426,3.547-13,8.274-18.916s4.331-10.246,4.331-10.246L347.3,319.646v33.486l-68.957,10.246s.4-4.331-4.331-10.246-8.274-7.49-8.274-18.916" transform="translate(-257.07 -309.4)" fill="none" stroke="#064260" stroke-miterlimit="10" stroke-width="0.671"/>
            <line id="Línea_304" data-name="Línea 304" x2="102.054" transform="translate(0 25.226)" fill="none" stroke="#064260" stroke-linecap="round" stroke-linejoin="round" stroke-miterlimit="10" stroke-width="0.671" stroke-dasharray="5.368" opacity="0.49"/>
          </g>
          <g id="Grupo_1054452" data-name="Grupo 1054452" transform="translate(39.225 97.753)">
            <g id="Grupo_1054449" data-name="Grupo 1054449">
              <g id="Grupo_1054448" data-name="Grupo 1054448">
                <path id="Trazado_771858" data-name="Trazado 771858" d="M308.461,260.245a19.616,19.616,0,0,1,9.1,26.362c-.281.576.576,1.079.856.5a20.611,20.611,0,0,0-9.454-27.722c-.576-.281-1.079.576-.5.856Z" transform="translate(-308.207 -259.333)" fill="#064260"/>
              </g>
            </g>
            <g id="Grupo_1054451" data-name="Grupo 1054451" transform="translate(5.763 19.166)">
              <g id="Grupo_1054450" data-name="Grupo 1054450">
                <path id="Trazado_771859" data-name="Trazado 771859" d="M316.262,286.733a26.36,26.36,0,0,1,2.115,9.3.507.507,0,0,0,.849.353l9.325-7.6c.5-.4-.209-1.1-.705-.705l-9.325,7.6c.281.115.568.237.849.353a27.734,27.734,0,0,0-2.252-9.8c-.252-.583-1.108-.079-.856.5Z" transform="translate(-316.216 -285.97)" fill="#064260"/>
              </g>
            </g>
          </g>
          <g id="Grupo_1054454" data-name="Grupo 1054454" transform="translate(56.629 35.478)">
            <g id="Grupo_1054453" data-name="Grupo 1054453">
              <path id="Trazado_771860" data-name="Trazado 771860" d="M332.874,173.773h23.8a.5.5,0,0,0,0-.993h-23.8a.5.5,0,0,0,0,.993Z" transform="translate(-332.396 -172.78)" fill="#064260"/>
            </g>
          </g>
          <g id="Grupo_1054456" data-name="Grupo 1054456" transform="translate(77.266 29.103)">
            <g id="Grupo_1054455" data-name="Grupo 1054455">
              <path id="Trazado_771861" data-name="Trazado 771861" d="M361.137,164.682a16.737,16.737,0,0,0,5.166,6.511c-.036-.259-.065-.518-.1-.784a29.983,29.983,0,0,1-4.914,4.684c-.5.381-.007,1.245.5.856a31.049,31.049,0,0,0,5.116-4.842.507.507,0,0,0-.1-.777A15.745,15.745,0,0,1,362,164.172c-.266-.576-1.122-.065-.863.511Z" transform="translate(-361.078 -163.919)" fill="#064260"/>
            </g>
          </g>
        </g>
        <g id="Grupo_1054458" data-name="Grupo 1054458" transform="translate(0 3.467)">
          <circle id="Elipse_4748" data-name="Elipse 4748" cx="5.943" cy="5.943" r="5.943" transform="translate(105.797 8.405) rotate(-45)" fill="#6fd9c0"/>
          <circle id="Elipse_4749" data-name="Elipse 4749" cx="5.943" cy="5.943" r="5.943" transform="matrix(0.973, -0.231, 0.231, 0.973, 0, 156.82)" fill="#f67d68"/>
        </g>
      </g>
      <g id="Grupo_1054475" data-name="Grupo 1054475" transform="translate(271.153 60.084)">
        <g id="Grupo_1054471" data-name="Grupo 1054471">
          <g id="Grupo_1054466" data-name="Grupo 1054466" transform="translate(49.86)">
            <path id="Trazado_771862" data-name="Trazado 771862" d="M520.394,150.37a12.763,12.763,0,0,0-2.95,5.324,9.56,9.56,0,0,0,.36,6.029" transform="translate(-517.122 -134.525)" fill="none" stroke="#0d294d" stroke-linecap="round" stroke-miterlimit="10" stroke-width="1.105"/>
            <path id="Trazado_771863" data-name="Trazado 771863" d="M553.4,156.144c-.23-2.77-6.188-5.454-4.5-8.879s2.1-4.281-2.065-6.533-2.41-2.087-2.806-7.1-7.03-5.216-7.03-5.216a19.563,19.563,0,0,0-13.253,3.461c-1.353,1.029-3.842,5.425-3.418,7.066,0,0,3.446-.108-.77,6.317s-1.23,9.9.223,10.778l27.01-.5.129-3.087,1.072,3.058Z" transform="translate(-517.196 -128.348)" fill="#0d294d"/>
            <g id="Grupo_1054461" data-name="Grupo 1054461" transform="translate(1.163 17.252)">
              <path id="Trazado_771864" data-name="Trazado 771864" d="M522.416,153.02a4.232,4.232,0,1,0,2.051.237" transform="translate(-518.738 -152.52)" fill="none" stroke="#34755a" stroke-miterlimit="10" stroke-width="1.105"/>
              <path id="Trazado_771865" data-name="Trazado 771865" d="M523.767,152.71a.443.443,0,1,0-.381.5A.448.448,0,0,0,523.767,152.71Z" transform="translate(-519.901 -152.326)" fill="none" stroke="#34755a" stroke-miterlimit="10" stroke-width="1.105"/>
            </g>
            <path id="Trazado_771866" data-name="Trazado 771866" d="M538.042,143.634a.4.4,0,0,0,.446.353c.928-.129,3.051-.612,3.669,1.784.633,2.418-1.533,4.108-2.928,4.375-.4.079-1.331.281-1.568.619-.727,1.036-.856,3.1-1.18,5.7a7.209,7.209,0,0,0,3.986,7.7s-13.584,9.059-14.4,1.885c0,0-.59-13.325-.669-13.383-1.281-.986-5.756-.892-4.224-10.649,1.417-9.037,7.879-9.26,9.541-9.188C532.128,132.884,536.919,132.553,538.042,143.634Z" transform="translate(-518.171 -129.602)" fill="#fddacf"/>
            <g id="Grupo_1054462" data-name="Grupo 1054462" transform="translate(4.158 9.037)">
              <path id="Trazado_771867" data-name="Trazado 771867" d="M547.893,151.624s-1.871-2.892-3.173,1.482" transform="translate(-529.021 -143.651)" fill="#feefeb"/>
              <path id="Trazado_771868" data-name="Trazado 771868" d="M523.37,150.25l3.547,1.216s-1.475,1.4-2.439.871S523.37,150.25,523.37,150.25Z" transform="translate(-523.033 -143.528)" fill="#fff"/>
              <path id="Trazado_771869" data-name="Trazado 771869" d="M526.323,146.48l-.216,2.446-1.223-.36a.312.312,0,0,1-.13-.518Z" transform="translate(-523.396 -142.471)" fill="#f79477"/>
              <path id="Trazado_771870" data-name="Trazado 771870" d="M531.511,143.851c.345.367-.014-1.022-.525-1.281a.988.988,0,0,0-1.345.338A3.012,3.012,0,0,1,531.511,143.851Z" transform="translate(-524.791 -141.339)"/>
              <path id="Trazado_771871" data-name="Trazado 771871" d="M523.03,141.874c-.461.194.417-.928,1-.964a.981.981,0,0,1,1.094.849A3.067,3.067,0,0,0,523.03,141.874Z" transform="translate(-522.901 -140.908)"/>
              <path id="Trazado_771872" data-name="Trazado 771872" d="M529.6,146.843c-.108.417-.36.719-.561.662s-.281-.432-.173-.856.36-.719.561-.662S529.7,146.426,529.6,146.843Z" transform="translate(-524.559 -142.331)"/>
              <path id="Trazado_771873" data-name="Trazado 771873" d="M525.047,145.381c-.1.4-.345.684-.54.633s-.266-.417-.165-.813.345-.684.54-.633S525.155,144.985,525.047,145.381Z" transform="translate(-523.292 -141.933)"/>
            </g>
            <path id="Trazado_771874" data-name="Trazado 771874" d="M550.92,130.89c1.461,1.216,3.008,2.82,2.763,4.713a8.384,8.384,0,0,0-.381,2.238,2.552,2.552,0,0,0,1.525,1.8,20.1,20.1,0,0,0,2.331.77c2.381.827,4.411,3.331,3.72,5.756a10.581,10.581,0,0,0-.806,2.489,4.367,4.367,0,0,0,1.4,2.756c1.216,1.4,2.425,2.806,3.641,4.209" transform="translate(-526.602 -129.061)" fill="none" stroke="#0d294d" stroke-linecap="round" stroke-miterlimit="10" stroke-width="1.105"/>
            <path id="Trazado_771875" data-name="Trazado 771875" d="M527.418,131.541s-1.266,4.569,2.058,3.461,4.008-1.993,5.756,2.173.7,6.31,6.137,5.058C541.369,142.24,544.369,120.5,527.418,131.541Z" transform="translate(-519.943 -128.367)" fill="#0d294d"/>
            <g id="Grupo_1054464" data-name="Grupo 1054464" transform="translate(1.429 8.436)">
              <g id="Grupo_1054463" data-name="Grupo 1054463">
                <path id="Trazado_771876" data-name="Trazado 771876" d="M519.41,144.492l.468.094a.473.473,0,0,0,.554-.367l.022-.1a.473.473,0,0,0-.367-.554l-.468-.094Z" transform="translate(-519.193 -141.026)" stroke="#000" stroke-miterlimit="10" stroke-width="0.324"/>
                <path id="Trazado_771877" data-name="Trazado 771877" d="M527.452,145.1c-.425,2.087.59,4.051,2.266,4.4s3.382-1.072,3.806-3.159-.59-4.051-2.266-4.4S527.877,143.012,527.452,145.1Z" transform="translate(-521.422 -140.582)" fill="#fff" opacity="0.27"/>
                <path id="Trazado_771878" data-name="Trazado 771878" d="M527.452,145.1c-.425,2.087.59,4.051,2.266,4.4s3.382-1.072,3.806-3.159-.59-4.051-2.266-4.4S527.877,143.012,527.452,145.1Z" transform="translate(-521.422 -140.582)" fill="none" stroke="#34755a" stroke-miterlimit="10" stroke-width="0.367"/>
                <path id="Trazado_771879" data-name="Trazado 771879" d="M519.225,143.294c-.417,2.036.331,3.9,1.669,4.173s2.763-1.151,3.173-3.187-.331-3.9-1.669-4.173S519.635,141.258,519.225,143.294Z" transform="translate(-519.109 -140.073)" fill="none" stroke="#000" stroke-miterlimit="10" stroke-width="0.324"/>
                <path id="Trazado_771880" data-name="Trazado 771880" d="M519.225,143.294c-.417,2.036.331,3.9,1.669,4.173s2.763-1.151,3.173-3.187-.331-3.9-1.669-4.173S519.635,141.258,519.225,143.294Z" transform="translate(-519.109 -140.073)" fill="none" stroke="#000" stroke-miterlimit="10" stroke-width="0.324"/>
                <path id="Trazado_771881" data-name="Trazado 771881" d="M519.225,143.294c-.417,2.036.331,3.9,1.669,4.173s2.763-1.151,3.173-3.187-.331-3.9-1.669-4.173S519.635,141.258,519.225,143.294Z" transform="translate(-519.109 -140.073)" fill="#fff" opacity="0.27"/>
                <path id="Trazado_771882" data-name="Trazado 771882" d="M532.24,141.89a2.393,2.393,0,0,1,.388.05,3.155,3.155,0,0,1,2.317,2.784C534.01,143.811,533.118,142.861,532.24,141.89Z" transform="translate(-522.792 -140.583)" fill="#fff" opacity="0.27"/>
                <path id="Trazado_771883" data-name="Trazado 771883" d="M529.44,142.809a3.28,3.28,0,0,1,.417-.309,53.862,53.862,0,0,0,4.18,4.324,4.562,4.562,0,0,1-.194.554Q531.62,145.112,529.44,142.809Z" transform="translate(-522.006 -140.754)" fill="#fff" opacity="0.27"/>
                <path id="Trazado_771884" data-name="Trazado 771884" d="M531.726,150.144a2.727,2.727,0,0,1-2.007.4c-1.677-.345-2.691-2.31-2.266-4.4a3.806,3.806,0,0,1,.137-.511C528.935,147.165,530.309,148.676,531.726,150.144Z" transform="translate(-521.422 -141.635)" fill="#fff" opacity="0.27"/>
                <path id="Trazado_771885" data-name="Trazado 771885" d="M522.045,147.831c-.943-.957-1.936-1.871-2.936-2.763a5.414,5.414,0,0,1,.115-1.252,5.272,5.272,0,0,1,.755-1.856,27.509,27.509,0,0,0,3.684,4.072A3.617,3.617,0,0,1,522.045,147.831Z" transform="translate(-519.109 -140.603)" fill="#fff" opacity="0.27"/>
                <path id="Trazado_771886" data-name="Trazado 771886" d="M522.8,140.1a1.666,1.666,0,0,1,.626.007c1.029.209,1.712,1.367,1.777,2.82Q524.016,141.5,522.8,140.1Z" transform="translate(-520.144 -140.073)" fill="#fff" opacity="0.27"/>
                <path id="Trazado_771887" data-name="Trazado 771887" d="M519.225,143.294c-.417,2.036.331,3.9,1.669,4.173s2.763-1.151,3.173-3.187-.331-3.9-1.669-4.173S519.635,141.258,519.225,143.294Z" transform="translate(-519.109 -140.073)" fill="none" stroke="#34755a" stroke-miterlimit="10" stroke-width="0.324"/>
                <path id="Trazado_771888" data-name="Trazado 771888" d="M526.988,146.576s-.245-1.763-1.108-.23" transform="translate(-521.008 -141.657)" fill="none" stroke="#34755a" stroke-miterlimit="10" stroke-width="0.367"/>
                <path id="Trazado_771889" data-name="Trazado 771889" d="M535.96,147.872l.468.094a.473.473,0,0,0,.554-.367l.022-.1a.473.473,0,0,0-.367-.554l-.468-.094Z" transform="translate(-523.835 -141.974)" fill="#6fd9c0"/>
                <line id="Línea_305" data-name="Línea 305" x1="6.569" y1="0.475" transform="translate(12.24 5.387)" fill="none" stroke="#34755a" stroke-miterlimit="10" stroke-width="0.324"/>
              </g>
            </g>
            <g id="Grupo_1054465" data-name="Grupo 1054465" transform="translate(18.121 17.727)">
              <path id="Trazado_771890" data-name="Trazado 771890" d="M545.986,153.68a4.232,4.232,0,1,0,2.051.237" transform="translate(-542.308 -153.18)" fill="none" stroke="#34755a" stroke-miterlimit="10" stroke-width="1.105"/>
              <path id="Trazado_771891" data-name="Trazado 771891" d="M547.336,153.37a.443.443,0,1,0-.381.5A.448.448,0,0,0,547.336,153.37Z" transform="translate(-543.471 -152.986)" fill="none" stroke="#34755a" stroke-miterlimit="10" stroke-width="1.105"/>
            </g>
          </g>
          <path id="Trazado_771892" data-name="Trazado 771892" d="M597.806,450.871c0-1.389-19.563-2.511-43.688-2.511s-43.688,1.122-43.688,2.511,19.563,2.511,43.688,2.511S597.806,452.26,597.806,450.871Z" transform="translate(-465.385 -218.112)" fill="#004046"/>
          <g id="Grupo_1054467" data-name="Grupo 1054467" transform="translate(40.025 207.627)">
            <path id="Trazado_771893" data-name="Trazado 771893" d="M527.456,417.275l-2.576,19.4a22.605,22.605,0,0,1,1.187,5.555c-2.561,1.763-11.354,1.4-12.5,0a19.07,19.07,0,0,0,3.964-6.08l-2.777-19.218Z" transform="translate(-506.291 -416.923)" fill="#feefeb"/>
            <path id="Trazado_771894" data-name="Trazado 771894" d="M524.23,421.681l3.375,23.01s.741.583,1.453-.928c.424-.907-.13-1.59-1.122-5.224l2.051-17.059Z" transform="translate(-509.281 -418.199)" fill="#f78737"/>
            <path id="Trazado_771895" data-name="Trazado 771895" d="M579.43,416.92l5.907,17.721s-.791,6.432-.971,6.878c-.626,1.561,6.432-7.137,6.432-7.137l.619-17.1Z" transform="translate(-524.764 -416.92)" fill="#feefeb"/>
            <path id="Trazado_771896" data-name="Trazado 771896" d="M587.76,416.92l3.418,20.937s6.073,4.18,6.547,2.864c.194-.547-3.6-4.979-4.389-6.389l.424-17.059Z" transform="translate(-527.101 -416.92)" fill="#f78737"/>
            <path id="Trazado_771897" data-name="Trazado 771897" d="M503.667,450.722c-.461.345-.13.921.532.928l13.361.108c.324,0,6.411-.338,6.648-.5.022-.014-.662-2.547-.662-2.547l-6.065,1.518a63.774,63.774,0,0,0-2.777-5.885C514.416,444.11,503.667,450.722,503.667,450.722Z" transform="translate(-503.452 -424.612)" fill="#f79477"/>
            <path id="Trazado_771898" data-name="Trazado 771898" d="M597.885,448.149a1.676,1.676,0,0,1-.748,2.425c-1.6.957-4.238,2.4-4.238,2.4s-4.36-1.374-6.022-2.094c-1.108-.482-1.979-1.194-1.842-2.123l.194-1.245c.014-.108,2.907-4.936,2.907-4.936l4.231-.532Z" transform="translate(-526.332 -423.966)" fill="#f79477"/>
          </g>
          <g id="Grupo_1054468" data-name="Grupo 1054468" transform="translate(39.417 70.275)">
            <path id="Trazado_771899" data-name="Trazado 771899" d="M542.362,228.922a79.043,79.043,0,0,1,8.728,22.038c2.763,10.814,29,93.9,34.644,114.35-3.411.82-30.435-.194-32.593-.317-6.85-19.635-20.448-74.878-23.384-87.247-.453-1.9-2.439-1.475-2.209.468,1.669,14.124,9.519,68.41,9.519,89.211-1.784.907-30.025.964-32.09.705-2.245-24.233-7.217-110.076,10.771-139.806C523.986,227.188,534.023,228.67,542.362,228.922Z" transform="translate(-502.608 -226.548)" fill="#004046"/>
            <path id="Trazado_771900" data-name="Trazado 771900" d="M518.588,232.97a104.269,104.269,0,0,0-9.728,44.2c0,25.593,2.115,92.384,2.115,92.384" transform="translate(-504.362 -227.969)" fill="none" stroke="#fff" stroke-miterlimit="10" stroke-width="0.446"/>
            <line id="Línea_306" data-name="Línea 306" x1="39.054" y1="135.669" transform="translate(35.609 2.741)" fill="none" stroke="#fff" stroke-miterlimit="10" stroke-width="0.446"/>
            <path id="Trazado_771901" data-name="Trazado 771901" d="M544.51,229.34s.669,25.938,11.188,24.089" transform="translate(-514.362 -226.951)" fill="none" stroke="#fff" stroke-miterlimit="10" stroke-width="0.446"/>
            <path id="Trazado_771902" data-name="Trazado 771902" d="M519.33,228.5l36.011,23.974s-2.115-14.1-9.519-26.449Z" transform="translate(-507.299 -226.02)" opacity="0.21"/>
            <path id="Trazado_771903" data-name="Trazado 771903" d="M511.3,256.074c10.519,1.849,11.311-21.614,11.311-21.614" transform="translate(-505.046 -228.387)" fill="none" stroke="#fff" stroke-miterlimit="10" stroke-width="0.446"/>
          </g>
          <g id="Grupo_1054469" data-name="Grupo 1054469" transform="translate(0 34.235)">
            <path id="Trazado_771904" data-name="Trazado 771904" d="M448.318,211.452c7.576-.23,12.634-.223,13.347-.173l24.427-.532-.072-.065s1.23-.007,2.1-.072a.965.965,0,0,0,.871-.734c2.346-9.886,7.087-35.946,15.584-33.824.122.029,2.993.453,2.684.835-2.784,3.5-7.857,20.736-7.857,20.736-.057.259-.05,1.417-.043,3.079,2.993,17.153-.59,18.477-.59,18.477a8.073,8.073,0,0,1-1.806.791.216.216,0,0,0-.036.05l-.036-.029c-10.908,3.389-42.465-3.979-42.465-3.979C451.843,215.337,446.116,211.516,448.318,211.452Z" transform="translate(-447.824 -175.93)" fill="#fddacf"/>
          </g>
          <path id="Trazado_771905" data-name="Trazado 771905" d="M518.944,187.026,509.95,182.8s4.5-7.936,12.958-7.137" transform="translate(-465.25 -141.603)" fill="#6fd9c0"/>
          <path id="Trazado_771906" data-name="Trazado 771906" d="M461.329,223.875s-5.727-3.626-5.972-2.748c-.475,1.727,4.288,3.547,3.691,4.087C459.048,225.206,460.43,224.35,461.329,223.875Z" transform="translate(-449.928 -154.334)" fill="#fcb6a3"/>
          <g id="Grupo_1054470" data-name="Grupo 1054470" transform="translate(48.168 31.228)">
            <path id="Trazado_771907" data-name="Trazado 771907" d="M523.21,174.3c.237.583-8.713,18-8.433,23.7.288,5.742,2.123,8.5,1.82,9.361,0,0,4,3.871,28.564,0,.353-5.993,7.936-19.045-1.763-29.442-1.065-1.662-5.857-5.195-8.289-6.173C535.11,171.75,532.895,177.182,523.21,174.3Z" transform="translate(-514.771 -171.75)" fill="#6fd9c0"/>
          </g>
          <path id="Trazado_771908" data-name="Trazado 771908" d="M545.728,225.693l1.849-7.4s.173.353-3.526,1.238-4.763-3.526-7.756-1.943,0,4.058-4.231,3.705-5.641-6.346-8.461-4.583-8.994,1.058-8.994,1.058l4.511,7.324Z" transform="translate(-466.558 -153.044)" fill="#004046"/>
          <line id="Línea_307" data-name="Línea 307" x2="26.607" y2="0.597" transform="translate(52.564 72.052)" fill="none" stroke="#fff" stroke-miterlimit="10" stroke-width="0.446"/>
        </g>
        <g id="Grupo_1054474" data-name="Grupo 1054474" transform="translate(22.302 27.04)">
          <g id="Grupo_1054472" data-name="Grupo 1054472" transform="translate(0 2.541)">
            <path id="Trazado_771909" data-name="Trazado 771909" d="M491.275,209.22c-3.159,0-7.605-1.475-12.455-7.569l3.734-2.972c3.187,4.008,6.5,6.058,9.3,5.742,2.108-.23,4.008-1.777,5.209-4.238.576-1.187,1.18-2.446,1.8-3.749,4.662-9.771,7.742-27.658,15.153-26.952l.173,4.144c-5.555,1.943-6.85,16.117-11.023,24.859-.626,1.317-1.237,2.59-1.813,3.785-1.928,3.972-5.2,6.483-8.972,6.9C492.023,209.2,491.656,209.22,491.275,209.22Z" transform="translate(-478.82 -169.462)" fill="#f79477"/>
          </g>
          <g id="Grupo_1054473" data-name="Grupo 1054473" transform="translate(28.663)">
            <path id="Trazado_771910" data-name="Trazado 771910" d="M536.194,165.93c-1.072,2.684-.576,4.447-1.3,7.267a3.882,3.882,0,0,1-.935,1.748,36.915,36.915,0,0,1-4.1,7.217c-.281.417-.554.835-.828,1.245-6.382,9.684-9.749,18.556-10.3,27.111-.705,10.994,3.691,21.29,11.483,26.873l2.777-3.878c-6.461-4.626-10.1-13.318-9.5-22.686.5-7.706,3.612-15.815,9.519-24.794.266-.41.54-.813.813-1.223,2.382-3.561,4.842-7.253,5.562-11.742C539.9,169.9,537.856,168.168,536.194,165.93Z" transform="translate(-518.658 -165.93)" fill="#f79477"/>
          </g>
        </g>
        <path id="Trazado_771911" data-name="Trazado 771911" d="M494.863,197.073s21.678,27.945,26.773,24.355c0,0,26.449-32.442,14.807-41.083-6.914-5.13-11.814,15.34-18.693,26.974-.209.353-17.9-15.383-17.9-15.383S491.5,180.9,490.92,181.524c-.842.914,2.389,5.835,2.389,5.835a1.646,1.646,0,0,1-.842.842,1.994,1.994,0,0,0-1.194,1.547c-.209.842-1.058,1.338-1.194,1.828S493.086,195.785,494.863,197.073Z" transform="translate(-459.675 -142.706)" fill="#fddacf"/>
        <path id="Trazado_771912" data-name="Trazado 771912" d="M540.59,187.517l18.513,5.468s-3.41-11.282-8.641-14.635c-4.669-3-5.116-1.59-5.116-1.59Z" transform="translate(-473.845 -141.835)" fill="#6fd9c0"/>
      </g>
      <g id="Grupo_1054489" data-name="Grupo 1054489" transform="translate(229.965 85.138)">
        <g id="Grupo_1054482" data-name="Grupo 1054482">
          <g id="Grupo_1054478" data-name="Grupo 1054478" transform="translate(17.923 92.038)">
            <g id="Grupo_1054477" data-name="Grupo 1054477" transform="translate(12.339)">
              <rect id="Rectángulo_361905" data-name="Rectángulo 361905" width="5.929" height="116.365" fill="#165c80"/>
              <g id="Grupo_1054476" data-name="Grupo 1054476">
                <path id="Trazado_771913" data-name="Trazado 771913" d="M438.579,295.27v-4.18H432.65v19.527Q435.51,302.9,438.579,295.27Z" transform="translate(-432.643 -291.09)" fill="#004046"/>
                <path id="Trazado_771914" data-name="Trazado 771914" d="M432.64,437.86v10.764h5.929v-8.871C436.6,439.1,434.626,438.472,432.64,437.86Z" transform="translate(-432.64 -332.259)" fill="#004046"/>
              </g>
            </g>
            <path id="Trazado_771915" data-name="Trazado 771915" d="M445.817,451.381H415.49a7.873,7.873,0,0,1,7.871-7.871h14.584a7.869,7.869,0,0,1,7.871,7.871Z" transform="translate(-415.49 -333.844)" fill="#f67d68"/>
          </g>
          <g id="Grupo_1054481" data-name="Grupo 1054481">
            <g id="Grupo_1054480" data-name="Grupo 1054480">
              <path id="Trazado_771916" data-name="Trazado 771916" d="M444.082,220.126a13.217,13.217,0,0,1-1.3-9.31c1.95-8.641,6.893-21.081,6.893-21.081a10.944,10.944,0,0,0-6.569-13.21l-6.166-2.389c-1.468-.568-4.461-1.986-4.461-3.562v-7.4H415.208v7.4c0,1.576-3.051,2.993-4.526,3.562l-6.166,2.389a10.944,10.944,0,0,0-6.569,13.21s4.943,12.44,6.893,21.081a13.45,13.45,0,0,1-1.331,9.389c-9.886,18.246-12.929,38.529-12.929,38.529h66.467S456.263,242.078,444.082,220.126Z" transform="translate(-390.58 -163.17)" fill="#004046"/>
              <g id="Grupo_1054479" data-name="Grupo 1054479" transform="translate(0 12.786)" opacity="0.45">
                <path id="Trazado_771917" data-name="Trazado 771917" d="M403.778,203.187a32.106,32.106,0,0,1-.389-6.324c.209-5.209,2.072-9.936,4.5-14.476.259-.482.525-.964.792-1.446l-1.461.568a10.944,10.944,0,0,0-6.569,13.21C400.648,194.711,402.123,198.417,403.778,203.187Z" transform="translate(-393.287 -180.94)" fill="#004046"/>
                <path id="Trazado_771918" data-name="Trazado 771918" d="M460.955,223.6c-5.4,3.166-12.08,8.116-8.339,13.3,2.051,2.842,6.461,3.734,10.663,4.123-.662-1.3-1.36-2.619-2.1-3.957a13.218,13.218,0,0,1-1.3-9.31C460.178,226.442,460.552,225.032,460.955,223.6Z" transform="translate(-407.676 -192.906)" fill="#004046"/>
                <path id="Trazado_771919" data-name="Trazado 771919" d="M408.776,268.31a24.653,24.653,0,0,1-4.857-17.5c.6-6.209,3.31-10.929,6.72-15.584a39.8,39.8,0,0,1-6.49-9.728c.259.957.489,1.892.691,2.792a13.45,13.45,0,0,1-1.331,9.389c-9.886,18.247-12.929,38.529-12.929,38.529h27.154A32.5,32.5,0,0,1,408.776,268.31Z" transform="translate(-390.58 -193.439)" fill="#004046"/>
              </g>
            </g>
          </g>
        </g>
        <g id="Grupo_1054488" data-name="Grupo 1054488" transform="translate(33.888 0.928)">
          <g id="Grupo_1054483" data-name="Grupo 1054483" transform="translate(0 7.36)">
            <path id="Trazado_771920" data-name="Trazado 771920" d="M448.336,174.69s-1.792,4.432-5.655,5.986c-1.828,2.734-3.173,4.749-5,7.49l.432,31.485,19.045.18,2.648-17.455s-9.519-2.468-5.821-24.859Z" transform="translate(-437.68 -174.69)" fill="#f67d68"/>
            <path id="Trazado_771921" data-name="Trazado 771921" d="M444.105,190.421l-1.425-7.411-5,7.49Z" transform="translate(-437.68 -177.024)" fill="#f6ada0"/>
          </g>
          <g id="Grupo_1054487" data-name="Grupo 1054487" transform="translate(11.174)">
            <g id="Grupo_1054484" data-name="Grupo 1054484">
              <line id="Línea_308" data-name="Línea 308" x1="2.216" y2="7.562" transform="translate(0 1.058)" fill="none" stroke="#064260" stroke-linecap="round" stroke-miterlimit="10" stroke-width="0.553"/>
              <circle id="Elipse_4750" data-name="Elipse 4750" cx="1.058" cy="1.058" r="1.058" transform="translate(1.158)" fill="#f67d68"/>
            </g>
            <g id="Grupo_1054485" data-name="Grupo 1054485" transform="translate(9.296 36.495)">
              <line id="Línea_309" data-name="Línea 309" x1="7.864" y1="0.496" transform="translate(0 0.559)" fill="none" stroke="#064260" stroke-linecap="round" stroke-miterlimit="10" stroke-width="0.553"/>
              <path id="Trazado_771922" data-name="Trazado 771922" d="M476.876,217.275a1.059,1.059,0,1,0-1.266-.8A1.061,1.061,0,0,0,476.876,217.275Z" transform="translate(-468.782 -215.183)" fill="#f67d68"/>
            </g>
            <g id="Grupo_1054486" data-name="Grupo 1054486" transform="translate(3.986 2.906)">
              <line id="Línea_310" data-name="Línea 310" x1="3.914" y2="6.835" transform="translate(0 1.058)" fill="none" stroke="#064260" stroke-linecap="round" stroke-miterlimit="10" stroke-width="0.553"/>
              <path id="Trazado_771923" data-name="Trazado 771923" d="M464.806,169.8a1.058,1.058,0,1,0-1.274.784A1.057,1.057,0,0,0,464.806,169.8Z" transform="translate(-459.863 -168.499)" fill="#f79477"/>
            </g>
          </g>
        </g>
      </g>
      <g id="Grupo_1054490" data-name="Grupo 1054490" transform="translate(19.249)">
        <path id="Trazado_771924" data-name="Trazado 771924" d="M599.683,263.187a3.677,3.677,0,1,0-3.677,3.677A3.679,3.679,0,0,0,599.683,263.187Z" transform="translate(-236.455 -105.055)" fill="none" stroke="#34755a" stroke-miterlimit="10" stroke-width="1.105"/>
        <path id="Trazado_771925" data-name="Trazado 771925" d="M130.933,353.917a3.677,3.677,0,1,0-3.677,3.677A3.679,3.679,0,0,0,130.933,353.917Z" transform="translate(-104.97 -130.505)" fill="none" stroke="#34755a" stroke-miterlimit="10" stroke-width="1.105"/>
        <circle id="Elipse_4751" data-name="Elipse 4751" cx="5.555" cy="5.555" r="5.555" transform="translate(366.689 136.712)" fill="#fbf3e8"/>
        <path id="Trazado_771926" data-name="Trazado 771926" d="M244.589,48.8a3.964,3.964,0,1,0-3.964,3.964A3.963,3.963,0,0,0,244.589,48.8Z" transform="translate(-136.689 -44.84)" fill="#fbf3e8"/>
        <circle id="Elipse_4752" data-name="Elipse 4752" cx="6.346" cy="6.346" r="6.346" transform="translate(404.646 260.025) rotate(-9.189)" fill="#fbf3e8"/>
        <circle id="Elipse_4753" data-name="Elipse 4753" cx="7.137" cy="7.137" r="7.137" transform="translate(0 209.129) rotate(-45)" fill="#fbf3e8"/>
      </g>
      <g id="Grupo_1054525" data-name="Grupo 1054525" transform="translate(0 54.241)">
        <g id="Grupo_1054524" data-name="Grupo 1054524">
          <ellipse id="Elipse_4754" data-name="Elipse 4754" cx="49.998" cy="2.878" rx="49.998" ry="2.878" transform="translate(0 237.005)" fill="#004046"/>
          <g id="Grupo_1054493" data-name="Grupo 1054493" transform="translate(81.124 222.018)">
            <path id="Trazado_771927" data-name="Trazado 771927" d="M195.466,438.326l-.18-9.526-9.166.705.23,9.152,4.288,7.44,7.713-5.95Z" transform="translate(-184.386 -428.8)" fill="#d1744f"/>
            <path id="Trazado_771928" data-name="Trazado 771928" d="M194.581,429.05l-7.051,14.987s1.36-2.353-1.41-4.835V429.05Z" transform="translate(-184.386 -428.87)" fill="#945947"/>
            <g id="Grupo_1054491" data-name="Grupo 1054491" transform="translate(0 8.557)">
              <path id="Trazado_771929" data-name="Trazado 771929" d="M196.236,441.007A42.931,42.931,0,0,1,190.7,446.1c-1.856,1.41-4.619-4.6-5.475-5.346-.173-.151-.41-.014-.439.259l-1.079,9.821h27.154a.623.623,0,0,0,.568-.741C209.993,442.792,196.236,441.007,196.236,441.007Z" transform="translate(-183.71 -440.693)" fill="#c6765e"/>
            </g>
            <g id="Grupo_1054492" data-name="Grupo 1054492" transform="translate(0.295 10.922)">
              <path id="Trazado_771930" data-name="Trazado 771930" d="M199.661,450.11s1.058-5.022,4.626-5.95c0,0,5.619,1.849,6.943,6.08H184.12" transform="translate(-184.12 -444.031)" fill="none" stroke="#fff" stroke-miterlimit="10" stroke-width="0.553"/>
              <line id="Línea_311" data-name="Línea 311" x2="5.619" y2="6.145" transform="translate(0.597)" fill="none" stroke="#fff" stroke-miterlimit="10" stroke-width="0.553"/>
            </g>
          </g>
          <g id="Grupo_1054496" data-name="Grupo 1054496" transform="translate(37.428 223.255)">
            <path id="Trazado_771931" data-name="Trazado 771931" d="M135.006,440.039l2.82-9.166-9.872-.353-2.115,9.7,3.655,6.36,7.713-5.95Z" transform="translate(-123.782 -430.52)" fill="#d1744f"/>
            <path id="Trazado_771932" data-name="Trazado 771932" d="M135.367,430.873l-8.109,11.282s.122.367-2.648-2.115l3.173-9.519Z" transform="translate(-123.437 -430.52)" fill="#945947"/>
            <g id="Grupo_1054494" data-name="Grupo 1054494" transform="translate(0 8.521)">
              <path id="Trazado_771933" data-name="Trazado 771933" d="M135.507,442.677a42.933,42.933,0,0,1-5.533,5.094c-1.856,1.41-4.619-4.6-5.475-5.346-.173-.151-.41-.014-.439.259l-1.079,9.821h27.154a.623.623,0,0,0,.568-.741C149.256,444.462,135.507,442.677,135.507,442.677Z" transform="translate(-122.98 -442.363)" fill="#c6765e"/>
            </g>
            <g id="Grupo_1054495" data-name="Grupo 1054495" transform="translate(0.288 10.886)">
              <path id="Trazado_771934" data-name="Trazado 771934" d="M138.921,451.79s1.058-5.022,4.626-5.95c0,0,5.619,1.849,6.943,6.08H123.38" transform="translate(-123.38 -445.703)" fill="none" stroke="#fff" stroke-miterlimit="10" stroke-width="0.553"/>
              <line id="Línea_312" data-name="Línea 312" x2="5.626" y2="6.152" transform="translate(0.597)" fill="none" stroke="#fff" stroke-miterlimit="10" stroke-width="0.553"/>
            </g>
          </g>
          <g id="Grupo_1054497" data-name="Grupo 1054497" transform="translate(55.301 112.992)">
            <path id="Trazado_771935" data-name="Trazado 771935" d="M184.773,277.27s3.49,41.767,3.821,53.308-2.641,56.6-2.641,56.6l-11.67-.036S161.929,307.511,147.82,279.68Z" transform="translate(-147.82 -277.27)" fill="#005158"/>
            <path id="Trazado_771936" data-name="Trazado 771936" d="M188.571,387.416l-1.849-52.89-8.2-30.946" transform="translate(-156.431 -284.65)" fill="none" stroke="#fff" stroke-miterlimit="10" stroke-width="0.446"/>
            <path id="Trazado_771937" data-name="Trazado 771937" d="M182.054,427.306l13.483-.266.8-7.67H180.73Z" transform="translate(-157.051 -317.129)" fill="#004046"/>
          </g>
          <g id="Grupo_1054498" data-name="Grupo 1054498" transform="translate(38.781 112.992)">
            <path id="Trazado_771938" data-name="Trazado 771938" d="M178.873,277.27S170.8,312.087,162.6,336.722c-6.627,19.909-24.182,51.344-24.182,51.344l-11.735-.511,12.469-50.236a48.906,48.906,0,0,0,1.417-9.073c.727-11.57-1.648-34.939-2.648-49.919Z" transform="translate(-125.371 -277.27)" fill="#004046"/>
            <path id="Trazado_771939" data-name="Trazado 771939" d="M135.519,388.715c-.266-.791,16.131-48.4,16.131-54.481s-.266-26.974-.266-26.974" transform="translate(-127.849 -285.682)" fill="none" stroke="#fff" stroke-miterlimit="10" stroke-width="0.446"/>
            <path id="Trazado_771940" data-name="Trazado 771940" d="M124.86,427.511l13.045.612,4.411-7.224-16.4-.8Z" transform="translate(-124.86 -317.334)" fill="#004046"/>
          </g>
          <g id="Grupo_1054510" data-name="Grupo 1054510" transform="translate(41.209 38.344)">
            <path id="Trazado_771941" data-name="Trazado 771941" d="M147.744,175.563s-18.239,1.864-19.391,16.966,6.44,77.742,6.44,77.742l49.717-3.173-4.684-71a22.055,22.055,0,0,0-3.439-10.807c-1.907-2.979-4.137-6.353-5.411-6.511l-20.455-5.26Z" transform="translate(-128.235 -173.52)" fill="#f79477"/>
            <path id="Trazado_771942" data-name="Trazado 771942" d="M143.531,178.61c-12.167,1.849-14.591,7.8-15.167,15.347-1.151,15.1,6.44,77.217,6.44,77.217L184,268.526" transform="translate(-128.238 -174.948)" fill="#c6765e"/>
            <g id="Grupo_1054509" data-name="Grupo 1054509">
              <g id="Grupo_1054508" data-name="Grupo 1054508" clip-path="url(#clip-path)">
                <g id="Grupo_1054500" data-name="Grupo 1054500" transform="translate(23.73 4.456)">
                  <g id="Grupo_1054499" data-name="Grupo 1054499">
                    <path id="Trazado_771943" data-name="Trazado 771943" d="M161.241,180.322a59.261,59.261,0,0,0,7.2,15.93,20.872,20.872,0,0,0,5,5.3,16.912,16.912,0,0,0,7.619,2.7c2.964.453,6.778,1.122,8.051,4.274.237.583,1.2.331.957-.266-2.252-5.562-9.325-4.209-13.829-6.231-4.864-2.187-7.792-7.123-10.023-11.728a72.758,72.758,0,0,1-4.022-10.246c-.187-.6-1.144-.345-.957.266Z" transform="translate(-161.216 -179.713)" fill="#fbf3e8"/>
                  </g>
                </g>
                <g id="Grupo_1054507" data-name="Grupo 1054507" transform="translate(0.66 36.473)">
                  <g id="Grupo_1054502" data-name="Grupo 1054502" transform="translate(0 29.697)">
                    <g id="Grupo_1054501" data-name="Grupo 1054501">
                      <path id="Trazado_771944" data-name="Trazado 771944" d="M129.626,266.813c3.533-.425,7.835-.842,10.958,1.259,3.705,2.5,2.892,7.339,4.281,11.044,1.331,3.547,4.59,5.389,7.879,6.85a53.476,53.476,0,0,1,5.238,2.468,19.884,19.884,0,0,1,4.691,3.792,20.636,20.636,0,0,1,5.389,12.491c.043.633,1.036.64.993,0a21.51,21.51,0,0,0-4.231-11.44,23.234,23.234,0,0,0-9.577-7.289c-3.526-1.554-7.778-3.072-9.354-6.943-1.54-3.785-.684-8.49-4.159-11.346-3.3-2.713-8.152-2.36-12.116-1.878-.619.072-.626,1.065.007.993Z" transform="translate(-129.153 -265.487)" fill="#fbf3e8"/>
                    </g>
                  </g>
                  <g id="Grupo_1054504" data-name="Grupo 1054504" transform="translate(33.483 28.826)">
                    <g id="Grupo_1054503" data-name="Grupo 1054503">
                      <path id="Trazado_771945" data-name="Trazado 771945" d="M194.915,290.987c-5.993-2.288-12.073-5.684-15.793-11.087a17.91,17.91,0,0,1-2.245-4.346,1.592,1.592,0,0,1,.079-1.648,3.783,3.783,0,0,1,.957-.727,16.557,16.557,0,0,1,2.6-1.245,27.953,27.953,0,0,0,4.454-1.971c1.525-.943,2.612-2.417,4.123-3.374a8.926,8.926,0,0,1,10.174.583c.489.4,1.2-.3.705-.705a9.944,9.944,0,0,0-9.418-1.662,12.942,12.942,0,0,0-4.526,3.1,16.258,16.258,0,0,1-5.36,2.914c-1.511.583-3.619,1.245-4.6,2.626s.194,3.389.856,4.691a23.762,23.762,0,0,0,6.864,7.95,42.641,42.641,0,0,0,10.872,5.85c.59.237.849-.727.259-.95Z" transform="translate(-175.689 -264.277)" fill="#fbf3e8"/>
                    </g>
                  </g>
                  <g id="Grupo_1054506" data-name="Grupo 1054506" transform="translate(1.514)">
                    <g id="Grupo_1054505" data-name="Grupo 1054505">
                      <path id="Trazado_771946" data-name="Trazado 771946" d="M182.344,224.218a13.277,13.277,0,0,0-10.886,8.857c-1.784,5.288-.468,11.08-2.238,16.369a10.821,10.821,0,0,1-10.7,7.245,10.226,10.226,0,0,1-6.116-2.072c-2.036-1.6-3.288-3.986-5.367-5.555-2.13-1.6-4.806-1.8-7.382-1.907-2.633-.108-5.612-.079-7.555-2.137-.439-.468-1.144.237-.705.705,3.454,3.655,9.066,1.576,13.332,3.18,2.626.986,4.065,3.54,5.936,5.454a10.8,10.8,0,0,0,5.555,3.058,12.5,12.5,0,0,0,11.649-3.59c3.655-4.065,3.216-9.951,3.59-15.023.237-3.259.871-6.547,2.979-9.152a12.312,12.312,0,0,1,7.922-4.447c.612-.072.619-1.072-.014-.986Z" transform="translate(-131.257 -224.213)" fill="#fbf3e8"/>
                    </g>
                  </g>
                </g>
              </g>
            </g>
          </g>
          <g id="Grupo_1054511" data-name="Grupo 1054511" transform="translate(61.129 25.033)">
            <path id="Trazado_771948" data-name="Trazado 771948" d="M161.252,156.721l-5.331,14.217,3.964,1.986c6.08,2.245,11.584.827,12.44-1.691h0l-.82-8.483-8.533-7.72A8.44,8.44,0,0,0,161.5,156.3,2.141,2.141,0,0,1,161.252,156.721Z" transform="translate(-155.92 -155.023)" fill="#d1744f"/>
            <path id="Trazado_771949" data-name="Trazado 771949" d="M165.341,155.02l8.533,7.72.281,3.036s-7.137,1.72-9.785-9.656" transform="translate(-158.29 -155.02)" fill="#945947"/>
          </g>
          <g id="Grupo_1054521" data-name="Grupo 1054521" transform="translate(42.372 43.952)">
            <g id="Grupo_1054512" data-name="Grupo 1054512" transform="translate(47.502 3.696)">
              <path id="Trazado_771950" data-name="Trazado 771950" d="M195.914,231.326l10.167-31.9a6.334,6.334,0,0,1,3.5-3.914l20.815-8.994a.791.791,0,0,1,1.036,1L221.161,218.77a6.361,6.361,0,0,1-3.317,3.785l-20.873,9.756A.787.787,0,0,1,195.914,231.326Z" transform="translate(-195.872 -186.451)" fill="#f67d68"/>
              <path id="Trazado_771951" data-name="Trazado 771951" d="M198.344,233.926l9.267-31.341a8.893,8.893,0,0,1,4.4-4.475l20.815-8.994a.791.791,0,0,1,1.036,1L223.591,221.37a6.349,6.349,0,0,1-3.324,3.785l-20.873,9.756A.785.785,0,0,1,198.344,233.926Z" transform="translate(-196.553 -187.181)" fill="#6fd9c0"/>
              <path id="Trazado_771952" data-name="Trazado 771952" d="M204.4,220.5l8.073,1.166-9.684,3.921Z" transform="translate(-197.812 -196.002)" fill="#020f2b" stroke="#1d254a" stroke-miterlimit="10" stroke-width="0"/>
              <path id="Trazado_771953" data-name="Trazado 771953" d="M206.272,237.437l18.254-8.807-1.259,4.036L204.66,241.84Z" transform="translate(-198.337 -198.282)" fill="#fbf3e8"/>
            </g>
            <path id="Trazado_771954" data-name="Trazado 771954" d="M188.076,229.532c-1.122,1.007-13.361,16.584-24.067,24.729-2.95,2.245-7.95-.662-9.785-3.835L137.61,223.682l16.124-12.512c.115.18,6.763,17.549,10.541,23.254,1.353,2.043.727,1.835,2.648.662l14.548-11.375a12.183,12.183,0,0,0,1.425-2.461c.619-1.849,3.569-4.331,3.569-4.331l-1.281,3.921c-.23.662.2.712,1.3-.036l7.36-4.936s1.734-.741.928.18-3.6,3.533-3.705,3.612c-1.828,1.482,4.8-3.382,4.914-2.691s-3.633,3.907-3.547,3.972,4.188-2.892,4.317-2.245-3.482,3.4-3.612,3.439c-.252.086,2.864-2.418,2.95-2.072S188.716,228.949,188.076,229.532Z" transform="translate(-132.027 -189.689)" fill="#d1744f"/>
            <path id="Trazado_771955" data-name="Trazado 771955" d="M158.624,223.063c-2.6-5.993-4.835-11.785-4.9-11.893L137.6,223.682l10.548,16.98C151.53,234.719,154.962,228.819,158.624,223.063Z" transform="translate(-132.025 -189.689)" fill="#945947"/>
            <path id="Trazado_771956" data-name="Trazado 771956" d="M168.436,264.964c-1.835-.748-6.058-1.259-7.116,1.05,2.1,2.878,6.6,5.231,9.332,3.151.417-.317.835-.648,1.252-.978A6.408,6.408,0,0,0,168.436,264.964Z" transform="translate(-138.678 -204.601)" fill="#945947"/>
            <path id="Trazado_771957" data-name="Trazado 771957" d="M147.284,190.118s-4.59-12.9-13.455-7.468-.856,45.242,4.065,50.667L162.753,214.8Z" transform="translate(-129.851 -181.315)" fill="#f79477"/>
            <g id="Grupo_1054520" data-name="Grupo 1054520">
              <g id="Grupo_1054519" data-name="Grupo 1054519" clip-path="url(#clip-path-2)">
                <g id="Grupo_1054514" data-name="Grupo 1054514" transform="translate(-4.515 -0.519)">
                  <g id="Grupo_1054513" data-name="Grupo 1054513">
                    <path id="Trazado_771958" data-name="Trazado 771958" d="M140.185,181.2c1.907,6.137,2.691,12.786,1.137,19.088a22.546,22.546,0,0,1-8.958,13.289,17.611,17.611,0,0,1-8.31,3.065c-.633.058-.64,1.05,0,.993a20.086,20.086,0,0,0,13.85-7.958,26.874,26.874,0,0,0,5.216-17.34,42.006,42.006,0,0,0-1.986-11.39.491.491,0,0,0-.95.252Z" transform="translate(-123.576 -180.593)" fill="#fbf3e8"/>
                  </g>
                </g>
                <g id="Grupo_1054516" data-name="Grupo 1054516" transform="translate(15.566 16.817)">
                  <g id="Grupo_1054515" data-name="Grupo 1054515">
                    <path id="Trazado_771959" data-name="Trazado 771959" d="M157.022,204.8a17.131,17.131,0,0,0-2.835,2.849,7.99,7.99,0,0,0-1.82,3.3c-.338,2.015,1.489,3.245,2.677,4.547,2.31,2.54-.072,5.123-1.705,7.238a8.267,8.267,0,0,0,1.72,12c.532.36,1.029-.5.5-.856a7.363,7.363,0,0,1-3.036-6.871c.367-3.216,3.41-4.9,4.31-7.871a4.147,4.147,0,0,0-.453-3.562,27.084,27.084,0,0,0-2.266-2.453,2.772,2.772,0,0,1-.777-1.54,3.986,3.986,0,0,1,.971-2.4,16.379,16.379,0,0,1,3.432-3.684c.482-.4-.23-1.1-.72-.705Z" transform="translate(-151.486 -204.688)" fill="#fbf3e8"/>
                  </g>
                </g>
                <g id="Grupo_1054518" data-name="Grupo 1054518" transform="translate(3.501 41.171)">
                  <g id="Grupo_1054517" data-name="Grupo 1054517">
                    <path id="Trazado_771960" data-name="Trazado 771960" d="M135.554,240.532a3.156,3.156,0,0,1,2.7-1.014,3.36,3.36,0,0,1,2.223,1.367c1.166,1.5,1.59,3.446,2.583,5.051.338.547,1.194.043.856-.5-1.115-1.813-1.547-4.072-3.065-5.626a4.141,4.141,0,0,0-6,.036c-.425.461.273,1.158.705.691Z" transform="translate(-134.717 -238.536)" fill="#fbf3e8"/>
                  </g>
                </g>
              </g>
            </g>
          </g>
          <g id="Grupo_1054523" data-name="Grupo 1054523" transform="translate(61.383)">
            <path id="Trazado_771962" data-name="Trazado 771962" d="M179.158,131.554c2.158-3.036-.094-3.641.446-4.957a6.085,6.085,0,0,0,.554-2.705,2.932,2.932,0,0,0-1.3-2.338,3,3,0,0,0-2.864.086,6.937,6.937,0,0,0-2.151,2.043c-.4-1.41-.5-2.892-2.482-3.353-3.662-.684-3.921,2.245-4.634,3.195-.532-2.554-2.734-2.82-4.331-2.374a4.137,4.137,0,0,0-2.914,2.5c-.446,1.281-2.677-1.23-3.2,3.792-.129,1.238,2.648,4.231,2.648,4.231s.532,6.216.662,11.5c.014.691,2.777,1.187,2.777,1.187a141.869,141.869,0,0,1,13.491-10.447A15.445,15.445,0,0,0,179.158,131.554Z" transform="translate(-156.274 -120.228)" fill="#0d294d"/>
            <path id="Trazado_771963" data-name="Trazado 771963" d="M163.285,146.631a.388.388,0,0,1-.64.151c-.7-.684-2.079-1.619-2.576,1.1-.676,3.684,3.173,3.051,3.482,3.547.619,1.007,2.619,4.389,5.591,5.7a5.883,5.883,0,0,0,6.475-.971c1.979-1.9,3.072.338,2.238-19.973a1.938,1.938,0,0,1-2.418,1.259c-1.353-.273-2.418-1.41-3.9-1.82-1.209-.338-4.518-1.173-5.95,3.022C164.933,140.573,163.89,145.034,163.285,146.631Z" transform="translate(-157.316 -124.462)" fill="#d1744f"/>
            <g id="Grupo_1054522" data-name="Grupo 1054522" transform="translate(3.336 15.944)">
              <path id="Trazado_771964" data-name="Trazado 771964" d="M182.838,155.53a8.306,8.306,0,0,1-4.108.317s1.568,2.123,2.72,1.712S182.838,155.53,182.838,155.53Z" transform="translate(-165.909 -146.074)" fill="#fff"/>
              <path id="Trazado_771965" data-name="Trazado 771965" d="M160.91,152.124l2.029,1.533S162.184,149.951,160.91,152.124Z" transform="translate(-160.91 -144.927)" fill="#945947"/>
              <path id="Trazado_771966" data-name="Trazado 771966" d="M180.821,149.226c0,.446-.173.806-.4.806s-.4-.36-.4-.806.173-.806.4-.806S180.821,148.787,180.821,149.226Z" transform="translate(-166.273 -144.079)" fill="#020f2b"/>
              <ellipse id="Elipse_4755" data-name="Elipse 4755" cx="0.396" cy="0.806" rx="0.396" ry="0.806" transform="translate(16.311 3.952)" fill="#020f2b"/>
              <path id="Trazado_771967" data-name="Trazado 771967" d="M176.468,144.073c-.583.4.331-1.432,1.122-1.633a1.379,1.379,0,0,1,1.741.892A4.284,4.284,0,0,0,176.468,144.073Z" transform="translate(-165.222 -142.387)" fill="#020f2b"/>
              <path id="Trazado_771968" data-name="Trazado 771968" d="M184.292,144.028a4.336,4.336,0,0,0-1.432.036,1.444,1.444,0,0,1,1.446-1.144" transform="translate(-167.067 -142.537)" fill="#020f2b"/>
              <path id="Trazado_771969" data-name="Trazado 771969" d="M182.864,148.939l1.194,3.4a.089.089,0,0,1-.072.122l-1.41.108c-.05.007-.086-.043-.086-.094l.216-3.511A.082.082,0,0,1,182.864,148.939Z" transform="translate(-166.963 -144.21)" fill="#945947"/>
            </g>
          </g>
        </g>
      </g>
    </g>
  </g>
</svg>
