<svg xmlns="http://www.w3.org/2000/svg" width="323.379" height="282.951" viewBox="0 0 323.379 282.951">
  <g id="Grupo_56061" data-name="Grupo 56061" transform="translate(-958.621 -1337)">
    <g id="Grupo_56006" data-name="Grupo 56006" transform="translate(840.4 1087.126)">
      <path id="Trazado_100521" data-name="Trazado 100521" d="M216.19,462.193c150.1,9.648,199.081-197.139,69.69-191.911C179.741,274.574,66.092,452.545,216.19,462.193Z" transform="translate(35.011 27.717)" fill="#f7f1d7"/>
      <g id="Grupo_55953" data-name="Grupo 55953" transform="translate(118.221 288.669)">
        <g id="Grupo_53771" data-name="Grupo 53771" transform="translate(0 142.127)">
          <path id="Trazado_100522" data-name="Trazado 100522" d="M178.445,346.507s-16.179,10.736-32.808,7.4-27.416-19.48-27.416-19.48,16.179-10.736,32.808-7.4S178.445,346.507,178.445,346.507Z" transform="translate(-118.221 -326.384)" fill="#8f8b66"/>
          <path id="Trazado_100523" data-name="Trazado 100523" d="M198.419,358.684a108.649,108.649,0,0,0-26.056-16.21,140.485,140.485,0,0,0-49.85-11.455l-.028,0a.741.741,0,1,1,.08-1.48,139.943,139.943,0,0,1,50.408,11.578,110.152,110.152,0,0,1,26.447,16.463.759.759,0,0,1,.227.409.749.749,0,0,1-1.227.7Z" transform="translate(-113.361 -322.083)" fill="#b3ae7f"/>
          <path id="Trazado_100524" data-name="Trazado 100524" d="M137.166,336.126l-9.993-7.262-.019-.012a.742.742,0,1,1,.889-1.187l9.993,7.259a.742.742,0,0,1-.87,1.2Z" transform="translate(-106.435 -324.839)" fill="#b3ae7f"/>
          <path id="Trazado_100525" data-name="Trazado 100525" d="M130.775,340.546a.742.742,0,0,1-.518-1.367l12.429-7.394.038-.024a.742.742,0,1,1,.719,1.3l-12.426,7.4a.8.8,0,0,1-.241.09Z" transform="translate(-102.288 -319.174)" fill="#b3ae7f"/>
          <path id="Trazado_100526" data-name="Trazado 100526" d="M143.987,339.107l-7-8.4a.743.743,0,0,1,1.14-.951l7,8.406a.742.742,0,0,1-.43,1.206A.738.738,0,0,1,143.987,339.107Z" transform="translate(-92.827 -322.122)" fill="#b3ae7f"/>
        </g>
        <g id="Grupo_53793" data-name="Grupo 53793" transform="translate(10.019 101.897)">
          <path id="Trazado_100527" data-name="Trazado 100527" d="M122.458,312.272s6.921-1.878,9.262-.87,7.735,8.458,7.735,8.458-9.043,1.045-11.388.038S122.458,312.272,122.458,312.272Z" transform="translate(-122.458 -307.005)" fill="#7d6871"/>
          <g id="Grupo_53773" data-name="Grupo 53773" transform="translate(13.067 11.135)">
            <g id="Grupo_53772" data-name="Grupo 53772">
              <path id="Trazado_100528" data-name="Trazado 100528" d="M127.984,314.775l.14-.7c.485.095,49.864,15.6,63.156,65.727l-.686.182C177.4,330.247,128.464,314.87,127.984,314.775Z" transform="translate(-127.984 -314.08)" fill="#54464c"/>
            </g>
          </g>
          <g id="Grupo_53776" data-name="Grupo 53776" transform="translate(7.366 18.629)">
            <path id="Trazado_100529" data-name="Trazado 100529" d="M125.573,325s3.632-6.169,6.016-7.089,11.447.648,11.447.648-5.739,7.066-8.125,7.983S125.573,325,125.573,325Z" transform="translate(-125.573 -316.736)" fill="#7d6871"/>
            <g id="Grupo_53775" data-name="Grupo 53775" transform="translate(5.358)">
              <g id="Grupo_53774" data-name="Grupo 53774">
                <path id="Trazado_100530" data-name="Trazado 100530" d="M127.839,322.56c4.223-2,16.29-5.176,16.8-5.311l.18.686c-.125.033-12.514,3.294-16.678,5.266Z" transform="translate(-127.839 -317.249)" fill="#54464c"/>
              </g>
            </g>
          </g>
          <g id="Grupo_53779" data-name="Grupo 53779" transform="translate(22.067 28.617)">
            <path id="Trazado_100531" data-name="Trazado 100531" d="M131.79,329.227s3.635-6.174,6.018-7.089,11.445.648,11.445.648-5.737,7.066-8.123,7.983S131.79,329.227,131.79,329.227Z" transform="translate(-131.79 -320.96)" fill="#7d6871"/>
            <g id="Grupo_53778" data-name="Grupo 53778" transform="translate(5.358)">
              <g id="Grupo_53777" data-name="Grupo 53777">
                <path id="Trazado_100532" data-name="Trazado 100532" d="M134.056,326.784c4.226-2,16.293-5.179,16.8-5.311l.18.686c-.125.033-12.514,3.294-16.681,5.264Z" transform="translate(-134.056 -321.473)" fill="#54464c"/>
              </g>
            </g>
          </g>
          <g id="Grupo_53782" data-name="Grupo 53782" transform="translate(34.137 40.545)">
            <path id="Trazado_100533" data-name="Trazado 100533" d="M136.894,334.271s3.632-6.172,6.016-7.089,11.447.648,11.447.648-5.737,7.063-8.125,7.983S136.894,334.271,136.894,334.271Z" transform="translate(-136.894 -326.004)" fill="#7d6871"/>
            <g id="Grupo_53781" data-name="Grupo 53781" transform="translate(5.358)">
              <g id="Grupo_53780" data-name="Grupo 53780">
                <path id="Trazado_100534" data-name="Trazado 100534" d="M139.16,331.828c4.223-2,16.29-5.176,16.8-5.311l.18.686c-.125.033-12.514,3.294-16.678,5.266Z" transform="translate(-139.16 -326.517)" fill="#54464c"/>
              </g>
            </g>
          </g>
          <g id="Grupo_53785" data-name="Grupo 53785" transform="translate(43.245 52.517)">
            <path id="Trazado_100535" data-name="Trazado 100535" d="M140.746,339.336s3.635-6.172,6.016-7.089,11.447.648,11.447.648-5.739,7.063-8.125,7.983S140.746,339.336,140.746,339.336Z" transform="translate(-140.746 -331.064)" fill="#7d6871"/>
            <g id="Grupo_53784" data-name="Grupo 53784" transform="translate(5.358)">
              <g id="Grupo_53783" data-name="Grupo 53783">
                <path id="Trazado_100536" data-name="Trazado 100536" d="M143.012,336.889c4.223-2,16.29-5.174,16.8-5.309l.18.686c-.125.033-12.514,3.294-16.678,5.266Z" transform="translate(-143.012 -331.58)" fill="#54464c"/>
              </g>
            </g>
          </g>
          <g id="Grupo_53789" data-name="Grupo 53789" transform="translate(28.207)">
            <g id="Grupo_53787" data-name="Grupo 53787">
              <g id="Grupo_53786" data-name="Grupo 53786">
                <path id="Trazado_100537" data-name="Trazado 100537" d="M137.015,309.371s5.741,4.278,6.4,6.744-1.87,11.31-1.87,11.31-6.411-6.465-7.066-8.934S137.015,309.371,137.015,309.371Z" transform="translate(-134.386 -309.371)" fill="#7d6871"/>
              </g>
            </g>
            <g id="Grupo_53788" data-name="Grupo 53788" transform="translate(4.317 5.647)">
              <path id="Trazado_100538" data-name="Trazado 100538" d="M136.212,311.993l.669-.234c1.535,4.415,3.4,16.751,3.479,17.274l-.7.106C139.638,329.012,137.725,316.344,136.212,311.993Z" transform="translate(-136.212 -311.759)" fill="#54464c"/>
            </g>
          </g>
          <g id="Grupo_53792" data-name="Grupo 53792" transform="translate(46.457 12.159)">
            <path id="Trazado_100539" data-name="Trazado 100539" d="M146.27,314.513s4.864,5.254,5.063,7.8-3.909,10.778-3.909,10.778-5.122-7.527-5.313-10.074S146.27,314.513,146.27,314.513Z" transform="translate(-142.104 -314.513)" fill="#7d6871"/>
            <g id="Grupo_53791" data-name="Grupo 53791" transform="translate(4.757 5.985)">
              <g id="Grupo_53790" data-name="Grupo 53790">
                <path id="Trazado_100540" data-name="Trazado 100540" d="M144.371,334.637c0-.128.437-12.932-.255-17.487l.7-.106c.7,4.618.281,17.09.265,17.619Z" transform="translate(-144.116 -317.044)" fill="#54464c"/>
              </g>
            </g>
          </g>
        </g>
        <g id="Grupo_53821" data-name="Grupo 53821" transform="translate(105.484 142.288)">
          <g id="Grupo_53820" data-name="Grupo 53820">
            <g id="Grupo_53806" data-name="Grupo 53806" transform="translate(40.435 7.117)">
              <g id="Grupo_53803" data-name="Grupo 53803" transform="translate(24.21 14.19)">
                <path id="Trazado_100548" data-name="Trazado 100548" d="M191.182,337.264c-.31-.456-.631-.913-.96-1.355h0a.279.279,0,1,1,.447-.333c.336.447.662.913.977,1.376a.279.279,0,1,1-.464.312Z" transform="translate(-190.167 -335.462)" fill="#b5ac84"/>
              </g>
              <g id="Grupo_53804" data-name="Grupo 53804" transform="translate(4.604 0.9)">
                <path id="Trazado_100549" data-name="Trazado 100549" d="M199.655,341.252c-.657-.745-1.355-1.471-2.074-2.159l-.024-.024a.28.28,0,0,1,.411-.381c.724.7,1.433,1.44,2.1,2.2a.278.278,0,0,1-.208.464A.275.275,0,0,1,199.655,341.252Zm-4.148-4.074a.28.28,0,0,1-.175-.064c-.773-.624-1.582-1.225-2.4-1.783h0a.278.278,0,1,1,.312-.461c.832.572,1.655,1.178,2.44,1.814a.279.279,0,0,1-.175.5Zm-4.987-3.386a.28.28,0,0,1-.137-.033c-.868-.487-1.764-.944-2.667-1.355a.28.28,0,0,1,.229-.508c.918.423,1.83.882,2.71,1.376a.28.28,0,0,1,.144.246.278.278,0,0,1-.279.277Zm-5.486-2.5a.25.25,0,0,1-.092-.012c-.936-.336-1.9-.634-2.859-.887a.279.279,0,1,1,.144-.539c.974.258,1.949.56,2.9.9a.279.279,0,0,1-.1.541Z" transform="translate(-181.875 -329.842)" fill="#b5ac84"/>
              </g>
              <g id="Grupo_53805" data-name="Grupo 53805">
                <path id="Trazado_100550" data-name="Trazado 100550" d="M181.81,330.267c-.544-.1-1.1-.18-1.646-.248a.28.28,0,0,1,.071-.556c.558.073,1.121.158,1.672.253a.279.279,0,0,1-.047.553A.179.179,0,0,1,181.81,330.267Z" transform="translate(-179.928 -329.461)" fill="#b5ac84"/>
              </g>
            </g>
            <g id="Grupo_53810" data-name="Grupo 53810" transform="translate(0 7.761)">
              <g id="Grupo_53807" data-name="Grupo 53807" transform="translate(26.063)">
                <path id="Trazado_100551" data-name="Trazado 100551" d="M174.128,330.713a.284.284,0,0,1-.265-.2.277.277,0,0,1,.189-.348c.541-.154,1.09-.3,1.634-.423a.28.28,0,0,1,.336.208.277.277,0,0,1-.208.336c-.537.13-1.076.265-1.61.416a.388.388,0,0,1-.076.012Z" transform="translate(-173.851 -329.734)" fill="#b5ac84"/>
              </g>
              <g id="Grupo_53808" data-name="Grupo 53808" transform="translate(0 1.498)">
                <path id="Trazado_100552" data-name="Trazado 100552" d="M198.458,400.2c-1.142-.014-2.294-.083-3.424-.206a.279.279,0,0,1,.059-.556c1.114.121,2.249.189,3.374.2h0a.279.279,0,1,1,0,.558Zm3.415-.111a.28.28,0,0,1-.291-.267.283.283,0,0,1,.27-.291c1.121-.09,2.249-.239,3.353-.428l.035-.007a.279.279,0,1,1,.059.556c-1.121.2-2.265.341-3.405.437h-.021ZM191.7,399.47a.236.236,0,0,1-.057-.007c-1.116-.229-2.237-.516-3.327-.851h0a.28.28,0,1,1,.165-.534c1.071.331,2.173.612,3.273.839a.279.279,0,0,1-.054.553Zm16.87-.565a.28.28,0,0,1-.27-.208.277.277,0,0,1,.2-.341c1.081-.3,2.159-.657,3.209-1.059a.279.279,0,1,1,.2.52c-1.064.407-2.161.771-3.261,1.076a.266.266,0,0,1-.076.009ZM185.2,397.467a.324.324,0,0,1-.106-.017c-1.052-.44-2.1-.934-3.1-1.471a.279.279,0,0,1,.263-.492c.993.527,2.022,1.014,3.058,1.445a.282.282,0,0,1,.17.258.28.28,0,0,1-.279.279Zm29.731-1a.279.279,0,0,1-.125-.53c1-.5,2-1.055,2.949-1.648a.281.281,0,1,1,.3.478c-.97.6-1.979,1.166-3,1.674a.276.276,0,0,1-.123.028Zm-35.735-2.2a.275.275,0,0,1-.156-.04c-.951-.629-1.882-1.312-2.769-2.029a.28.28,0,0,1,.35-.435c.875.707,1.792,1.379,2.729,2a.281.281,0,0,1-.156.513Zm41.51-1.4a.279.279,0,0,1-.17-.5c.891-.681,1.762-1.412,2.587-2.176a.279.279,0,1,1,.381.409c-.837.778-1.721,1.521-2.627,2.211a.274.274,0,0,1-.17.057Zm-47-2.956c-.813-.795-1.6-1.643-2.339-2.514l-.014-.019a.279.279,0,1,1,.442-.341c.726.856,1.5,1.688,2.3,2.473a.283.283,0,0,1-.2.48A.293.293,0,0,1,173.7,389.907ZM225.7,388.24a.276.276,0,0,1-.184-.071.28.28,0,0,1-.024-.395c.75-.84,1.464-1.722,2.133-2.625a.28.28,0,0,1,.449.331c-.676.918-1.4,1.814-2.166,2.665a.278.278,0,0,1-.208.095Zm-56.2-3.45a.273.273,0,0,1-.227-.121c-.653-.936-1.265-1.915-1.826-2.909a.281.281,0,0,1,.1-.362.278.278,0,0,1,.385.087c.553.979,1.156,1.941,1.795,2.864a.267.267,0,0,1,.052.161.278.278,0,0,1-.279.279Zm60.236-2.029a.3.3,0,0,1-.142-.038.281.281,0,0,1-.1-.385c.577-.962,1.116-1.965,1.6-2.977h0a.279.279,0,1,1,.5.239c-.489,1.029-1.036,2.048-1.622,3.024a.282.282,0,0,1-.241.137Zm-63.572-3.9a.28.28,0,0,1-.253-.165c-.463-1.043-.882-2.121-1.242-3.2h0a.28.28,0,0,1,.532-.177c.352,1.064.764,2.124,1.218,3.15a.282.282,0,0,1-.255.395Zm66.5-2.239a.271.271,0,0,1-.1-.019h0a.278.278,0,0,1-.168-.357c.385-1.055.724-2.142,1-3.228h0a.28.28,0,1,1,.542.139c-.286,1.1-.629,2.206-1.017,3.28a.282.282,0,0,1-.262.182ZM164.014,372.4a.278.278,0,0,1-.272-.218c-.253-1.111-.459-2.246-.605-3.379a.279.279,0,0,1,.553-.071c.147,1.114.348,2.232.6,3.327a.28.28,0,0,1-.21.333.3.3,0,0,1-.064.007Zm70.357-2.369-.038,0a.282.282,0,0,1-.232-.322c.175-1.107.3-2.237.371-3.358l0-.031a.279.279,0,0,1,.31-.246.283.283,0,0,1,.246.312c-.076,1.14-.2,2.287-.383,3.412a.277.277,0,0,1-.274.234Zm-71.239-4.377a.278.278,0,0,1-.279-.27c-.014-.433-.024-.875-.024-1.31,0-.707.021-1.421.061-2.124a.28.28,0,0,1,.558.033c-.04.693-.059,1.4-.059,2.09q0,.649.021,1.291a.278.278,0,0,1-.27.286h-.009Zm.395-6.8a.288.288,0,0,1-.045,0h0a.278.278,0,0,1-.232-.317c.173-1.128.4-2.261.683-3.365a.279.279,0,1,1,.541.135c-.272,1.088-.5,2.2-.669,3.313a.278.278,0,0,1-.277.237Zm1.672-6.6a.321.321,0,0,1-.095-.019.279.279,0,0,1-.168-.357c.383-1.071.825-2.14,1.31-3.171l.007-.019a.28.28,0,0,1,.5.255c-.478,1.017-.908,2.067-1.291,3.124a.278.278,0,0,1-.262.184Zm2.894-6.16a.286.286,0,0,1-.144-.038.28.28,0,0,1-.095-.383c.579-.979,1.22-1.944,1.887-2.866l0,0a.279.279,0,1,1,.449.331c-.662.908-1.286,1.859-1.859,2.823a.279.279,0,0,1-.241.137Zm4.011-5.5a.273.273,0,0,1-.182-.069.28.28,0,0,1-.026-.395c.754-.854,1.561-1.684,2.393-2.462a.28.28,0,0,1,.383.407c-.821.769-1.615,1.584-2.358,2.424a.281.281,0,0,1-.21.1Zm4.971-4.649a.287.287,0,0,1-.225-.109.282.282,0,0,1,.054-.393c.9-.7,1.849-1.36,2.814-1.967a.279.279,0,0,1,.3.473c-.948.6-1.88,1.251-2.769,1.937a.281.281,0,0,1-.17.059Zm5.76-3.63a.277.277,0,0,1-.125-.527c1.019-.516,2.074-.986,3.138-1.4l.028-.012a.28.28,0,0,1,.175.532c-1.048.409-2.086.873-3.088,1.379a.3.3,0,0,1-.128.028Z" transform="translate(-162.829 -330.367)" fill="#b5ac84"/>
              </g>
              <g id="Grupo_53809" data-name="Grupo 53809" transform="translate(71.598 32.102)">
                <path id="Trazado_100553" data-name="Trazado 100553" d="M193.2,345.254c-.021-.551-.052-1.111-.095-1.66a.279.279,0,0,1,.556-.045c.047.558.078,1.126.1,1.686a.281.281,0,0,1-.272.286h-.009A.278.278,0,0,1,193.2,345.254Z" transform="translate(-193.107 -343.31)" fill="#b5ac84"/>
              </g>
            </g>
            <g id="Grupo_53814" data-name="Grupo 53814" transform="translate(40.435 7.117)">
              <g id="Grupo_53811" data-name="Grupo 53811" transform="translate(24.21 14.19)">
                <path id="Trazado_100554" data-name="Trazado 100554" d="M191.182,337.264c-.31-.456-.631-.913-.96-1.355h0a.279.279,0,1,1,.447-.333c.336.447.662.913.977,1.376a.279.279,0,1,1-.464.312Z" transform="translate(-190.167 -335.462)" fill="#b5ac84"/>
              </g>
              <g id="Grupo_53812" data-name="Grupo 53812" transform="translate(4.604 0.9)">
                <path id="Trazado_100555" data-name="Trazado 100555" d="M199.655,341.252c-.657-.745-1.355-1.471-2.074-2.159l-.024-.024a.28.28,0,0,1,.411-.381c.724.7,1.433,1.44,2.1,2.2a.278.278,0,0,1-.208.464A.275.275,0,0,1,199.655,341.252Zm-4.148-4.074a.28.28,0,0,1-.175-.064c-.773-.624-1.582-1.225-2.4-1.783h0a.278.278,0,1,1,.312-.461c.832.572,1.655,1.178,2.44,1.814a.279.279,0,0,1-.175.5Zm-4.987-3.386a.28.28,0,0,1-.137-.033c-.868-.487-1.764-.944-2.667-1.355a.28.28,0,0,1,.229-.508c.918.423,1.83.882,2.71,1.376a.28.28,0,0,1,.144.246.278.278,0,0,1-.279.277Zm-5.486-2.5a.25.25,0,0,1-.092-.012c-.936-.336-1.9-.634-2.859-.887a.279.279,0,1,1,.144-.539c.974.258,1.949.56,2.9.9a.279.279,0,0,1-.1.541Z" transform="translate(-181.875 -329.842)" fill="#b5ac84"/>
              </g>
              <g id="Grupo_53813" data-name="Grupo 53813">
                <path id="Trazado_100556" data-name="Trazado 100556" d="M181.81,330.267c-.544-.1-1.1-.18-1.646-.248a.28.28,0,0,1,.071-.556c.558.073,1.121.158,1.672.253a.279.279,0,0,1-.047.553A.179.179,0,0,1,181.81,330.267Z" transform="translate(-179.928 -329.461)" fill="#b5ac84"/>
              </g>
            </g>
            <g id="Grupo_53815" data-name="Grupo 53815" transform="translate(28.088)">
              <path id="Trazado_100557" data-name="Trazado 100557" d="M179.141,334.884l-4.434-3.221h5.479l1.693-5.212,1.693,5.212h5.479l-4.434,3.221,1.7,5.212-4.434-3.221-4.434,3.221Zm6.108,3.746-1.286-3.961,3.37-2.45h-4.167l-1.286-3.961-1.289,3.961h-4.167l3.372,2.45-1.289,3.961,3.372-2.448Z" transform="translate(-174.707 -326.452)" fill="#b5ac84"/>
            </g>
            <g id="Grupo_53819" data-name="Grupo 53819" transform="translate(62.106 23.436)">
              <g id="Grupo_53816" data-name="Grupo 53816">
                <path id="Trazado_100558" data-name="Trazado 100558" d="M189.093,344.195h0a7.831,7.831,0,1,1,7.832,7.829A7.832,7.832,0,0,1,189.093,344.195Zm.823,0a7.009,7.009,0,1,0,7.009-7.009A7.009,7.009,0,0,0,189.916,344.19Z" transform="translate(-189.093 -336.363)" fill="#b5ac84"/>
              </g>
              <g id="Grupo_53817" data-name="Grupo 53817" transform="translate(9.435 6.744)">
                <path id="Trazado_100559" data-name="Trazado 100559" d="M193.083,340.3a1.082,1.082,0,1,1,1.081,1.081A1.082,1.082,0,0,1,193.083,340.3Zm.549,0h0a.532.532,0,1,0,.532-.532A.531.531,0,0,0,193.632,340.3Z" transform="translate(-193.083 -339.215)" fill="#b5ac84"/>
              </g>
              <g id="Grupo_53818" data-name="Grupo 53818" transform="translate(4.216 6.744)">
                <path id="Trazado_100560" data-name="Trazado 100560" d="M190.876,340.3v0a1.082,1.082,0,1,1,1.081,1.083A1.082,1.082,0,0,1,190.876,340.3Zm.549,0h0a.532.532,0,1,0,.532-.532A.531.531,0,0,0,191.425,340.3Z" transform="translate(-190.876 -339.215)" fill="#b5ac84"/>
              </g>
            </g>
          </g>
        </g>
        <g id="Grupo_53852" data-name="Grupo 53852" transform="translate(267.357 19.043)">
          <path id="Trazado_100575" data-name="Trazado 100575" d="M255.332,275.163a4.625,4.625,0,0,1,5.29,7.588c-2.071,1.492-11.237,2.275-11.237,2.275s3.762-8.288,5.836-9.78Z" transform="translate(-206.58 -274.333)" fill="#7d6871"/>
          <path id="Trazado_100576" data-name="Trazado 100576" d="M231.531,333.055a.423.423,0,0,1-.208-.563c.137-.3,14.11-29.979,47.1-55.272a.425.425,0,0,1,.518.674c-32.817,25.16-46.712,54.66-46.849,54.955a.422.422,0,0,1-.383.246A.37.37,0,0,1,231.531,333.055Z" transform="translate(-231.283 -270.497)" fill="#54464c"/>
          <g id="Grupo_53850" data-name="Grupo 53850" transform="translate(31.026 18.293)">
            <path id="Trazado_100577" data-name="Trazado 100577" d="M259.7,287.46a4.624,4.624,0,0,1-5.354,3.753c-2.514-.461-9.433-6.52-9.433-6.52s8.581-3.036,11.1-2.577A4.623,4.623,0,0,1,259.7,287.46Z" transform="translate(-243.704 -282.069)" fill="#7d6871"/>
            <path id="Trazado_100578" data-name="Trazado 100578" d="M255.707,285.969c-7.683-1.509-10.934-2.216-10.967-2.223a.425.425,0,1,1,.18-.83c.033,0,3.277.709,10.951,2.216a.426.426,0,0,1-.08.844A.469.469,0,0,1,255.707,285.969Z" transform="translate(-244.404 -280.926)" fill="#54464c"/>
          </g>
          <g id="Grupo_53851" data-name="Grupo 53851" transform="translate(16.012 15.14)">
            <path id="Trazado_100579" data-name="Trazado 100579" d="M238.086,285.9l0-.04a4.624,4.624,0,1,1,9.194-1c.286,2.537-3.516,10.913-3.516,10.913s-5.384-7.34-5.671-9.877Z" transform="translate(-238.054 -280.736)" fill="#7d6871"/>
            <path id="Trazado_100580" data-name="Trazado 100580" d="M240.9,294.137c0-.033-.267-3.344-1.04-11.123a.426.426,0,0,1,.847-.085c.773,7.792,1.04,11.107,1.04,11.14a.426.426,0,0,1-.39.459h-.033A.425.425,0,0,1,240.9,294.137Z" transform="translate(-235.597 -278.245)" fill="#54464c"/>
          </g>
        </g>
        <g id="Grupo_53853" data-name="Grupo 53853" transform="translate(245.537 70.695)">
          <path id="Trazado_100581" data-name="Trazado 100581" d="M274.082,302.963s-5.458,8.385-6.678,10.878-7.659,17.563-12.578,19.913-22.98,2.414-22.98,2.414c2.064-18.752,22.441-40.722,52.522-39.973Z" transform="translate(-208.695 -296.176)" fill="#8f8b66"/>
          <path id="Trazado_100582" data-name="Trazado 100582" d="M270.52,312.387c-4.238,11.353-5.217,30.37-38.674,23.767,0,0,19.324-.865,27.232-9.719s4.453-24.011,25.29-30.251A31.644,31.644,0,0,0,270.52,312.387Z" transform="translate(-208.695 -296.165)" fill="#54464c"/>
          <path id="Trazado_100583" data-name="Trazado 100583" d="M222.2,359.468a.71.71,0,1,0,1.137.849q3.817-5.122,7.149-9.61c8.456-11.384,14.663-19.738,20.045-26.231a.663.663,0,0,0,.066-.014.7.7,0,0,0,.478-.638c1.44-1.721,2.823-3.311,4.176-4.788.019,0,.033.007.052.007l15.515-.844a.8.8,0,0,0,.182-.035.708.708,0,0,0-.26-1.381l-14.105.764a73.014,73.014,0,0,1,17.253-13.623.709.709,0,0,0-.712-1.227,75.919,75.919,0,0,0-9.5,6.46l1.759-7.586h0a.709.709,0,0,0-1.381-.319l-2.09,9.012a.676.676,0,0,0,0,.307A98.466,98.466,0,0,0,250.9,321.853l-.374-3.963a.709.709,0,1,0-1.412.132l.5,5.347c-5.538,6.645-11.826,15.106-20.277,26.487q-3.32,4.473-7.148,9.608Z" transform="translate(-222.056 -290.001)" fill="#b3ae7f"/>
        </g>
        <g id="Grupo_53854" data-name="Grupo 53854" transform="translate(252.786 110.315)">
          <path id="Trazado_100584" data-name="Trazado 100584" d="M232.888,327.254s11.507,7.624,23.328,5.242,19.48-13.862,19.48-13.862-11.507-7.624-23.325-5.243S232.888,327.254,232.888,327.254Z" transform="translate(-214.522 -312.931)" fill="#8f8b66"/>
          <path id="Trazado_100585" data-name="Trazado 100585" d="M225.277,335.742a.329.329,0,0,1-.061-.054.367.367,0,0,1,.028-.518,78.153,78.153,0,0,1,18.75-11.689,100.776,100.776,0,0,1,35.768-8.248.368.368,0,0,1,.026.735A100.039,100.039,0,0,0,244.3,324.15a77.374,77.374,0,0,0-18.558,11.563.367.367,0,0,1-.459.028Z" transform="translate(-225.121 -309.79)" fill="#b3ae7f"/>
          <path id="Trazado_100586" data-name="Trazado 100586" d="M241.623,319.642a.313.313,0,0,1-.085-.083.367.367,0,0,1,.085-.513l7.1-5.167.026-.017a.367.367,0,0,1,.407.61l-7.1,5.169a.366.366,0,0,1-.428,0Z" transform="translate(-202.812 -311.745)" fill="#b3ae7f"/>
          <path id="Trazado_100587" data-name="Trazado 100587" d="M238.756,317.443a.366.366,0,0,1,.4-.612L248,322.082h0a.367.367,0,1,1-.376.631l-8.839-5.252-.026-.019Z" transform="translate(-206.735 -307.689)" fill="#b3ae7f"/>
          <path id="Trazado_100588" data-name="Trazado 100588" d="M235.421,321.856a.368.368,0,0,1-.047-.518l4.975-5.98.024-.028a.367.367,0,1,1,.539.5l-4.973,5.98a.37.37,0,0,1-.5.064Z" transform="translate(-211.246 -309.82)" fill="#b3ae7f"/>
        </g>
        <g id="Grupo_53919" data-name="Grupo 53919" transform="translate(161.44)">
          <g id="Grupo_53918" data-name="Grupo 53918">
            <g id="Grupo_53915" data-name="Grupo 53915">
              <path id="Trazado_100716" data-name="Trazado 100716" d="M192.32,281.043c-4.282-5.741-7.34-12.7-5.042-14.415s8.1,3.19,12.389,8.931,7.338,12.7,5.039,14.415S196.605,286.784,192.32,281.043Zm-4.677-13.93c-1.539,1.149.17,6.872,5.164,13.564s10,9.958,11.537,8.808-.17-6.872-5.164-13.564-10-9.955-11.537-8.808Z" transform="translate(-186.492 -266.28)" fill="#b5ac84"/>
            </g>
            <g id="Grupo_53916" data-name="Grupo 53916" transform="translate(12.061 16.123)">
              <path id="Trazado_100717" data-name="Trazado 100717" d="M192.906,278.662c-1.511-2.024-1.752-4.311-.546-5.212s3.334-.019,4.843,2.005,1.75,4.313.544,5.214S194.415,280.686,192.906,278.662Zm-.184-4.725c-.9.674-.594,2.67.669,4.363s3.093,2.551,3.994,1.88.591-2.67-.672-4.36-3.091-2.556-3.992-1.882Z" transform="translate(-191.593 -273.098)" fill="#b5ac84"/>
            </g>
            <g id="Grupo_53917" data-name="Grupo 53917" transform="translate(0.302 0.305)">
              <path id="Trazado_100718" data-name="Trazado 100718" d="M192.818,271.067a8.371,8.371,0,0,1,2.024-.567c-3.27-3.178-6.238-4.786-7.558-3.8s-.61,4.316,1.53,8.38a8.59,8.59,0,0,1,1.107-1.809,1.82,1.82,0,0,1,2.9-2.2Z" transform="translate(-186.62 -266.409)" fill="#b5ac84"/>
            </g>
          </g>
        </g>
      </g>
      <g id="Grupo_55981" data-name="Grupo 55981" transform="translate(301.011 274.524)">
        <g id="Grupo_55956" data-name="Grupo 55956" transform="translate(54.106 133.659)">
          <g id="Grupo_55954" data-name="Grupo 55954" transform="translate(0.002)">
            <path id="Trazado_105708" data-name="Trazado 105708" d="M241.712,316.821s-.033,3.36-.085,8.889v.017c-.08,8.4.135,21.691.009,35.92,9.463,22.734-3.542,40.77-3.322,61.248.043,1.055.111,2.114.232,3.183.584,5.179,6.311,8.792,10.407,11.206,2.138,1.263,4.453,2.2,5.124,3.391a.554.554,0,0,1-.556.79H232.868c-1.669,0-1.818-.839-2.4-1.674-2.767,0-3.715-.064-4.006-1.8A23.864,23.864,0,0,1,226.41,435c.047-2.384.2-5.6.312-7.86-.035-.965-.111-2.422-.218-4.249-.915-15.588-4.155-55.733-4.155-55.733l-2.935-41.574,0-.017L218.4,317.1Z" transform="translate(-218.403 -316.821)" fill="#e4a999"/>
            <path id="Trazado_105709" data-name="Trazado 105709" d="M221.851,369.781c.289,1.74,1.239,1.8,4.006,1.8a55.557,55.557,0,0,0-4.06-4.786A23.863,23.863,0,0,0,221.851,369.781Z" transform="translate(-213.79 -248.617)" fill="#db877c"/>
            <path id="Trazado_105710" data-name="Trazado 105710" d="M226.058,369.248c1.225,1.5,1.634,1.632,2.334,2.436a2.746,2.746,0,0,1,.747,1.639H230.3c-.471-1.887-2.93-3.649-3.722-4.363a6.41,6.41,0,0,1-1.7-2.206A4.654,4.654,0,0,0,226.058,369.248Z" transform="translate(-209.576 -248.679)" fill="#d26066"/>
            <path id="Trazado_105711" data-name="Trazado 105711" d="M226.534,367.577s.572,1.118,3.1,2.566c1.738.988,1.866,1.513,2.048,2.055h.974a3.065,3.065,0,0,0-1.279-1.788C230.043,369.471,228.007,368.785,226.534,367.577Z" transform="translate(-207.307 -247.555)" fill="#d26066"/>
            <path id="Trazado_105712" data-name="Trazado 105712" d="M227.8,367.507a25.117,25.117,0,0,0,4.292,2.764c1.762.953,1.712,1.48,1.894,2.022h.974a3.066,3.066,0,0,0-1.279-1.788C232.346,369.567,230.728,369.15,227.8,367.507Z" transform="translate(-205.584 -247.65)" fill="#d26066"/>
            <path id="Trazado_105713" data-name="Trazado 105713" d="M229.5,367.608c.882.745,2.147,1.168,4.214,2.476,1.681,1.062,1.58,1.53,1.759,2.072h.977a3.065,3.065,0,0,0-1.279-1.788A35.453,35.453,0,0,0,229.5,367.608Z" transform="translate(-203.262 -247.513)" fill="#d26066"/>
            <path id="Trazado_105714" data-name="Trazado 105714" d="M228.384,369.917l-3.28.066a.4.4,0,0,1-.284-.109,3.633,3.633,0,0,1-.648-.742c-.014-.317.662-.674,1.443-.79a3.224,3.224,0,0,1,1.944.421c.177.13.66.612.951.908A.148.148,0,0,1,228.384,369.917Z" transform="translate(-210.53 -246.542)" fill="#e9bbb1"/>
            <path id="Trazado_105715" data-name="Trazado 105715" d="M229.167,369.563H227.32c-.18,0,.078-.568.719-.634C228.909,368.837,229.347,369.426,229.167,369.563Z" transform="translate(-206.31 -245.722)" fill="#e9bbb1"/>
            <path id="Trazado_105716" data-name="Trazado 105716" d="M231.074,369.563h-1.844c-.18,0,.076-.568.716-.634C230.818,368.837,231.254,369.426,231.074,369.563Z" transform="translate(-203.705 -245.722)" fill="#e9bbb1"/>
            <path id="Trazado_105717" data-name="Trazado 105717" d="M232.724,369.563h-1.847c-.18,0,.076-.568.719-.634C232.466,368.837,232.9,369.426,232.724,369.563Z" transform="translate(-201.456 -245.722)" fill="#e9bbb1"/>
            <path id="Trazado_105718" data-name="Trazado 105718" d="M234.285,369.534h-1.847c-.18,0,.078-.567.719-.634C234.03,368.808,234.465,369.4,234.285,369.534Z" transform="translate(-199.326 -245.762)" fill="#e9bbb1"/>
          </g>
          <g id="Grupo_55955" data-name="Grupo 55955">
            <path id="Trazado_105719" data-name="Trazado 105719" d="M218.4,317.1l1.012,8.473,22.214.14c.052-5.529.085-8.889.085-8.889Z" transform="translate(-218.402 -316.821)" fill="#db877c"/>
            <path id="Trazado_105720" data-name="Trazado 105720" d="M230.584,336.571s-.662,7.569-3.658,7.517c-2.644-.047-5.032-3.478-4.569-7.066S230.591,332.719,230.584,336.571Z" transform="translate(-213.083 -293.39)" fill="#db877c"/>
          </g>
        </g>
        <g id="Grupo_55957" data-name="Grupo 55957" transform="translate(23.435 25.131)">
          <path id="Trazado_105721" data-name="Trazado 105721" d="M260.052,340.2a23.366,23.366,0,0,1-1.769,4.968s-15.432,8.57-28.764,8.853-21.828-9.586-21.828-9.586a27.386,27.386,0,0,1-1.45-4.235,22.777,22.777,0,0,1-.769-7.122,21.084,21.084,0,0,1,1.506-6.378,69.788,69.788,0,0,0,4.647-25.156c.012-4.956.045-9.18.045-10.459a9.1,9.1,0,0,1,4.93-8.165c2.556-1.445,9.218-4.124,9.218-4.124l.3-3.218.395-4.254,13.746-.4.34,4.476.274,3.613s7.056,2.911,9.676,3.989,3.93,3.313,4.006,7.4c.019,1.045.078,5.607.213,11.533a70.2,70.2,0,0,0,4.8,23.7,17.145,17.145,0,0,1,.92,3.226A27.776,27.776,0,0,1,260.052,340.2Z" transform="translate(-205.431 -270.926)" fill="#e4a999"/>
          <path id="Trazado_105722" data-name="Trazado 105722" d="M259.585,300.222a23.367,23.367,0,0,1-1.769,4.968s-15.432,8.57-28.764,8.853-21.828-9.586-21.828-9.586a27.387,27.387,0,0,1-1.45-4.235Z" transform="translate(-204.964 -230.946)" fill="#db877c"/>
          <path id="Trazado_105723" data-name="Trazado 105723" d="M228.246,272.087a7.271,7.271,0,0,1-2.171,5.763c-.3.286-.518.5-.631.586-.721.579-3.668,2.592-6.564,1.289a9.113,9.113,0,0,1-1.811-1.109,7.227,7.227,0,0,1-2.738-6.392l.083-.9,13.746-.4Z" transform="translate(-193.332 -270.926)" fill="#d26066"/>
          <path id="Trazado_105724" data-name="Trazado 105724" d="M215.846,284.842c.1-1.14-4.044-1.537-4.365,0S215.683,286.7,215.846,284.842Z" transform="translate(-197.199 -253.312)" fill="#d26066"/>
          <path id="Trazado_105725" data-name="Trazado 105725" d="M226.145,284.842c.1-1.14-4.041-1.537-4.365,0S225.984,286.7,226.145,284.842Z" transform="translate(-183.144 -253.312)" fill="#d26066"/>
          <path id="Trazado_105726" data-name="Trazado 105726" d="M217.457,296.268s-2.213,3.748.17,6.746A6.773,6.773,0,0,0,217.457,296.268Z" transform="translate(-190.297 -236.342)" fill="#d26066"/>
          <path id="Trazado_105727" data-name="Trazado 105727" d="M212.327,275.973a50.023,50.023,0,0,0,10.939,2.185,30.938,30.938,0,0,0,12.28-2S222,277.408,212.327,275.973Z" transform="translate(-196.021 -264.038)" fill="#db877c"/>
          <path id="Trazado_105728" data-name="Trazado 105728" d="M210.824,294.435a40.549,40.549,0,0,1,31.36,1.161A27.373,27.373,0,0,0,210.824,294.435Z" transform="translate(-198.072 -244.831)" fill="#db877c"/>
        </g>
        <g id="Grupo_55960" data-name="Grupo 55960" transform="translate(11.896 133.659)">
          <g id="Grupo_55958" data-name="Grupo 55958">
            <path id="Trazado_105729" data-name="Trazado 105729" d="M212.981,316.821s.033,3.36.085,8.889v.017c.08,8.4-.135,21.691-.009,35.92-9.463,22.734,3.542,40.77,3.322,61.248-.043,1.055-.111,2.114-.232,3.183-.584,5.179-6.314,8.792-10.407,11.206-2.138,1.263-4.453,2.2-5.124,3.391a.554.554,0,0,0,.556.79h20.653c1.669,0,1.816-.839,2.4-1.674,2.769,0,3.717-.064,4.008-1.8a23.87,23.87,0,0,0,.054-2.982c-.047-2.384-.2-5.6-.312-7.86.035-.965.111-2.422.215-4.249.918-15.588,4.157-55.733,4.157-55.733l2.935-41.574,0-.017,1.01-8.473Z" transform="translate(-200.552 -316.821)" fill="#e4a999"/>
            <path id="Trazado_105730" data-name="Trazado 105730" d="M214.569,369.781c-.291,1.74-1.239,1.8-4.008,1.8a56.086,56.086,0,0,1,4.063-4.786A23.872,23.872,0,0,1,214.569,369.781Z" transform="translate(-186.892 -248.617)" fill="#db877c"/>
            <path id="Trazado_105731" data-name="Trazado 105731" d="M211.142,369.248c-1.225,1.5-1.634,1.632-2.334,2.436a2.731,2.731,0,0,0-.747,1.639H206.9c.471-1.887,2.93-3.649,3.722-4.363a6.41,6.41,0,0,0,1.7-2.206A4.655,4.655,0,0,1,211.142,369.248Z" transform="translate(-191.885 -248.679)" fill="#d26066"/>
            <path id="Trazado_105732" data-name="Trazado 105732" d="M211.067,367.577s-.572,1.118-3.1,2.566c-1.738.988-1.866,1.513-2.048,2.055h-.977a3.088,3.088,0,0,1,1.279-1.788C207.558,369.471,209.592,368.785,211.067,367.577Z" transform="translate(-194.556 -247.555)" fill="#d26066"/>
            <path id="Trazado_105733" data-name="Trazado 105733" d="M210.406,367.507a25.114,25.114,0,0,1-4.292,2.764c-1.762.953-1.712,1.48-1.894,2.022h-.977a3.089,3.089,0,0,1,1.279-1.788C205.856,369.567,207.473,369.15,210.406,367.507Z" transform="translate(-196.879 -247.65)" fill="#d26066"/>
            <path id="Trazado_105734" data-name="Trazado 105734" d="M208.581,367.608c-.882.745-2.147,1.168-4.214,2.476-1.681,1.062-1.58,1.53-1.762,2.072h-.974a3.066,3.066,0,0,1,1.279-1.788A35.455,35.455,0,0,1,208.581,367.608Z" transform="translate(-199.079 -247.513)" fill="#d26066"/>
            <path id="Trazado_105735" data-name="Trazado 105735" d="M208.211,369.917l3.28.066a.4.4,0,0,0,.284-.109,3.631,3.631,0,0,0,.648-.742c.014-.317-.664-.674-1.442-.79a3.22,3.22,0,0,0-1.944.421c-.177.13-.66.612-.951.908A.148.148,0,0,0,208.211,369.917Z" transform="translate(-190.326 -246.542)" fill="#e9bbb1"/>
            <path id="Trazado_105736" data-name="Trazado 105736" d="M206.022,369.563h1.847c.18,0-.078-.568-.719-.634C206.277,368.837,205.842,369.426,206.022,369.563Z" transform="translate(-193.141 -245.722)" fill="#e9bbb1"/>
            <path id="Trazado_105737" data-name="Trazado 105737" d="M204.113,369.563h1.847c.18,0-.076-.568-.717-.634C204.37,368.837,203.935,369.426,204.113,369.563Z" transform="translate(-195.745 -245.722)" fill="#e9bbb1"/>
            <path id="Trazado_105738" data-name="Trazado 105738" d="M202.465,369.563h1.847c.18,0-.076-.568-.719-.634C202.723,368.837,202.285,369.426,202.465,369.563Z" transform="translate(-197.995 -245.722)" fill="#e9bbb1"/>
            <path id="Trazado_105739" data-name="Trazado 105739" d="M200.9,369.534h1.847c.177,0-.078-.567-.719-.634C201.159,368.808,200.724,369.4,200.9,369.534Z" transform="translate(-200.125 -245.762)" fill="#e9bbb1"/>
          </g>
          <g id="Grupo_55959" data-name="Grupo 55959" transform="translate(12.43)">
            <path id="Trazado_105740" data-name="Trazado 105740" d="M229.117,317.1l-1.01,8.473-22.214.14c-.052-5.529-.085-8.889-.085-8.889Z" transform="translate(-205.808 -316.821)" fill="#db877c"/>
            <path id="Trazado_105741" data-name="Trazado 105741" d="M208.265,336.571s.662,7.569,3.658,7.517c2.644-.047,5.032-3.478,4.569-7.066S208.256,332.719,208.265,336.571Z" transform="translate(-202.455 -293.39)" fill="#db877c"/>
          </g>
        </g>
        <g id="Grupo_55962" data-name="Grupo 55962" transform="translate(21.094 98.642)">
          <g id="Grupo_55961" data-name="Grupo 55961">
            <path id="Trazado_105742" data-name="Trazado 105742" d="M259.632,302.746l-50.593-.733s-6.914,22.5-3.786,38.977h26.529c.333,0,2.159-9.369,2.159-9.369s1.828,9.369,2.159,9.369h26.1C265.582,322.888,259.632,302.746,259.632,302.746Z" transform="translate(-204.441 -302.013)" fill="#312342"/>
          </g>
        </g>
        <g id="Grupo_55964" data-name="Grupo 55964" transform="translate(62.666 37.95)">
          <path id="Trazado_105743" data-name="Trazado 105743" d="M223.472,278.5c1.071-2.384,4.822-2.745,7-1.3,2.133,1.409,5.786,4.606,9.653,7.676,8.023,6.368,19.362,17.764,21.528,22.985S251.578,338.162,247,341.9a36.384,36.384,0,0,1-7.51-4.417l6.728-24.616s-17.123-14.706-20.738-19.454C221.02,287.549,221.483,282.923,223.472,278.5Z" transform="translate(-222.022 -276.347)" fill="#e4a999"/>
          <g id="Grupo_55963" data-name="Grupo 55963" transform="translate(3.73 58.561)">
            <path id="Trazado_105744" data-name="Trazado 105744" d="M238.083,301.68a37.183,37.183,0,0,0-7.307-.052c-1.461.355-3.984,4.519-4.663,5.023s-2.123,1.026-2.164,1.6,1.237.967,2.525.565S238.161,305.236,238.083,301.68Z" transform="translate(-223.122 -300.636)" fill="#d26066"/>
            <path id="Trazado_105745" data-name="Trazado 105745" d="M229.7,305.567c1.225-1.059,13.557-5.474,14.54-4.24a6.375,6.375,0,0,1,.608,6.772c-.837,1.291-4.36,5.978-6.959,7.787a11.655,11.655,0,0,1-1.949,1.7c-2.369,1.717-3.895,2.693-4.476,1.83-.333-.494,2.982-3.3,4.668-5.257a4.687,4.687,0,0,0-1.939.922l-.035.033c-1.388,1.232-5.212,4.273-5.817,3.006-.286-.6,1.989-2.828,3.793-4.587,1.223-1.192,1.778-2.289,1.639-2.528-1.71,1.234-5.59,3.885-6.134,4.16-.816.416-1.544.106-1.568-.411-.017-.35,3.767-3.966,5.907-5.869a3.162,3.162,0,0,0-2.563.542c-1.809,1.237-3.462,3.157-4.207,3.62-1.208.754-1.4.369-1.606-.2C223.585,312,227.654,307.339,229.7,305.567Z" transform="translate(-223.599 -301.112)" fill="#e4a999"/>
          </g>
        </g>
        <g id="Grupo_55966" data-name="Grupo 55966" transform="translate(0 38.121)">
          <g id="Grupo_55965" data-name="Grupo 55965" transform="translate(14.385 58.391)">
            <path id="Trazado_105746" data-name="Trazado 105746" d="M204.56,301.68a37.2,37.2,0,0,1,7.309-.052c1.461.355,3.982,4.519,4.663,5.023s2.121,1.026,2.161,1.6-1.234.967-2.526.565S204.485,305.236,204.56,301.68Z" transform="translate(-197.571 -300.636)" fill="#d26066"/>
            <path id="Trazado_105747" data-name="Trazado 105747" d="M217.457,305.567c-1.225-1.059-13.557-5.474-14.54-4.24a6.38,6.38,0,0,0-.608,6.772c.837,1.291,4.36,5.978,6.959,7.787a11.65,11.65,0,0,0,1.949,1.7c2.369,1.717,3.9,2.693,4.476,1.83.333-.494-2.982-3.3-4.668-5.257a4.708,4.708,0,0,1,1.941.922l.033.033c1.39,1.232,5.212,4.273,5.817,3.006.286-.6-1.989-2.828-3.793-4.587-1.22-1.192-1.776-2.289-1.636-2.528,1.707,1.234,5.588,3.885,6.132,4.16.816.416,1.544.106,1.568-.411.017-.35-3.767-3.966-5.907-5.869a3.162,3.162,0,0,1,2.563.542c1.809,1.237,3.462,3.157,4.207,3.62,1.211.754,1.4.369,1.606-.2C223.572,312,219.5,307.339,217.457,305.567Z" transform="translate(-201.604 -301.112)" fill="#e4a999"/>
          </g>
          <path id="Trazado_105748" data-name="Trazado 105748" d="M233.346,278.9c-1.071-2.384-2.887-3.3-5.879-1.627-2.23,1.251-6.12,4.434-9.986,7.5-8.023,6.368-19.081,17.563-21.443,22.7-3.289,7.148,9.991,30.59,14.571,34.323a36.309,36.309,0,0,0,7.51-4.417l-6.787-24.33s17.184-14.992,20.8-19.74C236.588,287.45,235.335,283.322,233.346,278.9Z" transform="translate(-195.521 -276.419)" fill="#e4a999"/>
        </g>
        <g id="Grupo_55980" data-name="Grupo 55980" transform="translate(38.27)">
          <path id="Trazado_105749" data-name="Trazado 105749" d="M237.5,276.283c.251-.426.906-8.617-4.171-12.788-5.779-4.748-13.694-3.72-17.686-.09s-4.987,9.158-2.812,14.782C212.831,278.187,230.781,287.707,237.5,276.283Z" transform="translate(-211.705 -260.298)" fill="#3a312a"/>
          <g id="Grupo_55978" data-name="Grupo 55978" transform="translate(0.084 8.489)">
            <g id="Grupo_55967" data-name="Grupo 55967" transform="translate(0 5.952)">
              <path id="Trazado_105750" data-name="Trazado 105750" d="M215.97,269.422s-.624-2.507-1.811-2.956-2.7,1.653-2.374,3.282,1.93,3.611,3.091,3.942c.939.265,1.707-.8,1.856-1.464A8.723,8.723,0,0,0,215.97,269.422Z" transform="translate(-211.74 -266.405)" fill="#e4a999"/>
              <path id="Trazado_105751" data-name="Trazado 105751" d="M212.91,270.4a3.8,3.8,0,0,1-.667-1.922c.1-.778.683-1.693,1.156-1.662s1.544,2.407,1.594,2.809-.9.419-.766.915.8.958,1.014,1.234c.144.187.239.534-.331.612s-1.464-1.071-1.464-1.071,1.045.8,1.322.6-.7-.936-1.062-1.48.771-.7.745-1.007c-.009-.1-.679-1.738-1.1-1.707S212.439,268.674,212.91,270.4Z" transform="translate(-211.066 -265.853)" fill="#d26066"/>
              <path id="Trazado_105752" data-name="Trazado 105752" d="M213.26,267.721a1.473,1.473,0,0,0-.381,1.249,1.619,1.619,0,0,0,.539.993,1.5,1.5,0,0,1-.839-1.3A.926.926,0,0,1,213.26,267.721Z" transform="translate(-210.596 -264.609)" fill="#d26066"/>
            </g>
            <g id="Grupo_55968" data-name="Grupo 55968" transform="translate(3.296)">
              <path id="Trazado_105753" data-name="Trazado 105753" d="M213.614,270a2.006,2.006,0,0,0-.478,1.374,29.565,29.565,0,0,0,.475,3.526,28.7,28.7,0,0,0,1.9,6.867c.383.835,3.75,3.762,4.746,4.356a7.009,7.009,0,0,0,4.476-.085c.66-.355,4.491-2.954,5.112-3.942.688-1.1,2.859-9.04,2.859-9.04-1.575.2-.979-1.809-1.478-2.63-.4-.66-1.447-.948-2.069-1.36a12.157,12.157,0,0,1-2.112-1.762,4.733,4.733,0,0,1-1.584-3.415l-8.837,4.221A8.69,8.69,0,0,0,213.614,270Z" transform="translate(-213.134 -263.888)" fill="#e4a999"/>
            </g>
            <g id="Grupo_55970" data-name="Grupo 55970" transform="translate(14.133 7.322)">
              <g id="Grupo_55969" data-name="Grupo 55969" transform="translate(0 0.533)">
                <path id="Trazado_105754" data-name="Trazado 105754" d="M217.717,268.449s.338.589,2.665.605,3.1-1.059,3.1-1.059l-5.285.18Z" transform="translate(-217.717 -266.139)" fill="#db877c"/>
                <path id="Trazado_105755" data-name="Trazado 105755" d="M218.42,267.454a2.963,2.963,0,0,0-.57,1.8c1.057-.083,2.937-1.894,2.937-1.894A10.164,10.164,0,0,0,218.42,267.454Z" transform="translate(-217.535 -267.043)" fill="#d26066"/>
                <path id="Trazado_105756" data-name="Trazado 105756" d="M218.513,267.845c-.057.007-.854.8-.75.972.092.087.478-.045.478-.045Z" transform="translate(-217.666 -266.344)" fill="#db877c"/>
                <path id="Trazado_105757" data-name="Trazado 105757" d="M217.929,269.367c0-.085.322-1.648,1.126-1.873a5.042,5.042,0,0,1,2.665,0c.717.253,1.476,1.428,1.476,1.428a11.277,11.277,0,0,1-3.02.518C218.1,269.566,217.929,269.367,217.929,269.367Z" transform="translate(-217.428 -267.067)" fill="#fff"/>
                <path id="Trazado_105758" data-name="Trazado 105758" d="M220.664,268.388a1.068,1.068,0,0,1-1.163.948,1.05,1.05,0,0,1-1-1.111,1.069,1.069,0,0,1,1.166-.948A1.048,1.048,0,0,1,220.664,268.388Z" transform="translate(-216.646 -267.123)" fill="#312342"/>
                <path id="Trazado_105759" data-name="Trazado 105759" d="M220.3,268.152c.078-.326-1.088-.546-1.168-.206C219.089,268.148,220.25,268.384,220.3,268.152Z" transform="translate(-215.783 -266.438)" fill="#fff"/>
                <path id="Trazado_105760" data-name="Trazado 105760" d="M217.9,267.82a15.152,15.152,0,0,1,3.216-.009,4.984,4.984,0,0,1,2.124,1.256,3.09,3.09,0,0,0-1.828-1.719A4.479,4.479,0,0,0,217.9,267.82Z" transform="translate(-217.47 -267.21)" fill="#312342"/>
              </g>
              <path id="Trazado_105761" data-name="Trazado 105761" d="M218.386,267.269a8.173,8.173,0,0,1,2.407.1,5.015,5.015,0,0,1,1.419.747,3.108,3.108,0,0,0-1.017-.96A4.554,4.554,0,0,0,218.386,267.269Z" transform="translate(-216.804 -266.985)" fill="#db877c"/>
            </g>
            <g id="Grupo_55971" data-name="Grupo 55971" transform="translate(5.083 5.333)">
              <path id="Trazado_105762" data-name="Trazado 105762" d="M216.415,266.292a6.847,6.847,0,0,1,1.208,1.769,6.511,6.511,0,0,1,.062,2.1c-.047,0-1.778-3.143-1.778-3.143Z" transform="translate(-211.137 -265.94)" fill="#db877c"/>
              <path id="Trazado_105763" data-name="Trazado 105763" d="M216.349,267.368c.993,0,3.244.255,3.223.2a3.152,3.152,0,0,0-.4-1.069c-1.364,0-2.3-.527-3.46-.291a3.115,3.115,0,0,0-1.818,1.537A12.687,12.687,0,0,1,216.349,267.368Z" transform="translate(-213.89 -266.143)" fill="#3a312a"/>
            </g>
            <g id="Grupo_55972" data-name="Grupo 55972" transform="translate(13.313 5.333)">
              <path id="Trazado_105764" data-name="Trazado 105764" d="M218.606,266.292a12.487,12.487,0,0,0-1.05,1.769,3.942,3.942,0,0,0-.092,2.06c.52-1.208,1.433-3.339,1.433-3.339Z" transform="translate(-217.37 -265.94)" fill="#db877c"/>
              <path id="Trazado_105765" data-name="Trazado 105765" d="M220.945,267.368c-.991,0-3.244.255-3.223.2a3.151,3.151,0,0,1,.4-1.069c1.364,0,2.3-.527,3.46-.291a3.115,3.115,0,0,1,1.818,1.537A12.686,12.686,0,0,0,220.945,267.368Z" transform="translate(-216.89 -266.143)" fill="#3a312a"/>
            </g>
            <g id="Grupo_55973" data-name="Grupo 55973" transform="translate(10.588 11.528)">
              <path id="Trazado_105766" data-name="Trazado 105766" d="M216.218,269.123s1.3,2.452,2.019,2.348S220.1,269.1,220.1,269.1a3.6,3.6,0,0,1-2.138.927A3.416,3.416,0,0,1,216.218,269.123Z" transform="translate(-216.218 -268.305)" fill="#db877c"/>
              <path id="Trazado_105767" data-name="Trazado 105767" d="M218.091,269.631a11.17,11.17,0,0,0,2.008-.532,3.62,3.62,0,0,1-1.984,1.161c-.816.043-1.9-1.142-1.9-1.137A7.927,7.927,0,0,0,218.091,269.631Z" transform="translate(-216.218 -268.305)" fill="#d26066"/>
              <path id="Trazado_105768" data-name="Trazado 105768" d="M217.013,268.824c-.582.128-.447,1.007.393,1.062s1.062-.57.83-.925A1.436,1.436,0,0,0,217.013,268.824Z" transform="translate(-215.618 -268.763)" fill="#e9bbb1"/>
            </g>
            <path id="Trazado_105769" data-name="Trazado 105769" d="M216.29,272.28a2.363,2.363,0,0,1,3.623.09A7.178,7.178,0,0,1,216.29,272.28Z" transform="translate(-205.532 -253.531)" fill="#db877c"/>
            <g id="Grupo_55976" data-name="Grupo 55976" transform="translate(5.007 7.198)">
              <g id="Grupo_55975" data-name="Grupo 55975">
                <g id="Grupo_55974" data-name="Grupo 55974" transform="translate(0 0.574)">
                  <path id="Trazado_105770" data-name="Trazado 105770" d="M219.573,268.615s-.352.6-2.663.546-3.053-1.208-3.053-1.208l5.245.359Z" transform="translate(-213.858 -266.112)" fill="#db877c"/>
                  <path id="Trazado_105771" data-name="Trazado 105771" d="M217.282,267.484a3.236,3.236,0,0,1,.516,1.9c-1.048-.121-2.864-2.074-2.864-2.074A9.616,9.616,0,0,1,217.282,267.484Z" transform="translate(-212.39 -266.994)" fill="#d26066"/>
                  <path id="Trazado_105772" data-name="Trazado 105772" d="M215.932,267.827c.057.009.856.8.752.972-.09.09-.478-.043-.478-.043Z" transform="translate(-211.028 -266.284)" fill="#db877c"/>
                  <path id="Trazado_105773" data-name="Trazado 105773" d="M219.077,269.508c.007-.09-.272-1.733-1.066-1.991a4.777,4.777,0,0,0-2.646-.09c-.717.244-1.506,1.445-1.506,1.445a10.819,10.819,0,0,0,2.984.641C218.9,269.709,219.077,269.508,219.077,269.508Z" transform="translate(-213.858 -267.031)" fill="#fff"/>
                  <path id="Trazado_105774" data-name="Trazado 105774" d="M216.765,268.287a1.076,1.076,0,1,1-1.128-1.031A1.077,1.077,0,0,1,216.765,268.287Z" transform="translate(-212.826 -267.065)" fill="#312342"/>
                  <path id="Trazado_105775" data-name="Trazado 105775" d="M219.2,267.888a14.377,14.377,0,0,0-3.2-.114,4.914,4.914,0,0,0-2.145,1.241s.646-1.494,1.866-1.736A4.286,4.286,0,0,1,219.2,267.888Z" transform="translate(-213.858 -267.174)" fill="#312342"/>
                </g>
                <path id="Trazado_105776" data-name="Trazado 105776" d="M217.849,267.284a7.79,7.79,0,0,0-2.393.024,4.877,4.877,0,0,0-1.431.735,3.137,3.137,0,0,1,1.036-.97A4.325,4.325,0,0,1,217.849,267.284Z" transform="translate(-213.63 -266.932)" fill="#db877c"/>
              </g>
              <path id="Trazado_105777" data-name="Trazado 105777" d="M216.4,268.052c.033-.348-1.144-.433-1.178-.071C215.2,268.194,216.377,268.3,216.4,268.052Z" transform="translate(-211.998 -265.819)" fill="#fff"/>
            </g>
            <g id="Grupo_55977" data-name="Grupo 55977" transform="translate(21.376 5.99)">
              <path id="Trazado_105778" data-name="Trazado 105778" d="M221.556,269.438s.624-2.507,1.814-2.956,2.7,1.653,2.374,3.282-1.93,3.611-3.093,3.942c-.936.265-1.707-.8-1.854-1.464A8.731,8.731,0,0,1,221.556,269.438Z" transform="translate(-220.78 -266.421)" fill="#e4a999"/>
              <path id="Trazado_105779" data-name="Trazado 105779" d="M223.689,270.41a3.8,3.8,0,0,0,.667-1.922c-.1-.776-.683-1.693-1.156-1.66s-1.544,2.4-1.594,2.807.894.421.764.918-.8.958-1.012,1.232c-.144.187-.239.537.331.612s1.464-1.069,1.464-1.069-1.045.8-1.322.593.7-.936,1.062-1.478-.771-.707-.745-1.01c.009-.1.679-1.738,1.1-1.707S224.16,268.689,223.689,270.41Z" transform="translate(-220.142 -265.868)" fill="#d26066"/>
              <path id="Trazado_105780" data-name="Trazado 105780" d="M222.026,267.737a1.474,1.474,0,0,1,.381,1.249,1.614,1.614,0,0,1-.541.993,1.5,1.5,0,0,0,.842-1.3A.926.926,0,0,0,222.026,267.737Z" transform="translate(-219.299 -264.626)" fill="#d26066"/>
            </g>
          </g>
          <g id="Grupo_55979" data-name="Grupo 55979" transform="translate(8.811 23.162)">
            <path id="Trazado_105781" data-name="Trazado 105781" d="M223.32,270.128s-.849,2.426-4.207,2.346a4.152,4.152,0,0,1-3.682-2.022l1.116-.047,5.838-.239Z" transform="translate(-215.431 -270.045)" fill="#312342"/>
            <path id="Trazado_105782" data-name="Trazado 105782" d="M221.741,270.144a3.014,3.014,0,0,1-.362.731,11.191,11.191,0,0,1-4.571.241,2.944,2.944,0,0,1-.906-.733Z" transform="translate(-214.787 -270.023)" fill="#fff"/>
            <path id="Trazado_105783" data-name="Trazado 105783" d="M215.431,270.5a16.055,16.055,0,0,0,3.932.243,13.435,13.435,0,0,0,3.956-.568A36.159,36.159,0,0,0,215.431,270.5Z" transform="translate(-215.431 -270.093)" fill="#d26066"/>
          </g>
        </g>
      </g>
      <g id="Grupo_56005" data-name="Grupo 56005" transform="translate(181.296 249.874)">
        <g id="Grupo_55982" data-name="Grupo 55982" transform="translate(69.247 40.369)">
          <path id="Trazado_105784" data-name="Trazado 105784" d="M175.835,266.946s8.217,2.057,8.508,9.7,2.4,23.805,2.913,27.227c1.163,4.732,3.639,8.588,4.077,16.087s-4.587,30.065-4.223,32.54c1.31,4.512,2.256,11.429-4.585,14.34C176.627,333.5,171.4,275.88,175.835,266.946Z" transform="translate(-174.179 -266.946)" fill="#ff8762"/>
        </g>
        <g id="Grupo_55983" data-name="Grupo 55983" transform="translate(0 38.014)">
          <path id="Trazado_105785" data-name="Trazado 105785" d="M154.9,309.521s-7.134-4.377-6.484-6.054,6.808,4.053,7.889,4.377c-4.162-5.025-5.512-7.889-4.377-8s5.675,6.108,5.675,6.108-4.431-7.134-3.675-7.728,5.4,6.214,5.4,6.214S159.279,308.979,154.9,309.521Z" transform="translate(-140.143 -221.952)" fill="#e87454"/>
          <path id="Trazado_105786" data-name="Trazado 105786" d="M184.478,265.95s-1.684,4.332-3.635,9.17c-2.017,5-4.318,10.544-5.33,12.384-.638,1.161-2.535,3.925-4.817,7.144-4.833,6.817-11.4,15.683-11.4,15.683s5.254,19.291,9.511,30.434c.634,2.083-.724,6.158-5.434,5.614-11.14-12.5-18.657-32.969-18.478-36.047,6.612-15.671,17.683-28.892,23.1-35.354C172.134,270.036,184.279,265.924,184.478,265.95Z" transform="translate(-144.895 -265.95)" fill="#ffa78f"/>
          <path id="Trazado_105787" data-name="Trazado 105787" d="M165.953,269.828c-2.017,5-4.318,10.544-5.33,12.384-.638,1.161-2.535,3.925-4.817,7.144,1.071-14.146,3.3-18.792,3.5-19.272Z" transform="translate(-130.004 -260.658)" fill="#ff8762"/>
          <path id="Trazado_105788" data-name="Trazado 105788" d="M164.887,297.588a8.431,8.431,0,0,1,.544,6.43c-1.178,3.443-5.616,9.6-8.061,9.329s-9.511-4.346-9.6-6.068c1.45-1.178,5.616,2.627,8.243,2.627,2.989-4.256,2.625-9.057,4.346-10.055S164.887,297.588,164.887,297.588Z" transform="translate(-140.972 -222.774)" fill="#ffa78f"/>
        </g>
        <g id="Grupo_55986" data-name="Grupo 55986" transform="translate(8.913 146.267)">
          <g id="Grupo_55985" data-name="Grupo 55985">
            <g id="Grupo_55984" data-name="Grupo 55984">
              <path id="Trazado_105789" data-name="Trazado 105789" d="M163.63,311.729s.035,3.687.092,9.752v.019c.09,9.215.227,23.912.367,39.523-6.406,20.911,3.58,41.07,2.516,64.267,0,.128,0,.255,0,.383-.262,4.427-.858,7.134-4.968,10.984-3.963,3.722-10.338,8.042-11.665,9.369a3.751,3.751,0,0,0-1.3,2.386H167.78c5.016,0,3.616-1.012,5.727-3.067,1.1-1.059,3.285-.17,5.049-.752,1.35-.452,1.26-2.693.792-6.188-.147-1.059-.348-2.232-.5-3.519a93.491,93.491,0,0,1-.452-9.6c.426-16.144,2.66-57.616,2.66-57.616l5.538-46.4,0-.019,1.109-9.3Z" transform="translate(-148.664 -311.729)" fill="#ffa78f"/>
              <path id="Trazado_105790" data-name="Trazado 105790" d="M156.14,369.6h-2.218c-.215,0,.092-.773.863-.863C155.832,368.609,156.355,369.411,156.14,369.6Z" transform="translate(-141.58 -233.955)" fill="#ff8762"/>
              <path id="Trazado_105791" data-name="Trazado 105791" d="M154.311,369.6h-2.218c-.215,0,.092-.773.863-.863C154,368.609,154.526,369.411,154.311,369.6Z" transform="translate(-144.076 -233.955)" fill="#ff8762"/>
              <path id="Trazado_105792" data-name="Trazado 105792" d="M152.681,369.508h-2.218c-.215,0,.092-.638.863-.714C152.371,368.692,152.9,369.354,152.681,369.508Z" transform="translate(-146.301 -233.867)" fill="#ff8762"/>
              <path id="Trazado_105793" data-name="Trazado 105793" d="M151.042,369.508H149.02c-.2,0,.083-.638.785-.714C150.76,368.692,151.24,369.354,151.042,369.508Z" transform="translate(-148.263 -233.867)" fill="#ff8762"/>
              <path id="Trazado_105794" data-name="Trazado 105794" d="M164.217,371.487c-1.764.582-3.873-.225-5.046.754,2.426-2.92,2.537-6.344,5.838-6.943C165.478,368.794,165.567,371.036,164.217,371.487Z" transform="translate(-134.325 -238.623)" fill="#ff8762"/>
              <path id="Trazado_105795" data-name="Trazado 105795" d="M160.2,366.247a1.164,1.164,0,0,1,.823,1.991l-.1.095a34.908,34.908,0,0,0-4,3.781,3.628,3.628,0,0,0-.622,1.9h-1.44a3.591,3.591,0,0,1,1.561-2.76c1.109-.936,3.992-3.027,4.351-4,.225-.608-.575-1.007-.575-1.007Z" transform="translate(-140.208 -237.329)" fill="#e87454"/>
              <path id="Trazado_105796" data-name="Trazado 105796" d="M156.271,369.823h3.755s.6-1.383-.839-1.629A2.456,2.456,0,0,0,156.271,369.823Z" transform="translate(-138.283 -234.73)" fill="#ff8762"/>
              <path id="Trazado_105797" data-name="Trazado 105797" d="M160.721,366.685s-.024,1.23-2.523,2.961c-1.9,1.31-3.625,2.6-3.883,3.769h-1.57a9.331,9.331,0,0,1,2.589-2.79C157.34,369.118,159.986,368.132,160.721,366.685Z" transform="translate(-143.095 -236.731)" fill="#e87454"/>
              <path id="Trazado_105798" data-name="Trazado 105798" d="M157.328,367.324c-.591.615-3.114,2.589-4.07,3.478a3.573,3.573,0,0,0-1.052,1.74h-.986C151.657,370.415,154.609,368.894,157.328,367.324Z" transform="translate(-145.176 -235.859)" fill="#e87454"/>
              <path id="Trazado_105799" data-name="Trazado 105799" d="M155.8,367.324c-.582.615-3.114,2.589-4.07,3.478a3.573,3.573,0,0,0-1.052,1.74H149.7C150.126,370.415,153.077,368.894,155.8,367.324Z" transform="translate(-147.253 -235.859)" fill="#e87454"/>
            </g>
            <path id="Trazado_105800" data-name="Trazado 105800" d="M179.068,311.958l-1.109,9.3-22.874.227c-.057-6.065-.092-9.752-.092-9.752Z" transform="translate(-140.027 -311.729)" fill="#ff8762"/>
          </g>
          <path id="Trazado_105801" data-name="Trazado 105801" d="M157.054,333.367s.726,8.307,4.013,8.248c2.9-.052,5.522-3.817,5.015-7.751S157.045,329.141,157.054,333.367Z" transform="translate(-137.214 -286.063)" fill="#ff8762"/>
        </g>
        <g id="Grupo_55989" data-name="Grupo 55989" transform="translate(54.616 146.267)">
          <g id="Grupo_55988" data-name="Grupo 55988">
            <g id="Grupo_55987" data-name="Grupo 55987">
              <path id="Trazado_105802" data-name="Trazado 105802" d="M192.066,311.729s-.035,3.687-.092,9.752v.019c-.09,9.215-.227,23.912-.367,39.523,6.406,20.911-3.58,41.07-2.516,64.267,0,.128,0,.255.007.383.26,4.427.856,7.134,4.966,10.984,3.963,3.722,10.338,8.042,11.665,9.369a3.751,3.751,0,0,1,1.3,2.386H187.916c-5.016,0-3.616-1.012-5.727-3.067-1.1-1.059-3.285-.17-5.046-.752-1.353-.452-1.263-2.693-.795-6.188.147-1.059.348-2.232.5-3.519a93.481,93.481,0,0,0,.452-9.6c-.426-16.144-2.66-57.616-2.66-57.616l-5.538-46.4,0-.019-1.109-9.3Z" transform="translate(-167.991 -311.729)" fill="#ffa78f"/>
              <path id="Trazado_105803" data-name="Trazado 105803" d="M178.371,369.6h2.218c.215,0-.092-.773-.863-.863C178.681,368.609,178.156,369.411,178.371,369.6Z" transform="translate(-153.89 -233.955)" fill="#ff8762"/>
              <path id="Trazado_105804" data-name="Trazado 105804" d="M180.2,369.6h2.218c.215,0-.092-.773-.863-.863C180.508,368.609,179.985,369.411,180.2,369.6Z" transform="translate(-151.394 -233.955)" fill="#ff8762"/>
              <path id="Trazado_105805" data-name="Trazado 105805" d="M181.83,369.508h2.218c.215,0-.092-.638-.863-.714C182.14,368.692,181.615,369.354,181.83,369.508Z" transform="translate(-149.169 -233.867)" fill="#ff8762"/>
              <path id="Trazado_105806" data-name="Trazado 105806" d="M183.351,369.508h2.024c.2,0-.085-.638-.787-.714C183.633,368.692,183.155,369.354,183.351,369.508Z" transform="translate(-147.089 -233.867)" fill="#ff8762"/>
              <path id="Trazado_105807" data-name="Trazado 105807" d="M172.5,371.487c1.762.582,3.871-.225,5.044.754-2.426-2.92-2.537-6.344-5.838-6.943C171.237,368.794,171.147,371.036,172.5,371.487Z" transform="translate(-163.348 -238.623)" fill="#ff8762"/>
              <path id="Trazado_105808" data-name="Trazado 105808" d="M176.726,366.247a1.164,1.164,0,0,0-.823,1.991l.1.095a34.9,34.9,0,0,1,4,3.781,3.657,3.657,0,0,1,.624,1.9h1.438a3.591,3.591,0,0,0-1.561-2.76c-1.107-.936-3.992-3.027-4.351-4-.225-.608.575-1.007.575-1.007Z" transform="translate(-157.673 -237.329)" fill="#e87454"/>
              <path id="Trazado_105809" data-name="Trazado 105809" d="M179.132,369.823h-3.755s-.6-1.383.839-1.629A2.455,2.455,0,0,1,179.132,369.823Z" transform="translate(-158.08 -234.73)" fill="#ff8762"/>
              <path id="Trazado_105810" data-name="Trazado 105810" d="M177.047,366.685s.024,1.23,2.523,2.961c1.9,1.31,3.625,2.6,3.883,3.769h1.57a9.329,9.329,0,0,0-2.589-2.79C180.428,369.118,177.782,368.132,177.047,366.685Z" transform="translate(-155.632 -236.731)" fill="#e87454"/>
              <path id="Trazado_105811" data-name="Trazado 105811" d="M179.363,367.324c.589.615,3.114,2.589,4.067,3.478a3.573,3.573,0,0,1,1.052,1.74h.986C185.031,370.415,182.08,368.894,179.363,367.324Z" transform="translate(-152.472 -235.859)" fill="#e87454"/>
              <path id="Trazado_105812" data-name="Trazado 105812" d="M180.888,367.324c.582.615,3.114,2.589,4.07,3.478a3.574,3.574,0,0,1,1.052,1.74h.979C186.559,370.415,183.607,368.894,180.888,367.324Z" transform="translate(-150.391 -235.859)" fill="#e87454"/>
            </g>
            <path id="Trazado_105813" data-name="Trazado 105813" d="M167.991,311.958l1.109,9.3,22.874.227c.057-6.065.092-9.752.092-9.752Z" transform="translate(-167.991 -311.729)" fill="#ff8762"/>
          </g>
          <path id="Trazado_105814" data-name="Trazado 105814" d="M181.358,333.367s-.726,8.307-4.013,8.248c-2.9-.052-5.522-3.817-5.016-7.751S181.367,329.141,181.358,333.367Z" transform="translate(-162.156 -286.063)" fill="#ff8762"/>
        </g>
        <g id="Grupo_55990" data-name="Grupo 55990" transform="translate(28.044 26.34)">
          <path id="Trazado_105815" data-name="Trazado 105815" d="M203.414,342.668a50.5,50.5,0,0,1-24.683,6.51c-14.117-.085-21.977-6.51-21.977-6.51s.2-52.494.2-58.758c0-5.179,3.126-8.284,5.408-8.96s11.972-5.063,11.972-5.063l.461-4.985.3-3.214,11.5-.676.246,3.23.428,5.645s9.471,3.97,12.346,5.155,4.311,3.634,4.4,8.113S203.414,342.668,203.414,342.668Z" transform="translate(-156.754 -261.013)" fill="#ffa78f"/>
          <path id="Trazado_105816" data-name="Trazado 105816" d="M176.426,264.243a22.421,22.421,0,0,1-3.382,3.963c-1.163.806-2.412,1.573-4.408.605a18.487,18.487,0,0,1-4.252-3.909l.3-3.214,11.5-.676Z" transform="translate(-146.34 -261.013)" fill="#e87454"/>
          <path id="Trazado_105817" data-name="Trazado 105817" d="M165.372,276.61c.109-1.251-4.436-1.686-4.791,0S165.195,278.648,165.372,276.61Z" transform="translate(-151.555 -241.239)" fill="#e87454"/>
          <path id="Trazado_105818" data-name="Trazado 105818" d="M176.671,276.61c.109-1.251-4.434-1.686-4.789,0S176.494,278.648,176.671,276.61Z" transform="translate(-136.133 -241.239)" fill="#e87454"/>
          <path id="Trazado_105819" data-name="Trazado 105819" d="M167.139,288.8s-2.429,4.569.187,8.222A9.015,9.015,0,0,0,167.139,288.8Z" transform="translate(-143.982 -223.092)" fill="#e87454"/>
          <path id="Trazado_105820" data-name="Trazado 105820" d="M161.51,266.879a55.033,55.033,0,0,0,12,2.4c6.657.553,13.476-2.2,13.476-2.2S172.127,268.454,161.51,266.879Z" transform="translate(-150.264 -253.008)" fill="#ff8762"/>
        </g>
        <path id="Trazado_105821" data-name="Trazado 105821" d="M208.809,295.28H158.15l-4.011,43.167h26.969c.367,0,2.369-10.279,2.369-10.279s2.005,10.279,2.369,10.279h26.969Z" transform="translate(-132.278 -187.91)" fill="#86bec4"/>
        <g id="Grupo_56004" data-name="Grupo 56004" transform="translate(38.841)">
          <path id="Trazado_105822" data-name="Trazado 105822" d="M186.684,265.109c.059-.182.915-4.271-.324-6.931s-2.431-3.4-5-4.405c-2.386-4.039-8.643-4.992-13.491-2.615-4.68,2.294-10.783,9.91-2.339,18.307S184.8,270.938,186.684,265.109Z" transform="translate(-161.32 -249.874)" fill="#ffad54"/>
          <g id="Grupo_56003" data-name="Grupo 56003" transform="translate(0.124 8.084)">
            <g id="Grupo_56002" data-name="Grupo 56002">
              <g id="Grupo_55991" data-name="Grupo 55991" transform="translate(0 5.988)">
                <path id="Trazado_105823" data-name="Trazado 105823" d="M165.63,258.861s-.629-2.523-1.823-2.975-2.715,1.665-2.391,3.3,1.941,3.632,3.112,3.966c.944.267,1.719-.809,1.868-1.473A8.808,8.808,0,0,0,165.63,258.861Z" transform="translate(-161.372 -255.825)" fill="#ff8762"/>
                <path id="Trazado_105824" data-name="Trazado 105824" d="M162.55,259.84a3.827,3.827,0,0,1-.672-1.934c.1-.783.688-1.7,1.161-1.672s1.556,2.421,1.606,2.826-.9.423-.771.922.806.962,1.022,1.241c.144.187.239.539-.333.617s-1.473-1.078-1.473-1.078,1.052.8,1.329.6-.707-.941-1.066-1.487.773-.709.747-1.017c-.007-.1-.681-1.748-1.107-1.717S162.075,258.106,162.55,259.84Z" transform="translate(-160.692 -255.269)" fill="#e87454"/>
                <path id="Trazado_105825" data-name="Trazado 105825" d="M162.9,257.149a1.488,1.488,0,0,0-.383,1.256,1.633,1.633,0,0,0,.546,1,1.508,1.508,0,0,1-.847-1.308A.933.933,0,0,1,162.9,257.149Z" transform="translate(-160.219 -254.019)" fill="#e87454"/>
              </g>
              <g id="Grupo_55992" data-name="Grupo 55992" transform="translate(3.32)">
                <path id="Trazado_105826" data-name="Trazado 105826" d="M163.256,259.439a2.018,2.018,0,0,0-.478,1.383,39.613,39.613,0,0,0,2.388,10.459c.385.84,3.776,3.786,4.777,4.382a7.047,7.047,0,0,0,4.5-.085c.664-.357,4.519-2.972,5.143-3.968.7-1.1,2.878-9.095,2.878-9.095-1.584.2-.984-1.821-1.487-2.646-.4-.664-1.457-.953-2.083-1.369a12.383,12.383,0,0,1-2.123-1.771,4.766,4.766,0,0,1-1.594-3.436q-4.448,2.121-8.891,4.247A8.744,8.744,0,0,0,163.256,259.439Z" transform="translate(-162.776 -253.293)" fill="#ffa78f"/>
              </g>
              <g id="Grupo_55994" data-name="Grupo 55994" transform="translate(14.223 7.368)">
                <g id="Grupo_55993" data-name="Grupo 55993" transform="translate(0 0.536)">
                  <path id="Trazado_105827" data-name="Trazado 105827" d="M167.387,257.881s.341.594,2.682.61,3.121-1.067,3.121-1.067l-5.318.18Z" transform="translate(-167.387 -255.558)" fill="#ff8762"/>
                  <path id="Trazado_105828" data-name="Trazado 105828" d="M168.1,256.88a2.98,2.98,0,0,0-.575,1.814c1.062-.083,2.953-1.906,2.953-1.906A10.267,10.267,0,0,0,168.1,256.88Z" transform="translate(-167.204 -256.467)" fill="#e87454"/>
                  <path id="Trazado_105829" data-name="Trazado 105829" d="M168.188,257.274c-.057.007-.858.809-.754.979.092.088.482-.045.482-.045Z" transform="translate(-167.336 -255.764)" fill="#ff8762"/>
                  <path id="Trazado_105830" data-name="Trazado 105830" d="M167.6,258.807c-.007-.087.322-1.66,1.133-1.885a5.082,5.082,0,0,1,2.682,0c.719.255,1.483,1.438,1.483,1.438a11.379,11.379,0,0,1-3.036.523C167.776,259.006,167.6,258.807,167.6,258.807Z" transform="translate(-167.095 -256.491)" fill="#fff"/>
                  <path id="Trazado_105831" data-name="Trazado 105831" d="M170.353,257.82a1.076,1.076,0,0,1-1.173.955,1.057,1.057,0,0,1-1-1.118,1.076,1.076,0,0,1,1.173-.955A1.057,1.057,0,0,1,170.353,257.82Z" transform="translate(-166.309 -256.549)" fill="#312342"/>
                  <path id="Trazado_105832" data-name="Trazado 105832" d="M169.99,257.584c.078-.329-1.095-.551-1.175-.208C168.768,257.577,169.936,257.818,169.99,257.584Z" transform="translate(-165.44 -255.859)" fill="#fff"/>
                  <path id="Trazado_105833" data-name="Trazado 105833" d="M167.569,257.249a15.353,15.353,0,0,1,3.237-.009,5.033,5.033,0,0,1,2.135,1.263,3.1,3.1,0,0,0-1.84-1.729A4.5,4.5,0,0,0,167.569,257.249Z" transform="translate(-167.139 -256.635)" fill="#312342"/>
                </g>
                <path id="Trazado_105834" data-name="Trazado 105834" d="M168.06,256.693a8.212,8.212,0,0,1,2.421.1,5,5,0,0,1,1.431.752,3.13,3.13,0,0,0-1.024-.965A4.592,4.592,0,0,0,168.06,256.693Z" transform="translate(-166.469 -256.409)" fill="#ff8762"/>
              </g>
              <g id="Grupo_55995" data-name="Grupo 55995" transform="translate(5.117 5.365)">
                <path id="Trazado_105835" data-name="Trazado 105835" d="M166.078,255.712a6.833,6.833,0,0,1,1.215,1.778,6.513,6.513,0,0,1,.061,2.112c-.047,0-1.79-3.159-1.79-3.159Z" transform="translate(-160.767 -255.357)" fill="#ff8762"/>
                <path id="Trazado_105836" data-name="Trazado 105836" d="M166.012,256.794c1,0,3.263.258,3.242.2a3.132,3.132,0,0,0-.407-1.074c-1.372,0-2.315-.532-3.481-.293a3.131,3.131,0,0,0-1.83,1.547A12.767,12.767,0,0,1,166.012,256.794Z" transform="translate(-163.536 -255.562)" fill="#ffad54"/>
              </g>
              <g id="Grupo_55996" data-name="Grupo 55996" transform="translate(13.398 5.365)">
                <path id="Trazado_105837" data-name="Trazado 105837" d="M168.281,255.712a12.525,12.525,0,0,0-1.057,1.778,4,4,0,0,0-.092,2.074c.525-1.215,1.442-3.363,1.442-3.363Z" transform="translate(-167.038 -255.357)" fill="#ff8762"/>
                <path id="Trazado_105838" data-name="Trazado 105838" d="M170.636,256.794c-1,0-3.266.258-3.244.2a3.184,3.184,0,0,1,.407-1.074c1.374,0,2.317-.532,3.481-.293a3.122,3.122,0,0,1,1.83,1.547A12.729,12.729,0,0,0,170.636,256.794Z" transform="translate(-166.556 -255.562)" fill="#ffad54"/>
              </g>
              <g id="Grupo_55997" data-name="Grupo 55997" transform="translate(10.655 11.598)">
                <path id="Trazado_105839" data-name="Trazado 105839" d="M165.878,258.56s1.31,2.469,2.034,2.365,1.873-2.388,1.873-2.388a3.609,3.609,0,0,1-2.152.932A3.444,3.444,0,0,1,165.878,258.56Z" transform="translate(-165.878 -257.736)" fill="#ff8762"/>
                <path id="Trazado_105840" data-name="Trazado 105840" d="M167.765,259.07a11.262,11.262,0,0,0,2.019-.534,3.645,3.645,0,0,1-2,1.168c-.818.043-1.908-1.149-1.908-1.145A7.916,7.916,0,0,0,167.765,259.07Z" transform="translate(-165.878 -257.736)" fill="#e87454"/>
                <path id="Trazado_105841" data-name="Trazado 105841" d="M166.68,258.26c-.586.13-.452,1.012.393,1.069s1.069-.575.835-.932A1.439,1.439,0,0,0,166.68,258.26Z" transform="translate(-165.273 -258.198)" fill="#ff8762"/>
              </g>
              <path id="Trazado_105842" data-name="Trazado 105842" d="M165.951,261.737a2.138,2.138,0,0,1,1.785-.806,2.107,2.107,0,0,1,1.861.9A7.208,7.208,0,0,1,165.951,261.737Z" transform="translate(-155.124 -242.871)" fill="#ff8762"/>
              <g id="Grupo_56000" data-name="Grupo 56000" transform="translate(5.041 7.241)">
                <g id="Grupo_55999" data-name="Grupo 55999">
                  <g id="Grupo_55998" data-name="Grupo 55998" transform="translate(0 0.577)">
                    <path id="Trazado_105843" data-name="Trazado 105843" d="M169.255,258.047s-.355.608-2.679.551-3.072-1.215-3.072-1.215l5.278.362Z" transform="translate(-163.504 -255.53)" fill="#ff8762"/>
                    <path id="Trazado_105844" data-name="Trazado 105844" d="M166.947,256.91a3.232,3.232,0,0,1,.52,1.913c-1.055-.121-2.88-2.086-2.88-2.086A9.708,9.708,0,0,1,166.947,256.91Z" transform="translate(-162.026 -256.417)" fill="#e87454"/>
                    <path id="Trazado_105845" data-name="Trazado 105845" d="M165.591,257.256c.057.009.861.809.757.979-.092.09-.482-.045-.482-.045Z" transform="translate(-160.656 -255.703)" fill="#ff8762"/>
                    <path id="Trazado_105846" data-name="Trazado 105846" d="M168.754,258.949c.009-.09-.272-1.745-1.071-2.005a4.793,4.793,0,0,0-2.663-.09c-.721.246-1.516,1.454-1.516,1.454a10.855,10.855,0,0,0,3,.643C168.576,259.15,168.754,258.949,168.754,258.949Z" transform="translate(-163.504 -256.455)" fill="#fff"/>
                    <path id="Trazado_105847" data-name="Trazado 105847" d="M166.429,257.717a1.079,1.079,0,0,1-1.029,1.135,1.093,1.093,0,0,1-1.135-1.038,1.083,1.083,0,1,1,2.164-.1Z" transform="translate(-162.466 -256.488)" fill="#312342"/>
                    <path id="Trazado_105848" data-name="Trazado 105848" d="M168.879,257.318a14.392,14.392,0,0,0-3.216-.113,4.921,4.921,0,0,0-2.159,1.248s.65-1.5,1.878-1.747A4.312,4.312,0,0,1,168.879,257.318Z" transform="translate(-163.504 -256.599)" fill="#312342"/>
                  </g>
                  <path id="Trazado_105849" data-name="Trazado 105849" d="M167.521,256.709a7.753,7.753,0,0,0-2.407.026,4.936,4.936,0,0,0-1.442.738,3.15,3.15,0,0,1,1.045-.974A4.345,4.345,0,0,1,167.521,256.709Z" transform="translate(-163.276 -256.355)" fill="#ff8762"/>
                </g>
                <path id="Trazado_105850" data-name="Trazado 105850" d="M166.062,257.484c.033-.35-1.152-.437-1.187-.073C164.854,257.626,166.039,257.732,166.062,257.484Z" transform="translate(-161.633 -255.235)" fill="#fff"/>
              </g>
              <g id="Grupo_56001" data-name="Grupo 56001" transform="translate(21.511 6.027)">
                <path id="Trazado_105851" data-name="Trazado 105851" d="M171.252,258.878s.627-2.525,1.823-2.975,2.712,1.662,2.388,3.3-1.941,3.635-3.112,3.966c-.944.27-1.717-.806-1.866-1.473A8.791,8.791,0,0,1,171.252,258.878Z" transform="translate(-170.469 -255.842)" fill="#ffa78f"/>
                <path id="Trazado_105852" data-name="Trazado 105852" d="M173.394,259.858a3.815,3.815,0,0,0,.672-1.937c-.1-.78-.688-1.7-1.161-1.672s-1.556,2.422-1.606,2.828.9.421.771.92-.806.965-1.019,1.241c-.144.187-.241.539.331.617s1.473-1.078,1.473-1.078-1.05.8-1.329.6.707-.944,1.066-1.49-.773-.709-.747-1.014c.009-.1.681-1.75,1.107-1.719S173.87,258.125,173.394,259.858Z" transform="translate(-169.826 -255.287)" fill="#e87454"/>
                <path id="Trazado_105853" data-name="Trazado 105853" d="M171.723,257.165a1.488,1.488,0,0,1,.383,1.256,1.627,1.627,0,0,1-.544,1,1.508,1.508,0,0,0,.844-1.308A.933.933,0,0,0,171.723,257.165Z" transform="translate(-168.978 -254.036)" fill="#ff8762"/>
              </g>
            </g>
          </g>
          <path id="Trazado_105854" data-name="Trazado 105854" d="M165.509,260.547a4.761,4.761,0,0,0,2.932,1.161,4.373,4.373,0,0,0,4.093-2.407A8.22,8.22,0,0,1,165.509,260.547Z" transform="translate(-155.603 -237.01)" fill="#e87454"/>
        </g>
      </g>
      <g id="Grupo_55080" data-name="Grupo 55080" transform="translate(166.702 353.253)">
        <g id="Grupo_55079" data-name="Grupo 55079">
          <g id="Grupo_55076" data-name="Grupo 55076">
            <path id="Trazado_104257" data-name="Trazado 104257" d="M138.723,297.584a3.993,3.993,0,1,1,3.992,3.994A3.99,3.99,0,0,1,138.723,297.584Zm.421,0a3.572,3.572,0,1,0,3.571-3.573h0A3.576,3.576,0,0,0,139.144,297.584Z" transform="translate(-138.723 -293.592)" fill="#b5ac84"/>
          </g>
          <g id="Grupo_55077" data-name="Grupo 55077" transform="translate(5.091 3.438)">
            <path id="Trazado_104258" data-name="Trazado 104258" d="M140.876,295.6a.551.551,0,1,1,.551.551h0A.553.553,0,0,1,140.876,295.6Zm.281,0a.272.272,0,1,0,.272-.269h0a.269.269,0,0,0-.27.269Z" transform="translate(-140.876 -295.046)" fill="#b5ac84"/>
          </g>
          <g id="Grupo_55078" data-name="Grupo 55078" transform="translate(1.866 3.438)">
            <path id="Trazado_104259" data-name="Trazado 104259" d="M139.512,295.6a.551.551,0,1,1,.553.551A.552.552,0,0,1,139.512,295.6Zm.281,0a.271.271,0,1,0,.272-.269.271.271,0,0,0-.272.269Z" transform="translate(-139.512 -295.046)" fill="#b5ac84"/>
          </g>
        </g>
      </g>
      <g id="Grupo_55089" data-name="Grupo 55089" transform="translate(285.939 377.898)">
        <g id="Grupo_55088" data-name="Grupo 55088">
          <g id="Grupo_55081" data-name="Grupo 55081" transform="translate(0 2.49)">
            <path id="Trazado_104260" data-name="Trazado 104260" d="M189.147,305.067h11.142V322.41H189.147Zm10.294.849h-9.447v15.645h9.447Z" transform="translate(-189.147 -305.067)" fill="#b5ac84"/>
          </g>
          <g id="Grupo_55082" data-name="Grupo 55082" transform="translate(3.098)">
            <path id="Trazado_104261" data-name="Trazado 104261" d="M190.457,304.014H195.4v3.277h-4.945Zm4.1.849H191.3v1.587h3.247Z" transform="translate(-190.457 -304.014)" fill="#b5ac84"/>
          </g>
          <g id="Grupo_55083" data-name="Grupo 55083" transform="translate(3.098 19.005)">
            <path id="Trazado_104262" data-name="Trazado 104262" d="M190.457,312.051H195.4v3.28h-4.945Zm4.1.851H191.3v1.584h3.247Z" transform="translate(-190.457 -312.051)" fill="#b5ac84"/>
          </g>
          <g id="Grupo_55084" data-name="Grupo 55084" transform="translate(1.272 3.869)">
            <path id="Trazado_104263" data-name="Trazado 104263" d="M190.109,311.6a.434.434,0,0,0,.111-.014c1.539-.416,6.335-2.44,8.179-5.292a.425.425,0,0,0-.714-.461c-1.686,2.611-6.29,4.557-7.685,4.933a.425.425,0,0,0,.109.835Z" transform="translate(-189.685 -305.65)" fill="#b5ac84"/>
          </g>
          <g id="Grupo_55085" data-name="Grupo 55085" transform="translate(1.275 6.584)">
            <path id="Trazado_104264" data-name="Trazado 104264" d="M190.107,312.745a.434.434,0,0,0,.111-.014c1.539-.414,6.335-2.44,8.179-5.292a.425.425,0,0,0-.714-.461c-1.686,2.611-6.29,4.557-7.685,4.933a.424.424,0,0,0-.3.523.419.419,0,0,0,.4.312Z" transform="translate(-189.686 -306.798)" fill="#b5ac84"/>
          </g>
          <g id="Grupo_55086" data-name="Grupo 55086" transform="translate(1.272 9.263)">
            <path id="Trazado_104265" data-name="Trazado 104265" d="M190.109,313.909a.349.349,0,0,0,.111-.017c1.539-.414,6.335-2.438,8.179-5.29a.425.425,0,0,0-.1-.594.429.429,0,0,0-.594.1l-.021.033C196,310.752,191.4,312.7,190,313.074a.425.425,0,0,0,.109.835Z" transform="translate(-189.685 -307.931)" fill="#b5ac84"/>
          </g>
          <g id="Grupo_55087" data-name="Grupo 55087" transform="translate(1.272 12.009)">
            <path id="Trazado_104266" data-name="Trazado 104266" d="M190.109,315.034a.434.434,0,0,0,.111-.014c1.539-.416,6.335-2.438,8.179-5.292a.426.426,0,0,0-.714-.461C196,311.877,191.4,313.823,190,314.2a.423.423,0,0,0,.109.832Z" transform="translate(-189.685 -309.093)" fill="#b5ac84"/>
          </g>
        </g>
      </g>
    </g>
  </g>
</svg>
