<svg xmlns="http://www.w3.org/2000/svg" width="393.978" height="297.571" viewBox="0 0 393.978 297.571">
  <g id="Grupo_56065" data-name="Grupo 56065" transform="translate(-1012 -2390)">
    <g id="Grupo_56064" data-name="Grupo 56064">
      <g id="Image_Place_Holder" data-name="Image Place Holder" transform="translate(1012 2420.878)" opacity="0.86">
        <rect id="Image_Place_Holder-2" data-name="Image Place Holder" width="393.978" height="266.693" rx="10" fill="#fbf8ed"/>
      </g>
      <g id="Grupo_55875" data-name="Grupo 55875" transform="translate(1069.786 2390)">
        <path id="Trazado_100521" data-name="Trazado 100521" d="M315.975,432.519c-116.261-4.7-72.246,181.105,62.618,172.435S411.344,436.374,315.975,432.519Z" transform="translate(-211.514 -391.815)" fill="#f7f1d7"/>
        <g id="Grupo_55830" data-name="Grupo 55830" transform="translate(0 15.988)">
          <g id="Grupo_53771" data-name="Grupo 53771" transform="translate(209.674 36.149)">
            <path id="Trazado_100522" data-name="Trazado 100522" d="M348.553,437.423c14.944-3,29.478,6.65,29.478,6.65s-9.69,14.505-24.632,17.5-29.478-6.65-29.478-6.65S333.611,440.422,348.553,437.423Z" transform="translate(-300.491 -436.846)" fill="#8f8b66"/>
            <path id="Trazado_100523" data-name="Trazado 100523" d="M315.485,465.754a.667.667,0,0,1-.53-.778.676.676,0,0,1,.206-.368,99.06,99.06,0,0,1,23.76-14.793,125.794,125.794,0,0,1,45.294-10.4.667.667,0,1,1,.073,1.331h-.026a126.248,126.248,0,0,0-44.79,10.3A97.606,97.606,0,0,0,316.059,465.6.672.672,0,0,1,315.485,465.754Z" transform="translate(-314.944 -432.716)" fill="#b3ae7f"/>
            <path id="Trazado_100524" data-name="Trazado 100524" d="M334.21,445.616a.665.665,0,0,1-.527-.78.676.676,0,0,1,.258-.412l8.98-6.522a.667.667,0,1,1,.8,1.067l-.016.011-8.978,6.525A.662.662,0,0,1,334.21,445.616Z" transform="translate(-284.797 -435.362)" fill="#b3ae7f"/>
            <path id="Trazado_100525" data-name="Trazado 100525" d="M342.08,449.124a.662.662,0,0,1-.217-.081L330.7,442.4a.665.665,0,1,1,.645-1.164l.034.018,11.167,6.647a.666.666,0,0,1-.465,1.227Z" transform="translate(-290.135 -429.921)" fill="#b3ae7f"/>
            <path id="Trazado_100526" data-name="Trazado 100526" d="M327.131,448.247a.665.665,0,0,1-.53-.78.674.674,0,0,1,.144-.305l6.295-7.55a.666.666,0,0,1,1.023.851l-6.292,7.553A.671.671,0,0,1,327.131,448.247Z" transform="translate(-296.196 -432.752)" fill="#b3ae7f"/>
          </g>
          <g id="Grupo_53793" data-name="Grupo 53793" transform="translate(209.599)">
            <path id="Trazado_100527" data-name="Trazado 100527" d="M345.589,432.308c-2.109.906-10.236-.034-10.236-.034s4.847-6.694,6.95-7.6,8.323.78,8.323.78S347.7,431.4,345.589,432.308Z" transform="translate(-282.013 -420.723)" fill="#7d6871"/>
            <g id="Grupo_53773" data-name="Grupo 53773" transform="translate(0 10.006)">
              <g id="Grupo_53772" data-name="Grupo 53772">
                <path id="Trazado_100528" data-name="Trazado 100528" d="M315.531,486.049l-.616-.162c11.943-45.038,56.313-58.972,56.748-59.058l.125.624C371.355,427.539,327.382,441.355,315.531,486.049Z" transform="translate(-314.915 -426.829)" fill="#54464c"/>
              </g>
            </g>
            <g id="Grupo_53776" data-name="Grupo 53776" transform="translate(41.922 16.742)">
              <path id="Trazado_100529" data-name="Trazado 100529" d="M339.959,437.729c-2.145-.825-7.3-7.172-7.3-7.172s8.143-1.407,10.285-.582,5.405,6.368,5.405,6.368S342.1,438.554,339.959,437.729Z" transform="translate(-328.275 -428.918)" fill="#7d6871"/>
              <g id="Grupo_53775" data-name="Grupo 53775">
                <g id="Grupo_53774" data-name="Grupo 53774">
                  <path id="Trazado_100530" data-name="Trazado 100530" d="M345.964,434.755c-3.74-1.77-14.874-4.7-14.986-4.729l.162-.616c.459.12,11.3,2.973,15.1,4.771Z" transform="translate(-330.978 -429.41)" fill="#54464c"/>
                </g>
              </g>
            </g>
            <g id="Grupo_53779" data-name="Grupo 53779" transform="translate(28.711 25.715)">
              <path id="Trazado_100531" data-name="Trazado 100531" d="M334.895,441.169c-2.143-.825-7.3-7.174-7.3-7.174s8.145-1.4,10.285-.582,5.408,6.371,5.408,6.371S337.038,441.991,334.895,441.169Z" transform="translate(-323.213 -432.355)" fill="#7d6871"/>
              <g id="Grupo_53778" data-name="Grupo 53778">
                <g id="Grupo_53777" data-name="Grupo 53777">
                  <path id="Trazado_100532" data-name="Trazado 100532" d="M340.9,438.193c-3.742-1.769-14.876-4.7-14.988-4.729l.162-.616c.459.12,11.3,2.975,15.1,4.771Z" transform="translate(-325.916 -432.848)" fill="#54464c"/>
                </g>
              </g>
            </g>
            <g id="Grupo_53782" data-name="Grupo 53782" transform="translate(17.87 36.433)">
              <path id="Trazado_100533" data-name="Trazado 100533" d="M330.741,445.274c-2.145-.825-7.3-7.172-7.3-7.172s8.143-1.407,10.283-.582,5.408,6.368,5.408,6.368S332.881,446.1,330.741,445.274Z" transform="translate(-319.059 -436.463)" fill="#7d6871"/>
              <g id="Grupo_53781" data-name="Grupo 53781">
                <g id="Grupo_53780" data-name="Grupo 53780">
                  <path id="Trazado_100534" data-name="Trazado 100534" d="M336.748,442.3c-3.743-1.769-14.874-4.7-14.986-4.729l.159-.616c.462.12,11.3,2.973,15.1,4.771Z" transform="translate(-321.762 -436.955)" fill="#54464c"/>
                </g>
              </g>
            </g>
            <g id="Grupo_53785" data-name="Grupo 53785" transform="translate(9.685 47.189)">
              <path id="Trazado_100535" data-name="Trazado 100535" d="M327.6,449.4c-2.145-.825-7.3-7.169-7.3-7.169s8.143-1.409,10.283-.585S336,448.013,336,448.013,329.747,450.221,327.6,449.4Z" transform="translate(-315.923 -440.581)" fill="#7d6871"/>
              <g id="Grupo_53784" data-name="Grupo 53784">
                <g id="Grupo_53783" data-name="Grupo 53783">
                  <path id="Trazado_100536" data-name="Trazado 100536" d="M333.612,446.424c-3.743-1.77-14.874-4.7-14.986-4.732l.162-.616c.459.123,11.3,2.975,15.1,4.771Z" transform="translate(-318.626 -441.076)" fill="#54464c"/>
                </g>
              </g>
            </g>
            <g id="Grupo_53789" data-name="Grupo 53789" transform="translate(35.061)">
              <g id="Grupo_53787" data-name="Grupo 53787">
                <g id="Grupo_53786" data-name="Grupo 53786">
                  <path id="Trazado_100537" data-name="Trazado 100537" d="M336.478,431.193c-.59,2.218-6.35,8.028-6.35,8.028s-2.273-7.947-1.681-10.163S334.195,423,334.195,423,337.068,428.974,336.478,431.193Z" transform="translate(-328.349 -422.995)" fill="#7d6871"/>
                </g>
              </g>
              <g id="Grupo_53788" data-name="Grupo 53788" transform="translate(0.602 5.076)">
                <path id="Trazado_100538" data-name="Trazado 100538" d="M329.209,440.555l-.629-.094c.07-.47,1.746-11.554,3.124-15.521l.6.209C330.947,429.058,329.227,440.44,329.209,440.555Z" transform="translate(-328.58 -424.94)" fill="#54464c"/>
              </g>
            </g>
            <g id="Grupo_53792" data-name="Grupo 53792" transform="translate(18.573 10.927)">
              <path id="Trazado_100539" data-name="Trazado 100539" d="M330.322,434.824c-.17,2.289-4.773,9.051-4.773,9.051s-3.69-7.4-3.51-9.682,4.546-7.01,4.546-7.01S330.5,432.535,330.322,434.824Z" transform="translate(-322.032 -427.182)" fill="#7d6871"/>
              <g id="Grupo_53791" data-name="Grupo 53791" transform="translate(3.03 5.376)">
                <g id="Grupo_53790" data-name="Grupo 53790">
                  <path id="Trazado_100540" data-name="Trazado 100540" d="M323.319,445.073c-.016-.475-.394-11.682.237-15.831l.629.1c-.621,4.092-.232,15.6-.23,15.711Z" transform="translate(-323.192 -429.242)" fill="#54464c"/>
                </g>
              </g>
            </g>
          </g>
          <g id="Grupo_53821" data-name="Grupo 53821" transform="translate(119.453 126.181)">
            <g id="Grupo_53820" data-name="Grupo 53820">
              <g id="Grupo_53806" data-name="Grupo 53806" transform="translate(10.419 6.393)">
                <g id="Grupo_53803" data-name="Grupo 53803" transform="translate(0 12.75)">
                  <path id="Trazado_100548" data-name="Trazado 100548" d="M284.617,480.409a.251.251,0,0,1-.251-.253.263.263,0,0,1,.044-.138c.282-.418.574-.835.877-1.237a.248.248,0,0,1,.35-.052.251.251,0,0,1,.052.352h0c-.295.4-.587.806-.864,1.219A.255.255,0,0,1,284.617,480.409Z" transform="translate(-284.366 -478.678)" fill="#b5ac84"/>
                </g>
                <g id="Grupo_53804" data-name="Grupo 53804" transform="translate(2.579 0.809)">
                  <path id="Trazado_100549" data-name="Trazado 100549" d="M285.6,484.444a.252.252,0,0,1-.188-.418c.6-.681,1.237-1.344,1.887-1.973a.251.251,0,0,1,.371.339l-.023.021c-.645.619-1.271,1.271-1.861,1.942A.267.267,0,0,1,285.6,484.444Zm3.912-3.748a.253.253,0,0,1-.251-.253.249.249,0,0,1,.091-.193c.707-.572,1.446-1.117,2.195-1.631a.25.25,0,1,1,.279.415h0c-.736.5-1.464,1.041-2.158,1.6a.246.246,0,0,1-.157.057ZM294,477.653a.249.249,0,0,1-.25-.248.254.254,0,0,1,.128-.222c.791-.444,1.61-.856,2.435-1.237a.252.252,0,0,1,.209.457c-.814.371-1.621.78-2.4,1.219a.256.256,0,0,1-.123.029Zm4.927-2.245a.255.255,0,0,1-.25-.253.251.251,0,0,1,.164-.235c.859-.305,1.733-.577,2.61-.809a.251.251,0,0,1,.128.485c-.861.227-1.725.5-2.568.8a.224.224,0,0,1-.084.011Z" transform="translate(-285.354 -474.103)" fill="#b5ac84"/>
                </g>
                <g id="Grupo_53805" data-name="Grupo 53805" transform="translate(21.14)">
                  <path id="Trazado_100550" data-name="Trazado 100550" d="M292.717,474.519a.25.25,0,0,1-.042-.5c.5-.086,1-.164,1.5-.23a.253.253,0,0,1,.063.5c-.491.063-.989.136-1.477.222A.233.233,0,0,1,292.717,474.519Z" transform="translate(-292.466 -473.793)" fill="#b5ac84"/>
                </g>
              </g>
              <g id="Grupo_53810" data-name="Grupo 53810" transform="translate(4.956 6.972)">
                <g id="Grupo_53807" data-name="Grupo 53807" transform="translate(39.543)">
                  <path id="Trazado_100551" data-name="Trazado 100551" d="M299.133,474.893a.3.3,0,0,1-.068-.008c-.478-.136-.966-.258-1.446-.373a.252.252,0,0,1,.112-.491c.491.115.984.243,1.469.381a.25.25,0,0,1,.17.311.246.246,0,0,1-.237.18Z" transform="translate(-297.425 -474.015)" fill="#b5ac84"/>
                </g>
                <g id="Grupo_53808" data-name="Grupo 53808" transform="translate(0.043 1.346)">
                  <path id="Trazado_100552" data-name="Trazado 100552" d="M315.144,537.278a.251.251,0,0,1,0-.5h0c1.013-.016,2.033-.076,3.033-.185a.252.252,0,0,1,.052.5c-1.015.11-2.051.17-3.077.185Zm-3.059-.1h-.018c-1.026-.086-2.054-.214-3.061-.392a.252.252,0,0,1,.052-.5l.034.008c.992.17,2,.305,3.012.384a.255.255,0,0,1,.243.261.249.249,0,0,1-.261.24Zm9.137-.556a.252.252,0,0,1-.05-.5c.989-.2,1.978-.457,2.941-.752a.251.251,0,1,1,.149.48h0c-.979.3-1.983.559-2.988.765l-.049.005Zm-15.158-.509A.31.31,0,0,1,306,536.1c-.987-.274-1.973-.6-2.928-.968a.25.25,0,0,1,.18-.467c.942.363,1.91.681,2.884.95a.251.251,0,0,1-.068.493Zm21-1.287a.254.254,0,0,1-.25-.253.247.247,0,0,1,.154-.23c.929-.389,1.853-.825,2.746-1.3a.25.25,0,1,1,.235.441c-.906.486-1.843.927-2.787,1.321a.205.205,0,0,1-.1.016Zm-26.714-.9a.235.235,0,0,1-.11-.026c-.916-.457-1.824-.963-2.693-1.5a.253.253,0,1,1,.266-.431c.856.535,1.749,1.031,2.652,1.482a.251.251,0,0,1-.115.475Zm32.112-1.973a.249.249,0,0,1-.251-.253.254.254,0,0,1,.11-.206c.843-.556,1.668-1.161,2.451-1.8a.254.254,0,0,1,.352.057.246.246,0,0,1-.037.332c-.8.645-1.634,1.258-2.487,1.824a.243.243,0,0,1-.141.036Zm-37.3-1.263a.255.255,0,0,1-.154-.052c-.812-.621-1.608-1.287-2.359-1.986a.251.251,0,1,1,.342-.368c.741.686,1.524,1.344,2.325,1.955a.25.25,0,0,1,.044.352.247.247,0,0,1-.2.1ZM337.22,528.1a.247.247,0,0,1-.18-.076.254.254,0,0,1,0-.355c.723-.7,1.42-1.454,2.07-2.224a.252.252,0,0,1,.4.308l-.016.016c-.66.783-1.368,1.545-2.1,2.26A.245.245,0,0,1,337.22,528.1Zm-46.544-1.569a.246.246,0,0,1-.188-.086c-.686-.765-1.339-1.569-1.947-2.393a.252.252,0,0,1,.076-.347.247.247,0,0,1,.329.05c.6.812,1.242,1.6,1.916,2.357a.252.252,0,0,1-.185.42Zm50.5-3.1a.253.253,0,0,1-.253-.251.236.236,0,0,1,.047-.143c.574-.83,1.114-1.7,1.613-2.576a.251.251,0,0,1,.436.248c-.5.893-1.052,1.772-1.636,2.613a.254.254,0,0,1-.206.11Zm-54.123-1.824a.253.253,0,0,1-.217-.12c-.527-.879-1.018-1.8-1.459-2.719a.251.251,0,1,1,.454-.214h0c.433.908.916,1.809,1.435,2.675a.252.252,0,0,1-.214.381Zm57.119-3.508a.251.251,0,0,1-.251-.251.226.226,0,0,1,.023-.1c.407-.924.775-1.877,1.094-2.832a.252.252,0,1,1,.478.159h0c-.324.971-.7,1.939-1.114,2.876a.259.259,0,0,1-.23.151Zm-59.75-2.012a.251.251,0,0,1-.237-.164c-.35-.963-.658-1.955-.914-2.947a.251.251,0,0,1,.18-.305.248.248,0,0,1,.305.18h0c.253.976.556,1.952.9,2.9a.25.25,0,0,1-.149.321h0a.252.252,0,0,1-.086.016ZM346.1,512.3a.39.39,0,0,1-.055-.005.256.256,0,0,1-.19-.3c.227-.981.407-1.986.538-2.988a.251.251,0,0,1,.5.065c-.133,1.018-.316,2.038-.545,3.035a.248.248,0,0,1-.243.2Zm-63.216-2.13a.252.252,0,0,1-.248-.211c-.162-1.013-.274-2.043-.344-3.067a.252.252,0,0,1,.5-.06v.029c.065,1.007.177,2.023.334,3.017a.248.248,0,0,1-.209.287l-.034.005Zm64.009-3.933h-.008a.253.253,0,0,1-.243-.258c.016-.384.021-.773.021-1.161,0-.624-.018-1.255-.055-1.876a.255.255,0,0,1,.253-.25.247.247,0,0,1,.248.222c.036.632.057,1.271.055,1.905,0,.392-.005.788-.018,1.18a.254.254,0,0,1-.251.243Zm-.355-6.107a.252.252,0,0,1-.248-.211c-.151-1-.355-2-.6-2.978a.25.25,0,1,1,.485-.122c.253.992.459,2.01.616,3.025a.25.25,0,0,1-.211.284h0a.1.1,0,0,1-.039,0Zm-1.5-5.927a.254.254,0,0,1-.237-.167c-.342-.95-.728-1.892-1.159-2.806a.252.252,0,1,1,.449-.23l.005.016c.438.926.833,1.887,1.18,2.85a.254.254,0,0,1-.154.321.227.227,0,0,1-.084.016Zm-2.6-5.533a.255.255,0,0,1-.217-.123c-.514-.867-1.075-1.72-1.668-2.537a.25.25,0,0,1,.4-.3l0,0c.6.827,1.174,1.7,1.7,2.573a.252.252,0,0,1-.217.381Zm-3.6-4.943a.254.254,0,0,1-.188-.086c-.668-.754-1.381-1.487-2.117-2.177a.251.251,0,0,1,.008-.355.248.248,0,0,1,.334-.01c.749.7,1.472,1.443,2.151,2.211a.252.252,0,0,1-.188.418Zm-4.465-4.178a.255.255,0,0,1-.154-.052c-.8-.616-1.636-1.2-2.487-1.741a.251.251,0,0,1,.266-.425c.866.548,1.717,1.143,2.529,1.77a.248.248,0,0,1,.047.352.252.252,0,0,1-.2.1Zm-5.175-3.26a.273.273,0,0,1-.112-.026c-.9-.457-1.835-.872-2.777-1.24a.249.249,0,0,1-.159-.316.254.254,0,0,1,.318-.162l.023.01c.955.373,1.905.8,2.819,1.258a.247.247,0,0,1,.115.334.252.252,0,0,1-.227.141Z" transform="translate(-282.289 -474.531)" fill="#b5ac84"/>
                </g>
                <g id="Grupo_53809" data-name="Grupo 53809" transform="translate(0 28.845)">
                  <path id="Trazado_100553" data-name="Trazado 100553" d="M282.526,487.056h-.01a.254.254,0,0,1-.243-.258c.018-.5.044-1.013.086-1.514a.252.252,0,0,1,.5.039c-.039.493-.065.994-.086,1.49A.252.252,0,0,1,282.526,487.056Z" transform="translate(-282.273 -485.067)" fill="#b5ac84"/>
                </g>
              </g>
              <g id="Grupo_53814" data-name="Grupo 53814" transform="translate(10.419 6.393)">
                <g id="Grupo_53811" data-name="Grupo 53811" transform="translate(0 12.75)">
                  <path id="Trazado_100554" data-name="Trazado 100554" d="M284.617,480.409a.251.251,0,0,1-.251-.253.263.263,0,0,1,.044-.138c.282-.418.574-.835.877-1.237a.248.248,0,0,1,.35-.052.251.251,0,0,1,.052.352h0c-.295.4-.587.806-.864,1.219A.255.255,0,0,1,284.617,480.409Z" transform="translate(-284.366 -478.678)" fill="#b5ac84"/>
                </g>
                <g id="Grupo_53812" data-name="Grupo 53812" transform="translate(2.579 0.809)">
                  <path id="Trazado_100555" data-name="Trazado 100555" d="M285.6,484.444a.252.252,0,0,1-.188-.418c.6-.681,1.237-1.344,1.887-1.973a.251.251,0,0,1,.371.339l-.023.021c-.645.619-1.271,1.271-1.861,1.942A.267.267,0,0,1,285.6,484.444Zm3.912-3.748a.253.253,0,0,1-.251-.253.249.249,0,0,1,.091-.193c.707-.572,1.446-1.117,2.195-1.631a.25.25,0,1,1,.279.415h0c-.736.5-1.464,1.041-2.158,1.6a.246.246,0,0,1-.157.057ZM294,477.653a.249.249,0,0,1-.25-.248.254.254,0,0,1,.128-.222c.791-.444,1.61-.856,2.435-1.237a.252.252,0,0,1,.209.457c-.814.371-1.621.78-2.4,1.219a.256.256,0,0,1-.123.029Zm4.927-2.245a.255.255,0,0,1-.25-.253.251.251,0,0,1,.164-.235c.859-.305,1.733-.577,2.61-.809a.251.251,0,0,1,.128.485c-.861.227-1.725.5-2.568.8a.224.224,0,0,1-.084.011Z" transform="translate(-285.354 -474.103)" fill="#b5ac84"/>
                </g>
                <g id="Grupo_53813" data-name="Grupo 53813" transform="translate(21.14)">
                  <path id="Trazado_100556" data-name="Trazado 100556" d="M292.717,474.519a.25.25,0,0,1-.042-.5c.5-.086,1-.164,1.5-.23a.253.253,0,0,1,.063.5c-.491.063-.989.136-1.477.222A.233.233,0,0,1,292.717,474.519Z" transform="translate(-292.466 -473.793)" fill="#b5ac84"/>
                </g>
              </g>
              <g id="Grupo_53815" data-name="Grupo 53815" transform="translate(31.749)">
                <path id="Trazado_100557" data-name="Trazado 100557" d="M302.968,483.6l-3.983-2.894L295,483.6l1.522-4.685-3.983-2.894h4.922l1.522-4.682,1.522,4.682h4.925l-3.985,2.894Zm-3.983-3.518,3.027,2.2-1.156-3.56,3.027-2.2h-3.742l-1.156-3.563-1.159,3.563h-3.742l3.027,2.2-1.156,3.56Z" transform="translate(-292.539 -471.343)" fill="#b5ac84"/>
              </g>
              <g id="Grupo_53819" data-name="Grupo 53819" transform="translate(0 21.059)">
                <g id="Grupo_53816" data-name="Grupo 53816">
                  <path id="Trazado_100558" data-name="Trazado 100558" d="M287.41,493.484a7.036,7.036,0,1,1,7.036-7.036h0A7.049,7.049,0,0,1,287.41,493.484Zm0-13.339a6.3,6.3,0,1,0,6.3,6.3A6.3,6.3,0,0,0,287.41,480.145Z" transform="translate(-280.374 -479.412)" fill="#b5ac84"/>
                </g>
                <g id="Grupo_53817" data-name="Grupo 53817" transform="translate(3.651 6.06)">
                  <path id="Trazado_100559" data-name="Trazado 100559" d="M282.744,483.678a.972.972,0,1,1,.974-.974A.971.971,0,0,1,282.744,483.678Zm0-1.451a.479.479,0,1,0,.478.48v0A.48.48,0,0,0,282.744,482.227Z" transform="translate(-281.773 -481.734)" fill="#b5ac84"/>
                </g>
                <g id="Grupo_53818" data-name="Grupo 53818" transform="translate(8.338 6.06)">
                  <path id="Trazado_100560" data-name="Trazado 100560" d="M284.542,483.678a.972.972,0,1,1,.971-.974h0A.975.975,0,0,1,284.542,483.678Zm0-1.451a.479.479,0,1,0,.478.48v0A.48.48,0,0,0,284.542,482.227Z" transform="translate(-283.569 -481.734)" fill="#b5ac84"/>
                </g>
              </g>
            </g>
          </g>
          <g id="Grupo_53852" data-name="Grupo 53852" transform="translate(14.084 15.603)">
            <path id="Trazado_100575" data-name="Trazado 100575" d="M246.631,429.794c1.863,1.339,5.246,8.787,5.246,8.787s-8.237-.7-10.1-2.044a4.155,4.155,0,1,1,4.753-6.817Z" transform="translate(-240 -428.974)" fill="#7d6871"/>
            <path id="Trazado_100576" data-name="Trazado 100576" d="M285.4,481.536a.376.376,0,0,1-.342-.222c-.125-.266-12.611-26.772-42.1-49.378a.382.382,0,0,1,.465-.606c29.645,22.727,42.2,49.4,42.324,49.663a.382.382,0,0,1-.185.506A.36.36,0,0,1,285.4,481.536Z" transform="translate(-235.45 -425.29)" fill="#54464c"/>
            <g id="Grupo_53850" data-name="Grupo 53850" transform="translate(8.018 16.437)">
              <path id="Trazado_100577" data-name="Trazado 100577" d="M246.453,435.314c2.257-.412,9.97,2.315,9.97,2.315s-6.217,5.444-8.474,5.857a4.154,4.154,0,0,1-1.5-8.172Z" transform="translate(-243.073 -435.272)" fill="#7d6871"/>
              <path id="Trazado_100578" data-name="Trazado 100578" d="M244.919,438.711a.382.382,0,0,1-.073-.757c6.9-1.355,9.81-1.986,9.839-1.991a.382.382,0,0,1,.162.746c-.029.005-2.949.639-9.855,2A.339.339,0,0,1,244.919,438.711Z" transform="translate(-240.709 -434.174)" fill="#54464c"/>
            </g>
            <g id="Grupo_53851" data-name="Grupo 53851" transform="translate(27.649 13.603)">
              <path id="Trazado_100579" data-name="Trazado 100579" d="M258.864,438.824c-.256,2.281-5.1,8.876-5.1,8.876s-3.416-7.524-3.158-9.805a4.154,4.154,0,1,1,8.26.893l0,.037Z" transform="translate(-250.595 -434.186)" fill="#7d6871"/>
              <path id="Trazado_100580" data-name="Trazado 100580" d="M252.042,446.423h-.031a.382.382,0,0,1-.352-.41c0-.031.24-3.009.937-10.011a.382.382,0,0,1,.759.076c-.694,6.992-.932,9.967-.934,10A.379.379,0,0,1,252.042,446.423Z" transform="translate(-248.884 -431.794)" fill="#54464c"/>
            </g>
          </g>
          <g id="Grupo_53853" data-name="Grupo 53853" transform="translate(0 121.153)">
            <path id="Trazado_100581" data-name="Trazado 100581" d="M234.6,469.433c27.028-.673,45.336,19.065,47.191,35.914,0,0-16.231-.055-20.649-2.169s-10.207-15.651-11.3-17.893-6-9.774-6-9.774Z" transform="translate(-234.604 -469.417)" fill="#8f8b66"/>
            <path id="Trazado_100582" data-name="Trazado 100582" d="M234.6,469.423c18.723,5.606,15.615,19.224,22.721,27.179s24.47,8.735,24.47,8.735c-30.063,5.93-30.942-11.154-34.75-21.356A28.426,28.426,0,0,0,234.6,469.423Z" transform="translate(-234.604 -469.406)" fill="#54464c"/>
            <path id="Trazado_100583" data-name="Trazado 100583" d="M289.451,525.9q-3.441-4.611-6.423-8.631c-7.595-10.225-13.242-17.828-18.219-23.8l.454-4.8a.637.637,0,1,0-1.268-.117l-.337,3.56a88.445,88.445,0,0,0-9.933-10.137.707.707,0,0,0,0-.277l-1.879-8.1a.638.638,0,0,0-1.242.29h0l1.582,6.814a68.16,68.16,0,0,0-8.537-5.8.637.637,0,1,0-.639,1.1,65.677,65.677,0,0,1,15.5,12.243l-12.673-.686a.637.637,0,0,0-.235,1.242.714.714,0,0,0,.164.029l13.939.76.047-.008c1.216,1.329,2.458,2.759,3.753,4.3a.63.63,0,0,0,.428.574l.06.013C268.83,500.3,274.408,507.8,282,518.032q2.995,4.032,6.423,8.636a.638.638,0,0,0,1.023-.762Z" transform="translate(-221.584 -463.488)" fill="#b3ae7f"/>
          </g>
          <g id="Grupo_53854" data-name="Grupo 53854" transform="translate(6.512 156.752)">
            <path id="Trazado_100584" data-name="Trazado 100584" d="M258.059,483.47c-10.619-2.137-20.96,4.711-20.96,4.711s6.882,10.319,17.5,12.457,20.96-4.711,20.96-4.711S268.681,485.608,258.059,483.47Z" transform="translate(-237.099 -483.057)" fill="#8f8b66"/>
            <path id="Trazado_100585" data-name="Trazado 100585" d="M288.51,503.357a.334.334,0,0,1-.415-.023,69.465,69.465,0,0,0-16.674-10.392,89.9,89.9,0,0,0-31.89-7.349.33.33,0,0,1,.023-.66,90.578,90.578,0,0,1,32.138,7.409,70.268,70.268,0,0,1,16.849,10.5.333.333,0,0,1,.024.467.483.483,0,0,1-.055.049Z" transform="translate(-233.682 -480.039)" fill="#b3ae7f"/>
            <path id="Trazado_100586" data-name="Trazado 100586" d="M249.062,489.011a.329.329,0,0,1-.386,0l-6.379-4.643a.329.329,0,0,1,.365-.548l.021.016,6.381,4.643a.327.327,0,0,1,.076.459.346.346,0,0,1-.076.076Z" transform="translate(-228.969 -481.917)" fill="#b3ae7f"/>
            <path id="Trazado_100587" data-name="Trazado 100587" d="M252.358,486.787l-.023.016-7.942,4.719a.33.33,0,1,1-.339-.566h0L252,486.236a.329.329,0,0,1,.36.551Z" transform="translate(-226.163 -478.022)" fill="#b3ae7f"/>
            <path id="Trazado_100588" data-name="Trazado 100588" d="M252.916,490.9a.332.332,0,0,1-.446-.057L248,485.467a.33.33,0,1,1,.485-.446l.021.026,4.468,5.371a.328.328,0,0,1-.042.465Z" transform="translate(-219.69 -480.069)" fill="#b3ae7f"/>
          </g>
          <g id="Grupo_53919" data-name="Grupo 53919" transform="translate(118.977 15.112)">
            <g id="Grupo_53918" data-name="Grupo 53918">
              <g id="Grupo_53915" data-name="Grupo 53915">
                <path id="Trazado_100716" data-name="Trazado 100716" d="M280.775,446.367c-1.7-1.274.564-6.436,3.74-10.7s7.488-7.9,9.192-6.629-.564,6.436-3.74,10.7S282.482,447.641,280.775,446.367ZM293.438,429.4c-1.143-.851-4.854,1.571-8.56,6.535S279.9,445.151,281.044,446s4.854-1.571,8.56-6.538,4.974-9.21,3.834-10.063Z" transform="translate(-280.192 -428.785)" fill="#b5ac84"/>
              </g>
              <g id="Grupo_53916" data-name="Grupo 53916" transform="translate(0.015 11.964)">
                <path id="Trazado_100717" data-name="Trazado 100717" d="M280.765,438.988c-.893-.668-.715-2.367.4-3.87s2.7-2.153,3.594-1.488.715,2.367-.4,3.868S281.661,439.653,280.765,438.988Zm3.729-5c-.668-.5-2.025.141-2.962,1.4s-1.164,2.738-.5,3.236,2.025-.141,2.965-1.4,1.161-2.738.5-3.236Z" transform="translate(-280.197 -433.369)" fill="#b5ac84"/>
              </g>
              <g id="Grupo_53917" data-name="Grupo 53917" transform="translate(7.773 0.227)">
                <path id="Trazado_100718" data-name="Trazado 100718" d="M286.526,432.1a1.352,1.352,0,0,1,.295,1.863,6.257,6.257,0,0,1,.822,1.342c1.587-3.017,2.114-5.491,1.135-6.219s-3.181.467-5.608,2.824a6.131,6.131,0,0,1,1.5.42A1.353,1.353,0,0,1,286.526,432.1Z" transform="translate(-283.17 -428.872)" fill="#b5ac84"/>
              </g>
            </g>
          </g>
        </g>
        <g id="Grupo_55874" data-name="Grupo 55874" transform="translate(39.876)">
          <g id="Grupo_55850" data-name="Grupo 55850" transform="translate(0 9.356)">
            <g id="Grupo_55831" data-name="Grupo 55831" transform="translate(62.738 50.772)">
              <path id="Trazado_105284" data-name="Trazado 105284" d="M273.922,439.908s6.9,3.622,9.735,8.263,12.9,20.824,15.051,34.179c.906,15.393-4.867,34.293-4.867,34.293s1.472,8.263-.564,12-9.62,7.469-9.62,7.469Z" transform="translate(-273.922 -439.908)" fill="#b46e50"/>
            </g>
            <g id="Grupo_55832" data-name="Grupo 55832" transform="translate(0 50.772)">
              <path id="Trazado_105285" data-name="Trazado 105285" d="M274.765,439.908s-6.906,3.622-9.735,8.263-12.9,20.824-15.051,34.179c-.906,15.393,4.865,34.293,4.865,34.293s-1.472,8.263.566,12,9.62,7.469,9.62,7.469Z" transform="translate(-249.883 -439.908)" fill="#b46e50"/>
            </g>
            <g id="Grupo_55835" data-name="Grupo 55835" transform="translate(6.553 110.44)">
              <g id="Grupo_55833" data-name="Grupo 55833">
                <path id="Trazado_105286" data-name="Trazado 105286" d="M285.234,584.858c-.133-1.159-.344-2.359-.538-3.458a28.307,28.307,0,0,1-.438-4.807V523.208c.418-10.241,3.719-37.532,3.719-37.532-.671-10.147-13.543-24.966-30.058-22.667-2.132,13.861-.334,32.255,2.946,45.675a24.067,24.067,0,0,1-.264,12.574c-7.078,23.865,7.91,42.885,8.44,55.334a10.5,10.5,0,0,1-1.407,5.75,10.108,10.108,0,0,1-1.95,2.378c-1.506,1.347-2.808,1.908-6.144,3.9-3.453,2.052-7.161,3.737-7.148,5.246,0,0,.065.684.953.684h18.347c2.785,0,3.521-1.957,5.59-3,2-1,5.4.478,7.394-1.655.731-.778.8-2.506.621-4.439C285.281,585.257,285.257,585.059,285.234,584.858Z" transform="translate(-252.394 -462.771)" fill="#b46e50"/>
                <path id="Trazado_105287" data-name="Trazado 105287" d="M272.773,514.587c-1.994,2.132-5.395.652-7.394,1.655-2.07,1.039-2.806,3-5.59,3,0,0,1.754.266,3.7-2.161,4.421-5.528,7.511-4.319,9.844-7.527.023.2.047.4.065.6C273.574,512.082,273.5,513.809,272.773,514.587Z" transform="translate(-240.489 -387.463)" fill="#9b563e"/>
                <path id="Trazado_105288" data-name="Trazado 105288" d="M266.094,510.345a8.987,8.987,0,0,1-2.417,3.007c-1.725,1.318-3.458,2.166-4.272,2.952a2.473,2.473,0,0,0-.671,1.655h-1.443A3.542,3.542,0,0,1,258,516.3c.814-1.01,2.312-1.574,4.189-2.753A26.465,26.465,0,0,0,266.094,510.345Z" transform="translate(-244.511 -386.183)" fill="#9b563e"/>
                <path id="Trazado_105289" data-name="Trazado 105289" d="M258.87,513.658a7.4,7.4,0,0,1,1.882.146,1.611,1.611,0,0,0,1.041-.136c.365-.185.775-.48.835-.887-.026-1.015-1.756-1.208-3.889.524A.2.2,0,0,0,258.87,513.658Z" transform="translate(-242.297 -383.504)" fill="#d28369"/>
                <path id="Trazado_105290" data-name="Trazado 105290" d="M261.884,511.57c-1.516,1.383-3.829,2.61-4.552,3.291a1.825,1.825,0,0,0-.679,1.125H255.8a2.478,2.478,0,0,1,1.08-1.715C257.99,513.569,259.825,512.664,261.884,511.57Z" transform="translate(-246.914 -384.211)" fill="#9b563e"/>
                <path id="Trazado_105291" data-name="Trazado 105291" d="M260.45,511.57c-1.514,1.383-3.829,2.61-4.552,3.291a1.816,1.816,0,0,0-.676,1.125h-.859a2.488,2.488,0,0,1,1.08-1.715C256.556,513.569,258.391,512.664,260.45,511.57Z" transform="translate(-249.223 -384.211)" fill="#9b563e"/>
                <path id="Trazado_105292" data-name="Trazado 105292" d="M259.208,511.57c-1.516,1.383-3.829,2.61-4.554,3.291a1.817,1.817,0,0,0-.676,1.125h-.856a2.469,2.469,0,0,1,1.08-1.715C255.312,513.569,257.149,512.664,259.208,511.57Z" transform="translate(-251.222 -384.211)" fill="#9b563e"/>
                <path id="Trazado_105293" data-name="Trazado 105293" d="M256.583,513.654a3.434,3.434,0,0,1,1.61,0s.692-.739.553-.981C258.507,512.295,257.4,512.384,256.583,513.654Z" transform="translate(-245.65 -382.751)" fill="#d28369"/>
                <path id="Trazado_105294" data-name="Trazado 105294" d="M255.093,513.654a3.434,3.434,0,0,1,1.61,0s.692-.739.556-.981C257.019,512.295,255.912,512.384,255.093,513.654Z" transform="translate(-248.049 -382.751)" fill="#d28369"/>
                <path id="Trazado_105295" data-name="Trazado 105295" d="M253.809,513.557a2.958,2.958,0,0,1,1.4,0s.6-.639.478-.851C255.477,512.38,254.519,512.456,253.809,513.557Z" transform="translate(-250.116 -382.654)" fill="#d28369"/>
                <path id="Trazado_105296" data-name="Trazado 105296" d="M252.6,513.566a2.987,2.987,0,0,1,1.394,0s.6-.639.478-.848C254.26,512.388,253.3,512.467,252.6,513.566Z" transform="translate(-252.07 -382.639)" fill="#d28369"/>
              </g>
              <g id="Grupo_55834" data-name="Grupo 55834" transform="translate(4.182 2.989)">
                <path id="Trazado_105297" data-name="Trazado 105297" d="M255.648,495.539a125.344,125.344,0,0,1-1.093-31.623l.832.094a124.364,124.364,0,0,0,1.091,31.4Z" transform="translate(-253.996 -463.916)" fill="#9b563e"/>
                <path id="Trazado_105298" data-name="Trazado 105298" d="M258.252,484.234c-1.083,1.352,1.122,10.494,4.129,9.79,3.424-.564,6.044-7.989,4.734-9.677C265.987,482.895,259.964,482.1,258.252,484.234Z" transform="translate(-247.597 -433.318)" fill="#9b563e"/>
              </g>
            </g>
            <g id="Grupo_55838" data-name="Grupo 55838" transform="translate(44.748 110.44)">
              <g id="Grupo_55836" data-name="Grupo 55836">
                <path id="Trazado_105299" data-name="Trazado 105299" d="M269.772,584.858c.133-1.159.345-2.359.538-3.458a28.316,28.316,0,0,0,.438-4.807V523.208c-.418-10.241-3.719-37.532-3.719-37.532.671-10.147,13.542-24.966,30.058-22.667,2.13,13.861.334,32.255-2.947,45.675a24.067,24.067,0,0,0,.264,12.574c7.078,23.865-7.91,42.885-8.44,55.334a10.5,10.5,0,0,0,1.407,5.75,10.1,10.1,0,0,0,1.95,2.378c1.506,1.347,2.808,1.908,6.144,3.9,3.453,2.052,7.161,3.737,7.148,5.246,0,0-.065.684-.953.684H283.312c-2.785,0-3.521-1.957-5.59-3-2-1-5.4.478-7.394-1.655-.731-.778-.8-2.506-.621-4.439C269.725,585.257,269.749,585.059,269.772,584.858Z" transform="translate(-267.029 -462.771)" fill="#b46e50"/>
                <path id="Trazado_105300" data-name="Trazado 105300" d="M268.728,514.587c1.994,2.132,5.395.652,7.394,1.655,2.07,1.039,2.806,3,5.59,3,0,0-1.754.266-3.7-2.161-4.421-5.528-7.511-4.319-9.844-7.527-.023.2-.047.4-.065.6C267.926,512.082,268,513.809,268.728,514.587Z" transform="translate(-265.429 -387.463)" fill="#9b563e"/>
                <path id="Trazado_105301" data-name="Trazado 105301" d="M272.393,510.345a8.985,8.985,0,0,0,2.417,3.007c1.725,1.318,3.458,2.166,4.272,2.952a2.473,2.473,0,0,1,.671,1.655H281.2a3.541,3.541,0,0,0-.707-1.655c-.814-1.01-2.312-1.574-4.189-2.753A26.465,26.465,0,0,1,272.393,510.345Z" transform="translate(-258.394 -386.183)" fill="#9b563e"/>
                <path id="Trazado_105302" data-name="Trazado 105302" d="M276.631,513.658a7.406,7.406,0,0,0-1.882.146,1.611,1.611,0,0,1-1.041-.136c-.365-.185-.775-.48-.835-.887.026-1.015,1.756-1.208,3.889.524A.2.2,0,0,1,276.631,513.658Z" transform="translate(-257.621 -383.504)" fill="#d28369"/>
                <path id="Trazado_105303" data-name="Trazado 105303" d="M274.927,511.57c1.516,1.383,3.829,2.61,4.552,3.291a1.826,1.826,0,0,1,.679,1.125h.856a2.478,2.478,0,0,0-1.08-1.715C278.821,513.569,276.986,512.664,274.927,511.57Z" transform="translate(-254.314 -384.211)" fill="#9b563e"/>
                <path id="Trazado_105304" data-name="Trazado 105304" d="M276.361,511.57c1.514,1.383,3.829,2.61,4.552,3.291a1.817,1.817,0,0,1,.676,1.125h.859a2.487,2.487,0,0,0-1.08-1.715C280.255,513.569,278.42,512.664,276.361,511.57Z" transform="translate(-252.006 -384.211)" fill="#9b563e"/>
                <path id="Trazado_105305" data-name="Trazado 105305" d="M277.6,511.57c1.516,1.383,3.829,2.61,4.554,3.291a1.816,1.816,0,0,1,.676,1.125h.856a2.469,2.469,0,0,0-1.08-1.715C281.5,513.569,279.662,512.664,277.6,511.57Z" transform="translate(-250.007 -384.211)" fill="#9b563e"/>
                <path id="Trazado_105306" data-name="Trazado 105306" d="M277.82,513.654a3.434,3.434,0,0,0-1.61,0s-.692-.739-.553-.981C275.894,512.295,277,512.384,277.82,513.654Z" transform="translate(-253.17 -382.751)" fill="#d28369"/>
                <path id="Trazado_105307" data-name="Trazado 105307" d="M279.311,513.654a3.434,3.434,0,0,0-1.61,0s-.692-.739-.556-.981C277.385,512.295,278.492,512.384,279.311,513.654Z" transform="translate(-250.772 -382.751)" fill="#d28369"/>
                <path id="Trazado_105308" data-name="Trazado 105308" d="M280.414,513.557a2.957,2.957,0,0,0-1.4,0s-.6-.639-.478-.851C278.746,512.38,279.7,512.456,280.414,513.557Z" transform="translate(-248.524 -382.654)" fill="#d28369"/>
                <path id="Trazado_105309" data-name="Trazado 105309" d="M281.626,513.566a2.984,2.984,0,0,0-1.394,0s-.6-.639-.478-.848C279.961,512.388,280.919,512.467,281.626,513.566Z" transform="translate(-246.568 -382.639)" fill="#d28369"/>
              </g>
              <g id="Grupo_55837" data-name="Grupo 55837" transform="translate(11.539 2.989)">
                <path id="Trazado_105310" data-name="Trazado 105310" d="M278.94,495.539a125.35,125.35,0,0,0,1.094-31.623l-.832.094a124.366,124.366,0,0,1-1.091,31.4Z" transform="translate(-260.729 -463.916)" fill="#9b563e"/>
                <path id="Trazado_105311" data-name="Trazado 105311" d="M280.657,484.234c1.083,1.352-1.122,10.494-4.129,9.79-3.424-.564-6.044-7.989-4.734-9.677C272.921,482.895,278.945,482.1,280.657,484.234Z" transform="translate(-271.45 -433.318)" fill="#9b563e"/>
              </g>
            </g>
            <g id="Grupo_55842" data-name="Grupo 55842" transform="translate(10.956 39.025)">
              <g id="Grupo_55841" data-name="Grupo 55841">
                <g id="Grupo_55839" data-name="Grupo 55839" transform="translate(1.991 35.46)">
                  <path id="Trazado_105312" data-name="Trazado 105312" d="M315.867,476.622c-12.011,5.241-22.2,8.85-27.972,10.766q-1.468.485-2.539.827c-.71-.227-1.561-.5-2.537-.827-5.77-1.916-15.962-5.525-27.975-10.766a70.81,70.81,0,0,1,4.043-18.955c.984-2.8,1.754-4.541,1.754-4.541l22.178-3.709,2.537-.423,2.539.423,22.176,3.709s.7,1.735,1.631,4.541A88.306,88.306,0,0,1,315.867,476.622Z" transform="translate(-254.844 -448.994)" fill="#b46e50"/>
                  <path id="Trazado_105313" data-name="Trazado 105313" d="M267.309,455.144s-1.613,3.333-.175,6.013C269.076,458.939,267.309,455.144,267.309,455.144Z" transform="translate(-236.02 -439.094)" fill="#8c4834"/>
                  <path id="Trazado_105314" data-name="Trazado 105314" d="M309.208,457.666H256.393c.984-2.8,1.754-4.541,1.754-4.541l22.178-3.709,2.537-.423,2.539.423,22.176,3.709S308.282,454.861,309.208,457.666Z" transform="translate(-252.35 -448.994)" fill="#9b563e"/>
                  <path id="Trazado_105315" data-name="Trazado 105315" d="M255.713,474.2l-.835-.042a70.735,70.735,0,0,1,4.066-19.073c.976-2.787,1.756-4.557,1.764-4.573l.765.339c-.008.016-.775,1.756-1.738,4.51A69.977,69.977,0,0,0,255.713,474.2Z" transform="translate(-254.789 -446.55)" fill="#9b563e"/>
                  <path id="Trazado_105316" data-name="Trazado 105316" d="M281.444,474.2a69.98,69.98,0,0,0-4.022-18.838c-.963-2.753-1.733-4.494-1.741-4.51l.767-.339c.008.016.788,1.785,1.764,4.573a70.84,70.84,0,0,1,4.066,19.073Z" transform="translate(-221.3 -446.55)" fill="#9b563e"/>
                </g>
                <g id="Grupo_55840" data-name="Grupo 55840" transform="translate(17.525)">
                  <path id="Trazado_105317" data-name="Trazado 105317" d="M292.772,445.358l-.981,11.875s-10.419,5.676-15.218,6.7c-5.937-.746-14.947-6.5-14.947-6.5s-1.456-8.967-.512-12.073c1.5-.906,4.875-2.164,7.905-3.855.136-.585.292-1.587.436-2.6.235-1.647.428-3.335.428-3.335l14.08-.157c.1.772.2,2.289.36,3.865.091.911.2,1.843.347,2.665C285.418,442.289,292.772,445.358,292.772,445.358Z" transform="translate(-260.796 -435.407)" fill="#b46e50"/>
                  <path id="Trazado_105318" data-name="Trazado 105318" d="M263.515,439.681a31.139,31.139,0,0,0,8.673,1.511,30.776,30.776,0,0,0,8.735-1.707Z" transform="translate(-256.418 -428.842)" fill="#9b563e"/>
                  <path id="Trazado_105319" data-name="Trazado 105319" d="M266.7,452.083a76.521,76.521,0,0,1,.864-9.792,60.549,60.549,0,0,1,.971,9.792Z" transform="translate(-251.299 -424.325)" fill="#8c4834"/>
                  <path id="Trazado_105320" data-name="Trazado 105320" d="M278.437,435.869a6.357,6.357,0,0,1-3.622,6.41,7.271,7.271,0,0,1-3.066.71,8.846,8.846,0,0,1-4.108-1.047,6.36,6.36,0,0,1-3.335-6.376v0l14.08-.157C278.4,435.54,278.418,435.7,278.437,435.869Z" transform="translate(-255.216 -435.407)" fill="#8c4834"/>
                </g>
                <path id="Trazado_105321" data-name="Trazado 105321" d="M257.64,462.435s-3.985-11.413,4.523-18.908a42.638,42.638,0,0,1,21.409,4.458c7.764-4.053,15.8-5.47,21.064-4.458a21.361,21.361,0,0,1,2.435,18.841C289.851,462.367,257.64,462.435,257.64,462.435Z" transform="translate(-249.852 -422.843)" fill="#ffad54"/>
                <path id="Trazado_105322" data-name="Trazado 105322" d="M258.8,450.691l.638-9.1,5.656-2.828,1.268,13.847Z" transform="translate(-246.487 -430.008)" fill="#ffad54"/>
                <path id="Trazado_105323" data-name="Trazado 105323" d="M279.736,450.691l-.639-9.1-5.656-2.828-1.268,13.847Z" transform="translate(-224.954 -430.008)" fill="#ffad54"/>
                <path id="Trazado_105324" data-name="Trazado 105324" d="M255.751,459.477a51.152,51.152,0,0,0-1.67,12.605c8.86,2.158,27.774,12.835,31.18,19.081h2.612s12.089-15.307,30.942-18.373c-.728-10.52-1.563-13.428-1.563-13.428Z" transform="translate(-254.081 -396.843)" fill="#ffad54"/>
              </g>
            </g>
            <g id="Grupo_55849" data-name="Grupo 55849" transform="translate(30.306)">
              <path id="Trazado_105325" data-name="Trazado 105325" d="M266.284,441.85a2.058,2.058,0,0,1-2.088-3.142,2.716,2.716,0,0,1-2.448-1.91,2.652,2.652,0,0,1,1-2.9,2.348,2.348,0,0,1-1.237-2.346,2.411,2.411,0,0,1,1.764-2.033,2.327,2.327,0,0,1,.645-2.276,1.659,1.659,0,0,1,2.2-.305,2.4,2.4,0,0,1,1.459-1.986,2.126,2.126,0,0,1,2.244.535,2.585,2.585,0,0,1,1.592-2.077,3.735,3.735,0,0,1,2.466.01,3.8,3.8,0,0,1,1.31-2.461,3.094,3.094,0,0,1,2.725-.326,2.645,2.645,0,0,1,1.683,2.117,2.943,2.943,0,0,1,2.735.305,2.869,2.869,0,0,1,1.133,2.466,3.072,3.072,0,0,1,2.579,1.211,3.156,3.156,0,0,1,.436,2.858,4.526,4.526,0,0,1,2.592,1.068,2.426,2.426,0,0,1-.05,3.33,2.5,2.5,0,0,1,1.052,1.913,2.092,2.092,0,0,1-1,1.717,1.124,1.124,0,0,1,.441,1.148,1.584,1.584,0,0,1-.759.906,4.69,4.69,0,0,1-1.133.42,3.11,3.11,0,0,1-2.109,2.083,2.294,2.294,0,0,1-1.3-.018,1.551,1.551,0,0,1-.947-.853,3.324,3.324,0,0,1-3.147.9,2.719,2.719,0,0,1-1.289-.535,1.8,1.8,0,0,1-.678-1.2,1.911,1.911,0,0,1-.8,1.206,4.086,4.086,0,0,1-1.245.582,3.214,3.214,0,0,1-1.36.211,1.792,1.792,0,0,1-1.428-1.125,2.53,2.53,0,0,1-1.876,1.255,1.937,1.937,0,0,1-1.318-.1,1.128,1.128,0,0,1-.65-1.086,3.094,3.094,0,0,1-.958,1.219,1.737,1.737,0,0,1-1.545.4A.982.982,0,0,1,266.284,441.85Z" transform="translate(-261.495 -420.454)" fill="#2e3b4a"/>
              <path id="Trazado_105326" data-name="Trazado 105326" d="M263.581,433.292s.386-7.36,7.942-8.088c5.992-.577,10.108,4.116,9.531,8.738C277.875,431.7,266.614,431.919,263.581,433.292Z" transform="translate(-258.137 -412.885)" fill="#d26066"/>
              <path id="Trazado_105327" data-name="Trazado 105327" d="M262.408,440.8s-2.678-9.294,7.19-13.493c9.053-3.852,21.26,2.573,17.061,15.223-3.568,5.776-7.4,6.825-12.389,6.825C265.452,449.357,262.408,440.8,262.408,440.8Z" transform="translate(-260.558 -411.208)" fill="#2e3b4a"/>
              <g id="Grupo_55843" data-name="Grupo 55843" transform="translate(21.784 28.699)">
                <path id="Trazado_105328" data-name="Trazado 105328" d="M270.288,434.829c.112-.083,1.647-3.294,3.432-3.377s1.537,2.652,1.2,3.432-1,2.96-2.986,3.544a3.163,3.163,0,0,1-2.093-.976Z" transform="translate(-269.842 -431.45)" fill="#b46e50"/>
                <path id="Trazado_105329" data-name="Trazado 105329" d="M273.978,433.832c.021-.107.673-1.722-.295-1.976s-2.584,2.122-3.359,2.92c.692-.042,1.615-.232,1.595.42s-1.07,1.407-1.994,1.365c.924.441,1.281.736,1.952.566s1.365-1.219,1.365-1.219a2.151,2.151,0,0,1-1.952.757c1.091-.566,1.91-1.848,1.135-2.184a1.828,1.828,0,0,0-1.43-.021s1.24-1.555,2.038-1.743S273.978,433.832,273.978,433.832Z" transform="translate(-269.708 -430.827)" fill="#9b563e"/>
                <path id="Trazado_105330" data-name="Trazado 105330" d="M270.82,432.735s.663.013.806.363a1.587,1.587,0,0,1-.183,1.339C272.469,433.541,272.43,432.189,270.82,432.735Z" transform="translate(-268.268 -429.585)" fill="#9b563e"/>
              </g>
              <g id="Grupo_55844" data-name="Grupo 55844" transform="translate(0.969 28.683)">
                <path id="Trazado_105331" data-name="Trazado 105331" d="M266.738,434.823c-.112-.084-1.647-3.294-3.435-3.377s-1.535,2.652-1.2,3.432,1,2.957,2.986,3.544a3.175,3.175,0,0,0,2.093-.976Z" transform="translate(-261.866 -431.444)" fill="#b46e50"/>
                <path id="Trazado_105332" data-name="Trazado 105332" d="M262.413,433.824c-.021-.1-.673-1.723.292-1.973s2.584,2.122,3.361,2.918c-.692-.042-1.618-.23-1.595.42s1.07,1.409,1.994,1.367c-.924.441-1.282.733-1.952.566s-1.368-1.219-1.368-1.219a2.158,2.158,0,0,0,1.955.757c-1.094-.566-1.91-1.848-1.135-2.185a1.828,1.828,0,0,1,1.43-.021s-1.24-1.556-2.038-1.743S262.413,433.824,262.413,433.824Z" transform="translate(-261.364 -430.821)" fill="#9b563e"/>
                <path id="Trazado_105333" data-name="Trazado 105333" d="M263.735,432.729s-.66.013-.8.363a1.563,1.563,0,0,0,.183,1.336C262.089,433.533,262.128,432.183,263.735,432.729Z" transform="translate(-260.972 -429.579)" fill="#9b563e"/>
              </g>
              <path id="Trazado_105334" data-name="Trazado 105334" d="M278.888,431.63a6.519,6.519,0,0,1,2.973,5.854c-.068,1.143-.13,2.38-.13,2.954a10.588,10.588,0,0,1-.53,4.646c-.939,2.4-4.494,4.7-8.438,4.745a9.241,9.241,0,0,1-7.9-3.576,7.368,7.368,0,0,1-1.255-5.063c.094-1.6-.517-5.494-.188-6.527.775-2.443,3-2.957,5.87-3.38s5.961-1.456,6.572-2.4C276.27,430,277.578,430.784,278.888,431.63Z" transform="translate(-258.555 -406.878)" fill="#b46e50"/>
              <g id="Grupo_55846" data-name="Grupo 55846" transform="translate(15.583 27.54)">
                <path id="Trazado_105335" data-name="Trazado 105335" d="M267.466,433.015a20.424,20.424,0,0,1,3.226-.968,23.95,23.95,0,0,1,3.411-.277,7.23,7.23,0,0,0-2.939-.76,8.2,8.2,0,0,0-3.249.621A6.685,6.685,0,0,0,267.466,433.015Z" transform="translate(-267.466 -431.006)" fill="#312342"/>
                <g id="Grupo_55845" data-name="Grupo 55845" transform="translate(0.605 1.78)">
                  <path id="Trazado_105336" data-name="Trazado 105336" d="M267.7,434.247a4.012,4.012,0,0,1,.684.125,4.5,4.5,0,0,0,2.636.094,3.9,3.9,0,0,0,2.291-2.177C270.762,432.838,268.105,433.655,267.7,434.247Z" transform="translate(-267.698 -430.719)" fill="#9b563e"/>
                  <path id="Trazado_105337" data-name="Trazado 105337" d="M273.312,432.663a5.143,5.143,0,0,1-2.74,1.783,6.731,6.731,0,0,1-2.14.031,1.292,1.292,0,0,0-.671.117l-.063.029a2.89,2.89,0,0,1,.151-.7,2.758,2.758,0,0,1,.715-1.141,2.492,2.492,0,0,1,1.044-.574,4.86,4.86,0,0,1,2.265-.023A6.476,6.476,0,0,1,273.312,432.663Z" transform="translate(-267.698 -431.095)" fill="#fff"/>
                  <path id="Trazado_105338" data-name="Trazado 105338" d="M270.157,434.119a1.757,1.757,0,0,1-2.127-1.341,2.492,2.492,0,0,1,1.044-.574,4.86,4.86,0,0,1,2.265-.023A1.65,1.65,0,0,1,270.157,434.119Z" transform="translate(-267.164 -431.095)" fill="#312342"/>
                  <path id="Trazado_105339" data-name="Trazado 105339" d="M268.936,432.682c-.016-.326,1.5-.292,1.446.044S268.952,433.006,268.936,432.682Z" transform="translate(-265.705 -430.454)" fill="#fff"/>
                  <path id="Trazado_105340" data-name="Trazado 105340" d="M268.431,433.329a1.292,1.292,0,0,0-.671.117l-.063.029a2.89,2.89,0,0,1,.151-.7A1.6,1.6,0,0,0,268.431,433.329Z" transform="translate(-267.698 -429.947)" fill="#8c4834"/>
                  <path id="Trazado_105341" data-name="Trazado 105341" d="M269.937,432.081a2.9,2.9,0,0,0-2.239,2.782,3.014,3.014,0,0,1,2.372-2.252,5.156,5.156,0,0,1,3.239.3l.752-.65A9.214,9.214,0,0,0,269.937,432.081Z" transform="translate(-267.698 -431.335)" fill="#312342"/>
                  <path id="Trazado_105342" data-name="Trazado 105342" d="M267.725,433.319a3.384,3.384,0,0,1,1.751-1.075,8.615,8.615,0,0,1,2.816-.19,4.977,4.977,0,0,0-2.412-.334A2.552,2.552,0,0,0,267.725,433.319Z" transform="translate(-267.655 -431.688)" fill="#9b563e"/>
                </g>
              </g>
              <g id="Grupo_55848" data-name="Grupo 55848" transform="translate(5.585 27.54)">
                <path id="Trazado_105343" data-name="Trazado 105343" d="M270.3,433.015a20.525,20.525,0,0,0-3.226-.968,23.975,23.975,0,0,0-3.414-.277,7.23,7.23,0,0,1,2.939-.76,8.2,8.2,0,0,1,3.249.621A6.792,6.792,0,0,1,270.3,433.015Z" transform="translate(-263.587 -431.006)" fill="#312342"/>
                <g id="Grupo_55847" data-name="Grupo 55847" transform="translate(0 2.023)">
                  <path id="Trazado_105344" data-name="Trazado 105344" d="M269.534,434.343a3.793,3.793,0,0,0-.681.123,4.508,4.508,0,0,1-2.639.094,3.9,3.9,0,0,1-2.291-2.177C266.473,432.931,269.127,433.748,269.534,434.343Z" transform="translate(-263.171 -430.812)" fill="#9b563e"/>
                  <path id="Trazado_105345" data-name="Trazado 105345" d="M263.922,432.758a5.147,5.147,0,0,0,2.74,1.78,6.828,6.828,0,0,0,2.14.034,1.277,1.277,0,0,1,.673.115l.06.031a2.893,2.893,0,0,0-.151-.707,2.731,2.731,0,0,0-.715-1.141,2.488,2.488,0,0,0-1.044-.571,4.79,4.79,0,0,0-2.265-.023A6.314,6.314,0,0,0,263.922,432.758Z" transform="translate(-263.173 -431.187)" fill="#fff"/>
                  <path id="Trazado_105346" data-name="Trazado 105346" d="M265.663,434.212a1.757,1.757,0,0,0,2.127-1.342,2.488,2.488,0,0,0-1.044-.571,4.79,4.79,0,0,0-2.265-.023A1.649,1.649,0,0,0,265.663,434.212Z" transform="translate(-262.294 -431.187)" fill="#312342"/>
                  <path id="Trazado_105347" data-name="Trazado 105347" d="M265.792,433.424a1.277,1.277,0,0,1,.673.115l.06.031a2.9,2.9,0,0,0-.151-.707A1.629,1.629,0,0,1,265.792,433.424Z" transform="translate(-260.163 -430.04)" fill="#8c4834"/>
                  <path id="Trazado_105348" data-name="Trazado 105348" d="M267.759,432.174A2.908,2.908,0,0,1,270,434.959a3.015,3.015,0,0,0-2.372-2.255,5.156,5.156,0,0,0-3.239.3l-.752-.65A9.216,9.216,0,0,1,267.759,432.174Z" transform="translate(-263.635 -431.428)" fill="#312342"/>
                  <path id="Trazado_105349" data-name="Trazado 105349" d="M268.864,433.412a3.388,3.388,0,0,0-1.754-1.073,8.555,8.555,0,0,0-2.813-.193,4.962,4.962,0,0,1,2.409-.334A2.558,2.558,0,0,1,268.864,433.412Z" transform="translate(-262.569 -431.781)" fill="#9b563e"/>
                  <path id="Trazado_105350" data-name="Trazado 105350" d="M265.259,432.85c-.013-.324,1.5-.29,1.448.047S265.275,433.176,265.259,432.85Z" transform="translate(-261.021 -430.423)" fill="#fff"/>
                </g>
              </g>
              <path id="Trazado_105351" data-name="Trazado 105351" d="M266.313,433.74s1.12,1.086,1.537,1.086a6.752,6.752,0,0,0,1.689-1.169l-1.689.634Z" transform="translate(-253.739 -399.2)" fill="#8c4834"/>
              <path id="Trazado_105352" data-name="Trazado 105352" d="M265.718,435.06a3.22,3.22,0,0,0,3.012,1.4,4.2,4.2,0,0,0,3.226-1.929A19.6,19.6,0,0,0,265.718,435.06Z" transform="translate(-254.697 -397.89)" fill="#312342"/>
              <path id="Trazado_105353" data-name="Trazado 105353" d="M266.371,436.388a2.18,2.18,0,0,1,1.516-.694,1.561,1.561,0,0,1,1.55.595A8.489,8.489,0,0,1,266.371,436.388Z" transform="translate(-253.646 -395.935)" fill="#9b563e"/>
            </g>
          </g>
          <g id="Grupo_55873" data-name="Grupo 55873" transform="translate(93.654)">
            <g id="Grupo_55851" data-name="Grupo 55851" transform="translate(6.41 34.625)">
              <path id="Trazado_105354" data-name="Trazado 105354" d="M324.005,430.136s-20.294,6.11-25.454,19.4-4.646,16.385-6.84,21.416-4.118,15.75-3.291,28.155c.976,14.592.2,19.843,6.389,26.036C311.452,480.887,324.005,430.136,324.005,430.136Z" transform="translate(-288.224 -430.136)" fill="#ffa78f"/>
            </g>
            <g id="Grupo_55852" data-name="Grupo 55852" transform="translate(58.99 34.625)">
              <path id="Trazado_105355" data-name="Trazado 105355" d="M308.371,430.136s20.3,6.11,25.456,19.4,4.645,16.385,6.838,21.416,4.121,15.75,3.291,28.155c-.974,14.592-.193,19.843-6.386,26.036C320.924,480.887,308.371,430.136,308.371,430.136Z" transform="translate(-308.371 -430.136)" fill="#ffa78f"/>
            </g>
            <g id="Grupo_55854" data-name="Grupo 55854" transform="translate(0 131.985)">
              <g id="Grupo_55853" data-name="Grupo 55853" transform="translate(0 0)">
                <path id="Trazado_105356" data-name="Trazado 105356" d="M299.41,469.248c-.063,1.148.131,4.246.439,8.122.8,10.056,2.385,25.344,2.385,25.344a140.86,140.86,0,0,0-3.26,21.077c-1.451,19.219,8.114,32.286,6.543,43.456a12.21,12.21,0,0,1-1.642,5.28,11.986,11.986,0,0,1-2.318,2.827c-1.788,1.6-3.335,2.268-7.294,4.627-4.105,2.44-8.508,4.442-8.5,6.235,0,0,.081.809,1.135.809H308.7c3.307,0,4.181-2.323,6.642-3.557,2.372-1.19,6.412.566,8.78-1.965.866-.927.953-2.978.739-5.272-.021-.237-.05-.475-.078-.71-.159-1.378-.41-2.806-.639-4.111a33.881,33.881,0,0,1-.467-4.163c.436-14.109,3.382-46.27,3.985-54.538.324-4.017,2.19-24.791,3.14-35.34.334-3.716.556-6.164.556-6.164S308.317,464.25,299.41,469.248Z" transform="translate(-285.768 -467.441)" fill="#ffa78f"/>
                <path id="Trazado_105357" data-name="Trazado 105357" d="M309.975,514.835c-2.367,2.532-6.407.775-8.78,1.965-2.461,1.234-3.335,3.557-6.642,3.557,0,0,2.083.316,4.39-2.568,5.251-6.564,8.923-5.128,11.692-8.936.029.235.057.472.078.71C310.927,511.857,310.841,513.908,309.975,514.835Z" transform="translate(-271.626 -400.773)" fill="#ff8762"/>
                <path id="Trazado_105358" data-name="Trazado 105358" d="M302.041,509.8a10.642,10.642,0,0,1-2.871,3.573c-2.049,1.563-4.105,2.573-5.074,3.505a2.942,2.942,0,0,0-.8,1.965h-1.715a4.2,4.2,0,0,1,.838-1.965c.968-1.2,2.748-1.866,4.977-3.27A31.107,31.107,0,0,0,302.041,509.8Z" transform="translate(-276.402 -399.255)" fill="#e87454"/>
                <path id="Trazado_105359" data-name="Trazado 105359" d="M293.462,513.732a8.679,8.679,0,0,1,2.234.175,1.912,1.912,0,0,0,1.237-.165c.433-.219.919-.569.992-1.052-.031-1.206-2.085-1.435-4.619.621A.237.237,0,0,0,293.462,513.732Z" transform="translate(-273.773 -396.071)" fill="#ff8762"/>
                <path id="Trazado_105360" data-name="Trazado 105360" d="M297.041,511.252c-1.8,1.644-4.546,3.1-5.408,3.909a2.153,2.153,0,0,0-.8,1.334h-1.018a2.944,2.944,0,0,1,1.284-2.036C292.417,513.627,294.6,512.552,297.041,511.252Z" transform="translate(-279.258 -396.911)" fill="#e87454"/>
                <path id="Trazado_105361" data-name="Trazado 105361" d="M295.338,511.252c-1.8,1.644-4.546,3.1-5.408,3.909a2.153,2.153,0,0,0-.8,1.334h-1.018a2.943,2.943,0,0,1,1.284-2.036C290.711,513.627,292.893,512.552,295.338,511.252Z" transform="translate(-281.999 -396.911)" fill="#e87454"/>
                <path id="Trazado_105362" data-name="Trazado 105362" d="M293.862,511.252c-1.8,1.644-4.546,3.1-5.408,3.909a2.153,2.153,0,0,0-.8,1.334h-1.018a2.943,2.943,0,0,1,1.284-2.036C289.238,513.627,291.417,512.552,293.862,511.252Z" transform="translate(-284.375 -396.911)" fill="#e87454"/>
                <path id="Trazado_105363" data-name="Trazado 105363" d="M290.744,513.726a4.092,4.092,0,0,1,1.913,0s.822-.877.658-1.167C293.033,512.113,291.718,512.218,290.744,513.726Z" transform="translate(-277.758 -395.178)" fill="#ff8762"/>
                <path id="Trazado_105364" data-name="Trazado 105364" d="M288.975,513.726a4.1,4.1,0,0,1,1.913,0s.819-.877.658-1.167C291.261,512.113,289.946,512.218,288.975,513.726Z" transform="translate(-280.605 -395.178)" fill="#ff8762"/>
                <path id="Trazado_105365" data-name="Trazado 105365" d="M287.45,513.611a3.549,3.549,0,0,1,1.655,0s.712-.759.572-1.01C289.428,512.214,288.29,512.3,287.45,513.611Z" transform="translate(-283.06 -395.063)" fill="#ff8762"/>
                <path id="Trazado_105366" data-name="Trazado 105366" d="M286.007,513.623a3.506,3.506,0,0,1,1.655,0s.712-.759.572-1.01C287.985,512.225,286.847,512.316,286.007,513.623Z" transform="translate(-285.383 -395.044)" fill="#ff8762"/>
              </g>
              <path id="Trazado_105367" data-name="Trazado 105367" d="M322.944,471.205a21.281,21.281,0,0,0-.556,6.164H291.441c-.308-3.876-.5-6.973-.439-8.122C299.91,464.25,322.944,471.205,322.944,471.205Z" transform="translate(-277.361 -467.441)" fill="#ff8762"/>
              <path id="Trazado_105368" data-name="Trazado 105368" d="M295.336,483.291c-2.318,1.25.36,8.325,4.04,9.377s6.493-6.987,4.374-8.5C302.523,483.291,297.617,482.065,295.336,483.291Z" transform="translate(-271.758 -442.757)" fill="#ff8762"/>
            </g>
            <g id="Grupo_55856" data-name="Grupo 55856" transform="translate(55.002 131.985)">
              <g id="Grupo_55855" data-name="Grupo 55855" transform="translate(0 0)">
                <path id="Trazado_105369" data-name="Trazado 105369" d="M338.785,469.248c.06,1.148-.13,4.246-.438,8.122-.8,10.056-2.385,25.344-2.385,25.344a140.865,140.865,0,0,1,3.26,21.077c1.448,19.219-8.114,32.286-6.546,43.456a12.18,12.18,0,0,0,1.644,5.28,11.919,11.919,0,0,0,2.318,2.827c1.785,1.6,3.335,2.268,7.294,4.627,4.1,2.44,8.508,4.442,8.492,6.235,0,0-.078.809-1.133.809H329.5c-3.307,0-4.181-2.323-6.642-3.557-2.375-1.19-6.412.566-8.78-1.965-.869-.927-.955-2.978-.739-5.272.021-.237.05-.475.078-.71.157-1.378.407-2.806.637-4.111a33.344,33.344,0,0,0,.467-4.163c-.433-14.109-3.38-46.27-3.985-54.538-.321-4.017-2.187-24.791-3.14-35.34-.334-3.716-.553-6.164-.553-6.164S329.875,464.25,338.785,469.248Z" transform="translate(-306.843 -467.441)" fill="#ffa78f"/>
                <path id="Trazado_105370" data-name="Trazado 105370" d="M310.133,514.835c2.367,2.532,6.4.775,8.78,1.965,2.461,1.234,3.335,3.557,6.642,3.557,0,0-2.083.316-4.39-2.568-5.251-6.564-8.923-5.128-11.692-8.936-.029.235-.057.472-.078.71C309.177,511.857,309.263,513.908,310.133,514.835Z" transform="translate(-302.898 -400.773)" fill="#ff8762"/>
                <path id="Trazado_105371" data-name="Trazado 105371" d="M314.484,509.8a10.679,10.679,0,0,0,2.871,3.573c2.049,1.563,4.108,2.573,5.076,3.505a2.956,2.956,0,0,1,.8,1.965h1.715a4.185,4.185,0,0,0-.84-1.965c-.968-1.2-2.748-1.866-4.974-3.27A31.029,31.029,0,0,1,314.484,509.8Z" transform="translate(-294.542 -399.255)" fill="#e87454"/>
                <path id="Trazado_105372" data-name="Trazado 105372" d="M319.518,513.732a8.7,8.7,0,0,0-2.237.175,1.914,1.914,0,0,1-1.237-.165c-.433-.219-.919-.569-.989-1.052.029-1.206,2.083-1.435,4.617.621A.236.236,0,0,1,319.518,513.732Z" transform="translate(-293.623 -396.071)" fill="#ff8762"/>
                <path id="Trazado_105373" data-name="Trazado 105373" d="M317.494,511.252c1.8,1.644,4.549,3.1,5.41,3.909a2.158,2.158,0,0,1,.8,1.334h1.021a2.953,2.953,0,0,0-1.284-2.036C322.121,513.627,319.94,512.552,317.494,511.252Z" transform="translate(-289.697 -396.911)" fill="#e87454"/>
                <path id="Trazado_105374" data-name="Trazado 105374" d="M319.2,511.252c1.8,1.644,4.549,3.1,5.41,3.909a2.158,2.158,0,0,1,.8,1.334h1.02a2.953,2.953,0,0,0-1.284-2.036C323.824,513.627,321.643,512.552,319.2,511.252Z" transform="translate(-286.955 -396.911)" fill="#e87454"/>
                <path id="Trazado_105375" data-name="Trazado 105375" d="M320.673,511.252c1.8,1.644,4.549,3.1,5.408,3.909a2.154,2.154,0,0,1,.8,1.334h1.02a2.953,2.953,0,0,0-1.284-2.036C325.3,513.627,323.118,512.552,320.673,511.252Z" transform="translate(-284.579 -396.911)" fill="#e87454"/>
                <path id="Trazado_105376" data-name="Trazado 105376" d="M320.931,513.726a4.1,4.1,0,0,0-1.913,0s-.819-.877-.658-1.167C318.645,512.113,319.96,512.218,320.931,513.726Z" transform="translate(-288.336 -395.178)" fill="#ff8762"/>
                <path id="Trazado_105377" data-name="Trazado 105377" d="M322.7,513.726a4.1,4.1,0,0,0-1.913,0s-.82-.877-.658-1.167C320.414,512.113,321.729,512.218,322.7,513.726Z" transform="translate(-285.489 -395.178)" fill="#ff8762"/>
                <path id="Trazado_105378" data-name="Trazado 105378" d="M324.009,513.611a3.549,3.549,0,0,0-1.655,0s-.71-.759-.569-1.01C322.031,512.214,323.169,512.3,324.009,513.611Z" transform="translate(-282.818 -395.063)" fill="#ff8762"/>
                <path id="Trazado_105379" data-name="Trazado 105379" d="M325.452,513.623a3.509,3.509,0,0,0-1.655,0s-.71-.759-.569-1.01C323.474,512.225,324.612,512.316,325.452,513.623Z" transform="translate(-280.495 -395.044)" fill="#ff8762"/>
              </g>
              <path id="Trazado_105380" data-name="Trazado 105380" d="M306.843,471.205a21.216,21.216,0,0,1,.553,6.164h30.95c.308-3.876.5-6.973.438-8.122C329.875,464.25,306.843,471.205,306.843,471.205Z" transform="translate(-306.843 -467.441)" fill="#ff8762"/>
              <path id="Trazado_105381" data-name="Trazado 105381" d="M320.914,483.291c2.32,1.25-.358,8.325-4.04,9.377s-6.493-6.987-4.374-8.5C313.729,483.291,318.636,482.065,320.914,483.291Z" transform="translate(-298.911 -442.757)" fill="#ff8762"/>
            </g>
            <g id="Grupo_55858" data-name="Grupo 55858" transform="translate(14.388 28.338)">
              <g id="Grupo_55857" data-name="Grupo 55857">
                <path id="Trazado_105382" data-name="Trazado 105382" d="M362.762,495.92c-10.189,8.143-26,9.656-36.606,10.048s-25.639-2.988-34.875-8.785c2.6-14.1,4.7-19.608,8.461-28.142.462-1.044.947-2.137,1.461-3.294-2.751-4.424-2.093-10.75,2.231-16.938,3.865-5.536,15.649-14.8,15.649-14.8l.3-2.307.483-3.688,15.523-.292.394,4.813.1,1.18s12.861,9.609,16.643,14.683c4.027,5.4,6.151,11.94,3.4,17.932.371.966.767,2.067,1.175,3.289A129.013,129.013,0,0,1,362.762,495.92Z" transform="translate(-291.281 -427.727)" fill="#ffa78f"/>
                <path id="Trazado_105383" data-name="Trazado 105383" d="M314.748,435.649c4.027,5.4,6.151,11.94,3.4,17.932.371.966.767,2.067,1.174,3.288a129.014,129.014,0,0,1,5.663,26.3" transform="translate(-253.503 -414.974)" fill="none" stroke="#ff8762" stroke-linecap="round" stroke-miterlimit="10" stroke-width="1.323"/>
                <path id="Trazado_105384" data-name="Trazado 105384" d="M291.281,484.178c2.6-14.1,4.7-19.608,8.461-28.142.462-1.044.947-2.137,1.461-3.294-2.751-4.424-2.093-10.75,2.231-16.938" transform="translate(-291.281 -414.723)" fill="none" stroke="#ff8762" stroke-linecap="round" stroke-miterlimit="10" stroke-width="1.323"/>
                <path id="Trazado_105385" data-name="Trazado 105385" d="M310.929,444.928c.261-.086,4.627-5.152,9.693-.786C316.342,446.5,310.929,444.928,310.929,444.928Z" transform="translate(-259.651 -404.154)" fill="#e87454"/>
                <path id="Trazado_105386" data-name="Trazado 105386" d="M305.877,444.928c-.264-.086-4.63-5.152-9.7-.786C300.461,446.5,305.877,444.928,305.877,444.928Z" transform="translate(-283.393 -404.154)" fill="#e87454"/>
                <path id="Trazado_105387" data-name="Trazado 105387" d="M318.45,432.54c-2.221,1.67-5.28,3.2-8.521,2.912a12.7,12.7,0,0,1-7.879-3.745l.483-3.688,15.523-.292Z" transform="translate(-273.945 -427.727)" fill="#e87454"/>
                <path id="Trazado_105388" data-name="Trazado 105388" d="M316.532,442.2c-6.775,5.3-14.913,6.966-22.009,3.536.462-1.044.947-2.137,1.462-3.294C295.985,442.445,303.96,448.625,316.532,442.2Z" transform="translate(-286.062 -404.424)" fill="#ff8762"/>
                <path id="Trazado_105389" data-name="Trazado 105389" d="M331.435,446.5a20.069,20.069,0,0,1-7.545,1.7c-6.686.292-10.852-1.84-16.667-6.1a34.664,34.664,0,0,0,13.858,3.489,16.146,16.146,0,0,0,9.179-2.375C330.631,444.173,331.027,445.275,331.435,446.5Z" transform="translate(-265.617 -404.6)" fill="#ff8762"/>
                <path id="Trazado_105390" data-name="Trazado 105390" d="M305.661,450.375s-2.286,2.195-.256,9.354A21.066,21.066,0,0,0,305.661,450.375Z" transform="translate(-269.896 -391.267)" fill="#e87454"/>
                <path id="Trazado_105391" data-name="Trazado 105391" d="M299.57,449.5s19.642-5.228,32.866-.037C324.907,444.049,311.1,442.851,299.57,449.5Z" transform="translate(-277.937 -400.005)" fill="#ff8762"/>
              </g>
              <path id="Trazado_105392" data-name="Trazado 105392" d="M303.97,432.094a4.209,4.209,0,0,0,3.309,1.8,4.375,4.375,0,0,0,3.534-2.031A9.43,9.43,0,0,1,303.97,432.094Z" transform="translate(-270.854 -421.07)" fill="#ff8762"/>
            </g>
            <g id="Grupo_55872" data-name="Grupo 55872" transform="translate(36.241)">
              <path id="Trazado_105393" data-name="Trazado 105393" d="M326.784,433.016c.063-.193.971-4.525-.345-7.347s-2.576-3.6-5.3-4.669c-2.529-4.28-9.163-5.29-14.3-2.772-4.961,2.43-11.431,10.5-2.482,19.407S324.792,439.2,326.784,433.016Z" transform="translate(-299.263 -416.869)" fill="#2e3b4a"/>
              <g id="Grupo_55859" data-name="Grupo 55859" transform="translate(0 14.916)">
                <path id="Trazado_105394" data-name="Trazado 105394" d="M304.166,425.8s-.665-2.675-1.931-3.153-2.876,1.762-2.534,3.5,2.059,3.852,3.3,4.2c1,.284,1.819-.856,1.978-1.561S304.166,425.8,304.166,425.8Z" transform="translate(-299.654 -422.584)" fill="#ff8762"/>
                <path id="Trazado_105395" data-name="Trazado 105395" d="M300.852,426.8a4.062,4.062,0,0,1-.71-2.054c.1-.827.728-1.8,1.232-1.769s1.647,2.566,1.7,3-.955.446-.814.976.853,1.021,1.081,1.315c.151.2.253.572-.352.655s-1.561-1.143-1.561-1.143,1.112.851,1.407.634-.749-1-1.13-1.579.819-.752.793-1.075c-.01-.1-.726-1.853-1.174-1.819S300.348,424.963,300.852,426.8Z" transform="translate(-298.884 -421.953)" fill="#e87454"/>
                <path id="Trazado_105396" data-name="Trazado 105396" d="M301.191,423.855a1.583,1.583,0,0,0-.407,1.334,1.724,1.724,0,0,0,.577,1.06,1.6,1.6,0,0,1-.9-1.386A.993.993,0,0,1,301.191,423.855Z" transform="translate(-298.349 -420.538)" fill="#e87454"/>
              </g>
              <g id="Grupo_55860" data-name="Grupo 55860" transform="translate(4.305 8.448)">
                <path id="Trazado_105397" data-name="Trazado 105397" d="M301.868,426.652a2.126,2.126,0,0,0-.5,1.464c.057,1.258-.522,7.939,1.01,11.366,2.542,5.687,11.019,7.811,17.249,1.37,3.528-3.643,2.618-10.985,2.618-10.985-1.678.211-1.046-1.929-1.582-2.8-.431-.7-1.548-1.007-2.211-1.443a13.186,13.186,0,0,1-2.258-1.876,5.057,5.057,0,0,1-1.7-3.638l-9.416,4.523A9.264,9.264,0,0,0,301.868,426.652Z" transform="translate(-301.304 -420.106)" fill="#ffa78f"/>
              </g>
              <g id="Grupo_55864" data-name="Grupo 55864" transform="translate(14.967 14.255)">
                <g id="Grupo_55862" data-name="Grupo 55862" transform="translate(0.968 2.123)">
                  <g id="Grupo_55861" data-name="Grupo 55861" transform="translate(0 0.568)">
                    <path id="Trazado_105398" data-name="Trazado 105398" d="M305.764,424.78s.256.454,2.738.472,3.309-1.133,3.309-1.133l-5.614.431Z" transform="translate(-305.754 -422.142)" fill="#ff8762"/>
                    <path id="Trazado_105399" data-name="Trazado 105399" d="M306.463,423.609a3.189,3.189,0,0,0-.611,1.923c1.127-.089,3.134-2.02,3.134-2.02A10.839,10.839,0,0,0,306.463,423.609Z" transform="translate(-305.612 -423.17)" fill="#e87454"/>
                    <path id="Trazado_105400" data-name="Trazado 105400" d="M306.569,423.975c-.06.01-.911.859-.8,1.039.1.094.509-.047.509-.047Z" transform="translate(-305.76 -422.375)" fill="#ff8762"/>
                    <path id="Trazado_105401" data-name="Trazado 105401" d="M305.929,425.654c-.005-.091.345-1.759,1.2-2a5.383,5.383,0,0,1,2.842,0c.765.269,1.574,1.522,1.574,1.522a11.956,11.956,0,0,1-3.221.553C306.114,425.865,305.929,425.654,305.929,425.654Z" transform="translate(-305.488 -423.198)" fill="#fff"/>
                    <path id="Trazado_105402" data-name="Trazado 105402" d="M308.788,424.612a1.141,1.141,0,0,1-1.242,1.013,1.122,1.122,0,0,1-1.06-1.187,1.137,1.137,0,0,1,1.242-1.01A1.119,1.119,0,0,1,308.788,424.612Z" transform="translate(-304.597 -423.263)" fill="#312342"/>
                    <path id="Trazado_105403" data-name="Trazado 105403" d="M308.342,424.312c.081-.35-1.161-.585-1.248-.219C307.045,424.3,308.285,424.56,308.342,424.312Z" transform="translate(-303.614 -422.482)" fill="#fff"/>
                    <path id="Trazado_105404" data-name="Trazado 105404" d="M305.9,424.012a16.234,16.234,0,0,1,3.432-.008,5.319,5.319,0,0,1,2.263,1.336,3.291,3.291,0,0,0-1.95-1.832A4.78,4.78,0,0,0,305.9,424.012Z" transform="translate(-305.537 -423.362)" fill="#312342"/>
                  </g>
                  <path id="Trazado_105405" data-name="Trazado 105405" d="M306.371,423.446a8.753,8.753,0,0,1,2.565.1,5.329,5.329,0,0,1,1.516.8,3.316,3.316,0,0,0-1.086-1.026A4.882,4.882,0,0,0,306.371,423.446Z" transform="translate(-304.777 -423.144)" fill="#ff8762"/>
                </g>
                <g id="Grupo_55863" data-name="Grupo 55863">
                  <path id="Trazado_105406" data-name="Trazado 105406" d="M306.707,422.475a13.307,13.307,0,0,0-1.12,1.884,4.232,4.232,0,0,0-.1,2.2c.556-1.287,1.529-3.562,1.529-3.562Z" transform="translate(-305.389 -422.099)" fill="#ff8762"/>
                  <path id="Trazado_105407" data-name="Trazado 105407" d="M309.166,423.636c-1.057,0-3.461.274-3.437.211a3.368,3.368,0,0,1,.431-1.14c1.456,0,2.456-.564,3.69-.311a3.31,3.31,0,0,1,1.939,1.639A13.5,13.5,0,0,0,309.166,423.636Z" transform="translate(-304.842 -422.331)" fill="#312342"/>
                </g>
              </g>
              <g id="Grupo_55865" data-name="Grupo 55865" transform="translate(12.06 20.863)">
                <path id="Trazado_105408" data-name="Trazado 105408" d="M304.275,425.212s1.388,2.618,2.156,2.505,1.983-2.529,1.983-2.529a3.826,3.826,0,0,1-2.278.987A3.638,3.638,0,0,1,304.275,425.212Z" transform="translate(-304.275 -424.34)" fill="#ff8762"/>
                <path id="Trazado_105409" data-name="Trazado 105409" d="M306.274,425.754a11.989,11.989,0,0,0,2.14-.566,3.858,3.858,0,0,1-2.117,1.237c-.869.047-2.023-1.219-2.023-1.214A8.46,8.46,0,0,0,306.274,425.754Z" transform="translate(-304.275 -424.34)" fill="#e87454"/>
                <path id="Trazado_105410" data-name="Trazado 105410" d="M305.08,424.929c-.621.136-.478,1.073.418,1.133s1.133-.608.885-.986A1.525,1.525,0,0,0,305.08,424.929Z" transform="translate(-303.59 -424.863)" fill="#ff8762"/>
              </g>
              <path id="Trazado_105411" data-name="Trazado 105411" d="M304.345,428.341a2.266,2.266,0,0,1,1.892-.853,2.237,2.237,0,0,1,1.973.95A7.656,7.656,0,0,1,304.345,428.341Z" transform="translate(-292.103 -399.776)" fill="#ff8762"/>
              <g id="Grupo_55870" data-name="Grupo 55870" transform="translate(6.109 14.255)">
                <g id="Grupo_55866" data-name="Grupo 55866" transform="translate(0.081)">
                  <path id="Trazado_105412" data-name="Trazado 105412" d="M304.515,422.475a7.268,7.268,0,0,1,1.289,1.887,6.894,6.894,0,0,1,.065,2.237c-.05,0-1.895-3.348-1.895-3.348Z" transform="translate(-298.888 -422.099)" fill="#ff8762"/>
                  <path id="Trazado_105413" data-name="Trazado 105413" d="M304.649,423.636c1.057,0,3.458.274,3.437.211a3.385,3.385,0,0,0-.433-1.14c-1.454,0-2.453-.564-3.688-.311a3.31,3.31,0,0,0-1.939,1.639A13.458,13.458,0,0,1,304.649,423.636Z" transform="translate(-302.026 -422.331)" fill="#312342"/>
                </g>
                <g id="Grupo_55869" data-name="Grupo 55869" transform="translate(0 1.989)">
                  <g id="Grupo_55868" data-name="Grupo 55868">
                    <g id="Grupo_55867" data-name="Grupo 55867" transform="translate(0 0.613)">
                      <path id="Trazado_105414" data-name="Trazado 105414" d="M308.026,424.8s-.313.629-2.777.569S302,424.08,302,424.08l5.593.384Z" transform="translate(-301.995 -422.117)" fill="#ff8762"/>
                      <path id="Trazado_105415" data-name="Trazado 105415" d="M305.538,423.644a3.439,3.439,0,0,1,.548,2.028c-1.114-.128-3.051-2.211-3.051-2.211A10.205,10.205,0,0,1,305.538,423.644Z" transform="translate(-300.321 -423.121)" fill="#e87454"/>
                      <path id="Trazado_105416" data-name="Trazado 105416" d="M304,423.959c.06.008.911.856.8,1.036-.1.094-.509-.047-.509-.047Z" transform="translate(-298.769 -422.311)" fill="#ff8762"/>
                      <path id="Trazado_105417" data-name="Trazado 105417" d="M307.559,425.806c.008-.094-.29-1.848-1.135-2.124a5.1,5.1,0,0,0-2.824-.094c-.765.258-1.605,1.54-1.605,1.54a11.484,11.484,0,0,0,3.181.684C307.369,426.02,307.559,425.806,307.559,425.806Z" transform="translate(-301.995 -423.164)" fill="#fff"/>
                      <path id="Trazado_105418" data-name="Trazado 105418" d="M305.018,424.507a1.142,1.142,0,0,1-1.088,1.2,1.152,1.152,0,1,1,1.088-1.2Z" transform="translate(-300.819 -423.204)" fill="#312342"/>
                      <path id="Trazado_105419" data-name="Trazado 105419" d="M307.69,424.088a15.234,15.234,0,0,0-3.408-.12A5.217,5.217,0,0,0,302,425.291s.686-1.595,1.989-1.85A4.559,4.559,0,0,1,307.69,424.088Z" transform="translate(-301.995 -423.328)" fill="#312342"/>
                    </g>
                    <path id="Trazado_105420" data-name="Trazado 105420" d="M306.237,423.469a8.286,8.286,0,0,0-2.552.026,5.206,5.206,0,0,0-1.529.783,3.379,3.379,0,0,1,1.107-1.033A4.616,4.616,0,0,1,306.237,423.469Z" transform="translate(-301.737 -423.093)" fill="#ff8762"/>
                  </g>
                  <path id="Trazado_105421" data-name="Trazado 105421" d="M304.569,424.207c.037-.371-1.221-.465-1.258-.076C303.29,424.359,304.546,424.471,304.569,424.207Z" transform="translate(-299.877 -421.824)" fill="#fff"/>
                </g>
              </g>
              <g id="Grupo_55871" data-name="Grupo 55871" transform="translate(23.567 14.957)">
                <path id="Trazado_105422" data-name="Trazado 105422" d="M309.514,425.818s.665-2.675,1.931-3.153,2.876,1.762,2.534,3.5-2.059,3.852-3.3,4.2c-1,.284-1.822-.856-1.978-1.561S309.514,425.818,309.514,425.818Z" transform="translate(-308.684 -422.6)" fill="#ffa78f"/>
                <path id="Trazado_105423" data-name="Trazado 105423" d="M311.741,426.815a4.049,4.049,0,0,0,.71-2.051c-.1-.827-.728-1.8-1.232-1.772s-1.647,2.566-1.7,3,.953.449.814.976-.853,1.023-1.08,1.318c-.154.2-.256.569.352.653s1.561-1.141,1.561-1.141-1.114.848-1.409.634.752-1,1.133-1.579-.822-.752-.793-1.075c.01-.107.723-1.856,1.174-1.822S312.242,424.978,311.741,426.815Z" transform="translate(-307.957 -421.97)" fill="#e87454"/>
                <path id="Trazado_105424" data-name="Trazado 105424" d="M309.905,423.871a1.574,1.574,0,0,1,.4,1.331,1.723,1.723,0,0,1-.577,1.06,1.6,1.6,0,0,0,.9-1.386A.988.988,0,0,0,309.905,423.871Z" transform="translate(-306.996 -420.554)" fill="#ff8762"/>
              </g>
              <path id="Trazado_105425" data-name="Trazado 105425" d="M303.92,427.243a5.046,5.046,0,0,0,3.108,1.232,4.636,4.636,0,0,0,4.34-2.552A8.719,8.719,0,0,1,303.92,427.243Z" transform="translate(-292.787 -402.295)" fill="#e87454"/>
            </g>
            <path id="Trazado_105426" data-name="Trazado 105426" d="M292.73,454.02s10.776,9.176,35.045,8.772c27.972-.84,37.062-9.437,37.062-9.437a133.755,133.755,0,0,1,1.467,43.052H332.582V483.743H325.52v12.53H291.13S288.332,471.482,292.73,454.02Z" transform="translate(-278.548 -358.133)" fill="#86bec4"/>
          </g>
        </g>
      </g>
    </g>
  </g>
</svg>
