<svg xmlns="http://www.w3.org/2000/svg" width="393.978" height="297.571" viewBox="0 0 393.978 297.571">
  <g id="Grupo_56062" data-name="Grupo 56062" transform="translate(-180 -2390)">
    <g id="Image_Place_Holder" data-name="Image Place Holder" transform="translate(180 2420.878)" opacity="0.86">
      <rect id="Image_Place_Holder-2" data-name="Image Place Holder" width="393.978" height="266.693" rx="10" fill="#fbf8ed"/>
    </g>
    <g id="Grupo_55829" data-name="Grupo 55829" transform="translate(247 2390)">
      <path id="Trazado_100521" data-name="Trazado 100521" d="M205.578,606.289c132.15,8.5,175.276-173.565,61.357-168.962C173.489,441.1,73.428,597.794,205.578,606.289Z" transform="translate(-98.576 -388.435)" fill="#f7f1d7"/>
      <g id="Grupo_55777" data-name="Grupo 55777" transform="translate(0 26.893)">
        <g id="Grupo_53771" data-name="Grupo 53771" transform="translate(0 86.19)">
          <path id="Trazado_100522" data-name="Trazado 100522" d="M177.986,480.093s-14.241,9.452-28.884,6.516-24.136-17.152-24.136-17.152,14.244-9.452,28.884-6.516S177.986,480.093,177.986,480.093Z" transform="translate(-124.966 -462.376)" fill="#8f8b66"/>
          <path id="Trazado_100523" data-name="Trazado 100523" d="M195.337,490.605a95.628,95.628,0,0,0-22.939-14.27,123.731,123.731,0,0,0-43.891-10.089h-.023a.653.653,0,1,1,.069-1.3,123.249,123.249,0,0,1,44.382,10.193,97.014,97.014,0,0,1,23.281,14.495.638.638,0,0,1,.2.36.653.653,0,0,1-.519.762A.662.662,0,0,1,195.337,490.605Z" transform="translate(-120.452 -458.38)" fill="#b3ae7f"/>
          <path id="Trazado_100524" data-name="Trazado 100524" d="M141.073,470.878l-8.8-6.393-.015-.01a.653.653,0,0,1,.783-1.046l8.8,6.391a.666.666,0,0,1,.256.4.654.654,0,0,1-1.023.655Z" transform="translate(-114.017 -460.94)" fill="#b3ae7f"/>
          <path id="Trazado_100525" data-name="Trazado 100525" d="M135.243,474.494a.653.653,0,0,1-.455-1.2l10.943-6.513.033-.018a.653.653,0,0,1,.634,1.141l-10.943,6.513a.649.649,0,0,1-.212.079Z" transform="translate(-110.164 -455.677)" fill="#b3ae7f"/>
          <path id="Trazado_100526" data-name="Trazado 100526" d="M146.417,473.371l-6.166-7.4a.652.652,0,0,1,1-.834l6.166,7.4a.691.691,0,0,1,.143.3.653.653,0,0,1-1.146.537Z" transform="translate(-101.375 -458.415)" fill="#b3ae7f"/>
        </g>
        <g id="Grupo_53793" data-name="Grupo 53793" transform="translate(8.82 50.769)">
          <path id="Trazado_100527" data-name="Trazado 100527" d="M128.415,450.963s6.094-1.652,8.155-.765,6.81,7.447,6.81,7.447-7.961.921-10.027.033S128.415,450.963,128.415,450.963Z" transform="translate(-128.415 -446.327)" fill="#7d6871"/>
          <g id="Grupo_53773" data-name="Grupo 53773" transform="translate(11.505 9.805)">
            <g id="Grupo_53772" data-name="Grupo 53772">
              <path id="Trazado_100528" data-name="Trazado 100528" d="M132.914,452.97l.123-.611c.427.084,43.9,13.738,55.6,57.869l-.6.159C176.424,466.593,133.336,453.055,132.914,452.97Z" transform="translate(-132.914 -452.359)" fill="#54464c"/>
            </g>
          </g>
          <g id="Grupo_53776" data-name="Grupo 53776" transform="translate(6.485 16.405)">
            <path id="Trazado_100529" data-name="Trazado 100529" d="M130.951,461.74s3.2-5.432,5.3-6.24,10.078.57,10.078.57-5.051,6.219-7.153,7.027S130.951,461.74,130.951,461.74Z" transform="translate(-130.951 -454.464)" fill="#7d6871"/>
            <g id="Grupo_53775" data-name="Grupo 53775" transform="translate(4.718)">
              <g id="Grupo_53774" data-name="Grupo 53774">
                <path id="Trazado_100530" data-name="Trazado 100530" d="M132.8,459.615c3.718-1.762,14.341-4.557,14.791-4.675l.159.6c-.11.028-11.019,2.9-14.684,4.634Z" transform="translate(-132.796 -454.94)" fill="#54464c"/>
              </g>
            </g>
          </g>
          <g id="Grupo_53779" data-name="Grupo 53779" transform="translate(19.43 25.197)">
            <path id="Trazado_100531" data-name="Trazado 100531" d="M136.013,465.179s3.2-5.434,5.3-6.242,10.078.57,10.078.57-5.051,6.222-7.153,7.03S136.013,465.179,136.013,465.179Z" transform="translate(-136.013 -457.901)" fill="#7d6871"/>
            <g id="Grupo_53778" data-name="Grupo 53778" transform="translate(4.718)">
              <g id="Grupo_53777" data-name="Grupo 53777">
                <path id="Trazado_100532" data-name="Trazado 100532" d="M137.858,463.053c3.718-1.759,14.341-4.557,14.791-4.675l.159.6c-.11.028-11.017,2.9-14.684,4.634Z" transform="translate(-137.858 -458.378)" fill="#54464c"/>
              </g>
            </g>
          </g>
          <g id="Grupo_53782" data-name="Grupo 53782" transform="translate(30.056 35.7)">
            <path id="Trazado_100533" data-name="Trazado 100533" d="M140.168,469.284s3.2-5.432,5.3-6.24,10.078.57,10.078.57-5.051,6.219-7.153,7.027S140.168,469.284,140.168,469.284Z" transform="translate(-140.168 -462.009)" fill="#7d6871"/>
            <g id="Grupo_53781" data-name="Grupo 53781" transform="translate(4.716)">
              <g id="Grupo_53780" data-name="Grupo 53780">
                <path id="Trazado_100534" data-name="Trazado 100534" d="M142.012,467.16c3.718-1.762,14.344-4.557,14.794-4.675l.159.6c-.11.028-11.019,2.9-14.686,4.634Z" transform="translate(-142.012 -462.485)" fill="#54464c"/>
              </g>
            </g>
          </g>
          <g id="Grupo_53785" data-name="Grupo 53785" transform="translate(38.075 46.238)">
            <path id="Trazado_100535" data-name="Trazado 100535" d="M143.3,473.41s3.2-5.434,5.3-6.242,10.078.573,10.078.573-5.053,6.217-7.155,7.025S143.3,473.41,143.3,473.41Z" transform="translate(-143.304 -466.127)" fill="#7d6871"/>
            <g id="Grupo_53784" data-name="Grupo 53784" transform="translate(4.716)">
              <g id="Grupo_53783" data-name="Grupo 53783">
                <path id="Trazado_100536" data-name="Trazado 100536" d="M145.148,471.281c3.721-1.759,14.344-4.554,14.794-4.675l.159.6c-.11.031-11.019,2.9-14.684,4.636Z" transform="translate(-145.148 -466.606)" fill="#54464c"/>
              </g>
            </g>
          </g>
          <g id="Grupo_53789" data-name="Grupo 53789" transform="translate(24.832)">
            <g id="Grupo_53787" data-name="Grupo 53787">
              <g id="Grupo_53786" data-name="Grupo 53786">
                <path id="Trazado_100537" data-name="Trazado 100537" d="M140.441,448.525s5.056,3.767,5.634,5.941-1.649,9.958-1.649,9.958-5.644-5.693-6.222-7.866S140.441,448.525,140.441,448.525Z" transform="translate(-138.125 -448.525)" fill="#7d6871"/>
              </g>
            </g>
            <g id="Grupo_53788" data-name="Grupo 53788" transform="translate(3.804 4.974)">
              <path id="Trazado_100538" data-name="Trazado 100538" d="M139.613,450.675l.588-.2c1.35,3.887,2.992,14.748,3.061,15.208l-.616.092C142.628,465.658,140.943,454.505,139.613,450.675Z" transform="translate(-139.613 -450.47)" fill="#54464c"/>
            </g>
          </g>
          <g id="Grupo_53792" data-name="Grupo 53792" transform="translate(40.903 10.707)">
            <path id="Trazado_100539" data-name="Trazado 100539" d="M148.077,452.712s4.281,4.626,4.457,6.869-3.442,9.487-3.442,9.487-4.508-6.626-4.677-8.869S148.077,452.712,148.077,452.712Z" transform="translate(-144.41 -452.712)" fill="#7d6871"/>
            <g id="Grupo_53791" data-name="Grupo 53791" transform="translate(4.187 5.268)">
              <g id="Grupo_53790" data-name="Grupo 53790">
                <path id="Trazado_100540" data-name="Trazado 100540" d="M146.272,470.261c0-.112.384-11.385-.225-15.395l.616-.095c.619,4.066.248,15.047.233,15.512Z" transform="translate(-146.047 -454.772)" fill="#54464c"/>
              </g>
            </g>
          </g>
        </g>
        <g id="Grupo_53821" data-name="Grupo 53821" transform="translate(77.376 103.239)">
          <g id="Grupo_53820" data-name="Grupo 53820">
            <g id="Grupo_53806" data-name="Grupo 53806" transform="translate(35.599 6.266)">
              <g id="Grupo_53803" data-name="Grupo 53803" transform="translate(21.315 12.491)">
                <path id="Trazado_100548" data-name="Trazado 100548" d="M178.375,477.966c-.274-.4-.557-.806-.849-1.194h0a.251.251,0,0,1,.051-.345.246.246,0,0,1,.345.051c.294.394.583.8.859,1.212a.255.255,0,0,1,.041.136.246.246,0,0,1-.245.248A.242.242,0,0,1,178.375,477.966Z" transform="translate(-177.479 -476.378)" fill="#b5ac84"/>
              </g>
              <g id="Grupo_53804" data-name="Grupo 53804" transform="translate(4.054 0.791)">
                <path id="Trazado_100549" data-name="Trazado 100549" d="M186.383,481.849c-.581-.657-1.194-1.3-1.826-1.9l-.02-.02a.245.245,0,1,1,.361-.332c.639.616,1.261,1.266,1.849,1.933a.235.235,0,0,1,.061.161.246.246,0,0,1-.246.248A.255.255,0,0,1,186.383,481.849Zm-3.652-3.588a.241.241,0,0,1-.153-.056c-.683-.55-1.394-1.079-2.117-1.57h0a.246.246,0,1,1,.276-.406c.734.5,1.458,1.038,2.148,1.6a.255.255,0,0,1,.092.189.248.248,0,0,1-.246.248Zm-4.393-2.982a.211.211,0,0,1-.118-.028c-.765-.43-1.555-.831-2.35-1.194a.245.245,0,0,1-.112-.3.248.248,0,0,1,.314-.146c.808.373,1.611.777,2.386,1.215a.243.243,0,0,1-.12.458Zm-4.828-2.2a.226.226,0,0,1-.082-.01c-.823-.294-1.67-.557-2.516-.78a.247.247,0,0,1-.174-.3.245.245,0,0,1,.3-.174c.859.228,1.716.494,2.557.793a.247.247,0,0,1-.084.478Z" transform="translate(-170.729 -471.803)" fill="#b5ac84"/>
              </g>
              <g id="Grupo_53805" data-name="Grupo 53805">
                <path id="Trazado_100550" data-name="Trazado 100550" d="M170.8,472.2c-.478-.084-.964-.156-1.447-.217a.248.248,0,0,1-.207-.269.243.243,0,0,1,.269-.22c.491.061.987.138,1.473.223a.246.246,0,0,1-.087.483Z" transform="translate(-169.144 -471.493)" fill="#b5ac84"/>
              </g>
            </g>
            <g id="Grupo_53810" data-name="Grupo 53810" transform="translate(0 6.832)">
              <g id="Grupo_53807" data-name="Grupo 53807" transform="translate(22.947)">
                <path id="Trazado_100551" data-name="Trazado 100551" d="M164.439,472.575a.245.245,0,0,1-.067-.481c.476-.136.962-.261,1.44-.373a.247.247,0,1,1,.113.481c-.473.112-.949.233-1.419.366a.278.278,0,0,1-.066.008Z" transform="translate(-164.196 -471.715)" fill="#b5ac84"/>
              </g>
              <g id="Grupo_53808" data-name="Grupo 53808" transform="translate(0 1.319)">
                <path id="Trazado_100552" data-name="Trazado 100552" d="M186.591,533.714c-1.005-.015-2.02-.074-3.015-.182a.247.247,0,0,1,.051-.491c.982.107,1.982.166,2.972.182h0a.246.246,0,0,1,0,.491Zm3.007-.1a.244.244,0,0,1-.256-.235.247.247,0,0,1,.235-.256c.987-.077,1.982-.21,2.951-.376l.033-.008a.247.247,0,0,1,.051.491c-.985.174-1.995.3-3,.384H189.6Zm-8.956-.545-.049-.005c-.985-.2-1.969-.455-2.928-.749h0a.246.246,0,1,1,.143-.471c.944.289,1.913.537,2.882.737a.246.246,0,0,1-.049.488Zm14.853-.5a.246.246,0,0,1-.064-.483c.951-.263,1.9-.575,2.826-.931a.245.245,0,0,1,.176.458c-.939.358-1.905.68-2.872.949a.272.272,0,0,1-.067.008Zm-20.581-1.266a.19.19,0,0,1-.092-.015c-.926-.386-1.846-.818-2.734-1.294a.245.245,0,1,1,.233-.432c.872.465,1.777.892,2.69,1.273a.243.243,0,0,1,.148.225.246.246,0,0,1-.245.248Zm26.176-.882a.241.241,0,0,1-.22-.136.245.245,0,0,1,.11-.33c.885-.442,1.757-.928,2.6-1.452a.248.248,0,0,1,.34.079.251.251,0,0,1-.079.343c-.854.529-1.742,1.025-2.639,1.473a.232.232,0,0,1-.11.026Zm-31.462-1.936a.229.229,0,0,1-.136-.036c-.839-.555-1.657-1.156-2.44-1.788a.246.246,0,0,1,.309-.381c.77.621,1.578,1.215,2.4,1.759a.258.258,0,0,1,.11.2.246.246,0,0,1-.245.248Zm36.546-1.233a.242.242,0,0,1-.194-.1.246.246,0,0,1,.046-.345c.785-.6,1.55-1.243,2.276-1.915a.247.247,0,1,1,.338.36c-.739.685-1.516,1.337-2.314,1.946a.243.243,0,0,1-.148.051Zm-41.377-2.6c-.719-.7-1.409-1.447-2.059-2.212l-.013-.018a.246.246,0,1,1,.389-.3c.639.754,1.322,1.488,2.028,2.179a.248.248,0,0,1,0,.348.241.241,0,0,1-.176.074A.249.249,0,0,1,164.8,524.651Zm45.778-1.468a.239.239,0,0,1-.164-.064.246.246,0,0,1-.02-.348c.66-.736,1.289-1.514,1.877-2.309a.246.246,0,0,1,.4.291c-.6.808-1.235,1.6-1.908,2.345a.24.24,0,0,1-.182.084ZM161.1,520.145a.246.246,0,0,1-.2-.108c-.573-.823-1.115-1.685-1.606-2.56a.247.247,0,0,1,.43-.243c.486.862,1.015,1.711,1.58,2.524a.247.247,0,0,1-.2.386Zm53.033-1.785a.232.232,0,0,1-.125-.036.246.246,0,0,1-.087-.338c.509-.849.982-1.731,1.407-2.621h0a.246.246,0,0,1,.445.21c-.432.905-.913,1.8-1.43,2.665a.243.243,0,0,1-.21.118Zm-55.971-3.437a.246.246,0,0,1-.223-.148c-.409-.918-.777-1.867-1.092-2.818h0a.245.245,0,1,1,.465-.156c.312.936.673,1.869,1.074,2.775a.257.257,0,0,1,.02.1.246.246,0,0,1-.245.246Zm58.549-1.974a.236.236,0,0,1-.084-.015h0a.247.247,0,0,1-.146-.315c.338-.928.637-1.885.882-2.841h0a.246.246,0,0,1,.476.123c-.251.972-.552,1.944-.9,2.887a.246.246,0,0,1-.23.161Zm-60.441-3.713a.246.246,0,0,1-.24-.192c-.222-.977-.4-1.977-.534-2.974a.249.249,0,0,1,.212-.276.245.245,0,0,1,.276.212c.128.982.307,1.967.527,2.928a.249.249,0,0,1-.184.3.417.417,0,0,1-.056.005Zm61.942-2.087-.033-.005a.246.246,0,0,1-.2-.281c.156-.974.266-1.969.327-2.956l0-.028a.246.246,0,0,1,.488.059c-.067,1-.179,2.013-.335,3a.249.249,0,0,1-.243.207Zm-62.72-3.851a.246.246,0,0,1-.245-.238c-.013-.384-.02-.772-.02-1.156,0-.621.018-1.248.054-1.867a.246.246,0,0,1,.491.028c-.036.609-.054,1.227-.054,1.839,0,.381.008.762.02,1.138a.247.247,0,0,1-.238.253h-.008Zm.348-5.987a.112.112,0,0,1-.041,0h0a.245.245,0,0,1-.2-.279c.153-.995.355-1.99.6-2.964a.245.245,0,1,1,.476.12c-.238.959-.437,1.938-.588,2.918a.243.243,0,0,1-.243.207Zm1.47-5.807a.222.222,0,0,1-.082-.015.246.246,0,0,1-.148-.315c.338-.944.726-1.885,1.153-2.793l.008-.015a.246.246,0,1,1,.437.225c-.419.9-.8,1.818-1.135,2.749a.248.248,0,0,1-.23.164Zm2.55-5.421a.247.247,0,0,1-.21-.373c.511-.859,1.074-1.711,1.662-2.522v0a.246.246,0,0,1,.4.291c-.583.8-1.133,1.637-1.637,2.486a.247.247,0,0,1-.212.12Zm3.532-4.844a.247.247,0,0,1-.184-.409c.665-.752,1.376-1.481,2.107-2.166a.243.243,0,0,1,.327.01.246.246,0,0,1,.01.348c-.724.675-1.422,1.394-2.076,2.133a.241.241,0,0,1-.184.084Zm4.376-4.094a.253.253,0,0,1-.2-.095.247.247,0,0,1,.046-.345c.8-.614,1.629-1.2,2.478-1.734a.247.247,0,1,1,.263.417c-.836.529-1.657,1.1-2.44,1.706a.237.237,0,0,1-.148.051Zm5.071-3.194a.253.253,0,0,1-.223-.138.244.244,0,0,1,.113-.327c.9-.453,1.826-.867,2.762-1.233l.026-.01a.246.246,0,0,1,.309.159.242.242,0,0,1-.156.309c-.921.361-1.836.767-2.718,1.215a.292.292,0,0,1-.113.026Z" transform="translate(-155.223 -472.23)" fill="#b5ac84"/>
              </g>
              <g id="Grupo_53809" data-name="Grupo 53809" transform="translate(63.034 28.264)">
                <path id="Trazado_100553" data-name="Trazado 100553" d="M179.956,484.478c-.018-.486-.046-.977-.084-1.46a.248.248,0,0,1,.212-.248.244.244,0,0,1,.279.21c.041.491.069.99.084,1.483a.247.247,0,0,1-.238.253H180.2A.247.247,0,0,1,179.956,484.478Z" transform="translate(-179.872 -482.767)" fill="#b5ac84"/>
              </g>
            </g>
            <g id="Grupo_53814" data-name="Grupo 53814" transform="translate(35.599 6.266)">
              <g id="Grupo_53811" data-name="Grupo 53811" transform="translate(21.315 12.491)">
                <path id="Trazado_100554" data-name="Trazado 100554" d="M178.375,477.966c-.274-.4-.557-.806-.849-1.194h0a.251.251,0,0,1,.051-.345.246.246,0,0,1,.345.051c.294.394.583.8.859,1.212a.255.255,0,0,1,.041.136.246.246,0,0,1-.245.248A.242.242,0,0,1,178.375,477.966Z" transform="translate(-177.479 -476.378)" fill="#b5ac84"/>
              </g>
              <g id="Grupo_53812" data-name="Grupo 53812" transform="translate(4.054 0.791)">
                <path id="Trazado_100555" data-name="Trazado 100555" d="M186.383,481.849c-.581-.657-1.194-1.3-1.826-1.9l-.02-.02a.245.245,0,1,1,.361-.332c.639.616,1.261,1.266,1.849,1.933a.235.235,0,0,1,.061.161.246.246,0,0,1-.246.248A.255.255,0,0,1,186.383,481.849Zm-3.652-3.588a.241.241,0,0,1-.153-.056c-.683-.55-1.394-1.079-2.117-1.57h0a.246.246,0,1,1,.276-.406c.734.5,1.458,1.038,2.148,1.6a.255.255,0,0,1,.092.189.248.248,0,0,1-.246.248Zm-4.393-2.982a.211.211,0,0,1-.118-.028c-.765-.43-1.555-.831-2.35-1.194a.245.245,0,0,1-.112-.3.248.248,0,0,1,.314-.146c.808.373,1.611.777,2.386,1.215a.243.243,0,0,1-.12.458Zm-4.828-2.2a.226.226,0,0,1-.082-.01c-.823-.294-1.67-.557-2.516-.78a.247.247,0,0,1-.174-.3.245.245,0,0,1,.3-.174c.859.228,1.716.494,2.557.793a.247.247,0,0,1-.084.478Z" transform="translate(-170.729 -471.803)" fill="#b5ac84"/>
              </g>
              <g id="Grupo_53813" data-name="Grupo 53813">
                <path id="Trazado_100556" data-name="Trazado 100556" d="M170.8,472.2c-.478-.084-.964-.156-1.447-.217a.248.248,0,0,1-.207-.269.243.243,0,0,1,.269-.22c.491.061.987.138,1.473.223a.246.246,0,0,1-.087.483Z" transform="translate(-169.144 -471.493)" fill="#b5ac84"/>
              </g>
            </g>
            <g id="Grupo_53815" data-name="Grupo 53815" transform="translate(24.729)">
              <path id="Trazado_100557" data-name="Trazado 100557" d="M168.8,476.467l-3.9-2.836h4.823l1.491-4.588,1.491,4.588h4.826l-3.9,2.836,1.491,4.59-3.9-2.836-3.9,2.836Zm5.378,3.3-1.133-3.488,2.966-2.156H172.34l-1.133-3.491-1.135,3.491H166.4l2.969,2.156-1.135,3.488,2.969-2.156Z" transform="translate(-164.893 -469.043)" fill="#b5ac84"/>
            </g>
            <g id="Grupo_53819" data-name="Grupo 53819" transform="translate(54.68 20.635)">
              <g id="Grupo_53816" data-name="Grupo 53816">
                <path id="Trazado_100558" data-name="Trazado 100558" d="M176.605,484.007h0A6.894,6.894,0,1,1,183.5,490.9,6.894,6.894,0,0,1,176.605,484.007Zm.724-.005a6.171,6.171,0,1,0,6.171-6.171A6.172,6.172,0,0,0,177.329,484Z" transform="translate(-176.605 -477.112)" fill="#b5ac84"/>
              </g>
              <g id="Grupo_53817" data-name="Grupo 53817" transform="translate(8.306 5.938)">
                <path id="Trazado_100559" data-name="Trazado 100559" d="M179.853,480.385a.953.953,0,1,1,.951.954A.951.951,0,0,1,179.853,480.385Zm.483,0v0a.468.468,0,1,0,.468-.471A.468.468,0,0,0,180.336,480.388Z" transform="translate(-179.853 -479.434)" fill="#b5ac84"/>
              </g>
              <g id="Grupo_53818" data-name="Grupo 53818" transform="translate(3.711 5.938)">
                <path id="Trazado_100560" data-name="Trazado 100560" d="M178.056,480.385h0a.953.953,0,1,1,.954.954A.952.952,0,0,1,178.056,480.385Zm.483,0v0a.469.469,0,1,0,.471-.471A.469.469,0,0,0,178.539,480.388Z" transform="translate(-178.056 -479.434)" fill="#b5ac84"/>
              </g>
            </g>
          </g>
        </g>
        <g id="Grupo_53852" data-name="Grupo 53852" transform="translate(196.082 9.466)">
          <path id="Trazado_100575" data-name="Trazado 100575" d="M221.618,433.106a4.071,4.071,0,0,1,4.654,6.68c-1.821,1.312-9.894,2-9.894,2s3.314-7.3,5.14-8.61Z" transform="translate(-178.694 -432.374)" fill="#7d6871"/>
          <path id="Trazado_100576" data-name="Trazado 100576" d="M201.859,483.89a.38.38,0,0,1-.184-.5c.12-.261,12.426-26.394,41.471-48.662a.374.374,0,0,1,.455.593c-28.892,22.154-41.126,48.125-41.246,48.384a.371.371,0,0,1-.338.217A.341.341,0,0,1,201.859,483.89Z" transform="translate(-201.642 -428.81)" fill="#54464c"/>
          <g id="Grupo_53850" data-name="Grupo 53850" transform="translate(27.316 16.106)">
            <path id="Trazado_100577" data-name="Trazado 100577" d="M225.759,443.419a4.074,4.074,0,0,1-4.716,3.3c-2.21-.4-8.3-5.741-8.3-5.741s7.554-2.672,9.766-2.268A4.071,4.071,0,0,1,225.759,443.419Z" transform="translate(-211.672 -438.672)" fill="#7d6871"/>
            <path id="Trazado_100578" data-name="Trazado 100578" d="M222.275,442.05c-6.764-1.33-9.626-1.949-9.656-1.956a.374.374,0,1,1,.161-.731c.026.005,2.885.624,9.638,1.951a.376.376,0,0,1-.072.744A.332.332,0,0,1,222.275,442.05Z" transform="translate(-212.324 -437.61)" fill="#54464c"/>
          </g>
          <g id="Grupo_53851" data-name="Grupo 53851" transform="translate(14.097 13.331)">
            <path id="Trazado_100579" data-name="Trazado 100579" d="M207.184,442.129l-.005-.033a4.071,4.071,0,1,1,8.094-.877c.253,2.235-3.094,9.608-3.094,9.608s-4.741-6.462-4.994-8.7Z" transform="translate(-207.155 -437.587)" fill="#7d6871"/>
            <path id="Trazado_100580" data-name="Trazado 100580" d="M209.537,449.263c0-.028-.235-2.943-.916-9.794a.375.375,0,0,1,.747-.074c.68,6.861.916,9.782.916,9.81a.374.374,0,0,1-.343.4h-.031A.374.374,0,0,1,209.537,449.263Z" transform="translate(-204.871 -435.274)" fill="#54464c"/>
          </g>
        </g>
        <g id="Grupo_53853" data-name="Grupo 53853" transform="translate(193.471 95.515)">
          <path id="Trazado_100581" data-name="Trazado 100581" d="M245.776,472s-4.805,7.383-5.879,9.577-6.744,15.461-11.073,17.533-20.233,2.125-20.233,2.125c1.818-16.512,19.758-35.853,46.241-35.193Z" transform="translate(-188.209 -466.023)" fill="#8f8b66"/>
          <path id="Trazado_100582" data-name="Trazado 100582" d="M242.641,480.294c-3.731,10-4.593,26.739-34.05,20.926,0,0,17.014-.762,23.977-8.557s3.918-21.138,22.264-26.634A27.864,27.864,0,0,0,242.641,480.294Z" transform="translate(-188.209 -466.013)" fill="#54464c"/>
          <path id="Trazado_100583" data-name="Trazado 100583" d="M200.744,521.448a.624.624,0,1,0,1,.747q3.36-4.507,6.3-8.459c7.444-10.022,12.909-17.379,17.648-23.1l.059-.01a.622.622,0,0,0,.419-.563c1.266-1.516,2.486-2.915,3.677-4.217l.046.008,13.658-.744a.676.676,0,0,0,.159-.031.624.624,0,0,0-.228-1.217l-12.418.673a64.287,64.287,0,0,1,15.19-11.994.625.625,0,1,0-.627-1.082,67.036,67.036,0,0,0-8.367,5.69l1.55-6.68h0a.623.623,0,1,0-1.215-.281l-1.841,7.935a.607.607,0,0,0,0,.271,86.868,86.868,0,0,0-9.733,9.932l-.33-3.488a.624.624,0,0,0-1.243.118l.445,4.708c-4.877,5.848-10.411,13.3-17.852,23.317q-2.923,3.94-6.293,8.459Z" transform="translate(-200.621 -460.287)" fill="#b3ae7f"/>
        </g>
        <g id="Grupo_53854" data-name="Grupo 53854" transform="translate(199.852 130.399)">
          <path id="Trazado_100584" data-name="Trazado 100584" d="M209.44,492.272s10.127,6.713,20.538,4.616,17.149-12.2,17.149-12.2-10.129-6.713-20.535-4.616S209.44,492.272,209.44,492.272Z" transform="translate(-193.268 -479.663)" fill="#8f8b66"/>
          <path id="Trazado_100585" data-name="Trazado 100585" d="M203.254,499.594a.246.246,0,0,1-.054-.049.321.321,0,0,1,.023-.455,68.785,68.785,0,0,1,16.51-10.293,88.753,88.753,0,0,1,31.49-7.26.324.324,0,0,1,.023.647,88.066,88.066,0,0,0-31.25,7.2,68.089,68.089,0,0,0-16.336,10.181.324.324,0,0,1-.407.023Z" transform="translate(-203.116 -476.746)" fill="#b3ae7f"/>
          <path id="Trazado_100586" data-name="Trazado 100586" d="M216.56,485.514a.3.3,0,0,1-.074-.074.321.321,0,0,1,.074-.45l6.25-4.549.023-.015a.324.324,0,0,1,.358.54l-6.25,4.549a.322.322,0,0,1-.378,0Z" transform="translate(-182.391 -478.562)" fill="#b3ae7f"/>
          <path id="Trazado_100587" data-name="Trazado 100587" d="M214.228,483.38a.322.322,0,0,1,.353-.54l7.782,4.624h0a.324.324,0,0,1-.33.557l-7.782-4.626-.023-.015Z" transform="translate(-186.035 -474.794)" fill="#b3ae7f"/>
          <path id="Trazado_100588" data-name="Trazado 100588" d="M211.511,487.37a.327.327,0,0,1-.043-.458l4.381-5.263.02-.026a.324.324,0,1,1,.476.44l-4.378,5.263a.323.323,0,0,1-.437.056Z" transform="translate(-190.225 -476.773)" fill="#b3ae7f"/>
        </g>
        <g id="Grupo_53919" data-name="Grupo 53919" transform="translate(126.901)">
          <g id="Grupo_53918" data-name="Grupo 53918">
            <g id="Grupo_53915" data-name="Grupo 53915">
              <path id="Trazado_100716" data-name="Trazado 100716" d="M178.828,439.4c-3.115-4.173-5.337-9.232-3.667-10.48s5.892,2.319,9.007,6.5,5.337,9.232,3.665,10.48S181.94,443.581,178.828,439.4Zm-3.4-10.127c-1.118.836.125,5,3.757,9.861s7.268,7.242,8.388,6.406-.123-5-3.757-9.861-7.268-7.24-8.385-6.406Z" transform="translate(-174.59 -428.672)" fill="#b5ac84"/>
            </g>
            <g id="Grupo_53916" data-name="Grupo 53916" transform="translate(8.768 11.724)">
              <path id="Trazado_100717" data-name="Trazado 100717" d="M178.971,437.3c-1.1-1.47-1.271-3.135-.4-3.787s2.424-.015,3.521,1.458,1.273,3.135.4,3.79S180.071,438.774,178.971,437.3Zm-.13-3.435c-.655.489-.435,1.941.486,3.171s2.248,1.857,2.9,1.368.43-1.941-.488-3.171-2.245-1.857-2.9-1.368Z" transform="translate(-178.018 -433.257)" fill="#b5ac84"/>
            </g>
            <g id="Grupo_53917" data-name="Grupo 53917" transform="translate(0.219 0.222)">
              <path id="Trazado_100718" data-name="Trazado 100718" d="M179.18,432.145a6.146,6.146,0,0,1,1.473-.409c-2.378-2.312-4.537-3.48-5.5-2.77s-.442,3.14,1.112,6.094a6.19,6.19,0,0,1,.806-1.314,1.323,1.323,0,0,1,2.1-1.6Z" transform="translate(-174.675 -428.759)" fill="#b5ac84"/>
            </g>
          </g>
        </g>
      </g>
      <g id="Grupo_55828" data-name="Grupo 55828" transform="translate(45.503)">
        <g id="Grupo_55799" data-name="Grupo 55799" transform="translate(98.336 20.036)">
          <g id="Grupo_55778" data-name="Grupo 55778" transform="translate(19.322)">
            <path id="Trazado_105138" data-name="Trazado 105138" d="M225.528,471.751a5.858,5.858,0,0,1-.693-2.059c.028-.783.634-1.552.353-2.286-.21-.545-.834-.818-1.133-1.32a2.076,2.076,0,0,1-.008-1.752,10.4,10.4,0,0,0,.619-1.7c.174-.99-.614-1.683-.721-2.606-.153-1.32,1.25-2.434,1.066-3.693a2.916,2.916,0,0,0-.435-1.038,4.614,4.614,0,0,1-.511-1.008c-.414-1.373.982-2.028.974-3.294-.008-1.046-1.233-1.772-1.258-2.818a4.857,4.857,0,0,1,.581-1.688,2.911,2.911,0,0,0-.979-3.25c-.478-.356-.437-.969-.4-1.565a10.66,10.66,0,0,1,.437-1.731,1.813,1.813,0,0,0-.292-1.688c-.488-.5-1.35-.473-1.811-.995-.586-.66-.171-1.675-.174-2.557a2.613,2.613,0,0,0-1.987-2.46c-.522-.867-.665-1.565-1.187-2.435-.315-.527-.7-1.1-1.309-1.2-.752-.128-1.519.555-2.232.284-.614-.233-.519-.762-.862-1.215a2.108,2.108,0,0,0-1.263-.744,6.449,6.449,0,0,0-2.335.174,3.92,3.92,0,0,1-2.317-.11c-.739-.34-1.368-1.115-2.174-.992-.749.113-1.169.949-1.867,1.238s-1.471-.015-2.2.095c-1.463.217-1.317,1.954-2.777,1.99-.808.02-1.734-.09-2.309.478-.78.772-.332,2.266-1.12,3.033-.854.831-2.634.271-3.2,1.317-.384.7.133,1.55.123,2.348a3.141,3.141,0,0,1-.916,1.915,6.153,6.153,0,0,0-1.243,1.759c-.514,1.4,1.061,2.074.752,3.48-.271,1.233-1.918,2.069-1.632,3.3.358,1.524,2.46,1.844,1.885,3.808a11.347,11.347,0,0,1-.939,1.862,2.377,2.377,0,0,0-.222,2c.373.818,1.481,1.268,1.522,2.166a1.68,1.68,0,0,1-.731,1.291,8.375,8.375,0,0,0-1.192.967,2.075,2.075,0,0,0,1.069,3.358c.811.207.422.581.258,1.4a4.6,4.6,0,0,1-1.332,1.9c-.511.593-.89,1.5-.417,2.13.4.534,1.227.57,1.68,1.061a1.983,1.983,0,0,1,.246,1.831,4.738,4.738,0,0,0-.294,1.887c.107.632.772,1.227,1.36.972h33.089C225.794,473.592,225.774,472.439,225.528,471.751Z" transform="translate(-188.769 -425.991)" fill="#2e3b4a"/>
          </g>
          <g id="Grupo_55779" data-name="Grupo 55779" transform="translate(0 39.387)">
            <path id="Trazado_105139" data-name="Trazado 105139" d="M203.244,441.393s-6.807,2.521-9.242,5.649c-3.171,4.079-6.1,17.43-7.173,26.8a20.211,20.211,0,0,1-1.836,6.414,41.107,41.107,0,0,0-3.624,11.157c-1.025,7.086,3.286,26.908,4.624,31.324-1.644,6.572.821,12.221,8.009,15.507C201.191,484.529,203.554,443.551,203.244,441.393Z" transform="translate(-181.213 -441.393)" fill="#b46e50"/>
          </g>
          <g id="Grupo_55780" data-name="Grupo 55780" transform="translate(53.086 39.387)">
            <path id="Trazado_105140" data-name="Trazado 105140" d="M202,441.393s6.81,2.521,9.245,5.649c3.171,4.079,6.1,17.43,7.173,26.8a20.274,20.274,0,0,0,1.834,6.414,40.93,40.93,0,0,1,3.624,11.157c1.028,7.086-3.286,26.908-4.621,31.324,1.644,6.572-.821,12.221-8.009,15.507C204.054,484.529,201.691,443.551,202,441.393Z" transform="translate(-201.972 -441.393)" fill="#b46e50"/>
          </g>
          <g id="Grupo_55782" data-name="Grupo 55782" transform="translate(38.091 98.506)">
            <g id="Grupo_55781" data-name="Grupo 55781">
              <path id="Trazado_105141" data-name="Trazado 105141" d="M196.108,486.077c.642-7.529,14.643-31.025,28.273-17.395,2.268,8.958-.944,34.332-7.572,55.217a44.85,44.85,0,0,1,4.133,26.716c-1.516,10.326-9.365,25.473-8.677,34.012l0,.028a8.515,8.515,0,0,0,2.562,5.355,31.675,31.675,0,0,0,6.022,4.319c1.857,1.094,3.867,1.913,4.45,2.943a.481.481,0,0,1-.483.685H206.892c-1.45,0-1.578-.729-2.082-1.453-2.4,0-3.227-.056-3.478-1.568a20.135,20.135,0,0,1-.046-2.588c.021-1.133.077-48.468-.312-63.906C197.944,515.225,196.108,486.077,196.108,486.077Z" transform="translate(-196.108 -464.511)" fill="#b46e50"/>
              <path id="Trazado_105142" data-name="Trazado 105142" d="M198.187,517.089c.251,1.511,1.074,1.568,3.478,1.568a48.924,48.924,0,0,0-3.524-4.156A20.132,20.132,0,0,0,198.187,517.089Z" transform="translate(-192.963 -386.663)" fill="#9b563e"/>
              <path id="Trazado_105143" data-name="Trazado 105143" d="M201.637,516.63c1.064,1.3,1.419,1.417,2.028,2.115a2.371,2.371,0,0,1,.647,1.422h1.005c-.409-1.639-2.542-3.168-3.23-3.787a5.579,5.579,0,0,1-1.481-1.916A4.04,4.04,0,0,0,201.637,516.63Z" transform="translate(-189.103 -386.72)" fill="#9b563e"/>
              <path id="Trazado_105144" data-name="Trazado 105144" d="M201.941,515.125a6.863,6.863,0,0,0,2.69,2.227c1.506.859,1.619,1.315,1.775,1.785h.849a2.684,2.684,0,0,0-1.11-1.552C204.987,516.769,203.222,516.176,201.941,515.125Z" transform="translate(-187.024 -385.691)" fill="#9b563e"/>
              <path id="Trazado_105145" data-name="Trazado 105145" d="M202.954,515.069a21.8,21.8,0,0,0,3.726,2.4c1.529.826,1.486,1.284,1.644,1.754h.846a2.671,2.671,0,0,0-1.11-1.552C206.9,516.857,205.5,516.5,202.954,515.069Z" transform="translate(-185.447 -385.778)" fill="#9b563e"/>
              <path id="Trazado_105146" data-name="Trazado 105146" d="M204.321,515.15c.765.647,1.862,1.015,3.657,2.151,1.458.921,1.371,1.327,1.527,1.8h.849a2.679,2.679,0,0,0-1.112-1.552A30.751,30.751,0,0,0,204.321,515.15Z" transform="translate(-183.318 -385.652)" fill="#9b563e"/>
              <path id="Trazado_105147" data-name="Trazado 105147" d="M203.7,517.109l-2.849.056a.344.344,0,0,1-.245-.095,3.087,3.087,0,0,1-.563-.644c-.013-.276.575-.586,1.25-.685a2.8,2.8,0,0,1,1.69.366c.153.112.57.532.823.79A.127.127,0,0,1,203.7,517.109Z" transform="translate(-189.977 -384.762)" fill="#d28369"/>
              <path id="Trazado_105148" data-name="Trazado 105148" d="M204.178,516.763h-1.6c-.156,0,.066-.494.621-.552C203.955,516.134,204.333,516.646,204.178,516.763Z" transform="translate(-186.11 -384.012)" fill="#d28369"/>
              <path id="Trazado_105149" data-name="Trazado 105149" d="M205.71,516.763h-1.6c-.153,0,.066-.494.624-.552C205.488,516.134,205.866,516.646,205.71,516.763Z" transform="translate(-183.726 -384.012)" fill="#d28369"/>
              <path id="Trazado_105150" data-name="Trazado 105150" d="M207.033,516.763h-1.6c-.153,0,.069-.494.624-.552C206.811,516.134,207.189,516.646,207.033,516.763Z" transform="translate(-181.665 -384.012)" fill="#d28369"/>
              <path id="Trazado_105151" data-name="Trazado 105151" d="M208.288,516.74h-1.6c-.156,0,.067-.494.624-.552C208.066,516.109,208.441,516.623,208.288,516.74Z" transform="translate(-179.713 -384.048)" fill="#d28369"/>
            </g>
            <path id="Trazado_105152" data-name="Trazado 105152" d="M206.837,496.622a.41.41,0,0,0,.4-.337c2.289-13.367,2.836-24.581,1.465-30a.405.405,0,0,0-.785.2c1.325,5.232.757,16.6-1.481,29.659a.4.4,0,0,0,.332.468A.324.324,0,0,0,206.837,496.622Z" transform="translate(-180.034 -462.216)" fill="#9b563e"/>
            <path id="Trazado_105153" data-name="Trazado 105153" d="M208.31,488.43c1.049,1.307-1.084,10.158-4,9.475-3.314-.545-5.848-7.733-4.583-9.367C200.822,487.131,206.653,486.359,208.31,488.43Z" transform="translate(-190.984 -429.241)" fill="#9b563e"/>
          </g>
          <g id="Grupo_55784" data-name="Grupo 55784" transform="translate(6.975 98.506)">
            <g id="Grupo_55783" data-name="Grupo 55783" transform="translate(0.161)">
              <path id="Trazado_105154" data-name="Trazado 105154" d="M213.252,486.077c-.639-7.529-14.643-31.025-28.273-17.395-2.268,8.958.944,34.332,7.572,55.217a44.83,44.83,0,0,0-4.13,26.716c1.514,10.326,9.362,25.473,8.674,34.012l0,.028a8.5,8.5,0,0,1-2.562,5.355,31.6,31.6,0,0,1-6.022,4.319c-1.857,1.094-3.867,1.913-4.447,2.943a.48.48,0,0,0,.481.685h17.929c1.447,0,1.578-.729,2.079-1.453,2.4,0,3.227-.056,3.478-1.568a19.969,19.969,0,0,0,.049-2.588c-.023-1.133-.079-48.468.312-63.906C211.416,515.225,213.252,486.077,213.252,486.077Z" transform="translate(-184.004 -464.511)" fill="#b46e50"/>
              <path id="Trazado_105155" data-name="Trazado 105155" d="M195.516,517.089c-.251,1.511-1.074,1.568-3.478,1.568a48.788,48.788,0,0,1,3.527-4.156A19.967,19.967,0,0,1,195.516,517.089Z" transform="translate(-171.492 -386.663)" fill="#9b563e"/>
              <path id="Trazado_105156" data-name="Trazado 105156" d="M192.781,516.63c-1.064,1.3-1.419,1.417-2.025,2.115a2.379,2.379,0,0,0-.65,1.422H189.1c.409-1.639,2.544-3.168,3.23-3.787a5.537,5.537,0,0,0,1.481-1.916A4.04,4.04,0,0,1,192.781,516.63Z" transform="translate(-176.066 -386.72)" fill="#9b563e"/>
              <path id="Trazado_105157" data-name="Trazado 105157" d="M192.844,515.125a6.864,6.864,0,0,1-2.688,2.227c-1.509.859-1.619,1.315-1.777,1.785h-.849a2.679,2.679,0,0,1,1.112-1.552C189.8,516.769,191.565,516.176,192.844,515.125Z" transform="translate(-178.512 -385.691)" fill="#9b563e"/>
              <path id="Trazado_105158" data-name="Trazado 105158" d="M192.381,515.069a21.746,21.746,0,0,1-3.723,2.4c-1.532.826-1.488,1.284-1.644,1.754h-.849a2.679,2.679,0,0,1,1.112-1.552C188.432,516.857,189.836,516.5,192.381,515.069Z" transform="translate(-180.639 -385.778)" fill="#9b563e"/>
              <path id="Trazado_105159" data-name="Trazado 105159" d="M190.9,515.15c-.767.647-1.864,1.015-3.659,2.151-1.458.921-1.368,1.327-1.527,1.8h-.846a2.659,2.659,0,0,1,1.11-1.552A30.808,30.808,0,0,1,190.9,515.15Z" transform="translate(-182.654 -385.652)" fill="#9b563e"/>
              <path id="Trazado_105160" data-name="Trazado 105160" d="M190.161,517.109l2.849.056a.344.344,0,0,0,.245-.095,3.088,3.088,0,0,0,.563-.644c.013-.276-.575-.586-1.251-.685a2.791,2.791,0,0,0-1.688.366c-.153.112-.573.532-.826.79A.127.127,0,0,0,190.161,517.109Z" transform="translate(-174.638 -384.762)" fill="#d28369"/>
              <path id="Trazado_105161" data-name="Trazado 105161" d="M188.4,516.763H190c.156,0-.066-.494-.624-.552C188.62,516.134,188.241,516.646,188.4,516.763Z" transform="translate(-177.216 -384.012)" fill="#d28369"/>
              <path id="Trazado_105162" data-name="Trazado 105162" d="M186.865,516.763h1.6c.156,0-.066-.494-.624-.552C187.088,516.134,186.709,516.646,186.865,516.763Z" transform="translate(-179.602 -384.012)" fill="#d28369"/>
              <path id="Trazado_105163" data-name="Trazado 105163" d="M185.542,516.763h1.6c.156,0-.066-.494-.624-.552C185.765,516.134,185.386,516.646,185.542,516.763Z" transform="translate(-181.662 -384.012)" fill="#d28369"/>
              <path id="Trazado_105164" data-name="Trazado 105164" d="M184.289,516.74h1.6c.156,0-.066-.494-.621-.552C184.512,516.109,184.133,516.623,184.289,516.74Z" transform="translate(-183.613 -384.048)" fill="#d28369"/>
            </g>
            <path id="Trazado_105165" data-name="Trazado 105165" d="M186.55,496.622a.406.406,0,0,1-.4-.337c-2.291-13.367-2.839-24.581-1.468-30a.408.408,0,0,1,.494-.292.4.4,0,0,1,.294.491c-1.327,5.232-.76,16.6,1.478,29.659a.4.4,0,0,1-.33.468A.324.324,0,0,1,186.55,496.622Z" transform="translate(-183.941 -462.216)" fill="#9b563e"/>
            <path id="Trazado_105166" data-name="Trazado 105166" d="M188.831,488.43c-1.048,1.307,1.087,10.158,4,9.475,3.317-.545,5.851-7.733,4.583-9.367C196.319,487.131,190.488,486.359,188.831,488.43Z" transform="translate(-176.747 -429.241)" fill="#9b563e"/>
          </g>
          <g id="Grupo_55788" data-name="Grupo 55788" transform="translate(7.414 25.647)">
            <g id="Grupo_55787" data-name="Grupo 55787" transform="translate(4.112)">
              <path id="Trazado_105167" data-name="Trazado 105167" d="M196.255,466.323Z" transform="translate(-169.314 -388.83)" fill="#b46e50"/>
              <g id="Grupo_55785" data-name="Grupo 55785" transform="translate(13.236)">
                <path id="Trazado_105168" data-name="Trazado 105168" d="M215.109,463.961c-.292.534-8.454,4.762-10.835,5.053s-12.927-3.5-13.267-5.153.146-9.28.923-15.743c.107-.079,1.8-1.005,3.312-1.823a4.488,4.488,0,0,0,2.345-3.992l-.023-1.882-.046-4.109,12.636-.292.164,3.989.125,3.025a4.486,4.486,0,0,0,2.166,3.657l2.21,1.33S215.546,462.744,215.109,463.961Z" transform="translate(-190.896 -436.02)" fill="#b46e50"/>
                <path id="Trazado_105169" data-name="Trazado 105169" d="M195.366,454.7a74.037,74.037,0,0,1,.836-9.482,58.645,58.645,0,0,1,.941,9.482Z" transform="translate(-183.935 -421.698)" fill="#8c4834"/>
                <path id="Trazado_105170" data-name="Trazado 105170" d="M192.6,441.767a30.214,30.214,0,0,0,8.393,1.463,29.757,29.757,0,0,0,8.457-1.655Z" transform="translate(-188.247 -427.369)" fill="#9b563e"/>
                <path id="Trazado_105171" data-name="Trazado 105171" d="M206.284,440.009c-1.575,2.089-3.749,4.13-6.224,4.13-2.854,0-5.1-1.984-6.529-3.718l-.046-4.109,12.636-.292Z" transform="translate(-186.864 -436.02)" fill="#8c4834"/>
              </g>
              <g id="Grupo_55786" data-name="Grupo 55786" transform="translate(0 43.816)">
                <path id="Trazado_105172" data-name="Trazado 105172" d="M185.879,473.748a49.11,49.11,0,0,1,3.534-7.447,11.771,11.771,0,0,0,1.468-4.544l.026-.243.908-8.36H230.34s0,.65.486,8.36c.008.123.015.248.023.373a11.8,11.8,0,0,0,1.808,5.562,46.962,46.962,0,0,1,3.255,6.419l-23.5,12.963C212.452,486.805,212.245,486.238,185.879,473.748Z" transform="translate(-185.473 -453.154)" fill="#b46e50"/>
                <path id="Trazado_105173" data-name="Trazado 105173" d="M186.127,469.163a.421.421,0,0,1-.136-.023.407.407,0,0,1-.248-.517,49.392,49.392,0,0,1,3.565-7.516,11.247,11.247,0,0,0,1.417-4.386.405.405,0,1,1,.806.087,12.1,12.1,0,0,1-1.516,4.7,48.562,48.562,0,0,0-3.506,7.383A.406.406,0,0,1,186.127,469.163Z" transform="translate(-185.72 -448.163)" fill="#9b563e"/>
                <path id="Trazado_105174" data-name="Trazado 105174" d="M208.7,469.163a.406.406,0,0,1-.381-.271,48.564,48.564,0,0,0-3.506-7.383,12.068,12.068,0,0,1-1.516-4.7.405.405,0,1,1,.806-.087,11.26,11.26,0,0,0,1.417,4.386,49.521,49.521,0,0,1,3.565,7.516.407.407,0,0,1-.248.517A.42.42,0,0,1,208.7,469.163Z" transform="translate(-158.348 -448.162)" fill="#9b563e"/>
                <path id="Trazado_105175" data-name="Trazado 105175" d="M187.845,461.514l.908-8.36h38.525s0,.65.486,8.36" transform="translate(-182.411 -453.154)" fill="#9b563e"/>
                <path id="Trazado_105176" data-name="Trazado 105176" d="M196.241,456.657s-1.419,4.787-.015,8.728A12.367,12.367,0,0,0,196.241,456.657Z" transform="translate(-170.326 -447.699)" fill="#8c4834"/>
                <rect id="Rectángulo_5360" data-name="Rectángulo 5360" width="0.245" height="0.811" transform="matrix(0.108, -0.994, 0.994, 0.108, 5.004, 8.558)" fill="#9b563e"/>
              </g>
            </g>
            <path id="Trazado_105177" data-name="Trazado 105177" d="M188.089,461.125a39.74,39.74,0,0,0-3.977,15.17c16.589,4.286,26.133,10.191,28.971,15.055h1.706s10.224-14.359,29.427-14.359c-1.023-6.833-2.614-11.927-5-15.865Z" transform="translate(-184.112 -396.925)" fill="#ffad54"/>
            <path id="Trazado_105178" data-name="Trazado 105178" d="M195.7,440.36l-.36,17.769-6.243-1.141,1.021-14.347Z" transform="translate(-176.342 -429.261)" fill="#ffad54"/>
            <path id="Trazado_105179" data-name="Trazado 105179" d="M199.8,440.36l.36,17.769,6.243-1.141-1.021-14.347Z" transform="translate(-159.682 -429.261)" fill="#ffad54"/>
            <path id="Trazado_105180" data-name="Trazado 105180" d="M226.726,446.075c-4.414.268-9.889,1.363-17.234,5.58-7.345-4.217-12.817-5.312-17.234-5.58a4.128,4.128,0,0,0-4.2,2.964,26.969,26.969,0,0,0-.432,14.306,5.843,5.843,0,0,0,5.685,4.214c6.235.018,16.185-.031,16.185-.031s9.953.049,16.185.031a5.843,5.843,0,0,0,5.687-4.214,27,27,0,0,0-.432-14.306A4.131,4.131,0,0,0,226.726,446.075Z" transform="translate(-179.861 -420.374)" fill="#ffad54"/>
          </g>
          <g id="Grupo_55798" data-name="Grupo 55798" transform="translate(25.306 10.137)">
            <path id="Trazado_105181" data-name="Trazado 105181" d="M210.128,434.791c-.049.47-.655,8.754-1.744,10.477a15.729,15.729,0,0,1-3.043,3.378,5.335,5.335,0,0,1-3.537,1.33h-1.11a5.346,5.346,0,0,1-3.539-1.33,15.782,15.782,0,0,1-3.041-3.378c-.954-1.844-1.082-4.266-1.312-6.291a36.832,36.832,0,0,1-.24-4.107c0,.112.634-.046.69-.074a1.989,1.989,0,0,0,.55-.486,1.393,1.393,0,0,0,.4-1.217,1.629,1.629,0,0,0,1.624-.2,1.8,1.8,0,0,0,.164-.148,1.631,1.631,0,0,0,.419-1.376,2.262,2.262,0,0,0,3.1-.593,2.088,2.088,0,0,0,2.593-.563c.348.23.721.575,1.158.517a1.83,1.83,0,0,0,1.23-.772,1.15,1.15,0,0,0,1.775,1.383.966.966,0,0,0,1.522.931.98.98,0,0,0,.987,1.534,1.125,1.125,0,0,0,.309.969C209.68,435.208,210.113,434.942,210.128,434.791Z" transform="translate(-188.846 -429.955)" fill="#b46e50"/>
            <g id="Grupo_55795" data-name="Grupo 55795" transform="translate(5.317 5.978)">
              <g id="Grupo_55790" data-name="Grupo 55790" transform="translate(8.656 0.027)">
                <path id="Trazado_105182" data-name="Trazado 105182" d="M196.573,434.034a17.755,17.755,0,0,1,2.793-.831,20.9,20.9,0,0,1,2.954-.23,6.28,6.28,0,0,0-2.542-.665,7.118,7.118,0,0,0-2.813.529A5.755,5.755,0,0,0,196.573,434.034Z" transform="translate(-196.573 -432.303)" fill="#312342"/>
                <g id="Grupo_55789" data-name="Grupo 55789" transform="translate(0.514 1.54)">
                  <path id="Trazado_105183" data-name="Trazado 105183" d="M196.774,435.12a3.319,3.319,0,0,1,.591.11,3.908,3.908,0,0,0,2.284.087,3.377,3.377,0,0,0,1.99-1.877C199.428,433.908,197.129,434.609,196.774,435.12Z" transform="translate(-196.774 -432.073)" fill="#9b563e"/>
                  <path id="Trazado_105184" data-name="Trazado 105184" d="M201.636,433.762a4.453,4.453,0,0,1-2.376,1.537,5.917,5.917,0,0,1-1.851.02,1.146,1.146,0,0,0-.583.1l-.051.026a2.466,2.466,0,0,1,.13-.611,2.378,2.378,0,0,1,.624-.985,2.139,2.139,0,0,1,.9-.493,4.2,4.2,0,0,1,1.961-.013A5.546,5.546,0,0,1,201.636,433.762Z" transform="translate(-196.772 -432.397)" fill="#fff"/>
                  <path id="Trazado_105185" data-name="Trazado 105185" d="M198.906,435.015a1.518,1.518,0,0,1-1.836-1.166,2.139,2.139,0,0,1,.9-.493,4.2,4.2,0,0,1,1.961-.013A1.426,1.426,0,0,1,198.906,435.015Z" transform="translate(-196.313 -432.397)" fill="#312342"/>
                  <path id="Trazado_105186" data-name="Trazado 105186" d="M197.869,433.778c-.013-.281,1.294-.248,1.253.041S197.882,434.06,197.869,433.778Z" transform="translate(-195.069 -431.849)" fill="#fff"/>
                  <path id="Trazado_105187" data-name="Trazado 105187" d="M197.409,434.344a1.146,1.146,0,0,0-.583.1l-.051.026a2.466,2.466,0,0,1,.13-.611A1.4,1.4,0,0,0,197.409,434.344Z" transform="translate(-196.772 -431.422)" fill="#8c4834"/>
                  <path id="Trazado_105188" data-name="Trazado 105188" d="M198.72,433.248a2.514,2.514,0,0,0-1.946,2.4,2.609,2.609,0,0,1,2.061-1.943,4.459,4.459,0,0,1,2.8.263l.652-.56A7.938,7.938,0,0,0,198.72,433.248Z" transform="translate(-196.774 -432.602)" fill="#312342"/>
                  <path id="Trazado_105189" data-name="Trazado 105189" d="M196.8,434.311a2.922,2.922,0,0,1,1.519-.926,7.435,7.435,0,0,1,2.437-.159,4.318,4.318,0,0,0-2.087-.3A2.213,2.213,0,0,0,196.8,434.311Z" transform="translate(-196.734 -432.905)" fill="#9b563e"/>
                </g>
              </g>
              <g id="Grupo_55792" data-name="Grupo 55792">
                <path id="Trazado_105190" data-name="Trazado 105190" d="M198.958,434.043a17.594,17.594,0,0,0-2.787-.846,20.566,20.566,0,0,0-2.954-.248,6.276,6.276,0,0,1,2.547-.652,7.144,7.144,0,0,1,2.81.547A5.829,5.829,0,0,1,198.958,434.043Z" transform="translate(-193.143 -432.293)" fill="#312342"/>
                <g id="Grupo_55791" data-name="Grupo 55791" transform="translate(0 1.753)">
                  <path id="Trazado_105191" data-name="Trazado 105191" d="M198.293,435.215a3.2,3.2,0,0,0-.591.108,3.92,3.92,0,0,1-2.284.074,3.381,3.381,0,0,1-1.977-1.89C195.646,433.988,197.943,434.7,198.293,435.215Z" transform="translate(-192.792 -432.155)" fill="#9b563e"/>
                  <path id="Trazado_105192" data-name="Trazado 105192" d="M193.442,433.821a4.432,4.432,0,0,0,2.365,1.55,5.91,5.91,0,0,0,1.851.033,1.133,1.133,0,0,1,.58.1l.054.026a2.527,2.527,0,0,0-.128-.611,2.344,2.344,0,0,0-.619-.987,2.117,2.117,0,0,0-.9-.5,4.217,4.217,0,0,0-1.961-.028A5.55,5.55,0,0,0,193.442,433.821Z" transform="translate(-192.792 -432.471)" fill="#fff"/>
                  <path id="Trazado_105193" data-name="Trazado 105193" d="M194.955,435.086a1.516,1.516,0,0,0,1.841-1.153,2.117,2.117,0,0,0-.9-.5,4.217,4.217,0,0,0-1.961-.028A1.427,1.427,0,0,0,194.955,435.086Z" transform="translate(-192.042 -432.471)" fill="#312342"/>
                  <path id="Trazado_105194" data-name="Trazado 105194" d="M195.091,434.419a1.133,1.133,0,0,1,.581.1l.054.025a2.527,2.527,0,0,0-.128-.611A1.423,1.423,0,0,1,195.091,434.419Z" transform="translate(-190.225 -431.487)" fill="#8c4834"/>
                  <path id="Trazado_105195" data-name="Trazado 105195" d="M196.758,433.325a2.514,2.514,0,0,1,1.931,2.414,2.607,2.607,0,0,0-2.046-1.956,4.474,4.474,0,0,0-2.805.248l-.65-.565A7.961,7.961,0,0,1,196.758,433.325Z" transform="translate(-193.188 -432.679)" fill="#312342"/>
                  <path id="Trazado_105196" data-name="Trazado 105196" d="M197.724,434.4a2.952,2.952,0,0,0-1.514-.936,7.458,7.458,0,0,0-2.437-.171,4.306,4.306,0,0,1,2.087-.284A2.214,2.214,0,0,1,197.724,434.4Z" transform="translate(-192.277 -432.978)" fill="#9b563e"/>
                  <path id="Trazado_105197" data-name="Trazado 105197" d="M194.622,433.918c-.013-.279,1.294-.248,1.25.044S194.632,434.2,194.622,433.918Z" transform="translate(-190.955 -431.816)" fill="#fff"/>
                </g>
              </g>
              <path id="Trazado_105198" data-name="Trazado 105198" d="M195.255,434.669a4.515,4.515,0,0,0,2.025,1.217,6.49,6.49,0,0,0,2.171-1.184l-2.171.591Z" transform="translate(-189.969 -428.592)" fill="#8c4834"/>
              <g id="Grupo_55794" data-name="Grupo 55794" transform="translate(3.892 7.813)">
                <g id="Grupo_55793" data-name="Grupo 55793">
                  <path id="Trazado_105199" data-name="Trazado 105199" d="M194.71,435.458a19.394,19.394,0,0,1,3.294-.074,7.934,7.934,0,0,1,3.048.76,5.189,5.189,0,0,1-3.158.606A6.9,6.9,0,0,1,194.71,435.458Z" transform="translate(-194.71 -435.348)" fill="#9b563e"/>
                  <path id="Trazado_105200" data-name="Trazado 105200" d="M201.052,436.076a4.9,4.9,0,0,1-3.46,1.013,4.123,4.123,0,0,1-2.882-1.7A8.737,8.737,0,0,0,201.052,436.076Z" transform="translate(-194.71 -435.281)" fill="#8c4834"/>
                </g>
                <path id="Trazado_105201" data-name="Trazado 105201" d="M198.29,436.569a3.5,3.5,0,0,1-1.547.2,3.708,3.708,0,0,1-1.368-.445,1.812,1.812,0,0,0,1.417.951A1.785,1.785,0,0,0,198.29,436.569Z" transform="translate(-193.674 -433.829)" fill="#9b563e"/>
              </g>
            </g>
            <g id="Grupo_55796" data-name="Grupo 55796" transform="translate(0 6.443)">
              <path id="Trazado_105202" data-name="Trazado 105202" d="M195.887,435.788c-.11-.082-1.616-3.23-3.368-3.312s-1.5,2.6-1.176,3.365.985,2.9,2.928,3.475a3.108,3.108,0,0,0,2.053-.956Z" transform="translate(-191.109 -432.474)" fill="#b46e50"/>
              <path id="Trazado_105203" data-name="Trazado 105203" d="M191.649,434.816c-.02-.1-.657-1.688.289-1.936s2.534,2.082,3.3,2.864c-.68-.041-1.585-.228-1.565.412s1.051,1.381,1.956,1.34c-.905.432-1.256.721-1.915.555s-1.34-1.194-1.34-1.194a2.115,2.115,0,0,0,1.915.742c-1.069-.557-1.874-1.813-1.112-2.143a1.792,1.792,0,0,1,1.4-.021s-1.215-1.524-2-1.708S191.649,434.816,191.649,434.816Z" transform="translate(-190.623 -431.871)" fill="#9b563e"/>
              <path id="Trazado_105204" data-name="Trazado 105204" d="M192.954,433.757s-.65.013-.79.358a1.532,1.532,0,0,0,.179,1.309C191.338,434.547,191.377,433.223,192.954,433.757Z" transform="translate(-190.243 -430.669)" fill="#9b563e"/>
            </g>
            <g id="Grupo_55797" data-name="Grupo 55797" transform="translate(20.001 6.443)">
              <path id="Trazado_105205" data-name="Trazado 105205" d="M199.367,435.788c.11-.082,1.616-3.23,3.368-3.312s1.5,2.6,1.176,3.365-.985,2.9-2.928,3.475a3.108,3.108,0,0,1-2.054-.956Z" transform="translate(-198.93 -432.474)" fill="#b46e50"/>
              <path id="Trazado_105206" data-name="Trazado 105206" d="M202.987,434.816c.023-.1.66-1.688-.286-1.936s-2.534,2.082-3.3,2.864c.68-.041,1.585-.228,1.565.412s-1.051,1.381-1.956,1.34c.905.432,1.256.721,1.915.555s1.34-1.194,1.34-1.194a2.117,2.117,0,0,1-1.918.742c1.072-.557,1.875-1.813,1.112-2.143a1.784,1.784,0,0,0-1.4-.021s1.215-1.524,2-1.708S202.987,434.816,202.987,434.816Z" transform="translate(-198.801 -431.871)" fill="#9b563e"/>
              <path id="Trazado_105207" data-name="Trazado 105207" d="M199.909,433.757s.65.013.79.358a1.532,1.532,0,0,1-.179,1.309C201.525,434.547,201.487,433.223,199.909,433.757Z" transform="translate(-197.405 -430.669)" fill="#9b563e"/>
            </g>
          </g>
        </g>
        <g id="Grupo_55827" data-name="Grupo 55827">
          <g id="Grupo_55802" data-name="Grupo 55802" transform="translate(52.786 130.393)">
            <g id="Grupo_55800" data-name="Grupo 55800">
              <path id="Trazado_105208" data-name="Trazado 105208" d="M186.143,469.145s-.033,3.279-.084,8.672v.015c-.079,8.194.133,21.159.01,35.042,9.229,22.177-3.457,39.771-3.243,59.751.041,1.028.107,2.061.225,3.1.573,5.053,6.16,8.577,10.155,10.932,2.084,1.23,4.342,2.151,5,3.309a.539.539,0,0,1-.54.77H177.515c-1.629,0-1.775-.821-2.34-1.634-2.7,0-3.626-.064-3.908-1.759a23.18,23.18,0,0,1-.054-2.91c.046-2.325.192-5.46.3-7.667-.036-.941-.107-2.363-.212-4.145-.892-15.208-4.053-54.373-4.053-54.373L164.391,477.7l0-.018-.987-8.265Z" transform="translate(-163.401 -469.145)" fill="#ffa78f"/>
              <path id="Trazado_105209" data-name="Trazado 105209" d="M166.518,517.139c.281,1.7,1.207,1.759,3.908,1.759a54.294,54.294,0,0,0-3.961-4.67A23.179,23.179,0,0,0,166.518,517.139Z" transform="translate(-158.652 -398.937)" fill="#ff8762"/>
              <path id="Trazado_105210" data-name="Trazado 105210" d="M170.394,516.623c1.2,1.463,1.593,1.591,2.279,2.376a2.691,2.691,0,0,1,.729,1.6h1.13c-.46-1.841-2.862-3.56-3.631-4.255a6.288,6.288,0,0,1-1.665-2.153A4.532,4.532,0,0,0,170.394,516.623Z" transform="translate(-154.314 -399)" fill="#e87454"/>
              <path id="Trazado_105211" data-name="Trazado 105211" d="M170.736,514.931s.56,1.092,3.023,2.5c1.7.964,1.821,1.476,2,2h.954a3.011,3.011,0,0,0-1.251-1.744C174.16,516.777,172.176,516.11,170.736,514.931Z" transform="translate(-151.978 -397.843)" fill="#e87454"/>
              <path id="Trazado_105212" data-name="Trazado 105212" d="M171.875,514.868a24.628,24.628,0,0,0,4.186,2.7c1.719.928,1.67,1.442,1.846,1.972h.954a3,3,0,0,0-1.248-1.744C176.312,516.876,174.737,516.471,171.875,514.868Z" transform="translate(-150.205 -397.942)" fill="#e87454"/>
              <path id="Trazado_105213" data-name="Trazado 105213" d="M173.411,514.959c.859.726,2.092,1.141,4.11,2.417,1.639,1.036,1.539,1.491,1.716,2.02h.954a3,3,0,0,0-1.248-1.744A34.564,34.564,0,0,0,173.411,514.959Z" transform="translate(-147.813 -397.8)" fill="#e87454"/>
              <path id="Trazado_105214" data-name="Trazado 105214" d="M172.713,517.158l-3.2.064a.383.383,0,0,1-.276-.1,3.569,3.569,0,0,1-.632-.724c-.015-.309.647-.657,1.407-.77a3.143,3.143,0,0,1,1.9.409c.171.128.642.6.926.887C172.928,517.013,172.854,517.156,172.713,517.158Z" transform="translate(-155.296 -396.8)" fill="#ff8762"/>
              <path id="Trazado_105215" data-name="Trazado 105215" d="M173.251,516.771h-1.8c-.176,0,.074-.555.7-.619C173,516.062,173.427,516.638,173.251,516.771Z" transform="translate(-150.951 -395.957)" fill="#ff8762"/>
              <path id="Trazado_105216" data-name="Trazado 105216" d="M174.974,516.771h-1.8c-.174,0,.077-.555.7-.619C174.723,516.062,175.148,516.638,174.974,516.771Z" transform="translate(-148.271 -395.957)" fill="#ff8762"/>
              <path id="Trazado_105217" data-name="Trazado 105217" d="M176.461,516.771h-1.8c-.174,0,.077-.555.7-.619C176.21,516.062,176.635,516.638,176.461,516.771Z" transform="translate(-145.955 -395.957)" fill="#ff8762"/>
              <path id="Trazado_105218" data-name="Trazado 105218" d="M177.868,516.745h-1.8c-.176,0,.074-.555.7-.619C177.617,516.036,178.044,516.612,177.868,516.745Z" transform="translate(-143.761 -395.998)" fill="#ff8762"/>
            </g>
            <g id="Grupo_55801" data-name="Grupo 55801">
              <path id="Trazado_105219" data-name="Trazado 105219" d="M163.4,469.414l.987,8.265,21.67.138c.051-5.393.084-8.672.084-8.672Z" transform="translate(-163.401 -469.145)" fill="#ff8762"/>
              <path id="Trazado_105220" data-name="Trazado 105220" d="M175,487.151s-.647,7.385-3.567,7.332c-2.58-.046-4.91-3.391-4.46-6.892S175.007,483.394,175,487.151Z" transform="translate(-157.927 -445.025)" fill="#ff8762"/>
            </g>
          </g>
          <g id="Grupo_55803" data-name="Grupo 55803" transform="translate(22.863 24.516)">
            <path id="Trazado_105221" data-name="Trazado 105221" d="M204.986,495.327a22.626,22.626,0,0,1-1.726,4.846s-15.055,8.36-28.061,8.638-21.294-9.352-21.294-9.352a26.927,26.927,0,0,1-1.414-4.133,22.219,22.219,0,0,1-.749-6.948,20.666,20.666,0,0,1,1.468-6.224,68.108,68.108,0,0,0,4.537-24.54c.008-4.833.041-8.956.041-10.2a8.877,8.877,0,0,1,4.81-7.968c2.5-1.409,8.991-4.023,8.991-4.023l.292-3.138.386-4.153,13.41-.389.332,4.368.268,3.524s6.882,2.841,9.439,3.892,3.833,3.232,3.908,7.214c.018,1.023.074,5.473.207,11.255a68.5,68.5,0,0,0,4.677,23.115,16.632,16.632,0,0,1,.9,3.148A27.111,27.111,0,0,1,204.986,495.327Z" transform="translate(-151.7 -427.743)" fill="#ffa78f"/>
            <path id="Trazado_105222" data-name="Trazado 105222" d="M204.5,454.171a22.624,22.624,0,0,1-1.726,4.846s-15.055,8.36-28.061,8.638-21.294-9.352-21.294-9.352a26.927,26.927,0,0,1-1.414-4.133Z" transform="translate(-151.219 -386.587)" fill="#ff8762"/>
            <path id="Trazado_105223" data-name="Trazado 105223" d="M173.305,428.876a7.094,7.094,0,0,1-2.117,5.621c-.286.281-.5.486-.616.573-.7.565-3.578,2.529-6.4,1.258a8.807,8.807,0,0,1-1.767-1.084,7.042,7.042,0,0,1-2.672-6.235l.082-.877,13.41-.389Z" transform="translate(-139.245 -427.743)" fill="#e87454"/>
            <path id="Trazado_105224" data-name="Trazado 105224" d="M161.416,440.37c.1-1.11-3.943-1.5-4.258,0S161.26,442.186,161.416,440.37Z" transform="translate(-143.225 -409.611)" fill="#e87454"/>
            <path id="Trazado_105225" data-name="Trazado 105225" d="M170.707,440.37c.1-1.11-3.943-1.5-4.258,0S170.551,442.186,170.707,440.37Z" transform="translate(-128.757 -409.611)" fill="#e87454"/>
            <path id="Trazado_105226" data-name="Trazado 105226" d="M162.616,450.6s-2.158,3.657.166,6.582A6.6,6.6,0,0,0,162.616,450.6Z" transform="translate(-136.12 -392.142)" fill="#e87454"/>
            <path id="Trazado_105227" data-name="Trazado 105227" d="M157.92,432.3a48.854,48.854,0,0,0,10.672,2.13,30.135,30.135,0,0,0,11.981-1.954S167.359,433.7,157.92,432.3Z" transform="translate(-142.013 -420.653)" fill="#ff8762"/>
            <path id="Trazado_105228" data-name="Trazado 105228" d="M156.564,449.273a39.564,39.564,0,0,1,30.6,1.13A26.71,26.71,0,0,0,156.564,449.273Z" transform="translate(-144.125 -400.879)" fill="#ff8762"/>
          </g>
          <g id="Grupo_55806" data-name="Grupo 55806" transform="translate(11.606 130.393)">
            <g id="Grupo_55804" data-name="Grupo 55804">
              <path id="Trazado_105229" data-name="Trazado 105229" d="M159.424,469.145s.031,3.279.082,8.672v.015c.079,8.194-.133,21.159-.008,35.042-9.232,22.177,3.455,39.771,3.24,59.751-.041,1.028-.107,2.061-.225,3.1-.573,5.053-6.16,8.577-10.155,10.932-2.084,1.23-4.342,2.151-5,3.309a.539.539,0,0,0,.54.77H168.05c1.629,0,1.775-.821,2.34-1.634,2.7,0,3.626-.064,3.908-1.759a22.7,22.7,0,0,0,.054-2.91c-.046-2.325-.192-5.46-.3-7.667.036-.941.107-2.363.212-4.145.892-15.208,4.053-54.373,4.053-54.373l2.862-40.556,0-.018.987-8.265Z" transform="translate(-147.298 -469.145)" fill="#ffa78f"/>
              <path id="Trazado_105230" data-name="Trazado 105230" d="M160.236,517.139c-.281,1.7-1.207,1.759-3.908,1.759a54.283,54.283,0,0,1,3.961-4.67A22.7,22.7,0,0,1,160.236,517.139Z" transform="translate(-133.236 -398.937)" fill="#ff8762"/>
              <path id="Trazado_105231" data-name="Trazado 105231" d="M157.164,516.623c-1.2,1.463-1.593,1.591-2.279,2.376a2.691,2.691,0,0,0-.729,1.6h-1.13c.46-1.841,2.862-3.56,3.634-4.255a6.254,6.254,0,0,0,1.662-2.153A4.532,4.532,0,0,1,157.164,516.623Z" transform="translate(-138.378 -399)" fill="#e87454"/>
              <path id="Trazado_105232" data-name="Trazado 105232" d="M157.233,514.931s-.56,1.092-3.023,2.5c-1.7.964-1.821,1.476-2,2h-.951a2.991,2.991,0,0,1,1.248-1.744C153.809,516.777,155.794,516.11,157.233,514.931Z" transform="translate(-141.125 -397.843)" fill="#e87454"/>
              <path id="Trazado_105233" data-name="Trazado 105233" d="M156.712,514.868a24.52,24.52,0,0,1-4.186,2.7c-1.718.928-1.67,1.442-1.846,1.972h-.954a3,3,0,0,1,1.248-1.744C152.276,516.876,153.851,516.471,156.712,514.868Z" transform="translate(-143.517 -397.942)" fill="#e87454"/>
              <path id="Trazado_105234" data-name="Trazado 105234" d="M155.053,514.959c-.862.726-2.094,1.141-4.112,2.417-1.639,1.036-1.539,1.491-1.716,2.02h-.954a3.015,3.015,0,0,1,1.248-1.744A34.506,34.506,0,0,1,155.053,514.959Z" transform="translate(-145.783 -397.8)" fill="#e87454"/>
              <path id="Trazado_105235" data-name="Trazado 105235" d="M154.221,517.158l3.2.064a.383.383,0,0,0,.276-.1,3.49,3.49,0,0,0,.632-.724c.015-.309-.647-.657-1.4-.77a3.147,3.147,0,0,0-1.9.409c-.171.128-.642.6-.926.887C154.006,517.013,154.08,517.156,154.221,517.158Z" transform="translate(-136.772 -396.8)" fill="#ff8762"/>
              <path id="Trazado_105236" data-name="Trazado 105236" d="M152.235,516.771h1.8c.176,0-.074-.555-.7-.619C152.486,516.062,152.062,516.638,152.235,516.771Z" transform="translate(-139.669 -395.957)" fill="#ff8762"/>
              <path id="Trazado_105237" data-name="Trazado 105237" d="M150.513,516.771h1.8c.174,0-.077-.555-.7-.619C150.764,516.062,150.34,516.638,150.513,516.771Z" transform="translate(-142.351 -395.957)" fill="#ff8762"/>
              <path id="Trazado_105238" data-name="Trazado 105238" d="M149.028,516.771h1.8c.174,0-.074-.555-.7-.619C149.276,516.062,148.852,516.638,149.028,516.771Z" transform="translate(-144.666 -395.957)" fill="#ff8762"/>
              <path id="Trazado_105239" data-name="Trazado 105239" d="M147.619,516.745h1.8c.176,0-.074-.555-.7-.619C147.87,516.036,147.443,516.612,147.619,516.745Z" transform="translate(-146.86 -395.998)" fill="#ff8762"/>
            </g>
            <g id="Grupo_55805" data-name="Grupo 55805" transform="translate(12.126)">
              <path id="Trazado_105240" data-name="Trazado 105240" d="M174.779,469.414l-.987,8.265-21.67.138c-.051-5.393-.082-8.672-.082-8.672Z" transform="translate(-152.04 -469.145)" fill="#ff8762"/>
              <path id="Trazado_105241" data-name="Trazado 105241" d="M154.256,487.151s.647,7.385,3.567,7.332c2.58-.046,4.91-3.391,4.46-6.892S154.248,483.394,154.256,487.151Z" transform="translate(-148.589 -445.025)" fill="#ff8762"/>
            </g>
          </g>
          <g id="Grupo_55808" data-name="Grupo 55808" transform="translate(20.579 96.233)">
            <g id="Grupo_55807" data-name="Grupo 55807">
              <path id="Trazado_105242" data-name="Trazado 105242" d="M204.651,456.5l-49.358-.714s-6.746,21.952-3.693,38.022h25.882c.322,0,2.1-9.137,2.1-9.137s1.782,9.137,2.107,9.137h25.463C210.453,476.151,204.651,456.5,204.651,456.5Z" transform="translate(-150.807 -455.787)" fill="#86bec4"/>
            </g>
          </g>
          <g id="Grupo_55810" data-name="Grupo 55810" transform="translate(61.136 37.022)">
            <path id="Trazado_105243" data-name="Trazado 105243" d="M168.08,434.735c1.046-2.325,4.705-2.677,6.83-1.271,2.082,1.376,5.644,4.493,9.416,7.488,7.83,6.214,18.891,17.331,21,22.425s-9.83,29.562-14.3,33.206a35.469,35.469,0,0,1-7.327-4.309l6.562-24.015s-16.7-14.346-20.231-18.98C165.689,443.56,166.141,439.049,168.08,434.735Z" transform="translate(-166.666 -432.633)" fill="#ffa78f"/>
            <g id="Grupo_55809" data-name="Grupo 55809" transform="translate(3.638 57.13)">
              <path id="Trazado_105244" data-name="Trazado 105244" d="M182.192,455.5a36.315,36.315,0,0,0-7.13-.049c-1.424.345-3.885,4.409-4.547,4.9s-2.071,1-2.11,1.557,1.2.944,2.463.55S182.269,458.971,182.192,455.5Z" transform="translate(-167.597 -454.485)" fill="#e87454"/>
              <path id="Trazado_105245" data-name="Trazado 105245" d="M174.04,459.319c1.194-1.033,13.224-5.34,14.183-4.135a6.22,6.22,0,0,1,.593,6.608c-.816,1.258-4.255,5.831-6.787,7.6a11.53,11.53,0,0,1-1.9,1.657c-2.312,1.675-3.8,2.629-4.365,1.788-.327-.483,2.908-3.22,4.552-5.127a4.55,4.55,0,0,0-1.892.9l-.033.033c-1.355,1.2-5.084,4.168-5.675,2.931-.281-.586,1.938-2.757,3.7-4.473,1.194-1.164,1.736-2.235,1.6-2.468-1.665,1.2-5.452,3.79-5.981,4.058-.8.407-1.509.1-1.529-.4-.015-.34,3.675-3.869,5.762-5.726a3.076,3.076,0,0,0-2.5.527c-1.765,1.207-3.378,3.082-4.1,3.534-1.179.736-1.363.361-1.565-.194C168.074,465.6,172.045,461.048,174.04,459.319Z" transform="translate(-168.089 -454.974)" fill="#ffa78f"/>
            </g>
          </g>
          <g id="Grupo_55812" data-name="Grupo 55812" transform="translate(0 37.188)">
            <g id="Grupo_55811" data-name="Grupo 55811" transform="translate(14.034 56.965)">
              <path id="Trazado_105246" data-name="Trazado 105246" d="M150.914,455.5a36.319,36.319,0,0,1,7.13-.049c1.424.345,3.887,4.409,4.549,4.9s2.071,1,2.11,1.557-1.207.944-2.463.55S150.84,458.971,150.914,455.5Z" transform="translate(-144.095 -454.485)" fill="#e87454"/>
              <path id="Trazado_105247" data-name="Trazado 105247" d="M163.713,459.319c-1.2-1.033-13.226-5.34-14.185-4.135a6.226,6.226,0,0,0-.593,6.608c.818,1.258,4.255,5.831,6.79,7.6a11.423,11.423,0,0,0,1.9,1.657c2.312,1.675,3.8,2.629,4.365,1.788.325-.483-2.908-3.22-4.555-5.127a4.558,4.558,0,0,1,1.895.9l.033.033c1.355,1.2,5.084,4.168,5.672,2.931.281-.586-1.938-2.757-3.7-4.473-1.192-1.164-1.734-2.235-1.6-2.468,1.667,1.2,5.452,3.79,5.981,4.058.8.407,1.509.1,1.532-.4.015-.34-3.675-3.869-5.762-5.726a3.071,3.071,0,0,1,2.5.527c1.764,1.207,3.378,3.082,4.1,3.534,1.179.736,1.363.361,1.565-.194C169.676,465.6,165.707,461.048,163.713,459.319Z" transform="translate(-148.248 -454.974)" fill="#ffa78f"/>
            </g>
            <path id="Trazado_105248" data-name="Trazado 105248" d="M179.662,435.12c-1.046-2.327-2.818-3.222-5.736-1.588-2.176,1.22-5.969,4.324-9.741,7.319-7.828,6.214-18.614,17.136-20.921,22.146-3.207,6.974,9.748,29.841,14.216,33.485a35.466,35.466,0,0,0,7.327-4.309l-6.621-23.737s16.763-14.625,20.289-19.259C182.825,443.459,181.6,439.434,179.662,435.12Z" transform="translate(-142.76 -432.698)" fill="#ffa78f"/>
          </g>
          <g id="Grupo_55826" data-name="Grupo 55826" transform="translate(37.334)">
            <path id="Trazado_105249" data-name="Trazado 105249" d="M182.523,433.75c.245-.417.885-8.406-4.069-12.477-5.639-4.631-13.359-3.626-17.254-.087s-4.866,8.935-2.741,14.421C158.459,435.607,175.971,444.895,182.523,433.75Z" transform="translate(-157.359 -418.156)" fill="#2e3b4a"/>
            <g id="Grupo_55824" data-name="Grupo 55824" transform="translate(0.083 8.28)">
              <g id="Grupo_55813" data-name="Grupo 55813" transform="translate(0 5.807)">
                <path id="Trazado_105250" data-name="Trazado 105250" d="M161.518,426.609s-.609-2.445-1.767-2.885-2.631,1.614-2.317,3.2,1.882,3.524,3.015,3.846c.916.258,1.667-.783,1.811-1.427A8.5,8.5,0,0,0,161.518,426.609Z" transform="translate(-157.391 -423.665)" fill="#ffa78f"/>
                <path id="Trazado_105251" data-name="Trazado 105251" d="M158.5,427.527a3.709,3.709,0,0,1-.652-1.877c.1-.757.667-1.649,1.128-1.619s1.506,2.345,1.555,2.739-.872.409-.747.893.783.936.99,1.2c.141.182.233.522-.322.6s-1.427-1.046-1.427-1.046,1.018.777,1.286.581-.685-.913-1.033-1.442.749-.688.724-.985c-.008-.1-.66-1.7-1.074-1.665S158.037,425.847,158.5,427.527Z" transform="translate(-156.697 -423.095)" fill="#e87454"/>
                <path id="Trazado_105252" data-name="Trazado 105252" d="M158.81,424.852a1.435,1.435,0,0,0-.371,1.217,1.583,1.583,0,0,0,.527.969,1.465,1.465,0,0,1-.818-1.268A.9.9,0,0,1,158.81,424.852Z" transform="translate(-156.213 -421.816)" fill="#e87454"/>
              </g>
              <g id="Grupo_55814" data-name="Grupo 55814" transform="translate(3.217)">
                <path id="Trazado_105253" data-name="Trazado 105253" d="M159.114,427.355a1.948,1.948,0,0,0-.463,1.34,38.3,38.3,0,0,0,2.317,10.14c.373.816,3.659,3.67,4.629,4.25a6.829,6.829,0,0,0,4.368-.085c.644-.345,4.381-2.879,4.987-3.846.673-1.069,2.79-8.818,2.79-8.818-1.537.192-.954-1.765-1.442-2.565-.391-.644-1.412-.926-2.02-1.327a12.032,12.032,0,0,1-2.059-1.718,4.613,4.613,0,0,1-1.545-3.332l-8.621,4.12A8.478,8.478,0,0,0,159.114,427.355Z" transform="translate(-158.649 -421.394)" fill="#ffa78f"/>
              </g>
              <g id="Grupo_55816" data-name="Grupo 55816" transform="translate(13.788 7.145)">
                <g id="Grupo_55815" data-name="Grupo 55815" transform="translate(0 0.519)">
                  <path id="Trazado_105254" data-name="Trazado 105254" d="M162.783,425.541s.33.575,2.6.593,3.028-1.036,3.028-1.036l-5.158.176Z" transform="translate(-162.783 -423.288)" fill="#ff8762"/>
                  <path id="Trazado_105255" data-name="Trazado 105255" d="M163.459,424.62a2.916,2.916,0,0,0-.557,1.759c1.031-.082,2.867-1.849,2.867-1.849A9.879,9.879,0,0,0,163.459,424.62Z" transform="translate(-162.598 -424.218)" fill="#e87454"/>
                  <path id="Trazado_105256" data-name="Trazado 105256" d="M163.557,424.964c-.056.008-.834.785-.731.949.087.084.465-.043.465-.043Z" transform="translate(-162.731 -423.498)" fill="#ff8762"/>
                  <path id="Trazado_105257" data-name="Trazado 105257" d="M162.974,426.488c-.005-.084.315-1.609,1.1-1.826a4.92,4.92,0,0,1,2.6,0c.7.248,1.44,1.394,1.44,1.394a10.97,10.97,0,0,1-2.946.506C163.143,426.683,162.974,426.488,162.974,426.488Z" transform="translate(-162.486 -424.242)" fill="#fff"/>
                  <path id="Trazado_105258" data-name="Trazado 105258" d="M165.6,425.535a1.042,1.042,0,0,1-1.138.926,1.022,1.022,0,0,1-.969-1.082,1.045,1.045,0,0,1,1.135-.928A1.027,1.027,0,0,1,165.6,425.535Z" transform="translate(-161.681 -424.302)" fill="#312342"/>
                  <path id="Trazado_105259" data-name="Trazado 105259" d="M165.2,425.268c.074-.317-1.064-.532-1.141-.2C164.017,425.263,165.15,425.5,165.2,425.268Z" transform="translate(-160.792 -423.595)" fill="#fff"/>
                  <path id="Trazado_105260" data-name="Trazado 105260" d="M162.946,424.987a14.694,14.694,0,0,1,3.138-.008,4.857,4.857,0,0,1,2.071,1.222,3.018,3.018,0,0,0-1.782-1.678A4.363,4.363,0,0,0,162.946,424.987Z" transform="translate(-162.529 -424.391)" fill="#312342"/>
                </g>
                <path id="Trazado_105261" data-name="Trazado 105261" d="M163.386,424.464a8.006,8.006,0,0,1,2.348.095,4.928,4.928,0,0,1,1.386.731,3.021,3.021,0,0,0-.992-.938A4.463,4.463,0,0,0,163.386,424.464Z" transform="translate(-161.844 -424.188)" fill="#ff8762"/>
              </g>
              <g id="Grupo_55817" data-name="Grupo 55817" transform="translate(4.961 5.204)">
                <path id="Trazado_105262" data-name="Trazado 105262" d="M161.646,423.563a6.615,6.615,0,0,1,1.176,1.726,6.3,6.3,0,0,1,.061,2.046c-.046,0-1.734-3.064-1.734-3.064Z" transform="translate(-156.498 -423.22)" fill="#ff8762"/>
                <path id="Trazado_105263" data-name="Trazado 105263" d="M161.73,424.624c.967,0,3.163.248,3.143.192a3.092,3.092,0,0,0-.394-1.043c-1.33,0-2.245-.514-3.376-.284a3.032,3.032,0,0,0-1.772,1.5A12.29,12.29,0,0,1,161.73,424.624Z" transform="translate(-159.331 -423.429)" fill="#312342"/>
              </g>
              <g id="Grupo_55818" data-name="Grupo 55818" transform="translate(12.987 5.204)">
                <path id="Trazado_105264" data-name="Trazado 105264" d="M163.677,423.563a12.393,12.393,0,0,0-1.025,1.724,3.871,3.871,0,0,0-.092,2.01c.509-1.176,1.4-3.258,1.4-3.258Z" transform="translate(-162.47 -423.22)" fill="#ff8762"/>
                <path id="Trazado_105265" data-name="Trazado 105265" d="M165.933,424.624c-.969,0-3.166.248-3.145.192a3.051,3.051,0,0,1,.4-1.043c1.33,0,2.245-.514,3.373-.284a3.041,3.041,0,0,1,1.775,1.5A12.328,12.328,0,0,0,165.933,424.624Z" transform="translate(-161.976 -423.429)" fill="#312342"/>
              </g>
              <g id="Grupo_55819" data-name="Grupo 55819" transform="translate(10.328 11.247)">
                <path id="Trazado_105266" data-name="Trazado 105266" d="M161.43,426.118s1.268,2.394,1.972,2.291,1.816-2.314,1.816-2.314a3.516,3.516,0,0,1-2.087.905A3.352,3.352,0,0,1,161.43,426.118Z" transform="translate(-161.43 -425.32)" fill="#ff8762"/>
                <path id="Trazado_105267" data-name="Trazado 105267" d="M163.258,426.614a10.853,10.853,0,0,0,1.959-.519,3.533,3.533,0,0,1-1.936,1.133c-.8.041-1.852-1.115-1.852-1.11A7.709,7.709,0,0,0,163.258,426.614Z" transform="translate(-161.43 -425.32)" fill="#e87454"/>
                <path id="Trazado_105268" data-name="Trazado 105268" d="M162.174,425.851c-.568.128-.437.982.381,1.036s1.036-.555.811-.9A1.4,1.4,0,0,0,162.174,425.851Z" transform="translate(-160.811 -425.792)" fill="#ff8762"/>
              </g>
              <path id="Trazado_105269" data-name="Trazado 105269" d="M161.5,429.024a2.077,2.077,0,0,1,1.731-.783,2.047,2.047,0,0,1,1.805.869A7,7,0,0,1,161.5,429.024Z" transform="translate(-151 -410.732)" fill="#ff8762"/>
              <g id="Grupo_55822" data-name="Grupo 55822" transform="translate(4.887 7.023)">
                <g id="Grupo_55821" data-name="Grupo 55821">
                  <g id="Grupo_55820" data-name="Grupo 55820" transform="translate(0 0.56)">
                    <path id="Trazado_105270" data-name="Trazado 105270" d="M164.877,425.706s-.343.588-2.6.532-2.977-1.176-2.977-1.176l5.117.348Z" transform="translate(-159.302 -423.264)" fill="#ff8762"/>
                    <path id="Trazado_105271" data-name="Trazado 105271" d="M162.563,424.65a3.142,3.142,0,0,1,.5,1.854c-1.02-.118-2.793-2.02-2.793-2.02A9.336,9.336,0,0,1,162.563,424.65Z" transform="translate(-157.791 -424.172)" fill="#e87454"/>
                    <path id="Trazado_105272" data-name="Trazado 105272" d="M161.173,424.948c.054.008.834.783.731.949-.087.084-.465-.043-.465-.043Z" transform="translate(-156.388 -423.442)" fill="#ff8762"/>
                    <path id="Trazado_105273" data-name="Trazado 105273" d="M164.391,426.628c.008-.087-.266-1.69-1.038-1.944a4.647,4.647,0,0,0-2.583-.084c-.7.235-1.468,1.409-1.468,1.409a10.485,10.485,0,0,0,2.91.621C164.217,426.825,164.391,426.628,164.391,426.628Z" transform="translate(-159.302 -424.211)" fill="#fff"/>
                    <path id="Trazado_105274" data-name="Trazado 105274" d="M162.082,425.438a1.046,1.046,0,0,1-1,1.1,1.058,1.058,0,0,1-1.1-1.008,1.046,1.046,0,0,1,1-1.1A1.057,1.057,0,0,1,162.082,425.438Z" transform="translate(-158.241 -424.246)" fill="#312342"/>
                    <path id="Trazado_105275" data-name="Trazado 105275" d="M164.511,425.055a13.922,13.922,0,0,0-3.117-.11,4.763,4.763,0,0,0-2.092,1.212s.629-1.46,1.818-1.7A4.179,4.179,0,0,1,164.511,425.055Z" transform="translate(-159.302 -424.359)" fill="#312342"/>
                  </g>
                  <path id="Trazado_105276" data-name="Trazado 105276" d="M163.183,424.483a7.555,7.555,0,0,0-2.335.026,4.774,4.774,0,0,0-1.4.716,3.066,3.066,0,0,1,1.01-.946A4.246,4.246,0,0,1,163.183,424.483Z" transform="translate(-159.068 -424.14)" fill="#ff8762"/>
                </g>
                <path id="Trazado_105277" data-name="Trazado 105277" d="M161.682,425.174c.031-.34-1.117-.425-1.151-.069C160.511,425.312,161.659,425.417,161.682,425.174Z" transform="translate(-157.388 -422.995)" fill="#fff"/>
              </g>
              <g id="Grupo_55823" data-name="Grupo 55823" transform="translate(20.853 5.845)">
                <path id="Trazado_105278" data-name="Trazado 105278" d="M166.3,426.624s.609-2.447,1.767-2.885,2.631,1.611,2.317,3.2-1.882,3.521-3.015,3.844c-.915.261-1.667-.783-1.811-1.427A8.5,8.5,0,0,1,166.3,426.624Z" transform="translate(-165.546 -423.68)" fill="#ffa78f"/>
                <path id="Trazado_105279" data-name="Trazado 105279" d="M168.349,427.544a3.714,3.714,0,0,0,.65-1.877c-.095-.757-.667-1.652-1.128-1.621s-1.506,2.348-1.555,2.741.875.407.747.893-.78.933-.987,1.2c-.141.182-.235.522.32.6s1.43-1.043,1.43-1.043-1.02.777-1.289.581.685-.913,1.036-1.445-.752-.688-.726-.982c.008-.1.662-1.7,1.074-1.667S168.81,425.864,168.349,427.544Z" transform="translate(-164.888 -423.111)" fill="#e87454"/>
                <path id="Trazado_105280" data-name="Trazado 105280" d="M166.681,424.866a1.438,1.438,0,0,1,.371,1.22,1.57,1.57,0,0,1-.527.967,1.46,1.46,0,0,0,.821-1.266A.908.908,0,0,0,166.681,424.866Z" transform="translate(-164.021 -421.832)" fill="#e87454"/>
              </g>
            </g>
            <g id="Grupo_55825" data-name="Grupo 55825" transform="translate(8.598 22.595)">
              <path id="Trazado_105281" data-name="Trazado 105281" d="M168.416,427.023s-.829,2.368-4.1,2.289a4.046,4.046,0,0,1-3.59-1.972l1.087-.046,5.7-.233Z" transform="translate(-160.721 -426.943)" fill="#312342"/>
              <path id="Trazado_105282" data-name="Trazado 105282" d="M166.844,427.038a3.109,3.109,0,0,1-.353.713,10.961,10.961,0,0,1-4.46.235,2.938,2.938,0,0,1-.885-.716Z" transform="translate(-160.059 -426.919)" fill="#fff"/>
              <path id="Trazado_105283" data-name="Trazado 105283" d="M160.721,427.389a15.739,15.739,0,0,0,3.833.238,13.093,13.093,0,0,0,3.861-.555A35.29,35.29,0,0,0,160.721,427.389Z" transform="translate(-160.721 -426.992)" fill="#e87454"/>
            </g>
          </g>
        </g>
      </g>
    </g>
  </g>
</svg>
