<svg xmlns="http://www.w3.org/2000/svg" width="949" height="445.137" viewBox="0 0 949 445.137"><g transform="translate(-316 -2328.053)"><g transform="translate(-2 54.596)"><g transform="translate(-386.985 1772.76)"><path d="M1325.8,643.619,989.161,745.82l-59.176,102.5,449.081-112.444Z" transform="translate(0 97.52)" fill="#00d3cb"/><path d="M1325.8,643.619,989.161,745.82l-59.176,102.5,449.081-112.444Z" transform="translate(0 97.52)" fill="#d98143"/><path d="M1210.792,628.989l-207.144,102.2,53.262-92.252,79.813-138.24Z" transform="translate(50.263 0)" fill="#ffb33c"/><path d="M1210.792,628.989l-207.144,102.2,53.262-92.252,79.813-138.24Z" transform="translate(50.263 0)" fill="#cec5a1"/><path d="M1021.836,685.071l218.632-102.2,53.262,92.252-325.155,102.2Z" transform="translate(26.331 56.068)" fill="#ff3752"/><path d="M1021.836,685.071l218.632-102.2,53.262,92.252-325.155,102.2Z" transform="translate(26.331 56.068)" fill="#c97b7b"/><path d="M1056.91,582.87l-53.262,92.252H1269.8l-53.262-92.252Z" transform="translate(50.263 56.068)" fill="#ff9696"/><path d="M1186.86,628.989,1112.791,500.7l-74.069,128.291Z" transform="translate(74.195 0)" fill="#ede3b7"/><path d="M1352.735,735.871l-53.262-92.252H1021.836l-53.262,92.252Z" transform="translate(26.331 97.52)" fill="#fb0"/><path d="M989.161,704.369l-59.176,102.5h514l-59.176-102.5Z" transform="translate(0 138.971)" fill="#c3d1d9"/></g><text transform="translate(647 2553)" fill="#6e3b16" font-size="13" font-family="Roboto-Medium, Roboto" font-weight="500"><tspan x="-62.953" y="14">Marcas diferenciadas</tspan></text><text transform="translate(647 2472)" fill="#5d3636" font-size="13" font-family="Roboto-Medium, Roboto" font-weight="500"><tspan x="-53.358" y="14">Massice Exclusive</tspan><tspan x="-24.153" y="27">Difusión</tspan></text><text transform="translate(733 2332)" fill="#5d3636" font-size="13" font-family="Roboto-Medium, Roboto" font-weight="500"><tspan x="-17.396" y="14">Haute</tspan><tspan x="-23.102" y="27">Couture</tspan><tspan x="0" y="40"></tspan><tspan x="-35.22" y="53">Alta costura</tspan></text><text transform="translate(496 2339)" fill="#565656" font-size="17" font-family="Roboto-Bold, Roboto" font-weight="700"><tspan x="-122.594" y="18">Lujo o exclusivo</tspan></text><text transform="translate(920 2388)" fill="#565656" font-size="15" font-family="Roboto-Bold, Roboto" font-weight="700"><tspan x="0" y="16">Diseñadores</tspan></text><text transform="translate(970 2474)" fill="#565656" font-size="15" font-family="Roboto-Bold, Roboto" font-weight="700"><tspan x="0" y="16">Premiun brands</tspan></text><text transform="translate(998 2522)" fill="#565656" font-size="15" font-family="Roboto-Bold, Roboto" font-weight="700"><tspan x="0" y="16">Aspiran ser difusión</tspan></text><text transform="translate(1032 2611)" fill="#565656" font-size="15" font-family="Roboto-Bold, Roboto" font-weight="700"><tspan x="0" y="16">MASSPRESTIGE</tspan><tspan x="0" y="34">colaboraciones</tspan></text><text transform="translate(1083 2665)" fill="#565656" font-size="15" font-family="Roboto-Bold, Roboto" font-weight="700"><tspan x="0" y="16">Toma de las marcas de lujo</tspan><tspan x="0" y="34">El merchandising</tspan></text><text transform="translate(947 2420)" fill="#565656" font-size="15" font-family="Roboto-Bold, Roboto" font-weight="700"><tspan x="0" y="16">Nuevas marcas de </tspan><tspan x="0" y="34">las casas de lujo</tspan></text><text transform="translate(438 2443)" fill="#565656" font-size="17" font-family="Roboto-Bold, Roboto" font-weight="700"><tspan x="-100.257" y="18">Mercado alto</tspan></text><text transform="translate(375 2551)" fill="#565656" font-size="17" font-family="Roboto-Bold, Roboto" font-weight="700"><tspan x="-119.133" y="18">Mercado medio</tspan></text><text transform="translate(318 2655)" fill="#565656" font-size="17" font-family="Roboto-Bold, Roboto" font-weight="700"><tspan x="-55.333" y="18">Masivo</tspan></text><text transform="translate(647 2419)" fill="#5d3636" font-size="13" font-family="Roboto-Medium, Roboto" font-weight="500"><tspan x="-37.035" y="14">Pret a Porter</tspan><tspan x="-41.907" y="27">Ready to Wear</tspan><tspan x="-43.186" y="40">Listo para usar</tspan></text><text transform="translate(647 2648)" fill="#464f54" font-size="13" font-family="Roboto-Medium, Roboto" font-weight="500"><tspan x="-59.382" y="14">Fast Fashion / Retail</tspan><tspan x="-39.067" y="29">Moda masiva</tspan><tspan x="-37.48" y="44">Pronta moda</tspan></text><g transform="translate(-9.06 1887.166)"><path d="M660.631,459.021H764.757a.624.624,0,0,1,0,1.248H660.631a.624.624,0,1,1,0-1.248Z" transform="translate(6.781 3.285)" fill="#6d6e71"/><g transform="translate(649.793 454.073)"><path d="M658.914,454.073a9.122,9.122,0,1,1-9.121,9.122A9.134,9.134,0,0,1,658.914,454.073Zm0,17a7.874,7.874,0,1,0-7.874-7.874A7.883,7.883,0,0,0,658.914,471.07Z" transform="translate(-649.793 -454.073)" fill="#6d6e71"/><circle cx="5.248" cy="5.248" r="5.248" transform="translate(3.875 3.873)" fill="#ede3b7"/></g><circle cx="2.91" cy="2.91" r="2.91" transform="translate(772.46 460.019)" fill="#6d6e71"/></g><g transform="translate(-69.793 1990.166)"><path d="M660.631,459.021H764.757a.624.624,0,0,1,0,1.248H660.631a.624.624,0,1,1,0-1.248Z" transform="translate(6.781 3.285)" fill="#6d6e71"/><g transform="translate(649.793 454.073)"><path d="M658.914,454.073a9.122,9.122,0,1,1-9.121,9.122A9.134,9.134,0,0,1,658.914,454.073Zm0,17a7.874,7.874,0,1,0-7.874-7.874A7.883,7.883,0,0,0,658.914,471.07Z" transform="translate(-649.793 -454.073)" fill="#6d6e71"/><circle cx="5.248" cy="5.248" r="5.248" transform="translate(3.875 3.873)" fill="#ff9696"/></g><circle cx="2.91" cy="2.91" r="2.91" transform="translate(772.46 460.019)" fill="#6d6e71"/></g><g transform="translate(-131.793 2098.166)"><path d="M660.631,459.021H764.757a.624.624,0,0,1,0,1.248H660.631a.624.624,0,1,1,0-1.248Z" transform="translate(6.781 3.285)" fill="#6d6e71"/><g transform="translate(649.793 454.073)"><path d="M658.914,454.073a9.122,9.122,0,1,1-9.121,9.122A9.134,9.134,0,0,1,658.914,454.073Zm0,17a7.874,7.874,0,1,0-7.874-7.874A7.883,7.883,0,0,0,658.914,471.07Z" transform="translate(-649.793 -454.073)" fill="#6d6e71"/><circle cx="5.248" cy="5.248" r="5.248" transform="translate(3.875 3.873)" fill="#fb0"/></g><circle cx="2.91" cy="2.91" r="2.91" transform="translate(772.46 460.019)" fill="#6d6e71"/></g><g transform="translate(-189.793 2203.166)"><path d="M660.631,459.021H764.757a.624.624,0,0,1,0,1.248H660.631a.624.624,0,1,1,0-1.248Z" transform="translate(6.781 3.285)" fill="#6d6e71"/><g transform="translate(649.793 454.073)"><path d="M658.914,454.073a9.122,9.122,0,1,1-9.121,9.122A9.134,9.134,0,0,1,658.914,454.073Zm0,17a7.874,7.874,0,1,0-7.874-7.874A7.883,7.883,0,0,0,658.914,471.07Z" transform="translate(-649.793 -454.073)" fill="#6d6e71"/><circle cx="5.248" cy="5.248" r="5.248" transform="translate(3.875 3.873)" fill="#c3d1d9"/></g><circle cx="2.91" cy="2.91" r="2.91" transform="translate(772.46 460.019)" fill="#6d6e71"/></g><path d="M3.375,15.188A11.813,11.813,0,1,0,15.188,3.375,11.811,11.811,0,0,0,3.375,15.188Zm13.885,0-4.651-4.606a1.1,1.1,0,1,1,1.55-1.55l5.418,5.435a1.1,1.1,0,0,1,.034,1.511l-5.338,5.355a1.094,1.094,0,1,1-1.55-1.545Z" transform="translate(886.625 2382.625)" fill="#ede3b7"/><path d="M3.375,15.188A11.813,11.813,0,1,0,15.188,3.375,11.811,11.811,0,0,0,3.375,15.188Zm13.885,0-4.651-4.606a1.1,1.1,0,1,1,1.55-1.55l5.418,5.435a1.1,1.1,0,0,1,.034,1.511l-5.338,5.355a1.094,1.094,0,1,1-1.55-1.545Z" transform="translate(935.625 2468.625)" fill="#ff9696"/><path d="M3.375,15.188A11.813,11.813,0,1,0,15.188,3.375,11.811,11.811,0,0,0,3.375,15.188Zm13.885,0-4.651-4.606a1.1,1.1,0,1,1,1.55-1.55l5.418,5.435a1.1,1.1,0,0,1,.034,1.511l-5.338,5.355a1.094,1.094,0,1,1-1.55-1.545Z" transform="translate(962.625 2516.625)" fill="#fb0"/><path d="M3.375,15.188A11.813,11.813,0,1,0,15.188,3.375,11.811,11.811,0,0,0,3.375,15.188Zm13.885,0-4.651-4.606a1.1,1.1,0,1,1,1.55-1.55l5.418,5.435a1.1,1.1,0,0,1,.034,1.511l-5.338,5.355a1.094,1.094,0,1,1-1.55-1.545Z" transform="translate(1050.625 2668.625)" fill="#c3d1d9"/><path d="M3.375,15.188A11.813,11.813,0,1,0,15.188,3.375,11.811,11.811,0,0,0,3.375,15.188Zm13.885,0-4.651-4.606a1.1,1.1,0,1,1,1.55-1.55l5.418,5.435a1.1,1.1,0,0,1,.034,1.511l-5.338,5.355a1.094,1.094,0,1,1-1.55-1.545Z" transform="translate(909.625 2422.625)" fill="#ff9696"/><g transform="translate(984 2611)" fill="#fff" stroke="#c3d1d9" stroke-width="1"><circle cx="18.5" cy="18.5" r="18.5" stroke="none"/><circle cx="18.5" cy="18.5" r="18" fill="none"/></g><g transform="translate(984.625 2611.625)"><path d="M25.523,19.477H19.477v6.047H16.523V19.477H10.477V16.523h6.047V10.477h2.953v6.047h6.047Z" fill="#c3d1d9"/><path d="M18,6.328A11.667,11.667,0,1,1,9.745,9.745,11.623,11.623,0,0,1,18,6.328m0-2.953A14.625,14.625,0,1,0,32.625,18,14.623,14.623,0,0,0,18,3.375Z" fill="#c3d1d9"/></g></g></g></svg>