<svg xmlns="http://www.w3.org/2000/svg" xmlns:xlink="http://www.w3.org/1999/xlink" width="260" height="260.183" viewBox="0 0 260 260.183"><defs><clipPath id="a"><path d="M951.709,1459.692l-2.47-1.436c-1.2-.7-1.941-2.176-1.947-4.28l2.47,1.435C949.768,1457.515,950.511,1459,951.709,1459.692Z" fill="#8b91ad"/></clipPath><clipPath id="b"><path d="M988.919,1340.464l2.47,1.436c-1.214-.705-2.894-.606-4.748.465l-2.47-1.436C986.025,1339.859,987.705,1339.759,988.919,1340.464Z" fill="#d4c99b"/></clipPath><clipPath id="c"><path d="M949.524,1371.476l-2.47-1.436a14.66,14.66,0,0,1,6.652-11.522l2.47,1.435A14.663,14.663,0,0,0,949.524,1371.476Z" fill="#d4c99b"/></clipPath><clipPath id="d"><path d="M949.333,1468.233l-2.469-1.435a.3.3,0,0,1-.127-.279l2.47,1.435A.3.3,0,0,0,949.333,1468.233Z" fill="#32272d"/></clipPath><clipPath id="e"><path d="M886.77,1501.169l-2.47-1.435c-1.2-.7-1.94-2.177-1.947-4.281l2.47,1.435C884.829,1498.992,885.572,1500.473,886.77,1501.169Z" fill="#8b91ad"/></clipPath><clipPath id="f"><path d="M923.98,1381.942l2.47,1.435c-1.214-.7-2.894-.606-4.748.465l-2.47-1.436C921.086,1381.336,922.766,1381.237,923.98,1381.942Z" fill="#d4c99b"/></clipPath><clipPath id="g"><path d="M884.585,1412.953l-2.47-1.436a14.663,14.663,0,0,1,6.652-11.522l2.47,1.436A14.659,14.659,0,0,0,884.585,1412.953Z" fill="#8b91ad"/></clipPath><clipPath id="h"><path d="M884.4,1509.711l-2.47-1.436a.3.3,0,0,1-.127-.279l2.47,1.435A.306.306,0,0,0,884.4,1509.711Z" fill="#32272d"/></clipPath></defs><g transform="translate(-872.776 -1322.184)"><path d="M994.561,1438.989l-56.008,32.449v1.464l19.566,11.3h10.746l51.9-30.08Z" fill="#1d1d1b" opacity="0.09"/><g style="isolation:isolate"><path d="M1002.063,1456.966l2.47-1.435,0,1-2.47,1.435Z" fill="#3d3138"/><path d="M982.782,1445.834l2.47-1.435,19.281,11.132-2.47,1.435Z" fill="#62515c"/><path d="M1002.063,1456.966l0,1-19.281-11.132,0-1Z" fill="#32272d"/></g><g style="isolation:isolate"><path d="M994.3,1451.808l-2.47-1.435-.029-10.014,2.47,1.435Z" fill="#32272d"/><path d="M994.27,1441.794l-2.47-1.435.869-.5,2.47,1.436Z" fill="#32272d"/><path d="M995.139,1441.292l.028,10.014-.869.5-.028-10.014Z" fill="#3d3138"/></g><g style="isolation:isolate"><path d="M994.268,1441.97l-2.47-1.435-.178-62.808,2.47,1.435Z" fill="#32272d"/><path d="M994.09,1379.162l-2.47-1.435.87-.5,2.47,1.435Z" fill="#62515c"/><path d="M994.96,1378.659l.178,62.808-.87.5-.178-62.808Z" fill="#3d3138"/></g><g style="isolation:isolate"><path d="M950,1473.355l-1.235-.718,0-1,1.235.718Z" fill="#62515c"/><path d="M950,1472.355l-1.235-.718,43.811-25.295,1.235.718Z" fill="#62515c"/><path d="M993.813,1447.061l0,1L950,1473.355l0-1Z" fill="#3d3138"/></g><g style="isolation:isolate"><path d="M957,1482.9l2.47-1.435,0,1L957,1483.9Z" fill="#3d3138"/><path d="M937.718,1471.769l2.47-1.435,19.281,11.132L957,1482.9Z" fill="#62515c"/><path d="M957,1482.9l0,1-19.281-11.132,0-1Z" fill="#32272d"/></g><g style="isolation:isolate"><path d="M949.235,1477.743l-2.47-1.435-.028-10.014,2.47,1.435Z" fill="#32272d"/><path d="M949.207,1467.729l-2.47-1.435.869-.5,2.47,1.435Z" fill="#32272d"/><path d="M950.076,1467.227l.029,10.014-.869.5-.028-10.014Z" fill="#3d3138"/></g><g style="isolation:isolate"><g style="isolation:isolate"><path d="M951.709,1459.692l-2.47-1.436c-1.2-.7-1.941-2.176-1.947-4.28l2.47,1.435C949.768,1457.515,950.511,1459,951.709,1459.692Z" fill="#8b91ad"/><g clip-path="url(#a)"><g style="isolation:isolate"><path d="M951.709,1459.692l-2.47-1.436c-1.2-.7-1.941-2.176-1.947-4.28l2.47,1.435c.006,2.1.749,3.585,1.947,4.281Z" fill="#8b91ad"/></g></g></g><g style="isolation:isolate"><path d="M988.919,1340.464l2.47,1.436c-1.214-.705-2.894-.606-4.748.465l-2.47-1.436C986.025,1339.859,987.705,1339.759,988.919,1340.464Z" fill="#d4c99b"/><g clip-path="url(#b)"><path d="M986.641,1342.365l-2.47-1.436c1.854-1.07,3.534-1.17,4.748-.465l2.47,1.436c-1.214-.705-2.894-.606-4.748.465Z" fill="#d4c99b"/></g></g><path d="M949.762,1455.411l-2.47-1.435-.238-83.935,2.47,1.435Z" fill="#d4c99b"/><path d="M956.176,1359.953l-2.47-1.435,30.465-17.589,2.47,1.435Z" fill="#d4c99b"/><g style="isolation:isolate"><path d="M949.524,1371.476l-2.47-1.436a14.66,14.66,0,0,1,6.652-11.522l2.47,1.435A14.663,14.663,0,0,0,949.524,1371.476Z" fill="#d4c99b"/><g clip-path="url(#c)"><path d="M949.524,1371.476l-2.47-1.436a14.66,14.66,0,0,1,6.652-11.522l2.47,1.435a14.663,14.663,0,0,0-6.652,11.523Z" fill="#d4c99b"/></g></g><path d="M993.574,1430.117a14.658,14.658,0,0,1-6.651,11.521l-9.164,5.289-3.4,1.961-3.5,2.021-.284.164-14.123,8.153c-3.686,2.129-6.683.421-6.695-3.814l-.238-83.936a14.663,14.663,0,0,1,6.651-11.523l30.466-17.588c3.685-2.128,6.683-.419,6.7,3.816Z" fill="#ede3b7"/></g><g style="isolation:isolate"><path d="M950.076,1466.951l-2.47-1.435,44.189-25.492,2.47,1.435Z" fill="#62515c"/><g style="isolation:isolate"><path d="M949.333,1468.233l-2.469-1.435a.3.3,0,0,1-.127-.279l2.47,1.435A.3.3,0,0,0,949.333,1468.233Z" fill="#32272d"/><g clip-path="url(#d)"><g style="isolation:isolate"><path d="M949.333,1468.233l-2.469-1.435a.3.3,0,0,1-.127-.279l2.47,1.435a.3.3,0,0,0,.126.279Z" fill="#32272d"/></g></g></g><path d="M949.207,1467.954l-2.47-1.435-.178-62.809,2.47,1.435Z" fill="#32272d"/><path d="M949.029,1405.145l-2.47-1.435.87-.5,2.47,1.435Z" fill="#62515c"/><path d="M949.9,1404.642l.177,62.309,44.189-25.491,0,1L949.643,1468.2c-.24.139-.436.027-.436-.249l-.178-62.809Z" fill="#3d3138"/></g><path d="M949.691,1430.109l.071,25.3a12.261,12.261,0,0,0,.338,2.194l43.359-68.039-.062-21.694Z" fill="#dddefa" opacity="0.2" style="mix-blend-mode:screen;isolation:isolate"/><path d="M987.2,1342.07l-.561.295-20.731,11.969-16.367,23.8.055,19.419Z" fill="#dddefa" opacity="0.2" style="mix-blend-mode:screen;isolation:isolate"/><path d="M929.622,1480.466l-56.008,32.449v1.464l19.566,11.3h10.746l51.9-30.08Z" fill="#1d1d1b" opacity="0.09"/><path d="M967.646,1552.789l-2.329,1.344c-6.27,3.621-16.53,3.621-22.8,0l-2.328-1.344c-6.271-3.62-6.271-9.544,0-13.164l2.328-1.345c6.271-3.62,16.531-3.62,22.8,0l2.329,1.345C973.916,1543.245,973.916,1549.169,967.646,1552.789Z" fill="#1d1d1b" opacity="0.09"/><g style="isolation:isolate"><path d="M937.124,1498.444l2.47-1.435,0,1-2.47,1.435Z" fill="#3d3138"/><path d="M917.843,1487.312l2.47-1.435,19.281,11.132-2.47,1.435Z" fill="#62515c"/><path d="M937.124,1498.444l0,1-19.281-11.132,0-1Z" fill="#32272d"/></g><g style="isolation:isolate"><path d="M929.36,1493.286l-2.47-1.435-.028-10.014,2.47,1.435Z" fill="#32272d"/><path d="M929.331,1483.271l-2.47-1.435.869-.5,2.47,1.435Z" fill="#32272d"/><path d="M930.2,1482.77l.029,10.014-.869.5-.028-10.014Z" fill="#3d3138"/></g><g style="isolation:isolate"><path d="M929.329,1483.447l-2.47-1.435-.178-62.808,2.47,1.435Z" fill="#32272d"/><path d="M929.151,1420.639l-2.47-1.435.87-.5,2.47,1.435Z" fill="#62515c"/><path d="M930.021,1420.136l.178,62.808-.87.5-.178-62.808Z" fill="#3d3138"/></g><g style="isolation:isolate"><path d="M885.065,1514.833l-1.235-.718,0-1,1.235.718Z" fill="#62515c"/><path d="M885.063,1513.832l-1.235-.718,43.811-25.295,1.235.718Z" fill="#62515c"/><path d="M928.874,1488.538l0,1-43.812,25.295,0-1Z" fill="#3d3138"/></g><g style="isolation:isolate"><path d="M892.06,1524.379l2.47-1.435,0,1-2.47,1.435Z" fill="#3d3138"/><path d="M872.779,1513.247l2.47-1.435,19.281,11.132-2.47,1.435Z" fill="#62515c"/><path d="M892.06,1524.379l0,1-19.281-11.132,0-1Z" fill="#32272d"/></g><g style="isolation:isolate"><path d="M884.3,1519.22l-2.47-1.435-.028-10.014,2.47,1.435Z" fill="#32272d"/><path d="M884.268,1509.207l-2.47-1.435.869-.5,2.47,1.435Z" fill="#32272d"/><path d="M885.137,1508.7l.028,10.014-.869.5-.028-10.014Z" fill="#3d3138"/></g><g style="isolation:isolate"><g style="isolation:isolate"><path d="M886.77,1501.169l-2.47-1.435c-1.2-.7-1.94-2.177-1.947-4.281l2.47,1.435C884.829,1498.992,885.572,1500.473,886.77,1501.169Z" fill="#8b91ad"/><g clip-path="url(#e)"><g style="isolation:isolate"><path d="M886.77,1501.169l-2.47-1.435c-1.2-.7-1.94-2.177-1.947-4.281l2.47,1.435c.006,2.1.749,3.585,1.947,4.281Z" fill="#8b91ad"/></g></g></g><g style="isolation:isolate"><path d="M923.98,1381.942l2.47,1.435c-1.214-.7-2.894-.606-4.748.465l-2.47-1.436C921.086,1381.336,922.766,1381.237,923.98,1381.942Z" fill="#d4c99b"/><g clip-path="url(#f)"><path d="M921.7,1383.842l-2.47-1.436c1.854-1.07,3.534-1.169,4.748-.464l2.47,1.435c-1.214-.7-2.894-.606-4.748.465Z" fill="#d4c99b"/></g></g><path d="M884.823,1496.888l-2.47-1.435-.238-83.935,2.47,1.435Z" fill="#d4c99b"/><path d="M891.237,1401.431l-2.47-1.435,30.465-17.589,2.47,1.435Z" fill="#d4c99b"/><g style="isolation:isolate"><path d="M884.585,1412.953l-2.47-1.436a14.663,14.663,0,0,1,6.652-11.522l2.47,1.436A14.659,14.659,0,0,0,884.585,1412.953Z" fill="#8b91ad"/><g clip-path="url(#g)"><path d="M884.585,1412.953l-2.47-1.436a14.663,14.663,0,0,1,6.652-11.522l2.47,1.436a14.659,14.659,0,0,0-6.652,11.522Z" fill="#d4c99b"/></g></g><path d="M928.635,1471.594a14.657,14.657,0,0,1-6.651,11.521l-9.164,5.29-3.4,1.961-3.5,2.02-.284.164-14.123,8.154c-3.686,2.128-6.683.42-6.7-3.815l-.238-83.936a14.662,14.662,0,0,1,6.651-11.522l30.466-17.589c3.685-2.127,6.683-.419,6.695,3.816Z" fill="#ede3b7"/></g><g style="isolation:isolate"><path d="M885.137,1508.429l-2.47-1.435,44.189-25.492,2.47,1.435Z" fill="#62515c"/><g style="isolation:isolate"><path d="M884.4,1509.711l-2.47-1.436a.3.3,0,0,1-.127-.279l2.47,1.435A.306.306,0,0,0,884.4,1509.711Z" fill="#32272d"/><g clip-path="url(#h)"><g style="isolation:isolate"><path d="M884.4,1509.711l-2.47-1.436a.3.3,0,0,1-.127-.279l2.47,1.435a.306.306,0,0,0,.127.28Z" fill="#32272d"/></g></g></g><path d="M884.268,1509.431,881.8,1508l-.178-62.809,2.47,1.435Z" fill="#32272d"/><path d="M884.09,1446.622l-2.47-1.435.87-.5,2.47,1.435Z" fill="#62515c"/><path d="M884.96,1446.119l.177,62.31,44.189-25.492,0,1L884.7,1509.68c-.24.139-.435.028-.436-.249l-.178-62.809Z" fill="#3d3138"/></g><path d="M951.2,1541.577v-.261a5.429,5.429,0,0,0,3.442-1.611c2.7-4.123-.38-10.519-.641-16.665a69.55,69.55,0,0,0-.277-7.364,13.465,13.465,0,0,1,.037-2.307c.012-.6-.048-1.194-.074-1.789a10.278,10.278,0,0,0-.051-1.773l7.033-3.014c.681.176-.185,7.292.062,7.986,2.993,8.422-.023,16.808-.747,22.158.016.026-.1,1.494-.1,1.639a13.8,13.8,0,0,0,.1,1.639c.034.284.065.543.118.8a3.672,3.672,0,0,0,.174.6,5.419,5.419,0,0,1,.387,1.478,2.323,2.323,0,0,1-.651,1.949,2.27,2.27,0,0,1-1.31.483c-.469.039-.94,0-1.409.031-.753.048-1.5-.6-2.215-.35-.632.218-1.315,1.07-1.974,1a9.92,9.92,0,0,1-1.315-.217l-1.965-3.028-.088-1.381Z" fill="#f3a984"/><path d="M951.821,1541.284a4.66,4.66,0,0,0-2.309.127,2.544,2.544,0,0,0-.828.3c-1.686,1.053.636,3.273,2.016,4.189a3.466,3.466,0,0,0,2.612.811,10.707,10.707,0,0,0,1.381-.573,4.1,4.1,0,0,1,1.968-.423,11.351,11.351,0,0,1,1.622.539c1.98.523,2.793-.7,2.858-1.829a4.368,4.368,0,0,0-.675-2.324c-.559,1.32-1.986,1.6-3.414,1.809-1.349.2-3.663,1.361-5.092.379C950.192,1543.075,950.957,1541.48,951.821,1541.284Z"/><path d="M954.668,1543.9c-1.309-1.635-1.783-3.89-2.837-5.765-1.655-2.945-3.874-5.543-5.328-8.607-.022-.045-5.2-11.491-5.246-11.495l6.376-7.055c.664-.1,2.042,8.19,2.517,8.708a19.051,19.051,0,0,1,3.115,4.65,35.686,35.686,0,0,1,2.7,9.938,21.351,21.351,0,0,0,.574,3.249,8.4,8.4,0,0,0,.762,1.486q.441.78.9,1.549a7.063,7.063,0,0,1,1.337,3.342,1.649,1.649,0,0,1-1.23,1.512,1.807,1.807,0,0,1-.916.077c-.29-.041-.524.085-.809-.051A5.393,5.393,0,0,1,954.668,1543.9Z" fill="#ffbfa2"/><path d="M949.81,1548.328c-.139.568,1.466,2.38,2.049,2.427a1.132,1.132,0,0,0,.687-.26,21.847,21.847,0,0,0,4.284-3.775,3.741,3.741,0,0,0,1.194-2.611,6.9,6.9,0,0,0-.8-2.04,9.564,9.564,0,0,0-.516-1.2c-1.391-2.316-5.06-2.644-2.909,1.667.76,1.522-.823,3.39-1.674,4.692C952.082,1547.3,950,1547.566,949.81,1548.328Z" fill="#ffbfa2"/><path d="M949.465,1547.171a2.564,2.564,0,0,0-.829.167c-1.2.521-.547,2.836,2.769,3.957,1.05.356,1.61.432,3.021-.82a26.805,26.805,0,0,1,2.869-2.331,8.048,8.048,0,0,1,1.625-.89c.537-.2,1.278-.333,1.577-.737,1.118-1.511-.26-3.119-1.448-4.472.3,1.949-1.347,2.788-1.761,3.157q-1.145,1.02-2.261,2.074c-3.927,3.7-4.545,1.607-3.711.643.141-.162.812-.693.812-.693A10.939,10.939,0,0,0,949.465,1547.171Z" fill="#4b3d46"/><path d="M958.259,1464.574a3.422,3.422,0,0,1,1.733-2.894c2.441-1.455,4.458-.124,10.607,5.526a33.633,33.633,0,0,1,5,5.608c2.3,4.049-1.066,5.066-3.778,3.811a17.41,17.41,0,0,1-3.2-2.385C961.616,1468.78,958.219,1467.114,958.259,1464.574Z" fill="#f3a984"/><path d="M958.435,1481.207a1.094,1.094,0,0,0,.286,1.517c.257.13,1.5,1.035,1.675.791a3.206,3.206,0,0,1,1.667-.822c1.407-.434,2.856-.733,4.288-1.071,9.063-2.133,10.392-4.5,10-6.776a4.954,4.954,0,0,0-1.4-2.592c-.774-.763-5.422,2.7-6.391,3.121-.517.222-8.13,4.24-8.739,4.569A2.62,2.62,0,0,0,958.435,1481.207Z" fill="#f3a984"/><path d="M958.4,1484.9c1.662,2.159,1.808,5.338,3.866,7.123q-.187-2.673-.375-5.346c-.124-1.767-.493-4.338-2.576-4.848C956.963,1481.249,957.48,1483.7,958.4,1484.9Z" fill="#f3a984"/><path d="M962.609,1461.758c-.127-1.753.117-4.4-1.9-5.188-1.576-.617-2.76.161-7.767,3.306-.833.523-.788,1.3-1.68,1.7a29.477,29.477,0,0,0-5.05,3.127,7.678,7.678,0,0,0-1.64,1.275,6.743,6.743,0,0,0-1.031,1.849,11.949,11.949,0,0,0-.727,5.808c.183,1.461.634,2.873.916,4.319a35.259,35.259,0,0,1,.433,7.171c-.01.921-.073,1.843-.171,2.76a6.14,6.14,0,0,0-.1,1.576c.088.543.523.674,1.021.723,1.456.142,14.5-2.67,14.672-3.452.536-2.423.256-2.182-.322-3.536C957.421,1478.88,963.234,1470.349,962.609,1461.758Z" fill="#ff9696"/><path d="M963.686,1496.586c.552,4.909-.088,5.73,1.736,13.874,1.1,4.916-.144,5.288-1.47,7.022-2.056,2.689-4.483,1.648-7.217,2.771a11.653,11.653,0,0,1-3.556,1.147c-1.115.072-2.229-.275-3.342-.17-2.54.239-2.686,1.787-7.544-.084a3.293,3.293,0,0,1-2.086-1.582c-1-2.5-.372-9.463.34-17.227a82.053,82.053,0,0,1,3.592-16.543,17.789,17.789,0,0,0,4.771,1.147c9.285,0,10.537-3.3,10.55-3.337A39.6,39.6,0,0,1,963.686,1496.586Z" fill="#db6b6b"/><path d="M957.462,1454.229q.044,1.057.087,2.115a5.345,5.345,0,0,0,.262,1.726c.248.637.568.95.515,1.668a1.44,1.44,0,0,1-.439,1.048,7.362,7.362,0,0,1-5.636,1.831,3.616,3.616,0,0,1-1.608-.432c-.311-.188-.295-.3-.265-.652.025-.3.065-.6.086-.906.089-1.3.348-2.217-.716-3.35Z" fill="#ffbfa2"/><path d="M947.156,1444.282a4.225,4.225,0,0,0-.922,1.982c-.22,1.441.247,2.875.086,4.309-.141,1.259.532,2.815.842,4.044a3.018,3.018,0,0,0,1.112,2.006c.4.224.882.23,1.263.483.233.155.409.392.627.571.644.533,1.827.263,2.564.157a7.391,7.391,0,0,0,2.233-.58,8.081,8.081,0,0,0,2.962-3.278C964.346,1443.361,951.489,1438.779,947.156,1444.282Z" fill="#ffbfa2"/><path d="M958.808,1442.826a3.8,3.8,0,0,0-.43-.835,7.014,7.014,0,0,0-3.144-2.4,8.249,8.249,0,0,0-4.75.04,9.264,9.264,0,0,0-4.016,2.725c-1.06,1.923-.447,2.675-.276,3.005.5.975.1-.483,1.346,2.855,1.038,2.788,3.07-1.651,3.735,4.608.45,4.232,8.154,3.624,8.974-4.029C960.642,1445.1,959.536,1444.614,958.808,1442.826Z" fill="#d08a62"/><path d="M945.934,1464.826a3.422,3.422,0,0,1,3.365-.231c2.59,1.172,2.649,3.589,1.525,11.863a37.324,37.324,0,0,1-1.063,5.458c-1.959,5.618-5.4,4.153-5.968.929a17.378,17.378,0,0,1,.131-3.988C944.4,1469.984,943.827,1466.244,945.934,1464.826Z" fill="#ffbfa2"/><path d="M937.7,1497.523a1.209,1.209,0,0,0,1.4.882c.3-.086,1.576-.327,1.52-.621-.326-1.725,7.614-9.571,9.215-16.148.081-.333-.207-.733-.418-.992a1.082,1.082,0,0,0-.668-.3c-1.586-.292-3.163-1.493-4.437.222a29.587,29.587,0,0,0-3.232,5.71c-.231.521-3.059,8.722-3.279,9.383A2.4,2.4,0,0,0,937.7,1497.523Z" fill="#ffbfa2"/><path d="M949.659,1448.79c1.057-.529,1.862.781,1.527,2.193a6.228,6.228,0,0,1-.565,1.232c-1.293,2.562-2.487.87-2.091.016C949.449,1450.247,948.33,1449.456,949.659,1448.79Z" fill="#ffbfa2"/><path d="M950.137,1451.093c.08-.173,1.029-1.461-.009-1.636-.288-.049-.467.276-.406.552.032.144.124.266.155.409a.709.709,0,0,1,0,.26c-.04.235-.347.573-.171.819C949.864,1451.715,950.091,1451.192,950.137,1451.093Z" fill="#f3a984"/><path d="M937.011,1500.02a13.733,13.733,0,0,0,1.756,3.924q.478.828.958,1.654c.273.47.648,1,1.191.989.179-.838-.4-1.644-.5-2.495s.259-1.689.21-2.541c-.025-.438-.159-.865-.186-1.3a23.1,23.1,0,0,0,.164-2.575c-.193-1.106-1.647-2.336-2.765-1.607S936.776,1498.92,937.011,1500.02Z" fill="#ffbfa2"/><path d="M958.065,1438.093a4.135,4.135,0,0,1,1.42.2,6.439,6.439,0,0,1,3.59,3.509,10.247,10.247,0,0,1,.62,2.609,26.5,26.5,0,0,1-.075,7.335c-.267,1.77-.709,3.51-.961,5.283a16.347,16.347,0,0,0-.186,2.7c.017.737.282,1.342.359,2.061.135,1.269.659,3.088.2,4.316a.289.289,0,0,1-.12.169.307.307,0,0,1-.228-.011,9.328,9.328,0,0,1-5.042-4.6,12.259,12.259,0,0,1-1-2.348,10.514,10.514,0,0,1-.164-5.356c.4-1.742,1.436-3.2,1.941-4.9a6.7,6.7,0,0,0-.379-4.746c-.67-1.4-2.488-2.589-2.918-4.01C954.641,1438.7,956.527,1438.108,958.065,1438.093Z" fill="#b56a3e"/><path d="M922.923,1447.393c-.026.456-.082.91-.138,1.363l-.6,4.877c-.026.211-.066.739-.323.818-.276.086-.377-.309-.4-.5-.083-.644.134-1.288.066-1.934-.086-.817-.614-1.528-.755-2.338-.072-.417-.039-.847-.111-1.265a22.587,22.587,0,0,1-.718-2.38,2.195,2.195,0,0,1,1.539-2.167.839.839,0,0,1,.649.07,2.324,2.324,0,0,1,.439.839,5.61,5.61,0,0,1,.369,1.985C922.941,1446.971,922.935,1447.182,922.923,1447.393Z" fill="#f3a984"/><path d="M922.445,1445.832a1.214,1.214,0,0,1-1.509.51c-.263-.15-1.4-.664-1.284-.927.7-1.542-4.961-10.69-4.969-17.213,0-.33.36-.639.616-.834a1.044,1.044,0,0,1,.7-.134c1.551.086,3.3-.681,4.1,1.214a28.556,28.556,0,0,1,1.733,6.081c.1.54.345,9.019.4,9.688C922.328,1445.363,922.815,1445.322,922.445,1445.832Z" fill="#f3a984"/><path d="M909.166,1469.064c1.606,2.058,5.552,7.138,7.938,8.382.929.485,3.046-1.06,3.7-1.843a2.607,2.607,0,0,0,.466-1.606,30.215,30.215,0,0,0-2.1-10.126,9.737,9.737,0,0,0-2.558-4.09,4.785,4.785,0,0,0-4.737-.986,4.389,4.389,0,0,0-2.361,2.7c-.426,1.249-.848,3.462-.359,4.737C909.678,1467.6,908.243,1467.881,909.166,1469.064Z" fill="#ee9c76"/><path d="M921.266,1474.35c-.028,1.639-1.646,3.182-2.522,4.47a93.489,93.489,0,0,0-5.179,8.188c-.249.51-.5.973-.745,1.4l-6.9,3.981v-.216c.359-.431.571-.641.887-1a1.861,1.861,0,0,1,.177-.4c2.7-4.941,3.562-19.714,11.054-20.045a3.128,3.128,0,0,1,2.564.918A4.022,4.022,0,0,1,921.266,1474.35Z" fill="#ee9c76"/><path d="M909.424,1490.366l-3.5,2.02-.284.164c-1.139-5.563-5.465-11.923-2.048-21.008.534-1.425.122-.945,7.47-4.949C910.984,1472.95,909.219,1482.454,909.424,1490.366Z" fill="#ffbfa2"/><path d="M913.09,1420.406c.037-4.454,2.515-7.52,4.384-7.335,1.767.174,2.965,3.271,1.919,10.235-.255,1.694-.646,7.6-1.995,10.368a2.094,2.094,0,0,1-3.254.777C912.383,1432.77,913.018,1429.169,913.09,1420.406Z" fill="#f3a984"/><path d="M901.513,1400.921a9.477,9.477,0,0,0-.772,2.16c-.464,2.057-.2,4.08-.364,6.15-.111,1.432-.928,2.705-.93,4.142a9.661,9.661,0,0,1-.327,2.222c-.4,1.618-1.136,3.284-.667,4.882a5.257,5.257,0,0,0,4.392-1.6c1.286-1.262,1.84-3.15,2.518-4.785a15.655,15.655,0,0,0,.883-9.1c-.31-1.67-.421-3.6.731-4.852.35-.379.818-.7.941-1.2a1.308,1.308,0,0,0-.767-1.407,2.546,2.546,0,0,0-1.7-.074A6.289,6.289,0,0,0,901.513,1400.921Z" fill="#b56a3e"/><path d="M917.054,1471.007c-.5,1.384-2.285-.148-3.036,1.115-.367.619,1.607.609,1.2,1.2-.488.712-.721.932-1.617.658-1.518-.464-4.08-3.261-4.2-6.61-.063-1.8.127-4.362.1-6.168-.065-3.734-2.321-14.555,5.358-16.579.664-.176,1.037-1.265,1.288-1.807.3-.643.586-1.778,1.183-2.219,1.747-1.289,2.914,3.656,3.05,4.518A61.229,61.229,0,0,1,917.054,1471.007Z" fill="#f5a783"/><path d="M905.553,1414.476a15.291,15.291,0,0,1,3.628-1.413c.255-.058,1.115.266,1.372.212a9.473,9.473,0,0,1,5.74.467l.059.029v11.775H905.067Z" fill="#f3a984"/><path d="M899.98,1420.041c.245-2.71,3.317-4.2,5.573-5.565.324,2.222,1.3,4.266,3.557,5.02a2.922,2.922,0,0,0,3.417-1.025l.026-.036a6.256,6.256,0,0,0,.938-4.111c-.018-.376-.05-.75-.086-1.125-.043-.449.154-.348.542-.337a8.585,8.585,0,0,1,2.379.5,3.244,3.244,0,0,1,.894.4,2.607,2.607,0,0,1,.6.635,5.673,5.673,0,0,1,.825,1.7c.165.564.22,1.122.354,1.692a16.058,16.058,0,0,0,.809,2.5c.387.927,1.012,1.81,1.32,2.747a7.345,7.345,0,0,1,.342,3.186,27.942,27.942,0,0,1-1.541,4.745,19.541,19.541,0,0,0-.393,8.132c.08.685.176,1.368.27,2.05.05.362.095.476-.173.679a6.835,6.835,0,0,1-1.917.713c-.454.147-.909.3-1.37.42a17.826,17.826,0,0,1-3.868.61,10.747,10.747,0,0,1-7.106-1.97c-.236-.185-.366-.274-.417-.527-.032-.159.008-.5,0-.684a20.006,20.006,0,0,1,.125-2.086,19.61,19.61,0,0,0-.159-4.358c-.733-4.353-3.592-8.059-4.777-12.311A4.386,4.386,0,0,1,899.98,1420.041Z" fill="#ff9696"/><path d="M919.806,1441.137c1.294,8.079,3.557,16.675,4.27,24.965.2,2.273.211,4.765-1.767,6.288a9.928,9.928,0,0,1-4.445,1.952c-1.982.251-4-.239-5.994-.082a15.316,15.316,0,0,0-6.6,2.088c-.922.549-1.924,1.224-2.974,1a3.247,3.247,0,0,1-2.088-2.5c-.748-2.6-.554-5.734-.738-8.447a53.492,53.492,0,0,1,.138-8.985,36.821,36.821,0,0,1,5.353-16.514,1.746,1.746,0,0,0,.453.718,9.309,9.309,0,0,0,3.532,1.638,15.481,15.481,0,0,0,7.742-.407A6.168,6.168,0,0,0,919.806,1441.137Z" fill="#db6b6b"/><path d="M906.149,1414.984c-.123,4.161,7.137,4.231,7.033.319-.145-5.453-.454-6.079-2.844-6.925a6.534,6.534,0,0,0-2.031-.423c-2.523-.05-1.546,1.327-1.451,2.288C907.137,1413.092,906.193,1413.487,906.149,1414.984Z" fill="#f3a984"/><path d="M906.852,1412.106c-.168,1.282-.671,1.792-.7,2.878-.114,3.859,6.118,4.2,6.941,1.1A10.552,10.552,0,0,1,906.852,1412.106Z" fill="#f3a984"/><path d="M910.338,1408.378a6.534,6.534,0,0,0-2.031-.423c-2.523-.05-1.546,1.327-1.451,2.287a8.087,8.087,0,0,1,0,1.864,10.552,10.552,0,0,0,6.238,3.983,2.745,2.745,0,0,0,.092-.786C913.037,1409.85,912.728,1409.224,910.338,1408.378Z" fill="#ee9c76"/><path d="M909.18,1412.257q-.315-.264-.616-.544a10.8,10.8,0,0,1-1.963-2.214c-1.548-2.625-1.622-6.144.581-8.431a6.392,6.392,0,0,1,6.213-1.676,9.28,9.28,0,0,1,1.689.7,4.493,4.493,0,0,1,1.29.9,4.2,4.2,0,0,1,.58.858,4.613,4.613,0,0,1,.45,1.074c.422,1.7-.709,3.437-.063,5.113.142.366.354.705.483,1.075a1.343,1.343,0,0,1-.038,1.131c-.193.315-.448.473-.563.823-.154.474-.26.976-.394,1.458a6.914,6.914,0,0,1-.562,1.533c-.65,1.165-1.592,1.238-2.756.781A15.7,15.7,0,0,1,909.18,1412.257Z" fill="#ffbfa2"/><path d="M903.958,1404.277c.117-3.308,1.091-3.869,2.348-4.923a6.63,6.63,0,0,1,4.441-1.434,9.244,9.244,0,0,1,4.565,1.456l.163.1a4.5,4.5,0,0,1,1.71,1.757,4.75,4.75,0,0,1,.425,1.3c.141.844-.592,1.2-1.331,1.43-.994.31-2.4-.115-3.417-.224a3.954,3.954,0,0,0-1.427.018,1.344,1.344,0,0,0-1.008.92,3.388,3.388,0,0,0,.261,1.455,2.508,2.508,0,0,1-1.082,2.548,1.177,1.177,0,0,1-1.331.108c-.462-.211-.936-.569-1.445-.254-.471.291-.293.9-.183,1.347.023.083.2.71-.055.713S903.818,1408.254,903.958,1404.277Z" fill="#d08a62"/><path d="M910.427,1404.677a3.388,3.388,0,0,0,.261,1.455,2.508,2.508,0,0,1-1.082,2.548,1.177,1.177,0,0,1-1.331.108c-.462-.211-.936-.569-1.445-.254-.471.291-.293.9-.183,1.347.023.083.2.71-.055.713s-2.774-2.34-2.634-6.317a5.966,5.966,0,0,1,.973-3.638,14.883,14.883,0,0,1,2.855,1.537A18.329,18.329,0,0,1,910.427,1404.677Z" fill="#d08a62"/><path d="M907.109,1407.294c-1.129-.076-1.415,1.325-.64,2.407a5.545,5.545,0,0,0,.921.848c2.022,1.722,2.53-.141,1.888-.728C907.785,1408.459,908.529,1407.39,907.109,1407.294Z" fill="#ffbfa2"/><path d="M907.83,1409.861c-.13-.119-1.416-.878-.54-1.4a.388.388,0,0,1,.55.326c.02.133-.022.27,0,.4a.609.609,0,0,0,.086.221c.114.186.5.365.428.637C908.284,1410.294,907.9,1409.929,907.83,1409.861Z" fill="#f3a984"/><path d="M906.033,1421.121a3.3,3.3,0,0,0-1.67-2.789c-2.353-1.4-4.3-.119-10.222,5.325a32.449,32.449,0,0,0-4.821,5.4c-2.222,3.9,1.027,4.882,3.64,3.673a16.808,16.808,0,0,0,3.083-2.3C902.8,1425.174,906.071,1423.568,906.033,1421.121Z" fill="#ffbfa2"/><path d="M905.863,1437.148a1.054,1.054,0,0,1-.276,1.462c-.247.126-1.449,1-1.614.763a3.094,3.094,0,0,0-1.606-.793c-1.356-.417-2.752-.706-4.132-1.031-8.733-2.056-10.014-4.338-9.636-6.53a4.772,4.772,0,0,1,1.355-2.5c.745-.735,5.224,2.6,6.158,3.007.5.214,7.835,4.086,8.421,4.4A2.528,2.528,0,0,1,905.863,1437.148Z" fill="#ffbfa2"/><path d="M905.442,1440.122c-1.6,2.08-1.742,5.143-3.725,6.863q.182-2.576.362-5.152c.119-1.7.475-4.179,2.482-4.671C906.825,1436.608,906.327,1438.973,905.442,1440.122Z" fill="#ffbfa2"/><path d="M884.752,1471.586l.071,25.3a12.261,12.261,0,0,0,.338,2.194l43.359-68.039-.062-21.693Z" fill="#dddefa" opacity="0.2" style="mix-blend-mode:screen;isolation:isolate"/><path d="M922.263,1383.547l-.561.295-20.731,11.969-16.367,23.8.055,19.419Z" fill="#dddefa" opacity="0.2" style="mix-blend-mode:screen;isolation:isolate"/><path d="M1044.574,1515.662l65.016-37.623-26.205-15.13L1013,1503.635l20.832,12.028Z" fill="#1d1d1b" opacity="0.09"/><path d="M1042.2,1501.4l-2.329,1.345c-6.27,3.62-16.531,3.62-22.8,0l-2.329-1.345c-6.27-3.62-6.27-9.544,0-13.164l2.329-1.345c6.27-3.62,16.531-3.62,22.8,0l2.329,1.345C1048.474,1491.858,1048.474,1497.782,1042.2,1501.4Z" fill="#f5ebe4"/><path d="M1021.622,1390.063c-1.785.776-2.964,4.36-2.9,8.224.044,2.8-2,3.477-2.479,4.853-.873,2.481-3.193,4.123-3.312,6.433,4.169,2.234,7.52-2.454,8.706-3.78,3.759-4.2,3.086-5.6,3.074-14.877-.016.089.138.117.189.043a.3.3,0,0,0,0-.26Z" fill="#b56a3e"/><path d="M1025.437,1484.464c-1.254.071-1.451-1.7-1.588-2.69-2.588-18.823.24-24.135.722-27.08.212-1.29.1-2.733.9-3.763,1.954-2.5,6.309-.1,7.336,3.064.425,1.31-.544,3.245-.858,4.534C1028.418,1473.013,1030.193,1484.193,1025.437,1484.464Z" fill="#ee9c76"/><path d="M1029.159,1476.362c-.177,6.575-2.393,7.671,2.286,11.826,1.324,1.178,5.428,2.635,5.2,4.122a4.881,4.881,0,0,1-3.447,2.5c-2.6.188-3.867-2.61-6.037-3.463-1.442-.567-4.913-.762-3.837-5.226.15-.622.36-1.226.54-1.839.51-1.741-.251-1.512,1.456-2.857C1027.111,1480.013,1025.476,1482.548,1029.159,1476.362Z" fill="#ee9c76"/><path d="M1030.465,1487.247c.406,1.241,1.711,2.026,2.474,3.2.438.677-.273,1.167-.75,1.15-4.551-.159-6.694-3.163-8.652-6.254-1.258,4.168.491,5.043,3.366,6.173,2.349.923,5.421,5.484,8.841,2.837C1039.582,1491.387,1033.328,1490.236,1030.465,1487.247Z" fill="#1a0f15"/><path d="M1020.818,1403.851a16.1,16.1,0,0,1,4.072-.335c.275.019,1.043.6,1.317.625a9.924,9.924,0,0,1,5.634,2.19c.018.014.034.031.051.046l-3.528,11.845-11.352-3.38Z" fill="#ffbfa2"/><path d="M1034.872,1428.413c-.613.239.187-2.087-.312-2.516-.878-.756-1.728,1.337-2.936-.369a29.007,29.007,0,0,1-1.205-3.365c-.767-2.029-9.048-19.11-.817-17.373,3.927.83,5.3,9.05,6.085,13.852a38.99,38.99,0,0,0,1.646,4.717A3.932,3.932,0,0,1,1034.872,1428.413Z" fill="#f8b495"/><path d="M1024.171,1437.544c3.3.093,4.131,1.64,4.624-1.881.784-5.607,3.939-14.7,4.046-21.517.127-8.181-.467-8.248-5.742-9.982,0,0,1.215,5.111-.107,6.052-2.732,1.944-6.815-2.089-6.174-6.365-3.085.843-8.459,3.886-8.56,7.967-.115,4.623,2.542,6.784,1.954,11.376a70.34,70.34,0,0,1-2.073,9.516c-.321,1.275,1.735,3.53,2.831,3.843C1020.81,1438.225,1023.652,1437.53,1024.171,1437.544Z" fill="#4b3d46"/><path d="M1024.544,1455.264c-.174,7.392-2.233,16.228-2.478,23.617a68.993,68.993,0,0,0,.4,9.7c.208,1.064-2.292,3.8-3.244,3.286-.659-.359-1.426-3.288-1.482-4.036-.311-4.235-2.408-8.121-3.322-12.268-1.3-5.881.169-15.778,2.734-16.377Z" fill="#f3a984"/><path d="M1022.439,1488.225c.2,3.791,3.017,6.87,5.067,9.865.314.46-.162,1.432-.179,1.989-.022.715.477,1.408-3.2,1.769-1.743.171-2.575.314-5.214-5.213-.56-1.173-1.663-2.023-1.595-3.459.053-1.1.83-2.041.975-3.129.163-1.217-.439-2.634.337-3.585.722-.886,2.409-.878,3.361.675Z" fill="#f3a984"/><path d="M1027.505,1498.09c-.709-1.037-1.51-2.084-2.264-3.166.21,1.708-.224,3.119-2.208,3.057-3.495.1-3.9-4.054-4.977-7.066a7.671,7.671,0,0,0-.741,2.261c-.068,1.436,1.035,2.286,1.595,3.459.477,1,2.261,4.539,3.217,5.227C1024.313,1503.436,1030.06,1501.824,1027.505,1498.09Z" fill="#1a0f15"/><path d="M1029.832,1430.243c.329.781,2.022,8.48,2.25,9.155.537,1.6-.439,2.983-.032,4.615.386,1.545.654,3.116.921,4.685q.581,3.4,1.159,6.8a18.47,18.47,0,0,1-.043,8.095,3.163,3.163,0,0,1-1.192,1.914,4,4,0,0,1-1.846.442,17.641,17.641,0,0,0-7.8,2.1,5.644,5.644,0,0,1-2.056.981c-1.034.141-2.043-.451-3.087-.427-1.682.038-3.153,1.648-4.8,1.3a3.434,3.434,0,0,1-2.077-1.776c-1.538-2.626-1.5-5.777-1.89-8.7-.2-1.494-.565-2.911-.7-4.435q-.215-2.475-.206-4.962c.027-6.092,1.617-14.843,4.473-20.281C1012.808,1431.858,1025.786,1436.355,1029.832,1430.243Z" fill="#32272d"/><path d="M1021.477,1404.436c-.61,4.151,6.347,5.109,6.71,1.179.506-5.477.284-6.142-1.909-7.281a6.131,6.131,0,0,0-1.9-.672c-2.414-.359-1.64,1.139-1.663,2.113C1022.649,1402.663,1021.7,1402.942,1021.477,1404.436Z" fill="#f3a984"/><path d="M1024.76,1402.246c-.2-.194-.386-.394-.572-.6a10.89,10.89,0,0,1-1.784-2.393c-1.331-2.771-1.1-6.314,1.306-8.424a6.448,6.448,0,0,1,6.388-1.153,9.337,9.337,0,0,1,1.637.846,4.537,4.537,0,0,1,1.22,1.012,4.244,4.244,0,0,1,.51.912,4.676,4.676,0,0,1,.359,1.118c.279,1.744-1.006,3.393-.5,5.133.111.381.3.739.393,1.122a1.356,1.356,0,0,1-.134,1.133c-.221.3-.491.438-.636.78-.2.463-.345.959-.522,1.431a6.951,6.951,0,0,1-.7,1.493c-.754,1.115-1.706,1.108-2.837.549A15.839,15.839,0,0,1,1024.76,1402.246Z" fill="#ffbfa2"/><path d="M1020.2,1393.779c.4-3.315,1.427-3.8,2.78-4.747a6.7,6.7,0,0,1,4.587-1.061,9.33,9.33,0,0,1,4.463,1.854c.052.039.1.078.155.118a4.543,4.543,0,0,1,1.569,1.913,4.782,4.782,0,0,1,.316,1.338c.069.861-.7,1.155-1.46,1.324-1.026.227-2.4-.321-3.415-.518a3.986,3.986,0,0,0-1.436-.1,1.358,1.358,0,0,0-1.092.838,3.42,3.42,0,0,0,.138,1.485,2.529,2.529,0,0,1-1.305,2.468,1.188,1.188,0,0,1-1.348-.006c-.446-.251-.892-.652-1.43-.379-.5.253-.372.884-.3,1.338.016.086.143.732-.116.713S1019.713,1397.765,1020.2,1393.779Z" fill="#d08a62"/><path d="M1026.662,1394.735a3.42,3.42,0,0,0,.138,1.485,2.529,2.529,0,0,1-1.305,2.468,1.188,1.188,0,0,1-1.348-.006c-.446-.251-.892-.652-1.43-.379-.5.253-.209.643-.136,1.1.011.061.125.008.117.458a4.66,4.66,0,0,1-.116.9,8.456,8.456,0,0,1-2.387-6.984,6.015,6.015,0,0,1,1.289-3.572,14.959,14.959,0,0,1,2.738,1.788A18.477,18.477,0,0,1,1026.662,1394.735Z" fill="#d08a62"/><path d="M1023.1,1397.082c-1.128-.173-1.535,1.21-.849,2.364a5.642,5.642,0,0,0,.854.931c1.884,1.9,2.554.074,1.959-.57C1023.684,1398.31,1024.522,1397.3,1023.1,1397.082Z" fill="#ffbfa2"/><path d="M1023.609,1399.723c-.121-.131-1.348-1-.424-1.449a.391.391,0,0,1,.525.375c.008.136-.045.27-.037.4a.632.632,0,0,0,.068.229c.1.2.476.41.376.677C1024.028,1400.2,1023.678,1399.8,1023.609,1399.723Z" fill="#f3a984"/><path d="M1012.171,1416.372c-.718-5.208,1.651-9.213,3.866-9.317,2.094-.1,4.023,3.313,3.992,11.626-.007,2.023.218,8.631.092,13.089-.068,2.355-3.464.669-4.168.17C1013.609,1430.276,1013.586,1426.62,1012.171,1416.372Z" fill="#ffbfa2"/><path d="M1045.732,1439.018a7.326,7.326,0,0,0-.809-1.844c-.477-.617-1.081-1.124-1.552-1.745-.768-1.011-6.067-12.2-6.545-13.093-1.442-2.693-5.435,3.344-5.2,3.192.219.822,8.2,10.333,8.246,10.6.164.976-.379,1.942.879,3.005,1.472,1.243-.248,4.933,1.082,5.139a4.571,4.571,0,0,0,1.641-.439C1044.589,1443.464,1045.768,1439.688,1045.732,1439.018Z" fill="#f8b495"/><path d="M1042.826,1440.971c-.067.2-.126.405-.179.611-.078.3-.145.611-.212.934a3.262,3.262,0,0,1-.221.731,1.215,1.215,0,0,1-.487.557.564.564,0,0,1-.64-.035c-.354-.317.058-1.119.151-1.535a1.546,1.546,0,0,0,.048-.6,7.049,7.049,0,0,0-.349-.91,4.1,4.1,0,0,1-.211-1.06A12.041,12.041,0,0,1,1042.826,1440.971Z" fill="#ffbfa2"/><path d="M1041.155,1437.876a1.386,1.386,0,0,1,.3-.348,1.015,1.015,0,0,1,1.239-.007,1.626,1.626,0,0,1,.441.748,3.252,3.252,0,0,1-.1,2.141c-.079.188-.148.375-.21.561a12.243,12.243,0,0,0-2.1-1.315A3.03,3.03,0,0,1,1041.155,1437.876Z" fill="#ffbfa2"/><path d="M1052.288,1408.167a3.808,3.808,0,0,0,.327,1.555c.114.274.351.474.532.447s.234-.272.12-.547a2.4,2.4,0,0,1-.209-.972.768.768,0,0,1,.226-.567c-.3-.179-.576-.377-.858-.546A1.656,1.656,0,0,0,1052.288,1408.167Z" fill="#291321"/><path d="M1064.128,1401.346a3.805,3.805,0,0,0,.327,1.555c.113.274.351.474.532.447s.234-.272.12-.547a2.4,2.4,0,0,1-.209-.972.768.768,0,0,1,.226-.567c-.3-.179-.576-.377-.858-.546A1.656,1.656,0,0,0,1064.128,1401.346Z" fill="#291321"/><g style="isolation:isolate"><path d="M1095.518,1478.74l2.47-1.435,0,1-2.47,1.435Z" fill="#3d3138"/><path d="M1076.236,1467.608l2.47-1.435,19.281,11.132-2.47,1.435Z" fill="#62515c"/><path d="M1095.518,1478.74l0,1-19.281-11.132,0-1Z" fill="#32272d"/></g><path d="M1085.682,1400.839v70.848a1.4,1.4,0,0,0,2.8,0v-71.852C1087.549,1400.171,1086.615,1400.509,1085.682,1400.839Z" fill="#6b5864"/><path d="M1074.265,1396.292a3.82,3.82,0,0,0,.327,1.554c.114.275.352.475.532.448s.234-.273.121-.547a2.391,2.391,0,0,1-.21-.973.767.767,0,0,1,.226-.567c-.3-.179-.576-.376-.858-.545A1.668,1.668,0,0,0,1074.265,1396.292Z" fill="#291321"/><path d="M1081.13,1417.885c2.032.965,3.4-3.272,4-4.873.284-.755.74-1.13-.224-2.624C1083.077,1407.553,1078.485,1416.629,1081.13,1417.885Z" fill="#ffad54"/><path d="M1080.434,1410.368c2.015-3.123-1.28-5.5-2.314-6.734-1.668-1.981-2.662-1.657-3.133-1.626-1.83.118-3.653-1.1-5.062,1.41-2.024,3.6-.767,8.651.962,9.944C1072.913,1414.876,1077.994,1414.149,1080.434,1410.368Z" fill="#ffad54"/><path d="M1066.27,1404.284c-.27-1.4.2-2.362,1.18-2.4l8.242-.353a3.07,3.07,0,0,1,2.247,1.3l8.242,9.87a4.647,4.647,0,0,1,1.18,3.765c-.271,1.084-1.2,1.383-2.3.744l-16.485-9.517A5.242,5.242,0,0,1,1066.27,1404.284Zm9.788-1.757-8.242.353c-.811.034-.935.894-.8,1.62a3.509,3.509,0,0,0,1.552,2.293l16.485,9.517c.921.532,1.411.062,1.552-.5a3.051,3.051,0,0,0-.8-2.538l-8.242-9.87a2.878,2.878,0,0,0-.758-.657A1.415,1.415,0,0,0,1076.058,1402.527Z" fill="#291321"/><path d="M1065.808,1431.3c-1.294,8.078-3.557,16.674-4.269,24.965-.2,2.273-.212,4.764,1.767,6.287a9.9,9.9,0,0,0,4.445,1.952c1.981.251,4-.239,5.994-.082a15.316,15.316,0,0,1,6.6,2.089c.923.548,1.925,1.223,2.975,1a3.248,3.248,0,0,0,2.087-2.5c.749-2.6.555-5.734.738-8.447a53.582,53.582,0,0,0-.137-8.984,36.85,36.85,0,0,0-5.353-16.515,1.734,1.734,0,0,1-.454.719,9.326,9.326,0,0,1-3.531,1.638,15.509,15.509,0,0,1-7.743-.407A6.179,6.179,0,0,1,1065.808,1431.3Z" fill="#ffad54"/><path d="M1081.13,1417.885c-2.637-1.252,1.918-10.273,3.759-7.522a14.174,14.174,0,0,0-1.12-1.578,11.821,11.821,0,0,0-1.889-2.067c-.01-.009-1.71-1.412-1.724-1.414-.327-.047-.531.709-.572.917-.446,2.267-4.6,5.154-6.322,2.842-1.647-2.242,1.094-6.967-.291-7.419a10.561,10.561,0,0,0-2.2-.044c-2.341.058-2.312.492-3.106,2.438-5.543,13.587-.261,15.679-1.854,27.265-.049.361-.095.475.173.678a6.866,6.866,0,0,0,1.917.714c.454.146.909.3,1.37.419a17.937,17.937,0,0,0,3.857.763c2.027.085,6.86-.473,7.683-2.832a11.476,11.476,0,0,0,.091-2.61,36.711,36.711,0,0,1,.665-5.007,36.291,36.291,0,0,1,1.372-4.871c.223-.626.429-1.442.677-2.058C1083.613,1416.5,1082.381,1418.479,1081.13,1417.885Z" fill="#ffb56c"/><path d="M1070.993,1422.94c2.032.965,3.4-3.272,4-4.873.284-.755.74-1.13-.224-2.624C1072.94,1412.607,1068.347,1421.683,1070.993,1422.94Z" fill="#737a9c"/><path d="M1070.3,1415.422c2.015-3.123-1.28-5.5-2.315-6.733-1.667-1.982-2.662-1.657-3.132-1.627-1.831.118-3.653-1.1-5.062,1.41-2.025,3.6-.767,8.651.962,9.944C1062.776,1419.93,1067.857,1419.2,1070.3,1415.422Z" fill="#737a9c"/><path d="M1056.133,1409.339c-.27-1.4.2-2.362,1.179-2.4l8.243-.353a3.069,3.069,0,0,1,2.247,1.3l8.242,9.869a4.649,4.649,0,0,1,1.179,3.766c-.27,1.084-1.2,1.383-2.3.743l-16.484-9.517A5.236,5.236,0,0,1,1056.133,1409.339Zm9.788-1.757-8.242.352c-.812.035-.936.894-.795,1.62a3.5,3.5,0,0,0,1.552,2.293l16.484,9.517c.921.532,1.412.063,1.552-.5a3.044,3.044,0,0,0-.794-2.537l-8.243-9.87a2.9,2.9,0,0,0-.757-.658A1.413,1.413,0,0,0,1065.921,1407.582Z" fill="#291321"/><path d="M1055.671,1436.357c-1.294,8.078-3.557,16.675-4.27,24.965-.195,2.273-.211,4.764,1.768,6.288a9.919,9.919,0,0,0,4.444,1.952c1.982.251,4-.239,5.995-.082a15.317,15.317,0,0,1,6.6,2.088c.923.549,1.925,1.224,2.974,1a3.247,3.247,0,0,0,2.088-2.5c.749-2.6.555-5.733.738-8.446a53.6,53.6,0,0,0-.137-8.985,36.838,36.838,0,0,0-5.354-16.515,1.724,1.724,0,0,1-.453.719,9.307,9.307,0,0,1-3.532,1.638,15.48,15.48,0,0,1-7.742-.407A6.172,6.172,0,0,1,1055.671,1436.357Z" fill="#adb2cc"/><path d="M1070.993,1422.94c-2.637-1.253,1.917-10.274,3.758-7.523a14.372,14.372,0,0,0-1.119-1.578,11.859,11.859,0,0,0-1.889-2.067c-.01-.009-1.71-1.412-1.724-1.413-.327-.047-.531.708-.572.916-.447,2.267-4.6,5.154-6.322,2.842-1.647-2.241,1.094-6.967-.291-7.418a10.505,10.505,0,0,0-2.2-.044c-2.342.058-2.312.491-3.106,2.437-5.543,13.587-.261,15.68-1.854,27.265-.049.362-.095.476.173.678a6.8,6.8,0,0,0,1.917.714c.454.147.909.3,1.37.42a18,18,0,0,0,3.857.763c2.027.084,6.86-.473,7.683-2.832a11.534,11.534,0,0,0,.091-2.61,35.536,35.536,0,0,1,2.036-9.878c.224-.626.43-1.442.678-2.059C1073.476,1421.553,1072.244,1423.534,1070.993,1422.94Z" fill="#8b91ad"/><path d="M1059.153,1429.761c2.032.965,3.4-3.272,4-4.873.284-.756.74-1.13-.224-2.624C1061.1,1419.428,1056.507,1428.5,1059.153,1429.761Z" fill="#ffad54"/><path d="M1058.457,1422.243c2.015-3.123-1.28-5.5-2.314-6.733-1.668-1.982-2.663-1.657-3.133-1.627-1.83.118-3.653-1.1-5.062,1.41-2.024,3.6-.767,8.651.962,9.944C1050.936,1426.751,1056.017,1426.025,1058.457,1422.243Z" fill="#ffad54"/><path d="M1044.293,1416.16c-.27-1.4.2-2.362,1.179-2.4l8.243-.353a3.07,3.07,0,0,1,2.247,1.3l8.242,9.869a4.645,4.645,0,0,1,1.179,3.766c-.27,1.084-1.2,1.383-2.3.743l-16.484-9.517A5.24,5.24,0,0,1,1044.293,1416.16Zm9.788-1.758-8.242.353c-.811.035-.936.894-.8,1.62a3.5,3.5,0,0,0,1.552,2.293l16.484,9.517c.921.532,1.412.063,1.553-.5a3.049,3.049,0,0,0-.8-2.537l-8.243-9.87a2.9,2.9,0,0,0-.757-.658A1.424,1.424,0,0,0,1054.081,1414.4Z" fill="#291321"/><path d="M1043.831,1443.178c-1.294,8.078-3.557,16.675-4.269,24.965-.2,2.273-.212,4.765,1.767,6.288a9.919,9.919,0,0,0,4.445,1.952c1.981.251,4-.239,5.994-.082a15.314,15.314,0,0,1,6.6,2.088c.923.549,1.925,1.224,2.974,1a3.247,3.247,0,0,0,2.088-2.5c.749-2.6.555-5.733.738-8.446a53.607,53.607,0,0,0-.137-8.985,36.853,36.853,0,0,0-5.353-16.515,1.735,1.735,0,0,1-.454.719,9.312,9.312,0,0,1-3.531,1.638,15.486,15.486,0,0,1-7.743-.407A6.171,6.171,0,0,1,1043.831,1443.178Z" fill="#ffad54"/><path d="M1059.153,1429.761c-2.637-1.253,1.917-10.274,3.758-7.523a14.219,14.219,0,0,0-1.119-1.578,11.854,11.854,0,0,0-1.889-2.067c-.01-.009-1.71-1.412-1.724-1.414-.327-.046-.531.709-.572.917-.446,2.267-4.605,5.154-6.322,2.842-1.647-2.241,1.094-6.967-.291-7.418a10.493,10.493,0,0,0-2.2-.044c-2.341.058-2.312.491-3.106,2.437-5.543,13.587-.261,15.68-1.854,27.265-.049.362-.1.476.173.679a6.831,6.831,0,0,0,1.917.713c.454.147.909.3,1.37.42a18,18,0,0,0,3.857.763c2.027.084,6.86-.473,7.683-2.832a11.485,11.485,0,0,0,.091-2.61,36.7,36.7,0,0,1,.665-5.008,36.218,36.218,0,0,1,1.372-4.87c.223-.626.429-1.442.677-2.059C1061.636,1428.374,1060.4,1430.355,1059.153,1429.761Z" fill="#ffb56c"/><path d="M1039.966,1415.811a3.823,3.823,0,0,0,.327,1.555c.114.274.352.474.532.447s.234-.272.121-.547a2.388,2.388,0,0,1-.21-.972.766.766,0,0,1,.226-.567c-.3-.179-.575-.377-.858-.546A1.677,1.677,0,0,0,1039.966,1415.811Z" fill="#291321"/><path d="M1046.831,1437.405c2.032.965,3.4-3.273,4-4.874.285-.755.741-1.129-.223-2.623C1048.778,1427.072,1044.186,1436.148,1046.831,1437.405Z" fill="#db6b6b"/><path d="M1046.135,1429.887c2.015-3.123-1.279-5.5-2.314-6.733-1.667-1.982-2.662-1.657-3.133-1.627-1.83.118-3.653-1.1-5.062,1.41-2.024,3.6-.766,8.651.963,9.944C1038.614,1434.4,1043.695,1433.669,1046.135,1429.887Z" fill="#db6b6b"/><path d="M1031.971,1423.8c-.27-1.4.2-2.362,1.18-2.4l8.242-.353a3.07,3.07,0,0,1,2.247,1.3l8.242,9.87a4.649,4.649,0,0,1,1.18,3.766c-.271,1.084-1.2,1.383-2.3.743l-16.485-9.517A5.243,5.243,0,0,1,1031.971,1423.8Zm9.788-1.758-8.242.353c-.811.035-.935.894-.795,1.62a3.507,3.507,0,0,0,1.552,2.293l16.485,9.517c.921.532,1.411.063,1.552-.5a3.051,3.051,0,0,0-.8-2.538l-8.242-9.869a2.888,2.888,0,0,0-.758-.658A1.425,1.425,0,0,0,1041.759,1422.046Z" fill="#291321"/><path d="M1031.51,1450.822c-1.3,8.078-3.558,16.675-4.27,24.965-.2,2.273-.212,4.764,1.767,6.288a9.922,9.922,0,0,0,4.445,1.952c1.981.251,4-.239,5.994-.082a15.307,15.307,0,0,1,6.6,2.088c.923.549,1.925,1.224,2.975,1a3.246,3.246,0,0,0,2.087-2.5c.749-2.6.555-5.733.738-8.446a53.49,53.49,0,0,0-.137-8.985,36.849,36.849,0,0,0-5.353-16.515,1.744,1.744,0,0,1-.453.719,9.321,9.321,0,0,1-3.532,1.638,15.5,15.5,0,0,1-7.743-.407A6.164,6.164,0,0,1,1031.51,1450.822Z" fill="#db6b6b"/><path d="M1046.831,1437.405c-2.637-1.253,1.918-10.274,3.759-7.523a14.318,14.318,0,0,0-1.119-1.578,11.9,11.9,0,0,0-1.889-2.067c-.011-.009-1.711-1.412-1.725-1.414-.327-.046-.531.709-.572.917-.446,2.267-4.6,5.154-6.322,2.842-1.647-2.241,1.095-6.967-.291-7.418a10.5,10.5,0,0,0-2.2-.044c-2.341.058-2.312.491-3.1,2.437-5.544,13.587-.262,15.68-1.854,27.265-.05.362-.095.476.172.678a6.844,6.844,0,0,0,1.917.714c.454.147.909.3,1.37.419a17.939,17.939,0,0,0,3.857.764c2.027.084,6.86-.473,7.683-2.832a11.424,11.424,0,0,0,.091-2.61,36.553,36.553,0,0,1,.666-5.008,36.066,36.066,0,0,1,1.371-4.87c.223-.626.43-1.442.677-2.059C1049.314,1436.018,1048.082,1438,1046.831,1437.405Z" fill="#ff9696"/><path d="M1031.366,1443.943c.115-.452,1.916,2.511-.22-.857-4.055-6.393-12.066-19.218-15.25-15.956a4.19,4.19,0,0,0-1.127,3.5c.327,1.028,11.145,12.45,12.912,14.375C1029.387,1446.861,1031.108,1444.958,1031.366,1443.943Z" fill="#ffbfa2"/><path d="M1031.146,1443.086q.051.046.1.09a1.494,1.494,0,0,0,.953.4,3.512,3.512,0,0,1,1.144.306l3.99,1.416c.218.077.478.21.474.442a.409.409,0,0,1-.128.268,1.076,1.076,0,0,1-.871.276,4.485,4.485,0,0,1-.914-.226,7.234,7.234,0,0,0-1.544-.283.209.209,0,0,0-.136.022c-.071.051-.05.162-.017.244a6.371,6.371,0,0,0,1.339,1.8,26.167,26.167,0,0,1,1.769,2.124,1.236,1.236,0,0,1,.261.54.449.449,0,0,1-.265.491c-.229.07-.45-.116-.617-.288l-1.265-1.3c-.1-.1-.751-.824-.866-.533-.072.182.283.559.374.7l.728,1.141a2.072,2.072,0,0,1,.468,1.41c-.029.163-.071.3-.235.31a.768.768,0,0,1-.407-.13,1.734,1.734,0,0,1-.495-.631,12.167,12.167,0,0,0-1.118-1.636,5.667,5.667,0,0,0-.638-.725c-.306-.263-.308.134-.2.352a7.062,7.062,0,0,1,.6,1.482,2.112,2.112,0,0,1,.071.748c-.051.274-.359.248-.535.1a1.517,1.517,0,0,1-.375-.559q-.351-.741-.7-1.484a3,3,0,0,0-.325-.665c-.111-.126-.279-.175-.327.028a3.224,3.224,0,0,0,.035.842,1.453,1.453,0,0,1-.1.576c-.033.085-.094.178-.184.176a.24.24,0,0,1-.169-.124,2.587,2.587,0,0,1-.5-1.084,7.093,7.093,0,0,0-.4-1.277,6.544,6.544,0,0,0-1.3-2.294c-.366-.391-.8-.715-1.144-1.128a.5.5,0,0,1-.013-.744c.271-.372.461-.787.767-1.14a4.532,4.532,0,0,1,1.035-.878.845.845,0,0,1,.559-.169.914.914,0,0,1,.5.351A7.935,7.935,0,0,0,1031.146,1443.086Z" fill="#ffbfa2"/><g style="isolation:isolate"><path d="M1033.888,1514.663l2.47-1.435,0,1-2.47,1.435Z" fill="#3d3138"/><path d="M1014.606,1503.531l2.47-1.435,19.281,11.132-2.47,1.435Z" fill="#62515c"/><path d="M1033.888,1514.663l0,1L1014.6,1504.53l0-1Z" fill="#32272d"/></g><path d="M1088.486,1398.721c0-2.479-.909-4.37-2.56-5.323s-3.743-.795-5.89.445l-49.492,28.573a15.37,15.37,0,0,0-7.048,12.208v72.965a1.4,1.4,0,1,0,2.8,0v-72.965a12.688,12.688,0,0,1,5.646-9.78l49.492-28.573a2.521,2.521,0,0,1,4.244,2.45v2.118c.933-.33,1.867-.668,2.8-1Z" fill="#6b5864"/><path d="M1043.63,1416.838a3.749,3.749,0,0,0-2.23-2.224,1.048,1.048,0,0,0-1.3.567c.283.169.558.367.858.546a.719.719,0,0,1,.656-.129,2.31,2.31,0,0,1,1.382,1.392,1.958,1.958,0,0,1-.4,2.235,3.671,3.671,0,0,0-.818,2.212.854.854,0,0,0,.385.67c.213.123.386.022.386-.225a3.12,3.12,0,0,1,.718-1.829A2.817,2.817,0,0,0,1043.63,1416.838Z" fill="#291321"/><path d="M1077.929,1397.319a3.752,3.752,0,0,0-2.23-2.224,1.048,1.048,0,0,0-1.3.567c.282.169.558.366.858.545a.718.718,0,0,1,.655-.129,2.314,2.314,0,0,1,1.383,1.392,1.96,1.96,0,0,1-.4,2.236,3.671,3.671,0,0,0-.818,2.212.851.851,0,0,0,.385.669c.213.123.386.023.386-.224a3.12,3.12,0,0,1,.718-1.829A2.817,2.817,0,0,0,1077.929,1397.319Z" fill="#291321"/><path d="M1067.791,1402.373a3.745,3.745,0,0,0-2.229-2.223,1.047,1.047,0,0,0-1.3.566c.282.169.558.367.858.546a.718.718,0,0,1,.655-.129,2.3,2.3,0,0,1,1.382,1.392,1.956,1.956,0,0,1-.4,2.235,3.667,3.667,0,0,0-.818,2.212.854.854,0,0,0,.385.67c.213.123.385.022.385-.224a3.123,3.123,0,0,1,.718-1.83A2.813,2.813,0,0,0,1067.791,1402.373Z" fill="#291321"/><path d="M1055.951,1409.194a3.751,3.751,0,0,0-2.229-2.224,1.049,1.049,0,0,0-1.3.567c.282.169.558.367.858.546a.718.718,0,0,1,.655-.129,2.309,2.309,0,0,1,1.383,1.392,1.959,1.959,0,0,1-.4,2.235,3.667,3.667,0,0,0-.818,2.213.854.854,0,0,0,.385.669c.213.123.386.022.386-.225a3.129,3.129,0,0,1,.717-1.829A2.813,2.813,0,0,0,1055.951,1409.194Z" fill="#291321"/><path d="M1103.746,1504.065a15.731,15.731,0,0,1,14.239,0c3.933,2.27,3.933,5.951,0,8.221a15.737,15.737,0,0,1-14.239,0C1099.813,1510.016,1099.813,1506.335,1103.746,1504.065Z" fill="#1d1d1b" opacity="0.09"/><path d="M1113.95,1477.723a26.752,26.752,0,0,0-3-22.577c-.355,3.912-2.571,7.4-3.543,11.2-1.467,5.751-.008,11.84,2.033,17.413Z" fill="#47650c"/><path d="M1109.049,1477.906c.562-2.22,1.082-4.453,1.478-6.709a47.331,47.331,0,0,0,.536-13.863c0-.016.027-.021.03,0a39.731,39.731,0,0,1,.118,12.811c-.327,2.265-.774,4.514-1.313,6.739a32.04,32.04,0,0,1-1.951,6.624.136.136,0,0,1-.251-.069A38.938,38.938,0,0,1,1109.049,1477.906Z" fill="#385009"/><path d="M1113.287,1485.252a30.621,30.621,0,0,0-15.222-24.77c.936,4.489.8,9.166,1.92,13.613a24.829,24.829,0,0,0,10.713,14.757Z" fill="#648e0e"/><path d="M1099.04,1462c1.083,2.872,2.919,5.316,4.45,7.95a56.066,56.066,0,0,1,3.31,6.946,41.629,41.629,0,0,1,2.4,8.512,36.577,36.577,0,0,1,.942,8.5.155.155,0,0,1-.3.041c-.777-2.8-.729-5.906-1.23-8.777a41.072,41.072,0,0,0-2.673-9.182,53.81,53.81,0,0,0-3.538-7.039,26.748,26.748,0,0,1-3.415-6.936C1098.971,1461.977,1099.026,1461.964,1099.04,1462Z" fill="#47650c"/><path d="M1124.606,1474.547a37.153,37.153,0,0,0-.773-14.957,10.438,10.438,0,0,1-2.118,5.281c-1.1,1.579-2.383,3.027-3.36,4.682a23.525,23.525,0,0,0-2.619,7.881,21.135,21.135,0,0,0-.416,5.013,8.464,8.464,0,0,0,1.058,4.03c.756,1.112,2.083-.544,2.778-1.225a18.853,18.853,0,0,0,4.209-6.436A22.462,22.462,0,0,0,1124.606,1474.547Z" fill="#597c12"/><path d="M1111.391,1488.7c3.259-3.724,6.535-7.361,8.842-11.785,2.394-4.593,2.745-9.656,3.45-14.708,0-.006.01,0,.01,0-.238,4.966-.618,10.116-2.869,14.624a48.61,48.61,0,0,1-9.051,12.249C1111.525,1489.332,1111.164,1488.961,1111.391,1488.7Z" fill="#47650c"/><path d="M1100.637,1490.158l21.8-.029-1.649,17.208a3.035,3.035,0,0,1-.23,1.156,4.1,4.1,0,0,1-.841,1.285l0,0a6.8,6.8,0,0,1-1.6,1.236,14.6,14.6,0,0,1-13.2,0,7.046,7.046,0,0,1-1.444-1.088,4.145,4.145,0,0,1-1-1.5,3.017,3.017,0,0,1-.192-1.063l0-.025h0Z" fill="#c9c9c9"/><path d="M1101.37,1491.108a4.052,4.052,0,0,0,.332.71l.158.257.036.054a5.719,5.719,0,0,0,.471.587,7.7,7.7,0,0,0,1.808,1.418,16.182,16.182,0,0,0,14.678,0,7.106,7.106,0,0,0,2.3-2,.334.334,0,0,0,.033-.051c.068-.111.137-.221.208-.332a.249.249,0,0,0,.018-.029,4.375,4.375,0,0,0,.281-.6c.7-1.922-.224-4-2.79-5.487a16.167,16.167,0,0,0-14.678,0C1101.645,1487.119,1100.693,1489.192,1101.37,1491.108Z" fill="#f1f1f1"/><path d="M1100.637,1490.158a3.553,3.553,0,0,0,.226,1.252,4.905,4.905,0,0,0,1.174,1.772,8.342,8.342,0,0,0,1.7,1.281,17.188,17.188,0,0,0,15.55,0,8.053,8.053,0,0,0,1.885-1.455l0,0a4.825,4.825,0,0,0,.991-1.514,3.584,3.584,0,0,0,.271-1.362c0-1.61-1.1-3.139-3.1-4.3a17.169,17.169,0,0,0-15.553,0C1101.757,1487,1100.64,1488.538,1100.637,1490.158Z" fill="#dedede"/><path d="M1102.219,1489.894a3.033,3.033,0,0,0,.193,1.07,4.178,4.178,0,0,0,1,1.515,7.111,7.111,0,0,0,1.454,1.095,14.7,14.7,0,0,0,13.294,0,6.874,6.874,0,0,0,1.611-1.244l0,0a4.132,4.132,0,0,0,.847-1.294,3.062,3.062,0,0,0,.232-1.164c0-1.377-.938-2.684-2.649-3.677a14.678,14.678,0,0,0-13.3,0C1103.176,1487.193,1102.222,1488.509,1102.219,1489.894Z" fill="#492f23"/><path d="M1113.864,1483.772c-.387-8.21-3.653-15.985-7.088-23.453-.8,8.165-1.6,16.446-.224,24.535a15.447,15.447,0,0,0,1.451,4.78,7.272,7.272,0,0,0,2.321,2.633c.468.311.934.669,1.424.4.39-.209.758-1.14.946-1.524A15.163,15.163,0,0,0,1113.864,1483.772Z" fill="#597c12"/><path d="M1106.943,1462.566c1.779,10.217,3.579,20.6,3.932,30.988.013.38-.541.363-.579,0-.554-5.2-.9-10.409-1.526-15.6-.61-5.092-1.754-10.24-2.014-15.359C1106.751,1462.486,1106.924,1462.46,1106.943,1462.566Z" fill="#47650c"/><path d="M1111.706,1493.909a15.034,15.034,0,0,0,5.082-7.3,35.147,35.147,0,0,0,1.584-8.865c.506-6.558.338-13.464-2.77-19.261-1.123,4.422-3.169,8.559-4.411,12.949a37.273,37.273,0,0,0,.184,20.788Z" fill="#73a118"/><path d="M1113.631,1486.6c-.051,1.994.284,4.2.091,6.259h-.626c.147-2.343-.085-4.726.026-7.068a60.277,60.277,0,0,1,.939-8.1c.567-3.068,1.491-5.984,1.532-9.13.041-3.063-.111-6.125-.038-9.188a.08.08,0,0,1,.16,0c.192,3.176.3,6.393.276,9.575-.022,2.786-.8,5.356-1.323,8.073A58.757,58.757,0,0,0,1113.631,1486.6Z" fill="#648e0e"/><path d="M1112.528,1493.438a43.292,43.292,0,0,0-5.379-14.427c-2.768-4.355-6.867-8.019-11.816-9.482,2.09,5.029,1.393,10.975,3.951,15.783a16.067,16.067,0,0,0,5.167,5.566,24.694,24.694,0,0,0,6.062,3.091Z" fill="#7aa327"/><path d="M1096.069,1470.184c3.22,2.5,4.777,6.218,6.155,9.943a47.581,47.581,0,0,0,2.887,6.846c1.306,2.331,3.223,4.034,4.872,6.087.08.1-.027.287-.152.2-7.8-5.664-7.057-16.6-13.833-23C1095.95,1470.209,1096.019,1470.146,1096.069,1470.184Z" fill="#648e0e"/><path d="M1124.1,1475.595c2.594-1.621,5.69-2.831,8.675-2.164a114.7,114.7,0,0,1-7.1,10.6,34.753,34.753,0,0,1-5.754,6.292,14.271,14.271,0,0,1-6.082,3.109c-2.642.469-1.625-2.168-1.1-3.642a28.15,28.15,0,0,1,6.159-9.948A27.158,27.158,0,0,1,1124.1,1475.595Z" fill="#88b22c"/><path d="M1112.58,1492.032a15.206,15.206,0,0,1,4.082-4.032,35.175,35.175,0,0,0,5.828-5.46c2.4-2.838,5.024-8.593,9.267-8.881.035,0,.04.049.008.059-4.526,1.39-6.786,6.529-9.674,9.964a28.106,28.106,0,0,1-4.1,4.021c-1.8,1.414-3.665,2.653-4.9,4.627C1112.889,1492.651,1112.379,1492.356,1112.58,1492.032Z" fill="#648e0e"/><path d="M1112.279,1492.269a27.329,27.329,0,0,0-5.666-20.6c.551,4.09-1.322,8.161-1.131,12.284a12.529,12.529,0,0,0,5.248,9.534Z" fill="#88b22c"/><path d="M1107.149,1472.61c0-.055.089-.07.1-.014.566,3.591,1.916,6.717,1.819,10.4a18.212,18.212,0,0,0,.294,5.765,20.652,20.652,0,0,0,2.634,4.952h-.808c-1.682-2.795-2.961-5.36-2.668-8.864a19.646,19.646,0,0,0-.151-6.642A25.98,25.98,0,0,1,1107.149,1472.61Z" fill="#648e0e"/><path d="M1115.826,1492.259a1.187,1.187,0,0,0-2.045-.316,1.914,1.914,0,0,1-.33.4.849.849,0,0,1-.915-.073,5.4,5.4,0,0,0-.815-.529.77.77,0,0,0-.664.038c-.118.074-.143.152-.286.091a.517.517,0,0,0-.429-.051.808.808,0,0,1-.294.049,1.738,1.738,0,0,1-.44-.192,1.231,1.231,0,0,0-.6-.024,4.591,4.591,0,0,1-1.417.1,1.287,1.287,0,0,0-.8-.041.654.654,0,0,0-.311.658,1.929,1.929,0,0,0,.278.718c1.325-.284,2.426,1.324,3.778,1.245a10.975,10.975,0,0,1,1.483-.257c.7.056,1.285.695,1.982.625.586-.058.916-.55,1.359-.866s.965-.307,1.381-.58c.346-.227.537-.527.242-.933C1116.818,1492.093,1115.714,1491.961,1115.826,1492.259Z" fill="#492f23"/><path d="M1050.653,1578.03l-2.488,1.436c-6.7,3.867-17.657,3.867-24.354,0l-2.487-1.436c-6.7-3.867-6.7-10.194,0-14.061l2.487-1.436c6.7-3.867,17.657-3.867,24.354,0l2.488,1.436C1057.35,1567.836,1057.35,1574.163,1050.653,1578.03Z" fill="#1d1d1b" opacity="0.09"/><path d="M1005.928,1478.3c.348-.157-.848-.2,2.165,1.041,5.719,2.351,14.091,6.925,11.921,9.95a3.179,3.179,0,0,1-2.6,1.256c-.873-.116-9.217-6.873-11.254-8.35C1005.686,1481.852,1005.149,1478.651,1005.928,1478.3Z" fill="#ffbfa2"/><path d="M1008.316,1479.626c-.729-.634-1.5-1.239-2.259-1.846a12.605,12.605,0,0,0-3.692-2.275c-.316-.108-.641-.236-.956-.333a1.606,1.606,0,0,0-.979.1q-.579.194-1.14.437a3.757,3.757,0,0,0-.793.431,2.788,2.788,0,0,0-.882,1.232,6.062,6.062,0,0,0-.327,1.5.79.79,0,0,0,.085.574.7.7,0,0,0,.822.09c.445-.182.822-.5,1.261-.7a3.538,3.538,0,0,1,2.415-.05c.209.06.62.3.641.544a.232.232,0,0,1-.014.1,2.836,2.836,0,0,1,.8,2.005q.449.114.9.216c.394.088,1.678.488,1.958.545a2.187,2.187,0,0,0,1.63-.212,1.975,1.975,0,0,0,.352-.286C1008.623,1481.213,1008.906,1480.137,1008.316,1479.626Z" fill="#ffbfa2"/><path d="M1030.086,1482.319c4.138-2.694,5.74-7.039,4.233-8.476-2.581-2.459-4.826-.815-10.706,4.321-.129.113-.26.225-.39.337-1.442,1.237-2.88,2.48-4.208,3.841a22.319,22.319,0,0,0-2.09,2.425c-.145.2-.287.4-.418.609a2.888,2.888,0,0,0-.246.711,6.852,6.852,0,0,0-.374,1.9,2.77,2.77,0,0,0,.847,2.176,2.736,2.736,0,0,0,2.614.363,20.262,20.262,0,0,0,5.837-4.3C1026.879,1484.578,1024.744,1485.8,1030.086,1482.319Z" fill="#ffbfa2"/><path d="M1033.2,1473.292c-1.158-1.358-3.37-.561-4.688.062a20.582,20.582,0,0,0-3.654,2.308c-.6.459-1.113,1.017-1.7,1.506-.677.564-1.348,1.136-2,1.728a2.954,2.954,0,0,0-1.245,1.9,3.7,3.7,0,0,0,.606,2.065,10.045,10.045,0,0,0,1.692,1.919c.482.458.967.913,1.481,1.335a3.434,3.434,0,0,0,.672.458,2.5,2.5,0,0,0,1.84.052,5.759,5.759,0,0,0,1.632-.931,10.576,10.576,0,0,0,1.883-1.767c.517-.638,1.045-1.252,1.517-1.929a16.859,16.859,0,0,0,2.189-4.128C1033.914,1476.455,1034.271,1474.541,1033.2,1473.292Z" fill="#f5ebe4"/><path d="M1039.848,1565.426a3.5,3.5,0,0,1-.532,1c-.274.5-.611,1.006-.854,1.518a16.9,16.9,0,0,0-.683,2.176l-1.347,4.3a9.066,9.066,0,0,0-.422,1.745,3.049,3.049,0,0,0,.282,1.75,4.137,4.137,0,0,0,2.616,1.68,2.625,2.625,0,0,0,1.811.1,2.594,2.594,0,0,0,1.033-1.041,25.556,25.556,0,0,0,2.59-6.178,10.2,10.2,0,0,0,.645-3.531,4.8,4.8,0,0,0-.48-1.936,3.606,3.606,0,0,0-.587-.851c-.233-.246-.465-.359-.612-.676a6.765,6.765,0,0,0-.92-1.814,1.5,1.5,0,0,0-1.632-.2,2.414,2.414,0,0,0-1.181,1.332c0,.188.261.372.273.56A.393.393,0,0,1,1039.848,1565.426Z" fill="#0f1317"/><path d="M1032.312,1558.7c-.513.383-.972.836-1.477,1.23s-1.02.7-1.511,1.1q-1.62,1.326-3.357,2.487a29.471,29.471,0,0,0-2.585,1.815,7.569,7.569,0,0,0-1.649,1.853,1.174,1.174,0,0,0-.214,1.077,4.135,4.135,0,0,0,.542,1.13,3.951,3.951,0,0,0,1.609,1.651,2.89,2.89,0,0,0,2.161-.067,7.224,7.224,0,0,0,2.871-2.054,6.643,6.643,0,0,1,2.767-2.13,11.471,11.471,0,0,0,2.669-1.043,3.207,3.207,0,0,0,1.263-2.183c.132-1.008-.251-2.026-.177-3.047a6.852,6.852,0,0,0,.075-2.026,1.537,1.537,0,0,0-1.3-1,2.267,2.267,0,0,0-1.645.536Z" fill="#0f1317"/><path d="M1025.428,1519.866a65.019,65.019,0,0,0,1.987,11.244c.545,2.023.658,4.077,1.234,6.07.44,1.521,1.311,2.9,3.042,2.437,1.595-.426,4.382-3.311,4.659-6.907.15-1.937.072-4.7.189-6.639.241-4.013,4.107-16.9-3.76-19.447-1.409-.456-2.763-2.733-4.2-2.66-.859.044-1.47.874-1.859,1.67a19.86,19.86,0,0,0-1.533,8.826Q1025.193,1517.168,1025.428,1519.866Z" fill="#32272d"/><path d="M1027.456,1528.893c.314,4.388,1.127,8.724,1.837,13.056a64.317,64.317,0,0,1,.8,13.586c-.05,1.054-.109,2.108-.161,3.162-.063,1.26-.035,2.718.908,3.515a2.586,2.586,0,0,0,1.771.534,3.978,3.978,0,0,0,2.557-1.112c.873-.819.673-1.76.639-2.905-.1-3.452,1.451-6.714,1.938-10.13a33.149,33.149,0,0,0,.191-5.2,24.154,24.154,0,0,0-2.142-9.516c-.324-.751-.8-1.565-1.576-1.712Z" fill="#32272d"/><path d="M1048.116,1514.439c-.032-.176-.066-.351-.1-.526a16.83,16.83,0,0,0-2.221-6.112c-.293-.44-1.467-2.3-1.839-1.188a7.494,7.494,0,0,0,.021,2.347,18.029,18.029,0,0,0-.526-1.773,2.51,2.51,0,0,0-.3-.621c-.427-.6-.95-.248-1.9-.024-1.142.27-2.332.2-3.487.37-3.666.545-3.943,1.355-6.376-.658a28.741,28.741,0,0,0,.165,6.818c-.083,3.614,2.61,3.909,2.73,5.815.279,4.415.8,13.135,1.368,17.511a15.958,15.958,0,0,0,1.844,4.872c.865,1.7,1.734,2.651,3.332,2.467a4.346,4.346,0,0,0,2.374-1.574,8.263,8.263,0,0,0,.46-1.7q.486-1.588.857-3.212c.2-.872.183-1.741.376-2.592.5-2.208,1.091-4.4,1.635-6.595.351-1.415.7-2.83,1.039-4.249a24.9,24.9,0,0,0,.906-6.3A19.227,19.227,0,0,0,1048.116,1514.439Z" fill="#4c4147"/><path d="M1050.619,1463.183c.144,1.027.281,2.087.5,3.193a15.931,15.931,0,0,1-1.9,11.69,6,6,0,0,1-1.812,2.316c-2.427,1.581-2.971-.674-2.891-2.363.113-2.373-.443-4.734-.313-7.137a22.222,22.222,0,0,0-.1-6.4,6.215,6.215,0,0,0-2.714-3.9,3.8,3.8,0,0,1-.621-5.541,4.891,4.891,0,0,1,3.261-1.211,4.473,4.473,0,0,1,2.33.491,5.221,5.221,0,0,1,1.363,1.21C1049.817,1457.988,1050.239,1460.467,1050.619,1463.183Z" fill="#b56a3e"/><path d="M1043.429,1473.814a17.14,17.14,0,0,0-4.066-1.585c-.287-.064-1.251.3-1.539.238a10.607,10.607,0,0,0-6.434.524c-.023.01-.044.022-.067.032v13.2h12.651Z" fill="#f3a984"/><path d="M1049.6,1480.043c.031-.249,1.306,1.421,1.212,1.111-.826-2.7-5.16-6-7.382-7.34-.363,2.49-1.451,4.782-3.987,5.628a3.277,3.277,0,0,1-3.831-1.15l-.03-.04a7.023,7.023,0,0,1-1.051-4.609c.09-1.814.323-1.662-.511-1.639a9.623,9.623,0,0,0-2.668.558c-1.948.627-2.725,2.8-3.731,4.428-1.515,2.453-3.073,5.033-3.269,7.91-.268,3.925,1.948,7.461,2.227,11.318a21.086,21.086,0,0,1,.129,4.257,24.425,24.425,0,0,1-.718,3.684c-.319,1.1-.78,2.16-1.017,3.295a4.327,4.327,0,0,0,.2,2.774,3.9,3.9,0,0,0,1.822,1.706,26.254,26.254,0,0,0,3.647,1.327c2.872.914,5.683,1.724,8.606,2.4a9.9,9.9,0,0,0,5.8-.024,7.629,7.629,0,0,0,2.252-.823,3.45,3.45,0,0,0,1.21-2.116,7.531,7.531,0,0,0-.8-4.062c-2.1-4.941-5.191-9.708-3.71-15.33C1044.733,1490.5,1049.479,1481.031,1049.6,1480.043Z" fill="#eadcd3"/><path d="M1042.761,1474.383c.138,4.665-8,4.743-7.884.357.163-6.113.509-6.815,3.188-7.763a7.335,7.335,0,0,1,2.277-.475c2.829-.056,1.733,1.488,1.627,2.565C1041.654,1472.262,1042.712,1472.7,1042.761,1474.383Z" fill="#f3a984"/><path d="M1041.973,1471.156c.188,1.438.752,2.01.788,3.227.128,4.326-6.858,4.7-7.781,1.239A11.834,11.834,0,0,0,1041.973,1471.156Z" fill="#f3a984"/><path d="M1038.065,1466.977a7.335,7.335,0,0,1,2.277-.475c2.829-.056,1.733,1.488,1.627,2.565a9.009,9.009,0,0,0,0,2.089,11.834,11.834,0,0,1-6.993,4.466,3.071,3.071,0,0,1-.1-.882C1035.04,1468.627,1035.386,1467.925,1038.065,1466.977Z" fill="#ee9c76"/><path d="M1039.363,1471.325q.354-.3.69-.609a12.078,12.078,0,0,0,2.2-2.483c1.735-2.943,1.818-6.888-.652-9.451a7.166,7.166,0,0,0-6.965-1.879,10.337,10.337,0,0,0-1.893.782,5.028,5.028,0,0,0-1.447,1.006,4.7,4.7,0,0,0-.65.962,5.16,5.16,0,0,0-.5,1.2c-.474,1.906.795,3.853.07,5.732-.159.411-.4.79-.541,1.2a1.5,1.5,0,0,0,.042,1.268c.217.353.5.531.631.923.173.531.292,1.095.442,1.635a7.7,7.7,0,0,0,.63,1.718c.729,1.306,1.784,1.388,3.089.875A17.573,17.573,0,0,0,1039.363,1471.325Z" fill="#ffbfa2"/><path d="M1045.218,1462.38c-.131-3.709-1.223-4.338-2.632-5.52a7.445,7.445,0,0,0-4.979-1.608,10.374,10.374,0,0,0-5.118,1.633l-.183.116a5.06,5.06,0,0,0-1.917,1.97,5.329,5.329,0,0,0-.477,1.453c-.157.947.664,1.344,1.493,1.6,1.114.348,2.692-.128,3.831-.251a4.427,4.427,0,0,1,1.6.021,1.509,1.509,0,0,1,1.131,1.031,3.811,3.811,0,0,1-.293,1.631,2.81,2.81,0,0,0,1.213,2.857,1.321,1.321,0,0,0,1.492.121c.518-.236,1.049-.639,1.62-.285.527.326.329,1.014.2,1.51-.026.093-.227.8.061.8S1045.375,1466.838,1045.218,1462.38Z" fill="#d08a62"/><path d="M1035.7,1534.951c.314,4.388,2.029,7.567,2.739,11.9a64.252,64.252,0,0,1,.8,13.586c-.045.964-.068,1.935-.147,2.9a6.613,6.613,0,0,0,.035,2.552,2.589,2.589,0,0,0,1.776,1.412,4.265,4.265,0,0,0,1.688.224,2.079,2.079,0,0,0,2.073-2.091c.211-1.069.123-2.124.252-3.188a25.636,25.636,0,0,1,.542-2.714c.473-2.011,1.141-3.975,1.434-6.028a33.126,33.126,0,0,0,.191-5.2,33.554,33.554,0,0,0-2.52-11.226c-.325-.751-.418.144-1.2,0Z" fill="#4c4147"/><path d="M1041.685,1465.762c1.266-.085,1.587,1.485.718,2.7a6.224,6.224,0,0,1-1.033.95c-2.267,1.93-2.836-.159-2.116-.816C1040.927,1467.068,1040.094,1465.869,1041.685,1465.762Z" fill="#ffbfa2"/><path d="M1040.877,1468.639c.145-.133,1.587-.984.605-1.564a.435.435,0,0,0-.617.366c-.022.149.025.3,0,.452a.66.66,0,0,1-.1.247c-.128.209-.565.409-.479.714C1040.367,1469.124,1040.793,1468.716,1040.877,1468.639Z" fill="#f3a984"/><path d="M995.526,1499.817c-2.049.974-3.425-3.3-4.034-4.915-.287-.762-.747-1.139.226-2.647C993.563,1489.4,998.2,1498.55,995.526,1499.817Z" fill="#db6b6b"/><path d="M996.229,1492.235c-2.033-3.15,1.29-5.551,2.334-6.792,1.682-2,2.685-1.671,3.16-1.64,1.846.118,3.685-1.107,5.106,1.422,2.042,3.632.773,8.726-.971,10.03C1003.815,1496.782,998.69,1496.049,996.229,1492.235Z" fill="#db6b6b"/><path d="M1008.192,1489.531l-16.627,9.6c-1.117.645-2.05.344-2.323-.75a4.691,4.691,0,0,1,1.19-3.8l8.313-9.955a3.1,3.1,0,0,1,2.267-1.309l8.314.356c.983.042,1.462,1.017,1.189,2.425A5.286,5.286,0,0,1,1008.192,1489.531Zm-8.313-4.986a2.912,2.912,0,0,0-.764.663l-8.314,9.955a3.074,3.074,0,0,0-.8,2.56c.141.568.636,1.042,1.565.505l16.627-9.6a3.54,3.54,0,0,0,1.566-2.313c.141-.732.016-1.6-.8-1.634l-8.314-.356A1.428,1.428,0,0,0,999.879,1484.545Z" fill="#291321"/><path d="M999.772,1484.514c-.216.125-.391.024-.391-.225a9.667,9.667,0,0,1,.829-3.187c.531-1.387.834-2.26.4-2.718-.34-.361-.864-.282-1.4.21a2.734,2.734,0,0,0-.894,1.731,1.1,1.1,0,0,0,.213.736.636.636,0,0,1-.123.693c-.182.238-.423.314-.538.169a1.769,1.769,0,0,1-.332-1.186,4.475,4.475,0,0,1,1.454-2.882c.859-.787,1.725-.925,2.259-.359.739.784.155,2.311-.361,3.659a8.448,8.448,0,0,0-.728,2.683A.86.86,0,0,1,999.772,1484.514Z" fill="#291321"/><path d="M1010.981,1513.351c1.3,8.148,3.588,16.819,4.307,25.181.2,2.293.213,4.806-1.783,6.342a9.994,9.994,0,0,1-4.483,1.969c-2,.253-4.036-.241-6.046-.083a15.457,15.457,0,0,0-6.656,2.107c-.93.553-1.941,1.234-3,1.008a3.276,3.276,0,0,1-2.106-2.52c-.755-2.623-.559-5.783-.744-8.519a54.006,54.006,0,0,1,.138-9.063,37.169,37.169,0,0,1,5.4-16.658,1.754,1.754,0,0,0,.457.725,9.412,9.412,0,0,0,3.563,1.653,15.643,15.643,0,0,0,7.809-.411A6.222,6.222,0,0,0,1010.981,1513.351Z" fill="#db6b6b"/><path d="M995.526,1499.817c2.66-1.263-1.934-10.362-3.79-7.587a14.425,14.425,0,0,1,1.128-1.592,12,12,0,0,1,1.906-2.085c.01-.009,1.725-1.424,1.739-1.426.33-.047.536.715.577.925.45,2.287,4.644,5.2,6.377,2.867,1.661-2.261-1.1-7.028.293-7.483a10.606,10.606,0,0,1,2.222-.044c2.362.058,2.332.495,3.133,2.458,5.591,13.705.264,15.816,1.87,27.5.05.365.1.48-.174.684a6.9,6.9,0,0,1-1.934.72c-.458.148-.917.3-1.382.423a18.113,18.113,0,0,1-3.89.77c-2.045.085-6.92-.477-7.75-2.857a11.557,11.557,0,0,1-.091-2.632,37.173,37.173,0,0,0-.671-5.051,36.618,36.618,0,0,0-1.384-4.913c-.225-.631-.433-1.454-.683-2.076C993.022,1498.419,994.265,1500.416,995.526,1499.817Z" fill="#ff9696"/><path d="M1002.5,1479.43a.33.33,0,0,1-.208.188.712.712,0,0,1-.385-.016c-.456-.116-.871-.351-1.314-.508a2.034,2.034,0,0,0-1.063-.123c-.211.042-.555.178-.569.433a.566.566,0,0,0,.278.442,2.192,2.192,0,0,0,.266.169,16.018,16.018,0,0,0,3.8,1.42A2.836,2.836,0,0,0,1002.5,1479.43Z" fill="#ffbfa2"/><path d="M1050.487,1501.04c.353-.615,1-8.954,1.092-15.076.078-5.282-2.681-8.979-4.831-8.807-2.032.163-3.49,3.805-2.479,12.089a52.923,52.923,0,0,1,.609,10.561c-.444,4.995-1.523,12.344-2.372,13.658a4.744,4.744,0,0,0-1.055,1.059,9.367,9.367,0,0,0-2,5.409c-.03.228-.165.592.016.778s.9.215,1.138-.764c.665-2.735,1.352-2.084.693-.163-.759,2.216-3.18,5.213.371,3.9.962-.354,1.271-.107,2.27-1.811a21.3,21.3,0,0,0,2.153-6.126A130.364,130.364,0,0,1,1050.487,1501.04Z" fill="#ffbfa2"/><path d="M1051.965,1486.283c.076-5.549-2.748-9.563-5.359-9.263-2.237.258-3.849,3.99-2.713,12.695.064.49.183,1.288.31,2.275a6.846,6.846,0,0,0,7.583-.325C1051.877,1489.837,1051.943,1487.979,1051.965,1486.283Z" fill="#f5ebe4"/><path d="M1088.487,1322.184" fill="#ff9696"/></g></svg>