<svg xmlns="http://www.w3.org/2000/svg" width="57.343" height="57.922" viewBox="0 0 57.343 57.922"><g transform="translate(-1263.657 -17186.078)"><g transform="translate(1263.657 17186.078)"><path d="M490.235,1191.743v14.422a.907.907,0,0,0,.908.908H497.5v19.979a.907.907,0,0,0,.908.908h36.323a.907.907,0,0,0,.908-.908v-19.979H542a.907.907,0,0,0,.908-.908v-14.422a8.185,8.185,0,0,0-3.422-6.651l-16.028-11.449a.907.907,0,0,0-.528-.169H510.213a.907.907,0,0,0-.528.169l-16.028,11.449A8.186,8.186,0,0,0,490.235,1191.743Zm9.612,14.841a1.831,1.831,0,0,1,.433-.32,3.629,3.629,0,0,0,.846.1l.067,0a2.708,2.708,0,0,0,1.753,1.553,1.817,1.817,0,1,1-3.1-1.332Zm4.5-.642a.908.908,0,1,1,0-1.284h0A.909.909,0,0,1,504.342,1205.942Zm.42,1.865a2.71,2.71,0,0,0,1.554-1.752,1.815,1.815,0,1,1-1.655,2.66A3.611,3.611,0,0,0,504.763,1207.807Zm2.79-3.791a1.824,1.824,0,0,1-.438.321,3.629,3.629,0,0,0-.846-.1l-.061,0a2.707,2.707,0,0,0-1.753-1.554,1.816,1.816,0,1,1,3.1,1.332Zm-4.917-1.221a2.707,2.707,0,0,0-1.553,1.753,1.815,1.815,0,1,1,1.655-2.665A3.637,3.637,0,0,0,502.637,1202.794Zm6.668-17.515h-3.632v-6.539l3.632-2.594v6.408a.907.907,0,0,0,.192.558l6.165,7.927v1.682l-5.449-3.405v-3.129A.907.907,0,0,0,509.3,1185.28Zm1.816-4.541h10.9v1.5l-5.449,7-5.449-7Zm6.357,10.3,6.165-7.927a.907.907,0,0,0,.192-.558v-6.408l3.632,2.595v6.538h-3.632a.907.907,0,0,0-.908.908v3.129l-5.449,3.405Zm4.541-12.117h-10.9v-3.633h10.9Zm11.273,36.1a1.823,1.823,0,0,1-.438.321,3.682,3.682,0,0,0-.846-.1l-.062,0a2.7,2.7,0,0,0-1.753-1.555,1.816,1.816,0,1,1,3.1,1.332Zm-4.5.642a.908.908,0,1,1,0,1.285.907.907,0,0,1,0-1.285l0,0Zm-.421-1.863a2.707,2.707,0,0,0-1.553,1.753,1.815,1.815,0,1,1,1.655-2.666A3.65,3.65,0,0,0,528.375,1213.805Zm-2.789,3.79a1.792,1.792,0,0,1,.433-.321,3.629,3.629,0,0,0,.846.1l.067,0a2.706,2.706,0,0,0,1.752,1.553,1.816,1.816,0,1,1-3.1-1.331Zm4.916,1.222a2.708,2.708,0,0,0,1.553-1.752,1.815,1.815,0,1,1-1.654,2.661A3.668,3.668,0,0,0,530.5,1218.818Zm10.587-27.075v13.515h-5.449v-9.989a.908.908,0,0,0-1.816,0V1210.6a36.558,36.558,0,0,1-9.521.577,3.631,3.631,0,0,0,0,5.137,3.632,3.632,0,0,0,5.137,5.137h0l0,0a3.622,3.622,0,0,0,4.383.578v4.121H517.477v-31.281l6.838-4.273a.909.909,0,0,0,.427-.77V1187.1h3.633a.909.909,0,0,0,.908-.908v-6.149l9.143,6.531a6.37,6.37,0,0,1,2.661,5.174Zm-46.375-5.173,9.143-6.531v6.149a.909.909,0,0,0,.909.908H508.4v2.724a.909.909,0,0,0,.427.77l6.838,4.273v31.281H499.316v-15.13a3.638,3.638,0,0,0,4.384-.577l0,0a3.63,3.63,0,1,0,5.155-5.113l-.021-.021h0a3.633,3.633,0,0,0-5.138-5.138,3.638,3.638,0,0,0-4.384-.577v-4.317a.908.908,0,0,0-1.816,0v9.989h-5.449v-13.515a6.371,6.371,0,0,1,2.662-5.174Zm-7.2-14.911" transform="translate(-487.51 -1171.658)" fill="#ff9696"/></g><rect width="57" height="57" transform="translate(1264 17187)" fill="none"/></g></svg>