<svg xmlns="http://www.w3.org/2000/svg" width="94" height="94" viewBox="0 0 94 94">
  <g id="Grupo_1069600" data-name="Grupo 1069600" transform="translate(-751.5 -1581.5)">
    <path id="Trazado_773584" data-name="Trazado 773584" d="M47,0A47,47,0,1,1,0,47,47,47,0,0,1,47,0Z" transform="translate(751.5 1581.5)" fill="#025157"/>
    <path id="Trazado_773585" data-name="Trazado 773585" d="M1.846,45V42.642a13.782,13.782,0,0,1,.615-4.348A10.922,10.922,0,0,1,4.4,34.828,29.854,29.854,0,0,1,9,30.665a34.141,34.141,0,0,0,3.107-2.656,6.656,6.656,0,0,0,1.148-1.569,3.617,3.617,0,0,0,.379-1.641q0-2.933-3.527-2.933a10.586,10.586,0,0,0-6.788,2.6V17.314a20.568,20.568,0,0,1,4.563-1.723,19.229,19.229,0,0,1,4.358-.492q4.8,0,7.424,2.3a8.1,8.1,0,0,1,2.625,6.439,10.038,10.038,0,0,1-1.374,5.394,16.282,16.282,0,0,1-5.106,4.614,33.785,33.785,0,0,0-3.784,2.7,2.4,2.4,0,0,0-.954,1.446H22.559V45Z" transform="translate(784.5 1604.5)" fill="#fff"/>
  </g>
</svg>
