<svg xmlns="http://www.w3.org/2000/svg" width="117.168" height="166.836" viewBox="0 0 117.168 166.836"><path d="M2277.188,1533.044c-5.007-.145-9.837-1.042-14.179-3.7a26.975,26.975,0,0,1-10.726-12.562,32.5,32.5,0,0,1-2.5-9.109,41.176,41.176,0,0,1-.134-8.737,45.1,45.1,0,0,1,1.806-9.788,28.515,28.515,0,0,1,9.739-14.306,1.574,1.574,0,0,0,.376-.377,18.812,18.812,0,0,1,6.371-5.756,21.07,21.07,0,0,1,8.252-2.654,20.1,20.1,0,0,1,8.519,1.121,20.712,20.712,0,0,1,10.177,7.161,22.406,22.406,0,0,1,4.318,9.343,27.007,27.007,0,0,1,.717,6.5,27.978,27.978,0,0,1-1.451,7.588c-.734,2.433-1.759,4.758-2.609,7.147a30.01,30.01,0,0,0-1.524,5.523c-.168,1.1-.249,2.216-.315,3.329a29.986,29.986,0,0,1-1.526,8.97,15.668,15.668,0,0,1-7.931,8.9,15.037,15.037,0,0,1-6.036,1.4C2278.083,1533.06,2277.635,1533.044,2277.188,1533.044Z" transform="translate(-2241.186 -1448.444)" fill="#ffad54"/><path d="M2394.065,1523.023a54.177,54.177,0,0,1-1.6,13.291,42.777,42.777,0,0,1-5.252,13.329,28.072,28.072,0,0,1-10.466,10.115,16.971,16.971,0,0,1-9.342,1.95,15.37,15.37,0,0,1-10.026-4.914,23.086,23.086,0,0,1-6.2-12.869,28.375,28.375,0,0,1,.3-9.836c.665-3.547,1.7-7.01,2.375-10.555.445-2.33.772-4.677,1.083-7.027a58.045,58.045,0,0,1,3.507-13.493c1.7-3.615,4.053-6.7,7.7-8.454a14.845,14.845,0,0,1,15.122.679,24.825,24.825,0,0,1,9.837,11.769,33.892,33.892,0,0,1,2.518,9.729A61.1,61.1,0,0,1,2394.065,1523.023Z" transform="translate(-2279.623 -1458.629)" fill="#d7e1e6"/><path d="M2320.986,1680.838a74.342,74.342,0,0,1-16.658-2.333,46.391,46.391,0,0,1-11.895-4.715,28.524,28.524,0,0,1-9.843-8.782,24.161,24.161,0,0,1-3.874-9.741,13.969,13.969,0,0,1,7.849-14.344,21.26,21.26,0,0,1,11.114-1.914,40.634,40.634,0,0,1,10.575,2.666,57.208,57.208,0,0,0,10.606,3.041,75.85,75.85,0,0,0,8.086.958,40.219,40.219,0,0,1,10.988,1.916,14.836,14.836,0,0,1,8.12,6.853,13.79,13.79,0,0,1,1.7,3.675,14.828,14.828,0,0,1-1.538,10.662A19.35,19.35,0,0,1,2340,1675.4a29.918,29.918,0,0,1-13.818,5.087A44.871,44.871,0,0,1,2320.986,1680.838Z" transform="translate(-2252.217 -1514.001)" fill="#f7f1d7"/><path d="M2297.314,1451.611a3.845,3.845,0,0,1-.968,2.723,12.558,12.558,0,0,1-4.75,3.552,4.437,4.437,0,0,1-4.859-.76,3.97,3.97,0,0,1-1.18-4.253,7,7,0,0,1,1.409-3.04,7.836,7.836,0,0,1,4.807-2.515,4.88,4.88,0,0,1,3.906.933A4.116,4.116,0,0,1,2297.314,1451.611Z" transform="translate(-2254.793 -1441.355)" fill="#f7f1d7"/><g transform="translate(0 0)"><path d="M2262.473,1579.142a1.613,1.613,0,0,0,.851-.9,23.643,23.643,0,0,0,1.949-6.855q.226-1.449.445-2.9a1.428,1.428,0,0,1,.455-.891,46.735,46.735,0,0,0,4.111-4.592,63.6,63.6,0,0,1,13.524-11.192c3.525-2.221,7.041-4.458,10.731-6.4a4.252,4.252,0,0,0,1.954-2.321,1.452,1.452,0,0,0-.111-.986,4.984,4.984,0,0,0-.979-1.763,33.359,33.359,0,0,0-5.025-4.886,19.344,19.344,0,0,1-5.207-6.052,13.728,13.728,0,0,1-1.351-7.682c.2-2.05.771-4.025,1.083-6.05a31.14,31.14,0,0,0-1.134-12.507,16.2,16.2,0,0,0-2.46,1.392c-.9.628-1.8,1.24-2.679,1.9a7.388,7.388,0,0,0-2.838,5.092c-.5,3.348.4,6.468,1.536,9.543,1.509,4.063,3.434,7.951,5.107,11.945.793,1.894,1.654,3.759,2.488,5.636a6.472,6.472,0,0,1,.451,1.392c.031.156.042.323-.124.395s-.286-.032-.388-.158a6.475,6.475,0,0,1-.866-1.388q-3.7-8.123-7.222-16.327a25.438,25.438,0,0,1-1.923-6.475c-.448-3.248-.2-6.37,1.95-9.071a8.846,8.846,0,0,1,1.613-1.5,37.219,37.219,0,0,1,10.828-5.766,7.2,7.2,0,0,0,5.089-5.685,9.8,9.8,0,0,0,.048-2.765,40.7,40.7,0,0,0-2.121-10.368c-.167-.48-.554-.908-.408-1.486.017-.067-.113-.185-.195-.258a20.083,20.083,0,0,1-3.336-4.4.575.575,0,0,0-.7-.32,5.214,5.214,0,0,1-3.979-1.272,8.272,8.272,0,0,1-3.1-5.638,5.984,5.984,0,0,1,.593-3.719,2.743,2.743,0,0,1,3.8-1.192,5.465,5.465,0,0,1,2.624,3.4.758.758,0,0,1-.057.631c-.435-.019-.627-.379-.828-.664-.334-.476-.6-1-.9-1.5a2.943,2.943,0,0,0-1.49-1.247,1.823,1.823,0,0,0-2.286.782,4.8,4.8,0,0,0-.531,3.49,7.367,7.367,0,0,0,3.726,5.557,3.053,3.053,0,0,0,2.849.327c.224-.1.362.053.484.263.541.928,1.12,1.829,1.732,2.714a11.79,11.79,0,0,0,6.348,4.732,43.579,43.579,0,0,0,4.753,1.577,10.828,10.828,0,0,0,3.845.437,3.625,3.625,0,0,0,2.927-2.2,63.705,63.705,0,0,0,2.933-9.1c.972-3.773,1.5-7.628,2.251-11.442a.662.662,0,0,0-.188-.662,32.319,32.319,0,0,0-12.911-8.157,9.018,9.018,0,0,0-3.608-.522,2.284,2.284,0,0,1-.283,0c-.167-.006-.3-.072-.326-.247-.027-.217.129-.269.309-.322a7.449,7.449,0,0,1,3.9.168,27.683,27.683,0,0,1,9.08,4.57,22.979,22.979,0,0,1,7.828,8.62,10.8,10.8,0,0,1,1.392,5.8,13.338,13.338,0,0,1-2.479,6.4,15.654,15.654,0,0,1-4.54,3.934,1.02,1.02,0,0,1-.26.1.952.952,0,0,1-.146.023c-.1-.267.1-.348.237-.465.945-.811,1.954-1.558,2.822-2.443a11.094,11.094,0,0,0,3.458-9.131,12.5,12.5,0,0,0-2.314-5.58,13.314,13.314,0,0,0-1.236-1.665c-.115.861-.2,1.649-.328,2.432-.5,3.195-1.2,6.348-1.988,9.484a65.612,65.612,0,0,1-2.82,8.316,4.971,4.971,0,0,1-3.058,2.816,45.682,45.682,0,0,0,3.7,7.309,6.153,6.153,0,0,0,5.186,2.887c2.332.06,4.63-.224,6.943-.346,1.07-.057,2.14-.122,3.354-.193l-.748-.7a12.966,12.966,0,0,1-4.2-7.557,9.349,9.349,0,0,1,.443-4.567,2.6,2.6,0,0,1,.535-.925c.129-.138.288-.269.493-.152.232.134.127.321.049.493a8.728,8.728,0,0,0-.58,3.143,11.213,11.213,0,0,0,2,6.48,12.141,12.141,0,0,0,2.823,3.29,2.419,2.419,0,0,0,1.491.546,12.976,12.976,0,0,1,9.7,4.738,24.163,24.163,0,0,1,3.626,6.411,94.16,94.16,0,0,1,3.357,10.818c1.387,4.917,2.733,9.846,4.084,14.774a24.075,24.075,0,0,0,4.678,9.247,23.887,23.887,0,0,1,4.69,9.371,107.66,107.66,0,0,0,3.363,10.393c.224.593.306,1.237.474,1.852.056.206.084.4-.133.482-.236.094-.319-.124-.417-.282a17.172,17.172,0,0,1-1.184-2.371,63.666,63.666,0,0,1-3-9.094,24.465,24.465,0,0,0-4.935-10.047,23.941,23.941,0,0,1-4.718-9.723c-1.613-6.12-3.451-12.177-5.076-18.292a51.991,51.991,0,0,0-3.282-9.228,13.8,13.8,0,0,0-5.481-6.378,13.482,13.482,0,0,0-5.905-1.685c-1.575-.1-3.126.108-4.689.148a.62.62,0,0,0-.461.17c.548,1.109,1.1,2.233,1.659,3.353a92.618,92.618,0,0,1,7.071,20.521,6.759,6.759,0,0,0,.7,1.311c1.539,3.358,3.393,6.555,5.062,9.846.86,1.7,1.757,3.376,2.621,5.073a24.988,24.988,0,0,1,2.375,8.489,25.5,25.5,0,0,0,2,6.849,132.478,132.478,0,0,0,6.039,11.878,10.228,10.228,0,0,1,.78,1.813c.074.234.186.571-.138.7-.3.117-.4-.188-.531-.392a95.026,95.026,0,0,1-7.464-14.182,25.6,25.6,0,0,1-1.914-7.755,19.912,19.912,0,0,0-2.27-7.347c-2.261-4.321-4.628-8.588-6.761-13,.336,4.917.371,9.843.538,14.765.168,4.969.068,9.928-.19,14.9-.256,4.927-.828,9.829-.959,14.853a7.943,7.943,0,0,1,2.918,2.089,8.05,8.05,0,0,1,2.05,4.443c.039.32.181.719-.277,1a7.5,7.5,0,0,1-.836-1.777,7.7,7.7,0,0,0-9.444-5.054c-.181.034-.245.148-.318.282-1.57,2.909-3.875,5.238-6.06,7.659-1.454,1.611-2.946,3.189-4.429,4.774-.135.145-.253.4-.6.239a31.776,31.776,0,0,1,1.936-2.578c2.135-2.739,4.524-5.274,6.578-8.075a17.446,17.446,0,0,0,3.464-8.119,6.762,6.762,0,0,0-1.8-6.041,3.7,3.7,0,0,0-.925-.631,17.41,17.41,0,0,0-9.822-1.7,50.906,50.906,0,0,0-14.742,3.542,98.944,98.944,0,0,0-23.819,13.847,36.069,36.069,0,0,0-10.687,13.138,5.442,5.442,0,0,0-.74,2.746.476.476,0,0,1-.285.506c-.222.1-.4-.021-.548-.181-.013-.014-.031-.024-.04-.04-.615-1.134-1.729-1.843-2.452-2.893a19.745,19.745,0,0,1-1.859-3.29,6.861,6.861,0,0,1,.175-5.7,25.02,25.02,0,0,1,4.236-6.382c.852-.963,1.5-2.078,2.371-3.02,3.113-3.366,5.314-7.409,8.156-10.976a109.637,109.637,0,0,1,10.038-11.588,7.522,7.522,0,0,1,4.016-2.175,7.445,7.445,0,0,1,5.934,1.581.964.964,0,0,1,.121.119c.184.21.469.443.22.722s-.522.021-.748-.134a6.459,6.459,0,0,0-8.7.611,87.862,87.862,0,0,0-7.329,7.949,141.107,141.107,0,0,0-8.646,11.47c-.962,1.4-2.175,2.6-3.218,3.946a8.263,8.263,0,0,0-1.679,4.239c-.229,1.942-.52,3.877-.758,5.818a12.5,12.5,0,0,0-.033,1.528A.781.781,0,0,0,2262.473,1579.142Zm45.191-66.056a.416.416,0,0,1,.072.435,22.639,22.639,0,0,0-.53,10.441,12.18,12.18,0,0,0,4.619,6.8c.056-.2.105-.366.144-.531q1.526-6.445,2.869-12.931c1.372-6.644,3.049-13.227,3.873-19.976a11.558,11.558,0,0,0,.161-2.28c-.327.023-.606.038-.884.062a20.934,20.934,0,0,1-4.8-.089,6.565,6.565,0,0,1-4.317-2.934,32.591,32.591,0,0,1-3.983-7.973,34.44,34.44,0,0,1-11.956-3.663c.02.045.057.127.091.209a29.944,29.944,0,0,1,2.491,12.313,7.8,7.8,0,0,1-4.836,7.307,26.5,26.5,0,0,1-2.872,1.012.575.575,0,0,0-.46.692,12.534,12.534,0,0,0,.672,3.188,79.812,79.812,0,0,0,7.936,16.614c3.969,6.535,8.59,12.621,13.1,18.781.023.032.095.028.143.04.71-2.333,1.258-4.7,1.962-7.012a2.1,2.1,0,0,0-.813-2.668,11.838,11.838,0,0,1-4.518-9.752,21.249,21.249,0,0,1,.954-6.231A4.953,4.953,0,0,1,2307.664,1513.086Zm-45.571,57.1a20.148,20.148,0,0,0-3.45,6.041,5.488,5.488,0,0,0,.092,3.608,17.985,17.985,0,0,0,1.791,3.321c.077.114.113.288.308.282a.421.421,0,0,0,.021-.111,8.822,8.822,0,0,1,.425-4.82c.028-.06-.007-.148-.006-.224a56.949,56.949,0,0,1,.558-5.954Q2261.965,1571.256,2262.094,1570.184Z" transform="translate(-2244.185 -1442.516)" fill="#422221"/><path d="M2247.529,1534.431c-.22.147-.381.043-.556-.01a8.915,8.915,0,0,1-4.047-2.967,36.725,36.725,0,0,1-5.541-8.7,14.374,14.374,0,0,1-.2-11.317,20.255,20.255,0,0,1,9.457-10.983c2.129-1.2,4.3-2.333,6.4-3.593a23,23,0,0,0,7.482-7.821,28.81,28.81,0,0,0,3.839-10.824c.544-3.272.764-6.583,1.239-9.862.772-5.341,2.049-10.523,4.974-15.155a14.292,14.292,0,0,1,6.246-5.724,4.818,4.818,0,0,1,3.571-.292,3.021,3.021,0,0,1,.459.2.3.3,0,0,1,.135.391.289.289,0,0,1-.363.2c-2.933-.624-4.987.951-6.885,2.813a20.1,20.1,0,0,0-4.369,7.129,41.663,41.663,0,0,0-2.533,10.088c-.406,3.1-.76,6.205-1.132,9.309a29.9,29.9,0,0,1-7.742,17.216,24.007,24.007,0,0,1-6.862,4.918,38.537,38.537,0,0,0-7.228,4.4,17.886,17.886,0,0,0-6.514,11.586,12.893,12.893,0,0,0,1.226,7.414,40.52,40.52,0,0,0,5.191,8.517,9.451,9.451,0,0,0,3.281,2.707,3.718,3.718,0,0,1,.387.227C2247.47,1534.318,2247.483,1534.359,2247.529,1534.431Z" transform="translate(-2236.125 -1441.249)" fill="#422221"/><path d="M2338.46,1485.4a.905.905,0,0,1-.746-.429,8.986,8.986,0,0,1-2.266-6.881,5.114,5.114,0,0,1,1.555-3.066c.915-.937,2.026-1.635,3.005-2.49a14.6,14.6,0,0,0,5.076-9.24,12.167,12.167,0,0,0-.024-3.439,5.726,5.726,0,0,0-1.737-3.1c-1.989-2.1-4.073-4.1-6.179-6.073-.143-.134-.341-.24-.321-.532a49.393,49.393,0,0,1,6.883,5.835,5.24,5.24,0,0,0,.529-3.017,9.608,9.608,0,0,0-2.475-4.976,25.067,25.067,0,0,0-13.072-7.934,38.717,38.717,0,0,0-8.915-1.277,17.319,17.319,0,0,0-5.969.6,4.845,4.845,0,0,0-1.343.693c-1.159.868-1.049,2.026-.782,3.229.052.238.125.471.183.707a.287.287,0,0,1-.1.351.331.331,0,0,1-.418-.051.9.9,0,0,1-.235-.315c-.77-2.111-.8-3.5,1.212-4.9a7.358,7.358,0,0,1,3.506-1.151,32.239,32.239,0,0,1,9,.278,38.158,38.158,0,0,1,6.52,1.5,25.457,25.457,0,0,1,11.973,8.642,9,9,0,0,1,1.807,4.505,7.352,7.352,0,0,1-.537,3.372.5.5,0,0,0,.061.607,6.323,6.323,0,0,1,1.536,4.318c.1,5.5-2.249,9.756-6.62,12.983-.561.414-1.094.867-1.626,1.318a4.975,4.975,0,0,0-1.559,5.024,12.671,12.671,0,0,0,1.634,4.052A2.977,2.977,0,0,1,2338.46,1485.4Z" transform="translate(-2264.364 -1437.76)" fill="#422221"/><path d="M2274.272,1601.552a2.61,2.61,0,0,1-1.312,1.156,8.984,8.984,0,0,1-3.038.791,13.4,13.4,0,0,1-9.171-2.073,9.836,9.836,0,0,1-4.506-5.86,11.331,11.331,0,0,1-.123-3.6,7.508,7.508,0,0,0-.072-1.688,2.094,2.094,0,0,0-1.052-1.591c-.176-.1-.441-.187-.313-.437s.384-.134.6-.051a2.57,2.57,0,0,1,1.575,1.8,11.546,11.546,0,0,1,.225,3.317,7.778,7.778,0,0,0,2.247,5.449,12.043,12.043,0,0,0,4.678,2.988,14.968,14.968,0,0,0,8.393.533,4.212,4.212,0,0,0,1.278-.562C2273.843,1601.62,2273.982,1601.419,2274.272,1601.552Z" transform="translate(-2243.148 -1494.744)" fill="#422221"/><path d="M2334.352,1490.336a2.984,2.984,0,0,1-2.17,2.675,1.851,1.851,0,0,1-1.374-.388,4.945,4.945,0,0,1-1.734-2.447.779.779,0,0,1,.281-.946,9.688,9.688,0,0,1,2.478-1.533,1.345,1.345,0,0,1,1.891.539A4.551,4.551,0,0,1,2334.352,1490.336Z" transform="translate(-2271.335 -1456.621)" fill="#422221"/><path d="M2275.6,1612.868a1.948,1.948,0,0,1-1.652.757,16.1,16.1,0,0,1-5.729-.211,5.38,5.38,0,0,1-2.19-1,1.9,1.9,0,0,1-.4-.4c-.139-.206-.4-.458-.138-.693s.438.086.614.223a6.291,6.291,0,0,0,2.876,1.074,25.668,25.668,0,0,0,5.459.369A7.575,7.575,0,0,1,2275.6,1612.868Z" transform="translate(-2247.214 -1503.52)" fill="#422221"/><path d="M2272.942,1616.851a1.227,1.227,0,0,1-1.159.655,6.315,6.315,0,0,1-2.893-.571,1.415,1.415,0,0,1-.325-.22c-.167-.14-.3-.311-.152-.531.138-.2.316-.119.5-.04a12.041,12.041,0,0,0,2.459.76A4.887,4.887,0,0,0,2272.942,1616.851Z" transform="translate(-2248.339 -1505.345)" fill="#422221"/></g></svg>