<svg xmlns="http://www.w3.org/2000/svg" width="122.403" height="164.467" viewBox="0 0 122.403 164.467"><path d="M2192.815,1201.77a74.157,74.157,0,0,1-3.37,23.708c-1.153,3.711-2.2,7.455-3.519,11.113a45.636,45.636,0,0,1-7.189,12.5,49.539,49.539,0,0,1-6.777,7.279,24.757,24.757,0,0,1-12.656,6.074,14.649,14.649,0,0,1-12.867-3.826,13.864,13.864,0,0,1-3.826-7.595,30.567,30.567,0,0,1-.177-9.475c.321-2.944.775-5.872.944-8.834a92.064,92.064,0,0,0-.234-12c-.194-2.627-.414-5.249-.808-7.85-.571-3.76-1.2-7.51-2.026-11.227a107.877,107.877,0,0,1-1.961-11.992,29.929,29.929,0,0,1,0-7.441,22.253,22.253,0,0,1,3.712-9.32,31.783,31.783,0,0,1,9.273-8.823,35.585,35.585,0,0,1,8.274-4.089,39.216,39.216,0,0,1,4.877-1.421,14.653,14.653,0,0,1,7.821.8,20.328,20.328,0,0,1,9.343,7.065,47.561,47.561,0,0,1,5.708,10.849,80.126,80.126,0,0,1,4.376,15.6A58.033,58.033,0,0,1,2192.815,1201.77Z" transform="translate(-2070.42 -1146.865)" fill="#f7f1d7"/><path d="M2082.621,1256.875a23.674,23.674,0,0,1-1.292,8.726,16.717,16.717,0,0,1-8.587,9.336,29.962,29.962,0,0,1-12.518,3.042,23.1,23.1,0,0,1-15.153-5.193c-5.613-4.341-9.138-10.139-11.34-16.805a24.939,24.939,0,0,1-1.567-8.328c.185-8.392,3.774-14.83,11.252-18.915.935-.51,1.7-1.249,2.578-1.834a16.1,16.1,0,0,1,6.59-2.749,20.607,20.607,0,0,1,12.03,1.909,28.359,28.359,0,0,1,12.227,11.675,40.276,40.276,0,0,1,4.669,10.579A33.881,33.881,0,0,1,2082.621,1256.875Z" transform="translate(-2030.257 -1171.737)" fill="#cb8676"/><path d="M2114.859,1379.615a17.28,17.28,0,0,1-11.065-3.548,13.094,13.094,0,0,1-5.14-9.1,20.266,20.266,0,0,1,.326-4.942c.851-7.23,4.927-12.419,10.55-16.592a36.449,36.449,0,0,1,12.6-6.144,20.868,20.868,0,0,1,14.844,1.214,13.292,13.292,0,0,1,7.834,11.3,20.873,20.873,0,0,1-5.629,16.41,34.068,34.068,0,0,1-14.678,9.78A28.437,28.437,0,0,1,2114.859,1379.615Z" transform="translate(-2055.438 -1215.15)" fill="#d7e1e6"/><path d="M2208.09,1171.625a4.914,4.914,0,0,1-.5,2.245,12.992,12.992,0,0,1-4.9,5.364,4.4,4.4,0,0,1-5.068-.291,4.552,4.552,0,0,1-2-4.682,9.312,9.312,0,0,1,3.74-5.849,6.353,6.353,0,0,1,3.738-1.541A4.655,4.655,0,0,1,2208.09,1171.625Z" transform="translate(-2092.191 -1150.104)" fill="#f4bba8"/><g transform="translate(25.047)"><path d="M2077.791,1139.885a4.85,4.85,0,0,1,4.816,5.826,3.385,3.385,0,0,1-1.717,2.357c-1.423.715-2.734,1.644-4.211,2.245a5.121,5.121,0,0,1-5.36-.51,4.828,4.828,0,0,1-.634-7.082,7.292,7.292,0,0,1,4.8-2.428A10,10,0,0,1,2077.791,1139.885Z" transform="translate(-2069.433 -1139.871)" fill="#f4bba8"/><path d="M2084.241,1161.223a2.743,2.743,0,0,1,2.738-2.8,2.663,2.663,0,0,1,2.794,2.722,2.9,2.9,0,0,1-2.954,2.9A2.793,2.793,0,0,1,2084.241,1161.223Z" transform="translate(-2075.046 -1146.901)" fill="#f4bba8"/></g><g transform="translate(0 7.857)"><path d="M2060.916,1186.59c-6.432-.549-12.562-1.689-18.3-4.432a12.52,12.52,0,0,1-4.107-2.847,3.5,3.5,0,0,1-.544-4.19,7.915,7.915,0,0,1,2.869-3.041,16.23,16.23,0,0,1,6.622-2.49,40.969,40.969,0,0,1,12.439.219,73.424,73.424,0,0,1,17.434,4.625,75.127,75.127,0,0,1,13.555,7.62c4.765,3.157,9.373,6.567,14.405,9.3a49.478,49.478,0,0,0,10.959,4.578,75,75,0,0,0,9.739,2.13,30.537,30.537,0,0,0,6.392.237,34.143,34.143,0,0,0,5.663-.685,15.528,15.528,0,0,0,6.617-3.129,4.745,4.745,0,0,0,.514-7.145,7.213,7.213,0,0,0-1.369-1.263,42.679,42.679,0,0,0-8.041-4.152c-3.389-1.439-6.906-2.509-10.407-3.63a32.527,32.527,0,0,1-9.932-4.7,10.7,10.7,0,0,1-3.435-4.257c-.965-2.173-1.9-4.36-2.735-6.585a8.414,8.414,0,0,0-5.918-5.425c-3.558-1.021-7.167-1.8-10.776-2.578a76.078,76.078,0,0,0-7.836-1.218,6.357,6.357,0,0,0-2.163.125,2.494,2.494,0,0,0-1.622,1.152q-1.772,2.885-3.564,5.759c-.217.348-.369.984-.887.738-.606-.288-.123-.829.049-1.18a58.774,58.774,0,0,1,3.68-6.118,3.714,3.714,0,0,1,3.327-1.484,30.872,30.872,0,0,1,5.3.6,133.284,133.284,0,0,1,14.134,3.144,12.73,12.73,0,0,1,4.041,1.687,10.05,10.05,0,0,1,3.364,4.458c.754,1.769,1.563,3.518,2.221,5.323a11.914,11.914,0,0,0,4.859,5.94,32,32,0,0,0,7.7,3.38c3.89,1.323,7.883,2.34,11.665,3.986a41.694,41.694,0,0,1,7.694,4,7.26,7.26,0,0,1,3.225,5.038c.328,2.494-.908,4.373-2.786,5.829a16.412,16.412,0,0,1-7.382,3.067,38.712,38.712,0,0,1-11.214.293,79.983,79.983,0,0,1-9.11-1.805c-2.383-.567-4.62-1.535-6.951-2.278-.13.378.194.718.035,1.114a1.6,1.6,0,0,1,1.136,1.012,33.786,33.786,0,0,1,3.06,10.729,10.777,10.777,0,0,1-.726,4.315,42.387,42.387,0,0,0-1.86,7.254,29.378,29.378,0,0,0-.333,4.15.515.515,0,0,0,.242.452,31.517,31.517,0,0,0,6.416,3.61,63.43,63.43,0,0,1,9.2,4.868,10.15,10.15,0,0,1,4.654,6.833,17.588,17.588,0,0,1,0,4.276c-.382,5.059-2.163,9.788-3.4,14.647a183.084,183.084,0,0,1-6.264,19.59,43.4,43.4,0,0,1-4.343,8.776,6.527,6.527,0,0,1-2.131,1.971,3.413,3.413,0,0,1-4.333-.48c-.242-.225-.523-.409-.827-.643a22.422,22.422,0,0,0-3.127,3.23c-1.289,1.49-2.581,2.977-3.993,4.359a12.244,12.244,0,0,1-6.534,3.574,30.014,30.014,0,0,0-4.818,1.351c-2.2.78-4.508,1.192-6.763,1.786-3.609.952-7.3,1.424-10.972,2.012-2.37.379-4.747.7-7.121,1.038-2.581.369-5.178.617-7.766.938a47.189,47.189,0,0,1-6.768.339,24.892,24.892,0,0,1-7.609-.979,8.44,8.44,0,0,1-5.99-7.369,27.984,27.984,0,0,1,.4-8.414q.846-5.073,1.823-10.123c.73-3.731,1.47-7.459,2.326-11.161,2.134-9.218,4.822-18.283,7.584-27.328,1.284-4.206,2.336-8.483,3.947-12.585a33.094,33.094,0,0,1,2.836-6.26c2.568-3.9,6.317-5.354,10.863-5.022,3.036.222,5.756,1.461,8.479,2.677,1.436.641,2.848,1.341,4.332,1.869a2.794,2.794,0,0,0,3.627-1.291,12.536,12.536,0,0,0,1.6-4.917,19.658,19.658,0,0,0-.193-6.868.738.738,0,0,0-.457-.582,14.334,14.334,0,0,1-7.924-9.152c-.059-.2-.161-.382-.219-.58-.091-.312-.255-.387-.556-.253a4.005,4.005,0,0,1-3.988-.573,6.123,6.123,0,0,1-1.777-1.639,9.529,9.529,0,0,1-2.04-5.554,4.611,4.611,0,0,1,2.071-3.78,2.208,2.208,0,0,1,3.261.9c.1.206.241.431-.009.609s-.432-.023-.566-.2a1.853,1.853,0,0,0-.722-.663,1.477,1.477,0,0,0-1.476.076,3.78,3.78,0,0,0-1.6,3.9,8.746,8.746,0,0,0,3.4,5.459,3.858,3.858,0,0,0,3.408.638c.723-.216,1.042-.094,1.376.57a21.293,21.293,0,0,1,.848,1.993c1.509,3.947,4.539,6.263,8.315,7.784a37.86,37.86,0,0,0,6.093,1.875,11.53,11.53,0,0,0,6.741-.682,12,12,0,0,0,7.976-9.98,15.045,15.045,0,0,0,.279-3.517.7.7,0,0,0-.483-.683,78.9,78.9,0,0,1-11.2-6.414q-4.739-3.205-9.44-6.465a64,64,0,0,0-24.114-9.976,59.389,59.389,0,0,0-11.895-1.321,21.14,21.14,0,0,0-9.412,1.892,9.212,9.212,0,0,0-3.559,2.749c-1.154,1.594-1.049,2.68.248,3.953a15,15,0,0,0,4.594,2.784,45.74,45.74,0,0,0,11.527,3.257c1.942.311,3.9.484,5.851.684a5.728,5.728,0,0,0,4.573-1.715,9.611,9.611,0,0,0,3.275-6.487,1.23,1.23,0,0,1,.011-.186c.066-.255.084-.581.449-.561.314.016.386.308.4.55a8.094,8.094,0,0,1-.048,1.864c-.747,3.852-3.166,6.273-6.677,7.722-2.233.922-4.56,1.606-6.761,2.612a25.376,25.376,0,0,0-7.615,4.846,14.875,14.875,0,0,0-4.239,7.795,6.5,6.5,0,0,0,1.8,6.228,21.934,21.934,0,0,1,3.186,3.313,8.776,8.776,0,0,1,1.565,4.194,5.628,5.628,0,0,1-2.445,5.087,29.431,29.431,0,0,1-5.885,3.308,15.3,15.3,0,0,0-5.411,3.781,7.7,7.7,0,0,0,.427,11.011c.616.618,1.249,1.218,1.847,1.854a4.074,4.074,0,0,1-.471,6.347,11.07,11.07,0,0,0-2.6,2.641c-1.429,2.22-.438,7.3,2.667,8.156a.746.746,0,0,1,.607.48,4.232,4.232,0,0,1-3.128-1.134c-2.362-2.258-3.588-6.987.376-10.151.583-.465,1.232-.848,1.8-1.325a2.625,2.625,0,0,0,.3-3.857,22.316,22.316,0,0,0-2.3-2.1,8.62,8.62,0,0,1-3.233-7.1,9.2,9.2,0,0,1,2.64-5.826,15.638,15.638,0,0,1,5.57-3.657,30.594,30.594,0,0,0,5.84-3c2.492-1.771,3.06-4.013,1.752-6.785a11.637,11.637,0,0,0-3.23-3.812,7.8,7.8,0,0,1-2.856-4.938,10.416,10.416,0,0,1,.813-5.336,18.376,18.376,0,0,1,9.083-9.648,56.143,56.143,0,0,1,6.809-2.989C2060.561,1186.748,2060.683,1186.689,2060.916,1186.59Zm46.548,93.716c-.434.323-.842.577-1.192.893a85.146,85.146,0,0,0-9.192,10.046,22.275,22.275,0,0,1-2.358,2.643,2.378,2.378,0,0,1-1.689.816,22.188,22.188,0,0,0-2.58.129,76.225,76.225,0,0,1-18.281-1.529,166.073,166.073,0,0,1-16.213-3.758,3.364,3.364,0,0,0-3.059.505,10.368,10.368,0,0,0-3.495,3.969c-.39.8-.8,1.593-1.187,2.394-.1.2-.219.365-.471.3s-.3-.271-.276-.49a2.158,2.158,0,0,1,.114-.479c1.136-3.237,2.907-5.938,6.235-7.335a4.683,4.683,0,0,1,.322-1.953c1.727-5.135,3.738-10.162,5.885-15.131,3.287-7.611,6.612-15.2,9.349-23.037a187.566,187.566,0,0,0,6.038-19.132c.665-2.849,1.4-5.728.607-8.7-.066-.247-.111-.406-.351-.5a22.866,22.866,0,0,0-6.7-1.934c-3.342-.2-6.329.512-8.638,3.157a12.262,12.262,0,0,0-2.134,3.335c-.43,1.03-.869,2.057-1.27,3.1-1.51,3.916-2.6,7.964-3.816,11.976-2,6.6-4.088,13.159-5.881,19.817-2.043,7.584-3.617,15.265-5.132,22.964-.519,2.636-.9,5.294-1.337,7.944a25.216,25.216,0,0,0-.286,7.734,7.173,7.173,0,0,0,5.065,6.165,24.673,24.673,0,0,0,8.292.908,71.4,71.4,0,0,0,8.969-.8c1.825-.242,3.656-.449,5.48-.705,2.354-.331,4.7-.692,7.055-1.048s4.72-.607,7.034-1.177c3.966-.979,7.975-1.793,11.857-3.1a21.618,21.618,0,0,1,3.637-.684c2.129-.329,3.747-1.658,5.3-3.061,2.616-2.369,4.525-5.408,7.3-7.68A24.528,24.528,0,0,1,2107.464,1280.307Zm-12.337-10.046c.088-.189.166-.333.224-.485a9.451,9.451,0,0,0,.333-.933,21.9,21.9,0,0,0,.05-9.972c-.074-.384-.148-.769-.2-1.157a.313.313,0,0,1,.2-.354.332.332,0,0,1,.412.193c.07.126.11.268.169.4a15.393,15.393,0,0,1,1.021,5.707,16.387,16.387,0,0,1-1.072,6.813c-.15.381-.09.533.253.714a18.13,18.13,0,0,0,5.558,1.859,22.029,22.029,0,0,0,3.663.094,1.126,1.126,0,0,0-.065-.62c-.752-4.227-1.01-8.51-1.363-12.778-.315-3.808-.294-7.632-.273-11.453.014-2.43.049-4.86-.058-7.289-.17-3.855-.274-7.714-.575-11.561a32.948,32.948,0,0,0-.572-5.235,30.253,30.253,0,0,1-.756-4.076,6.887,6.887,0,0,1,1.938-5.389c.166-.186.367-.35.258-.645a7.912,7.912,0,0,1-.256-2.645c-.019-.936,0-1.873,0-2.961-5.37,3.151-10.688,2.457-16.048.022.107.512.179.834.24,1.157a17.415,17.415,0,0,1-.035,5.944,13.125,13.125,0,0,1-1.89,5.345,3.693,3.693,0,0,1-3.458,1.823,6.421,6.421,0,0,1-1.969-.539c-.6-.247-1.2-.488-1.864-.754a29.781,29.781,0,0,0,.235,3.373c.256,2.951.583,5.895,1.034,8.82a115.42,115.42,0,0,0,3.221,15.02,63.438,63.438,0,0,0,6.923,16.271A22.048,22.048,0,0,0,2095.126,1270.26Zm23.2-41.177c.084,2.5-.083,4.838-.22,7.179-.142,2.422-.4,4.833-.7,7.241-.183,1.5-.4,3-.537,4.5-.231,2.461-.029,4.938-.248,7.4a1.661,1.661,0,0,0,.081.671c.3.923.548,1.863.864,2.779,1.2,3.49,2.6,6.922,2.98,10.643a4.93,4.93,0,0,1-.025,1.706c-.282-.065-.269-.2-.295-.32a40.359,40.359,0,0,0-1.471-5.359,103.849,103.849,0,0,1-4.821-16.761c-.535-2.946-1.161-5.875-1.657-8.827-.672-3.994-1.189-8.012-1.654-12.035a35.577,35.577,0,0,1,.336-9.109,42.052,42.052,0,0,1,1.878-7.243,9.711,9.711,0,0,0,.6-4.327,36.253,36.253,0,0,0-1.708-6.584,16.112,16.112,0,0,0-1.078-2.671,5.261,5.261,0,0,0,.045,2.624,32.432,32.432,0,0,1,.8,3.944,8.762,8.762,0,0,1-2.616,6.744c-1.177,1.321-2.574,2.412-3.8,3.677a6.3,6.3,0,0,0-2.022,5.141c.131,1.314.345,2.625.558,3.929.271,1.668.613,3.325.765,5.01.366,4.053.515,8.118.634,12.183.178,5.994-.195,12,.249,17.988.24,3.244.459,6.489.871,9.718a65.477,65.477,0,0,0,2.4,11.32,19.322,19.322,0,0,0,3.564,6.973,2.467,2.467,0,0,0,3.632.474,8.34,8.34,0,0,0,2.7-3.505,131.413,131.413,0,0,0,7.277-19.361c1.364-4.44,2.461-8.958,3.828-13.4a32.645,32.645,0,0,0,1.526-10.525,8.156,8.156,0,0,0-3.03-6.34C2125.156,1232.168,2121.657,1230.918,2118.325,1229.083ZM2064.58,1264.1c-3.6,7.96-7.024,15.987-9.913,24.226a29.09,29.09,0,0,1,4.736,1.143c1.608.368,3.207.777,4.815,1.141,1.628.368,3.261.713,4.9,1.051,1.593.33,3.186.665,4.873.873A63.9,63.9,0,0,1,2064.58,1264.1Zm50.623-14.246a16.749,16.749,0,0,0,.4-2.122c.181-2.918.559-5.813.877-8.717a84.038,84.038,0,0,0,.542-10,.7.7,0,0,0-.476-.741,15.407,15.407,0,0,1-3.528-2.066c-.47-.393-.943-.782-1.416-1.172l-.161.035A184.146,184.146,0,0,0,2115.2,1249.852Zm-10.28-36.108a34.842,34.842,0,0,0,3.083-2.974c1.774-1.987,2.848-4.211,2.257-6.968l-.57-2.66a16.719,16.719,0,0,1-4.482,6.407.5.5,0,0,0-.184.373C2104.918,1209.821,2104.849,1211.721,2104.923,1213.744Z" transform="translate(-2030.955 -1152.524)" fill="#422221"/><path d="M2197.439,1298.5a1.309,1.309,0,0,1-1.071.851c-2.558.664-6.207.079-8.09-2.719a8.241,8.241,0,0,1-1.245-5.109,12.229,12.229,0,0,1,5.372-9.768,16.837,16.837,0,0,0,3.665-3.349,9.215,9.215,0,0,0,2.093-5.479,8.022,8.022,0,0,0-5.527-7.52.9.9,0,0,1-.6-1.436,11.079,11.079,0,0,0,1.328-3.058,6.24,6.24,0,0,0-2.881-6.751,14.867,14.867,0,0,0-6.354-1.97,37.279,37.279,0,0,1-4.367-.612,4.818,4.818,0,0,1-3.574-6.688,9.773,9.773,0,0,1,1.844-3.007c.378-.442.725-.913,1.136-1.322,2-1.99,1.032-6.883-1.427-7.781a1.212,1.212,0,0,1-.264-.163.348.348,0,0,1-.173-.424c.089-.213.259-.122.423-.076a4.008,4.008,0,0,1,2.576,2.018c1.384,2.669,1.6,5.273-.569,7.66a11.652,11.652,0,0,0-2.337,3.353,4.62,4.62,0,0,0-.267,2.743,3.194,3.194,0,0,0,2.252,2.438,23.09,23.09,0,0,0,4.749.88,15.155,15.155,0,0,1,7.418,2.555,7.246,7.246,0,0,1,2.14,9.273c-.245.477-.526.935-.809,1.432a.805.805,0,0,0,.2.126c2.575.668,4.14,2.465,5.313,4.717,1.872,3.593.9,6.831-1.273,9.882a20.873,20.873,0,0,1-4.35,4.073,10.9,10.9,0,0,0-4.4,8.677c-.056,2.495.572,4.753,2.99,5.983A7.406,7.406,0,0,0,2197.439,1298.5Z" transform="translate(-2084.711 -1182.672)" fill="#422221"/><path d="M2029.67,1315.685a.844.844,0,0,1,.332.785,6.106,6.106,0,0,0,2.333,4.94,15.757,15.757,0,0,0,5.7,3.428c.4.13.812-.017,1.266.119a1.424,1.424,0,0,1-1.652.419,12.3,12.3,0,0,1-7.884-5.292,5.1,5.1,0,0,1-.564-3.664A.807.807,0,0,1,2029.67,1315.685Z" transform="translate(-2029.096 -1214.371)" fill="#422221"/><path d="M2116.871,1173.111a2.911,2.911,0,0,1-1.3-.337,124.625,124.625,0,0,0-15.144-4.217,5.143,5.143,0,0,1-.719-.176c-.21-.081-.43-.21-.343-.5a.425.425,0,0,1,.545-.288c.63.112,1.263.213,1.883.366a88.024,88.024,0,0,1,13.818,4.379A2.316,2.316,0,0,1,2116.871,1173.111Z" transform="translate(-2055.726 -1158.229)" fill="#422221"/><path d="M2193.456,1342.451a1,1,0,0,1-1.043.362,6.791,6.791,0,0,1-4.513-3.468,2.349,2.349,0,0,1-.191-1.208.441.441,0,0,1,.325-.471c.268-.053.327.221.384.4a7.392,7.392,0,0,0,3.606,3.985A5.081,5.081,0,0,0,2193.456,1342.451Z" transform="translate(-2089.217 -1222.7)" fill="#422221"/><path d="M2038.389,1331.744a5.226,5.226,0,0,1-4.226-.933,2.178,2.178,0,0,1-.839-.812c-.106-.215-.2-.421.009-.62s.43-.1.617.043c.332.248.642.523.974.772a7.176,7.176,0,0,0,3.007,1.235,1.579,1.579,0,0,1,.346.1C2038.319,1331.547,2038.332,1331.628,2038.389,1331.744Z" transform="translate(-2030.654 -1219.519)" fill="#422221"/><path d="M2190.194,1344.5a1.441,1.441,0,0,1-1.094.129,4.91,4.91,0,0,1-2.685-1.529,1.371,1.371,0,0,1-.235-.361c-.1-.211-.169-.459.037-.624.274-.219.4.076.534.23a6.139,6.139,0,0,0,2.718,1.862C2189.7,1344.276,2189.976,1344.224,2190.194,1344.5Z" transform="translate(-2088.603 -1224.359)" fill="#422221"/><path d="M2192.078,1354.175a.805.805,0,0,1-.763.611,3.029,3.029,0,0,1-1.559-.258c-.219-.091-.5-.233-.368-.54.107-.26.4-.215.6-.147A4.745,4.745,0,0,0,2192.078,1354.175Z" transform="translate(-2089.843 -1228.814)" fill="#422221"/><path d="M2134.865,1223.687c.369-.148.381-.546.1-.97a4.4,4.4,0,0,0-2.643-1.718c-2.091-.595-4.718,1.495-5.158,2.766a.574.574,0,0,0-.032.12c-.042.332.017.563.332.623a6.02,6.02,0,0,0,.725,2,1.509,1.509,0,0,0,.5.536,3.69,3.69,0,0,0,2.068.525,4.2,4.2,0,0,0,3.148-1.172l.015-.016a1.047,1.047,0,0,0,.2-.266A5.306,5.306,0,0,0,2134.865,1223.687Zm-2.44.19a3.034,3.034,0,0,1-2.544.248A2.241,2.241,0,0,1,2132.425,1223.876Z" transform="translate(-2066.252 -1178.44)" fill="#422221"/></g></svg>