<svg xmlns="http://www.w3.org/2000/svg" width="97.16" height="154.352" viewBox="0 0 97.16 154.352"><path d="M2097.4,1520.928a44.687,44.687,0,0,1-5.862,23.24,23.862,23.862,0,0,1-10.464,10.156,15.337,15.337,0,0,1-9.158,1.391c-5.852-.9-10.3-4.082-13.858-8.651a46.035,46.035,0,0,1-6.914-13.264,67.394,67.394,0,0,1-2.83-10.069,29.691,29.691,0,0,1-.479-6.052c.027-1.221-.068-2.447-.05-3.673a16.447,16.447,0,0,1,5.816-12.571,44.782,44.782,0,0,1,19.646-9.923,20.551,20.551,0,0,1,10.21.181,13.757,13.757,0,0,1,7.092,4.914c2.632,3.19,3.99,6.963,5.106,10.86A45.691,45.691,0,0,1,2097.4,1520.928Z" transform="translate(-2047.777 -1455.902)" fill="#f7f1d7"/><path d="M2105.059,1598.281a18.786,18.786,0,0,1,2.7-9.8,9.489,9.489,0,0,1,7.242-4.492,28.255,28.255,0,0,1,7.661.218,35.887,35.887,0,0,1,7.815,1.911,29.709,29.709,0,0,1,10.615,7.176,44.957,44.957,0,0,1,7.781,10.393,25.689,25.689,0,0,1,2.725,7.622,12.988,12.988,0,0,1-4.09,12.285,19.763,19.763,0,0,1-9.947,4.915,23.344,23.344,0,0,1-17.082-3.109,27.221,27.221,0,0,1-11.288-13.217c-.407-.981-1.066-1.854-1.562-2.8A23.623,23.623,0,0,1,2105.059,1598.281Z" transform="translate(-2069.49 -1491.104)" fill="#cb8676"/><path d="M2164.724,1469.458c-.221,5.7-2.54,11.486-6.4,16.7a19.292,19.292,0,0,1-7.639,6.447,13.873,13.873,0,0,1-13.021-.772,35.57,35.57,0,0,1-15.409-16.634,20.041,20.041,0,0,1-1.522-12.88,13.648,13.648,0,0,1,4.758-7.62,3.705,3.705,0,0,0,.72-.733,16.375,16.375,0,0,1,11.7-7.25c9.958-1.27,17.869,2.492,23.672,10.586C2163.967,1460.636,2164.688,1464.559,2164.724,1469.458Z" transform="translate(-2075.255 -1439.043)" fill="#d7e1e6"/><path d="M2069.479,1597.935a6.277,6.277,0,0,1-6.545-5.728,7.2,7.2,0,0,1,3.612-7.326,6.7,6.7,0,0,1,7.928,1.273c2.334,2.31,2.991,5.579,1.526,8.133a7.644,7.644,0,0,1-5.1,3.505A6.724,6.724,0,0,1,2069.479,1597.935Z" transform="translate(-2053.506 -1491.212)" fill="#ffad54"/><path d="M2188.98,1441.213a3.044,3.044,0,0,1-3.174-2.777,3.492,3.492,0,0,1,1.752-3.553,3.436,3.436,0,0,1,4.584,4.561,3.707,3.707,0,0,1-2.474,1.7A3.275,3.275,0,0,1,2188.98,1441.213Z" transform="translate(-2100.09 -1434.506)" fill="#ffad54"/><g transform="translate(9.769 0.878)"><path d="M2069.089,1589.394a3.762,3.762,0,0,1-1.279-1.519,28.225,28.225,0,0,1-4.111-12.095,40.626,40.626,0,0,1-.03-7.511,24.581,24.581,0,0,1,3.339-10.5,30.078,30.078,0,0,1,4.186-5.386c3.536-3.905,7.286-7.617,10.594-11.73a60.823,60.823,0,0,0,6.944-10.042,23.687,23.687,0,0,0,1.947-5.188,14.6,14.6,0,0,0,.145-4.525,33.29,33.29,0,0,0-1.023-6.843,46.1,46.1,0,0,0-2.389-6.862,1.423,1.423,0,0,0-1.191-.795,53.293,53.293,0,0,1-9.208-2.206,9.693,9.693,0,0,1-5.337-5.114,23.9,23.9,0,0,1-1.872-7.1,57.064,57.064,0,0,1-.33-8.889,73.639,73.639,0,0,1,.761-8.738c.233-1.586.484-3.168.776-4.743a.543.543,0,0,0-.143-.508c-1.884-2.288-2.023-4.962-1.8-7.759a15.854,15.854,0,0,1,2.52-7.348,12.643,12.643,0,0,1,6.533-5.089c.088-.032.171-.078.3-.137-.483-1.765.373-2.891,1.811-3.729a13.905,13.905,0,0,1,6.649-1.871,33.465,33.465,0,0,1,7.171.733,13.6,13.6,0,0,0,3.437.012,18.131,18.131,0,0,1,8.351.984,11.4,11.4,0,0,1,1.868,1.018,12.744,12.744,0,0,1,2.422-4.642,13.484,13.484,0,0,1,5.963-4.6,14.235,14.235,0,0,1,3.2-.586,21.1,21.1,0,0,1,10.849,1.448,15.931,15.931,0,0,1,7.725,7.495,29.272,29.272,0,0,1,2.769,8.7,44.817,44.817,0,0,1,.562,11.216,63.176,63.176,0,0,1-1.875,10.892,41.915,41.915,0,0,0-1.419,9.278,21.909,21.909,0,0,0,3.371,11.687c1.779,3.02,3.834,5.861,5.652,8.855a26.912,26.912,0,0,1,3.719,9.607,19.068,19.068,0,0,1-1.8,11.647,31.244,31.244,0,0,1-7.908,9.962,45.408,45.408,0,0,1-9.731,6.023,40.1,40.1,0,0,0-7.954,5.092,14.513,14.513,0,0,0-5.054,9.242c-.468,3.085,1.031,5.284,3.06,7.288.3.3.763.279,1.142.551a1.3,1.3,0,0,1-1.525-.055,7.794,7.794,0,0,1-3.211-3.715,8.837,8.837,0,0,1-.312-5.567,16.622,16.622,0,0,1,6.94-10.18,64.255,64.255,0,0,1,8.91-5.192,34.66,34.66,0,0,0,10.31-7.852,24.03,24.03,0,0,0,5.789-10.8,18.778,18.778,0,0,0-.992-10.481,35.279,35.279,0,0,0-4.035-7.447,76.489,76.489,0,0,1-5.628-9.2,22.3,22.3,0,0,1-1.948-12.123,93.058,93.058,0,0,1,2.052-10.283,48.389,48.389,0,0,0,1-14.439,35.338,35.338,0,0,0-2.792-11.468,16.616,16.616,0,0,0-5.371-6.548,14.992,14.992,0,0,0-5.5-2.181,22.119,22.119,0,0,0-6.906-.306c-4.849.268-7.537,3.429-9.714,7.266a8.444,8.444,0,0,0-.8,2.077c-.144.553-.494.622-.909.234a4.741,4.741,0,0,0-1.521-.746,14.814,14.814,0,0,0-5.571-1.172,32.583,32.583,0,0,0-3.675.091,20.965,20.965,0,0,1-5.622-.591c-3.461-.581-6.892-.63-10.126,1.077-1.969,1.039-2.3,1.813-1.572,3.941a20.418,20.418,0,0,0,2.861,5.147,62.782,62.782,0,0,0,8.77,10.529,70.923,70.923,0,0,0,7.533,5.636,55.83,55.83,0,0,0,8.317,4.491.457.457,0,0,0,.555-.071,6.675,6.675,0,0,1,6.659-.881c3.382,1.166,4.4,4.8,3.807,7.507a10.475,10.475,0,0,1-7.861,8.321.846.846,0,0,0-.729.984c-.025,3.661-.041,7.324.258,10.974a51.166,51.166,0,0,0,4.392,17.511,27.091,27.091,0,0,0,1.873,3.008,7.123,7.123,0,0,1,.723,1.482.591.591,0,0,1-.185.657c-.186.217-.387.084-.566-.024a13.46,13.46,0,0,0-7.869-1.738,15.749,15.749,0,0,0-6.187,1.49,15.568,15.568,0,0,0-6,5.551,55.637,55.637,0,0,0-6.228,12.92c-3.533,9.981-7.165,19.926-11.6,29.552a156.5,156.5,0,0,1-7.365,14.371A19.378,19.378,0,0,1,2069.089,1589.394Zm2.168-121.11c.069-.318.115-.54.166-.76a32.884,32.884,0,0,1,3.672-10,13.479,13.479,0,0,1,3.8-4.247c.2-.137.485-.384.7-.066.177.261-.1.445-.273.6a17.916,17.916,0,0,0-2.381,2.715,25.38,25.38,0,0,0-3.458,7.385,70.955,70.955,0,0,0-2.311,10.719,69.448,69.448,0,0,0-.778,8.158,60.306,60.306,0,0,0,.214,8.323,30.643,30.643,0,0,0,1.14,5.764,9.739,9.739,0,0,0,7.093,6.815,76.564,76.564,0,0,0,8.117,1.581,1.5,1.5,0,0,1,.882.467,8.965,8.965,0,0,1,1.747,3.443c.893,2.555,1.43,5.2,2.069,7.826.334,1.373.4,1.44,1.769,1.259a47.38,47.38,0,0,0,10.817-2.684,18.827,18.827,0,0,0,5.5-3.162.871.871,0,0,0,.349-1.021,58.568,58.568,0,0,1-1.39-7.539,68.905,68.905,0,0,1-.384-8.719,23.212,23.212,0,0,1,.337-5.03.818.818,0,0,1,.652-.693,12.082,12.082,0,0,0,3.519-1.483,9.556,9.556,0,0,0,4.349-7.332,4.829,4.829,0,0,0-1.621-4.46,5.787,5.787,0,0,0-7.552-.044.95.95,0,0,1-1.045.162,56.348,56.348,0,0,1-16.445-10.421c-3.921-3.437-6.867-7.708-9.767-12a19.879,19.879,0,0,1-2.108-4.141,11.348,11.348,0,0,0-5.273,3.609,15.746,15.746,0,0,0-3.423,11.737A6.283,6.283,0,0,0,2071.258,1468.284Z" transform="translate(-2063.51 -1435.919)" fill="#422221"/><path d="M2139.245,1508.742c-2.871,2.571-5.2,5.469-6.082,9.342a2.257,2.257,0,0,1-.112-1.293c.383-3.183,2.154-5.605,4.261-7.864a68.909,68.909,0,0,0,5.98-6.894,25.36,25.36,0,0,0,4.647-10.857,21.888,21.888,0,0,0-.892-10.292,6.6,6.6,0,0,0-1.229-2.119c-.152-.185-.425-.388-.2-.635.25-.269.511-.02.7.149a6.414,6.414,0,0,1,1.75,2.723,22.577,22.577,0,0,1-1.548,18.611,30.452,30.452,0,0,1-5.223,6.955,4.44,4.44,0,0,0-.973,2.339,21.107,21.107,0,0,0-.2,9.6,11.918,11.918,0,0,0,3.665,5.91,32.188,32.188,0,0,1,4.653,4.915,13.718,13.718,0,0,1,2.641,5.97,6.951,6.951,0,0,1-2.869,7.148,18.89,18.89,0,0,1-8.229,3.275,32.48,32.48,0,0,0-7.841,2.054,12.859,12.859,0,0,0-7.4,7.852c-1.37,3.828-1.641,7.723.1,11.512a18.789,18.789,0,0,0,5.794,7.579c.383.28.789.528,1.182.793.009.006,0,.035,0,.1a1.826,1.826,0,0,1-1.147-.3,12.194,12.194,0,0,1-4.152-3.465c-1.811-2.176-3.45-4.483-3.957-7.334-1.046-5.895.376-11.065,4.718-15.331a16.22,16.22,0,0,1,5.826-3.338,29.863,29.863,0,0,1,6.574-1.488,19.651,19.651,0,0,0,7.2-2.527c2.853-1.665,3.525-4.4,2.742-7.2a15.789,15.789,0,0,0-3.8-6.274c-1.3-1.436-2.833-2.636-4.114-4.092a12.948,12.948,0,0,1-3.192-7.4,23.49,23.49,0,0,1,.663-7.677C2139.212,1509.044,2139.222,1508.9,2139.245,1508.742Z" transform="translate(-2085.77 -1451.875)" fill="#422221"/><path d="M2189.929,1517.258c-.235.139-.281-.05-.369-.161a17.987,17.987,0,0,1-2.866-6.061,25.774,25.774,0,0,1-1.118-5.476,20.007,20.007,0,0,1,.206-3.778,48.567,48.567,0,0,1,1.916-8.755,1.682,1.682,0,0,1,.057-.221c.109-.233.169-.577.526-.474.309.089.313.4.283.674-.053.474-.1.952-.192,1.419-.4,1.98-.9,3.941-1.18,5.945a23.519,23.519,0,0,0-.4,6.729,27.854,27.854,0,0,0,2.9,9.564c.092.166.175.338.26.509C2189.956,1517.185,2189.942,1517.208,2189.929,1517.258Z" transform="translate(-2109.768 -1457.295)" fill="#422221"/><path d="M2132.515,1627.917a3.913,3.913,0,0,1-2.459-.358,25.161,25.161,0,0,1-5.479-3.535,14.314,14.314,0,0,1-5.385-8.865,11.009,11.009,0,0,1,.055-4.328c.049-.22.091-.451.365-.533.328.182.241.5.23.766a14.268,14.268,0,0,0,1.339,6.618,16.831,16.831,0,0,0,4.352,5.571,39.584,39.584,0,0,0,4,3.169,6.21,6.21,0,0,0,2.794,1.229C2132.438,1627.661,2132.493,1627.739,2132.515,1627.917Z" transform="translate(-2084.545 -1502.018)" fill="#422221"/><path d="M2130.923,1639.972a2.376,2.376,0,0,1-1.631-.052,10.875,10.875,0,0,1-5.466-3.491,1.446,1.446,0,0,1-.377-.879c0-.154,0-.31.182-.382a.328.328,0,0,1,.4.145,17.756,17.756,0,0,0,4.569,3.519,7.681,7.681,0,0,0,1.872.838C2130.628,1639.717,2130.823,1639.7,2130.923,1639.972Z" transform="translate(-2086.23 -1511.436)" fill="#422221"/><path d="M2089.149,1533.626a2.925,2.925,0,0,1-1.5-.328,1.927,1.927,0,0,1-.859-2.805,2.512,2.512,0,0,0,.271-2.07c-.332-1.139.473-1.893,1.642-1.677a8.853,8.853,0,0,1,2.7,1.191,20.544,20.544,0,0,0,2.931,1.546c.6.219.683.561.393,1.136a3.941,3.941,0,0,1-1.2,1.364A8.2,8.2,0,0,1,2089.149,1533.626Z" transform="translate(-2072.221 -1470.333)" fill="#422221"/></g></svg>