<svg xmlns="http://www.w3.org/2000/svg" width="92.204" height="162.275" viewBox="0 0 92.204 162.275"><path d="M2398.446,1257.856a70.69,70.69,0,0,1-1.9,9.213c-.279,1.1-.395,2.244-.581,3.369a60.788,60.788,0,0,1-1.713,7.4,68.8,68.8,0,0,1-3.829,10.493,18.037,18.037,0,0,1-4.954,6.47,12.716,12.716,0,0,1-5.575,2.792,10.02,10.02,0,0,1-6.881-1.281,16.165,16.165,0,0,1-5.566-5.587,34.786,34.786,0,0,1-4.591-11.437,50.572,50.572,0,0,1-1.085-6.2,54.442,54.442,0,0,1-.228-7.7,51.777,51.777,0,0,1,.721-6.989c.737-4.085,1.9-8.013,4.471-11.382a21.107,21.107,0,0,1,5.9-5.212,22.429,22.429,0,0,1,8.01-3.054,18.717,18.717,0,0,1,3.9-.2,15,15,0,0,1,7.316,1.538,9.192,9.192,0,0,1,4.273,4.315,19.588,19.588,0,0,1,2.424,7.549A26.4,26.4,0,0,1,2398.446,1257.856Z" transform="translate(-2306.479 -1178.347)" fill="#cb8676"/><path d="M2324.869,1336.522a27.174,27.174,0,0,1-4.249,14.586,20.828,20.828,0,0,1-8.113,7.46,17.105,17.105,0,0,1-6.984,1.758,37.738,37.738,0,0,1-15.943-2.607c-7.816-3.1-12.841-8.854-15.491-16.757a24.484,24.484,0,0,1-1.15-9.2,39.427,39.427,0,0,1,6.666-19.89,17.821,17.821,0,0,1,8.685-7.106,11.579,11.579,0,0,1,3.687-.756,26.223,26.223,0,0,0,3.13-.5,17.473,17.473,0,0,1,8.01.717,28.841,28.841,0,0,1,15.388,11.568,32.993,32.993,0,0,1,4.357,8.647,39.747,39.747,0,0,1,1.892,9.093C2324.823,1334.407,2324.822,1335.28,2324.869,1336.522Z" transform="translate(-2272.894 -1202.921)" fill="#d7e1e6"/><path d="M2356.613,1157.068a29.046,29.046,0,0,1-2.439,10.845,87.779,87.779,0,0,1-5.08,10.707,38.159,38.159,0,0,1-8.52,10.351,19.717,19.717,0,0,1-9.166,4.541,12.844,12.844,0,0,1-13.318-5.251,20.214,20.214,0,0,1-3.7-10.039,27.479,27.479,0,0,1,.149-7.323,40.331,40.331,0,0,1,2.694-9.279,41.891,41.891,0,0,1,5.614-10.162,26.017,26.017,0,0,1,12.071-8.784,13.188,13.188,0,0,1,5.563-.8,7.467,7.467,0,0,0,1.344-.16c5.482-.548,9.531,1.842,12.544,6.224a13.711,13.711,0,0,1,2.191,6.913A18.874,18.874,0,0,1,2356.613,1157.068Z" transform="translate(-2288.557 -1141.634)" fill="#ffad54"/><path d="M2363.543,1365.126a5.645,5.645,0,0,1,1.6-4.3,4.6,4.6,0,0,1,6.664.13,6.215,6.215,0,0,1,.224,7.634c-2.33,2.817-6.412,2.2-8-1.264A5.24,5.24,0,0,1,2363.543,1365.126Z" transform="translate(-2307.255 -1224.203)" fill="#f7f1d7"/><g transform="translate(8.233 1.521)"><path d="M2368.845,1271.065a20.409,20.409,0,0,0-2.422-.428,1.867,1.867,0,0,1-1.838-1.36,85.023,85.023,0,0,1-3.21-9.047,83.738,83.738,0,0,0-4.477-12.947,70.265,70.265,0,0,1-3-7.725,61.351,61.351,0,0,1-2.744-18.051.414.414,0,0,1,.261-.441c.472-.248.931-.522,1.391-.795a1.031,1.031,0,0,0,.534-.987,40.713,40.713,0,0,0-.751-7.06c-.882-5.036-2.148-9.985-3.521-14.909a13.093,13.093,0,0,0-5-7.718,10.906,10.906,0,0,0-6.29-2.068c-2.024-.012-3.974.509-5.973.652a18.49,18.49,0,0,1-2.54.168c.9-1.987,1.7-3.937,2.484-5.918.323.155.571.3.832.41a9.342,9.342,0,0,0,4.03,1.149,2.738,2.738,0,0,0,2.589-2.037c.174-.646.379-1.279.609-1.9a15.94,15.94,0,0,1,2.589-3.831c.776-1.025,1.428-2.031.764-3.4-.472-.981-.323-1.335.6-1.937.559-.36,1.155-.664,1.7-1.049a2.586,2.586,0,0,0,.745-3.769c-.081-.124-.155-.248-.242-.373a12.31,12.31,0,0,0,4.111-8.749,31.423,31.423,0,0,0-.956-8.811,7.637,7.637,0,0,0-1.987-3.825c-.112-.105-.2-.248-.422-.224.006.074,0,.112.019.137a2.2,2.2,0,0,0,.211.323,8.158,8.158,0,0,1,1.5,3.334,34.612,34.612,0,0,1,.751,8.538,11.073,11.073,0,0,1-1.875,6.178,16.251,16.251,0,0,1-1.881,2.285c-.23.23-.46.453-.7.664a15.616,15.616,0,0,1-6.849,3.5,33.318,33.318,0,0,1-7.24.633,20.624,20.624,0,0,0-7.16,1.174,25.713,25.713,0,0,0-12.524,10.314c-1.466,2.248-2.925,4.508-4.415,6.744-.5.745-1.012,1.465-1.552,2.173a11.585,11.585,0,0,1-3.434,2.037,19.323,19.323,0,0,0-4.62,2.5,11.2,11.2,0,0,0-3.707,4.334c-.087.18-.161.366-.236.553-.044.112-.081.217-.124.329a42.477,42.477,0,0,0-2.192,10.73c-.211,2.074-.311,4.16-.391,6.247-.118,3.235-.217,6.47-.192,9.712a.551.551,0,0,0,.3.559,22.541,22.541,0,0,0,4.191,2.086.694.694,0,0,1,.584.8c-.075,2.242.037,4.483.13,6.725.062,1.416.217,2.825.285,4.241.044.863.242,1.714.236,2.564-.019,1.149.224,1.577,1.335,1.931a12.88,12.88,0,0,0,2.708.428,55.933,55.933,0,0,0,5.682.13h1.906a5.75,5.75,0,0,1,0,.733,9.765,9.765,0,0,1-2.254,5.054c-.795.913-1.658,1.751-2.509,2.614a91.286,91.286,0,0,0-9.3,10.463,42.1,42.1,0,0,0-4.725,7.644,26.04,26.04,0,0,0-2.5,10.438,19.346,19.346,0,0,0,3.695,11.7,44.4,44.4,0,0,0,3.589,4.4c3.055,3.254,6.613,5.545,11.22,5.781a13.7,13.7,0,0,0,3.142-.186c-.012-.242-.012-.435-.031-.621a33.082,33.082,0,0,1,2.844-16.865,31.985,31.985,0,0,1,14.766-15.058,54.038,54.038,0,0,1,13.531-4.725,7.588,7.588,0,0,1,2.887-.3c3.179.522,6.346,1.111,9.494,1.807,5.775,1.273,11.643,2.043,17.455,3.086.391.068.838.137,1.136-.317A1.479,1.479,0,0,0,2368.845,1271.065Zm-49.434-96.961a19.753,19.753,0,0,1,8.743-3.173c2.093-.174,4.2-.217,6.3-.329a17.487,17.487,0,0,0,10.867-4.309q.121.158.261.317a1.32,1.32,0,0,1,.254,1.422,2.63,2.63,0,0,1-1.105,1.347,12.281,12.281,0,0,0-1.794,1.236,1.786,1.786,0,0,0-.571,2.3c.081.224.162.447.248.7a2.276,2.276,0,0,0-1.248.161,8.98,8.98,0,0,1-3.427,1.018c-.515.068-.683.428-.317.795a26.5,26.5,0,0,1,2.1,2.782,10.9,10.9,0,0,0-1.428,3.67,1.133,1.133,0,0,1-.484.683,2.359,2.359,0,0,1-2.006.4,13.858,13.858,0,0,1-3.3-1.26c-.925-.491-1.807-1.062-2.72-1.583-.348-.193-.7-.484-1.18-.248a2.035,2.035,0,0,0,1.068,1.142c.441.292.9.553,1.347.826-.863,2.055-1.714,4.049-2.54,6.054a.728.728,0,0,1-.838.553,53.818,53.818,0,0,1-6.2-1.006,57.34,57.34,0,0,0-6.5-.994c-.987-.068-1.974-.062-3-.1.224-.6.453-1.143.634-1.7a21.452,21.452,0,0,0,1.08-5.365,1.77,1.77,0,0,0,.006-.18A22.934,22.934,0,0,1,2319.412,1174.1Zm-7.079,6.874c.13-.18.267-.36.4-.54-.068.354-.143.708-.23,1.062a23.426,23.426,0,0,1-1.478,4.558c-.112.242-.205.491-.559.472a3.947,3.947,0,0,0-2.111.478C2309.688,1185,2310.924,1182.934,2312.333,1180.978Zm-9.445,122.426a15.961,15.961,0,0,1-4.819-1.969,19.286,19.286,0,0,1-3.862-3.322q-1.611-1.788-3.08-3.707a18.273,18.273,0,0,1-3.831-11.972,18.955,18.955,0,0,1,2.546-9.395c.093-.155.13-.379.478-.342a46.314,46.314,0,0,0-.105,5.644c.273,6.9,2.21,13.214,6.681,18.616a29.486,29.486,0,0,0,7.451,6.327c.18.106.354.217.67.416A6.4,6.4,0,0,1,2302.888,1303.4Zm37.487-45.522c-.075,1.7-.075,3.4-.255,5.1a2.422,2.422,0,0,1-.037.248c-1.981-.621-3.924-.168-5.837.2-4.266.838-8.507,1.782-12.76,2.658a49.175,49.175,0,0,1-11.649.82,21.955,21.955,0,0,1-8.3-1.925,39.08,39.08,0,0,1-3.856-1.739c-.379-.224-.745-.459-1.192-.739.5-.571.956-1.124,1.441-1.646,2.353-2.571,4.812-5.042,7.321-7.464a10.593,10.593,0,0,0,2.838-4.322,9.555,9.555,0,0,0,.528-3.136,142.509,142.509,0,0,0,30.718-4.552c.311.944.658,1.77.931,2.614a8.077,8.077,0,0,1,.186,1.987C2340.655,1249.953,2340.555,1253.914,2340.375,1257.882Zm.559,8.054a150.593,150.593,0,0,0,.478-19.367c3.738,7.222,7.414,14.462,11.63,21.565A95.765,95.765,0,0,0,2340.934,1265.936Zm19.852,3.726c-2.093-.391-4.185-.826-6.284-1.229a.586.586,0,0,1-.447-.3q-4.34-7.479-8.3-15.17c-1.652-3.2-3.316-6.4-4.769-9.7a23.863,23.863,0,0,1-1.7-6.39c-.385-2.738-.348-5.5-.572-8.24-.081-.975-.2-1.943-.3-2.912a2.589,2.589,0,0,1-.006-.875,40.656,40.656,0,0,0,5.986-1.174,44.033,44.033,0,0,0,5.768-2.006,1.71,1.71,0,0,1,.174.925,70.467,70.467,0,0,0,1.068,10.537,55.135,55.135,0,0,0,3.707,12.226,89.9,89.9,0,0,1,4.241,11.034c.708,2.533,1.372,5.073,2.267,7.545.67,1.863,1.354,3.732,2.179,5.533a7.046,7.046,0,0,1,.236.72C2362.915,1270.009,2361.847,1269.866,2360.786,1269.661Z" transform="translate(-2286.154 -1144.084)" fill="#422221"/><path d="M2295.894,1305.895a20.7,20.7,0,0,0,4.521,3.952c.159.115.372.182.525.01a.4.4,0,0,0-.031-.569,5.691,5.691,0,0,0-.428-.46c-.587-.521-1.182-1.033-1.774-1.548a7.492,7.492,0,0,1-2.788-4.335,49.443,49.443,0,0,1-.652-7.705c-.091-3.313-.153-6.627-.222-9.941a2.625,2.625,0,0,0-.148-.785c-.055-.162-.141-.351-.344-.33-.179.019-.262.185-.325.358a3.662,3.662,0,0,0-.152,1.132c-.082,1.935,0,3.868.037,5.8.1,3.4.045,6.818.473,10.206A8.242,8.242,0,0,0,2295.894,1305.895Z" transform="translate(-2289.143 -1197.189)" fill="#422221"/></g></svg>