<svg xmlns="http://www.w3.org/2000/svg" width="429.152" height="258.62" viewBox="0 0 429.152 258.62"><g transform="translate(-20.869 -1272.394)"><g transform="translate(20.869 1272.394)"><g transform="translate(312.638 22.947)"><path d="M810.159,1382.832q-.324.178-.649.347a.32.32,0,0,1-.432-.137.328.328,0,0,1,.137-.432,29.667,29.667,0,0,0,3.258-1.97.321.321,0,1,1,.368.526A29.993,29.993,0,0,1,810.159,1382.832ZM806,1384.725a.3.3,0,0,1-.045.021,29.644,29.644,0,0,1-3.735,1.088.321.321,0,0,1-.138-.627,28.919,28.919,0,0,0,3.654-1.064.321.321,0,0,1,.265.583Zm9.82-5.943a.321.321,0,0,1-.371-.518,28.865,28.865,0,0,0,2.634-2.745.321.321,0,0,1,.492.413,29.53,29.53,0,0,1-2.692,2.807A.323.323,0,0,1,815.816,1378.782Zm-17.322,7.6a.32.32,0,0,1-.128.038,29.769,29.769,0,0,1-3.891.076.321.321,0,0,1,.03-.641,29.1,29.1,0,0,0,3.807-.074.321.321,0,0,1,.182.6Zm22.261-13.479a.321.321,0,0,1-.426-.453,29.2,29.2,0,0,0,1.83-3.338.321.321,0,0,1,.582.271,29.831,29.831,0,0,1-1.87,3.412A.317.317,0,0,1,820.755,1372.9Zm-29.935,13.126a.322.322,0,0,1-.211.035,30.036,30.036,0,0,1-3.777-.932.321.321,0,0,1,.194-.612,29.276,29.276,0,0,0,3.7.912.321.321,0,0,1,.1.6ZM824,1365.942a.321.321,0,0,1-.461-.378,29.288,29.288,0,0,0,.907-3.7.321.321,0,0,1,.632.112,30.013,30.013,0,0,1-.927,3.779A.32.32,0,0,1,824,1365.942Zm-40.5,17.765a.321.321,0,0,1-.291.01,29.782,29.782,0,0,1-3.407-1.874.321.321,0,0,1,.345-.541,29.269,29.269,0,0,0,3.334,1.834.321.321,0,0,1,.019.571Zm41.839-25.328a.321.321,0,0,1-.475-.3,29.164,29.164,0,0,0-.079-3.806.321.321,0,0,1,.64-.055,29.724,29.724,0,0,1,.081,3.891A.321.321,0,0,1,825.339,1358.378Zm-48.308,21.2a.32.32,0,0,1-.362-.036,29.472,29.472,0,0,1-2.8-2.7.321.321,0,1,1,.474-.432,28.977,28.977,0,0,0,2.743,2.638.321.321,0,0,1,.038.452A.324.324,0,0,1,777.031,1379.576Zm-5.173-5.676a.321.321,0,0,1-.418-.1,30.157,30.157,0,0,1-1.645-2.65q-.187-.339-.364-.68a.318.318,0,0,1,.137-.433.321.321,0,0,1,.433.137c.116.223.234.445.356.666a29.577,29.577,0,0,0,1.61,2.594.321.321,0,0,1-.08.447Zm-3.531-6.819a.29.29,0,0,1-.046.021.321.321,0,0,1-.411-.192,29.683,29.683,0,0,1-1.083-3.736.321.321,0,0,1,.627-.138,28.923,28.923,0,0,0,1.06,3.655A.322.322,0,0,1,768.327,1367.081Zm-1.648-7.5a.322.322,0,0,1-.475-.255,29.794,29.794,0,0,1-.071-3.891.321.321,0,0,1,.641.03,29.106,29.106,0,0,0,.07,3.807A.322.322,0,0,1,766.679,1359.579Zm45.2-27.211a.32.32,0,0,1-.329-.011,29.238,29.238,0,0,0-3.331-1.842.321.321,0,1,1,.273-.581,29.773,29.773,0,0,1,3.4,1.883.321.321,0,0,1-.018.551Zm-44.837,19.537a.321.321,0,0,1-.471-.338,30.058,30.058,0,0,1,.936-3.776.321.321,0,1,1,.612.195,29.373,29.373,0,0,0-.916,3.695A.322.322,0,0,1,767.041,1351.905Zm37.886-22.808a.321.321,0,0,1-.253.024,29.407,29.407,0,0,0-3.694-.921.321.321,0,1,1,.114-.632,30,30,0,0,1,3.775.941.321.321,0,0,1,.057.587Zm-35.556,15.49a.321.321,0,0,1-.446-.417,29.833,29.833,0,0,1,1.878-3.405.321.321,0,1,1,.541.347,29.094,29.094,0,0,0-1.837,3.331A.325.325,0,0,1,769.371,1344.587Zm28-16.858a.318.318,0,0,1-.17.039,29.078,29.078,0,0,0-3.806.065.321.321,0,1,1-.053-.64,29.741,29.741,0,0,1,3.89-.067.321.321,0,0,1,.139.6Zm-23.858,10.395a.321.321,0,0,1-.4-.488,29.622,29.622,0,0,1,2.7-2.8.321.321,0,1,1,.432.475,28.96,28.96,0,0,0-2.641,2.74A.314.314,0,0,1,773.51,1338.124Zm16.2-9.758a.316.316,0,0,1-.086.032,29.024,29.024,0,0,0-3.658,1.056.321.321,0,0,1-.218-.6,29.662,29.662,0,0,1,3.739-1.079.321.321,0,0,1,.224.6Zm-10.522,4.592a.321.321,0,0,1-.337-.545,30.116,30.116,0,0,1,3.333-2,.321.321,0,0,1,.295.57,29.738,29.738,0,0,0-3.262,1.962Z" transform="translate(-766.099 -1327.092)" fill="#b5ac84"/></g><g transform="translate(358.907 26.699)"><path d="M889.735,1352.919a9,9,0,1,1,3.538-12.229A9.012,9.012,0,0,1,889.735,1352.919Zm-8.233-14.937a8.054,8.054,0,1,0,10.941,3.166A8.063,8.063,0,0,0,881.5,1337.982Z" transform="translate(-876.389 -1336.035)" fill="#b5ac84"/><g transform="translate(4.498 9.554)"><path d="M888.954,1361.14a1.243,1.243,0,1,1,.489-1.688A1.244,1.244,0,0,1,888.954,1361.14Zm-.895-1.623a.611.611,0,1,0,.83.24A.612.612,0,0,0,888.059,1359.516Z" transform="translate(-887.112 -1358.809)" fill="#b5ac84"/></g><g transform="translate(10.86 6.048)"><path d="M904.119,1352.782a1.243,1.243,0,1,1,.488-1.688A1.244,1.244,0,0,1,904.119,1352.782Zm-.895-1.624a.611.611,0,1,0,.83.24A.612.612,0,0,0,903.225,1351.158Z" transform="translate(-902.277 -1350.451)" fill="#b5ac84"/></g><g transform="translate(5.926 4.62)"><path d="M890.67,1348.89a1.243,1.243,0,1,1,1.688.488A1.244,1.244,0,0,1,890.67,1348.89Zm1.624-.895a.611.611,0,1,0-.24.83A.612.612,0,0,0,892.293,1347.995Z" transform="translate(-890.515 -1347.047)" fill="#b5ac84"/></g><g transform="translate(9.433 10.982)"><path d="M899.028,1364.055a1.243,1.243,0,1,1,1.688.489A1.244,1.244,0,0,1,899.028,1364.055Zm1.624-.9a.611.611,0,1,0-.24.83A.612.612,0,0,0,900.651,1363.16Z" transform="translate(-898.874 -1362.213)" fill="#b5ac84"/></g></g><g transform="translate(47.983)"><g transform="translate(13.329 8.175)"><g transform="translate(0 16.305)"><path d="M167.338,1332.96a.321.321,0,0,1-.266-.5c.36-.534.737-1.067,1.122-1.584a.321.321,0,1,1,.515.383c-.378.509-.75,1.034-1.1,1.559A.321.321,0,0,1,167.338,1332.96Z" transform="translate(-167.018 -1330.747)" fill="#b5ac84"/></g><g transform="translate(3.296 1.032)"><path d="M175.2,1307.563a.321.321,0,0,1-.24-.533c.767-.869,1.581-1.717,2.419-2.52a.321.321,0,1,1,.444.463c-.825.79-1.626,1.626-2.382,2.481A.32.32,0,0,1,175.2,1307.563Zm5-4.792a.321.321,0,0,1-.2-.571c.9-.731,1.847-1.431,2.805-2.082a.321.321,0,0,1,.36.531c-.944.641-1.873,1.33-2.762,2.049A.319.319,0,0,1,180.2,1302.771Zm5.731-3.89a.321.321,0,0,1-.158-.6c1.012-.569,2.06-1.1,3.115-1.583a.321.321,0,0,1,.266.584c-1.038.474-2.07,1-3.066,1.558A.322.322,0,0,1,185.929,1298.881Zm6.3-2.873a.321.321,0,0,1-.108-.624c1.094-.39,2.216-.739,3.336-1.035a.321.321,0,0,1,.164.621c-1.1.291-2.208.633-3.284,1.018A.323.323,0,0,1,192.23,1296.008Z" transform="translate(-174.874 -1294.339)" fill="#b5ac84"/></g><g transform="translate(27.034)"><path d="M231.778,1292.81a.321.321,0,0,1-.055-.637c.633-.111,1.28-.209,1.92-.29a.321.321,0,1,1,.081.637c-.63.08-1.266.176-1.889.286A.362.362,0,0,1,231.778,1292.81Z" transform="translate(-231.457 -1291.88)" fill="#b5ac84"/></g></g><g transform="translate(6.345 8.916)"><g transform="translate(50.559)"><path d="M273.071,1294.77a.321.321,0,0,1-.088-.012c-.612-.173-1.234-.334-1.85-.477a.321.321,0,0,1,.146-.625c.626.146,1.258.309,1.879.484a.321.321,0,0,1-.087.63Z" transform="translate(-270.885 -1293.647)" fill="#b5ac84"/></g><g transform="translate(0.062 1.727)"><path d="M192.523,1378a.321.321,0,0,1,0-.642c1.293-.018,2.6-.1,3.876-.235a.321.321,0,0,1,.069.639c-1.3.14-2.623.22-3.937.238Zm-3.912-.13h-.026c-1.309-.1-2.626-.274-3.913-.5a.321.321,0,1,1,.112-.632c1.267.224,2.563.391,3.852.494a.321.321,0,0,1-.025.641Zm11.684-.712a.321.321,0,0,1-.064-.635c1.264-.26,2.53-.584,3.762-.964a.321.321,0,0,1,.189.614c-1.252.385-2.538.714-3.822.979A.307.307,0,0,1,200.3,1377.157Zm-19.385-.651a.325.325,0,0,1-.086-.012c-1.263-.35-2.523-.766-3.747-1.235a.321.321,0,1,1,.23-.6c1.2.462,2.445.871,3.688,1.217a.321.321,0,0,1-.086.63Zm26.859-1.649a.321.321,0,0,1-.123-.618c1.189-.495,2.37-1.054,3.51-1.662a.321.321,0,0,1,.3.566c-1.158.617-2.357,1.185-3.565,1.688A.321.321,0,0,1,207.77,1374.856Zm-34.161-1.153a.323.323,0,0,1-.143-.033c-1.172-.583-2.331-1.232-3.444-1.925a.321.321,0,1,1,.339-.545c1.1.683,2.237,1.321,3.391,1.9a.321.321,0,0,1-.143.608Zm41.062-2.526a.321.321,0,0,1-.178-.588c1.076-.713,2.13-1.485,3.134-2.3a.321.321,0,0,1,.4.5c-1.02.824-2.09,1.608-3.182,2.332A.321.321,0,0,1,214.671,1371.177Zm-47.7-1.61a.319.319,0,0,1-.195-.066c-1.04-.794-2.056-1.649-3.019-2.54a.321.321,0,0,1,.436-.471c.948.877,1.948,1.719,2.973,2.5a.321.321,0,0,1-.2.576Zm53.782-3.306a.321.321,0,0,1-.224-.55c.923-.9,1.813-1.859,2.646-2.844a.321.321,0,1,1,.49.414c-.846,1-1.75,1.972-2.687,2.888A.319.319,0,0,1,220.754,1366.261Zm-59.522-2.006a.32.32,0,0,1-.24-.107c-.874-.978-1.711-2.008-2.488-3.062a.321.321,0,0,1,.517-.381c.764,1.038,1.589,2.052,2.45,3.015a.321.321,0,0,1-.239.535Zm64.573-3.965a.321.321,0,0,1-.263-.5c.737-1.06,1.431-2.167,2.063-3.291a.321.321,0,1,1,.56.315c-.642,1.142-1.348,2.267-2.1,3.343A.321.321,0,0,1,225.8,1360.29Zm-69.212-2.332a.321.321,0,0,1-.276-.156c-.674-1.124-1.3-2.294-1.865-3.477a.321.321,0,1,1,.579-.276c.555,1.164,1.173,2.315,1.837,3.422a.321.321,0,0,1-.275.486Zm73.046-4.485a.321.321,0,0,1-.293-.451c.523-1.18.994-2.4,1.4-3.623a.321.321,0,0,1,.609.2c-.414,1.243-.893,2.482-1.424,3.681A.322.322,0,0,1,229.638,1353.473Zm-76.411-2.574a.321.321,0,0,1-.3-.211c-.448-1.231-.842-2.5-1.171-3.768a.321.321,0,0,1,.622-.161c.323,1.249.711,2.5,1.152,3.708a.321.321,0,0,1-.3.431Zm78.881-4.847a.33.33,0,0,1-.072-.008.321.321,0,0,1-.241-.385c.288-1.256.519-2.542.687-3.822a.321.321,0,1,1,.636.083c-.17,1.3-.4,2.607-.7,3.882A.321.321,0,0,1,232.108,1346.052Zm-80.841-2.724a.321.321,0,0,1-.317-.27c-.206-1.292-.352-2.611-.434-3.921a.321.321,0,1,1,.641-.04c.081,1.29.225,2.588.428,3.86a.321.321,0,0,1-.267.368A.342.342,0,0,1,151.267,1343.329Zm81.857-5.029h-.012a.321.321,0,0,1-.309-.332c.017-.492.026-.991.026-1.484,0-.8-.023-1.605-.069-2.4a.321.321,0,0,1,.641-.037c.047.807.07,1.627.07,2.437,0,.5-.009,1.008-.027,1.507A.321.321,0,0,1,233.124,1338.3Zm-.455-7.808a.321.321,0,0,1-.317-.272c-.2-1.276-.456-2.557-.773-3.807a.321.321,0,0,1,.623-.158c.321,1.27.586,2.571.785,3.867a.321.321,0,0,1-.269.366A.342.342,0,0,1,232.669,1330.492Zm-1.92-7.581a.321.321,0,0,1-.3-.213c-.435-1.213-.933-2.421-1.482-3.588a.321.321,0,1,1,.581-.273c.558,1.186,1.064,2.412,1.506,3.644a.322.322,0,0,1-.194.411A.33.33,0,0,1,230.749,1322.911Zm-3.326-7.074a.321.321,0,0,1-.276-.157c-.657-1.109-1.375-2.2-2.136-3.244a.321.321,0,1,1,.519-.378c.772,1.06,1.5,2.168,2.169,3.294a.321.321,0,0,1-.276.484Zm-4.605-6.32a.321.321,0,0,1-.241-.108c-.855-.966-1.766-1.9-2.708-2.785a.321.321,0,0,1,.438-.469c.957.9,1.883,1.847,2.751,2.828a.321.321,0,0,1-.24.534Zm-5.713-5.343a.319.319,0,0,1-.2-.067c-1.022-.789-2.093-1.538-3.185-2.226a.321.321,0,0,1,.342-.543c1.108.7,2.2,1.46,3.235,2.261a.321.321,0,0,1-.2.575ZM210.488,1300a.314.314,0,0,1-.144-.035c-1.152-.581-2.346-1.114-3.549-1.583a.321.321,0,0,1,.233-.6c1.221.476,2.434,1.017,3.6,1.609a.321.321,0,0,1-.145.607Z" transform="translate(-150.515 -1297.763)" fill="#b5ac84"/></g><g transform="translate(0 36.863)"><path d="M150.69,1384.082h-.01a.321.321,0,0,1-.31-.331c.021-.644.056-1.3.107-1.938a.321.321,0,1,1,.64.05c-.049.633-.085,1.274-.105,1.908A.321.321,0,0,1,150.69,1384.082Z" transform="translate(-150.369 -1381.517)" fill="#b5ac84"/></g></g><g transform="translate(13.329 8.175)"><g transform="translate(0 16.305)"><path d="M167.338,1332.96a.321.321,0,0,1-.266-.5c.36-.534.737-1.067,1.122-1.584a.321.321,0,1,1,.515.383c-.378.509-.75,1.034-1.1,1.559A.321.321,0,0,1,167.338,1332.96Z" transform="translate(-167.018 -1330.747)" fill="#b5ac84"/></g><g transform="translate(3.296 1.032)"><path d="M175.2,1307.563a.321.321,0,0,1-.24-.533c.767-.869,1.581-1.717,2.419-2.52a.321.321,0,1,1,.444.463c-.825.79-1.626,1.626-2.382,2.481A.32.32,0,0,1,175.2,1307.563Zm5-4.792a.321.321,0,0,1-.2-.571c.9-.731,1.847-1.431,2.805-2.082a.321.321,0,0,1,.36.531c-.944.641-1.873,1.33-2.762,2.049A.319.319,0,0,1,180.2,1302.771Zm5.731-3.89a.321.321,0,0,1-.158-.6c1.012-.569,2.06-1.1,3.115-1.583a.321.321,0,0,1,.266.584c-1.038.474-2.07,1-3.066,1.558A.322.322,0,0,1,185.929,1298.881Zm6.3-2.873a.321.321,0,0,1-.108-.624c1.094-.39,2.216-.739,3.336-1.035a.321.321,0,0,1,.164.621c-1.1.291-2.208.633-3.284,1.018A.323.323,0,0,1,192.23,1296.008Z" transform="translate(-174.874 -1294.339)" fill="#b5ac84"/></g><g transform="translate(27.034)"><path d="M231.778,1292.81a.321.321,0,0,1-.055-.637c.633-.111,1.28-.209,1.92-.29a.321.321,0,1,1,.081.637c-.63.08-1.266.176-1.889.286A.362.362,0,0,1,231.778,1292.81Z" transform="translate(-231.457 -1291.88)" fill="#b5ac84"/></g></g><g transform="translate(40.605)"><path d="M245.371,1288.072l-5.094-3.7-5.094,3.7,1.946-5.988-5.094-3.7h6.3l1.946-5.989,1.946,5.989h6.3l-5.094,3.7Zm-5.094-4.494,3.873,2.814-1.48-4.553,3.873-2.814h-4.787l-1.479-4.553-1.48,4.553H234.01l3.873,2.814-1.48,4.553Z" transform="translate(-232.034 -1272.394)" fill="#b5ac84"/></g><g transform="translate(0 26.921)"><path d="M144.247,1354.568a9,9,0,1,1,9-9A9.012,9.012,0,0,1,144.247,1354.568Zm0-17.055a8.054,8.054,0,1,0,8.054,8.054A8.063,8.063,0,0,0,144.247,1337.512Z" transform="translate(-135.245 -1336.565)" fill="#b5ac84"/><g transform="translate(4.669 7.759)"><path d="M147.617,1357.545a1.243,1.243,0,1,1,1.243-1.243A1.244,1.244,0,0,1,147.617,1357.545Zm0-1.854a.611.611,0,1,0,.611.611A.612.612,0,0,0,147.617,1355.691Z" transform="translate(-146.374 -1355.059)" fill="#b5ac84"/></g><g transform="translate(10.67 7.759)"><path d="M161.922,1357.545a1.243,1.243,0,1,1,1.243-1.243A1.244,1.244,0,0,1,161.922,1357.545Zm0-1.854a.611.611,0,1,0,.611.611A.612.612,0,0,0,161.922,1355.691Z" transform="translate(-160.679 -1355.059)" fill="#b5ac84"/></g></g></g><g transform="translate(360.603 195.895)"><path d="M952.205,1739.635c13.061-1.992,25.258,6.949,25.258,6.949s-8.978,12.17-22.039,14.161-25.258-6.949-25.258-6.949S939.145,1741.627,952.205,1739.635Z" transform="translate(-909.303 -1739.346)" fill="#8f8b66"/><path d="M880.875,1774.731a.577.577,0,0,1-.233-1.006,85.848,85.848,0,0,1,21.175-11.848,109.012,109.012,0,0,1,39.639-7.18.577.577,0,1,1-.012,1.155,109.4,109.4,0,0,0-39.2,7.1,84.646,84.646,0,0,0-20.862,11.663A.577.577,0,0,1,880.875,1774.731Z" transform="translate(-880.433 -1748.254)" fill="#b3ae7f"/><path d="M983.954,1751.25a.577.577,0,0,1-.182-1.044l8.039-5.286a.577.577,0,1,1,.635.965l-8.04,5.286A.574.574,0,0,1,983.954,1751.25Z" transform="translate(-940.268 -1742.526)" fill="#b3ae7f"/><path d="M975.3,1768.693a.585.585,0,0,1-.183-.08l-9.4-6.207a.578.578,0,1,1,.636-.964l9.4,6.207a.578.578,0,0,1-.453,1.044Z" transform="translate(-929.787 -1752.118)" fill="#b3ae7f"/><path d="M945.311,1758.9a.578.578,0,0,1-.29-.951l5.755-6.286a.578.578,0,0,1,.852.78l-5.754,6.286A.579.579,0,0,1,945.311,1758.9Z" transform="translate(-917.837 -1746.388)" fill="#b3ae7f"/></g><g transform="translate(365.868 144.017)"><path d="M1019.692,1631.071c-1.944.835-9.439-.032-9.439-.032s4.47-6.174,6.414-7.009,7.673.721,7.673.721S1021.636,1630.235,1019.692,1631.071Z" transform="translate(-961.056 -1620.386)" fill="#7d6871"/><g transform="translate(0 9.228)"><path d="M893.55,1692.3l-.568-.151c11.014-41.539,51.939-54.391,52.339-54.471l.115.576C945.039,1638.338,904.481,1651.08,893.55,1692.3Z" transform="translate(-892.982 -1637.682)" fill="#54464c"/></g><g transform="translate(38.667 15.439)"><path d="M1001.518,1661.637c-1.975-.76-6.733-6.615-6.733-6.615s7.511-1.3,9.486-.537,4.989,5.875,4.989,5.875S1003.493,1662.4,1001.518,1661.637Z" transform="translate(-990.743 -1653.508)" fill="#7d6871"/><path d="M998.972,1657.419c-3.451-1.633-13.718-4.336-13.821-4.364l.149-.568c.424.112,10.424,2.745,13.924,4.4Z" transform="translate(-985.151 -1652.487)" fill="#54464c"/></g><g transform="translate(26.481 23.716)"><path d="M972.472,1681.366c-1.975-.76-6.733-6.615-6.733-6.615s7.511-1.3,9.486-.537,4.988,5.875,4.988,5.875S974.447,1682.126,972.472,1681.366Z" transform="translate(-961.697 -1673.237)" fill="#7d6871"/><path d="M969.927,1677.149c-3.451-1.633-13.719-4.336-13.822-4.363l.149-.568c.424.111,10.423,2.744,13.924,4.4Z" transform="translate(-956.105 -1672.217)" fill="#54464c"/></g><g transform="translate(16.48 33.602)"><path d="M948.633,1704.931c-1.975-.76-6.733-6.615-6.733-6.615s7.511-1.3,9.486-.537,4.989,5.875,4.989,5.875S950.608,1705.691,948.633,1704.931Z" transform="translate(-937.858 -1696.802)" fill="#7d6871"/><path d="M946.088,1700.714c-3.451-1.633-13.719-4.336-13.822-4.364l.149-.568c.424.111,10.424,2.744,13.924,4.4Z" transform="translate(-932.266 -1695.782)" fill="#54464c"/></g><g transform="translate(8.932 43.526)"><path d="M930.64,1728.587c-1.975-.76-6.733-6.615-6.733-6.615s7.511-1.3,9.486-.537,4.989,5.875,4.989,5.875S932.615,1729.348,930.64,1728.587Z" transform="translate(-919.865 -1720.459)" fill="#7d6871"/><path d="M928.094,1724.37c-3.451-1.633-13.719-4.337-13.822-4.363l.149-.569c.424.111,10.424,2.744,13.924,4.4Z" transform="translate(-914.272 -1719.438)" fill="#54464c"/></g><g transform="translate(32.339)"><path d="M977.565,1623.245c-.544,2.045-5.855,7.4-5.855,7.4s-2.1-7.328-1.551-9.373,5.306-5.59,5.306-5.59S978.109,1621.2,977.565,1623.245Z" transform="translate(-970.069 -1615.685)" fill="#7d6871"/><g transform="translate(0.554 4.681)"><path d="M971.97,1641.245l-.581-.087c.065-.433,1.61-10.658,2.883-14.316l.555.193C973.573,1630.641,971.986,1641.139,971.97,1641.245Z" transform="translate(-971.389 -1626.842)" fill="#54464c"/></g></g><g transform="translate(17.131 10.078)"><path d="M941.463,1646.756c-.161,2.11-4.4,8.349-4.4,8.349s-3.4-6.822-3.237-8.932,4.2-6.465,4.2-6.465S941.625,1644.646,941.463,1646.756Z" transform="translate(-933.817 -1639.707)" fill="#7d6871"/><g transform="translate(2.793 4.96)"><path d="M940.593,1666.13c-.015-.438-.364-10.773.218-14.6l.581.088c-.574,3.774-.215,14.386-.211,14.493Z" transform="translate(-940.475 -1651.529)" fill="#54464c"/></g></g></g><g transform="translate(25.346 90.976)"><path d="M130.189,1509.862c-18.281-19.541-48.893-20.608-48.893-20.608s-.973,30.616,17.308,50.157,48.893,20.609,48.893,20.609S148.47,1529.4,130.189,1509.862Z" transform="translate(-81.287 -1489.253)" fill="#8f8b66"/><path d="M180.384,1615.285a.814.814,0,0,1-.8-.644c-.044-.2-4.526-20.613-18.609-44.813-12.7-21.817-32.718-44.45-53.558-60.542a.815.815,0,1,1,1-1.29c21,16.214,41.174,39.022,53.971,61.012,14.221,24.438,18.749,45.085,18.793,45.291a.815.815,0,0,1-.626.967A.826.826,0,0,1,180.384,1615.285Z" transform="translate(-96.274 -1500.035)" fill="#b3ae7f"/><path d="M161.192,1539.6a.815.815,0,0,1-.773-.557l-6.162-18.488a.815.815,0,1,1,1.546-.515l6.163,18.488a.815.815,0,0,1-.773,1.072Z" transform="translate(-123.62 -1506.798)" fill="#b3ae7f"/><path d="M161.78,1591.4l-.069,0-22.738-1.913a.815.815,0,0,1,.137-1.624l22.738,1.913a.815.815,0,0,1-.068,1.626Z" transform="translate(-114.339 -1546.494)" fill="#b3ae7f"/><path d="M218.1,1604.172a.814.814,0,0,1-.811-.755l-1.275-17.213a.815.815,0,1,1,1.625-.12l1.275,17.213a.814.814,0,0,1-.752.873Z" transform="translate(-159.493 -1545.024)" fill="#b3ae7f"/></g><g transform="translate(40.999 145.114)"><path d="M127.013,1619.3c2.382,1.714,6.706,11.239,6.706,11.239s-10.53-.9-12.911-2.614a5.313,5.313,0,1,1,6.206-8.625Z" transform="translate(-118.597 -1618.301)" fill="#7d6871"/><path d="M195.345,1700.665a.488.488,0,0,1-.444-.284c-.157-.339-16.124-34.236-53.831-63.145a.489.489,0,0,1,.595-.776c37.909,29.064,53.966,63.169,54.123,63.51a.488.488,0,0,1-.238.649A.481.481,0,0,1,195.345,1700.665Z" transform="translate(-131.532 -1628.784)" fill="#54464c"/><g transform="translate(10.155 20.971)"><path d="M147.163,1668.344c2.886-.528,12.747,2.963,12.747,2.963s-7.95,6.962-10.837,7.49a5.313,5.313,0,1,1-1.91-10.452Z" transform="translate(-142.805 -1668.29)" fill="#7d6871"/><path d="M155.044,1677.245a.489.489,0,0,1-.094-.969c8.817-1.731,12.545-2.54,12.582-2.548a.489.489,0,1,1,.208.955c-.037.008-3.773.818-12.6,2.552A.5.5,0,0,1,155.044,1677.245Z" transform="translate(-149.626 -1671.44)" fill="#54464c"/></g><g transform="translate(35.293 17.373)"><path d="M213.3,1665.62c-.329,2.916-6.518,11.349-6.518,11.349s-4.369-9.622-4.041-12.538a5.313,5.313,0,0,1,10.559,1.19Z" transform="translate(-202.724 -1659.712)" fill="#7d6871"/><path d="M211.672,1685.195l-.039,0a.489.489,0,0,1-.448-.526c0-.037.307-3.848,1.2-12.8a.489.489,0,1,1,.973.1c-.888,8.941-1.191,12.744-1.194,12.781A.489.489,0,0,1,211.672,1685.195Z" transform="translate(-207.634 -1666.512)" fill="#54464c"/></g></g><g transform="translate(363.39 85.876)"><rect width="11.157" height="122.392" transform="translate(10.462 10.46) rotate(4.904)" fill="#ff9696"/><rect width="5.158" height="122.392" transform="translate(10.462 10.46) rotate(4.904)" fill="#c4c4c4" style="mix-blend-mode:multiply;isolation:isolate"/><path d="M923.129,1488.508l-11.116-.954,6.5-10.46Z" transform="translate(-901.551 -1477.095)" fill="#ffbb96"/><path d="M926.177,1480.673l-1.448-3.578-2,3.222c.757,1.19,1.616.47,1.616.47A1.11,1.11,0,0,0,926.177,1480.673Z" transform="translate(-907.771 -1477.095)" fill="#ff9696"/></g><g transform="translate(351.836 68.853)"><rect width="11.157" height="122.392" transform="matrix(1, 0.016, -0.016, 1, 1.989, 10.885)" fill="#c46588"/><rect width="5.158" height="122.392" transform="translate(1.99 10.885) rotate(0.931)" fill="#c4c4c4" style="mix-blend-mode:multiply;isolation:isolate"/><path d="M875.431,1447.583l-11.155-.181,5.756-10.885Z" transform="translate(-862.286 -1436.517)" fill="#ffbb96"/><path d="M877.236,1439.986l-1.693-3.469-1.773,3.352c.838,1.135,1.645.357,1.645.357A1.11,1.11,0,0,0,877.236,1439.986Z" transform="translate(-867.798 -1436.517)" fill="#c46588"/></g><g transform="translate(318.634 178.535)"><path d="M842.373,1697.966H780.392l8.146,71.4h45.689Z" transform="translate(-780.392 -1697.966)" fill="#78646c"/><path d="M810.307,1697.966H780.392l8.146,71.4h45.689l1.938-16.989C828.064,1739.053,817.555,1719.551,810.307,1697.966Z" transform="translate(-780.392 -1697.966)" fill="#c4c4c4" style="mix-blend-mode:multiply;isolation:isolate"/><ellipse cx="6.933" cy="9.085" rx="6.933" ry="9.085" transform="translate(43.444 8.775)" fill="#1f1f1f" style="mix-blend-mode:screen;isolation:isolate"/></g><rect width="46.937" height="37.55" transform="translate(195.234 239.367) rotate(-90)" fill="#303030"/><path d="M360.218,1853.066v-5.609l20.369-4.487H483.14l20.369,4.458v5.638Z" transform="translate(-217.855 -1603.602)" fill="#404040"/><rect width="157.263" height="238.68" rx="2.867" transform="translate(333.349 46.257) rotate(90)" fill="#404040"/><rect width="234.154" height="145.947" transform="translate(96.932 48.52)" fill="#737373"/><rect width="141.874" height="230.08" transform="translate(329.049 50.557) rotate(90)" fill="#ede3b7"/><rect width="127.389" height="215.595" transform="translate(321.806 57.799) rotate(90)" fill="#fff"/><g transform="translate(254.432 83.065)"><rect width="52.102" height="52.102" transform="translate(0 1.93)" fill="#c4c4c4" opacity="0.5" style="mix-blend-mode:multiply;isolation:isolate"/><rect width="52.102" height="52.102" transform="translate(3.17)" fill="#86bec4"/><g transform="translate(8.353 7.092)"><path d="M680.047,1525.836l-12.521-9.1-12.521,9.1,4.782-14.72-12.521-9.1h15.477l4.783-14.72,4.783,14.72h15.477l-12.521,9.1Zm-12.521-11.048,9.52,6.916-3.636-11.191,9.52-6.917H671.162l-3.636-11.191-3.636,11.191H652.121l9.52,6.917-3.636,11.191Z" transform="translate(-647.265 -1487.299)" fill="#fff"/></g></g><g transform="translate(118.006 83.065)"><rect width="52.102" height="52.102" transform="translate(0 1.93)" fill="#c4c4c4" opacity="0.5" style="mix-blend-mode:multiply;isolation:isolate"/><rect width="52.102" height="52.102" transform="translate(3.17)" fill="#86bec4"/><g transform="translate(8.125 7.815)"><path d="M354.308,1527.56l-12.521-9.1-12.521,9.1,4.782-14.72-12.521-9.1H337l4.783-14.719,4.783,14.719h15.477l-12.521,9.1Zm-12.521-11.047,9.52,6.916-3.637-11.191,9.52-6.917H345.423l-3.636-11.192-3.637,11.192H326.383l9.52,6.917-3.637,11.191Z" transform="translate(-321.526 -1489.023)" fill="#fff"/></g></g><g transform="translate(186.373 83.065)"><rect width="52.102" height="52.102" transform="translate(0 1.93)" fill="#c4c4c4" opacity="0.5" style="mix-blend-mode:multiply;isolation:isolate"/><rect width="52.102" height="52.102" transform="translate(3.17)" fill="#86bec4"/><g transform="translate(13.031 10.466)"><path d="M512.608,1528.19a16.424,16.424,0,1,1,16.424-16.424A16.443,16.443,0,0,1,512.608,1528.19Zm0-31.119a14.7,14.7,0,1,0,14.7,14.7A14.712,14.712,0,0,0,512.608,1497.071Z" transform="translate(-496.184 -1495.342)" fill="#fff"/><g transform="translate(8.519 14.157)"><path d="M518.759,1533.622a2.267,2.267,0,1,1,2.267-2.267A2.27,2.27,0,0,1,518.759,1533.622Zm0-3.382a1.115,1.115,0,1,0,1.115,1.115A1.116,1.116,0,0,0,518.759,1530.24Z" transform="translate(-516.491 -1529.087)" fill="#fff"/></g><g transform="translate(19.469 14.157)"><path d="M544.858,1533.622a2.267,2.267,0,1,1,2.268-2.267A2.27,2.27,0,0,1,544.858,1533.622Zm0-3.382a1.115,1.115,0,1,0,1.115,1.115A1.116,1.116,0,0,0,544.858,1530.24Z" transform="translate(-542.591 -1529.087)" fill="#fff"/></g></g></g><rect width="10.426" height="215.595" transform="translate(321.806 57.799) rotate(90)" fill="#d4c99b"/><g transform="translate(0 176.753)"><path d="M20.869,1697.495c32.6-11.532,62.678,5.21,71.614,24.96,0,0-19.756,6.366-25.965,5.548s-18.613-14.986-20.832-17.275-11.169-9.506-11.169-9.506Z" transform="translate(-20.869 -1693.716)" fill="#8f8b66"/><path d="M20.869,1702.7c24.987-.6,26.6,17.184,38.4,24.04s33.213.921,33.213.921c-34.2,19.127-42.044-1.3-50.712-12.193A36.361,36.361,0,0,0,20.869,1702.7Z" transform="translate(-20.869 -1698.923)" fill="#54464c"/><path d="M170.111,1751.509c-4.006-2.829-7.738-5.474-11.23-7.951-13.287-9.421-23.168-16.426-31.584-21.711l-1.355-6.024a.815.815,0,1,0-1.59.358l1,4.462a113.146,113.146,0,0,0-16.1-8.389.794.794,0,0,0-.107-.336l-5.494-9.1a.814.814,0,0,0-1.394.842l4.624,7.66a87.319,87.319,0,0,0-12.682-3.674.815.815,0,0,0-.34,1.594,83.939,83.939,0,0,1,23.7,8.739l-15.684,4.184a.815.815,0,1,0,.42,1.574l17.249-4.6c.021-.005.036-.021.056-.027,2.005,1.133,4.083,2.376,6.268,3.744a.807.807,0,0,0,.749.527.758.758,0,0,0,.077-.009c8.194,5.18,17.948,12.095,31.239,21.518,3.493,2.477,7.225,5.124,11.233,7.953a.814.814,0,1,0,.939-1.331Z" transform="translate(-62.868 -1698.77)" fill="#b3ae7f"/></g><path d="M4.61,0H332.515a4.61,4.61,0,0,1,4.61,4.61V9.244a0,0,0,0,1,0,0H0a0,0,0,0,1,0,0V4.61A4.61,4.61,0,0,1,4.61,0Z" transform="translate(52.326 249.376)" fill="#d4c99b"/><g transform="translate(94.063 119.44)"><rect width="56.104" height="122.571" transform="translate(12.867 6.9)" fill="#c4c4c4" style="mix-blend-mode:multiply;isolation:isolate"/><rect width="56.104" height="129.471" fill="#78646c"/><rect width="49.87" height="31.169" transform="translate(3.117 49.151)" fill="#ff9696"/><rect width="49.87" height="31.169" transform="translate(3.117 88.365)" fill="#ffbb96"/><rect width="49.87" height="31.169" transform="translate(3.117 9.937)" fill="#fff4c5"/></g><g transform="translate(277.005 99.023)"><path d="M746.086,1603.986a4.559,4.559,0,0,0-2.643,2c-.646,1.437-6.622,4.892-9.761,6.66s-5.286,4.009-5.336,4.878a6.865,6.865,0,0,1-1.58,3.071,6.1,6.1,0,0,0-1.006,2.209c-.223-.086-.722-.761-.291-2.342s.672-2.1-.219-1.749-6.6,3.524-6.562,3,4.047-3.2,2.773-2.572-4.162,1.786-4.281,1.333,1.07-1.325.83-1.268c-.816.219-.173-.722.47-1.429a32.7,32.7,0,0,1,7.585-3.955c3.853-2.583,9.755-10.036,11.086-10.725a5.746,5.746,0,0,0,2.116-2.3Z" transform="translate(-702.064 -1562.051)" fill="#eb7350"/><path d="M848.478,1625.19a4.56,4.56,0,0,1,2.374,2.317c.463,1.506,5.965,5.675,8.86,7.818s4.749,4.633,4.691,5.5a6.86,6.86,0,0,0,1.187,3.243,6.1,6.1,0,0,1,.724,2.317c.232-.058.811-.666.579-2.288s-.406-2.172.434-1.708,6.11,4.314,6.139,3.793-3.62-3.677-2.432-2.9,3.909,2.288,4.083,1.853-.9-1.448-.666-1.361c.782.318.261-.695-.289-1.477a32.717,32.717,0,0,0-7.036-4.865c-3.5-3.04-8.436-11.167-9.671-12.017a5.746,5.746,0,0,1-1.815-2.548Z" transform="translate(-778.285 -1574.864)" fill="#ff8762"/><path d="M797.749,1508.435c8.629.231,9.555,5.907,8.571,11.64s1.853,18.184,1.853,18.184l-20.848-4s2.2-10.482,2.953-16.447S791.552,1508.377,797.749,1508.435Z" transform="translate(-742.787 -1508.434)" fill="#2b1710"/><path d="M784.218,1559.189c1.042.618.579,1.738,1.235,2.046s.849.039,1.39.888,8.3,5.135,10.5,11.273,8.339,11.7,8.339,11.7c-1.158.347-1.853,2.548-4.054,3.243s-6.834.927-9.034,1.737a9.664,9.664,0,0,1-3.706.7c-.463-.927-.811-6.834-.811-6.834-.926,1.737-1.274,6.834,1.738,11.93s4.517,15.52,4.517,23.4,3.127,25.25,2.664,30.577.463,10.656.347,16.794,2.664,15.289,3.243,16.795a22.732,22.732,0,0,1,.81,4.71H759.355a18.92,18.92,0,0,0,1.737-4.594c.232-1.737.347-29.882,1.043-37.527s.116-25.365.347-31.156,5.328-19.69,5.907-22.354a55.867,55.867,0,0,0,.579-8.339,4.157,4.157,0,0,1-5.1-.232c-1.39-1.158-2.432-.464-3.938-1.737s-2.664-4.981-2.085-4.865,8.339-11.814,10.54-13.783,8.224-3.822,8.224-3.822Z" transform="translate(-725.589 -1537.897)" fill="#ffad54"/><path d="M781.977,1596.86a.074.074,0,0,1-.074-.074,14.138,14.138,0,0,0-1.087-3.946,18.746,18.746,0,0,1-.687-2.061c-.26-1.17,1.9-5.106,2.716-6.587.153-.279.285-.52.3-.556a.074.074,0,0,1,.14.047c-.015.046-.1.2-.308.581-.807,1.468-2.949,5.368-2.7,6.484a18.786,18.786,0,0,0,.681,2.042,14.182,14.182,0,0,1,1.1,4A.074.074,0,0,1,781.977,1596.86Z" transform="translate(-738.597 -1552.058)" fill="#e0e0e0" style="mix-blend-mode:multiply;isolation:isolate"/><path d="M803.484,1512.439c.155,4.015-3.745,6.795-4.247,7.026a2.083,2.083,0,0,1-.5,1.274c-1.158-2.2-2.818-1.351-2.857.5a2.813,2.813,0,0,0,2.78,2.741c1.043.656,1.7,5.289.733,7.259s-3.783,3.05-3.783,3.32c.5,1.621,5.444,1.738,7.8.386s3.089-1.931,3.089-2.047a13.744,13.744,0,0,1,.309-4.324,13.729,13.729,0,0,0,2.394-6.139c.116-1.814.425-4.671,0-5.868A6.253,6.253,0,0,0,803.484,1512.439Z" transform="translate(-747.595 -1510.759)" fill="#ff8762"/><g transform="translate(0 1.662)"><path d="M712.782,1575.11c9.034,5.212,22.238,6.718,22.238,6.718l-5.791,4.749s-6.834,1.158-7.181,1.158a39.144,39.144,0,0,1-6.37-4.749C714.982,1582.06,712.782,1575.11,712.782,1575.11Z" transform="translate(-699.516 -1548.8)" fill="#eb7350"/><path d="M684.861,1728.062s1.854,8.339.927,11.814a72.575,72.575,0,0,0-1.506,17.721c.347,6.834,1.074,21.428.611,22.7a25.663,25.663,0,0,0-1.042,5.791H700.3c-.579-1.506-8.224-4.054-9.729-6.718s3.1-31.272,4.717-35.558,1.622-14.015,1.622-14.015Z" transform="translate(-682.715 -1637.586)" fill="#eb7350"/><path d="M690.956,1851.653c-1.239.578-1.771,2.222-2.163,2.974-1.474.875-3.148.038-4.35-.886a21.011,21.011,0,0,0-.592,4.09H700.3C699.759,1856.428,693.078,1854.118,690.956,1851.653Z" transform="translate(-682.715 -1709.328)" fill="#2b1710"/><path d="M700.358,1728.614s1.853,8.339.927,11.814-1.043,10.656.116,16.563,4.054,22.354,3.59,23.628a25.666,25.666,0,0,0-1.042,5.791H720.4c-.579-1.506-8.223-4.054-9.729-6.718s-1.506-31.041.116-35.326,1.622-14.015,1.622-14.015Z" transform="translate(-692.304 -1637.906)" fill="#ff8762"/><path d="M703.173,1643.929c2.548,13.552.347,36.6.116,37.179-12.625,1.737-18.416-1.621-18.416-1.621-1.158-9.961-1.621-26.639.232-31.736a22.651,22.651,0,0,1,4.517-7.76Z" transform="translate(-682.726 -1586.462)" fill="#3b4b5e"/><path d="M695.063,1512.587c2.085-.116,4.865-.521,5.617,2.548s-2.142,6.776-2.258,7.007-7.239,10.135-7.239,10.366-.753,5.907-.868,6.08a39.828,39.828,0,0,1-5.154.579c-4.807-1.042-4.807-4.98-2.49-8.281s-1.042-9.961.753-13.32S688.751,1511.66,695.063,1512.587Z" transform="translate(-681.161 -1512.395)" fill="#2b1710"/><path d="M693.662,1565.128c-4.285-.077-5.752,4.788-5.289,7.857s5.5,17.2,4.691,19.69a32.79,32.79,0,0,1-2.664,5.27c.637,2.548,12.277,4.922,16.273,3.417-2.2-7.239-.289-15.578-.116-16.91s-1.911-7.992-2.432-8.8-5.1-7.007-5.154-7.181-2.259-3.185-2.259-3.185S694.608,1564.684,693.662,1565.128Z" transform="translate(-685.3 -1542.91)" fill="#86bec4"/><path d="M695.268,1566.187a2.74,2.74,0,0,0-3.273.336,7.7,7.7,0,0,0-2.052,7.008c.695,3.822,4.691,5.328,8.687,8.108s11.177,6.718,12.972,7.008,18.937-12.683,18.937-12.683c3.59-1.1,7.239-5.589,7.065-6.109a3.268,3.268,0,0,0,.7-1.3c.434-1.1.232-1.506,0-1.506s-4.691,2.2-5.676,2.2-.955-.839-.434-1.505a6.317,6.317,0,0,0,1.216-2.2c0-.405-.637.2-1.3.666a4.612,4.612,0,0,0-1.708,1.564c-.464.811-1.969,5.067-2.259,5.357a39.786,39.786,0,0,1-8.252,3.735c-3.388.984-7.123,3.214-7.384,3.214-1.245-.26-6.428-3.648-8.976-5.675a32.282,32.282,0,0,1-5.3-5.878A12.775,12.775,0,0,0,695.268,1566.187Z" transform="translate(-686.175 -1543.167)" fill="#ff8762"/><path d="M708.075,1517.961a6.17,6.17,0,0,1,2.355,4.98,4.391,4.391,0,0,0,.386,2.587c.386.541,1.93,1,1.93,1.235s-1.351.888-1.467,1.235a.839.839,0,0,0,.077.811c.193.27-.174.984-.174,1.042.328.676.251,1,.019,1.158s-.251.521-.077,1.042-.135,1.158-1.023,1.332-2.587.251-3.108.463-2.51,4.575-.154,10.212c-2.741-4.247-5.135-5.984-6.6-6.216,1.853-2.162,1.814-6.525,1.544-7.181-2.007-.463-2.78-3.243-1.621-4.324a1.631,1.631,0,0,1,2.625.695c1.274-.695.077-2.123,1.12-2.9S708.461,1520.586,708.075,1517.961Z" transform="translate(-691.875 -1515.626)" fill="#ff8762"/><path d="M723.372,1544.966c0-.053.309-.66.209-.967a12.528,12.528,0,0,0-2.964.847s1.474,1.392,2.845,1.221C723.634,1545.894,723.663,1545.568,723.372,1544.966Z" transform="translate(-704.064 -1530.74)" fill="#ff4242"/><path d="M719.023,1534.1c0,.488-.207.884-.463.884s-.464-.4-.464-.884.208-.883.464-.883S719.023,1533.609,719.023,1534.1Z" transform="translate(-702.601 -1524.48)" fill="#2b1710"/><path d="M714.507,1529.681a8.159,8.159,0,0,1,3.214-1.187A1.89,1.89,0,0,0,714.507,1529.681Z" transform="translate(-700.518 -1521.439)" fill="#2b1710"/><path d="M703.543,1542.009h-.012c-.621-.1-.795-.437-.843-.631a.843.843,0,0,1,1.138-.956c-.168-.346-.569-1.074-1.006-1.157a.472.472,0,0,0-.44.174.074.074,0,1,1-.106-.1.615.615,0,0,1,.573-.217c.651.124,1.176,1.373,1.2,1.427a.074.074,0,0,1-.106.092.736.736,0,0,0-.842.008.691.691,0,0,0-.267.7.786.786,0,0,0,.723.52.074.074,0,0,1-.011.147Z" transform="translate(-693.404 -1527.902)" fill="#e0b3a8" style="mix-blend-mode:multiply;isolation:isolate"/><path d="M710.717,1551.012h-.009c-2.541-.318-4.024-1.328-4.176-2.846a.075.075,0,0,1,.066-.081.074.074,0,0,1,.081.066c.144,1.442,1.582,2.406,4.047,2.714a.074.074,0,0,1-.009.147Z" transform="translate(-695.888 -1533.112)" fill="#e0b3a8" style="mix-blend-mode:multiply;isolation:isolate"/><path d="M721.8,1546.241a5.943,5.943,0,0,1-1.83-.291.074.074,0,1,1,.049-.139,5.827,5.827,0,0,0,2.512.228.074.074,0,1,1,.022.146A5.006,5.006,0,0,1,721.8,1546.241Z" transform="translate(-703.661 -1531.79)" fill="#2b1710"/><path d="M796.61,1574.657a.074.074,0,0,1-.014-.146,12.954,12.954,0,0,0,3.273-1.842.074.074,0,0,1,.083.123,12.524,12.524,0,0,1-3.329,1.864Z" transform="translate(-748.134 -1547.375)" fill="#e0b3a8" style="mix-blend-mode:multiply;isolation:isolate"/><path d="M798.128,1577.7a.074.074,0,0,1-.046-.133,10.368,10.368,0,0,0,2.154-2.325.074.074,0,0,1,.127.077,10.546,10.546,0,0,1-2.189,2.365A.076.076,0,0,1,798.128,1577.7Z" transform="translate(-749.015 -1548.858)" fill="#e0b3a8" style="mix-blend-mode:multiply;isolation:isolate"/><path d="M716,1851.653c-1.239.578-1.771,2.222-2.163,2.974-1.474.875-3.148.038-4.35-.886a20.97,20.97,0,0,0-.591,4.09h16.447C724.806,1856.428,718.126,1854.118,716,1851.653Z" transform="translate(-697.255 -1709.328)" fill="#2b1710"/></g><path d="M799.531,1533.617a1.182,1.182,0,0,1-1.092-.639.858.858,0,0,1,.038-.9.976.976,0,0,1,.965-.307c-.141-.281-.524-.956-.994-1.067a.606.606,0,0,0-.55.156.074.074,0,0,1-.1-.009.074.074,0,0,1,.009-.1.755.755,0,0,1,.679-.187c.665.159,1.135,1.231,1.154,1.277a.074.074,0,0,1-.081.1.937.937,0,0,0-.961.229.712.712,0,0,0-.024.746,1.038,1.038,0,0,0,.96.557.074.074,0,1,1,0,.148Z" transform="translate(-748.855 -1521.265)" fill="#e0b3a8" style="mix-blend-mode:multiply;isolation:isolate"/><path d="M811.275,1549.8h-.04a4.942,4.942,0,0,1-4.1-2.264.074.074,0,0,1,.122-.084,4.8,4.8,0,0,0,3.983,2.2,2.609,2.609,0,0,0,1.861-.541.074.074,0,0,1,.12.086A2.615,2.615,0,0,1,811.275,1549.8Z" transform="translate(-754.277 -1531.063)" fill="#e0b3a8" style="mix-blend-mode:multiply;isolation:isolate"/><path d="M819.988,1534.092l-.143,0a.074.074,0,0,1-.072-.076.071.071,0,0,1,.076-.072,3.852,3.852,0,0,0,1.74-.242c0-.035-.149-.149-.254-.233a1.68,1.68,0,0,1-.672-.824,7.093,7.093,0,0,1,.125-1.941c.057-.418.117-.85.144-1.209a.074.074,0,0,1,.148.011c-.028.364-.087.8-.145,1.218a7.289,7.289,0,0,0-.127,1.886,1.575,1.575,0,0,0,.62.743c.186.147.309.244.309.356a.148.148,0,0,1-.049.107A3.811,3.811,0,0,1,819.988,1534.092Z" transform="translate(-761.622 -1520.62)" fill="#2b1710"/><path d="M816.88,1543.072a5.19,5.19,0,0,1-2.452-.531.074.074,0,1,1,.071-.13,6.629,6.629,0,0,0,3.849.378.074.074,0,1,1,.03.145A7.981,7.981,0,0,1,816.88,1543.072Z" transform="translate(-758.497 -1528.152)" fill="#2b1710"/><path d="M818.864,1546.682a3.68,3.68,0,0,1-.922-.131.074.074,0,0,1,.037-.143,2.349,2.349,0,0,0,1.361.061.074.074,0,0,1,.1.039.073.073,0,0,1-.038.1A1.453,1.453,0,0,1,818.864,1546.682Z" transform="translate(-760.527 -1530.476)" fill="#e0b3a8" style="mix-blend-mode:multiply;isolation:isolate"/><path d="M815.068,1532.043c0,.459-.205.83-.458.83s-.459-.372-.459-.83.206-.83.459-.83S815.068,1531.585,815.068,1532.043Z" transform="translate(-758.359 -1521.657)" fill="#2b1710"/><path d="M824.271,1532.595c0,.458-.205.83-.459.83s-.458-.372-.458-.83.205-.83.458-.83S824.271,1532.137,824.271,1532.595Z" transform="translate(-763.701 -1521.978)" fill="#2b1710"/><path d="M809.044,1526.919a8.638,8.638,0,0,1,4.073-.425C811.554,1524.95,809.662,1525.432,809.044,1526.919Z" transform="translate(-755.395 -1518.367)" fill="#2b1710"/><path d="M823.262,1527.5c1.139-.116,1.911.946,1.931.868C824.71,1526.921,823.706,1526.709,823.262,1527.5Z" transform="translate(-763.648 -1519.238)" fill="#2b1710"/><path d="M829.188,1588.059a.074.074,0,0,1-.074-.073c0-.072-.024-7.253,4.6-9.18a.074.074,0,1,1,.057.136c-4.533,1.889-4.511,8.971-4.51,9.042a.074.074,0,0,1-.073.075Z" transform="translate(-767.045 -1549.28)" fill="#e0e0e0" style="mix-blend-mode:multiply;isolation:isolate"/><path d="M828.558,1612.157a.136.136,0,0,1-.036,0c-.167-.048-.224-.423-.337-1.266a11.334,11.334,0,0,0-.538-2.536.074.074,0,1,1,.137-.055,11.426,11.426,0,0,1,.548,2.572,4.041,4.041,0,0,0,.23,1.141s.01-.011.023-.026a8.131,8.131,0,0,0,.6-2.432.074.074,0,1,1,.147.017,7.931,7.931,0,0,1-.634,2.51A.186.186,0,0,1,828.558,1612.157Z" transform="translate(-766.19 -1566.375)" fill="#e0e0e0" style="mix-blend-mode:multiply;isolation:isolate"/><path d="M809.494,1613.118a.074.074,0,0,1,0-.148,6.91,6.91,0,0,0,5.342-4.129.074.074,0,0,1,.133.066,7.054,7.054,0,0,1-5.468,4.21Z" transform="translate(-755.613 -1566.695)" fill="#e0e0e0" style="mix-blend-mode:multiply;isolation:isolate"/><path d="M789.733,1758.512a.074.074,0,0,1-.074-.073c0-.136-.176-13.672-.347-24.149-.042-2.586-.224-5.462-.415-8.507-.617-9.815-1.386-22.03,1.11-39.108a.074.074,0,0,1,.146.021c-2.494,17.063-1.726,29.269-1.109,39.077.192,3.047.373,5.924.415,8.514.172,10.477.346,24.014.348,24.149a.074.074,0,0,1-.073.075Z" transform="translate(-743.342 -1611.863)" fill="#e0e0e0" style="mix-blend-mode:multiply;isolation:isolate"/><path d="M811.639,1818.356a.074.074,0,0,1-.066-.041c-.443-.887-2.614-11.005-2.614-26.441a.074.074,0,0,1,.148,0c0,15.41,2.158,25.493,2.6,26.375a.074.074,0,0,1-.066.107Z" transform="translate(-755.345 -1672.923)" fill="#e0e0e0" style="mix-blend-mode:multiply;isolation:isolate"/><path d="M830.918,1762.838a.074.074,0,0,1-.068-.044c-2.815-6.292-2.8-24.242-2.787-32.869v-1.214c0-7.587-2.755-33.963-2.95-34.55a.074.074,0,0,1,.141-.047c.2.588,2.957,27,2.957,34.6v1.214c-.009,8.616-.027,26.545,2.774,32.808a.074.074,0,0,1-.037.1A.078.078,0,0,1,830.918,1762.838Z" transform="translate(-764.721 -1616.189)" fill="#e0e0e0" style="mix-blend-mode:multiply;isolation:isolate"/></g><g transform="translate(68.873 192.727)"><rect width="38.095" height="2.059" fill="#ffc49d"/><path d="M224.431,1736.7H193.093l6.414,8.864h18.511Z" transform="translate(-189.714 -1734.644)" fill="#e6b18e"/><g transform="translate(0 45.705)"><rect width="38.095" height="2.059" transform="translate(0 8.864)" fill="#ffc49d"/><path d="M224.431,1849.6H193.093l6.414-8.864h18.511Z" transform="translate(-189.714 -1840.74)" fill="#e6b18e"/></g><rect width="23.295" height="34.878" transform="translate(7.465 10.682)" fill="#c46588"/><path d="M203.05,1791.936a.987.987,0,0,1-.239-1.944l17.743-4.436-17.812-3.924a.986.986,0,0,1,0-1.927l17.367-3.8-17.382-4.074a.987.987,0,0,1,.027-1.927l16.873-3.465-17.015-3.433a.987.987,0,1,1,.39-1.934l21.767,4.392a.987.987,0,0,1,0,1.933l-17.225,3.537,17.251,4.043a.987.987,0,0,1-.014,1.925l-17.23,3.769,17.522,3.86a.987.987,0,0,1,.027,1.921l-21.815,5.454A.98.98,0,0,1,203.05,1791.936Z" transform="translate(-194.782 -1748.778)" fill="#d97096"/><g transform="translate(36.31 25.882)"><path d="M302.213,1820.252c-.965-13.224-1.737-26.545-12.355-26.641h-.965c-10.618.1-11.39,13.417-12.355,26.641Z" transform="translate(-274.462 -1793.56)" fill="#bf9fac"/><rect width="29.826" height="4.151" rx="1.709" transform="translate(0 26.596)" fill="#a18591"/><path d="M281.95,1826.487h23.4a2.075,2.075,0,0,0,0-4.151h-.007c-.767-10.52-1.433-21.073-7.041-24.968C298.93,1810.729,289.055,1820.924,281.95,1826.487Z" transform="translate(-277.604 -1795.741)" fill="#c4c4c4" style="mix-blend-mode:multiply;isolation:isolate"/><g transform="translate(6.709 4.749)"><circle cx="2.027" cy="2.027" r="2.027" fill="#e8e8e8" style="mix-blend-mode:multiply;isolation:isolate"/><path d="M291.191,1804.821a2.021,2.021,0,0,1-.92,3.823c-.018,0-.034,0-.051-.005a2,2,0,0,0,.92.23,2.025,2.025,0,0,0,.051-4.049Z" transform="translate(-289.113 -1804.816)" fill="#e8e8e8" style="mix-blend-mode:multiply;isolation:isolate"/></g><g transform="translate(18.549 4.749)"><circle cx="2.027" cy="2.027" r="2.027" fill="#e8e8e8" style="mix-blend-mode:multiply;isolation:isolate"/><path d="M319.415,1804.821a2.021,2.021,0,0,1-.92,3.823c-.018,0-.034,0-.051-.005a2,2,0,0,0,.92.23,2.025,2.025,0,0,0,.051-4.049Z" transform="translate(-317.337 -1804.816)" fill="#e8e8e8" style="mix-blend-mode:multiply;isolation:isolate"/></g><g transform="translate(6.087 17.448)"><circle cx="2.027" cy="2.027" r="2.027" transform="translate(0 1.551) rotate(-22.5)" fill="#e8e8e8" style="mix-blend-mode:multiply;isolation:isolate"/><path d="M291.191,1836.573a2.021,2.021,0,0,1-.92,3.823c-.018,0-.034,0-.051-.005a2.022,2.022,0,1,0,.971-3.818Z" transform="translate(-288.492 -1835.946)" fill="#e8e8e8" style="mix-blend-mode:multiply;isolation:isolate"/></g><g transform="translate(18.138 17.658)"><circle cx="2.027" cy="2.027" r="2.027" transform="matrix(0.23, -0.973, 0.973, 0.23, 0, 3.946)" fill="#e8e8e8" style="mix-blend-mode:multiply;isolation:isolate"/><path d="M319.415,1836.573a2.021,2.021,0,0,1-.92,3.823c-.018,0-.034,0-.051-.005a2.022,2.022,0,1,0,.971-3.818Z" transform="translate(-316.926 -1836.156)" fill="#e8e8e8" style="mix-blend-mode:multiply;isolation:isolate"/></g><g transform="translate(11.998 0)"><circle cx="2.027" cy="2.027" r="2.027" transform="translate(0 2.867) rotate(-45)" fill="#e8e8e8" style="mix-blend-mode:multiply;isolation:isolate"/><path d="M305.8,1795.5a2.021,2.021,0,0,1-.92,3.824c-.018,0-.034,0-.051-.005a2,2,0,0,0,.92.231,2.025,2.025,0,0,0,.051-4.049Z" transform="translate(-302.884 -1794.657)" fill="#e8e8e8" style="mix-blend-mode:multiply;isolation:isolate"/></g><g transform="translate(12.426 10.789)"><circle cx="2.027" cy="2.027" r="2.027" transform="translate(0 3.946) rotate(-76.717)" fill="#e8e8e8" style="mix-blend-mode:multiply;isolation:isolate"/><path d="M305.8,1820.2a2.021,2.021,0,0,1-.92,3.824c-.018,0-.034-.005-.051-.005a2,2,0,0,0,.92.231,2.025,2.025,0,0,0,.051-4.049Z" transform="translate(-303.312 -1819.781)" fill="#e8e8e8" style="mix-blend-mode:multiply;isolation:isolate"/></g><g transform="translate(3.215 11.2)"><path d="M280.544,1824.24a2.027,2.027,0,0,0,0-4.054,2,2,0,0,0-.651.116c-.249,1.105-.459,2.264-.639,3.463A2.007,2.007,0,0,0,280.544,1824.24Z" transform="translate(-279.254 -1820.186)" fill="#e8e8e8" style="mix-blend-mode:multiply;isolation:isolate"/><path d="M281.106,1820.2a2.021,2.021,0,0,1-.92,3.824c-.018,0-.034-.005-.051-.005a2,2,0,0,0,.92.231,2.025,2.025,0,0,0,.051-4.049Z" transform="translate(-279.765 -1820.193)" fill="#e8e8e8" style="mix-blend-mode:multiply;isolation:isolate"/></g><g transform="translate(23.198 11.2)"><path d="M328.915,1824.24a2.015,2.015,0,0,0,1.373-.544c-.177-1.163-.382-2.288-.623-3.363a2.026,2.026,0,1,0-.749,3.907Z" transform="translate(-326.888 -1820.186)" fill="#e8e8e8" style="mix-blend-mode:multiply;isolation:isolate"/><g transform="translate(1.107 0.005)"><path d="M329.578,1826.879c-.018,0-.034-.005-.051-.005a2.216,2.216,0,0,0,.282.118c.057.019.114.039.173.054.042.01.084.017.126.024a2.042,2.042,0,0,0,.338.034h0a1.8,1.8,0,0,0,.672-.123c.027-.01.055-.015.081-.026a2.049,2.049,0,0,0,.619-.4c-.074-.489-.157-.966-.242-1.44A2.021,2.021,0,0,1,329.578,1826.879Z" transform="translate(-329.527 -1823.055)" fill="#e8e8e8" style="mix-blend-mode:multiply;isolation:isolate"/><path d="M332.225,1820.246a2.043,2.043,0,0,0-.378-.047h0a2.055,2.055,0,0,1,.829.786c-.044-.211-.083-.429-.13-.636a2.023,2.023,0,0,0-.211-.07C332.3,1820.268,332.261,1820.254,332.225,1820.246Z" transform="translate(-330.871 -1820.198)" fill="#e8e8e8" style="mix-blend-mode:multiply;isolation:isolate"/></g></g></g></g><g transform="translate(400.151 227.821)"><path d="M979.892,1825.827a5.191,5.191,0,1,1,5.191-5.191A5.2,5.2,0,0,1,979.892,1825.827Zm0-9.835a4.644,4.644,0,1,0,4.645,4.645A4.65,4.65,0,0,0,979.892,1815.992Z" transform="translate(-974.701 -1815.446)" fill="#b5ac84"/><g transform="translate(2.328 4.474)"><path d="M980.968,1827.544a.717.717,0,1,1,.717-.716A.717.717,0,0,1,980.968,1827.544Zm0-1.069a.352.352,0,1,0,.352.353A.353.353,0,0,0,980.968,1826.475Z" transform="translate(-980.251 -1826.111)" fill="#b5ac84"/></g><g transform="translate(6.518 4.474)"><path d="M990.954,1827.544a.717.717,0,1,1,.717-.716A.717.717,0,0,1,990.954,1827.544Zm0-1.069a.352.352,0,1,0,.352.353A.353.353,0,0,0,990.954,1826.475Z" transform="translate(-990.237 -1826.111)" fill="#b5ac84"/></g></g><g transform="translate(390.502 57.34)"><path d="M956.893,1419.456a5.191,5.191,0,1,1,5.191-5.191A5.2,5.2,0,0,1,956.893,1419.456Zm0-9.835a4.644,4.644,0,1,0,4.644,4.644A4.65,4.65,0,0,0,956.893,1409.621Z" transform="translate(-951.702 -1409.074)" fill="#b5ac84"/><g transform="translate(2.328 4.474)"><path d="M957.969,1421.173a.717.717,0,1,1,.717-.717A.718.718,0,0,1,957.969,1421.173Zm0-1.069a.352.352,0,1,0,.352.352A.352.352,0,0,0,957.969,1420.1Z" transform="translate(-957.252 -1419.739)" fill="#b5ac84"/></g><g transform="translate(6.517 4.474)"><path d="M967.954,1421.173a.717.717,0,1,1,.717-.717A.718.718,0,0,1,967.954,1421.173Zm0-1.069a.352.352,0,1,0,.352.352A.352.352,0,0,0,967.954,1420.1Z" transform="translate(-967.237 -1419.739)" fill="#b5ac84"/></g></g><g transform="translate(48.159 227.033)"><path d="M140.856,1823.95a5.191,5.191,0,1,1,5.191-5.191A5.2,5.2,0,0,1,140.856,1823.95Zm0-9.835a4.645,4.645,0,1,0,4.644,4.645A4.65,4.65,0,0,0,140.856,1814.115Z" transform="translate(-135.665 -1813.569)" fill="#b5ac84"/><g transform="translate(2.328 4.474)"><path d="M141.932,1825.667a.717.717,0,1,1,.717-.716A.717.717,0,0,1,141.932,1825.667Zm0-1.069a.352.352,0,1,0,.352.352A.353.353,0,0,0,141.932,1824.6Z" transform="translate(-141.215 -1824.234)" fill="#b5ac84"/></g><g transform="translate(6.517 4.474)"><path d="M151.917,1825.667a.717.717,0,1,1,.717-.716A.717.717,0,0,1,151.917,1825.667Zm0-1.069a.352.352,0,1,0,.352.352A.353.353,0,0,0,151.917,1824.6Z" transform="translate(-151.2 -1824.234)" fill="#b5ac84"/></g></g><g transform="translate(404.112 96.234)"><g transform="translate(0 2.431)"><path d="M995.021,1524.507H984.145v-16.926h10.876Zm-10.047-.828h9.219v-15.269h-9.219Z" transform="translate(-984.145 -1507.581)" fill="#b5ac84"/></g><g transform="translate(3.025)"><path d="M996.181,1504.991h-4.826v-3.205h4.826Zm-4-.828h3.169v-1.549h-3.169Z" transform="translate(-991.355 -1501.786)" fill="#b5ac84"/></g><g transform="translate(3.025 18.552)"><path d="M996.181,1549.214h-4.826v-3.205h4.826Zm-4-.829h3.169v-1.548h-3.169Z" transform="translate(-991.355 -1546.009)" fill="#b5ac84"/></g><g transform="translate(1.062 3.764)"><path d="M994.834,1516.575a.418.418,0,0,1-.108-.014c-1.5-.4-6.182-2.381-7.983-5.164a.414.414,0,1,1,.7-.45c1.648,2.548,6.14,4.447,7.5,4.814a.414.414,0,0,1-.107.814Z" transform="translate(-986.677 -1510.757)" fill="#b5ac84"/></g><g transform="translate(1.062 6.41)"><path d="M994.834,1522.882a.413.413,0,0,1-.108-.014c-1.5-.4-6.182-2.381-7.983-5.164a.414.414,0,1,1,.7-.45c1.648,2.548,6.14,4.447,7.5,4.814a.414.414,0,0,1-.107.814Z" transform="translate(-986.677 -1517.065)" fill="#b5ac84"/></g><g transform="translate(1.062 9.056)"><path d="M994.834,1529.19a.418.418,0,0,1-.108-.014c-1.5-.4-6.182-2.381-7.983-5.164a.414.414,0,1,1,.7-.45c1.648,2.548,6.14,4.447,7.5,4.814a.414.414,0,0,1-.107.814Z" transform="translate(-986.677 -1523.373)" fill="#b5ac84"/></g><g transform="translate(1.062 11.702)"><path d="M994.834,1535.5a.412.412,0,0,1-.108-.014c-1.5-.4-6.182-2.381-7.983-5.164a.414.414,0,0,1,.7-.45c1.648,2.548,6.14,4.447,7.5,4.814a.414.414,0,0,1-.107.814Z" transform="translate(-986.677 -1529.681)" fill="#b5ac84"/></g></g><g transform="translate(245.704 23.953)"><path d="M634.358,1343.271c-1.217,2.723-8.975,1.208-15.773-1.83s-13.1-7.808-11.884-10.531,8.976-1.208,15.773,1.83S635.575,1340.548,634.358,1343.271Zm-27.08-12.1c-.814,1.823,3.638,6.153,11.565,9.7s14.124,3.972,14.938,2.149-3.638-6.154-11.565-9.7S608.093,1329.346,607.278,1331.168Z" transform="translate(-606.549 -1329.49)" fill="#b5ac84"/><g transform="translate(19.103 8.674)"><path d="M660.791,1355.274c-.638,1.427-3.015,1.706-5.413.634s-3.776-3.029-3.138-4.456,3.015-1.706,5.413-.634S661.429,1353.846,660.791,1355.274Zm-7.974-3.564c-.477,1.067.814,2.725,2.819,3.621s4.1.752,4.578-.315-.814-2.725-2.819-3.621S653.294,1350.642,652.817,1351.71Z" transform="translate(-652.085 -1350.167)" fill="#b5ac84"/></g><g transform="translate(0.318 0.312)"><path d="M612.244,1333.622a1.894,1.894,0,0,1,2.455-.975,8.935,8.935,0,0,1,1.581-1.535c-4.61-1.244-8.153-1.2-8.851.359s1.614,4.206,5.585,6.8a8.617,8.617,0,0,1,.112-2.182A1.894,1.894,0,0,1,612.244,1333.622Z" transform="translate(-607.307 -1330.234)" fill="#b5ac84"/></g></g><g transform="translate(8.606 133.038)"><path d="M54.719,1605.193l-5.094-3.7-5.094,3.7,1.946-5.988-5.094-3.7h6.3l1.946-5.989,1.946,5.989h6.3l-5.094,3.7Zm-5.094-4.494,3.873,2.814-1.48-4.553,3.873-2.814H51.1l-1.479-4.553-1.48,4.553H43.358l3.873,2.814-1.479,4.553Z" transform="translate(-41.382 -1589.515)" fill="#b5ac84"/></g><circle cx="2.229" cy="2.229" r="2.229" transform="translate(111.819 64.52) rotate(-76.717)" fill="#ede3b7"/><circle cx="2.229" cy="2.229" r="2.229" transform="translate(118.286 64.52) rotate(-76.717)" fill="#ede3b7"/><circle cx="2.229" cy="2.229" r="2.229" transform="translate(124.754 64.52) rotate(-76.717)" fill="#fff"/><rect width="50.853" height="4.579" transform="translate(188.582 145.589)" fill="#ede3b7"/><rect width="50.853" height="4.579" transform="translate(188.582 155.136)" fill="#ede3b7"/><rect width="29.296" height="4.579" transform="translate(210.139 164.683)" fill="#ede3b7"/></g></g></svg>