<svg xmlns="http://www.w3.org/2000/svg" xmlns:xlink="http://www.w3.org/1999/xlink" width="820" height="469" viewBox="0 0 820 469"><defs><radialGradient id="a" cx="0.5" cy="0.5" r="0.5" gradientUnits="objectBoundingBox"><stop offset="0" stop-color="#fff"/><stop offset="1" stop-color="#fdfbf4"/></radialGradient></defs><g transform="translate(-390 -602)"><rect width="820" height="469" transform="translate(390 602)" fill="url(#a)"/><g transform="translate(655 633.616)"><path d="M1220.082,2015.859c-5.161-.564-10.328-.9-15.516-.951a77.818,77.818,0,0,0-7.782.29,24.87,24.87,0,0,0-7.655,1.7l.424.11a35.32,35.32,0,0,1-3.29-7.5c-.41-1.317-.836-2.628-1.163-3.971l-.522-2-.444-2.024a138.1,138.1,0,0,1-2.463-16.4c-.294-2.752-.417-5.52-.63-8.28-.1-2.767-.237-5.534-.293-8.3-.012-2.769-.07-5.539-.045-8.309l.166-8.309-.253,8.308c-.052,2.77-.024,5.542-.041,8.312.028,2.772.141,5.541.208,8.312.186,2.766.279,5.538.546,8.3a138.617,138.617,0,0,0,2.3,16.478l.426,2.04.507,2.022c.315,1.353.732,2.682,1.13,4.015.437,1.321.876,2.645,1.42,3.932a23.007,23.007,0,0,0,1.886,3.783l.147.232.276-.116a24.147,24.147,0,0,1,7.431-1.561,77.015,77.015,0,0,1,7.7-.208c5.144.1,10.3.491,15.4,1.1Z" transform="translate(-991.043 -1885.509)" fill="#8c757e"/><path d="M1158.7,2003.345" transform="translate(-916.984 -1907.116)" fill="#8c757e" stroke="#ff9696" stroke-miterlimit="10" stroke-width="1"/><path d="M1138.782,2016.04l1.5-8.617a41.541,41.541,0,0,1,2.32-8.341,61.194,61.194,0,0,1,3.641-7.894c.715-1.256,1.447-2.521,2.155-3.812.668-1.3,1.334-2.605,1.947-3.929,2.5-5.281,4.734-10.67,6.948-16.069q3.3-8.107,6.4-16.289-3.22,8.136-6.625,16.193c-2.288,5.363-4.6,10.721-7.166,15.947-.633,1.312-1.311,2.6-1.992,3.881-.713,1.256-1.458,2.5-2.2,3.773a61.978,61.978,0,0,0-3.795,7.929,42.68,42.68,0,0,0-2.483,8.45l-1.638,8.6Z" transform="translate(-909.843 -1885.163)" fill="#8c757e"/><path d="M1195.6,2027.059a112.708,112.708,0,0,1-3.326-14.2l-.6-3.6c-.206-1.2-.326-2.409-.493-3.613l-.458-3.617-.324-3.632a207.368,207.368,0,0,1-.452-29.129l.555-7.268c.1-1.21.167-2.425.307-3.632l.464-3.616c.319-2.409.591-4.826.95-7.229l1.267-7.183.623-3.6.8-3.559,1.616-7.117c.238-1.2.564-2.367.9-3.537l.975-3.518,1.933-7.047-2.19,6.973-1.086,3.492c-.369,1.16-.732,2.326-1.007,3.514l-1.759,7.1-.87,3.554-.7,3.592-1.366,7.191c-.376,2.411-.664,4.834-1,7.252l-.487,3.629c-.147,1.211-.217,2.432-.331,3.646-.2,2.432-.427,4.865-.6,7.3a196.551,196.551,0,0,0,.689,29.259A127.14,127.14,0,0,0,1195.6,2027.059Z" transform="translate(-975.993 -1868.728)" fill="#8c757e"/><path d="M1254.916,2006.057a25.967,25.967,0,0,1,1.595-4.145c.629-1.362,1.349-2.684,2.1-3.992a70.946,70.946,0,0,1,5.078-7.49c1.817-2.417,3.823-4.689,5.857-6.932,1.033-1.106,2.1-2.183,3.148-3.276l3.273-3.156-3.363,3.066c-1.08,1.065-2.178,2.113-3.243,3.193-2.1,2.191-4.175,4.414-6.069,6.793a71.62,71.62,0,0,0-5.33,7.412c-.793,1.3-1.562,2.625-2.242,4a26.615,26.615,0,0,0-1.779,4.288Z" transform="translate(-1089.467 -1896.076)" fill="#8c757e"/><path d="M1213.89,1953.029l-11.914-.4.416.624c2.092-5.487,4.491-10.884,7.038-16.189,2.571-5.3,5.3-10.525,8.315-15.584a147.142,147.142,0,0,1,9.87-14.631,85.357,85.357,0,0,1,12.144-12.754l-.156.048,14.72,1.262-.03-.005a7.492,7.492,0,0,0,3.546-.082,7.24,7.24,0,0,0,3.082-1.728,9.928,9.928,0,0,0,2.009-2.9c.232-.539.427-1.1.632-1.647l.44-1.7-.008.024a12.094,12.094,0,0,0,.348-4.3c-.093-1.433-.29-2.846-.443-4.266a65.41,65.41,0,0,1-.5-8.537,64.672,64.672,0,0,1,.729-8.524q.593-4.242,1.383-8.453-.812,4.2-1.442,8.445a64.9,64.9,0,0,0-.789,8.53,65.708,65.708,0,0,0,.447,8.558c.143,1.42.33,2.842.412,4.258a12.033,12.033,0,0,1-.355,4.189l-.008.025-.445,1.679c-.205.541-.4,1.086-.632,1.612a9.648,9.648,0,0,1-1.967,2.8,6.929,6.929,0,0,1-2.964,1.635,7.173,7.173,0,0,1-3.379.058l-.019,0h-.01l-14.71-1.364-.089-.009-.068.058a85.951,85.951,0,0,0-12.31,12.748,147.71,147.71,0,0,0-10.014,14.627c-3.062,5.058-5.836,10.283-8.453,15.582-2.594,5.312-5.032,10.693-7.183,16.217l-.232.6.649.026,11.911.479Z" transform="translate(-1048.484 -1844.077)" fill="#8c757e"/><path d="M1123.7,2022.131q-6.287-8.3-12.782-16.437-3.257-4.06-6.606-8.046a103.027,103.027,0,0,0-7.032-7.671,102.828,102.828,0,0,1,6.838,7.829q3.257,4.054,6.4,8.2,6.294,8.278,12.366,16.724Z" transform="translate(-846.365 -1901.5)" fill="#8c757e"/><path d="M1075.674,2045.6c3.364-.512,13.172-.1,13.271-.094l.043-1.007c-.406-.016-10.009-.422-13.466.1Z" transform="translate(-799.029 -1924.336)" fill="#8c757e"/><path d="M1142.009,1958.111c-3.026-6.013-6.241-11.909-9.589-17.739s-6.848-11.569-10.572-17.165c-1.875-2.791-3.787-5.557-5.789-8.26l-1.517-2.015c-.5-.684-1.034-1.32-1.45-2.012a40.634,40.634,0,0,0-2.622-4.318,30.777,30.777,0,0,0-7.051-7.261,22.774,22.774,0,0,0-4.425-2.5c-1.577-.66-3.2-1.1-4.8-1.6s-3.2-1.007-4.786-1.544c-.792-.27-1.585-.542-2.367-.834l-1.166-.453a3.633,3.633,0,0,1-1.049-.557,8.768,8.768,0,0,1-2.819-3.939,5.655,5.655,0,0,1-.194-2.4l.108-.6.194-.58a9.269,9.269,0,0,1,.484-1.141,53.929,53.929,0,0,1,5.364-8.461,12.521,12.521,0,0,0,1.371-2.139,17.146,17.146,0,0,0,.917-2.364,47.29,47.29,0,0,0,1.306-4.875c.344-1.646.62-3.305.806-4.978a32.581,32.581,0,0,0,.243-5.038,34.936,34.936,0,0,0-1.91-9.873,11.919,11.919,0,0,0-6.7-7.164,11.591,11.591,0,0,0-9.755.39,11.562,11.562,0,0,1,9.731-.333,11.826,11.826,0,0,1,6.607,7.147,34.789,34.789,0,0,1,1.84,9.84,32.486,32.486,0,0,1-.273,5.006c-.2,1.664-.48,3.315-.833,4.951a47.009,47.009,0,0,1-1.329,4.839,12.676,12.676,0,0,1-2.27,4.4,54.291,54.291,0,0,0-5.454,8.488,9.932,9.932,0,0,0-.506,1.171l-.209.614-.12.638a6.063,6.063,0,0,0,.191,2.576,9.19,9.19,0,0,0,2.932,4.161,2.161,2.161,0,0,0,.569.368c.2.1.39.179.586.262l1.178.464c.788.3,1.581.577,2.378.854,1.59.548,3.189,1.069,4.788,1.577s3.221.968,4.737,1.616a22.26,22.26,0,0,1,4.3,2.47,30.166,30.166,0,0,1,6.867,7.163,40.212,40.212,0,0,1,2.572,4.3c.445.75.991,1.41,1.477,2.08l1.5,2.017c1.977,2.7,3.865,5.473,5.716,8.265,3.678,5.6,7.127,11.356,10.438,17.186s6.48,11.748,9.452,17.745Z" transform="translate(-851.309 -1837.404)" fill="#8c757e"/><path d="M1131.4,2047.575l-16.334,15.961c-2.714,2.667-5.463,5.3-8.147,8-1.339,1.334-2.654,2.775-4.013,4.019a4.3,4.3,0,0,1-1.379.211c-.475.031-.951.073-1.423.142a8.194,8.194,0,0,0-2.714.849,8.173,8.173,0,0,1,2.726-.787c.471-.058.945-.089,1.419-.11a4.363,4.363,0,0,0,1.428-.192c1.463-1.27,2.752-2.64,4.136-3.953,2.739-2.639,5.548-5.21,8.319-7.818l16.676-15.594Z" transform="translate(-854.812 -1925.697)" fill="#8c757e"/><path d="M1088,2052.584l.308-.958a123.052,123.052,0,0,0-13.388-3.521l-.163.993A122.352,122.352,0,0,1,1088,2052.584Z" transform="translate(-797.907 -1925.92)" fill="#8c757e"/><path d="M1117.479,2054.756l-5.073,4.942-2.536,2.471c-.861.82-1.662,1.667-2.552,2.409a53.823,53.823,0,0,1-11.927,7.388,41.626,41.626,0,0,0-11.83,7.757,40.679,40.679,0,0,0-8.607,11.177,40.56,40.56,0,0,1,8.777-10.991,41.216,41.216,0,0,1,11.87-7.483,54.44,54.44,0,0,0,12.2-7.269c.937-.753,1.776-1.611,2.637-2.4l2.578-2.424,5.156-4.847Z" transform="translate(-827.887 -1928.714)" fill="#8c757e"/><path d="M1204.5,2132.221a21.654,21.654,0,0,1,.666,6.213,12.785,12.785,0,0,1-1.624,5.983,9.38,9.38,0,0,1-4.731,3.961,17.106,17.106,0,0,1-6.263,1.056,17.235,17.235,0,0,0,6.35-.82,10.563,10.563,0,0,0,2.861-1.526,9.782,9.782,0,0,0,2.209-2.4,13.405,13.405,0,0,0,1.95-6.2,22.436,22.436,0,0,0-.447-6.521Z" transform="translate(-983.893 -1961.148)" fill="#8c757e"/><path d="M1169.5,2132.432a29.789,29.789,0,0,0,.978,6.224,17.372,17.372,0,0,0,2.588,5.726,9.453,9.453,0,0,0,2.243,2.229,7.514,7.514,0,0,0,2.911,1.191,11.446,11.446,0,0,0,6.113-.8,11.329,11.329,0,0,1-6.062.557,7.2,7.2,0,0,1-2.742-1.252,9.074,9.074,0,0,1-2.051-2.211,16.754,16.754,0,0,1-2.267-5.62,28.991,28.991,0,0,1-.7-6.051Z" transform="translate(-948.878 -1961.342)" fill="#8c757e"/><path d="M1181.846,2077.551c.116-.047,11.843-4.74,30.1-7.458l-.147-1c-18.383,2.735-30.209,7.471-30.326,7.519Z" transform="translate(-983.424 -1934.739)" fill="#8c757e"/><path d="M1165.676,2202.617l.2-24.339s.306-16.156.481-25.089c.026-1.317.174-3.367.366-5.96,1.132-15.469,3.489-47.658-8.7-64.245l-10.9-13.832-.79.624,10.889,13.82c11.956,16.273,9.618,48.212,8.494,63.557-.192,2.61-.343,4.67-.369,6.015-.174,8.933-.481,25.094-.481,25.094l-.2,24.345Z" transform="translate(-918.787 -1934.762)" fill="#8c757e"/><path d="M1150.453,2298.932c.079-.03,7.819-2.988,15.1-.958l.271-.969c-7.609-2.123-15.407.864-15.735.99Z" transform="translate(-919.102 -2030.163)" fill="#8c757e"/><path d="M1180.915,2274.317l-5.625-35.8,4.625,35.94Z" transform="translate(-948.812 -2005.913)" fill="#8c757e"/><path d="M1188.989,2242.582q.151-21.783-.271-43.558c-.169-7.258-.371-14.516-.74-21.767-.2-3.624-.4-7.249-.726-10.865a101.936,101.936,0,0,0-1.392-10.794,101.977,101.977,0,0,1,1.269,10.8c.285,3.616.438,7.242.6,10.866.285,7.249.4,14.508.487,21.763q.188,21.768-.232,43.536Z" transform="translate(-963.055 -1971.078)" fill="#8c757e"/><path d="M1192.655,2307.081a18.538,18.538,0,0,0,8.495-2.129l-.459-.9c-7.86,4.018-14.159.739-14.22.706l-.476.886A15.023,15.023,0,0,0,1192.655,2307.081Z" transform="translate(-975.254 -2033.445)" fill="#8c757e"/><path d="M1225.723,2212.571l.982-.227-7.73-33.438c-.111-.37-10.188-34.125-6.821-69.867l1.922-26.781-1-.073-1.921,26.77c-3.385,35.935,6.75,69.871,6.853,70.211Z" transform="translate(-1014.996 -1940.237)" fill="#8c757e"/><path d="M1149.49,2304.217a26.569,26.569,0,0,1,15.283-1.409l.211-.986a27.064,27.064,0,0,0-15.922,1.483Z" transform="translate(-917.672 -2032.264)" fill="#8c757e"/><path d="M1134.079,2520.833a17.485,17.485,0,0,0,2.4,6.481,10.832,10.832,0,0,0,1.058,1.392c.4.463.819.792,1.192,1.207a11.032,11.032,0,0,1,1.928,2.654,3.576,3.576,0,0,1,.379,1.519,1.791,1.791,0,0,1-.656,1.319,5.316,5.316,0,0,1-1.423.781q-.776.328-1.566.62a21.853,21.853,0,0,1-3.238.916c-1.1.22-2.22.4-3.317.656,1.107-.217,2.225-.352,3.34-.532a22.014,22.014,0,0,0,3.3-.8q.806-.266,1.6-.566a5.593,5.593,0,0,0,1.551-.785,2.2,2.2,0,0,0,.852-1.582,4.032,4.032,0,0,0-.359-1.75,11.518,11.518,0,0,0-1.923-2.873c-.366-.438-.821-.83-1.138-1.241a10.208,10.208,0,0,1-.935-1.334,16.681,16.681,0,0,1-2.042-6.2Z" transform="translate(-883.594 -2124.463)" fill="#8c757e"/><path d="M1155.773,2503.367l.891-.469c-.008-.016-1.044-2.207-.623-10.009.444-8.244-1.768-11.086-1.861-11.2a7.222,7.222,0,0,0-5.06-3.792c-3.537-.513-6.65,2.247-6.781,2.364l.674.749c.03-.026,2.907-2.56,5.966-2.115a6.346,6.346,0,0,1,4.378,3.371c.058.077,2.1,2.783,1.682,10.572C1154.6,2501.028,1155.725,2503.276,1155.773,2503.367Z" transform="translate(-905.453 -2106.449)" fill="#8c757e"/><path d="M1146.5,2407.533l.849-.541c-.03-.048-3.009-4.969-3.009-20.325v-18.789c.01-.1,1.329-14.193,3.073-21.562a80.344,80.344,0,0,0,1.787-24.592,164.112,164.112,0,0,0-3.1-19.535l-.982.222a163.024,163.024,0,0,1,3.073,19.389,79.322,79.322,0,0,1-1.76,24.283c-1.762,7.438-3.086,21.6-3.1,21.746v18.834C1143.33,2402.4,1146.368,2407.332,1146.5,2407.533Z" transform="translate(-898.828 -2032.661)" fill="#8c757e"/><path d="M1176.592,2304.836a95.348,95.348,0,0,1,.08,12.393,56.363,56.363,0,0,1-1.964,12.253,56.662,56.662,0,0,0,2.466-12.212,96.168,96.168,0,0,0,.423-12.5Z" transform="translate(-945.203 -2033.744)" fill="#8c757e"/><path d="M1191.376,2529.708l-2.393-2.37c-.786-.789-1.62-1.583-2.367-2.368a7.14,7.14,0,0,1-1.693-2.718,1.216,1.216,0,0,1,.359-1.316,2.126,2.126,0,0,1,.678-.36c.257-.073.53-.112.794-.171h-.013l5.058-.137-5.058-.137h-.013c-.285.045-.572.073-.858.136a2.48,2.48,0,0,0-.817.381,1.631,1.631,0,0,0-.58,1.693,4.916,4.916,0,0,0,.665,1.632,11.46,11.46,0,0,0,.99,1.415c.754.882,1.508,1.677,2.262,2.521l2.262,2.493Z" transform="translate(-964.992 -2124.219)" fill="#8c757e"/><path d="M1165.983,2546.074a6.724,6.724,0,0,0,2.24-.365,4.372,4.372,0,0,0,2.593-2.334c1.56-3.306-.3-8.474-.381-8.692l-.947.348c.019.049,1.8,4.993.416,7.917a3.358,3.358,0,0,1-2.015,1.813c-4.719,1.651-11.174-3.92-11.24-3.976l-5.465-5.124-.688.736,5.478,5.134C1156.228,2541.752,1161.231,2546.074,1165.983,2546.074Z" transform="translate(-924.955 -2130.332)" fill="#8c757e"/><path d="M1171.435,2449.966l-1.544-4.377c-.471-1.474-.978-2.935-1.42-4.418-.9-2.958-1.731-5.939-2.444-8.948s-1.334-6.039-1.805-9.09a68.749,68.749,0,0,1-.886-9.19v-.034c-.708-6.914-1.342-13.839-1.835-20.769-.238-3.465-.447-6.934-.511-10.395-.021-1.711-.008-3.5-.155-5.236-.112-1.748-.31-3.479-.522-5.212-.862-6.922-2.075-13.78-3.454-20.6-1.45-6.813-2.725-13.631-4.135-20.448l-.1.018c1.062,6.869,2.088,13.769,3.413,20.586.622,3.418,1.195,6.843,1.755,10.271s1.1,6.857,1.53,10.3a84.944,84.944,0,0,1,.762,10.347c.106,3.491.369,6.963.638,10.434.563,6.938,1.268,13.859,2.045,20.772v-.035a67.036,67.036,0,0,0,.993,9.271c.517,3.06,1.183,6.089,1.933,9.1s1.627,5.98,2.569,8.93c.464,1.478.99,2.936,1.482,4.4l1.6,4.36Z" transform="translate(-926.187 -2044.868)" fill="#8c757e"/><path d="M1198.093,2438.036l-4.168-14.982-4.113-15c-2.71-10-5.4-20.014-7.945-30.06l-1.933-7.529c-.648-2.514-1.276-5.008-1.745-7.546s-.843-5.084-1.1-7.655-.382-5.153-.551-7.736c-.306-5.17-.522-10.346-.609-15.526q-.187-7.771.11-15.542a261.211,261.211,0,0,0-.274,31.107c.116,2.591.212,5.183.458,7.781s.594,5.177,1.062,7.74,1.081,5.1,1.712,7.612l1.892,7.545c2.625,10.032,5.3,20.054,8.177,30.019S1194.894,2428.17,1198.093,2438.036Z" transform="translate(-966.072 -2038.658)" fill="#8c757e"/><path d="M1291.086,2030.366c1.086-.075,2.117-.207,3.167-.348s2.085-.3,3.122-.471c2.075-.339,4.139-.722,6.2-1.132-2.085.244-4.171.46-6.259.632-1.044.087-2.088.162-3.131.219s-2.1.1-3.108.091Z" transform="translate(-1138.612 -1917.648)" fill="#8c757e"/><path d="M1287.123,2065.708l.558-.838c-.215-.143-21.611-14.484-30.208-25.985a21.365,21.365,0,0,1-3.983-9.021l-.986.206a22.306,22.306,0,0,0,4.162,9.418C1265.366,2051.127,1286.906,2065.56,1287.123,2065.708Z" transform="translate(-1100.354 -1918.257)" fill="#8c757e"/><rect width="1.006" height="6.679" transform="translate(187.042 147.633) rotate(-130.484)" fill="#8c757e"/><path d="M1269.991,2060.629q-6.047-8.465-12.506-16.606a178.883,178.883,0,0,0-13.7-15.605,178.749,178.749,0,0,1,13.306,15.914q6.259,8.272,12.074,16.867Z" transform="translate(-1077.605 -1917.649)" fill="#8c757e"/><path d="M1241.566,2091.688a36.951,36.951,0,0,1,4.9-4.323l-.592-.812a37.122,37.122,0,0,0-5.059,4.465Z" transform="translate(-1052.359 -1942.072)" fill="#8c757e"/><path d="M1238.68,2094.853a92.74,92.74,0,0,0,2.53,9.382c.506,1.536,1.059,3.06,1.714,4.541a21.865,21.865,0,0,0,2.34,4.237,21.766,21.766,0,0,1-2.106-4.332c-.572-1.5-1.044-3.04-1.465-4.591a92.1,92.1,0,0,1-2.02-9.413Z" transform="translate(-1049.92 -1945.485)" fill="#8c757e"/><path d="M1234.947,2087.714a14.46,14.46,0,0,1,2.436,1.386,7.467,7.467,0,0,1,2,2,7.709,7.709,0,0,0-1.675-2.384,15.3,15.3,0,0,0-2.29-1.892Z" transform="translate(-1041.878 -1942.187)" fill="#8c757e"/><path d="M1444.042,1907.376a22.406,22.406,0,0,0,3.745-2.681,31.39,31.39,0,0,0,3.209-3.221,33.094,33.094,0,0,0,2.705-3.629,37.387,37.387,0,0,0,2.212-3.93,37.505,37.505,0,0,1-2.419,3.787,32.633,32.633,0,0,1-2.87,3.433,30.741,30.741,0,0,1-3.314,2.975,21.733,21.733,0,0,1-3.7,2.357Z" transform="translate(-1379.408 -1861.144)" fill="#8c757e"/><path d="M1471.824,1892.7c2.4,0,5.358-1.775,5.49-1.856l-.522-.862c-.033.019-3.244,1.94-5.342,1.69-1.6-.181-3.461-2.92-4.987-7.329-1.091-3.142-4.317-14.069-.025-22.78a60.316,60.316,0,0,1,3.215-5.865l-.848-.545a61.508,61.508,0,0,0-3.27,5.966c-4.465,9.06-1.147,20.32-.025,23.555.99,2.853,3.063,7.687,5.827,8A4.553,4.553,0,0,0,1471.824,1892.7Z" transform="translate(-1412.209 -1844.858)" fill="#8c757e"/><path d="M1449.406,1850.291a20.481,20.481,0,0,1,3.009-3.845,18.863,18.863,0,0,1,3.881-3.024,14.3,14.3,0,0,1,4.611-1.747,15.333,15.333,0,0,1,4.973-.123,15.457,15.457,0,0,0-5.015-.125,14.688,14.688,0,0,0-4.81,1.552,19.447,19.447,0,0,0-4.163,2.922,21.246,21.246,0,0,0-3.355,3.881Z" transform="translate(-1392.232 -1839.033)" fill="#8c757e"/><path d="M1468.692,1851.774c-2.841,2.762-4.424,6.536-5.744,10.214-.161.464-.336.928-.484,1.4l-.4,1.423c-.269.949-.53,1.9-.726,2.864s-.446,1.92-.621,2.888l-.5,2.91c-.3,1.945-.464,3.906-.684,5.857-.113,1.961-.317,3.918-.348,5.881-.014,1.964-.078,3.925-.051,5.885.084,1.961.133,3.92.248,5.876.116-1.959.163-3.915.247-5.869s.223-3.9.331-5.853l.488-5.833c.247-1.933.446-3.874.766-5.794a77.407,77.407,0,0,1,2.469-11.4l.42-1.4.492-1.371c.309-.924.713-1.806,1.094-2.7A19.755,19.755,0,0,1,1468.692,1851.774Z" transform="translate(-1401.186 -1843.441)" fill="#8c757e"/><path d="M1427.337,1853.208a37.259,37.259,0,0,0,8.356,7.981,56.356,56.356,0,0,0,10.127,5.679c1.819.669,3.606,1.435,5.479,1.94.928.271,1.85.577,2.784.819.943.222,1.889.426,2.836.625l1.419.3,1.436.2,2.868.406c1.922.177,3.853.264,5.773.353-1.9-.317-3.817-.5-5.7-.842l-2.824-.543-1.41-.27-1.388-.364c-.925-.247-1.849-.487-2.779-.709-.92-.253-1.823-.57-2.735-.852-1.839-.525-3.585-1.313-5.365-1.993a61.937,61.937,0,0,1-10.08-5.388l-1.2-.786-1.155-.848c-.784-.549-1.513-1.167-2.262-1.766A37.892,37.892,0,0,1,1427.337,1853.208Z" transform="translate(-1382.473 -1844.043)" fill="#8c757e"/><path d="M1367.693,2060.949c.079-.019,7.976-1.908,12.417-3.474l-.334-.95c-4.392,1.55-12.236,3.426-12.317,3.445Z" transform="translate(-1259.445 -1929.457)" fill="#8c757e"/><path d="M1390.021,2007.69l.976-.247-8.475-33.24c-.063-.2-5.373-16.232-8.433-23.395a103.43,103.43,0,0,0-5.683-11.536l-.862.522a102.9,102.9,0,0,1,5.617,11.413c3.045,7.123,8.341,23.12,8.394,23.281Z" transform="translate(-1270.382 -1880.198)" fill="#8c757e"/><path d="M1432.823,1935.336a19.188,19.188,0,0,0-2.667-2.974,12.274,12.274,0,0,0-3.342-2.214,6.227,6.227,0,0,0-4.023-.39l-.962.366a8,8,0,0,0-.87.522,14.958,14.958,0,0,0-1.558,1.207,55.724,55.724,0,0,1-6.132,4.755,43.61,43.61,0,0,1-6.9,3.562,43.946,43.946,0,0,0,7.032-3.347,56.331,56.331,0,0,0,6.316-4.581,8.947,8.947,0,0,1,3.228-1.877,5.534,5.534,0,0,1,3.566.471,14.859,14.859,0,0,1,5.477,5.055Z" transform="translate(-1334.722 -1876.131)" fill="#8c757e"/><rect width="40.379" height="1.007" transform="matrix(-0.362, -0.932, 0.932, -0.362, 108.224, 131.185)" fill="#8c757e"/><path d="M1437.947,1905.919a37.13,37.13,0,0,0,.332,5.207,24.755,24.755,0,0,0,1.178,5.072,12.882,12.882,0,0,0,1.112,2.367,10.985,10.985,0,0,0,1.647,2.019,13.378,13.378,0,0,0,1.972,1.682,4.918,4.918,0,0,0,1.15.6,1.56,1.56,0,0,0,1.257.012,1.525,1.525,0,0,1-1.236-.07,4.776,4.776,0,0,1-1.1-.638,13.2,13.2,0,0,1-1.861-1.747,10.422,10.422,0,0,1-2.465-4.375,24.2,24.2,0,0,1-.9-5,36.3,36.3,0,0,1-.075-5.075Z" transform="translate(-1366.806 -1866.187)" fill="#8c757e"/><path d="M1429.428,2065.743c8.727-5.335,23.709-1.039,23.859-1l.283-.967c-.631-.186-15.559-4.465-24.667,1.1Z" transform="translate(-1368.536 -1931.771)" fill="#8c757e"/><path d="M1413.4,2034.819l6.831-26.8a91.641,91.641,0,0,0,2.949-17.048l-1.005-.046a90.738,90.738,0,0,1-2.917,16.836l-6.834,26.814Z" transform="translate(-1328.584 -1901.896)" fill="#8c757e"/><path d="M1416.47,1984.145a14.514,14.514,0,0,0-.318-2.986,17.666,17.666,0,0,0-.821-2.832,17.4,17.4,0,0,0-1.26-2.644,18.843,18.843,0,0,0-1.651-2.394,18.75,18.75,0,0,1,1.428,2.51,17.144,17.144,0,0,1,1,2.686,16.918,16.918,0,0,1,.553,2.793,13.733,13.733,0,0,1,.058,2.788Z" transform="translate(-1321.878 -1894.49)" fill="#8c757e"/><path d="M1425.472,2004.2a6.621,6.621,0,0,1-2.173,1.953,9.176,9.176,0,0,1-2.875,1.04,12.813,12.813,0,0,1-3.12.167c-.522-.039-1.044-.117-1.572-.178l-1.555-.322,1.531.445c.522.1,1.044.223,1.57.3a13.084,13.084,0,0,0,3.219.082,9.776,9.776,0,0,0,3.153-.87,7.348,7.348,0,0,0,2.667-2.079Z" transform="translate(-1332.746 -1907.474)" fill="#8c757e"/><path d="M1445.753,1979.178c.145,2.142.321,4.277.438,6.417q.231,3.206.406,6.414c.237,4.277.479,8.551.58,12.829.164,4.277.194,8.555.17,12.834-.046,2.137-.049,4.279-.18,6.415-.036,2.146-.248,4.273-.362,6.419a107.643,107.643,0,0,0,1.318-12.813c.184-4.294.147-8.592.061-12.886-.188-4.291-.417-8.583-.819-12.855S1446.471,1983.411,1445.753,1979.178Z" transform="translate(-1372.992 -1896.963)" fill="#8c757e"/><path d="M1455.5,1991.94a19.563,19.563,0,0,0,2.242,8.549,12.589,12.589,0,0,0,2.863,3.517,10.468,10.468,0,0,0,4.114,2.022,9.829,9.829,0,0,0,4.6-.143,11.991,11.991,0,0,0,3.982-2.183,19.918,19.918,0,0,0,5.327-7.053,26.334,26.334,0,0,1-2.636,3.5,18.063,18.063,0,0,1-3.163,2.942,12.349,12.349,0,0,1-3.769,1.88,9.009,9.009,0,0,1-4.117.079,9.7,9.7,0,0,1-3.74-1.781,13.1,13.1,0,0,1-2.793-3.166,19.161,19.161,0,0,1-1.814-3.918A24.86,24.86,0,0,1,1455.5,1991.94Z" transform="translate(-1409.02 -1902.325)" fill="#8c757e"/><path d="M1530.215,2020.746l.923-.406-7.665-17.563-10.823-22.918c-.2-.51-1.327-3.222-2.864-3.222-1.445,0-3.543,2.645-3.949,3.175a118.118,118.118,0,0,0-21.156,32.1l-13.17,1.027c2.324-5.1,15.421-33.754,19.925-41.753,4.929-8.757,9.442-15.737,9.487-15.806l-.846-.546c-.045.07-4.576,7.078-9.519,15.859s-20.165,42.269-20.319,42.607l-.353.777,15.472-1.206.121-.275a117.359,117.359,0,0,1,21.114-32.126c.9-1.172,2.5-2.83,3.189-2.83.6,0,1.512,1.517,1.939,2.609l10.831,22.937Z" transform="translate(-1469.871 -1886.739)" fill="#8c757e"/><path d="M1486.092,1953.814a3.827,3.827,0,0,1,.8-.961,6.845,6.845,0,0,1,1.091-.812,10.28,10.28,0,0,1,2.569-1.084,20.264,20.264,0,0,1,5.65-.705c1.924.058,3.872.135,5.808.129a54.385,54.385,0,0,0,5.805-.249,54.02,54.02,0,0,1-5.8,0c-1.936-.078-3.853-.235-5.794-.38a20.851,20.851,0,0,0-5.865.479,11.089,11.089,0,0,0-2.814,1.049,7.761,7.761,0,0,0-1.276.863,4.582,4.582,0,0,0-1.081,1.235Z" transform="translate(-1455.416 -1884.584)" fill="#8c757e"/><path d="M1542.922,2090.7l.655-.766a82.721,82.721,0,0,0-11.25-7.677,131.853,131.853,0,0,1-19.794-10.942,42.455,42.455,0,0,1-11.379-11.656,37.02,37.02,0,0,0,14.564-3.516l-.467-.893a36.841,36.841,0,0,1-14.972,3.421l-.819.013.382.725c.141.27,3.57,6.681,12.11,12.725a132.16,132.16,0,0,0,19.929,11.018A82.942,82.942,0,0,1,1542.922,2090.7Z" transform="translate(-1499.459 -1928.922)" fill="#8c757e"/><path d="M1495.909,2056.146a94.7,94.7,0,0,1,8.47,5.458c2.738,1.964,5.417,4.017,7.989,6.2s5.093,4.43,7.484,6.815c2.426,2.351,4.7,4.852,6.936,7.385-2.172-2.588-4.386-5.148-6.756-7.563-2.335-2.448-4.8-4.767-7.333-7.017s-5.166-4.383-7.871-6.427a95.525,95.525,0,0,0-8.429-5.729Z" transform="translate(-1480.611 -1928.929)" fill="#8c757e"/><path d="M1473.867,2098.975c.09-.207,9.108-20.742,15.241-25.511l-.618-.8c-6.335,4.926-15.174,25.052-15.546,25.9Z" transform="translate(-1429.615 -1936.239)" fill="#8c757e"/><path d="M1420.287,2208.712l.386-.019c.517-.024,12.695-.638,16.589-3.86l.211-.174-4.5-39.817-13.7-81.945-.274-1.233-.143-.111c-9.9-7.712-31.039-9.452-31.934-9.521l-.078,1c.215.018,21.52,1.77,31.251,9.2l.19.853,13.692,81.892,4.431,39.24c-3.476,2.573-13.32,3.314-15.4,3.442-1.667-5.293-20.278-64.542-21.936-76.47l-1,.138c1.74,12.511,21.888,76.366,22.094,77.011Z" transform="translate(-1328.051 -1935.972)" fill="#8c757e"/><path d="M1467.264,2242.126l.193-.85c.156-.686,15.62-68.786,23.283-84.849l-.909-.434c-7.249,15.2-21.377,76.407-23.169,84.239-7.18-5.882-18.651-3.691-19.151-3.591l.2.986c.119-.022,12.183-2.323,18.916,3.9Z" transform="translate(-1416.498 -1971.244)" fill="#8c757e"/><path d="M1418.543,2144.731a24.964,24.964,0,0,1,3.006-5.506,35.8,35.8,0,0,1,4.123-4.841,39.457,39.457,0,0,1,4.932-4.059c.852-.648,1.8-1.156,2.693-1.74.92-.543,1.878-1.024,2.817-1.54-.957.479-1.935.921-2.879,1.429-.92.549-1.889,1.023-2.77,1.64a39.9,39.9,0,0,0-5.138,3.9,36.388,36.388,0,0,0-4.387,4.762,25.6,25.6,0,0,0-3.348,5.621Z" transform="translate(-1344.521 -1959.082)" fill="#8c757e"/><path d="M1476.756,2149.807a36.761,36.761,0,0,0-2.552-10.026,41.231,41.231,0,0,0-12.009-16.465,41.947,41.947,0,0,0-4.117-3.053,22.884,22.884,0,0,0-2.2-1.318l-2.228-1.259,2.2,1.313a22.8,22.8,0,0,1,2.157,1.368,41.754,41.754,0,0,1,4.022,3.141,40.734,40.734,0,0,1,11.468,16.545,36.023,36.023,0,0,1,2.252,9.8Z" transform="translate(-1406.076 -1955.15)" fill="#8c757e"/><path d="M1511.867,2247.532c.008-.5.822-50.338,5.782-67.2l-.966-.283c-5,16.991-5.816,66.966-5.823,67.47Z" transform="translate(-1480.143 -1981.349)" fill="#8c757e"/><path d="M1501.013,2157.467l3.164-17.218,1.641-8.6c.565-2.863,1.124-5.727,1.776-8.572-.734,2.825-1.376,5.673-2.022,8.519l-1.889,8.55-3.659,17.126Z" transform="translate(-1463.804 -1957.416)" fill="#8c757e"/><path d="M1503.12,2311.223a95.221,95.221,0,0,0-4.773,8.9q-2.17,4.551-3.922,9.279c-.611,1.566-1.118,3.166-1.665,4.751-.476,1.609-1.012,3.2-1.416,4.829a97.738,97.738,0,0,0-2.125,9.826,97.591,97.591,0,0,1,2.367-9.757c.443-1.615,1.018-3.189,1.531-4.778.586-1.566,1.13-3.148,1.777-4.69q1.858-4.655,4.131-9.129a94.281,94.281,0,0,1,4.937-8.685Z" transform="translate(-1453.906 -2036.456)" fill="#8c757e"/><path d="M1494.412,2408.542l.986-.213c-.021-.1-2.128-10.254-4.719-54.054-.021-.262-1.942-25.178,8.953-48.027,1.775-.055,11.25-.178,18.553,3.764l.478-.888c-8.308-4.482-18.936-3.895-19.386-3.869l-.3.017-.128.266c-11.165,23.176-9.2,48.553-9.18,48.807C1492.271,2398.273,1494.389,2408.444,1494.412,2408.542Z" transform="translate(-1468.785 -2033.933)" fill="#8c757e"/><path d="M1520.8,2484.249a9.374,9.374,0,0,0,3.885-.791l-.446-.9a9.105,9.105,0,0,1-8.183-.609l-.5.876A10.462,10.462,0,0,0,1520.8,2484.249Z" transform="translate(-1489.898 -2108.176)" fill="#8c757e"/><path d="M1502.45,2443.679c.011-.26,1.175-26.267,3.5-36.743,2.337-10.517,4.379-19.221,4.4-19.308l-.98-.231c-.021.086-2.065,8.8-4.4,19.32-2.347,10.562-3.515,36.655-3.526,36.918Z" transform="translate(-1467.386 -2068.457)" fill="#8c757e"/><path d="M1496.573,2366.639c.606-2.646.97-5.248,1.338-7.883q.529-3.943.932-7.9c.55-5.268.975-10.546,1.352-15.826-.544,5.265-1.136,10.525-1.851,15.766q-.532,3.932-1.178,7.842c-.444,2.593-.9,5.227-1.56,7.722Z" transform="translate(-1453.842 -2046.459)" fill="#8c757e"/><path d="M1521.148,2492.084a5.083,5.083,0,0,0,4.4-2.124l-.87-.5c-.087.145-2.178,3.517-8.39.14l-.482.885A11.3,11.3,0,0,0,1521.148,2492.084Z" transform="translate(-1490.913 -2111.331)" fill="#8c757e"/><path d="M1539.706,2537.63l.151-1c-.592-.09-.727-.24-1.81-2a20.547,20.547,0,0,0-3.315-3.729c-.083-.066-6.245-4.941-8.419-7.562-1.985-2.394.812-7.394.838-7.444l.625-1.1-.464.142a62.883,62.883,0,0,1,3.587-7.26,41.691,41.691,0,0,0,5.053-16.154l-1-.053a41.523,41.523,0,0,1-4.933,15.728c-3.357,6.187-3.908,7.851-3.866,8.435-.576,1.1-2.788,5.729-.612,8.35,2.241,2.7,8.292,7.49,8.55,7.693a19.867,19.867,0,0,1,3.1,3.479C1538.25,2536.884,1538.605,2537.463,1539.706,2537.63Z" transform="translate(-1510.318 -2112.179)" fill="#8c757e"/><path d="M1512.88,2562.4a2,2,0,0,0,1.961-.906,5.4,5.4,0,0,0,.669-1.723,23.8,23.8,0,0,1,1.353-3.109c1.028-2.049,2.146-4.059,3.3-6.053-1.295,1.9-2.558,3.827-3.742,5.811a24.333,24.333,0,0,0-1.624,3.106l-.29.8a2.743,2.743,0,0,1-.371.642,1.089,1.089,0,0,1-1.013.456Z" transform="translate(-1483.827 -2137.023)" fill="#8c757e"/><path d="M1512.34,2489.421q1.021,7.3,1.864,14.627.419,3.665.75,7.336c.214,2.448.406,4.9.426,7.359.062-2.458-.044-4.92-.174-7.378s-.3-4.914-.5-7.365q-.586-7.36-1.366-14.7Z" transform="translate(-1478.75 -2111.265)" fill="#8c757e"/><path d="M1384.891,2312.091a23.092,23.092,0,0,0,4.789.943,23.686,23.686,0,0,0,4.835-.045,19.309,19.309,0,0,0,4.687-1.084,19.572,19.572,0,0,0,4.262-2.168,19.423,19.423,0,0,1-4.342,1.93,19,19,0,0,1-4.65.822,23.11,23.11,0,0,1-4.7-.2,22.238,22.238,0,0,1-4.52-1.134Z" transform="translate(-1292.908 -2035.831)" fill="#8c757e"/><path d="M1379.9,2424.624l8.88-5.045-.257-.44c-.09-.156-9.22-16.288-18.026-70.031l-.993.164c8.05,49.126,16.4,66.987,17.91,69.925l-7.165,4.072c-2.5-4.135-22.765-38.211-26.83-64.393-4.359-28.07-4.166-35.316-3.406-46.692l-1.005-.067c-.764,11.45-.959,18.737,3.416,46.914,4.345,27.978,26.994,64.813,27.222,65.181Z" transform="translate(-1257.169 -2036.831)" fill="#8c757e"/><path d="M1383.034,2351.667q-1.139-8.647-2.012-17.339c-.28-2.9-.536-5.795-.729-8.7a65.623,65.623,0,0,1-.122-8.72,65.928,65.928,0,0,0-.129,8.733c.11,2.912.283,5.82.479,8.727q.618,8.72,1.514,17.417Z" transform="translate(-1269.614 -2038.845)" fill="#8c757e"/><path d="M1347.786,2527.636l.54-.849a10.315,10.315,0,0,1-3.974-7.338c-.5-4.459,1.972-9.051,2.7-10.293,6.778,2.037,11.076-3.3,11.119-3.354l-.79-.624a9.523,9.523,0,0,1-10.391,2.9l-.371-.125-.213.328c-.15.231-3.683,5.735-3.057,11.28A11.1,11.1,0,0,0,1347.786,2527.636Z" transform="translate(-1223.485 -2117.937)" fill="#8c757e"/><path d="M1282.975,2543.161l45.487,1.994-45.432-3Z" transform="translate(-1158.805 -2133.47)" fill="#8c757e"/><path d="M1293.038,2506.461a17.176,17.176,0,0,0,2.89,3.479,32.154,32.154,0,0,0,3.41,2.832,50.278,50.278,0,0,0,7.589,4.466c2.637,1.291,5.373,2.331,8.078,3.424l4.073,1.613,2.045.788,1.028.379.518.178c.088.027.174.058.263.076.031.02.133.012.058-.03a1.345,1.345,0,0,0-.116-.07c.068.027.219.144.058.093-.088-.023-.174-.054-.26-.084l-.513-.192-1.016-.406-2.02-.845-4.024-1.729c-2.676-1.172-5.376-2.289-7.949-3.643a49.527,49.527,0,0,1-7.36-4.622,31.319,31.319,0,0,1-3.244-2.854,16.563,16.563,0,0,1-2.609-3.305Z" transform="translate(-1159.195 -2118.286)" fill="#8c757e"/><path d="M1366.916,2064.418a13.33,13.33,0,0,0,3.335-.1,17.581,17.581,0,0,0,3.179-.76,18.439,18.439,0,0,0,2.967-1.31,21.512,21.512,0,0,0,2.7-1.758,21.45,21.45,0,0,1-2.811,1.533,18.127,18.127,0,0,1-3,1.052,17.1,17.1,0,0,1-3.114.491,12.69,12.69,0,0,1-3.073-.145Z" transform="translate(-1258.116 -1931.125)" fill="#8c757e"/><path d="M1358.32,2122.467h.331c6.857-.07,8.234-4.249,8.293-4.426l-.962-.3.481.15-.48-.153c-.048.147-1.214,3.532-7.013,3.714l-10.375-23.278c-.076-.166-7.427-16.562-9.948-31.714l-.993.165c2.543,15.284,9.948,31.8,10.022,31.962Z" transform="translate(-1228.994 -1933.631)" fill="#8c757e"/><path d="M1353.406,2116.774l1-.132c-.039-.294-4.024-29.659-15.88-53.718l-.9.445C1349.4,2087.276,1353.367,2116.482,1353.406,2116.774Z" transform="translate(-1216.438 -1932.146)" fill="#8c757e"/><path d="M1308.867,2190.343a1.47,1.47,0,0,0,.907-.344c.491-.39,1.29-1.434,1.124-4.028a24.8,24.8,0,0,0-2.418-9.423l-.9.454a23.761,23.761,0,0,1,2.312,9.034c.146,2.279-.534,3.006-.746,3.176a.437.437,0,0,1-.313.121c-.353-.107-.768-.412-1.228-2.706a11.383,11.383,0,0,0-2.624-4.713,36.972,36.972,0,0,1-5.056-6.806c-1.989-3.4-1.667-7.758-1.508-9.1a10.626,10.626,0,0,0,8.688-5.059c1.192,1.892,4.94,6.544,13.943,8.729a41.064,41.064,0,0,1,7.5,2.606l.422-.915a42.157,42.157,0,0,0-7.682-2.671c-10.739-2.6-13.69-8.916-13.718-8.979l-.456-1.012-.464,1.01a9.568,9.568,0,0,1-8.557,5.29h-.11l-.427,0-.074.42c-.041.234-.986,5.816,1.572,10.2a37.37,37.37,0,0,0,5.2,7,10.54,10.54,0,0,1,2.359,4.208c.456,2.274.959,3.182,1.926,3.472A1.14,1.14,0,0,0,1308.867,2190.343Z" transform="translate(-1167.608 -1972.383)" fill="#8c757e"/><path d="M1274.278,2181.25a32.17,32.17,0,0,1,4.059,2.06,35.108,35.108,0,0,1,3.777,2.6,28.315,28.315,0,0,1,3.376,3.119,24.93,24.93,0,0,1,2.8,3.668,25.052,25.052,0,0,0-2.605-3.834,28.7,28.7,0,0,0-3.243-3.339,35.751,35.751,0,0,0-3.7-2.853,32.869,32.869,0,0,0-4.073-2.351Z" transform="translate(-1113.585 -1981.464)" fill="#8c757e"/><path d="M1299.306,2189.9a74.933,74.933,0,0,1,9.767-.822,37.819,37.819,0,0,1,4.9.208,14.544,14.544,0,0,1,4.743,1.2,14.675,14.675,0,0,0-4.708-1.45,37.951,37.951,0,0,0-4.929-.463,75.407,75.407,0,0,0-9.907.327Z" transform="translate(-1158.453 -1984.915)" fill="#8c757e"/></g></g></svg>