<svg xmlns="http://www.w3.org/2000/svg" width="126" height="126" viewBox="0 0 126 126">
  <g id="Grupo_55647" data-name="Grupo 55647" transform="translate(-329 -1823)">
    <rect id="Rectángulo_5346" data-name="Rectángulo 5346" width="126" height="126" transform="translate(329 1823)" fill="none"/>
    <g id="Grupo_55646" data-name="Grupo 55646" transform="translate(289.179 1734.645)">
      <path id="Trazado_105428" data-name="Trazado 105428" d="M62.637,137.55s2.121,7.88,8.228,8.239c0,0-8.155,2.815-8.293,8.833,0,0-1.6-8.441-8.043-8.743,0,0,7.5-1.137,8.106-8.329Z" transform="translate(5.357 23.314)" fill="#fcb268"/>
      <path id="Trazado_105429" data-name="Trazado 105429" d="M62.989,155.965a.931.931,0,0,1-.917-.755c-.014-.077-1.552-7.723-7.171-7.987a.93.93,0,0,1-.1-1.849c.277-.043,6.773-1.13,7.317-7.484a.931.931,0,0,1,1.005-.851h0a.927.927,0,0,1,.82.683c.02.072,2.031,7.232,7.385,7.552a.932.932,0,0,1,.876.986v0a.935.935,0,0,1-.628.829c-.074.023-7.541,2.68-7.662,7.971a.927.927,0,0,1-.854.908h-.079Zm-4.818-9.782a10.9,10.9,0,0,1,4.723,5.529,13.279,13.279,0,0,1,5.568-5.243,11.372,11.372,0,0,1-5.18-5.426,10.018,10.018,0,0,1-5.106,5.146Z" transform="translate(4.942 22.903)" fill="#3a312a"/>
      <path id="Trazado_105430" data-name="Trazado 105430" d="M54.074,143.423s1.5,5.568,5.818,5.827c0,0-5.764,1.989-5.863,6.246,0,0-1.135-5.971-5.687-6.184C48.342,149.313,53.644,148.511,54.074,143.423Z" transform="translate(0.416 28.004)" fill="#fcb268"/>
      <path id="Trazado_105431" data-name="Trazado 105431" d="M54.441,156.845a.931.931,0,0,1-.915-.759c-.009-.05-1.061-5.252-4.817-5.428a.932.932,0,0,1-.1-1.853c.183-.029,4.583-.773,4.942-5.049a.931.931,0,0,1,1.829-.158c.014.049,1.383,4.925,4.977,5.14a.932.932,0,0,1,.876.986v0a.935.935,0,0,1-.628.829c-.05.016-5.155,1.836-5.236,5.39a.934.934,0,0,1-.856.91Zm-2.808-7.169a7.927,7.927,0,0,1,2.764,3.286,9.747,9.747,0,0,1,3.34-3.1,8.336,8.336,0,0,1-3.077-3.248,7.427,7.427,0,0,1-3.029,3.058Z" transform="translate(0.003 27.589)" fill="#3a312a"/>
      <path id="Trazado_105432" data-name="Trazado 105432" d="M54.074,134.2s1.5,5.57,5.818,5.829c0,0-5.764,1.991-5.863,6.248,0,0-1.135-5.971-5.687-6.185C48.342,140.1,53.644,139.291,54.074,134.2Z" transform="translate(0.416 20.641)" fill="#fcb268"/>
      <path id="Trazado_105433" data-name="Trazado 105433" d="M54.444,147.626a.933.933,0,0,1-.915-.761c-.009-.05-1.061-5.252-4.817-5.428a.93.93,0,0,1-.1-1.849c.183-.029,4.583-.773,4.942-5.045a.937.937,0,0,1,1.836-.167c.014.049,1.383,4.926,4.977,5.142a.937.937,0,0,1,.248,1.818c-.05.018-5.155,1.836-5.236,5.39a.933.933,0,0,1-.856.908.564.564,0,0,1-.077,0Zm-2.808-7.171a7.947,7.947,0,0,1,2.764,3.284,9.759,9.759,0,0,1,3.34-3.094,8.3,8.3,0,0,1-3.077-3.25,7.431,7.431,0,0,1-3.029,3.059Z" transform="translate(0 20.229)" fill="#3a312a"/>
      <g id="Grupo_55645" data-name="Grupo 55645" transform="translate(64.242 108.355)">
        <path id="Trazado_104851" data-name="Trazado 104851" d="M69.4,145.631H83.651v-2.547h-.5a1.509,1.509,0,0,1,0-3.018h.5v-2.545h-.5a1.509,1.509,0,0,1,0-3.018h.5v-2.545H69.4Z" transform="translate(-47.007 -89.507)" fill="#ffb266"/>
        <path id="Trazado_104852" data-name="Trazado 104852" d="M127.377,112.979l-11.916-2.835a17.07,17.07,0,0,1-26.529,0l-11.917,2.835L58.884,129.234l8.25,12.773,7.651-3.585v-2.71a1.509,1.509,0,0,1,3.018,0v10.646H93.562a1.51,1.51,0,0,1,1.509,1.509v4.054h.5a1.51,1.51,0,0,1,0,3.02h-.5v2.545h.5a1.509,1.509,0,1,1,0,3.018h-.5v4.054a1.51,1.51,0,0,1-1.509,1.511H77.8v22.763l6.088-5.746a1.51,1.51,0,0,1,2.072,0l7.6,7.171,7.6-7.171a1.509,1.509,0,0,1,2.072,0l7.6,7.171,7.124-6.725v-3.4h-.5a1.51,1.51,0,0,1,0-3.02h.5v-2.545h-.5a1.509,1.509,0,0,1,0-3.018h.5v-4.054a1.509,1.509,0,1,1,3.018,0v4.054h.5a1.509,1.509,0,1,1,0,3.018h-.5v2.545h.5a1.51,1.51,0,0,1,0,3.02h-.5v3.4l5.617,5.3V135.713a1.509,1.509,0,0,1,3.018,0v2.71l7.651,3.585,8.25-12.773ZM92.616,128.63a1.51,1.51,0,1,1-2.135,2.135l-1.951-1.951-1.951,1.951a1.509,1.509,0,0,1-2.133-2.135l1.951-1.951-1.951-1.951a1.508,1.508,0,0,1,2.133-2.133l1.951,1.951,1.951-1.951a1.509,1.509,0,0,1,2.135,2.133l-1.951,1.951Zm-7.588,46.135a1.61,1.61,0,1,1,1.61-1.61A1.612,1.612,0,0,1,85.028,174.765ZM111.755,140.2a1.61,1.61,0,1,1,1.61-1.61A1.613,1.613,0,0,1,111.755,140.2Zm7.608,6.038a1.611,1.611,0,1,1,1.61-1.61A1.613,1.613,0,0,1,119.363,146.24Zm0-12.076a1.61,1.61,0,1,1,1.61-1.61A1.612,1.612,0,0,1,119.363,134.164Z" transform="translate(-55.407 -106.927)" fill="#fce8cb"/>
        <path id="Trazado_104853" data-name="Trazado 104853" d="M74.135,144.283a1.61,1.61,0,1,0,1.61,1.61A1.613,1.613,0,0,0,74.135,144.283Z" transform="translate(-44.514 -79.664)" fill="#3a312a"/>
        <path id="Trazado_104854" data-name="Trazado 104854" d="M93.225,128.422a1.611,1.611,0,1,0,1.61,1.612A1.613,1.613,0,0,0,93.225,128.422Z" transform="translate(-29.269 -92.33)" fill="#3a312a"/>
        <path id="Trazado_104855" data-name="Trazado 104855" d="M88.995,125.066a1.61,1.61,0,1,0,1.61,1.61A1.612,1.612,0,0,0,88.995,125.066Z" transform="translate(-32.647 -95.01)" fill="#3a312a"/>
        <path id="Trazado_104856" data-name="Trazado 104856" d="M93.225,121.709a1.61,1.61,0,1,0,1.61,1.61A1.613,1.613,0,0,0,93.225,121.709Z" transform="translate(-29.269 -97.691)" fill="#3a312a"/>
        <path id="Trazado_104857" data-name="Trazado 104857" d="M81.463,117.262a1.509,1.509,0,0,0-2.135,0l-1.951,1.951-1.951-1.951a1.508,1.508,0,1,0-2.133,2.133l1.951,1.951L73.292,123.3a1.509,1.509,0,1,0,2.133,2.135l1.951-1.951,1.951,1.951a1.51,1.51,0,1,0,2.135-2.135l-1.951-1.951,1.951-1.951A1.507,1.507,0,0,0,81.463,117.262Z" transform="translate(-44.254 -101.596)" fill="#3a312a"/>
        <path id="Trazado_104858" data-name="Trazado 104858" d="M150.027,129.276,130.649,111.9a1.5,1.5,0,0,0-.658-.344l-13.3-3.164a1.518,1.518,0,0,0-1.658.716,13.946,13.946,0,0,1-22.588.007,1.509,1.509,0,0,0-1.662-.723l-13.3,3.164a1.507,1.507,0,0,0-.658.344L57.453,129.276a1.509,1.509,0,0,0-.261,1.942l9.664,14.962a1.509,1.509,0,0,0,1.908.549l7.565-3.545V193.76a1.507,1.507,0,0,0,.773,1.315l.065.032c.025.013.047.027.072.038a1.481,1.481,0,0,0,.6.124h.007c.027,0,.054,0,.081,0l.056,0a1.494,1.494,0,0,0,.96-.469l7.531-7.106,7.6,7.171a1.51,1.51,0,0,0,2.072,0l7.6-7.171,7.6,7.171a1.51,1.51,0,0,0,2.072,0l7.6-7.171,7.6,7.171a1.511,1.511,0,0,0,2.547-1.1V143.184l7.563,3.545a1.509,1.509,0,0,0,1.908-.549l9.664-14.962A1.509,1.509,0,0,0,150.027,129.276Zm-18.876,10.576v-2.71a1.509,1.509,0,0,0-3.018,0V190.26l-5.617-5.3v-3.4h.5a1.509,1.509,0,1,0,0-3.018h-.5v-2.545h.5a1.51,1.51,0,0,0,0-3.02h-.5V168.92a1.509,1.509,0,1,0-3.018,0v4.054h-.5a1.509,1.509,0,0,0,0,3.018h.5v2.545h-.5a1.51,1.51,0,0,0,0,3.02h.5v3.4l-7.124,6.725-7.6-7.171a1.509,1.509,0,0,0-2.072,0l-7.6,7.171-7.6-7.171a1.51,1.51,0,0,0-2.072,0l-6.09,5.746V167.5H95.106a1.51,1.51,0,0,0,1.509-1.509v-4.054h.5a1.51,1.51,0,0,0,0-3.02h-.5V156.37h.5a1.509,1.509,0,1,0,0-3.018h-.5V149.3a1.51,1.51,0,0,0-1.509-1.509H79.347V137.143a1.509,1.509,0,0,0-3.018,0v2.709l-7.651,3.586-8.25-12.775,18.131-16.254,11.917-2.836a17.065,17.065,0,0,0,26.527,0l11.917,2.836,18.131,16.254-8.25,12.773ZM93.6,153.35h-.5a1.51,1.51,0,0,0,0,3.02h.5v2.545h-.5a1.509,1.509,0,0,0,0,3.018h.5v2.545H79.347V150.8H93.6Z" transform="translate(-56.951 -108.355)" fill="#3a312a"/>
      </g>
    </g>
  </g>
</svg>
