<svg xmlns="http://www.w3.org/2000/svg" width="126" height="126" viewBox="0 0 126 126">
  <g id="Grupo_55643" data-name="Grupo 55643" transform="translate(-329 -1628)">
    <g id="Grupo_55642" data-name="Grupo 55642" transform="translate(345 1642)">
      <g id="Page-1">
        <g id="_093---Cotton" data-name="093---Cotton">
          <g id="Icons" transform="translate(1.709 1.634)">
            <path id="Shape" d="M207.063,75.348a13.075,13.075,0,0,1-17.027,12.469,10.775,10.775,0,0,0,3.954-5.933s-8.17,1.634-11.439,0-3.269-3.269-8.17-1.634c.409-.293,4.722-3.627,1.634-11.439a7.074,7.074,0,0,1-6.538,3.269c-4.9,0-8.17,1.634-8.17,8.17,0-6.536-3.269-8.17-8.17-8.17A7.074,7.074,0,0,1,146.6,68.81c-3.121,7.8,1.194,11.129,1.634,11.439-4.9-1.634-4.9,0-8.17,1.634s-11.439,0-11.439,0a10.769,10.769,0,0,0,3.955,5.933,13.073,13.073,0,1,1-4.33-25.542,13.073,13.073,0,0,1,10.18-21.243,13.263,13.263,0,0,1,9.8,4.9,13.073,13.073,0,0,1,26.147,0,13.3,13.3,0,0,1,9.8-4.9,13.073,13.073,0,0,1,10.181,21.243A13.072,13.072,0,0,1,207.063,75.348Z" transform="translate(-115.598 -32.861)" fill="#f5f5f5"/>
            <path id="Shape-2" data-name="Shape" d="M188.742,67.4a10.775,10.775,0,0,1-3.954,5.933,12.178,12.178,0,0,1-7.485,2.237c-9.8,0-14.708,0-14.708,4.9a4.459,4.459,0,0,1-3.267,4.3,8.9,8.9,0,0,1-6.537-.032,4.426,4.426,0,0,1-3.267-4.265c0-4.9-4.9-4.9-14.708-4.9a12.169,12.169,0,0,1-7.484-2.237,10.769,10.769,0,0,1-3.955-5.933s8.17,1.634,11.439,0,3.269-3.269,8.17-1.634c-.409-.293-4.722-3.627-1.634-11.439a7.074,7.074,0,0,0,6.538,3.269c4.9,0,8.17,1.634,8.17,8.17,0-6.536,3.269-8.17,8.17-8.17a7.074,7.074,0,0,0,6.538-3.269c3.121,7.8-1.194,11.129-1.634,11.439,4.9-1.634,4.9,0,8.17,1.634S188.742,67.4,188.742,67.4Z" transform="translate(-110.35 -18.38)" fill="#8f8b66"/>
            <path id="Shape-3" data-name="Shape" d="M145.379,98.6a3.266,3.266,0,0,1-3.121,2.3,3.348,3.348,0,0,1-.963-.147,3.269,3.269,0,0,1-2.159-4.084,73.983,73.983,0,0,0,3.121-24.186,8.9,8.9,0,0,0,6.537.032A80.259,80.259,0,0,1,145.379,98.6Z" transform="translate(-99.817 -6.129)" fill="#8f8b66"/>
          </g>
          <g id="Icons_copy" data-name="Icons copy">
            <path id="Shape-4" data-name="Shape" d="M197.947,61.642a14.417,14.417,0,0,0,1.634-6.879,14.707,14.707,0,0,0-14.708-14.708,14.059,14.059,0,0,0-8.629,3.17,14.632,14.632,0,0,0-28.514,0,14.052,14.052,0,0,0-8.612-3.17A14.708,14.708,0,0,0,124.41,54.763a14.438,14.438,0,0,0,1.716,6.879,14.707,14.707,0,0,0,3.187,29.07,14.9,14.9,0,0,0,3.627-.489,14.144,14.144,0,0,0,7.812,2.123c10.426,0,13.073.327,13.073,3.269a5.754,5.754,0,0,0,3.267,5.312,71.939,71.939,0,0,1-3.006,22.648,4.9,4.9,0,1,0,9.364,2.892,82.2,82.2,0,0,0,3.448-25.509,5.769,5.769,0,0,0,3.267-5.344c0-2.942,2.647-3.269,13.073-3.269a14.144,14.144,0,0,0,7.812-2.123,14.9,14.9,0,0,0,3.627.489,14.707,14.707,0,0,0,3.269-29.07ZM160.361,125.52a1.626,1.626,0,1,1-3.1-.965,74.861,74.861,0,0,0,3.1-22.535,10.29,10.29,0,0,0,3.269,0A77.947,77.947,0,0,1,160.361,125.52Zm6.537-29.9a2.991,2.991,0,0,1-2.272,2.795h-.147a8.662,8.662,0,0,1-2.483.474,8.821,8.821,0,0,1-2.745-.524,2.91,2.91,0,0,1-2.159-2.745c0-6.536-6.144-6.536-16.34-6.536a9.6,9.6,0,0,1-8.825-4.478c2.877.358,7.142.6,9.56-.6a17.334,17.334,0,0,0,2.14-1.274c1.39-.916,1.864-1.243,4.772-.263a1.634,1.634,0,0,0,1.422-2.909s-2.827-1.961-1.8-6.928a9.621,9.621,0,0,0,5.8,1.748c4.134,0,6.536,1.062,6.536,6.536a1.634,1.634,0,1,0,3.269,0c0-5.474,2.4-6.536,6.536-6.536a9.63,9.63,0,0,0,5.8-1.748c1,4.9-1.634,6.847-1.8,6.928a1.656,1.656,0,0,0,1.422,2.991c2.909-.98,3.383-.653,4.773.261a16.924,16.924,0,0,0,2.14,1.274c2.418,1.211,6.7.965,9.592.606a9.592,9.592,0,0,1-8.857,4.4c-10.2,0-16.34,0-16.34,6.536Zm27.779-8.17h-.571a11.318,11.318,0,0,0,2.205-4.577,1.67,1.67,0,0,0-1.961-1.961c-2.942.589-8.366,1.144-10.377.147a17.9,17.9,0,0,1-1.8-1.078,6.663,6.663,0,0,0-3.431-1.4,12.729,12.729,0,0,0-.524-9.8,1.634,1.634,0,0,0-2.974-.147,5.52,5.52,0,0,1-5.082,2.483c-2.793,0-6.193.442-8.17,3.269-1.978-2.877-5.377-3.269-8.17-3.269a5.568,5.568,0,0,1-5.082-2.37,1.582,1.582,0,0,0-2.909.131,12.729,12.729,0,0,0-.522,9.8,6.651,6.651,0,0,0-3.433,1.407,18.217,18.217,0,0,1-1.8,1.078c-2.009,1-7.435.44-10.377-.147a1.729,1.729,0,0,0-2.026,1.862,11.3,11.3,0,0,0,2.207,4.577h-.573a11.439,11.439,0,0,1-2.256-22.633,6.574,6.574,0,0,0,.621,2.55,1.636,1.636,0,0,0,1.487.931,1.482,1.482,0,0,0,.687-.164,1.633,1.633,0,0,0,.784-2.174,3.268,3.268,0,0,1,1.634-4.345,1.635,1.635,0,1,0-1.388-2.959,6.33,6.33,0,0,0-1.83,1.325,11.246,11.246,0,0,1-1.373-5.213,11.438,11.438,0,0,1,11.439-11.439,10.933,10.933,0,0,1,7.191,3.006,6.538,6.538,0,0,0-1.552,2.157,1.638,1.638,0,0,0,2.974,1.373,3.269,3.269,0,0,1,4.314-1.634,1.634,1.634,0,0,0,1.34-2.974,6.705,6.705,0,0,0-2.6-.571A11.864,11.864,0,0,1,162,35.152a11.685,11.685,0,0,1,11.21,9.463,6.506,6.506,0,0,0-2.581.571,1.661,1.661,0,1,0,1.34,3.039,3.445,3.445,0,0,1,4.314,1.634,1.635,1.635,0,1,0,2.991-1.323,6.418,6.418,0,0,0-1.634-2.174,11.026,11.026,0,0,1,7.239-3.039,11.438,11.438,0,0,1,11.439,11.439,11.321,11.321,0,0,1-1.274,5.2,6.363,6.363,0,0,0-1.814-1.308,1.638,1.638,0,1,0-1.407,2.959,3.268,3.268,0,0,1,1.634,4.345,1.634,1.634,0,0,0,.785,2.174,1.475,1.475,0,0,0,.685.164,1.638,1.638,0,0,0,1.489-.931,6.542,6.542,0,0,0,.62-2.55,11.439,11.439,0,0,1-2.353,22.633Z" transform="translate(-114.577 -31.885)" fill="#3a312a"/>
          </g>
        </g>
      </g>
      <g id="Grupo_55641" data-name="Grupo 55641" transform="translate(62.993 64.834)">
        <path id="Trazado_105428" data-name="Trazado 105428" d="M167.36,74.711s2.1,7.8,8.15,8.16c0,0-8.076,2.788-8.214,8.748,0,0-1.589-8.359-7.966-8.659,0,0,7.428-1.125,8.028-8.249Z" transform="translate(-147.381 -67.83)" fill="#fcb268"/>
        <path id="Trazado_105429" data-name="Trazado 105429" d="M167.67,92.911a.921.921,0,0,1-.908-.749c-.015-.077-1.537-7.648-7.1-7.909a.921.921,0,0,1-.1-1.832c.275-.044,6.708-1.12,7.246-7.413a.924.924,0,0,1,1-.842h0a.922.922,0,0,1,.814.678c.018.07,2.009,7.16,7.313,7.479a.923.923,0,0,1,.867.976v0a.924.924,0,0,1-.621.821c-.074.025-7.469,2.654-7.589,7.9a.92.92,0,0,1-.846.9h-.079ZM162.9,83.222a10.784,10.784,0,0,1,4.675,5.476,13.167,13.167,0,0,1,5.516-5.193,11.256,11.256,0,0,1-5.131-5.374,9.91,9.91,0,0,1-5.056,5.1Z" transform="translate(-147.754 -68.2)" fill="#3a312a"/>
        <path id="Trazado_105430" data-name="Trazado 105430" d="M158.426,80.958s1.485,5.516,5.762,5.771c0,0-5.71,1.973-5.807,6.188,0,0-1.124-5.913-5.633-6.124C152.748,86.792,158,86,158.426,80.958Z" transform="translate(-151.821 -63.616)" fill="#fcb268"/>
        <path id="Trazado_105431" data-name="Trazado 105431" d="M158.752,94.213a.923.923,0,0,1-.908-.752c-.008-.05-1.05-5.2-4.771-5.375a.924.924,0,0,1-.094-1.835c.183-.028,4.538-.765,4.895-5a.923.923,0,0,1,1.812-.157c.013.049,1.368,4.878,4.928,5.092a.923.923,0,0,1,.867.976h0a.922.922,0,0,1-.621.822c-.05.017-5.1,1.819-5.186,5.339a.925.925,0,0,1-.847.9Zm-2.781-7.1a7.865,7.865,0,0,1,2.738,3.254,9.632,9.632,0,0,1,3.307-3.064,8.261,8.261,0,0,1-3.046-3.217,7.372,7.372,0,0,1-3,3.028Z" transform="translate(-152.192 -63.989)" fill="#3a312a"/>
        <path id="Trazado_105432" data-name="Trazado 105432" d="M158.426,71.151s1.485,5.516,5.762,5.774c0,0-5.71,1.971-5.807,6.188,0,0-1.124-5.915-5.633-6.127C152.748,76.989,158,76.19,158.426,71.151Z" transform="translate(-151.821 -70.232)" fill="#fcb268"/>
        <path id="Trazado_105433" data-name="Trazado 105433" d="M158.755,84.405a.924.924,0,0,1-.908-.752c-.008-.05-1.05-5.2-4.771-5.375a.921.921,0,0,1-.094-1.832c.183-.028,4.538-.765,4.895-5a.928.928,0,0,1,1.819-.166c.013.049,1.37,4.88,4.928,5.092a.928.928,0,0,1,.246,1.8c-.05.018-5.1,1.819-5.184,5.339a.924.924,0,0,1-.847.9.6.6,0,0,1-.077,0Zm-2.781-7.1a7.888,7.888,0,0,1,2.738,3.254,9.659,9.659,0,0,1,3.307-3.063,8.235,8.235,0,0,1-3.046-3.22,7.366,7.366,0,0,1-3,3.029Z" transform="translate(-152.195 -70.602)" fill="#3a312a"/>
      </g>
    </g>
    <rect id="Rectángulo_5346" data-name="Rectángulo 5346" width="126" height="126" transform="translate(329 1628)" fill="none"/>
  </g>
</svg>
