<svg xmlns="http://www.w3.org/2000/svg" width="396" height="255.66" viewBox="0 0 396 255.66"><g transform="translate(-70.76 -1942.152)"><path d="M140.128,2209.32H402.744c32.193-25.338,52.464-101.052,16.693-166.036s-125.5-83.465-170.209-35.771-58.723,31.6-115.36,43.521S23.277,2194.713,140.128,2209.32Z" transform="translate(0 -19.308)" fill="#f7f1d7"/><g transform="translate(401.374 2024.917)"><path d="M760.74,2163.943c-.233,0-.464,0-.7-.009a.3.3,0,0,1-.3-.31.31.31,0,0,1,.31-.3,27.965,27.965,0,0,0,3.59-.144.3.3,0,1,1,.063.6A28.434,28.434,0,0,1,760.74,2163.943Zm-4.3-.332a.344.344,0,0,1-.047,0,28,28,0,0,1-3.583-.8.3.3,0,1,1,.171-.581,27.417,27.417,0,0,0,3.5.785.3.3,0,0,1-.047.6Zm10.825-.439a.3.3,0,0,1-.071-.6,27.31,27.31,0,0,0,3.428-1.07.3.3,0,0,1,.218.565,27.869,27.869,0,0,1-3.5,1.093A.306.306,0,0,1,767.261,2163.172Zm-17.78-1.609a.3.3,0,0,1-.123-.027,28,28,0,0,1-3.251-1.71.3.3,0,0,1,.317-.517,27.327,27.327,0,0,0,3.18,1.673.3.3,0,0,1-.123.58Zm24.54-1a.3.3,0,0,1-.145-.569,27.535,27.535,0,0,0,3.033-1.925.3.3,0,0,1,.358.489,28.145,28.145,0,0,1-3.1,1.968A.3.3,0,0,1,774.021,2160.563Zm-30.722-2.788a.3.3,0,0,1-.191-.068,28.257,28.257,0,0,1-2.7-2.491.3.3,0,1,1,.439-.417,27.766,27.766,0,0,0,2.64,2.438.3.3,0,0,1-.191.539Zm36.575-1.488a.3.3,0,0,1-.209-.522,27.8,27.8,0,0,0,2.434-2.643.3.3,0,1,1,.471.38,28.344,28.344,0,0,1-2.487,2.7A.3.3,0,0,1,779.874,2156.288Zm-41.568-3.766a.3.3,0,0,1-.245-.125,28.146,28.146,0,0,1-1.963-3.1.3.3,0,0,1,.532-.29,27.619,27.619,0,0,0,1.92,3.034.3.3,0,0,1-.244.481Zm46.121-1.875a.3.3,0,0,1-.258-.461,27.479,27.479,0,0,0,1.668-3.182.3.3,0,1,1,.554.246,28.084,28.084,0,0,1-1.705,3.253A.3.3,0,0,1,784.427,2150.646Zm-49.586-4.486a.3.3,0,0,1-.283-.194,27.932,27.932,0,0,1-1.09-3.507.3.3,0,1,1,.589-.141,27.423,27.423,0,0,0,1.065,3.43.3.3,0,0,1-.174.391A.3.3,0,0,1,734.842,2146.16Zm-1.69-7.048a.3.3,0,0,1-.3-.272,28.526,28.526,0,0,1-.152-2.94q0-.365.009-.728a.3.3,0,0,1,.311-.3.3.3,0,0,1,.3.311q-.009.355-.009.713a27.883,27.883,0,0,0,.149,2.877.3.3,0,0,1-.27.332Zm.187-7.246a.284.284,0,0,1-.048,0,.3.3,0,0,1-.252-.346,28.018,28.018,0,0,1,.807-3.582.3.3,0,0,1,.581.172,27.4,27.4,0,0,0-.789,3.5A.3.3,0,0,1,733.339,2131.867Zm2.056-6.952a.3.3,0,0,1-.123-.027.3.3,0,0,1-.153-.4,28.047,28.047,0,0,1,1.714-3.249.3.3,0,1,1,.516.317,27.527,27.527,0,0,0-1.676,3.179A.3.3,0,0,1,735.395,2124.916Zm49.755-1.9a.3.3,0,0,1-.267-.159,27.49,27.49,0,0,0-1.914-3.041.3.3,0,0,1,.49-.355,28.058,28.058,0,0,1,1.956,3.107.3.3,0,0,1-.266.448Zm-45.96-4.277a.3.3,0,0,1-.235-.494,28.348,28.348,0,0,1,2.494-2.694.3.3,0,1,1,.417.439,27.793,27.793,0,0,0-2.44,2.636A.3.3,0,0,1,739.189,2118.738Zm41.705-1.594a.3.3,0,0,1-.22-.095,27.6,27.6,0,0,0-2.634-2.443.3.3,0,0,1,.382-.471,28.289,28.289,0,0,1,2.692,2.5.3.3,0,0,1-.22.511Zm-36.445-3.394a.3.3,0,0,1-.178-.548,28.138,28.138,0,0,1,3.1-1.959.3.3,0,1,1,.289.532,27.486,27.486,0,0,0-3.036,1.917A.3.3,0,0,1,744.449,2113.75Zm30.821-1.18a.3.3,0,0,1-.158-.045,27.461,27.461,0,0,0-3.176-1.68.3.3,0,0,1,.247-.553,28.153,28.153,0,0,1,3.246,1.718.3.3,0,0,1-.159.561Zm-24.456-2.277a.3.3,0,0,1-.108-.586,27.965,27.965,0,0,1,3.508-1.085.3.3,0,0,1,.14.589,27.362,27.362,0,0,0-3.431,1.062A.3.3,0,0,1,750.815,2110.294Zm17.839-.684a.3.3,0,0,1-.086-.012,27.335,27.335,0,0,0-3.5-.794.3.3,0,1,1,.094-.6,27.854,27.854,0,0,1,3.582.812.3.3,0,0,1-.086.593Zm-10.789-1a.3.3,0,0,1-.031-.6,28.386,28.386,0,0,1,3.668-.139.3.3,0,1,1-.016.605,28.093,28.093,0,0,0-3.59.136Z" transform="translate(-732.698 -2107.859)" fill="#a3b38d"/></g><g transform="translate(449.769 2042.081)"><path d="M838.087,2159.214a8.5,8.5,0,1,1,8.5-8.5A8.5,8.5,0,0,1,838.087,2159.214Zm0-16.1a7.6,7.6,0,1,0,7.6,7.6A7.61,7.61,0,0,0,838.087,2143.117Z" transform="translate(-829.592 -2142.223)" fill="#a3b38d"/><g transform="translate(3.81 7.323)"><path d="M838.394,2159.23a1.173,1.173,0,1,1,1.173-1.173A1.174,1.174,0,0,1,838.394,2159.23Zm0-1.75a.577.577,0,1,0,.577.577A.577.577,0,0,0,838.394,2157.48Z" transform="translate(-837.221 -2156.884)" fill="#a3b38d"/></g><g transform="translate(10.667 7.323)"><path d="M852.121,2159.23a1.173,1.173,0,1,1,1.173-1.173A1.174,1.174,0,0,1,852.121,2159.23Zm0-1.75a.577.577,0,1,0,.577.577A.577.577,0,0,0,852.121,2157.48Z" transform="translate(-850.948 -2156.884)" fill="#a3b38d"/></g><g transform="translate(7.238 3.894)"><path d="M844.084,2151.193a1.173,1.173,0,1,1,1.173,1.173A1.175,1.175,0,0,1,844.084,2151.193Zm1.75,0a.577.577,0,1,0-.576.576A.577.577,0,0,0,845.834,2151.193Z" transform="translate(-844.084 -2150.02)" fill="#a3b38d"/></g><g transform="translate(7.238 10.751)"><path d="M844.084,2164.92a1.173,1.173,0,1,1,1.173,1.173A1.175,1.175,0,0,1,844.084,2164.92Zm1.75,0a.577.577,0,1,0-.576.577A.577.577,0,0,0,845.834,2164.92Z" transform="translate(-844.084 -2163.747)" fill="#a3b38d"/></g></g><g transform="translate(276.487 2011.032)"><rect width="129.981" height="94.341" transform="translate(0 5.591)" fill="#c7c7c7" style="mix-blend-mode:multiply;isolation:isolate"/><rect width="129.981" height="94.341" transform="translate(4.193)" fill="#ffdac2"/><g transform="translate(68.019 80.766)"><rect width="6.755" height="0.595" fill="#a8a8a8"/></g><path d="M504.49,2095.486c-4.231.117-6.056-5.008-2.815-10.2a6.523,6.523,0,1,0,8.872,6.086S508.722,2095.37,504.49,2095.486Z" transform="translate(-490.087 -2082.675)" fill="#c7c7c7" style="mix-blend-mode:multiply;isolation:isolate"/><path d="M505.967,2082.391a6.522,6.522,0,1,0,6.522,6.523A6.523,6.523,0,0,0,505.967,2082.391Zm.077,9.939-2.562-6.988,5.125.077Z" transform="translate(-491.059 -2081.227)" fill="#a8a8a8"/><path d="M727.42,2246.128c-4.231.116-6.057-5.008-2.815-10.2a6.523,6.523,0,1,0,8.872,6.086S731.652,2246.011,727.42,2246.128Z" transform="translate(-601.671 -2158.077)" fill="#c7c7c7" style="mix-blend-mode:multiply;isolation:isolate"/><path d="M728.9,2233.032a6.522,6.522,0,1,0,6.522,6.522A6.523,6.523,0,0,0,728.9,2233.032Zm.077,9.938-2.562-6.988,5.125.077Z" transform="translate(-602.644 -2156.628)" fill="#a8a8a8"/><g transform="translate(29.779 14.067)"><path d="M579.333,2175.44h-36.9l-.03-.264c-1.074-9.517,4.783-33.8,7.411-37.953l-5.3-11.839.145-.145c3.263-3.263.415-16.52.386-16.653l-.079-.361h8.863l.085.153a8.467,8.467,0,0,0,13.928,0l.085-.153H576.8l-.079.361c-.029.134-2.877,13.39.385,16.653l.145.145-5.3,11.839c2.629,4.157,8.486,28.436,7.412,37.953Zm-36.362-.6H578.8c.942-9.721-4.906-33.8-7.43-37.424l-.1-.138,5.268-11.775c-3.007-3.4-.928-14.494-.48-16.689h-7.778a9.094,9.094,0,0,1-14.795,0h-7.779c.448,2.2,2.527,13.284-.48,16.689l5.268,11.775-.1.138C547.877,2141.049,542.029,2165.124,542.971,2174.845Z" transform="translate(-542.277 -2108.224)" fill="#a8a8a8"/></g><g transform="translate(66.233 13.601)"><rect width="9.473" height="0.595" fill="#a8a8a8"/></g><g transform="translate(38.513 14.986)"><path d="M577.625,2165.042H561.7l.49-.843-2.428.992,2.428.992-.49-.843h15.923l-.49.843,2.428-.992-2.428-.992Z" transform="translate(-559.764 -2137.16)" fill="#a8a8a8"/><path d="M628.72,2112l.843.49-.992-2.428-.992,2.428.843-.49v60.1l-.843-.49.992,2.428.992-2.428-.843.49Z" transform="translate(-593.707 -2110.063)" fill="#a8a8a8"/></g></g><g transform="translate(354.467 2102.578)"><path d="M690.306,2282.477c5.247-19.679-19.679-28.963-17.56,1.615,1.615,13.826,2.422,16.349,2.422,16.349s10.193,0,10.293-.706S690.306,2282.477,690.306,2282.477Z" transform="translate(-655.718 -2263.839)" fill="#056b5a"/><path d="M682.388,2279.546a.258.258,0,0,1,.364-.027l3.48,2.991.333-15.382a.258.258,0,0,1,.515.011l-.158,7.286,3.893-3.711a.258.258,0,0,1,.356.374l-4.265,4.065-.23,10.622a.257.257,0,0,1-.258.252h-.006a.258.258,0,0,1-.252-.263l.056-2.586-3.8-3.268A.258.258,0,0,1,682.388,2279.546Z" transform="translate(-660.577 -2265.114)" fill="#07947e"/><path d="M719.069,2299.881c29.266-17.964,20.587-41.175,5.247-35.725s-13.523,35.523-13.523,35.523Z" transform="translate(-674.793 -2263.347)" fill="#06806c"/><path d="M716.168,2304.054l11.288-18.208-1.828-6.92a.516.516,0,1,1,1-.263l1.579,5.977,4.918-7.934a.516.516,0,0,1,.877.544l-9.026,14.56,8.217-1.08a.516.516,0,0,1,.134,1.023l-9.054,1.189-7.226,11.656a.516.516,0,0,1-.877-.544Z" transform="translate(-677.478 -2269.911)" fill="#07947e"/><path d="M652.177,2310.771c-25.431-23.615-8.477-29.871.605-23.413s6.055,23.211,6.055,23.211Z" transform="translate(-638.782 -2274.169)" fill="#06806c"/><path d="M651.76,2299.664c-.788-1.138-1.576-2.275-2.33-3.361l.067-6.389a.516.516,0,0,0-.51-.521.523.523,0,0,0-.521.51l-.051,4.935c-2.372-3.418-4.189-6.031-4.189-6.031a.516.516,0,1,0-.847.588c2.467,3.547,5.463,7.862,8.129,11.715l-4.519-.213a.516.516,0,1,0-.049,1.031l5.306.25c3.279,4.742,5.906,8.565,6.152,8.992a.516.516,0,0,0,.99-.2c0-.156,0-.232-2.315-3.609l1.686-5.317a.516.516,0,1,0-.983-.312l-1.443,4.552Z" transform="translate(-641.036 -2275.979)" fill="#07947e"/><path d="M702.766,2313.12c6.055-14.33,4.44-22.4-3.229-23.413s-7.872,15.44-3.936,23.615Z" transform="translate(-665.958 -2276.519)" fill="#07947e"/><path d="M704.709,2295.388a.516.516,0,0,1,1.028.085l-.408,4.895,2.568-2.419a.516.516,0,0,1,.707.75l-3.4,3.207-1.078,12.943a.516.516,0,0,1-.513.473h-.044a.516.516,0,0,1-.471-.557Z" transform="translate(-670.972 -2279.148)" fill="#08a48c"/><path d="M676.573,2328.937c-4.945-9.587,7.871-11,4.642.4Z" transform="translate(-657.122 -2292.336)" fill="#07947e"/><path d="M689.636,2322.87c5.046-6.963,2.624-13.926-3.128-14.128s-6.459,8.375-4.037,14.027Z" transform="translate(-659.994 -2286.067)" fill="#08a48c"/><path d="M686.618,2317.021a.257.257,0,0,1,.357.073l2.048,3.1.777-8.5a.258.258,0,0,1,.514.047l-.431,4.712,2.906-2.314a.258.258,0,0,1,.321.4l-3.293,2.621-.341,3.727a.253.253,0,0,1-.024.265l-.216,2.359a.258.258,0,0,1-.257.234h-.024a.258.258,0,0,1-.233-.281l.225-2.454-2.4-3.637A.257.257,0,0,1,686.618,2317.021Z" transform="translate(-662.667 -2287.43)" fill="#11bda2"/><rect width="32.294" height="51.199" transform="translate(45.083 87.262) rotate(180)" fill="#76cfd9"/></g><g transform="translate(103.064 2041.882)"><path d="M232.037,2277.586a.7.7,0,0,1-.267-.067c-41.744-19.862-58.839-61.617-65.83-93.147a.7.7,0,1,1,1.365-.3c6.923,31.227,23.831,72.568,65.066,92.187a.7.7,0,0,1-.334,1.33Z" transform="translate(-150.697 -2162.695)" fill="#268f7f"/><path d="M160.788,2162.573c-7.829-5.3-9.015-17.82-1.221-20.463S170.006,2155.889,160.788,2162.573Z" transform="translate(-144.871 -2141.825)" fill="#268f7f"/><path d="M175.862,2194.152c-1.4-7.139,5.013-17.872,10.892-17.289S184.828,2191.91,175.862,2194.152Z" transform="translate(-155.574 -2159.351)" fill="#268f7f"/><path d="M155.345,2211.579c-6.338,3.574-18.542.853-19.835-4.911S150.4,2203.771,155.345,2211.579Z" transform="translate(-135.437 -2172.758)" fill="#268f7f"/><path d="M170.637,2251.422c-6.337,3.574-18.542.853-19.835-4.911S165.694,2243.613,170.637,2251.422Z" transform="translate(-143.092 -2192.701)" fill="#268f7f"/><path d="M198.369,2296.413c-4.212,3.735-13.887,3.663-15.8-.487S193.359,2291.311,198.369,2296.413Z" transform="translate(-158.929 -2217.343)" fill="#268f7f"/><path d="M221.941,2325.5c-4.212,3.735-13.887,3.663-15.8-.488S216.93,2320.4,221.941,2325.5Z" transform="translate(-170.728 -2231.901)" fill="#268f7f"/><path d="M188.5,2228.2c-1.4-7.139,5.013-17.872,10.892-17.289S197.471,2225.961,188.5,2228.2Z" transform="translate(-161.902 -2176.395)" fill="#268f7f"/><path d="M205.446,2264.1c-1.4-7.139,5.013-17.872,10.892-17.289S214.413,2261.861,205.446,2264.1Z" transform="translate(-170.382 -2194.364)" fill="#268f7f"/><path d="M227.278,2298.232c-1.9-5.427,1.907-14.546,6.571-14.752S234.039,2295.468,227.278,2298.232Z" transform="translate(-181.157 -2212.727)" fill="#268f7f"/></g><g transform="translate(90.769 2104.377)"><path d="M205.862,2327.342a.52.52,0,0,1-.19.059c-33.259,3.417-59.517-15.958-75.688-32.814a.506.506,0,0,1,.73-.7c16.015,16.693,42,35.883,74.855,32.508a.506.506,0,0,1,.294.948Z" transform="translate(-120.342 -2280.354)" fill="#07947e"/><path d="M120.53,2280.355c-6.83-.333-12.268-7.623-8.445-12.185S123.714,2272.76,120.53,2280.355Z" transform="translate(-110.821 -2266.948)" fill="#07947e"/><path d="M143.577,2292.882c-3.55-3.884-3.62-12.927.232-14.776S148.275,2288.127,143.577,2292.882Z" transform="translate(-125.885 -2272.436)" fill="#07947e"/><path d="M134.169,2312.147c-2.573,4.59-11.137,7.5-14.1,4.42S128.179,2309.18,134.169,2312.147Z" transform="translate(-115.201 -2289.073)" fill="#07947e"/><path d="M158.594,2331.017c-2.573,4.591-11.137,7.5-14.1,4.42S152.6,2328.05,158.594,2331.017Z" transform="translate(-127.427 -2298.519)" fill="#07947e"/><path d="M192.7,2348.039c-1.2,3.891-7.2,7.482-9.948,5.638S187.69,2346.769,192.7,2348.039Z" transform="translate(-146.539 -2307.436)" fill="#07947e"/><path d="M218.2,2357.151c-1.2,3.891-7.2,7.482-9.948,5.638S213.187,2355.881,218.2,2357.151Z" transform="translate(-159.301 -2311.997)" fill="#07947e"/><path d="M164.188,2309.17c-3.55-3.884-3.62-12.927.232-14.777S168.886,2304.415,164.188,2309.17Z" transform="translate(-136.202 -2280.589)" fill="#07947e"/><path d="M188.15,2324.985c-3.55-3.884-3.62-12.927.232-14.777S192.847,2320.23,188.15,2324.985Z" transform="translate(-148.195 -2288.504)" fill="#07947e"/><path d="M213.254,2339.313c-3.215-2.638-4.289-9.7-1.484-11.585S216.392,2335.063,213.254,2339.313Z" transform="translate(-160.541 -2297.245)" fill="#07947e"/></g><path d="M216.753,1983.062c-14.237,38.257,59.618,34.281,88.235,0S243.432,1911.371,216.753,1983.062Z" transform="translate(-72.172 0)" fill="#f7f1d7"/><g transform="translate(103.504 1958.772)"><g transform="translate(0 0)"><g transform="translate(12.58 7.715)"><g transform="translate(0 15.389)"><path d="M161.809,2023.773a.3.3,0,0,1-.169-.052.3.3,0,0,1-.082-.42c.339-.5.7-1.007,1.058-1.495a.3.3,0,0,1,.486.362c-.357.48-.708.975-1.042,1.471A.3.3,0,0,1,161.809,2023.773Z" transform="translate(-161.506 -2021.684)" fill="#a3b38d"/></g><g transform="translate(3.111 0.974)"><path d="M168.037,2005.3a.3.3,0,0,1-.227-.5c.724-.82,1.492-1.62,2.283-2.378a.3.3,0,1,1,.42.437c-.779.746-1.535,1.534-2.249,2.341A.3.3,0,0,1,168.037,2005.3Zm4.721-4.522a.3.3,0,0,1-.191-.538c.852-.689,1.743-1.351,2.648-1.965a.3.3,0,0,1,.34.5c-.891.6-1.768,1.256-2.607,1.934A.3.3,0,0,1,172.758,2000.782Zm5.409-3.671a.3.3,0,0,1-.149-.567c.955-.537,1.944-1.04,2.939-1.493a.3.3,0,0,1,.251.551c-.98.447-1.953.942-2.893,1.47A.3.3,0,0,1,178.167,1997.11Zm5.948-2.711a.3.3,0,0,1-.1-.588c1.032-.369,2.091-.7,3.149-.976a.3.3,0,0,1,.155.585c-1.041.275-2.084.6-3.1.961A.3.3,0,0,1,184.114,1994.4Z" transform="translate(-167.734 -1992.824)" fill="#a3b38d"/></g><g transform="translate(25.514)"><path d="M212.891,1991.752a.3.3,0,0,1-.052-.6c.6-.1,1.208-.2,1.812-.274a.3.3,0,0,1,.076.6c-.595.075-1.195.166-1.784.27A.316.316,0,0,1,212.891,1991.752Z" transform="translate(-212.588 -1990.874)" fill="#a3b38d"/></g></g><g transform="translate(5.988 8.414)"><g transform="translate(47.716)"><path d="M245.906,1993.335a.293.293,0,0,1-.082-.011c-.577-.163-1.165-.315-1.746-.45a.3.3,0,1,1,.137-.59c.591.137,1.188.291,1.774.457a.3.3,0,0,1-.082.594Z" transform="translate(-243.843 -1992.275)" fill="#a3b38d"/></g><g transform="translate(0.058 1.63)"><path d="M188.069,2071.262a.3.3,0,0,1,0-.606c1.22-.017,2.451-.091,3.659-.221a.3.3,0,0,1,.065.6c-1.226.132-2.476.208-3.715.224Zm-3.692-.122h-.024c-1.236-.1-2.478-.258-3.693-.473a.3.3,0,0,1,.106-.6c1.2.212,2.419.369,3.636.466a.3.3,0,0,1-.024.6Zm11.028-.672a.3.3,0,0,1-.06-.6c1.193-.245,2.387-.551,3.551-.909a.3.3,0,1,1,.178.579c-1.181.364-2.394.675-3.607.924A.349.349,0,0,1,195.406,2070.468Zm-18.295-.615a.3.3,0,0,1-.081-.011c-1.192-.33-2.381-.723-3.536-1.166a.3.3,0,0,1,.217-.566c1.137.436,2.308.823,3.481,1.148a.3.3,0,0,1-.081.595Zm25.349-1.557a.3.3,0,0,1-.116-.583c1.122-.467,2.237-.994,3.313-1.568a.3.3,0,1,1,.285.534c-1.092.583-2.225,1.119-3.365,1.593A.3.3,0,0,1,202.459,2068.3Zm-32.24-1.088a.3.3,0,0,1-.135-.032c-1.106-.551-2.2-1.162-3.251-1.817a.3.3,0,0,1,.321-.515c1.034.645,2.111,1.247,3.2,1.789a.3.3,0,0,1-.135.574Zm38.753-2.384a.3.3,0,0,1-.168-.555c1.015-.672,2.01-1.4,2.958-2.167a.3.3,0,0,1,.381.471c-.962.778-1.973,1.518-3,2.2A.3.3,0,0,1,208.972,2064.825Zm-45.018-1.52a.3.3,0,0,1-.184-.062c-.982-.75-1.94-1.556-2.849-2.4a.3.3,0,0,1,.412-.445c.895.828,1.839,1.623,2.805,2.361a.3.3,0,0,1-.184.544Zm50.759-3.12a.3.3,0,0,1-.212-.52c.871-.852,1.712-1.755,2.5-2.685a.3.3,0,0,1,.463.392c-.8.944-1.652,1.861-2.537,2.726A.3.3,0,0,1,214.713,2060.186Zm-56.176-1.894a.3.3,0,0,1-.226-.1c-.825-.922-1.615-1.9-2.348-2.89a.3.3,0,0,1,.488-.359c.722.98,1.5,1.937,2.312,2.846a.3.3,0,0,1-.226.5Zm60.943-3.742a.3.3,0,0,1-.248-.476c.7-1,1.35-2.046,1.947-3.106a.3.3,0,1,1,.528.3c-.606,1.078-1.272,2.14-1.978,3.155A.3.3,0,0,1,219.48,2054.55Zm-65.321-2.2a.3.3,0,0,1-.26-.147c-.636-1.061-1.228-2.165-1.76-3.281a.3.3,0,1,1,.547-.261c.523,1.1,1.107,2.185,1.733,3.23a.3.3,0,0,1-.26.458Zm68.94-4.233a.309.309,0,0,1-.123-.026.3.3,0,0,1-.154-.4c.493-1.114.938-2.264,1.323-3.419a.3.3,0,1,1,.575.191c-.39,1.173-.843,2.341-1.344,3.473A.3.3,0,0,1,223.1,2048.116Zm-72.115-2.429a.3.3,0,0,1-.285-.2c-.423-1.162-.795-2.359-1.1-3.556a.3.3,0,1,1,.587-.152c.305,1.179.671,2.356,1.087,3.5a.3.3,0,0,1-.181.388A.308.308,0,0,1,150.984,2045.687Zm74.446-4.574a.293.293,0,0,1-.068-.008.3.3,0,0,1-.228-.363c.272-1.185.49-2.4.648-3.607a.3.3,0,0,1,.6.078c-.161,1.228-.382,2.46-.658,3.664A.3.3,0,0,1,225.43,2041.113Zm-76.3-2.571a.3.3,0,0,1-.3-.255c-.194-1.219-.332-2.464-.41-3.7a.3.3,0,0,1,.6-.038c.077,1.217.213,2.442.4,3.643a.3.3,0,0,1-.252.347A.332.332,0,0,1,149.133,2038.542Zm77.255-4.746h-.011a.3.3,0,0,1-.292-.313c.017-.464.025-.936.025-1.4,0-.753-.022-1.515-.065-2.265a.3.3,0,0,1,.605-.035c.044.762.066,1.536.066,2.3,0,.472-.008.951-.025,1.422A.3.3,0,0,1,226.388,2033.8Zm-.429-7.369a.3.3,0,0,1-.3-.257c-.185-1.2-.431-2.413-.729-3.593a.3.3,0,0,1,.587-.149c.3,1.2.553,2.426.741,3.65a.3.3,0,0,1-.253.345A.372.372,0,0,1,225.959,2026.427Zm-1.813-7.155a.3.3,0,0,1-.285-.2c-.41-1.145-.881-2.285-1.4-3.386a.3.3,0,1,1,.548-.258c.526,1.119,1,2.276,1.421,3.44a.3.3,0,0,1-.183.387A.294.294,0,0,1,224.147,2019.272Zm-3.138-6.676a.3.3,0,0,1-.261-.149c-.62-1.047-1.3-2.076-2.016-3.061a.3.3,0,1,1,.49-.357c.729,1,1.417,2.046,2.047,3.109a.3.3,0,0,1-.26.458Zm-4.347-5.965a.3.3,0,0,1-.227-.1c-.807-.912-1.667-1.8-2.556-2.628a.3.3,0,1,1,.414-.443c.9.845,1.777,1.743,2.6,2.669a.3.3,0,0,1-.227.5Zm-5.391-5.043a.3.3,0,0,1-.185-.063c-.964-.745-1.976-1.452-3.005-2.1a.3.3,0,1,1,.323-.512c1.046.659,2.073,1.377,3.053,2.134a.3.3,0,0,1-.185.543Zm-6.246-3.937a.3.3,0,0,1-.136-.032c-1.087-.549-2.214-1.052-3.349-1.494a.3.3,0,1,1,.22-.564c1.152.45,2.3.96,3.4,1.518a.3.3,0,0,1-.137.573Z" transform="translate(-148.424 -1995.538)" fill="#a3b38d"/></g><g transform="translate(0 34.791)"><path d="M148.611,2064.352h-.01a.3.3,0,0,1-.293-.313c.019-.607.053-1.223.1-1.829a.3.3,0,0,1,.6.047c-.047.6-.08,1.2-.1,1.8A.3.3,0,0,1,148.611,2064.352Z" transform="translate(-148.308 -2061.931)" fill="#a3b38d"/></g></g><g transform="translate(12.58 7.715)"><g transform="translate(0 15.389)"><path d="M161.809,2023.773a.3.3,0,0,1-.169-.052.3.3,0,0,1-.082-.42c.339-.5.7-1.007,1.058-1.495a.3.3,0,0,1,.486.362c-.357.48-.708.975-1.042,1.471A.3.3,0,0,1,161.809,2023.773Z" transform="translate(-161.506 -2021.684)" fill="#a3b38d"/></g><g transform="translate(3.111 0.974)"><path d="M168.037,2005.3a.3.3,0,0,1-.227-.5c.724-.82,1.492-1.62,2.283-2.378a.3.3,0,1,1,.42.437c-.779.746-1.535,1.534-2.249,2.341A.3.3,0,0,1,168.037,2005.3Zm4.721-4.522a.3.3,0,0,1-.191-.538c.852-.689,1.743-1.351,2.648-1.965a.3.3,0,0,1,.34.5c-.891.6-1.768,1.256-2.607,1.934A.3.3,0,0,1,172.758,2000.782Zm5.409-3.671a.3.3,0,0,1-.149-.567c.955-.537,1.944-1.04,2.939-1.493a.3.3,0,0,1,.251.551c-.98.447-1.953.942-2.893,1.47A.3.3,0,0,1,178.167,1997.11Zm5.948-2.711a.3.3,0,0,1-.1-.588c1.032-.369,2.091-.7,3.149-.976a.3.3,0,0,1,.155.585c-1.041.275-2.084.6-3.1.961A.3.3,0,0,1,184.114,1994.4Z" transform="translate(-167.734 -1992.824)" fill="#a3b38d"/></g><g transform="translate(25.514)"><path d="M212.891,1991.752a.3.3,0,0,1-.052-.6c.6-.1,1.208-.2,1.812-.274a.3.3,0,0,1,.076.6c-.595.075-1.195.166-1.784.27A.316.316,0,0,1,212.891,1991.752Z" transform="translate(-212.588 -1990.874)" fill="#a3b38d"/></g></g><g transform="translate(38.322)"><path d="M225.632,1990.224l-4.807-3.493-4.808,3.493,1.836-5.651-4.807-3.493h5.943l1.837-5.651,1.836,5.651H228.6l-4.807,3.493Zm-4.807-4.242,3.655,2.655-1.4-4.3,3.656-2.655h-4.518l-1.4-4.3-1.4,4.3h-4.518l3.656,2.655-1.4,4.3Z" transform="translate(-213.046 -1975.428)" fill="#a3b38d"/></g><g transform="translate(0 25.407)"><path d="M144.814,2043.288a8.5,8.5,0,1,1,8.5-8.5A8.5,8.5,0,0,1,144.814,2043.288Zm0-16.1a7.6,7.6,0,1,0,7.6,7.6A7.61,7.61,0,0,0,144.814,2027.191Z" transform="translate(-136.319 -2026.297)" fill="#a3b38d"/><g transform="translate(4.407 7.323)"><path d="M146.315,2043.3a1.173,1.173,0,1,1,1.173-1.172A1.174,1.174,0,0,1,146.315,2043.3Zm0-1.75a.577.577,0,1,0,.577.577A.577.577,0,0,0,146.315,2041.554Z" transform="translate(-145.142 -2040.958)" fill="#a3b38d"/></g><g transform="translate(10.07 7.323)"><path d="M157.654,2043.3a1.173,1.173,0,1,1,1.173-1.172A1.174,1.174,0,0,1,157.654,2043.3Zm0-1.75a.577.577,0,1,0,.577.577A.577.577,0,0,0,157.654,2041.554Z" transform="translate(-156.481 -2040.958)" fill="#a3b38d"/></g></g></g></g><path d="M7.932,0H304.867A7.932,7.932,0,0,1,312.8,7.932v0a0,0,0,0,1,0,0H0a0,0,0,0,1,0,0v0A7.932,7.932,0,0,1,7.932,0Z" transform="translate(102.401 2189.881)" fill="#d4c99b"/><g transform="translate(148.37 1948.305)"><path d="M322.323,2243.086s-11.861-.744-22.262-.937a41.46,41.46,0,0,1-31.92-16.006c-42-53.928-27.463-144.419,26.462-176.4-6.289,19.567-3.494,47.52-3.494,47.52-29.351,30.748-21.663,118.8,24.459,111.812C345.617,2206.98,322.323,2243.086,322.323,2243.086Z" transform="translate(-234.97 -2002.159)" fill="#8c757e"/><rect width="9.085" height="20.033" transform="translate(51.739 29.303) rotate(-30)" fill="#8c8c8c"/><path d="M362.326,2223.71c-33.543-24.692-57.537-146.286-18.4-212.675l69.883,213.141Z" transform="translate(-274.973 -1982.783)" fill="#ffdac2"/><path d="M364.194,1982.722a159.164,159.164,0,0,1,14.579-25.742,5.919,5.919,0,0,1,10.474,1.6L452.479,2155.8c-12.113,11.181-2.8,39.6-2.8,39.6l-15.607.466Z" transform="translate(-295.244 -1954.47)" fill="#878787"/><rect width="12.113" height="60.565" transform="translate(42.954 136.381) rotate(-13.011)" fill="#2e8c96"/></g><g transform="translate(356.735 1980.109)"><path d="M706.813,2038.541a3.315,3.315,0,0,1,0-6.406,3.317,3.317,0,0,0-6.016-1.931,3.5,3.5,0,0,0-2.936-1.563,3.454,3.454,0,0,0-3.286,2.271h-.115a3.454,3.454,0,0,0-3.286-2.271,3.539,3.539,0,0,1-6.052,0,3.454,3.454,0,0,0-3.286,2.271h-.115a3.454,3.454,0,0,0-3.286-2.271,3.539,3.539,0,0,1-6.052,0,3.454,3.454,0,0,0-3.286,2.271h-.115a3.454,3.454,0,0,0-3.286-2.271,3.539,3.539,0,0,1-6.052,0,3.454,3.454,0,0,0-3.286,2.271h-.115a3.513,3.513,0,0,0-6.543-.076,64.215,64.215,0,0,1-6.375,13.5,3.315,3.315,0,0,1,0,6.406,3.317,3.317,0,0,1,0,5.8,3.316,3.316,0,0,1,0,6.406,3.317,3.317,0,0,1,0,5.8,3.315,3.315,0,0,1,0,6.406,3.317,3.317,0,0,1,0,5.8,3.316,3.316,0,0,1,0,6.406,3.317,3.317,0,0,0,6.178,1.68,3.4,3.4,0,0,0,3.454,3.095,3.442,3.442,0,0,0,3.343-2.46,3.442,3.442,0,0,0,3.343,2.46,3.539,3.539,0,0,1,6.052,0,3.5,3.5,0,0,1,6.687,0,3.538,3.538,0,0,1,6.052,0,3.5,3.5,0,0,1,6.687,0,3.539,3.539,0,0,1,6.052,0,3.5,3.5,0,0,1,6.687,0,3.448,3.448,0,0,0,3.326-2.392,37.629,37.629,0,0,1,5.626-8.79,3.317,3.317,0,0,1,0-5.8,3.315,3.315,0,0,1,0-6.406,3.317,3.317,0,0,1,0-5.8,3.316,3.316,0,0,1,0-6.406,3.317,3.317,0,0,1,0-5.8,3.315,3.315,0,0,1,0-6.406,3.318,3.318,0,0,1,0-5.8Z" transform="translate(-643.324 -2023.399)" fill="#c7c7c7" style="mix-blend-mode:multiply;isolation:isolate"/><path d="M718.006,2028.047a3.315,3.315,0,0,1,0-6.406,3.317,3.317,0,0,0-6.016-1.931,3.5,3.5,0,0,0-2.936-1.563,3.455,3.455,0,0,0-3.286,2.271h-.115a11.692,11.692,0,0,1-9.338-2.271,3.455,3.455,0,0,0-3.286,2.271h-.115a3.455,3.455,0,0,0-3.286-2.271,3.538,3.538,0,0,1-6.052,0,3.454,3.454,0,0,0-3.286,2.271h-.115a11.693,11.693,0,0,1-9.338-2.271,3.455,3.455,0,0,0-3.286,2.271h-.115a3.513,3.513,0,0,0-6.543-.076,64.155,64.155,0,0,1-6.375,13.5,3.316,3.316,0,0,1,0,6.406,3.317,3.317,0,0,1,0,5.8,3.316,3.316,0,0,1,0,6.406,3.318,3.318,0,0,1,0,5.8,3.315,3.315,0,0,1,0,6.406,3.318,3.318,0,0,1,0,5.8,3.315,3.315,0,0,1,0,6.406,3.317,3.317,0,0,0,6.178,1.681,3.4,3.4,0,0,0,3.453,3.095,3.5,3.5,0,0,1,6.687,0,3.539,3.539,0,0,1,6.052,0,3.5,3.5,0,0,1,6.687,0,3.538,3.538,0,0,1,6.052,0,3.5,3.5,0,0,1,6.687,0,3.538,3.538,0,0,1,6.052,0,3.5,3.5,0,0,1,6.687,0,3.447,3.447,0,0,0,3.325-2.392,37.648,37.648,0,0,1,5.627-8.789,3.317,3.317,0,0,1,0-5.8,3.315,3.315,0,0,1,0-6.406,3.317,3.317,0,0,1,0-5.8,3.315,3.315,0,0,1,0-6.406,3.317,3.317,0,0,1,0-5.8,3.316,3.316,0,0,1,0-6.406,3.317,3.317,0,0,1,0-5.8Z" transform="translate(-648.927 -2018.147)" fill="#f04f5f"/><circle cx="2.329" cy="2.329" r="2.329" transform="translate(11.349 7.085)" fill="#ffb780"/><circle cx="2.329" cy="2.329" r="2.329" transform="translate(26.529 7.085)" fill="#ffb780"/><circle cx="2.329" cy="2.329" r="2.329" transform="translate(41.709 7.085)" fill="#ffb780"/><circle cx="2.329" cy="2.329" r="2.329" transform="translate(56.889 7.085)" fill="#ffb780"/><circle cx="2.329" cy="2.329" r="2.329" transform="translate(11.349 28.218)" fill="#ffb780"/><circle cx="2.329" cy="2.329" r="2.329" transform="translate(26.529 28.218)" fill="#ffb780"/><circle cx="2.329" cy="2.329" r="2.329" transform="translate(41.709 28.218)" fill="#ffb780"/><circle cx="2.329" cy="2.329" r="2.329" transform="translate(56.889 28.218)" fill="#ffb780"/><circle cx="2.329" cy="2.329" r="2.329" transform="translate(11.349 52.03)" fill="#ffb780"/><circle cx="2.329" cy="2.329" r="2.329" transform="translate(26.529 52.03)" fill="#ffb780"/><circle cx="2.329" cy="2.329" r="2.329" transform="translate(41.709 52.03)" fill="#ffb780"/><circle cx="2.329" cy="2.329" r="2.329" transform="translate(56.889 52.03)" fill="#ffb780"/><g transform="translate(19.088 39.827)"><circle cx="2.329" cy="2.329" r="2.329" fill="#ffb780"/><circle cx="2.329" cy="2.329" r="2.329" transform="translate(15.18)" fill="#ffb780"/><circle cx="2.329" cy="2.329" r="2.329" transform="translate(30.36)" fill="#ffb780"/></g><g transform="translate(19.088 18.396)"><circle cx="2.329" cy="2.329" r="2.329" fill="#ffb780"/><circle cx="2.329" cy="2.329" r="2.329" transform="translate(15.18)" fill="#ffb780"/><circle cx="2.329" cy="2.329" r="2.329" transform="translate(30.36)" fill="#ffb780"/></g></g><rect width="15.607" height="54.583" rx="7.804" transform="translate(223.919 1973.123) rotate(-19.102)" fill="#5c5c5c" style="mix-blend-mode:screen;isolation:isolate"/><rect width="15.607" height="14.57" rx="7.285" transform="translate(245.235 2034.446) rotate(-19.102)" fill="#5c5c5c" style="mix-blend-mode:screen;isolation:isolate"/><path d="M380.167,2271.235c5.905.263,10.425.546,10.425.546l51.48.466,15.607-.466s-9.318-28.419,2.8-39.6l-40.113-125.107C413.574,2197.573,387.129,2256.953,380.167,2271.235Z" transform="translate(-154.869 -82.549)" fill="#f5ceb5" style="mix-blend-mode:multiply;isolation:isolate"/><g transform="translate(113.98 2133.05)"><path d="M208.9,2352.983a28.309,28.309,0,0,0-26.269,38.818l52.514.063a28.309,28.309,0,0,0-26.244-38.88Z" transform="translate(-168.964 -2338.685)" fill="#f04f5f"/><path d="M235.147,2392.187a28.315,28.315,0,0,0-21.961-38.558c7.291,15.855-11.683,30.084-32.549,26.8-.015.387-.026.775-.026,1.166a28.22,28.22,0,0,0,2.023,10.526Z" transform="translate(-168.964 -2339.008)" fill="#ccac97" style="mix-blend-mode:multiply;isolation:isolate"/><rect width="66.922" height="6.529" rx="3.264" transform="translate(6.478 49.663)" fill="#f04f5f"/><g transform="translate(0 27.809)"><path d="M184.687,2393.8l-.367,1.215-13.613-4.15.367-1.216Z" transform="translate(-164.007 -2384.847)" fill="#878787"/><circle cx="3.99" cy="3.99" r="3.99" transform="translate(0 7.903) rotate(-82.025)" fill="#f04f5f"/><path d="M159.27,2383.17a3.988,3.988,0,0,1,5.305,4.853,4.027,4.027,0,0,1-.3.73,3.989,3.989,0,1,0-5-5.583Z" transform="translate(-158.283 -2380.548)" fill="#c7c7c7" style="mix-blend-mode:multiply;isolation:isolate"/></g><g transform="translate(56.477 25.265)"><path d="M270.752,2391.526l-.384-1.21,13.578-4.262.384,1.21Z" transform="translate(-270.368 -2380.503)" fill="#878787"/><circle cx="3.99" cy="3.99" r="3.99" transform="matrix(0.817, -0.577, 0.577, 0.817, 10.684, 4.606)" fill="#f04f5f"/><path d="M302.859,2383.421a3.988,3.988,0,0,1-7.282-1.782,3.989,3.989,0,1,0,7.282,1.782Z" transform="translate(-282.649 -2378.293)" fill="#c7c7c7" style="mix-blend-mode:multiply;isolation:isolate"/></g><g transform="translate(43.438 32.192)"><circle cx="3.99" cy="3.99" r="3.99" transform="translate(0 0.359) rotate(-2.581)" fill="#2e8c96"/><path d="M252.569,2394.5a3.988,3.988,0,0,1-7.119-1.009,4.02,4.02,0,0,1-.163-.773,3.989,3.989,0,1,0,7.282,1.782Z" transform="translate(-244.437 -2390.763)" fill="#c7c7c7" style="mix-blend-mode:multiply;isolation:isolate"/></g><g transform="translate(27.468 37.622)"><circle cx="3.99" cy="3.99" r="3.99" transform="translate(0 5.196) rotate(-40.63)" fill="#11bda2"/><path d="M223.52,2408.294a3.988,3.988,0,0,1-7.119-1.009,4.017,4.017,0,0,1-.163-.773,3.989,3.989,0,1,0,7.282,1.782Z" transform="translate(-213.928 -2403.1)" fill="#c7c7c7" style="mix-blend-mode:multiply;isolation:isolate"/></g><g transform="translate(20.944 24.659)"><circle cx="3.99" cy="3.99" r="3.99" transform="matrix(0.232, -0.973, 0.973, 0.232, 0, 7.763)" fill="#ffdec8"/><path d="M208.814,2380.7a3.987,3.987,0,0,1-7.282-1.782,3.989,3.989,0,1,0,7.282,1.782Z" transform="translate(-200.042 -2376.324)" fill="#c7c7c7" style="mix-blend-mode:multiply;isolation:isolate"/></g><g transform="translate(50.74 0)"><rect width="1.27" height="21.4" transform="translate(4.553 7.191) rotate(12.283)" fill="#878787"/><circle cx="3.99" cy="3.99" r="3.99" transform="matrix(0.966, -0.258, 0.258, 0.966, 1.006, 2.059)" fill="#11bda2"/><path d="M268.695,2326.818a3.987,3.987,0,0,1-4.421,5.67,4.014,4.014,0,0,1-.752-.244,3.989,3.989,0,1,0,5.173-5.426Z" transform="translate(-261.204 -2325.589)" fill="#c7c7c7" style="mix-blend-mode:multiply;isolation:isolate"/></g></g><g transform="translate(251.291 2051.797)"><path d="M656.323,2215.148c-.593.889-6.618,17.878-7.31,19.952s7.31,6.322,9.087,6.519S656.323,2215.148,656.323,2215.148Z" transform="translate(-540.706 -2188.441)" fill="#ff8762"/><path d="M495.772,2416.372a23.633,23.633,0,0,1-1.087,5.482c-.79,1.877-1.383,3.112-.642,4.791h18.767c-3.556-2.074-6.766-3.062-8.643-4.495s-1.828-5.58-1.828-5.58Z" transform="translate(-462.989 -2289.161)" fill="#ff8762"/><path d="M482.243,2297.117c.444,8.149,2.074,15.854,1.333,20.6s4.78,39.115,4.78,39.115a23.176,23.176,0,0,0,10.223-.593s-.137-29.287.308-34.029-2.963-27.756-2.963-27.756Z" transform="translate(-457.252 -2228.135)" fill="#206169"/><path d="M504.168,2427.68a2.7,2.7,0,0,1-.292-.261c-3.72,1.172-3.277,1.451-6.524,1.018a25.813,25.813,0,0,1-2.888-.529c-.67,1.594-1.09,2.749-.421,4.267h18.767C509.255,2430.1,506.045,2429.112,504.168,2427.68Z" transform="translate(-462.989 -2294.69)" fill="#543228"/><path d="M462.668,2416.372a23.65,23.65,0,0,1-1.086,5.482c-.79,1.877-1.383,3.112-.642,4.791h18.767c-3.556-2.074-6.766-3.062-8.643-4.495s-1.827-5.58-1.827-5.58Z" transform="translate(-446.42 -2289.161)" fill="#ff8762"/><path d="M455.742,2298.9c.444,8.149,2.074,15.853,1.334,20.595s1.481,38.967,1.481,38.967a23.176,23.176,0,0,0,10.224-.593s1.926-37.041,2.37-41.782,3.112-18.372,3.112-18.372Z" transform="translate(-443.988 -2229.768)" fill="#287982"/><path d="M468.7,2183.214c.461-8.824,8.824-11.459,10.272-11.195-.856-4.412.461-10.536,7.968-10.339a6.729,6.729,0,0,1,5.137,9.68c-1.515,2.5-8.627,4.874-8.956,5.071s-5.6,4.938-5.795,5.071S468.7,2183.214,468.7,2183.214Z" transform="translate(-450.472 -2161.676)" fill="#2b1710"/><path d="M442.743,2218.516a39.262,39.262,0,0,1-8.742,3.062c-1.63-2.173,7.951-18.076,13.581-20.743a27.057,27.057,0,0,1,11.359-2.437l9.614,3.26c2.733,2.437,5.5,8.659,7.869,14.981s3.482,7.8,4.667,9.013c-1.877,2.074-6.149,3.136-6.149,3.136s-4.05-5.729-4.445-3.951.592,6.322,2.272,11.063,2.305,12.051,2.305,12.051l-30.555.3c-.79-3.062-.4-13.631,1.975-18.965s1.58-15.508,1.58-15.508Z" transform="translate(-433.014 -2180.055)" fill="#6295c7"/><path d="M496.762,2171.552c-3.227-.3-6.881,2.536-7.178,3.951-.823-2.205-2.634-.494-2.634.955a2.214,2.214,0,0,0,1.91,2.272c-.2,3.292-3.26,6.058-4.741,6.223-.131,3.951,4.972,9.878,6.651,10.4,2.864-2.272,2.963-7.145,2.963-7.145-1.778-.461-1.251-2.9-.691-3.687,1.448.691,2.272.2,3.49-.856s1.843-3.852,1.975-4.313,1.415-2.14,1.448-3.622S499.626,2171.256,496.762,2171.552Z" transform="translate(-458.19 -2166.609)" fill="#ff8762"/><path d="M504.247,2182.46c-.18.427-.516.693-.751.594s-.279-.525-.1-.953.516-.693.751-.594S504.427,2182.033,504.247,2182.46Z" transform="translate(-467.786 -2171.592)" fill="#2b1710"/><path d="M511.3,2184.042c-.18.427-.516.693-.751.595s-.278-.526-.1-.953.516-.694.751-.595S511.481,2183.615,511.3,2184.042Z" transform="translate(-471.316 -2172.384)" fill="#2b1710"/><path d="M503.239,2190.571c2.513-.136,2.847.165,2.575.733-.346.074.2.95-.871.941S503.239,2190.571,503.239,2190.571Z" transform="translate(-467.762 -2176.123)" fill="#f54a4a"/><path d="M492.718,2182.563a.929.929,0,0,1-.844-1,.63.63,0,0,1,.284-.446.926.926,0,0,1,.579-.12,1.3,1.3,0,0,0-.628-.854.665.665,0,0,0-.686.2.074.074,0,1,1-.1-.112.8.8,0,0,1,.836-.223,1.479,1.479,0,0,1,.741,1.069.074.074,0,0,1-.021.062.076.076,0,0,1-.062.021.847.847,0,0,0-.581.086.48.48,0,0,0-.218.343.782.782,0,0,0,.719.834.074.074,0,1,1-.021.147Z" transform="translate(-461.786 -2170.827)" fill="#e0b3a8" style="mix-blend-mode:multiply;isolation:isolate"/><path d="M498.133,2194.314a.085.085,0,0,1-.026-.009,5.866,5.866,0,0,1-2.2-2.237.074.074,0,0,1,.037-.1.075.075,0,0,1,.1.037,5.827,5.827,0,0,0,2.141,2.169.074.074,0,0,1-.047.138Z" transform="translate(-464.087 -2176.836)" fill="#e0b3a8" style="mix-blend-mode:multiply;isolation:isolate"/><path d="M504.748,2191.1a5.261,5.261,0,0,1-2.442-1.012.074.074,0,0,1,0-.1.075.075,0,0,1,.1,0,4.645,4.645,0,0,0,3.156.959.074.074,0,0,1,.05.139A1.936,1.936,0,0,1,504.748,2191.1Z" transform="translate(-467.283 -2175.834)" fill="#2b1710"/><path d="M507.542,2185.5a.074.074,0,0,1,0-.147,5.649,5.649,0,0,0,1.39-.28c.012-.084-.182-.292-.324-.445a1.95,1.95,0,0,1-.423-.562,3.54,3.54,0,0,1,.865-2.461.074.074,0,0,1,.114.095,3.428,3.428,0,0,0-.839,2.32,1.943,1.943,0,0,0,.391.508c.236.254.381.416.369.552a.158.158,0,0,1-.064.113,5.85,5.85,0,0,1-1.462.309Z" transform="translate(-469.884 -2171.638)" fill="#2b1710"/><path d="M506.921,2188.814a.073.073,0,0,1-.049-.029.074.074,0,0,1,.015-.1.792.792,0,0,1,.645-.116.074.074,0,0,1,.052.091.075.075,0,0,1-.091.052.658.658,0,0,0-.517.092A.073.073,0,0,1,506.921,2188.814Z" transform="translate(-469.573 -2175.123)" fill="#2b1710"/><path d="M506.27,2188.441a.072.072,0,0,1-.045-.025.391.391,0,0,1-.109-.341.537.537,0,0,1,.276-.319.074.074,0,0,1,.065.133s-.169.086-.2.217a.253.253,0,0,0,.077.213.074.074,0,0,1-.008.1A.074.074,0,0,1,506.27,2188.441Z" transform="translate(-469.198 -2174.726)" fill="#e0b3a8" style="mix-blend-mode:multiply;isolation:isolate"/><path d="M504.853,2194.481a2.946,2.946,0,0,1-.906-.285.074.074,0,1,1,.07-.13,2.878,2.878,0,0,0,.916.275.076.076,0,0,1,.066.081.074.074,0,0,1-.082.066Z" transform="translate(-468.096 -2177.884)" fill="#e0b3a8" style="mix-blend-mode:multiply;isolation:isolate"/><path d="M500.733,2178.148a4.777,4.777,0,0,1,3.556.519C503.771,2176.815,501.524,2177.16,500.733,2178.148Z" transform="translate(-466.507 -2169.518)" fill="#2b1710"/><path d="M511.512,2181.064c1.259.247,1.457.815,1.457.963C513.117,2180.447,511.783,2180.718,511.512,2181.064Z" transform="translate(-471.903 -2171.248)" fill="#2b1710"/><path d="M507.824,2166.922a.1.1,0,0,1-.025,0,.126.126,0,0,1-.1-.148,3.7,3.7,0,0,0-1.693-3.657.126.126,0,0,1,.143-.208,4.021,4.021,0,0,1,1.8,3.916A.126.126,0,0,1,507.824,2166.922Z" transform="translate(-469.12 -2162.281)" fill="#ff8762"/><path d="M493.283,2186.043a.626.626,0,1,1-.626-.626A.626.626,0,0,1,493.283,2186.043Z" transform="translate(-462.152 -2173.559)" fill="#fff"/><g transform="translate(15.681 51.648)"><path d="M466.849,2272.535s.362-1.183.633-2.231a4.313,4.313,0,0,1,2.391-2.844c6.473-2.948,15.281.71,17.214,6.941a14.782,14.782,0,0,0-4.725-1.5c-2.4-3.713-11.5-5.063-11.908-.226C469.94,2275.765,466.849,2272.535,466.849,2272.535Z" transform="translate(-465.228 -2265.754)" fill="#2e8c96"/><rect width="0.945" height="2.085" transform="translate(23.901 8.29) rotate(73.428)" fill="#8c8c8c"/><path d="M465.555,2277c3.309-2.8,16.2-2.289,21.97,3.276l-23.261,1.923Z" transform="translate(-463.934 -2270.214)" fill="#ffdac2"/><path d="M487.194,2285.22a16.535,16.535,0,0,1,2.253,2.1.616.616,0,0,1-.416,1.022l-21.488,1.634c-.839-1.5-3.94-1.24-3.94-1.24l.33-1.591Z" transform="translate(-463.603 -2275.162)" fill="#878787"/><rect width="1.26" height="6.302" transform="translate(13.275 4.814) rotate(90.417)" fill="#2e8c96"/><path d="M0,0H0A2.085,2.085,0,0,1,2.085,2.085v.824a0,0,0,0,1,0,0H0a0,0,0,0,1,0,0V0A0,0,0,0,1,0,0Z" transform="matrix(-0.232, 0.973, -0.973, -0.232, 15.19, 0.675)" fill="#4fc7d4"/><path d="M472.008,2269.3a12.371,12.371,0,0,1,4.058-1.288,1.8,1.8,0,0,0,1.6-1.505h0a12.3,12.3,0,0,0-6.455.953,4.317,4.317,0,0,0-1.693,1.375l.852.449A1.789,1.789,0,0,0,472.008,2269.3Z" transform="translate(-466.562 -2265.754)" fill="#4fc7d4"/></g><path d="M440.212,2238.058a3.473,3.473,0,0,1,2.509.845c5.2,4.519,10.406,12.427,11.393,12.3,1.053-.132,2.831-.659,3.556-.329s3.227.263,3.622-.2c.4,0-.27,1.342-1.584,1.626s.926,3.511.267,3.642-2.8.153-4.394.373-3.706-2.084-4.1-2.545c-1.646-1.119-17.45-10.273-17.78-11.326a2.688,2.688,0,0,1,.041-1.252,3.481,3.481,0,0,1,2.877-2.716C438.258,2238.227,439.42,2238.11,440.212,2238.058Z" transform="translate(-432.926 -2199.905)" fill="#ff8762"/><path d="M465.451,2211.332h-.021a.126.126,0,0,1-.1-.145,7.856,7.856,0,0,0-3.258-7.236.126.126,0,1,1,.147-.2,8.112,8.112,0,0,1,3.36,7.482A.126.126,0,0,1,465.451,2211.332Z" transform="translate(-447.128 -2182.721)" fill="#c7c7c7" style="mix-blend-mode:multiply;isolation:isolate"/><path d="M477.9,2243.324h0a13.945,13.945,0,0,1-8.73-4.285.126.126,0,0,1,.18-.178,13.666,13.666,0,0,0,8.556,4.21.126.126,0,0,1,0,.253Z" transform="translate(-450.692 -2200.292)" fill="#c7c7c7" style="mix-blend-mode:multiply;isolation:isolate"/><path d="M507.2,2231.692a.126.126,0,0,1-.126-.123,6.94,6.94,0,0,1,.767-2.656,9.678,9.678,0,0,0,1.011-3.719,11.345,11.345,0,0,0-.842-3.365c-.71-2.041-1.594-4.581-1.132-7.324a.126.126,0,0,1,.249.042c-.452,2.679.384,5.081,1.121,7.2a11.48,11.48,0,0,1,.857,3.448,9.876,9.876,0,0,1-1.031,3.818,6.783,6.783,0,0,0-.747,2.549.126.126,0,0,1-.123.13Z" transform="translate(-469.521 -2188.067)" fill="#c7c7c7" style="mix-blend-mode:multiply;isolation:isolate"/><rect width="75.563" height="4" transform="translate(0 67.304)" fill="#543228"/><path d="M471.065,2427.68a2.746,2.746,0,0,1-.291-.261c-3.72,1.172-3.278,1.451-6.524,1.018a25.792,25.792,0,0,1-2.888-.529c-.67,1.594-1.09,2.749-.421,4.267h18.767C476.152,2430.1,472.942,2429.112,471.065,2427.68Z" transform="translate(-446.42 -2294.69)" fill="#543228"/><path d="M568.214,2211.389c-3.26,3.26-3.852,10.075-2.667,17.781s1.333,14.371-4.741,20.594-19.113,13.187-26.225,7.556-5.334-10.075-22.965-7.556-36.745,2.223-41.634,4.148c25.781,2.371,35.115,18.521,36.745,28.744s10.224,40,27.707,41.189,60.6.925,60.6.925c-1.037-2.074-3.262-5.518-4.6-8.037s.741-34.374-1.778-47.857-8.593-34.522-7.853-37.189,1.63-6.667,1.63-6.667-6.842-11.465-8.162-12.548S568.214,2211.389,568.214,2211.389Z" transform="translate(-451.115 -2186.559)" fill="#f04f5f"/><circle cx="3.753" cy="3.753" r="3.753" transform="translate(109.225 8.063) rotate(-76.717)" fill="#2b1710"/><path d="M661.838,2185.844c-6.223-3.309-6.452-9.467-2.865-11.8,7.655-4.988,16.347,2.42,11.014,7.8S661.838,2185.844,661.838,2185.844Z" transform="translate(-544.542 -2167.039)" fill="#2b1710"/><path d="M670.964,2186.233c-.258,2.433-1.581,4.9-3.409,4.853a4.14,4.14,0,0,0,1.123,3.7c-1.254-.59-2.286,1.549-3.355,4.314s-3.724,11.356-4.941,9.219,1.364-13.717,1.844-16.04.885-4.167-.258-5.863c-1.032.811-3.134-.221-3.355-1.991s.959-3.1,2.507-1.7c.184.074.516-1.917,1.291-2.839s3.171-.885,4.24-3.835c2.544.811,4.351,1.844,4.609,4.314A27.192,27.192,0,0,1,670.964,2186.233Z" transform="translate(-545.518 -2168.874)" fill="#ff8762"/><path d="M672.59,2197.923c1.317-.494,3.391-.477,3.589.148C675.537,2199.685,674.137,2199.964,672.59,2197.923Z" transform="translate(-552.528 -2179.645)" fill="#f54a4a"/><ellipse cx="0.482" cy="0.827" rx="0.482" ry="0.827" transform="translate(119.815 13.496)" fill="#2b1710"/><ellipse cx="0.482" cy="0.827" rx="0.482" ry="0.827" transform="translate(123.762 13.533)" fill="#2b1710"/><path d="M669.376,2185.961c1.482-.988,2.963-.42,2.864-.667C671.352,2184.307,669.623,2184.282,669.376,2185.961Z" transform="translate(-550.919 -2173.157)" fill="#2b1710"/><path d="M677.346,2191.188a.088.088,0,0,1-.008-.177,3,3,0,0,0,1.464-.424c-.029-.051-.1-.149-.162-.238a5.05,5.05,0,0,1-.637-1.1,5.255,5.255,0,0,1,.12-2.54.088.088,0,0,1,.173.032,5.178,5.178,0,0,0-.127,2.448,4.922,4.922,0,0,0,.615,1.055c.185.261.223.318.2.386a.1.1,0,0,1-.012.023c-.286.4-1.4.512-1.62.531Z" transform="translate(-554.865 -2174.172)" fill="#2b1710"/><path d="M676.481,2195.272a.089.089,0,0,1-.072-.14.7.7,0,0,1,.682-.27.088.088,0,1,1-.034.173.526.526,0,0,0-.5.2A.089.089,0,0,1,676.481,2195.272Z" transform="translate(-554.431 -2178.28)" fill="#2b1710"/><path d="M675.96,2195.309a.088.088,0,0,1-.049-.015.572.572,0,0,1-.27-.631.088.088,0,0,1,.168.054.394.394,0,0,0,.2.43.088.088,0,0,1-.049.162Z" transform="translate(-554.046 -2178.157)" fill="#e0b3a8" style="mix-blend-mode:multiply;isolation:isolate"/><path d="M674.406,2198.553a5.515,5.515,0,0,1-2.748-.7.088.088,0,0,1,.1-.143c.739.539,3.5,1.094,4.224.142a.088.088,0,1,1,.141.106A2.127,2.127,0,0,1,674.406,2198.553Z" transform="translate(-552.043 -2179.703)" fill="#2b1710"/><path d="M671.739,2202.207h0a5.667,5.667,0,0,1-4-3.3.088.088,0,1,1,.168-.054,5.549,5.549,0,0,0,3.838,3.182.088.088,0,0,1,0,.176Z" transform="translate(-550.097 -2180.252)" fill="#e0b3a8" style="mix-blend-mode:multiply;isolation:isolate"/><path d="M676.088,2201.982a1.269,1.269,0,0,1-.739-.218.088.088,0,1,1,.107-.14,1.155,1.155,0,0,0,.8.17.676.676,0,0,0,.459-.235.088.088,0,1,1,.142.1.835.835,0,0,1-.576.3A1.4,1.4,0,0,1,676.088,2201.982Z" transform="translate(-553.891 -2181.621)" fill="#e0b3a8" style="mix-blend-mode:multiply;isolation:isolate"/><path d="M663.048,2192.817a.965.965,0,0,1-.869-.417.754.754,0,0,1,.01-.811.719.719,0,0,1,.636-.3c-.137-.214-.422-.588-.746-.622a.6.6,0,0,0-.518.274.089.089,0,0,1-.137-.112.767.767,0,0,1,.673-.338c.549.058.955.831.972.864a.088.088,0,0,1-.095.127.6.6,0,0,0-.64.206.574.574,0,0,0-.005.618.891.891,0,0,0,.929.319.088.088,0,1,1,.024.175A1.776,1.776,0,0,1,663.048,2192.817Z" transform="translate(-546.929 -2176.098)" fill="#e0b3a8" style="mix-blend-mode:multiply;isolation:isolate"/><path d="M679.907,2185.412c1.679-.066,1.91.691,1.877.592C681.29,2184.358,679.973,2184.852,679.907,2185.412Z" transform="translate(-556.19 -2173.291)" fill="#2b1710"/><path d="M709.929,2228.094c-.592,0-7.507,3.556-13.532,3.951-1.877,0-11.853-1.778-15.8-5.136-.4-.1-1.876,3.753-3.753,1.482s-4.019-17.657,1.186-15.607c3.26,1.284,7.605,11.063,16.89,13.137,5.828-.593,15.9-.593,16.5-1.086s.79-2.42,2.272-2.963a3.477,3.477,0,0,0,1.975-1.778c.642.345-.247,1.778-.79,2.271s.3,1.037,1.482.839,4.79-1.926,5.136-1.481-4.149,3.358-2.815,2.815,3.655-1.531,3.8-1.185-1.235,1.333-.987,1.333c.148.691-3.309,2.716-2.124,2.222s2.568-.79,1.926-.2-6.322,1.679-8.248,1.433A11.75,11.75,0,0,0,709.929,2228.094Z" transform="translate(-553.616 -2187.164)" fill="#ff8762"/><path d="M602.69,2302.03c-5.536,0-11.576-3.837-19.334-12.219a.252.252,0,0,1,.371-.343c8.306,8.974,14.575,12.668,20.326,11.976,3.3-.4,6.508-2.278,9.82-5.751,3.179-3.333,6.561-8.26,10.341-15.064a.252.252,0,1,1,.441.244c-3.8,6.843-7.209,11.8-10.417,15.169-3.4,3.562-6.708,5.492-10.125,5.9A11.9,11.9,0,0,1,602.69,2302.03Z" transform="translate(-507.83 -2221.151)" fill="#c7c7c7" style="mix-blend-mode:multiply;isolation:isolate"/><path d="M595.611,2353.414a23.825,23.825,0,0,1-13.986-4.813,36.918,36.918,0,0,1-12.161-16.339.252.252,0,1,1,.468-.188c5.421,13.454,16.1,21.611,27.21,20.778,9.837-.738,17.432-8.418,20.315-20.545a.252.252,0,1,1,.491.116c-1.521,6.4-4.252,11.512-8.117,15.2a20.38,20.38,0,0,1-12.652,5.729Q596.4,2353.414,595.611,2353.414Z" transform="translate(-500.9 -2246.887)" fill="#c7c7c7" style="mix-blend-mode:multiply;isolation:isolate"/><path d="M611.72,2383.634a30.882,30.882,0,0,1-11.264-2.218.253.253,0,0,1,.185-.47,28.342,28.342,0,0,0,19.728.737c10.49-3.617,19.229-13.789,25.975-30.231a.252.252,0,0,1,.467.192c-6.8,16.583-15.644,26.85-26.277,30.517A26.912,26.912,0,0,1,611.72,2383.634Z" transform="translate(-516.342 -2256.588)" fill="#c7c7c7" style="mix-blend-mode:multiply;isolation:isolate"/><path d="M516.555,2255.534a28.957,28.957,0,0,1,1.383,2.667c.724,1.58,5.334,6.322,8.3,7.9s3.753,3.688,5.4,4.544a9.571,9.571,0,0,0,5.663.593c2.041-.264,3.292,0,3.095-.461s-2.7-.659-2.7-.659a11.536,11.536,0,0,1,3.688-.4c1.119.264,4.017.593,3.819.2s-5.071-1.646-6.585-1.91-4.61.33-5.466-.4-9.717-14.913-11-15.343C518.11,2250.916,516.555,2255.534,516.555,2255.534Z" transform="translate(-474.427 -2206.899)" fill="#ff8762"/></g><g transform="translate(201.635 1951.759)"><path d="M337.689,1971.183a4.9,4.9,0,1,1,4.9-4.9A4.9,4.9,0,0,1,337.689,1971.183Zm0-9.282a4.383,4.383,0,1,0,4.383,4.383A4.388,4.388,0,0,0,337.689,1961.9Z" transform="translate(-332.79 -1961.385)" fill="#a3b38d"/><g transform="translate(2.197 4.222)"><path d="M337.865,1971.191a.676.676,0,1,1,.677-.676A.677.677,0,0,1,337.865,1971.191Zm0-1.009a.333.333,0,1,0,.333.333A.333.333,0,0,0,337.865,1970.182Z" transform="translate(-337.189 -1969.839)" fill="#a3b38d"/></g><g transform="translate(6.151 4.222)"><path d="M345.781,1971.191a.676.676,0,1,1,.676-.676A.677.677,0,0,1,345.781,1971.191Zm0-1.009a.333.333,0,1,0,.333.333A.333.333,0,0,0,345.781,1970.182Z" transform="translate(-345.105 -1969.839)" fill="#a3b38d"/></g></g><g transform="translate(275.372 1985.353)"><g transform="translate(0 2.294)"><path d="M490.686,2049.212H480.422v-15.974h10.264Zm-9.482-.781h8.7V2034.02h-8.7Z" transform="translate(-480.422 -2033.238)" fill="#a3b38d"/></g><g transform="translate(2.855 0)"><path d="M490.692,2031.67h-4.554v-3.025h4.554Zm-3.772-.782h2.991v-1.461H486.92Z" transform="translate(-486.138 -2028.645)" fill="#a3b38d"/></g><g transform="translate(2.855 17.509)"><path d="M490.692,2066.726h-4.554V2063.7h4.554Zm-3.772-.782h2.991v-1.461H486.92Z" transform="translate(-486.138 -2063.701)" fill="#a3b38d"/></g><g transform="translate(1.003 3.552)"><path d="M490.128,2041.246a.4.4,0,0,1-.1-.014c-1.417-.382-5.835-2.247-7.533-4.874a.391.391,0,1,1,.656-.424c1.555,2.4,5.795,4.2,7.081,4.543a.391.391,0,0,1-.1.768Z" transform="translate(-482.429 -2035.756)" fill="#a3b38d"/></g><g transform="translate(1.003 6.049)"><path d="M490.128,2046.247a.386.386,0,0,1-.1-.013c-1.417-.382-5.835-2.247-7.533-4.874a.391.391,0,0,1,.656-.425c1.555,2.405,5.795,4.2,7.081,4.544a.391.391,0,0,1-.1.768Z" transform="translate(-482.429 -2040.757)" fill="#a3b38d"/></g><g transform="translate(1.003 8.547)"><path d="M490.128,2051.247a.4.4,0,0,1-.1-.014c-1.417-.382-5.835-2.247-7.533-4.874a.391.391,0,1,1,.656-.425c1.555,2.405,5.795,4.2,7.081,4.544a.391.391,0,0,1-.1.768Z" transform="translate(-482.429 -2045.757)" fill="#a3b38d"/></g><g transform="translate(1.003 11.044)"><path d="M490.128,2056.248a.382.382,0,0,1-.1-.014c-1.417-.382-5.835-2.247-7.533-4.874a.391.391,0,1,1,.656-.425c1.555,2.405,5.795,4.2,7.081,4.543a.391.391,0,0,1-.1.769Z" transform="translate(-482.429 -2050.757)" fill="#a3b38d"/></g></g><path d="M762.309,2370.135a.3.3,0,0,0-.329.263,1.762,1.762,0,0,1-.952,1.152c-.688.39-2.235.864-4.868-.34-2.337-1.068-4.471-1.172-5.854-.284a2.944,2.944,0,0,0-1.063,1.187c-.02,0-.039-.006-.059-.006a1.283,1.283,0,0,0-1.283,1.283c0,.709.574,17.022,1.283,17.022s1.283-16.313,1.283-17.022a1.278,1.278,0,0,0-.64-1.1,2.361,2.361,0,0,1,.8-.858c1.209-.777,3.135-.659,5.284.324,2.874,1.314,4.623.762,5.41.316a2.32,2.32,0,0,0,1.251-1.6A.3.3,0,0,0,762.309,2370.135Zm-12.426,3.5a.7.7,0,1,1-.914-.663,3.618,3.618,0,0,0-.055.6.3.3,0,0,0,.6,0,2.931,2.931,0,0,1,.051-.529A.7.7,0,0,1,749.883,2373.638Z" transform="translate(-338.933 -214.219)" fill="#a3b38d"/><g transform="translate(319.001 1975.384)"><path d="M568.572,2032.145c-2.278-1.654.633-8.524,4.762-14.209s9.762-10.578,12.04-8.924-.633,8.524-4.762,14.209S570.849,2033.8,568.572,2032.145Zm16.451-22.65c-1.524-1.107-6.391,2.161-11.207,8.792s-6.419,12.269-4.894,13.376,6.392-2.161,11.207-8.791S586.548,2010.6,585.023,2009.495Z" transform="translate(-567.774 -2008.686)" fill="#a3b38d"/><g transform="translate(0.023 15.976)"><path d="M568.595,2048.155c-1.194-.867-.988-3.117.469-5.122s3.532-2.9,4.726-2.03.988,3.117-.468,5.122S569.788,2049.022,568.595,2048.155Zm4.844-6.669c-.893-.648-2.676.221-3.893,1.9s-1.493,3.641-.6,4.289,2.676-.221,3.893-1.9S574.331,2042.134,573.439,2041.486Z" transform="translate(-567.819 -2040.673)" fill="#a3b38d"/></g><g transform="translate(10.057 0.299)"><path d="M592.353,2013.58a1.787,1.787,0,0,1,.423,2.458,8.414,8.414,0,0,1,1.109,1.759c2.047-4.015,2.7-7.295,1.393-8.243s-4.2.671-7.368,3.833a8.14,8.14,0,0,1,1.994.529A1.787,1.787,0,0,1,592.353,2013.58Z" transform="translate(-587.91 -2009.285)" fill="#a3b38d"/></g></g><g transform="translate(73.574 2131.168)"><path d="M88.98,2335.386l-4.807-3.493-4.808,3.493,1.836-5.652-4.807-3.493h5.943l1.837-5.652,1.836,5.652h5.943l-4.807,3.493Zm-4.807-4.242,3.655,2.656-1.4-4.3,3.655-2.656H85.569l-1.4-4.3-1.4,4.3H78.258l3.656,2.656-1.4,4.3Z" transform="translate(-76.394 -2320.589)" fill="#a3b38d"/></g><g transform="translate(443.251 2089.938)"><path d="M829.128,2252.835l-4.807-3.493-4.808,3.493,1.836-5.652-4.807-3.493h5.943l1.836-5.652,1.836,5.652H832.1l-4.807,3.493Zm-4.807-4.242,3.655,2.656-1.4-4.3,3.655-2.655h-4.518l-1.4-4.3-1.4,4.3h-4.518l3.656,2.655-1.4,4.3Z" transform="translate(-816.541 -2238.039)" fill="#a3b38d"/></g><g transform="translate(86.851 2026.345)"><path d="M115.564,2125.514l-4.808-3.493-4.807,3.493,1.836-5.652-4.808-3.492h5.943l1.837-5.652,1.837,5.652h5.943l-4.807,3.492Zm-4.808-4.242,3.656,2.656-1.4-4.3,3.656-2.656h-4.518l-1.4-4.3-1.4,4.3h-4.518l3.655,2.656-1.4,4.3Z" transform="translate(-102.977 -2110.717)" fill="#a3b38d"/></g></g></svg>