<svg xmlns="http://www.w3.org/2000/svg" xmlns:xlink="http://www.w3.org/1999/xlink" width="498.054" height="205.5" viewBox="0 0 498.054 205.5"><defs><filter id="a" x="12.087" y="24" width="31" height="46" filterUnits="userSpaceOnUse"><feOffset dy="3" input="SourceAlpha"/><feGaussianBlur stdDeviation="3" result="b"/><feFlood flood-opacity="0.161"/><feComposite operator="in" in2="b"/><feComposite in="SourceGraphic"/></filter><filter id="c" x="64.027" y="137" width="72" height="46" filterUnits="userSpaceOnUse"><feOffset dy="3" input="SourceAlpha"/><feGaussianBlur stdDeviation="3" result="d"/><feFlood flood-opacity="0.161"/><feComposite operator="in" in2="d"/><feComposite in="SourceGraphic"/></filter><filter id="e" x="12.087" y="136" width="31" height="46" filterUnits="userSpaceOnUse"><feOffset dy="3" input="SourceAlpha"/><feGaussianBlur stdDeviation="3" result="f"/><feFlood flood-opacity="0.161"/><feComposite operator="in" in2="f"/><feComposite in="SourceGraphic"/></filter></defs><g transform="translate(-550.973 -13338)"><g transform="translate(-742.404 12822.995)"><g transform="translate(1293.377 515.005)"><path d="M1443.313,731.058H1293.377l27.219-47.144-27.219-47.144h149.937l27.219,47.144Z" transform="translate(-1293.377 -525.558)" fill="#86bec4"/><path d="M1618.988,731.058H1469.051l27.219-47.144-27.219-47.144h149.937l27.219,47.144Z" transform="translate(-1308.602 -525.558)" fill="#86bec4" opacity="0.6"/><path d="M1794.661,731.058H1644.725l27.219-47.144-27.219-47.144h149.937l27.219,47.144Z" transform="translate(-1323.827 -525.558)" fill="#86bec4" opacity="0.6"/><path d="M1443.313,609.293H1293.377l27.219-47.144L1293.377,515h149.937l27.219,47.144Z" transform="translate(-1293.377 -515.005)" fill="#ede3b7"/><path d="M1618.988,609.293H1469.051l27.219-47.144L1469.051,515h149.937l27.219,47.144Z" transform="translate(-1308.602 -515.005)" fill="#ede3b7" opacity="0.6"/><path d="M1794.661,609.293H1644.725l27.219-47.144L1644.725,515h149.937l27.219,47.144Z" transform="translate(-1323.827 -515.005)" fill="#ede3b7" opacity="0.6"/><circle cx="23.474" cy="23.474" r="23.474" transform="translate(4.009 134.882)" fill="#71a2a5" stroke="#fff" stroke-miterlimit="10" stroke-width="6.216"/><circle cx="23.474" cy="23.474" r="23.474" transform="translate(4.009 22.841)" fill="#c9c09b" stroke="#fff" stroke-miterlimit="10" stroke-width="6.216"/></g><g transform="translate(1522.429 529.789)"><path d="M1561.54,571.948h-16.475l1.647-36.246h13.18Z" transform="translate(-1544.241 -531.583)" fill="#86bec4"/><path d="M1547.614,575.387h11.533a1.647,1.647,0,0,1,1.648,1.648h0a1.647,1.647,0,0,1-1.648,1.648h-11.533a1.647,1.647,0,0,1-1.647-1.648h0A1.647,1.647,0,0,1,1547.614,575.387Z" transform="translate(-1544.319 -535.022)" fill="#d6a045"/><path d="M1550.476,532.094h6.591v3.3h-6.591Z" transform="translate(-1544.71 -531.27)" fill="#ebae48"/><path d="M1583.187,571.948h-16.476l1.648-36.246h13.18Z" transform="translate(-1546.117 -531.583)" fill="#d4c99b"/><path d="M1569.261,575.387h11.533a1.648,1.648,0,0,1,1.648,1.648h0a1.648,1.648,0,0,1-1.648,1.648h-11.533a1.648,1.648,0,0,1-1.648-1.648h0A1.648,1.648,0,0,1,1569.261,575.387Z" transform="translate(-1546.195 -535.022)" fill="#ebae48"/><path d="M1572.123,532.094h6.59v3.3h-6.59Z" transform="translate(-1546.586 -531.27)" fill="#ebae48"/><path d="M1590.182,561.858l.423,16.47-36.276-.717-.339-13.176Z" transform="translate(-1545.015 -533.85)" fill="#ffad54"/><path d="M1593.98,575.9l-.3-11.534a1.648,1.648,0,0,1,1.6-1.69h0a1.648,1.648,0,0,1,1.691,1.6l.3,11.533a1.647,1.647,0,0,1-1.6,1.69h0A1.648,1.648,0,0,1,1593.98,575.9Z" transform="translate(-1548.454 -533.921)" fill="#ebae48"/><path d="M1550.493,568.383l3.3-.086.172,6.59-3.3.086Z" transform="translate(-1544.712 -534.408)" fill="#ebae48"/><path d="M1546.634,573.2a.825.825,0,0,1,.824-.824h.824v-1.648h-2.433l.127-2.773,1.827-.837-.687-1.5-1.056.484.107-2.355,4.93-2.26-.687-1.5-4.159,1.906.333-7.328,11.3,4.195.574-1.544-11.791-4.379.078-1.712.6-.275,12.571,4.67.131,2.884,1.646-.075-1.049-23.065a.824.824,0,0,0-.823-.786h-2.471v-2.471a.824.824,0,0,0-.824-.824h-6.591a.824.824,0,0,0-.824.824v2.471h-2.471a.824.824,0,0,0-.823.786l-1.647,36.246a.823.823,0,0,0,.786.86h.179a2.47,2.47,0,0,0,2.329,3.3h3.3v-1.648h-3.3a.825.825,0,0,1-.824-.824Zm.488-30.483,11.957-5.479.1,2.259-12.165,5.576Zm-.191,4.206,12.33-5.651.1,2.26-12.54,5.748Zm12.514-1.616.2,4.368-5.373-2Zm-9.988,4.579,2.7-1.236,7.572,2.813.1,2.275Zm1.3-17.05h4.943v1.648h-4.943Zm6.785,3.3-10.332,4.735.215-4.735Z" transform="translate(-1544.163 -531.192)"/><path d="M1568.286,554.574l9.65,3.584.573-1.544-10.145-3.768.078-1.712.6-.274,12.571,4.67.057,1.237,1.646-.075-.973-21.418a.824.824,0,0,0-.823-.786h-2.472v-2.471a.824.824,0,0,0-.824-.824h-6.59a.824.824,0,0,0-.824.824v2.471h-2.471a.824.824,0,0,0-.823.786l-1.049,23.065,1.646.075Zm.539-11.853,11.956-5.479.1,2.259-12.166,5.576Zm-.191,4.206,12.33-5.651.1,2.26-12.541,5.748Zm12.514-1.616.2,4.368-5.373-2Zm-9.988,4.579,2.7-1.236,7.572,2.813.1,2.275Zm1.3-17.05h4.943v1.648h-4.943Zm6.785,3.3-10.332,4.735.216-4.735Z" transform="translate(-1546.096 -531.192)"/><path d="M1594.276,575.673l-.3-11.529a2.475,2.475,0,0,0-3.354-2.246l0-.14a.823.823,0,0,0-.844-.8l-.037,0-36.192,2.578a.824.824,0,0,0-.765.842l.064,2.471-2.471.064a.824.824,0,0,0-.8.844l.17,6.588a.824.824,0,0,0,.823.8h.022l2.47-.064.064,2.471a.824.824,0,0,0,.807.8l36.276.716h.016a.823.823,0,0,0,.824-.824v-.02l0-.143a2.451,2.451,0,0,0,.762.121h.065a2.471,2.471,0,0,0,2.408-2.534Zm-34.692-10.916,2.257-.161,6.067,12.388-2.357-.047ZM1563.7,576.9l-2.357-.047-5.784-11.811,2.256-.16Zm3.444-5.227,2.619-7.642,2.271-.162-3.585,10.467Zm-1.025-2.092-2.5-5.112,4.361-.311Zm3.355,6.848,4.345-12.687,2.271-.162-4.613,13.474-1.713-.034Zm6.721-8.068,4.345,8.872-7.334-.144Zm.755-2.2.926-2.7.082-.006,6.792,13.869-2.358-.047Zm2.78-2.836,2.257-.16,6.973,14.238-2.357-.047Zm9.57,11.026-5.54-11.313,5.24-.373Zm-37.928-.869-.127-4.941,1.647-.043.127,4.941Zm3.12-6.867,5,10.206-4.739-.093ZM1592.4,576.3a.823.823,0,0,1-1.42-.546l-.3-11.529a.825.825,0,0,1,.8-.845h.022a.824.824,0,0,1,.823.8l.3,11.529a.823.823,0,0,1-.226.588Z" transform="translate(-1544.632 -533.771)"/></g><g transform="translate(1683.302 528.434)"><path d="M1747.073,546.745h11.114v14.819h-11.114Z" transform="translate(-1722.621 -531.185)" fill="#2ea5c5"/><path d="M1747.073,538.632h11.114v7.41h-11.114Z" transform="translate(-1722.621 -530.481)" fill="#057998"/><g transform="translate(6.668 40.753)"><path d="M1727.6,574.328h1.482v2.964H1727.6Z" transform="translate(-1727.602 -574.328)" fill="#fdc01e"/><path d="M1730.847,574.328h1.482v2.964h-1.482Z" transform="translate(-1727.883 -574.328)" fill="#fdc01e"/><path d="M1734.092,574.328h1.482v2.964h-1.482Z" transform="translate(-1728.165 -574.328)" fill="#fdc01e"/><path d="M1737.337,574.328h1.482v2.964h-1.482Z" transform="translate(-1728.446 -574.328)" fill="#fdc01e"/><path d="M1740.583,574.328h1.481v2.964h-1.481Z" transform="translate(-1728.727 -574.328)" fill="#fdc01e"/><path d="M1743.828,574.328h1.481v2.964h-1.481Z" transform="translate(-1729.008 -574.328)" fill="#fdc01e"/><path d="M1747.073,574.328h1.481v2.964h-1.481Z" transform="translate(-1729.29 -574.328)" fill="#fdc01e"/><path d="M1750.318,574.328h1.481v2.964h-1.481Z" transform="translate(-1729.571 -574.328)" fill="#fdc01e"/></g><path d="M1728.522,556.869h-5.927c-.819,0-1.482-.995-1.482-2.222s.663-2.223,1.482-2.223h5.927Z" transform="translate(-1720.371 -531.677)" fill="#ebae48"/><path d="M1728.522,540.644h-5.927c-.819,0-1.482-1-1.482-2.223s.663-2.223,1.482-2.223h5.927Z" transform="translate(-1720.371 -530.27)" fill="#ebae48"/><path d="M1751.172,537.929v33.343H1725.98V537.929c0-4.092,2.322-7.41,5.187-7.41h25.192Z" transform="translate(-1720.793 -529.778)" fill="#0093b9"/><path d="M1763.7,556.377c-.66,3.007-2.627,5.187-4.949,5.187-2.865,0-5.187-3.317-5.187-7.409s2.322-7.41,5.187-7.41c2.322,0,4.288,2.18,4.949,5.187Z" transform="translate(-1723.184 -531.185)" fill="#5db9d3"/><path d="M1765.91,556.869h-5.187c-.818,0-1.481-.995-1.481-2.222s.663-2.223,1.481-2.223h5.187Z" transform="translate(-1723.676 -531.677)" fill="#ebae48"/><path d="M1725.98,567.838h25.193V570.8H1725.98Z" transform="translate(-1720.793 -533.013)" fill="#fdc01e"/><path d="M1725.98,571.083h25.193v3.7H1725.98Z" transform="translate(-1720.793 -533.294)" fill="#f79726"/><ellipse cx="1.482" cy="2.223" rx="1.482" ry="2.223" transform="translate(40.753 20.747)" fill="#cf8a29"/><path d="M1763.7,540.152c-.66,3.007-2.627,5.187-4.949,5.187-2.865,0-5.187-3.318-5.187-7.41s2.322-7.41,5.187-7.41c2.322,0,4.288,2.181,4.949,5.187Z" transform="translate(-1723.184 -529.778)" fill="#0085aa"/><path d="M1765.91,540.644h-5.187c-.818,0-1.481-1-1.481-2.223s.663-2.223,1.481-2.223h5.187Z" transform="translate(-1723.676 -530.27)" fill="#ebae48"/><ellipse cx="1.482" cy="2.223" rx="1.482" ry="2.223" transform="translate(40.753 5.928)" fill="#cf8a29"/><path d="M1762.535,549.714h-1.142a7.551,7.551,0,0,0-3.036-4.445,7.554,7.554,0,0,0,3.036-4.446h1.142c1.247,0,2.223-1.3,2.223-2.964s-.976-2.964-2.223-2.964h-1.142c-.876-3.126-3.043-5.187-5.527-5.187h-25.192a5.257,5.257,0,0,0-4.275,2.486,8.929,8.929,0,0,0-1.252,2.7h-2.623c-1.247,0-2.223,1.3-2.223,2.964s.976,2.964,2.223,2.964h2.222v8.891h-2.222c-1.247,0-2.223,1.3-2.223,2.965s.976,2.964,2.223,2.964h2.222V571.2a.742.742,0,0,0,.742.742h1.481v1.481h1.482v-1.481h1.482v1.481h1.482v-1.481h1.482v1.481h1.482v-1.481h1.481v1.481h1.482v-1.481h1.482v1.481h1.481v-1.481h1.482v1.481h1.481v-1.481h1.482v1.481h1.481v-1.481h1.482v1.481h1.481v-1.481h1.482a.741.741,0,0,0,.741-.742V560.829h4.446c2.484,0,4.651-2.06,5.527-5.187h1.142c1.247,0,2.223-1.3,2.223-2.964S1763.782,549.714,1762.535,549.714Zm-5.187,4.446c-.3,0-.741-.577-.741-1.481s.439-1.482.741-1.482h3.253a3.942,3.942,0,0,0,0,2.964Zm3.253-17.783a3.942,3.942,0,0,0,0,2.964h-3.253c-.3,0-.741-.577-.741-1.482s.439-1.481.741-1.481Zm2.675,1.481c0,.905-.439,1.482-.742,1.482s-.741-.577-.741-1.482.438-1.481.741-1.481S1763.277,536.954,1763.277,537.859Zm-3.435-2.964h-2.493c-1.246,0-2.222,1.3-2.222,2.964s.976,2.964,2.222,2.964h2.493c-.747,2.221-2.3,3.705-3.975,3.705a3.824,3.824,0,0,1-3.061-1.855,9.057,9.057,0,0,1,0-9.628,3.825,3.825,0,0,1,3.061-1.854C1757.541,531.19,1759.095,532.674,1759.842,534.895Zm-8.421,8.372c.056.087.112.173.171.257a7.094,7.094,0,0,0,.851,1h-1.022Zm0,2.743h1.022a7.093,7.093,0,0,0-.851,1c-.059.084-.115.17-.171.257Zm-23.807-12.965a3.825,3.825,0,0,1,3.061-1.854h21.768a7.036,7.036,0,0,0-.851,1,9.939,9.939,0,0,0-1.652,5.664v25.934h-23.711V537.859A8.448,8.448,0,0,1,1727.614,533.044Zm-1.385,32.23h23.711v1.482h-23.711Zm-3.7-25.933c-.3,0-.742-.577-.742-1.482s.439-1.481.742-1.481h2.32a11.308,11.308,0,0,0-.1,1.481v1.482Zm0,14.819c-.3,0-.742-.577-.742-1.481s.439-1.482.742-1.482h2.222v2.964Zm3.7,16.3v-2.223h23.711v2.223Zm25.193-11.114v-1.261c.056.087.112.173.171.257a7.046,7.046,0,0,0,.851,1Zm4.446,0a3.825,3.825,0,0,1-3.061-1.854,9.058,9.058,0,0,1,0-9.629,3.825,3.825,0,0,1,3.061-1.854c1.674,0,3.228,1.484,3.975,3.7h-2.493c-1.246,0-2.222,1.3-2.222,2.965s.976,2.964,2.222,2.964h2.493C1759.095,557.862,1757.541,559.347,1755.867,559.347Zm6.668-5.187c-.3,0-.741-.577-.741-1.481s.438-1.482.741-1.482.742.577.742,1.482S1762.838,554.16,1762.535,554.16Z" transform="translate(-1720.301 -529.708)"/></g><g transform="translate(1679.458 635.827)"><path d="M1766.524,659.383H1770a1.738,1.738,0,0,1,1.738,1.738v5.214a1.738,1.738,0,0,1-1.738,1.738h-3.476Z" transform="translate(-1720.464 -648.34)" fill="#b3b2b3"/><path d="M1717.045,690.783h46.929v4.346a1.738,1.738,0,0,1-1.738,1.738h-43.453a1.738,1.738,0,0,1-1.738-1.738v-4.346Z" transform="translate(-1716.175 -651.061)" fill="#b3b2b3"/><path d="M1763.974,690.174V655.412a1.738,1.738,0,0,0-1.738-1.738h-36.5a1.738,1.738,0,0,0-1.738,1.738v13.906a1.738,1.738,0,0,0,1.738,1.738h8.69l7.822-7.822h7.822v19.988h-33.024v6.952Z" transform="translate(-1716.175 -647.845)" fill="#ff9696"/><path d="M1753.2,664.141h13.9v14.774h-13.9Z" transform="translate(-1719.309 -648.752)" fill="#cbcbca"/><path d="M1757.009,667.947h6.952v4.346h-6.952Z" transform="translate(-1719.639 -649.082)" fill="#fdc01e"/><path d="M1763.669,688.88h1.738v1.738h-1.738Z" transform="translate(-1720.216 -650.896)"/><path d="M1756.927,673.079h6.952a.869.869,0,0,0,.869-.869v-4.346a.869.869,0,0,0-.869-.87h-6.952a.869.869,0,0,0-.87.87v4.346A.869.869,0,0,0,1756.927,673.079Zm.869-4.346h5.214v2.608H1757.8Z" transform="translate(-1719.557 -649)"/><path d="M1756.057,675.559h1.738V677.3h-1.738Z" transform="translate(-1719.557 -649.742)"/><path d="M1759.863,675.559h1.738V677.3h-1.738Z" transform="translate(-1719.886 -649.742)"/><path d="M1763.669,675.559h1.738V677.3h-1.738Z" transform="translate(-1720.216 -649.742)"/><path d="M1727.512,656.529h1.738v1.738h-1.738Z" transform="translate(-1717.083 -648.093)"/><path d="M1765.63,657.467h-.869v-2.608a2.608,2.608,0,0,0-2.607-2.607h-1.738v-1.738h-1.738v1.738h-19.988v-1.738h-1.738v1.738h-1.738v-1.738a.87.87,0,0,0-.255-.615l-2.608-2.608-1.228,1.229,2.353,2.353v1.378h-7.822a2.61,2.61,0,0,0-2.608,2.607v13.906a2.611,2.611,0,0,0,2.608,2.607v2.608a.869.869,0,0,0,.869.869h2.607v4.346h1.738v-4.346h2.608v-1.738h-2.608v-1.738h3.476a.866.866,0,0,0,.615-.255l7.567-7.567h6.593V681.8h-32.155a.869.869,0,0,0-.87.87v8.69a2.611,2.611,0,0,0,2.608,2.608h43.453a2.609,2.609,0,0,0,2.607-2.608V667.895h.869a2.611,2.611,0,0,0,2.608-2.608v-5.214A2.609,2.609,0,0,0,1765.63,657.467Zm-2.608,19.119h-12.166V663.549h12.166Zm-26.071-22.595v12.675l-1.738,1.738V653.99Zm-12.167,14.774V654.859a.87.87,0,0,1,.87-.869h7.822v15.643h-7.822A.871.871,0,0,1,1724.783,668.764Zm4.346,4.345h-1.738v-1.738h1.738Zm13.036-11.3a.873.873,0,0,0-.615.255l-2.861,2.861V653.99h23.464a.869.869,0,0,1,.869.869v6.952Zm7.822,21.726a.869.869,0,0,0,.869-.869v-4.346h12.166v10.429h-19.988v-3.477H1741.3v3.477h-2.607v-1.739h-1.738v1.739h-2.608v-1.739h-1.738v1.739H1730v-3.477h-1.738v3.477h-2.608v-1.739h-1.738v1.739h-2.608v-1.739h-1.738v1.739h-1.738v-5.215Zm13.035,7.822a.87.87,0,0,1-.869.869H1718.7a.872.872,0,0,1-.87-.869v-.869h45.191Zm3.477-26.072a.871.871,0,0,1-.87.87h-.869V659.2h.869a.87.87,0,0,1,.87.869Z" transform="translate(-1716.093 -647.292)"/></g><g transform="translate(1517.994 641.611)"><path d="M1589.493,656.827h6.826v3.9h-6.826Z" transform="translate(-1543.656 -653.902)" fill="#057998"/><path d="M1569.2,663.234h7.8v4.876h-7.8Z" transform="translate(-1541.898 -654.457)" fill="#5db9d3"/><path d="M1540.375,676.93h0a1.951,1.951,0,0,1,1.95-1.951h36.084a1.951,1.951,0,0,1,1.951,1.951h0a1.951,1.951,0,0,1-1.951,1.951h-36.084A1.95,1.95,0,0,1,1540.375,676.93Z" transform="translate(-1539.4 -655.475)" fill="#cbcbca"/><path d="M1559.589,654.692a9.751,9.751,0,0,0-8.246,4.545l-8.833,13.984h36.084l.059-.233a9.993,9.993,0,0,1,9.694-7.569V654.692Zm24.857,5.954a2.019,2.019,0,0,1-1.281,1.87,13.871,13.871,0,0,0-5.394,3.879h-13.814a3.463,3.463,0,0,1-2.58-5.772,6.1,6.1,0,0,1,4.539-2.029h16.525a2,2,0,0,1,2,2Z" transform="translate(-1539.585 -653.717)" fill="#f7f1d7"/><path d="M1561.518,665.021a4.389,4.389,0,0,0,4.052,2.627h13.814a.975.975,0,0,0,.744-.343,12.923,12.923,0,0,1,5.013-3.606,2.984,2.984,0,0,0,1.893-2.775v-.048a2.983,2.983,0,0,0-2.979-2.98h-16.526a7.077,7.077,0,0,0-5.266,2.355,4.387,4.387,0,0,0-.744,4.771Zm13.812.676h-5.851v-1.95h5.851Zm-11.615-4.147a5.129,5.129,0,0,1,3.813-1.705h16.526a1.03,1.03,0,0,1,1.029,1.029v.049a1.041,1.041,0,0,1-.669.964,14.907,14.907,0,0,0-5.472,3.81h-1.661v-2.925a.975.975,0,0,0-.975-.975h-7.8a.975.975,0,0,0-.975.975V665.7h-1.959a2.488,2.488,0,0,1-1.854-4.147Z" transform="translate(-1541.198 -653.994)"/><path d="M1552.12,669.641h1.951v1.95h-1.951Z" transform="translate(-1540.417 -655.012)"/><path d="M1556.392,669.641h1.95v1.95h-1.95Z" transform="translate(-1540.788 -655.012)"/><path d="M1592.945,657.608v-1.059a.975.975,0,0,0-.975-.976h-2.925V654.6a.975.975,0,0,0-.975-.975h-28.758a10.674,10.674,0,0,0-9.069,5l-8.582,13.588a2.925,2.925,0,0,0,.573,5.794h36.084a2.925,2.925,0,0,0,1.215-5.586,9,9,0,0,1,8.538-6.117.975.975,0,0,0,.975-.975v-3.9h2.925a.975.975,0,0,0,.975-.975V659.6a3.908,3.908,0,0,1,2.926,3.778v15.6a3.905,3.905,0,0,1-3.9,3.9h-39.01a2.926,2.926,0,0,0,0,5.852h21.455v-1.951H1552.96a.975.975,0,1,1,0-1.95h39.01a5.858,5.858,0,0,0,5.852-5.852v-15.6A5.859,5.859,0,0,0,1592.945,657.608Zm-14.629,18.447h-36.084a.975.975,0,0,1,0-1.951h36.084a.975.975,0,1,1,0,1.951Zm8.777-11.661a10.948,10.948,0,0,0-9.525,7.76H1544l7.887-12.489a8.735,8.735,0,0,1,7.422-4.091h27.783Zm3.9-4.919h-1.951v-1.95H1591Z" transform="translate(-1539.307 -653.624)"/><path d="M1579.883,689.928h1.95v1.951h-1.95Z" transform="translate(-1542.824 -656.77)"/></g></g><g transform="matrix(1, 0, 0, 1, 550.97, 13338)" filter="url(#a)"><text transform="translate(21.09 52)" fill="#fff" font-size="21" font-family="Roboto-Black, Roboto" font-weight="800"><tspan x="0" y="0">1</tspan></text></g><text transform="translate(622 13391)" fill="#857e5d" font-size="21" font-family="Roboto-Black, Roboto" font-weight="800"><tspan x="0" y="0">Fibras</tspan></text><g transform="matrix(1, 0, 0, 1, 550.97, 13338)" filter="url(#c)"><text transform="translate(100.03 165)" fill="#fff" font-size="21" font-family="Roboto-Black, Roboto" font-weight="800"><tspan x="-26.173" y="0">Telas</tspan></text></g><g transform="matrix(1, 0, 0, 1, 550.97, 13338)" filter="url(#e)"><text transform="translate(21.09 164)" fill="#fff" font-size="21" font-family="Roboto-Black, Roboto" font-weight="800"><tspan x="0" y="0">2</tspan></text></g><path d="M70.289,17H68.781V11.742H63.047V17h-1.5V5.625h1.5v4.891h5.734V5.625h1.508ZM74.3,17H72.852V8.547H74.3ZM72.734,6.3a.863.863,0,0,1,.215-.594.807.807,0,0,1,.637-.242.819.819,0,0,1,.641.242.854.854,0,0,1,.219.594.826.826,0,0,1-.219.586.834.834,0,0,1-.641.234.821.821,0,0,1-.637-.234A.834.834,0,0,1,72.734,6.3ZM78.18,17H76.734V5H78.18Zm1.93-4.3a4.993,4.993,0,0,1,.488-2.234A3.643,3.643,0,0,1,81.957,8.93a3.7,3.7,0,0,1,1.988-.539,3.565,3.565,0,0,1,2.793,1.2,4.6,4.6,0,0,1,1.066,3.18v.1a5.036,5.036,0,0,1-.473,2.215,3.589,3.589,0,0,1-1.352,1.527,3.743,3.743,0,0,1-2.02.547,3.556,3.556,0,0,1-2.785-1.2A4.575,4.575,0,0,1,80.109,12.8Zm1.453.172a3.616,3.616,0,0,0,.652,2.258,2.211,2.211,0,0,0,3.5-.012,3.955,3.955,0,0,0,.648-2.418,3.61,3.61,0,0,0-.66-2.254,2.1,2.1,0,0,0-1.754-.863,2.075,2.075,0,0,0-1.727.852A3.925,3.925,0,0,0,81.563,12.867Zm12.977,1.891a1.064,1.064,0,0,0-.441-.91,4.249,4.249,0,0,0-1.539-.559,7.277,7.277,0,0,1-1.742-.562,2.479,2.479,0,0,1-.953-.781,1.869,1.869,0,0,1-.309-1.078,2.193,2.193,0,0,1,.879-1.758,3.432,3.432,0,0,1,2.246-.719,3.532,3.532,0,0,1,2.332.742,2.357,2.357,0,0,1,.895,1.9H94.453a1.3,1.3,0,0,0-.5-1.023,1.888,1.888,0,0,0-1.27-.43,1.976,1.976,0,0,0-1.234.344,1.082,1.082,0,0,0-.445.9.877.877,0,0,0,.414.789,5.1,5.1,0,0,0,1.5.508,7.8,7.8,0,0,1,1.754.578,2.558,2.558,0,0,1,1,.809,1.988,1.988,0,0,1,.324,1.152,2.163,2.163,0,0,1-.906,1.816,3.8,3.8,0,0,1-2.352.684,4.257,4.257,0,0,1-1.8-.359,2.922,2.922,0,0,1-1.223-1,2.42,2.42,0,0,1-.441-1.395h1.445a1.5,1.5,0,0,0,.582,1.152,2.258,2.258,0,0,0,1.434.426,2.331,2.331,0,0,0,1.316-.332A1.02,1.02,0,0,0,94.539,14.758Z" transform="translate(716.06 13404)" fill="#12263f"/><path d="M50.3,14.023H45.539L44.469,17H42.922L47.266,5.625h1.313L52.93,17H51.391ZM45.992,12.8h3.867l-1.937-5.32Zm11.633,3.18a2.082,2.082,0,0,0,1.352-.469,1.649,1.649,0,0,0,.641-1.172h1.367a2.621,2.621,0,0,1-.5,1.383,3.293,3.293,0,0,1-1.23,1.047,3.55,3.55,0,0,1-1.629.391A3.482,3.482,0,0,1,54.879,16a4.59,4.59,0,0,1-1.02-3.152v-.242a5.089,5.089,0,0,1,.453-2.2,3.451,3.451,0,0,1,1.3-1.492,3.7,3.7,0,0,1,2-.531,3.39,3.39,0,0,1,2.363.852,3.043,3.043,0,0,1,1,2.211H59.617A1.992,1.992,0,0,0,59,10.105a1.932,1.932,0,0,0-1.379-.527,2.023,2.023,0,0,0-1.707.793,3.724,3.724,0,0,0-.605,2.293v.273a3.65,3.65,0,0,0,.6,2.25A2.033,2.033,0,0,0,57.625,15.977ZM67.828,17a3.036,3.036,0,0,1-.2-.891,3.225,3.225,0,0,1-2.406,1.047,2.984,2.984,0,0,1-2.051-.707,2.287,2.287,0,0,1-.8-1.793,2.39,2.39,0,0,1,1-2.051,4.733,4.733,0,0,1,2.824-.73H67.6v-.664A1.623,1.623,0,0,0,67.148,10a1.821,1.821,0,0,0-1.336-.449,2.108,2.108,0,0,0-1.3.391,1.151,1.151,0,0,0-.523.945H62.539a2,2,0,0,1,.449-1.223,3.066,3.066,0,0,1,1.219-.934A4.1,4.1,0,0,1,65.9,8.391a3.342,3.342,0,0,1,2.289.73,2.635,2.635,0,0,1,.859,2.012v3.891a4.757,4.757,0,0,0,.3,1.852V17Zm-2.4-1.1a2.54,2.54,0,0,0,1.289-.352,2.127,2.127,0,0,0,.883-.914V12.9H66.469q-2.656,0-2.656,1.555a1.316,1.316,0,0,0,.453,1.063A1.742,1.742,0,0,0,65.43,15.9Zm13.039-3.031a5.026,5.026,0,0,1-.891,3.113,2.846,2.846,0,0,1-2.391,1.176,2.947,2.947,0,0,1-2.477-1.133l-.07.977H71.313V5h1.445V9.477a2.93,2.93,0,0,1,2.414-1.086A2.863,2.863,0,0,1,77.59,9.555a5.177,5.177,0,0,1,.879,3.188ZM77.023,12.7a3.906,3.906,0,0,0-.57-2.281,1.888,1.888,0,0,0-1.641-.8,2.122,2.122,0,0,0-2.055,1.328V14.6a2.181,2.181,0,0,0,2.07,1.328,1.878,1.878,0,0,0,1.617-.8A4.153,4.153,0,0,0,77.023,12.7ZM85.508,17a3.036,3.036,0,0,1-.2-.891A3.225,3.225,0,0,1,82.9,17.156a2.984,2.984,0,0,1-2.051-.707,2.288,2.288,0,0,1-.8-1.793,2.39,2.39,0,0,1,1-2.051,4.733,4.733,0,0,1,2.824-.73h1.406v-.664A1.623,1.623,0,0,0,84.828,10a1.821,1.821,0,0,0-1.336-.449,2.108,2.108,0,0,0-1.3.391,1.151,1.151,0,0,0-.523.945H80.219a2,2,0,0,1,.449-1.223,3.066,3.066,0,0,1,1.219-.934,4.1,4.1,0,0,1,1.691-.344,3.342,3.342,0,0,1,2.289.73,2.635,2.635,0,0,1,.859,2.012v3.891a4.757,4.757,0,0,0,.3,1.852V17Zm-2.4-1.1a2.54,2.54,0,0,0,1.289-.352,2.127,2.127,0,0,0,.883-.914V12.9H84.148q-2.656,0-2.656,1.555a1.316,1.316,0,0,0,.453,1.063A1.742,1.742,0,0,0,83.109,15.9Zm5.531-3.2a4.952,4.952,0,0,1,.922-3.129,3.137,3.137,0,0,1,4.766-.168V5h1.445V17H94.445l-.07-.906a2.943,2.943,0,0,1-2.414,1.063,2.887,2.887,0,0,1-2.395-1.2,5.008,5.008,0,0,1-.926-3.141Zm1.445.164a3.749,3.749,0,0,0,.594,2.25,1.92,1.92,0,0,0,1.641.813A2.108,2.108,0,0,0,94.328,14.7V10.813a2.125,2.125,0,0,0-1.992-1.2,1.929,1.929,0,0,0-1.656.82A4.128,4.128,0,0,0,90.086,12.867Zm7.547-.172a4.993,4.993,0,0,1,.488-2.234A3.643,3.643,0,0,1,99.48,8.93a3.7,3.7,0,0,1,1.988-.539,3.565,3.565,0,0,1,2.793,1.2,4.6,4.6,0,0,1,1.066,3.18v.1a5.036,5.036,0,0,1-.473,2.215,3.589,3.589,0,0,1-1.352,1.527,3.743,3.743,0,0,1-2.02.547,3.556,3.556,0,0,1-2.785-1.2A4.575,4.575,0,0,1,97.633,12.8Zm1.453.172a3.616,3.616,0,0,0,.652,2.258,2.211,2.211,0,0,0,3.5-.012,3.955,3.955,0,0,0,.648-2.418,3.61,3.61,0,0,0-.66-2.254,2.1,2.1,0,0,0-1.754-.863,2.075,2.075,0,0,0-1.727.852A3.925,3.925,0,0,0,99.086,12.867Zm12.977,1.891a1.064,1.064,0,0,0-.441-.91,4.249,4.249,0,0,0-1.539-.559,7.277,7.277,0,0,1-1.742-.562,2.479,2.479,0,0,1-.953-.781,1.869,1.869,0,0,1-.309-1.078,2.193,2.193,0,0,1,.879-1.758,3.432,3.432,0,0,1,2.246-.719,3.532,3.532,0,0,1,2.332.742,2.357,2.357,0,0,1,.895,1.9h-1.453a1.3,1.3,0,0,0-.5-1.023,1.888,1.888,0,0,0-1.27-.43,1.976,1.976,0,0,0-1.234.344,1.082,1.082,0,0,0-.445.9.877.877,0,0,0,.414.789,5.1,5.1,0,0,0,1.5.508,7.8,7.8,0,0,1,1.754.578,2.558,2.558,0,0,1,1,.809,1.988,1.988,0,0,1,.324,1.152,2.163,2.163,0,0,1-.906,1.816,3.8,3.8,0,0,1-2.352.684,4.257,4.257,0,0,1-1.8-.359,2.922,2.922,0,0,1-1.223-1,2.42,2.42,0,0,1-.441-1.395h1.445a1.5,1.5,0,0,0,.582,1.152,2.258,2.258,0,0,0,1.434.426,2.331,2.331,0,0,0,1.316-.332A1.02,1.02,0,0,0,112.063,14.758Z" transform="translate(716.06 13514)" fill="#12263f"/><path d="M61.617,6.852H57.961V17H56.469V6.852H52.82V5.625h8.8Zm4.969,10.3a3.693,3.693,0,0,1-2.8-1.129,4.19,4.19,0,0,1-1.078-3.02v-.266a5.073,5.073,0,0,1,.48-2.246,3.748,3.748,0,0,1,1.344-1.547,3.378,3.378,0,0,1,1.871-.559,3.166,3.166,0,0,1,2.563,1.086,4.7,4.7,0,0,1,.914,3.109v.6H64.156a3,3,0,0,0,.73,2.02,2.3,2.3,0,0,0,1.777.77,2.517,2.517,0,0,0,1.3-.312,3.259,3.259,0,0,0,.93-.828l.883.688A3.55,3.55,0,0,1,66.586,17.156Zm-.18-7.578a1.928,1.928,0,0,0-1.469.637A3.1,3.1,0,0,0,64.2,12h4.234v-.109a2.753,2.753,0,0,0-.594-1.707A1.815,1.815,0,0,0,66.406,9.578Zm6.641-1.031v9.43q0,2.438-2.211,2.438a2.7,2.7,0,0,1-.883-.14V19.125a2.794,2.794,0,0,0,.656.063.982.982,0,0,0,.738-.262,1.3,1.3,0,0,0,.254-.911V8.547ZM71.453,6.3a.867.867,0,0,1,.215-.59.79.79,0,0,1,.629-.246.819.819,0,0,1,.641.242.854.854,0,0,1,.219.594.826.826,0,0,1-.219.586.834.834,0,0,1-.641.234.808.808,0,0,1-.633-.234A.843.843,0,0,1,71.453,6.3ZM76.945,17H75.5V8.547h1.445ZM75.383,6.3a.863.863,0,0,1,.215-.594.807.807,0,0,1,.637-.242.819.819,0,0,1,.641.242.854.854,0,0,1,.219.594.826.826,0,0,1-.219.586.834.834,0,0,1-.641.234.821.821,0,0,1-.637-.234A.834.834,0,0,1,75.383,6.3Zm3.523,6.4a4.952,4.952,0,0,1,.922-3.129,3.137,3.137,0,0,1,4.766-.168V5h1.445V17H84.711l-.07-.906a2.943,2.943,0,0,1-2.414,1.063,2.887,2.887,0,0,1-2.395-1.2,5.008,5.008,0,0,1-.926-3.141Zm1.445.164a3.749,3.749,0,0,0,.594,2.25,1.92,1.92,0,0,0,1.641.813A2.108,2.108,0,0,0,84.594,14.7V10.813a2.125,2.125,0,0,0-1.992-1.2,1.929,1.929,0,0,0-1.656.82A4.128,4.128,0,0,0,80.352,12.867ZM87.9,12.7a4.993,4.993,0,0,1,.488-2.234A3.643,3.643,0,0,1,89.746,8.93a3.7,3.7,0,0,1,1.988-.539,3.565,3.565,0,0,1,2.793,1.2,4.6,4.6,0,0,1,1.066,3.18v.1a5.036,5.036,0,0,1-.473,2.215,3.589,3.589,0,0,1-1.352,1.527,3.743,3.743,0,0,1-2.02.547,3.556,3.556,0,0,1-2.785-1.2A4.575,4.575,0,0,1,87.9,12.8Zm1.453.172A3.616,3.616,0,0,0,90,15.125a2.211,2.211,0,0,0,3.5-.012,3.955,3.955,0,0,0,.648-2.418,3.61,3.61,0,0,0-.66-2.254,2.1,2.1,0,0,0-1.754-.863,2.075,2.075,0,0,0-1.727.852A3.925,3.925,0,0,0,89.352,12.867Zm12.977,1.891a1.064,1.064,0,0,0-.441-.91,4.249,4.249,0,0,0-1.539-.559,7.277,7.277,0,0,1-1.742-.562,2.479,2.479,0,0,1-.953-.781,1.869,1.869,0,0,1-.309-1.078,2.193,2.193,0,0,1,.879-1.758,3.432,3.432,0,0,1,2.246-.719,3.532,3.532,0,0,1,2.332.742,2.357,2.357,0,0,1,.895,1.9h-1.453a1.3,1.3,0,0,0-.5-1.023,1.888,1.888,0,0,0-1.27-.43,1.976,1.976,0,0,0-1.234.344,1.082,1.082,0,0,0-.445.9.877.877,0,0,0,.414.789,5.1,5.1,0,0,0,1.5.508,7.8,7.8,0,0,1,1.754.578,2.558,2.558,0,0,1,1,.809,1.988,1.988,0,0,1,.324,1.152,2.163,2.163,0,0,1-.906,1.816,3.8,3.8,0,0,1-2.352.684,4.257,4.257,0,0,1-1.8-.359,2.922,2.922,0,0,1-1.223-1,2.42,2.42,0,0,1-.441-1.395H98.5a1.5,1.5,0,0,0,.582,1.152,2.258,2.258,0,0,0,1.434.426,2.331,2.331,0,0,0,1.316-.332A1.02,1.02,0,0,0,102.328,14.758Z" transform="translate(879.06 13404)" fill="#12263f"/><path d="M47.7,13.391a4.185,4.185,0,0,1-1.332,2.785,4.365,4.365,0,0,1-2.98.98,4.008,4.008,0,0,1-3.23-1.445,5.815,5.815,0,0,1-1.215-3.867V10.75A6.481,6.481,0,0,1,39.5,7.961a4.231,4.231,0,0,1,1.605-1.848,4.47,4.47,0,0,1,2.406-.645A4.11,4.11,0,0,1,46.422,6.48a4.235,4.235,0,0,1,1.273,2.8H46.188a3.268,3.268,0,0,0-.848-1.975A2.565,2.565,0,0,0,43.516,6.7a2.684,2.684,0,0,0-2.254,1.063,4.882,4.882,0,0,0-.816,3.026v1.1a5.018,5.018,0,0,0,.773,2.948,2.5,2.5,0,0,0,2.164,1.095,2.887,2.887,0,0,0,1.918-.566,3.143,3.143,0,0,0,.887-1.973Zm1.438-.7a4.993,4.993,0,0,1,.488-2.234A3.643,3.643,0,0,1,50.98,8.93a3.7,3.7,0,0,1,1.988-.539,3.565,3.565,0,0,1,2.793,1.2,4.6,4.6,0,0,1,1.066,3.18v.1a5.036,5.036,0,0,1-.473,2.215A3.589,3.589,0,0,1,55,16.609a3.743,3.743,0,0,1-2.02.547,3.556,3.556,0,0,1-2.785-1.2A4.575,4.575,0,0,1,49.133,12.8Zm1.453.172a3.616,3.616,0,0,0,.652,2.258,2.211,2.211,0,0,0,3.5-.012,3.955,3.955,0,0,0,.648-2.418,3.61,3.61,0,0,0-.66-2.254,2.1,2.1,0,0,0-1.754-.863,2.075,2.075,0,0,0-1.727.852A3.925,3.925,0,0,0,50.586,12.867Zm9.422-4.32.047,1.063a3.08,3.08,0,0,1,2.531-1.219q2.68,0,2.7,3.023V17H63.844V11.406a1.946,1.946,0,0,0-.418-1.352,1.675,1.675,0,0,0-1.277-.437,2.086,2.086,0,0,0-1.234.375,2.546,2.546,0,0,0-.828.984V17H58.641V8.547ZM68.18,17V9.664H66.844V8.547H68.18V7.68a2.878,2.878,0,0,1,.727-2.1,2.745,2.745,0,0,1,2.055-.742,3.816,3.816,0,0,1,.992.132l-.078,1.165a4.151,4.151,0,0,0-.781-.07,1.41,1.41,0,0,0-1.086.411,1.669,1.669,0,0,0-.383,1.18v.893h1.8V9.664h-1.8V17Zm8.352.156a3.693,3.693,0,0,1-2.8-1.129,4.19,4.19,0,0,1-1.078-3.02v-.266a5.073,5.073,0,0,1,.48-2.246A3.748,3.748,0,0,1,74.48,8.949a3.378,3.378,0,0,1,1.871-.559,3.166,3.166,0,0,1,2.563,1.086,4.7,4.7,0,0,1,.914,3.109v.6H74.1a3,3,0,0,0,.73,2.02,2.3,2.3,0,0,0,1.777.77,2.517,2.517,0,0,0,1.3-.312,3.259,3.259,0,0,0,.93-.828l.883.688A3.55,3.55,0,0,1,76.531,17.156Zm-.18-7.578a1.928,1.928,0,0,0-1.469.637A3.1,3.1,0,0,0,74.148,12h4.234v-.109a2.753,2.753,0,0,0-.594-1.707A1.815,1.815,0,0,0,76.352,9.578Zm8.539,6.4a2.082,2.082,0,0,0,1.352-.469,1.649,1.649,0,0,0,.641-1.172H88.25a2.621,2.621,0,0,1-.5,1.383,3.293,3.293,0,0,1-1.23,1.047,3.55,3.55,0,0,1-1.629.391A3.482,3.482,0,0,1,82.145,16a4.59,4.59,0,0,1-1.02-3.152v-.242a5.089,5.089,0,0,1,.453-2.2,3.451,3.451,0,0,1,1.3-1.492,3.7,3.7,0,0,1,2-.531,3.39,3.39,0,0,1,2.363.852,3.043,3.043,0,0,1,1,2.211H86.883a1.992,1.992,0,0,0-.621-1.348,1.932,1.932,0,0,0-1.379-.527,2.023,2.023,0,0,0-1.707.793,3.724,3.724,0,0,0-.605,2.293v.273a3.65,3.65,0,0,0,.6,2.25A2.033,2.033,0,0,0,84.891,15.977Zm8.375,0a2.082,2.082,0,0,0,1.352-.469,1.649,1.649,0,0,0,.641-1.172h1.367a2.621,2.621,0,0,1-.5,1.383,3.293,3.293,0,0,1-1.23,1.047,3.55,3.55,0,0,1-1.629.391A3.482,3.482,0,0,1,90.52,16a4.59,4.59,0,0,1-1.02-3.152v-.242a5.089,5.089,0,0,1,.453-2.2,3.451,3.451,0,0,1,1.3-1.492,3.7,3.7,0,0,1,2-.531,3.39,3.39,0,0,1,2.363.852,3.043,3.043,0,0,1,1,2.211H95.258a1.992,1.992,0,0,0-.621-1.348,1.932,1.932,0,0,0-1.379-.527,2.023,2.023,0,0,0-1.707.793,3.724,3.724,0,0,0-.605,2.293v.273a3.65,3.65,0,0,0,.6,2.25A2.033,2.033,0,0,0,93.266,15.977ZM99.82,17H98.375V8.547H99.82ZM98.258,6.3a.863.863,0,0,1,.215-.594.807.807,0,0,1,.637-.242.819.819,0,0,1,.641.242.854.854,0,0,1,.219.594.826.826,0,0,1-.219.586.834.834,0,0,1-.641.234.821.821,0,0,1-.637-.234A.834.834,0,0,1,98.258,6.3ZM101.75,12.7a4.993,4.993,0,0,1,.488-2.234A3.643,3.643,0,0,1,103.6,8.93a3.7,3.7,0,0,1,1.988-.539,3.565,3.565,0,0,1,2.793,1.2,4.6,4.6,0,0,1,1.066,3.18v.1a5.036,5.036,0,0,1-.473,2.215,3.589,3.589,0,0,1-1.352,1.527,3.743,3.743,0,0,1-2.02.547,3.556,3.556,0,0,1-2.785-1.2A4.575,4.575,0,0,1,101.75,12.8Zm1.453.172a3.616,3.616,0,0,0,.652,2.258,2.211,2.211,0,0,0,3.5-.012A3.955,3.955,0,0,0,108,12.7a3.61,3.61,0,0,0-.66-2.254,2.1,2.1,0,0,0-1.754-.863,2.075,2.075,0,0,0-1.727.852A3.925,3.925,0,0,0,103.2,12.867ZM106.242,5h1.75L105.9,7.3l-1.164,0Zm6.383,3.547.047,1.063A3.08,3.08,0,0,1,115.2,8.391q2.68,0,2.7,3.023V17h-1.445V11.406a1.946,1.946,0,0,0-.418-1.352,1.675,1.675,0,0,0-1.277-.437,2.086,2.086,0,0,0-1.234.375,2.546,2.546,0,0,0-.828.984V17h-1.445V8.547Z" transform="translate(879.06 13514)" fill="#12263f"/></g></svg>