<svg xmlns="http://www.w3.org/2000/svg" width="94" height="94" viewBox="0 0 94 94">
  <g id="Grupo_1069602" data-name="Grupo 1069602" transform="translate(-1167 -1581.5)">
    <path id="Trazado_773588" data-name="Trazado 773588" d="M47,0A47,47,0,1,1,0,47,47,47,0,0,1,47,0Z" transform="translate(1167 1581.5)" fill="#025157"/>
    <path id="Trazado_773589" data-name="Trazado 773589" d="M22.148,36.592a7.788,7.788,0,0,1-3.076,6.583q-3.076,2.338-8.8,2.338a24.938,24.938,0,0,1-4.225-.359A18.074,18.074,0,0,1,2.461,44.2v-6.85A12.276,12.276,0,0,0,5.6,38.643a13.755,13.755,0,0,0,3.568.472,5.757,5.757,0,0,0,3.209-.749,2.426,2.426,0,0,0,1.118-2.143,2.46,2.46,0,0,0-1.374-2.215,7.664,7.664,0,0,0-3.835-.8H5.455V26.769h2.5A6.837,6.837,0,0,0,11.618,26,2.308,2.308,0,0,0,12.8,24a2.192,2.192,0,0,0-.892-1.846,4.522,4.522,0,0,0-2.738-.677,11.343,11.343,0,0,0-5.7,1.641V16.576A19.438,19.438,0,0,1,10.972,15.1q4.881,0,7.649,1.989a6.415,6.415,0,0,1,2.769,5.517A7.172,7.172,0,0,1,19.9,27.22a7,7,0,0,1-4.173,2.44v.1a7.58,7.58,0,0,1,4.7,2.266A6.457,6.457,0,0,1,22.148,36.592Z" transform="translate(1200 1604.5)" fill="#fff"/>
  </g>
</svg>
