<svg xmlns="http://www.w3.org/2000/svg" xmlns:xlink="http://www.w3.org/1999/xlink" width="726" height="631" viewBox="0 0 726 631"><defs><filter id="a" x="0" y="0" width="726" height="631" filterUnits="userSpaceOnUse"><feOffset dy="3" input="SourceAlpha"/><feGaussianBlur stdDeviation="3" result="b"/><feFlood flood-opacity="0.161"/><feComposite operator="in" in2="b"/><feComposite in="SourceGraphic"/></filter><filter id="c" x="299.295" y="94.9" width="129.419" height="89.072" filterUnits="userSpaceOnUse"><feOffset dy="3" input="SourceAlpha"/><feGaussianBlur stdDeviation="3" result="d"/><feFlood flood-opacity="0.161"/><feComposite operator="in" in2="d"/><feComposite in="SourceGraphic"/></filter><filter id="e" x="391.83" y="102.157" width="131.122" height="121.13" filterUnits="userSpaceOnUse"><feOffset dy="3" input="SourceAlpha"/><feGaussianBlur stdDeviation="3" result="f"/><feFlood flood-opacity="0.161"/><feComposite operator="in" in2="f"/><feComposite in="SourceGraphic"/></filter><filter id="g" x="456.363" y="156.655" width="120.512" height="132.133" filterUnits="userSpaceOnUse"><feOffset dy="3" input="SourceAlpha"/><feGaussianBlur stdDeviation="3" result="h"/><feFlood flood-opacity="0.161"/><feComposite operator="in" in2="h"/><feComposite in="SourceGraphic"/></filter><filter id="i" x="489.593" y="251.053" width="94.289" height="129.008" filterUnits="userSpaceOnUse"><feOffset dy="3" input="SourceAlpha"/><feGaussianBlur stdDeviation="3" result="j"/><feFlood flood-opacity="0.161"/><feComposite operator="in" in2="j"/><feComposite in="SourceGraphic"/></filter><filter id="k" x="451.675" y="341.734" width="125.137" height="132.56" filterUnits="userSpaceOnUse"><feOffset dy="3" input="SourceAlpha"/><feGaussianBlur stdDeviation="3" result="l"/><feFlood flood-opacity="0.161"/><feComposite operator="in" in2="l"/><feComposite in="SourceGraphic"/></filter><filter id="m" x="389.493" y="403.22" width="133.284" height="125.417" filterUnits="userSpaceOnUse"><feOffset dy="3" input="SourceAlpha"/><feGaussianBlur stdDeviation="3" result="n"/><feFlood flood-opacity="0.161"/><feComposite operator="in" in2="n"/><feComposite in="SourceGraphic"/></filter><filter id="o" x="299.381" y="438.468" width="129.243" height="97.407" filterUnits="userSpaceOnUse"><feOffset dy="3" input="SourceAlpha"/><feGaussianBlur stdDeviation="3" result="p"/><feFlood flood-opacity="0.161"/><feComposite operator="in" in2="p"/><feComposite in="SourceGraphic"/></filter><filter id="q" x="204.661" y="403.87" width="133.86" height="125.095" filterUnits="userSpaceOnUse"><feOffset dy="3" input="SourceAlpha"/><feGaussianBlur stdDeviation="3" result="r"/><feFlood flood-opacity="0.161"/><feComposite operator="in" in2="r"/><feComposite in="SourceGraphic"/></filter><filter id="s" x="150.078" y="342.063" width="125.702" height="132.887" filterUnits="userSpaceOnUse"><feOffset dy="3" input="SourceAlpha"/><feGaussianBlur stdDeviation="3" result="t"/><feFlood flood-opacity="0.161"/><feComposite operator="in" in2="t"/><feComposite in="SourceGraphic"/></filter><filter id="u" x="142.893" y="250.717" width="94.393" height="129.664" filterUnits="userSpaceOnUse"><feOffset dy="3" input="SourceAlpha"/><feGaussianBlur stdDeviation="3" result="v"/><feFlood flood-opacity="0.161"/><feComposite operator="in" in2="v"/><feComposite in="SourceGraphic"/></filter><filter id="w" x="149.968" y="156.001" width="121.098" height="132.454" filterUnits="userSpaceOnUse"><feOffset dy="3" input="SourceAlpha"/><feGaussianBlur stdDeviation="3" result="x"/><feFlood flood-opacity="0.161"/><feComposite operator="in" in2="x"/><feComposite in="SourceGraphic"/></filter><filter id="y" x="204.482" y="101.841" width="131.699" height="120.769" filterUnits="userSpaceOnUse"><feOffset dy="3" input="SourceAlpha"/><feGaussianBlur stdDeviation="3" result="z"/><feFlood flood-opacity="0.161"/><feComposite operator="in" in2="z"/><feComposite in="SourceGraphic"/></filter></defs><g transform="translate(-691 -5759)"><g transform="matrix(1, 0, 0, 1, 691, 5759)" filter="url(#a)"><rect width="708" height="613" rx="14" transform="translate(9 6)" fill="#fff"/></g><g transform="translate(-0.11 -0.115)"><g transform="matrix(1, 0, 0, 1, 691.11, 5759.12)" filter="url(#c)"><path d="M-779.055,969.64a142.6,142.6,0,0,1,38.662,5.312l16.439-61.351c-.22-.06-.433-.134-.654-.193a209.324,209.324,0,0,0-108.316-.128l16.436,61.34A142.582,142.582,0,0,1-779.055,969.64Z" transform="translate(1142.44 -804.22)" fill="#fef121" stroke="#262626" stroke-miterlimit="10" stroke-width="2"/></g><g transform="matrix(1, 0, 0, 1, 691.11, 5759.12)" filter="url(#e)"><path d="M-675.686,1014.07l45.782-45.782a209.3,209.3,0,0,0-94.05-54.687l-16.439,61.351A142.422,142.422,0,0,1-675.686,1014.07Z" transform="translate(1142.44 -804.22)" fill="#fff" stroke="#262626" stroke-miterlimit="10" stroke-width="2"/></g><g transform="matrix(1, 0, 0, 1, 691.11, 5759.12)" filter="url(#g)"><path d="M-640.272,1079.771l64.478-17.277a211.139,211.139,0,0,0-21.079-51.072A211.157,211.157,0,0,0-629.9,968.288l-45.782,45.782A142.17,142.17,0,0,1-640.272,1079.771Z" transform="translate(1142.44 -804.22)" fill="#fff" stroke="#262626" stroke-miterlimit="10" stroke-width="2"/></g><g transform="matrix(1, 0, 0, 1, 691.11, 5759.12)" filter="url(#i)"><path d="M-575.794,1062.494l-64.478,17.277a142.89,142.89,0,0,1,3.689,32.341,142.472,142.472,0,0,1-6.015,41.056l66.741,17.884A209.324,209.324,0,0,0-575.794,1062.494Z" transform="translate(1142.44 -804.22)" fill="#fff" stroke="#262626" stroke-miterlimit="10" stroke-width="2"/></g><g transform="matrix(1, 0, 0, 1, 691.11, 5759.12)" filter="url(#k)"><path d="M-642.6,1153.168a142.444,142.444,0,0,1-37.743,61.669l50.259,50.259a209.311,209.311,0,0,0,54.225-94.044Z" transform="translate(1142.44 -804.22)" fill="#ff4929" stroke="#262626" stroke-miterlimit="10" stroke-width="2"/></g><g transform="matrix(1, 0, 0, 1, 691.11, 5759.12)" filter="url(#m)"><path d="M-680.341,1214.837a142.262,142.262,0,0,1-62.385,35.067l18.682,69.721a211.176,211.176,0,0,0,50.172-20.839,211.112,211.112,0,0,0,43.79-33.69Z" transform="translate(1142.44 -804.22)" fill="#fff" stroke="#262626" stroke-miterlimit="10" stroke-width="2"/></g><g transform="matrix(1, 0, 0, 1, 691.11, 5759.12)" filter="url(#o)"><path d="M-779.055,1254.584a142.722,142.722,0,0,1-35.1-4.361l-18.686,69.738a209.311,209.311,0,0,0,108.794-.336l-18.682-69.721A142.72,142.72,0,0,1-779.055,1254.584Z" transform="translate(1142.44 -804.22)" fill="#fff" stroke="#262626" stroke-miterlimit="10" stroke-width="2"/></g><g transform="matrix(1, 0, 0, 1, 691.11, 5759.12)" filter="url(#q)"><path d="M-877.1,1215.482l-50.271,50.271A209.314,209.314,0,0,0-833.5,1319.8c.221.059.442.1.663.16l18.686-69.738A142.214,142.214,0,0,1-877.1,1215.482Z" transform="translate(1142.44 -804.22)" fill="#fff" stroke="#262626" stroke-miterlimit="10" stroke-width="2"/></g><g transform="matrix(1, 0, 0, 1, 691.11, 5759.12)" filter="url(#s)"><path d="M-915.415,1153.495l-66.724,17.878a211.154,211.154,0,0,0,20.9,50.414,211.094,211.094,0,0,0,33.867,43.966l50.271-50.271A142.47,142.47,0,0,1-915.415,1153.495Z" transform="translate(1142.44 -804.22)" fill="#197ac4" stroke="#262626" stroke-miterlimit="10" stroke-width="2"/></g><g transform="matrix(1, 0, 0, 1, 691.11, 5759.12)" filter="url(#u)"><path d="M-921.527,1112.112a142.884,142.884,0,0,1,3.769-32.673l-64.494-17.281a209.3,209.3,0,0,0,.113,109.215l66.724-17.878A142.434,142.434,0,0,1-921.527,1112.112Z" transform="translate(1142.44 -804.22)" fill="#fff" stroke="#262626" stroke-miterlimit="10" stroke-width="2"/></g><g transform="matrix(1, 0, 0, 1, 691.11, 5759.12)" filter="url(#w)"><path d="M-881.779,1013.4l-45.768-45.768a209.313,209.313,0,0,0-54.705,94.528l64.494,17.281A142.191,142.191,0,0,1-881.779,1013.4Z" transform="translate(1142.44 -804.22)" fill="#fff" stroke="#262626" stroke-miterlimit="10" stroke-width="2"/></g><g transform="matrix(1, 0, 0, 1, 691.11, 5759.12)" filter="url(#y)"><path d="M-816.488,974.62l-16.436-61.34a211.156,211.156,0,0,0-51.314,21.143,211.186,211.186,0,0,0-43.309,33.207l45.768,45.768A142.358,142.358,0,0,1-816.488,974.62Z" transform="translate(1142.44 -804.22)" fill="#fff" stroke="#262626" stroke-miterlimit="10" stroke-width="2"/></g></g></g></svg>