<svg xmlns="http://www.w3.org/2000/svg" xmlns:xlink="http://www.w3.org/1999/xlink" width="726" height="631" viewBox="0 0 726 631"><defs><filter id="a" x="0" y="0" width="726" height="631" filterUnits="userSpaceOnUse"><feOffset dy="3" input="SourceAlpha"/><feGaussianBlur stdDeviation="3" result="b"/><feFlood flood-opacity="0.161"/><feComposite operator="in" in2="b"/><feComposite in="SourceGraphic"/></filter><filter id="c" x="293.672" y="67" width="140.305" height="95.146" filterUnits="userSpaceOnUse"><feOffset input="SourceAlpha"/><feGaussianBlur stdDeviation="3" result="d"/><feFlood flood-opacity="0.4"/><feComposite operator="in" in2="d"/><feComposite in="SourceGraphic"/></filter><filter id="e" x="397.526" y="75.289" width="142.008" height="130.762" filterUnits="userSpaceOnUse"><feOffset input="SourceAlpha"/><feGaussianBlur stdDeviation="3" result="f"/><feFlood flood-opacity="0.4"/><feComposite operator="in" in2="f"/><feComposite in="SourceGraphic"/></filter><filter id="g" x="470.151" y="136.667" width="130.114" height="143.124" filterUnits="userSpaceOnUse"><feOffset input="SourceAlpha"/><feGaussianBlur stdDeviation="3" result="h"/><feFlood flood-opacity="0.4"/><feComposite operator="in" in2="h"/><feComposite in="SourceGraphic"/></filter><filter id="i" x="507.287" y="242.4" width="100.979" height="139.841" filterUnits="userSpaceOnUse"><feOffset input="SourceAlpha"/><feGaussianBlur stdDeviation="3" result="j"/><feFlood flood-opacity="0.4"/><feComposite operator="in" in2="j"/><feComposite in="SourceGraphic"/></filter><filter id="k" x="464.926" y="344.169" width="135.269" height="143.624" filterUnits="userSpaceOnUse"><feOffset input="SourceAlpha"/><feGaussianBlur stdDeviation="3" result="l"/><feFlood flood-opacity="0.4"/><feComposite operator="in" in2="l"/><feComposite in="SourceGraphic"/></filter><filter id="m" x="394.908" y="413.384" width="144.427" height="135.61" filterUnits="userSpaceOnUse"><feOffset input="SourceAlpha"/><feGaussianBlur stdDeviation="3" result="n"/><feFlood flood-opacity="0.4"/><feComposite operator="in" in2="n"/><feComposite in="SourceGraphic"/></filter><filter id="o" x="293.77" y="452.741" width="140.105" height="104.515" filterUnits="userSpaceOnUse"><feOffset input="SourceAlpha"/><feGaussianBlur stdDeviation="3" result="p"/><feFlood flood-opacity="0.4"/><feComposite operator="in" in2="p"/><feComposite in="SourceGraphic"/></filter><filter id="q" x="187.672" y="414.107" width="145.07" height="135.264" filterUnits="userSpaceOnUse"><feOffset input="SourceAlpha"/><feGaussianBlur stdDeviation="3" result="r"/><feFlood flood-opacity="0.4"/><feComposite operator="in" in2="r"/><feComposite in="SourceGraphic"/></filter><filter id="s" x="126.2" y="344.536" width="135.895" height="143.994" filterUnits="userSpaceOnUse"><feOffset input="SourceAlpha"/><feGaussianBlur stdDeviation="3" result="t"/><feFlood flood-opacity="0.4"/><feComposite operator="in" in2="t"/><feComposite in="SourceGraphic"/></filter><filter id="u" x="118" y="242.023" width="101.088" height="140.579" filterUnits="userSpaceOnUse"><feOffset input="SourceAlpha"/><feGaussianBlur stdDeviation="3" result="v"/><feFlood flood-opacity="0.4"/><feComposite operator="in" in2="v"/><feComposite in="SourceGraphic"/></filter><filter id="w" x="126.073" y="135.928" width="130.767" height="143.49" filterUnits="userSpaceOnUse"><feOffset input="SourceAlpha"/><feGaussianBlur stdDeviation="3" result="x"/><feFlood flood-opacity="0.4"/><feComposite operator="in" in2="x"/><feComposite in="SourceGraphic"/></filter><filter id="y" x="187.472" y="74.928" width="142.647" height="130.368" filterUnits="userSpaceOnUse"><feOffset input="SourceAlpha"/><feGaussianBlur stdDeviation="3" result="z"/><feFlood flood-opacity="0.4"/><feComposite operator="in" in2="z"/><feComposite in="SourceGraphic"/></filter></defs><g transform="translate(-691 -3147)"><g transform="matrix(1, 0, 0, 1, 691, 3147)" filter="url(#a)"><rect width="708" height="613" rx="14" transform="translate(9 6)" fill="#fff"/></g><g transform="translate(2305.67 1142.713)"><g transform="matrix(1, 0, 0, 1, -1614.67, 2004.29)" filter="url(#c)"><path d="M-1270.688,2151.471a160,160,0,0,1,43.393,5.962l18.451-68.858c-.248-.068-.487-.15-.734-.217a234.941,234.941,0,0,0-121.571-.144l18.447,68.845A160.047,160.047,0,0,1-1270.688,2151.471Z" transform="translate(1633.82 -2004.29)" fill="#fef121"/></g><g transform="matrix(1, 0, 0, 1, -1614.67, 2004.29)" filter="url(#e)"><path d="M-1165.993,2200.435l51.384-51.384a234.914,234.914,0,0,0-105.558-61.378l-18.451,68.858A159.857,159.857,0,0,1-1165.993,2200.435Z" transform="translate(1645.14 -2003.38)" fill="#face32"/></g><g transform="matrix(1, 0, 0, 1, -1614.67, 2004.29)" filter="url(#g)"><path d="M-1134.164,2267.483l72.366-19.391a236.916,236.916,0,0,0-23.657-57.321,237.008,237.008,0,0,0-37.073-48.412l-51.384,51.384A159.562,159.562,0,0,1-1134.164,2267.483Z" transform="translate(1653.06 -1996.69)" fill="#f6ac43"/></g><g transform="matrix(1, 0, 0, 1, -1614.67, 2004.29)" filter="url(#i)"><path d="M-1065.846,2236.565l-72.366,19.391a160.362,160.362,0,0,1,4.14,36.3,159.9,159.9,0,0,1-6.751,46.079l74.907,20.073A234.925,234.925,0,0,0-1065.846,2236.565Z" transform="translate(1657.11 -1985.16)" fill="#fb7833"/></g><g transform="matrix(1, 0, 0, 1, -1614.67, 2004.29)" filter="url(#k)"><path d="M-1136.2,2327.239a159.874,159.874,0,0,1-42.361,69.215l56.409,56.409a234.922,234.922,0,0,0,60.86-105.551Z" transform="translate(1652.49 -1974.07)" fill="#ff4929"/></g><g transform="matrix(1, 0, 0, 1, -1614.67, 2004.29)" filter="url(#m)"><path d="M-1170.932,2388.908a159.662,159.662,0,0,1-70.019,39.357l20.967,78.253a237.028,237.028,0,0,0,56.312-23.389,236.938,236.938,0,0,0,49.148-37.812Z" transform="translate(1644.86 -1966.52)" fill="#d24499"/></g><g transform="matrix(1, 0, 0, 1, -1614.67, 2004.29)" filter="url(#o)"><path d="M-1270.7,2429.229a160.183,160.183,0,0,1-39.391-4.9l-20.973,78.271a234.919,234.919,0,0,0,122.1-.377l-20.967-78.253A160.146,160.146,0,0,1-1270.7,2429.229Z" transform="translate(1633.83 -1962.23)" fill="#7e38b0"/></g><g transform="matrix(1, 0, 0, 1, -1614.67, 2004.29)" filter="url(#q)"><path d="M-1369.171,2389.552l-56.423,56.423a234.93,234.93,0,0,0,105.354,60.661c.248.066.5.115.744.179l20.973-78.271A159.6,159.6,0,0,1-1369.171,2389.552Z" transform="translate(1622.27 -1966.45)" fill="#525eba"/></g><g transform="matrix(1, 0, 0, 1, -1614.67, 2004.29)" filter="url(#s)"><path d="M-1405.476,2327.566l-74.888,20.066a236.988,236.988,0,0,0,23.462,56.582,236.949,236.949,0,0,0,38.01,49.346l56.423-56.423A159.9,159.9,0,0,1-1405.476,2327.566Z" transform="translate(1615.56 -1974.03)" fill="#197ac4"/></g><g transform="matrix(1, 0, 0, 1, -1614.67, 2004.29)" filter="url(#u)"><path d="M-1411.443,2292.3a160.37,160.37,0,0,1,4.231-36.671l-72.385-19.4a234.914,234.914,0,0,0,.127,122.579l74.888-20.066A159.861,159.861,0,0,1-1411.443,2292.3Z" transform="translate(1614.67 -1985.21)" fill="#1bb3cf"/></g><g transform="matrix(1, 0, 0, 1, -1614.67, 2004.29)" filter="url(#w)"><path d="M-1367.71,2193.069l-51.368-51.368a234.927,234.927,0,0,0-61.4,106.094l72.385,19.4A159.591,159.591,0,0,1-1367.71,2193.069Z" transform="translate(1615.55 -1996.77)" fill="#34b534"/></g><g transform="matrix(1, 0, 0, 1, -1614.67, 2004.29)" filter="url(#y)"><path d="M-1301.125,2156.2l-18.447-68.845a236.976,236.976,0,0,0-57.592,23.73,237.042,237.042,0,0,0-48.608,37.27l51.368,51.368A159.782,159.782,0,0,1-1301.125,2156.2Z" transform="translate(1622.24 -2003.42)" fill="#8ad21b"/></g><g transform="translate(-1258.526 2161.474)"><path d="M-1277.851,2461.553c-.136-.694-.385-101.42-.742-299.381l2.245,0c.089,49.4.542,295.965.716,299.079l-.915.052Z" transform="translate(1284.109 -2151.455)" fill="#c07"/><path d="M-1270.208,2168.374l-6.655-2.812-6.645,2.838,6.62-15.777Z" transform="translate(1283.508 -2152.623)" fill="#c07"/></g><g transform="translate(-1386.273 2238.624)"><path d="M-1396.67,2376.944c.771-.671,268-155.582,268-155.582" transform="translate(1397.407 -2221.362)" fill="#5cb130"/><path d="M-1395.952,2377.387l-.5-.766-.874-1c.527-.46,87.634-51.038,258.9-150.333l1.126,1.943C-1197.344,2262.038-1393.445,2375.745-1395.952,2377.387Z" transform="translate(1397.327 -2220.882)" fill="#56af31"/><g transform="translate(251.761)"><path d="M-1166.341,2235.023l-.892-7.17-5.78-4.335,16.973-2.156Z" transform="translate(1173.013 -2221.362)" fill="#56af31"/></g></g><g transform="translate(-1386.385 2238.202)"><path d="M-1397,2221.933c.968.332,268.736,154.3,268.736,154.3" transform="translate(1397.479 -2220.87)" fill="#5cb130"/><path d="M-1138.06,2371.981c-60.173-34.6-256.711-147.578-259.367-148.919l.412-.818.432-1.258c.245.085.99.34,259.642,149.048Z" transform="translate(1397.427 -2220.986)" fill="#284597"/><g transform="translate(252.235 141.742)"><path d="M-1172.691,2358.806l5.763-4.357.865-7.173,10.353,13.621Z" transform="translate(1172.691 -2347.275)" fill="#284597"/></g></g><g transform="translate(-1275.487 2106.577)"><path d="M-1292.7,2111.623h-3.032l-.53,1.714h-2.363l3.365-9.176h2.08l3.391,9.176h-2.376Zm-2.5-1.708h1.972l-.989-3.183Z" transform="translate(1298.619 -2103.656)"/><path d="M-1288.5,2106.275l.07.8a2.343,2.343,0,0,1,1.947-.928,1.725,1.725,0,0,1,1.745,1.028,2.269,2.269,0,0,1,2-1.028q2.073,0,2.13,2.509v4.437h-2.13v-4.3a1.3,1.3,0,0,0-.176-.763.753.753,0,0,0-.643-.24,1,1,0,0,0-.938.56l.006.091v4.655h-2.13V2108.8a1.374,1.374,0,0,0-.17-.774.752.752,0,0,0-.65-.24,1.02,1.02,0,0,0-.933.56v4.746h-2.123v-6.818Z" transform="translate(1299.613 -2103.413)"/><path d="M-1276.728,2113.093a2.385,2.385,0,0,1-.2-.612,1.973,1.973,0,0,1-1.639.739,2.425,2.425,0,0,1-1.639-.583,1.857,1.857,0,0,1-.675-1.467,1.9,1.9,0,0,1,.819-1.675,4.162,4.162,0,0,1,2.383-.568h.656v-.362c0-.63-.272-.943-.814-.943a.665.665,0,0,0-.757.748h-2.123a1.9,1.9,0,0,1,.842-1.606,3.534,3.534,0,0,1,2.146-.617,3.108,3.108,0,0,1,2.061.636,2.214,2.214,0,0,1,.775,1.746v3.019a3.082,3.082,0,0,0,.291,1.436v.108Zm-1.329-1.385a1.174,1.174,0,0,0,.658-.172,1.08,1.08,0,0,0,.376-.384v-1.091h-.619q-1.109,0-1.109,1a.607.607,0,0,0,.2.469A.706.706,0,0,0-1278.057,2111.708Z" transform="translate(1300.789 -2103.413)"/><path d="M-1270.376,2108.2l-.7-.051a1.255,1.255,0,0,0-1.285.631v4.316h-2.123v-6.818h1.991l.07.875a1.643,1.643,0,0,1,1.494-1,2.054,2.054,0,0,1,.591.076Z" transform="translate(1301.572 -2103.413)"/><path d="M-1270.156,2104.8a.959.959,0,0,1,.328-.749,1.239,1.239,0,0,1,.851-.291,1.239,1.239,0,0,1,.851.291.958.958,0,0,1,.328.749.955.955,0,0,1-.328.749,1.232,1.232,0,0,1-.851.292,1.232,1.232,0,0,1-.851-.292A.956.956,0,0,1-1270.156,2104.8Zm2.256,8.583h-2.13v-6.818h2.13Z" transform="translate(1302.102 -2103.704)"/><path d="M-1264.753,2113.391h-2.13v-9.68h2.13Z" transform="translate(1302.502 -2103.711)"/><path d="M-1261.592,2113.391h-2.13v-9.68h2.13Z" transform="translate(1302.889 -2103.711)"/><path d="M-1260.9,2109.621a4.033,4.033,0,0,1,.4-1.817,2.833,2.833,0,0,1,1.141-1.227,3.428,3.428,0,0,1,1.745-.429,3.135,3.135,0,0,1,2.414.949,3.637,3.637,0,0,1,.882,2.58v.075a3.531,3.531,0,0,1-.885,2.531,3.145,3.145,0,0,1-2.4.936,3.182,3.182,0,0,1-2.338-.873,3.415,3.415,0,0,1-.952-2.366Zm2.123.133a2.537,2.537,0,0,0,.3,1.387.988.988,0,0,0,.875.44q1.135,0,1.159-1.744v-.216q0-1.835-1.172-1.834-1.064,0-1.154,1.583Z" transform="translate(1303.235 -2103.413)"/><path d="M-1296.406,2122.656l-.548,3.68h-1.241l1.374-9.177h3.511a2.822,2.822,0,0,1,2.139.763,2.255,2.255,0,0,1,.551,1.985,3.079,3.079,0,0,1-1.112,2.024,3.74,3.74,0,0,1-2.4.724Zm.146-.971h2.275a2.064,2.064,0,0,0,1.449-.507,2.07,2.07,0,0,0,.668-1.257,1.646,1.646,0,0,0-.267-1.285,1.566,1.566,0,0,0-1.321-.5h-2.268Z" transform="translate(1298.671 -2102.065)"/><path d="M-1286.952,2120.371l-.631-.038a1.539,1.539,0,0,0-.858.242,2.035,2.035,0,0,0-.63.684l-.725,4.834h-1.241l1.021-6.818h1.109l-.025.963a2.867,2.867,0,0,1,.832-.8,1.914,1.914,0,0,1,1.027-.287,1.46,1.46,0,0,1,.261.022,1.422,1.422,0,0,1,.205.048Z" transform="translate(1299.547 -2101.822)"/><path d="M-1285.677,2126.408h-1.243l1.021-6.818h1.241Zm1.285-8.565h-1.241l.19-1.267h1.24Z" transform="translate(1300.051 -2102.136)"/><path d="M-1282.026,2120.137a2.754,2.754,0,0,1,.952-.733,2.915,2.915,0,0,1,1.241-.256,1.852,1.852,0,0,1,1.1.316,1.566,1.566,0,0,1,.6.938,3.035,3.035,0,0,1,.986-.922,2.585,2.585,0,0,1,1.3-.333,1.74,1.74,0,0,1,1.515.722,2.938,2.938,0,0,1,.306,2.146l-.612,4.078h-1.241l.611-4.091a2.111,2.111,0,0,0-.122-1.445,1.114,1.114,0,0,0-.98-.4,1.523,1.523,0,0,0-1.081.447,2.332,2.332,0,0,0-.647,1.115.064.064,0,0,0-.006.022v.022l-.649,4.329H-1280l.612-4.091a2.078,2.078,0,0,0-.136-1.42,1.084,1.084,0,0,0-.968-.425,1.806,1.806,0,0,0-.962.249,1.986,1.986,0,0,0-.671.689l-.75,5h-1.241l1.021-6.818h1.109Z" transform="translate(1300.394 -2101.822)"/><path d="M-1269.873,2126.093c-.008-.235-.012-.425-.012-.57a3.71,3.71,0,0,1,.026-.444,3.687,3.687,0,0,1-1.031.817,2.6,2.6,0,0,1-1.245.331,1.943,1.943,0,0,1-1.523-.552,1.739,1.739,0,0,1-.349-1.5,2.083,2.083,0,0,1,1.008-1.543,4.193,4.193,0,0,1,2.237-.536h1.349l.1-.673a1.1,1.1,0,0,0-.218-.962,1.284,1.284,0,0,0-.985-.335,1.718,1.718,0,0,0-1.009.3,1.055,1.055,0,0,0-.492.724l-1.185.012-.006-.037a1.954,1.954,0,0,1,.9-1.377,3.3,3.3,0,0,1,2-.6,2.459,2.459,0,0,1,1.752.6,1.821,1.821,0,0,1,.478,1.693l-.492,3.282a5.37,5.37,0,0,0-.072.716,3.583,3.583,0,0,0,.04.658Zm-1.923-.908a2.446,2.446,0,0,0,1.249-.353,2.1,2.1,0,0,0,.837-.793l.171-1.1h-1.393a2.051,2.051,0,0,0-1.248.384,1.335,1.335,0,0,0-.593.884.818.818,0,0,0,.167.728A1.084,1.084,0,0,0-1271.8,2125.185Z" transform="translate(1301.626 -2101.822)"/><path d="M-1263.655,2120.371l-.63-.038a1.537,1.537,0,0,0-.858.242,2.011,2.011,0,0,0-.63.684l-.725,4.834h-1.241l1.021-6.818h1.109l-.025.963a2.856,2.856,0,0,1,.832-.8,1.915,1.915,0,0,1,1.027-.287,1.461,1.461,0,0,1,.262.022,1.358,1.358,0,0,1,.2.048Z" transform="translate(1302.397 -2101.822)"/><path d="M-1262.381,2126.408h-1.241l1.021-6.818h1.241Zm1.286-8.565h-1.243l.19-1.267h1.241Z" transform="translate(1302.901 -2102.136)"/><path d="M-1260.6,2122.62a4.347,4.347,0,0,1,1.187-2.521,3.232,3.232,0,0,1,2.373-.952,2.371,2.371,0,0,1,2.064.987,3.3,3.3,0,0,1,.482,2.486l-.026.138a4.353,4.353,0,0,1-1.191,2.525,3.244,3.244,0,0,1-2.376.943,2.375,2.375,0,0,1-2.064-.985,3.273,3.273,0,0,1-.476-2.484Zm1.217.138a2.972,2.972,0,0,0,.182,1.81,1.292,1.292,0,0,0,1.26.687,1.786,1.786,0,0,0,1.434-.716,3.631,3.631,0,0,0,.746-1.781l.026-.138a2.966,2.966,0,0,0-.193-1.8,1.289,1.289,0,0,0-1.257-.692,1.778,1.778,0,0,0-1.44.72,3.568,3.568,0,0,0-.734,1.773Z" transform="translate(1303.261 -2101.822)"/></g><g transform="translate(-1283 2498.492)"><path d="M-1290.756,2460.029l1.828-6.68h2.47l-3.089,9.175h-2.42l-3.062-9.175h2.451Z" transform="translate(1306.572 -2452.844)" fill="#fff"/><path d="M-1286.9,2453.989a.953.953,0,0,1,.328-.748,1.225,1.225,0,0,1,.85-.292,1.231,1.231,0,0,1,.852.292.957.957,0,0,1,.328.748.959.959,0,0,1-.328.749,1.235,1.235,0,0,1-.852.292,1.229,1.229,0,0,1-.85-.292A.955.955,0,0,1-1286.9,2453.989Zm2.256,8.583h-2.13v-6.819h2.13Z" transform="translate(1307.567 -2452.892)" fill="#fff"/><path d="M-1283.961,2458.81a4.018,4.018,0,0,1,.4-1.818,2.839,2.839,0,0,1,1.14-1.227,3.442,3.442,0,0,1,1.746-.429,3.133,3.133,0,0,1,2.413.949,3.637,3.637,0,0,1,.882,2.579v.076a3.533,3.533,0,0,1-.885,2.531,3.147,3.147,0,0,1-2.4.936,3.177,3.177,0,0,1-2.338-.874,3.41,3.41,0,0,1-.952-2.366Zm2.125.132a2.549,2.549,0,0,0,.3,1.386.986.986,0,0,0,.877.442q1.133,0,1.16-1.746v-.214q0-1.835-1.172-1.835-1.065,0-1.154,1.583Z" transform="translate(1307.926 -2452.601)" fill="#fff"/><path d="M-1275.037,2462.579h-2.13v-9.68h2.13Z" transform="translate(1308.758 -2452.899)" fill="#fff"/><path d="M-1270.781,2462.408a3.512,3.512,0,0,1-2.54-.936,3.234,3.234,0,0,1-.97-2.435v-.176a4.193,4.193,0,0,1,.387-1.847,2.821,2.821,0,0,1,1.131-1.238,3.407,3.407,0,0,1,1.764-.439,2.951,2.951,0,0,1,2.269.893,3.5,3.5,0,0,1,.832,2.486v.826h-4.222a1.536,1.536,0,0,0,.5.9,1.489,1.489,0,0,0,1,.328,1.91,1.91,0,0,0,1.575-.706l.971,1.146a2.716,2.716,0,0,1-1.125.874A3.816,3.816,0,0,1-1270.781,2462.408Zm-.239-5.433q-.933,0-1.109,1.235h2.142v-.163a1.05,1.05,0,0,0-.259-.791A1.028,1.028,0,0,0-1271.02,2456.975Z" transform="translate(1309.11 -2452.601)" fill="#fff"/><path d="M-1265.313,2453.938v1.695h1.122v1.476h-1.122v3.119a.8.8,0,0,0,.139.537.749.749,0,0,0,.549.15,3.057,3.057,0,0,0,.529-.038v1.52a3.935,3.935,0,0,1-1.2.183,2.221,2.221,0,0,1-1.619-.517,2.117,2.117,0,0,1-.524-1.569v-3.384h-.87v-1.476h.87v-1.695Z" transform="translate(1309.842 -2452.771)" fill="#fff"/><path d="M-1260.02,2462.281a2.4,2.4,0,0,1-.2-.612,1.973,1.973,0,0,1-1.639.739,2.419,2.419,0,0,1-1.639-.584,1.852,1.852,0,0,1-.675-1.465,1.905,1.905,0,0,1,.819-1.677,4.17,4.17,0,0,1,2.383-.567h.655v-.362q0-.943-.814-.944a.665.665,0,0,0-.756.747h-2.124a1.9,1.9,0,0,1,.842-1.6,3.534,3.534,0,0,1,2.146-.617,3.1,3.1,0,0,1,2.061.636,2.213,2.213,0,0,1,.775,1.746v3.018a3.1,3.1,0,0,0,.291,1.438v.106Zm-1.329-1.386a1.191,1.191,0,0,0,.658-.17,1.088,1.088,0,0,0,.376-.385v-1.091h-.618q-1.11,0-1.109,1a.607.607,0,0,0,.2.469A.71.71,0,0,0-1261.349,2460.9Z" transform="translate(1310.348 -2452.601)" fill="#fff"/><path d="M-1299.983,2473.433a1.286,1.286,0,0,0-.322-1.139,4.126,4.126,0,0,0-1.614-.827,4.945,4.945,0,0,1-2.1-1.1,2.1,2.1,0,0,1-.47-1.884,2.323,2.323,0,0,1,1.03-1.66,3.753,3.753,0,0,1,2.153-.591,3.312,3.312,0,0,1,2.308.75,2.109,2.109,0,0,1,.6,2.055l-.013.038h-1.191a1.516,1.516,0,0,0-.384-1.346,1.955,1.955,0,0,0-1.469-.52,2,2,0,0,0-1.212.363,1.313,1.313,0,0,0-.578.9,1.291,1.291,0,0,0,.268,1.15,4.572,4.572,0,0,0,1.648.816,5.412,5.412,0,0,1,2.128,1.13,2.053,2.053,0,0,1,.464,1.858,2.309,2.309,0,0,1-1.063,1.682,4.086,4.086,0,0,1-2.235.568,4.291,4.291,0,0,1-2.473-.682,1.945,1.945,0,0,1-.754-2.118l.02-.038h1.184a1.324,1.324,0,0,0,.511,1.438,3,3,0,0,0,1.658.428,2.278,2.278,0,0,0,1.273-.356A1.315,1.315,0,0,0-1299.983,2473.433Z" transform="translate(1305.314 -2451.268)" fill="#fff"/><path d="M-1295.749,2475.415a2.48,2.48,0,0,1-2.121-.953,3.172,3.172,0,0,1-.482-2.458l.044-.277a4.086,4.086,0,0,1,1.2-2.458,3.138,3.138,0,0,1,2.221-.933,2.117,2.117,0,0,1,1.9.863,3.1,3.1,0,0,1,.373,2.25l-.1.656h-4.411a2.7,2.7,0,0,0,.214,1.711,1.372,1.372,0,0,0,1.3.626,3.36,3.36,0,0,0,1.125-.183,2.95,2.95,0,0,0,.9-.49l.365.807a3.616,3.616,0,0,1-1.053.595A4.147,4.147,0,0,1-1295.749,2475.415Zm.718-6.1a1.569,1.569,0,0,0-1.131.5,2.882,2.882,0,0,0-.729,1.273l.014.038h3.068l.014-.1a1.813,1.813,0,0,0-.177-1.238A1.135,1.135,0,0,0-1295.031,2469.313Z" transform="translate(1306.159 -2451.01)" fill="#fff"/><path d="M-1289.7,2474.443a1.678,1.678,0,0,0,1.043-.384,1.452,1.452,0,0,0,.583-.933h1.122l.012.038a2.331,2.331,0,0,1-.987,1.585,3.1,3.1,0,0,1-1.919.666,2.287,2.287,0,0,1-2.038-.987,3.32,3.32,0,0,1-.451-2.424l.038-.265a4.367,4.367,0,0,1,1.147-2.448,3.139,3.139,0,0,1,2.364-.955,2.235,2.235,0,0,1,1.745.713,1.941,1.941,0,0,1,.46,1.733l-.012.031h-1.135a1.352,1.352,0,0,0-.239-1.074,1.154,1.154,0,0,0-.965-.425,1.7,1.7,0,0,0-1.423.722,3.633,3.633,0,0,0-.694,1.7l-.038.265a3.114,3.114,0,0,0,.145,1.749A1.223,1.223,0,0,0-1289.7,2474.443Z" transform="translate(1306.896 -2451.01)" fill="#fff"/><path d="M-1282.123,2475.267l.07-.976a2.793,2.793,0,0,1-.95.826,2.59,2.59,0,0,1-1.213.284,1.88,1.88,0,0,1-1.613-.723,2.939,2.939,0,0,1-.309-2.209l.6-4.021h1.241l-.6,4.034a2.39,2.39,0,0,0,.088,1.52,1.057,1.057,0,0,0,.952.39,2.2,2.2,0,0,0,1.128-.281,2.174,2.174,0,0,0,.781-.791l.725-4.872h1.241l-1.02,6.819Z" transform="translate(1307.652 -2450.996)" fill="#fff"/><path d="M-1277.889,2469.439a2.946,2.946,0,0,1,.973-.816,2.6,2.6,0,0,1,1.213-.287,1.925,1.925,0,0,1,1.591.652,2.514,2.514,0,0,1,.324,1.989l-.642,4.3h-1.242l.643-4.279a1.7,1.7,0,0,0-.157-1.295,1.277,1.277,0,0,0-1.041-.364,2.034,2.034,0,0,0-1,.243,2.2,2.2,0,0,0-.744.671l-.755,5.022h-1.242l1.021-6.819h1.11Z" transform="translate(1308.416 -2451.01)" fill="#fff"/><path d="M-1273.232,2472.313a5.168,5.168,0,0,1,1.1-2.685,2.686,2.686,0,0,1,2.124-.978,2.1,2.1,0,0,1,1.018.233,1.851,1.851,0,0,1,.7.675l.568-3.794h1.24l-1.474,9.831h-.952l-.056-.863a2.783,2.783,0,0,1-.939.744,2.726,2.726,0,0,1-1.179.253,2,2,0,0,1-1.8-.915,3.33,3.33,0,0,1-.372-2.369Zm1.222.132a2.648,2.648,0,0,0,.167,1.67,1.272,1.272,0,0,0,1.226.6,1.8,1.8,0,0,0,.957-.258,2.454,2.454,0,0,0,.739-.719l.473-3.156a1.54,1.54,0,0,0-.52-.679,1.47,1.47,0,0,0-.88-.249,1.7,1.7,0,0,0-1.414.747,4.131,4.131,0,0,0-.729,1.907Z" transform="translate(1309.23 -2451.325)" fill="#fff"/><path d="M-1262.7,2475.281c-.009-.236-.012-.424-.012-.57a3.982,3.982,0,0,1,.025-.444,3.734,3.734,0,0,1-1.03.817,2.582,2.582,0,0,1-1.245.331,1.938,1.938,0,0,1-1.522-.554,1.735,1.735,0,0,1-.35-1.5,2.087,2.087,0,0,1,1.009-1.544,4.188,4.188,0,0,1,2.237-.535h1.349l.1-.675a1.109,1.109,0,0,0-.218-.961,1.289,1.289,0,0,0-.987-.337,1.717,1.717,0,0,0-1.008.3,1.044,1.044,0,0,0-.492.724l-1.185.012-.007-.037a1.955,1.955,0,0,1,.9-1.378,3.315,3.315,0,0,1,2-.6,2.46,2.46,0,0,1,1.752.6,1.824,1.824,0,0,1,.479,1.692l-.492,3.283a5.366,5.366,0,0,0-.073.716,3.69,3.69,0,0,0,.04.658Zm-1.923-.907a2.45,2.45,0,0,0,1.248-.354,2.1,2.1,0,0,0,.838-.794l.171-1.1h-1.394a2.041,2.041,0,0,0-1.247.385,1.329,1.329,0,0,0-.593.882.815.815,0,0,0,.167.727A1.078,1.078,0,0,0-1264.624,2474.374Z" transform="translate(1310.018 -2451.01)" fill="#fff"/><path d="M-1256.484,2469.559l-.631-.038a1.535,1.535,0,0,0-.856.242,2.009,2.009,0,0,0-.631.685l-.724,4.833h-1.242l1.021-6.819h1.11l-.026.965a2.857,2.857,0,0,1,.832-.8,1.915,1.915,0,0,1,1.027-.287,1.684,1.684,0,0,1,.261.021,1.554,1.554,0,0,1,.205.048Z" transform="translate(1310.789 -2451.01)" fill="#fff"/><path d="M-1255.211,2475.6h-1.241l1.021-6.819h1.241Zm1.286-8.563h-1.243l.19-1.267h1.241Z" transform="translate(1311.292 -2451.325)" fill="#fff"/><path d="M-1253.428,2471.81a4.344,4.344,0,0,1,1.188-2.521,3.224,3.224,0,0,1,2.373-.953,2.371,2.371,0,0,1,2.064.987,3.3,3.3,0,0,1,.483,2.487l-.026.138a4.358,4.358,0,0,1-1.191,2.524,3.246,3.246,0,0,1-2.376.943,2.375,2.375,0,0,1-2.064-.983,3.277,3.277,0,0,1-.476-2.484Zm1.217.138a2.973,2.973,0,0,0,.183,1.808,1.292,1.292,0,0,0,1.26.687,1.785,1.785,0,0,0,1.433-.715,3.615,3.615,0,0,0,.748-1.78l.025-.138a2.974,2.974,0,0,0-.192-1.8,1.29,1.29,0,0,0-1.257-.692,1.783,1.783,0,0,0-1.44.722,3.568,3.568,0,0,0-.734,1.774Z" transform="translate(1311.653 -2451.01)" fill="#fff"/></g><g transform="translate(-1106.009 2402.325)"><path d="M-1133.823,2373.544h-1.2v3.246h-2.212v-9.177h3.611a4.03,4.03,0,0,1,2.552.724,2.452,2.452,0,0,1,.92,2.046,2.986,2.986,0,0,1-.387,1.587,2.76,2.76,0,0,1-1.213,1.019l1.916,3.7v.1h-2.369Zm-1.2-1.7h1.4a1.256,1.256,0,0,0,.948-.332,1.28,1.28,0,0,0,.319-.925,1.3,1.3,0,0,0-.321-.932,1.243,1.243,0,0,0-.946-.339h-1.4Z" transform="translate(1148.889 -2367.167)" fill="#fff"/><path d="M-1130.056,2373.075a4.041,4.041,0,0,1,.4-1.818,2.859,2.859,0,0,1,1.141-1.227,3.447,3.447,0,0,1,1.746-.427,3.136,3.136,0,0,1,2.413.948,3.64,3.64,0,0,1,.882,2.581v.075a3.529,3.529,0,0,1-.886,2.531,3.143,3.143,0,0,1-2.4.936,3.178,3.178,0,0,1-2.338-.873,3.414,3.414,0,0,1-.951-2.366Zm2.124.131a2.539,2.539,0,0,0,.3,1.387.984.984,0,0,0,.875.441q1.135,0,1.16-1.745v-.214q0-1.835-1.172-1.834-1.066,0-1.154,1.583Z" transform="translate(1149.767 -2366.924)" fill="#fff"/><path d="M-1120.93,2370.02v7.053a2.476,2.476,0,0,1-.694,1.865,2.664,2.664,0,0,1-1.916.655,4.5,4.5,0,0,1-1-.108v-1.606a4.151,4.151,0,0,0,.6.056.777.777,0,0,0,.882-.876v-7.04Zm-2.289-1.764a.952.952,0,0,1,.328-.748,1.227,1.227,0,0,1,.851-.292,1.226,1.226,0,0,1,.851.292.951.951,0,0,1,.328.748.956.956,0,0,1-.328.749,1.238,1.238,0,0,1-.851.291,1.239,1.239,0,0,1-.851-.291A.956.956,0,0,1-1123.219,2368.255Z" transform="translate(1150.442 -2367.216)" fill="#fff"/><path d="M-1120.494,2373.075a4.043,4.043,0,0,1,.4-1.818,2.857,2.857,0,0,1,1.14-1.227,3.447,3.447,0,0,1,1.746-.427,3.139,3.139,0,0,1,2.414.948,3.645,3.645,0,0,1,.882,2.581v.075a3.534,3.534,0,0,1-.886,2.531,3.145,3.145,0,0,1-2.4.936,3.178,3.178,0,0,1-2.338-.873,3.414,3.414,0,0,1-.952-2.366Zm2.125.131a2.539,2.539,0,0,0,.3,1.387.983.983,0,0,0,.875.441q1.135,0,1.159-1.745v-.214q0-1.835-1.172-1.834-1.066,0-1.154,1.583Z" transform="translate(1150.937 -2366.924)" fill="#fff"/><path d="M-1145.828,2386.11l-.549,3.68h-1.241l1.374-9.177h3.511a2.824,2.824,0,0,1,2.14.763,2.254,2.254,0,0,1,.551,1.986,3.079,3.079,0,0,1-1.112,2.022,3.743,3.743,0,0,1-2.4.725Zm.145-.971h2.275a2.063,2.063,0,0,0,1.45-.508,2.069,2.069,0,0,0,.668-1.257,1.645,1.645,0,0,0-.268-1.285,1.563,1.563,0,0,0-1.32-.5h-2.269Z" transform="translate(1147.618 -2365.576)" fill="#fff"/><path d="M-1136.375,2383.824l-.63-.038a1.529,1.529,0,0,0-.858.244,2.014,2.014,0,0,0-.631.683l-.724,4.834h-1.241l1.021-6.819h1.109l-.026.964a2.87,2.87,0,0,1,.833-.8,1.926,1.926,0,0,1,1.027-.286,1.564,1.564,0,0,1,.261.021,1.4,1.4,0,0,1,.2.048Z" transform="translate(1148.494 -2365.333)" fill="#fff"/><path d="M-1135.1,2389.862h-1.241l1.021-6.819h1.241Zm1.286-8.565h-1.242l.19-1.267h1.241Z" transform="translate(1148.998 -2365.648)" fill="#fff"/><path d="M-1131.448,2383.591a2.752,2.752,0,0,1,.952-.734,2.922,2.922,0,0,1,1.241-.255,1.846,1.846,0,0,1,1.1.315,1.557,1.557,0,0,1,.6.939,3.017,3.017,0,0,1,.987-.922,2.579,2.579,0,0,1,1.3-.333,1.739,1.739,0,0,1,1.515.722,2.942,2.942,0,0,1,.307,2.146l-.612,4.078h-1.241l.61-4.09a2.125,2.125,0,0,0-.122-1.448,1.116,1.116,0,0,0-.98-.4,1.518,1.518,0,0,0-1.081.448,2.329,2.329,0,0,0-.647,1.116.042.042,0,0,0-.006.021v.024l-.65,4.329h-1.248l.612-4.09a2.071,2.071,0,0,0-.136-1.422,1.081,1.081,0,0,0-.968-.425,1.8,1.8,0,0,0-.961.249,2,2,0,0,0-.671.69l-.75,5h-1.242l1.021-6.819h1.11Z" transform="translate(1149.341 -2365.333)" fill="#fff"/><path d="M-1119.295,2389.547c-.008-.236-.012-.426-.012-.571a4,4,0,0,1,.025-.443,3.68,3.68,0,0,1-1.03.816,2.568,2.568,0,0,1-1.245.331,1.943,1.943,0,0,1-1.522-.552,1.736,1.736,0,0,1-.35-1.5,2.082,2.082,0,0,1,1.009-1.544,4.188,4.188,0,0,1,2.237-.537h1.349l.1-.673a1.109,1.109,0,0,0-.218-.962,1.286,1.286,0,0,0-.987-.336,1.723,1.723,0,0,0-1.008.3,1.048,1.048,0,0,0-.492.725l-1.185.011-.007-.037a1.954,1.954,0,0,1,.9-1.377,3.309,3.309,0,0,1,2-.6,2.456,2.456,0,0,1,1.752.6,1.82,1.82,0,0,1,.479,1.693l-.492,3.281a5.406,5.406,0,0,0-.073.716,3.706,3.706,0,0,0,.042.659Zm-1.923-.908a2.451,2.451,0,0,0,1.248-.353,2.1,2.1,0,0,0,.838-.795l.171-1.1h-1.393a2.047,2.047,0,0,0-1.248.384,1.333,1.333,0,0,0-.593.882.816.816,0,0,0,.167.728A1.082,1.082,0,0,0-1121.217,2388.639Z" transform="translate(1150.574 -2365.333)" fill="#fff"/><path d="M-1113.077,2383.824l-.63-.038a1.527,1.527,0,0,0-.858.244,2.014,2.014,0,0,0-.631.683l-.724,4.834h-1.242l1.022-6.819h1.109l-.026.964a2.87,2.87,0,0,1,.833-.8,1.923,1.923,0,0,1,1.027-.286,1.545,1.545,0,0,1,.26.021,1.38,1.38,0,0,1,.205.048Z" transform="translate(1151.345 -2365.333)" fill="#fff"/><path d="M-1111.8,2389.862h-1.241l1.021-6.819h1.241Zm1.286-8.565h-1.243l.19-1.267h1.241Z" transform="translate(1151.849 -2365.648)" fill="#fff"/><path d="M-1110.02,2386.074a4.342,4.342,0,0,1,1.189-2.521,3.226,3.226,0,0,1,2.373-.952,2.375,2.375,0,0,1,2.064.985,3.315,3.315,0,0,1,.483,2.487l-.026.138a4.348,4.348,0,0,1-1.191,2.524,3.243,3.243,0,0,1-2.377.943,2.373,2.373,0,0,1-2.063-.983,3.273,3.273,0,0,1-.476-2.484Zm1.217.138a2.969,2.969,0,0,0,.183,1.809,1.291,1.291,0,0,0,1.26.687,1.783,1.783,0,0,0,1.433-.716,3.629,3.629,0,0,0,.748-1.78l.025-.138a2.978,2.978,0,0,0-.192-1.8,1.29,1.29,0,0,0-1.257-.693,1.787,1.787,0,0,0-1.441.721,3.563,3.563,0,0,0-.733,1.774Z" transform="translate(1152.209 -2365.333)" fill="#fff"/></g><g transform="translate(-1445.959 2402.268)"><path d="M-1434.8,2375.076h-3.031l-.53,1.714h-2.364l3.365-9.177h2.081l3.391,9.177h-2.376Zm-2.5-1.708h1.973l-.99-3.183Z" transform="translate(1451.703 -2367.11)" fill="#fff"/><path d="M-1429.754,2374.895h3.108v1.639h-5.792v-1.186l3.025-4h-2.892v-1.639h5.591v1.147Z" transform="translate(1452.717 -2366.853)" fill="#fff"/><path d="M-1422.3,2375.8a2.188,2.188,0,0,1-1.821.863,2.147,2.147,0,0,1-1.7-.652,2.74,2.74,0,0,1-.577-1.876v-4.417h2.123v4.431a.763.763,0,0,0,.851.875,1.113,1.113,0,0,0,1.04-.522v-4.785h2.136v6.82h-1.991Z" transform="translate(1453.457 -2366.853)" fill="#fff"/><path d="M-1417.646,2376.845h-2.13v-9.68h2.13Z" transform="translate(1454.266 -2367.165)" fill="#fff"/><path d="M-1448.716,2386.11l-.549,3.68h-1.241l1.374-9.177h3.511a2.82,2.82,0,0,1,2.139.763,2.251,2.251,0,0,1,.552,1.986,3.081,3.081,0,0,1-1.113,2.022,3.739,3.739,0,0,1-2.4.725Zm.145-.971h2.275a2.063,2.063,0,0,0,1.45-.508,2.075,2.075,0,0,0,.668-1.257,1.645,1.645,0,0,0-.268-1.285,1.564,1.564,0,0,0-1.32-.5h-2.27Z" transform="translate(1450.506 -2365.519)" fill="#fff"/><path d="M-1439.263,2383.824l-.631-.038a1.525,1.525,0,0,0-.856.244,2.012,2.012,0,0,0-.631.683l-.724,4.834h-1.243l1.021-6.819h1.11l-.026.964a2.869,2.869,0,0,1,.833-.8,1.924,1.924,0,0,1,1.027-.286,1.54,1.54,0,0,1,.26.021,1.379,1.379,0,0,1,.205.048Z" transform="translate(1451.382 -2365.276)" fill="#fff"/><path d="M-1437.989,2389.862h-1.241l1.021-6.819h1.241Zm1.285-8.565h-1.241l.19-1.267h1.241Z" transform="translate(1451.886 -2365.591)" fill="#fff"/><path d="M-1434.336,2383.591a2.75,2.75,0,0,1,.952-.734,2.919,2.919,0,0,1,1.241-.255,1.846,1.846,0,0,1,1.1.315,1.563,1.563,0,0,1,.6.939,3.012,3.012,0,0,1,.987-.922,2.573,2.573,0,0,1,1.3-.333,1.74,1.74,0,0,1,1.516.722,2.937,2.937,0,0,1,.305,2.146l-.612,4.078h-1.24l.611-4.09a2.126,2.126,0,0,0-.122-1.448,1.116,1.116,0,0,0-.98-.4,1.517,1.517,0,0,0-1.081.448,2.331,2.331,0,0,0-.646,1.116.043.043,0,0,0-.006.021v.024l-.65,4.329h-1.248l.612-4.09a2.076,2.076,0,0,0-.136-1.422,1.082,1.082,0,0,0-.967-.425,1.8,1.8,0,0,0-.961.249,1.99,1.99,0,0,0-.671.69l-.75,5h-1.242l1.021-6.819h1.11Z" transform="translate(1452.229 -2365.276)" fill="#fff"/><path d="M-1422.183,2389.547c-.009-.236-.012-.426-.012-.571a3.971,3.971,0,0,1,.025-.443,3.7,3.7,0,0,1-1.03.816,2.569,2.569,0,0,1-1.245.331,1.944,1.944,0,0,1-1.522-.552,1.737,1.737,0,0,1-.35-1.5,2.082,2.082,0,0,1,1.009-1.544,4.186,4.186,0,0,1,2.237-.537h1.349l.1-.673a1.113,1.113,0,0,0-.218-.962,1.289,1.289,0,0,0-.986-.336,1.724,1.724,0,0,0-1.008.3,1.049,1.049,0,0,0-.492.725l-1.185.011-.007-.037a1.955,1.955,0,0,1,.9-1.377,3.31,3.31,0,0,1,2-.6,2.456,2.456,0,0,1,1.752.6,1.822,1.822,0,0,1,.479,1.693l-.492,3.281a5.428,5.428,0,0,0-.073.716,3.716,3.716,0,0,0,.04.659Zm-1.923-.908a2.451,2.451,0,0,0,1.248-.353,2.1,2.1,0,0,0,.839-.795l.171-1.1h-1.394a2.047,2.047,0,0,0-1.247.384,1.333,1.333,0,0,0-.593.882.816.816,0,0,0,.167.728A1.083,1.083,0,0,0-1424.105,2388.639Z" transform="translate(1453.462 -2365.276)" fill="#fff"/><path d="M-1415.965,2383.824l-.631-.038a1.525,1.525,0,0,0-.856.244,2.012,2.012,0,0,0-.631.683l-.724,4.834h-1.242l1.021-6.819h1.11l-.026.964a2.88,2.88,0,0,1,.832-.8,1.926,1.926,0,0,1,1.027-.286,1.546,1.546,0,0,1,.261.021,1.382,1.382,0,0,1,.205.048Z" transform="translate(1454.233 -2365.276)" fill="#fff"/><path d="M-1414.691,2389.862h-1.242l1.023-6.819h1.24Zm1.285-8.565h-1.241l.19-1.267h1.241Z" transform="translate(1454.736 -2365.591)" fill="#fff"/><path d="M-1412.908,2386.074a4.342,4.342,0,0,1,1.188-2.521,3.225,3.225,0,0,1,2.373-.952,2.376,2.376,0,0,1,2.064.985,3.311,3.311,0,0,1,.482,2.487l-.025.138a4.35,4.35,0,0,1-1.192,2.524,3.24,3.24,0,0,1-2.376.943,2.377,2.377,0,0,1-2.064-.983,3.279,3.279,0,0,1-.475-2.484Zm1.217.138a2.961,2.961,0,0,0,.183,1.809,1.291,1.291,0,0,0,1.26.687,1.783,1.783,0,0,0,1.433-.716,3.64,3.64,0,0,0,.748-1.78l.025-.138a2.977,2.977,0,0,0-.192-1.8,1.291,1.291,0,0,0-1.258-.693,1.785,1.785,0,0,0-1.44.721,3.573,3.573,0,0,0-.734,1.774Z" transform="translate(1455.097 -2365.276)" fill="#fff"/></g><g transform="translate(-1105.347 2208.289)"><path d="M-1130.182,2203.908h-2.2l-3.251-5.71v5.71h-2.212v-9.176h2.212l3.246,5.709v-5.709h2.206Z" transform="translate(1148.151 -2194.285)" fill="#fff"/><path d="M-1125.983,2203.665a2.449,2.449,0,0,1-.2-.612,1.973,1.973,0,0,1-1.639.739,2.425,2.425,0,0,1-1.639-.584,1.857,1.857,0,0,1-.673-1.466,1.907,1.907,0,0,1,.818-1.676,4.177,4.177,0,0,1,2.383-.568h.656v-.36q0-.944-.812-.944a.665.665,0,0,0-.757.748h-2.125a1.9,1.9,0,0,1,.842-1.6,3.533,3.533,0,0,1,2.146-.617,3.1,3.1,0,0,1,2.061.636,2.21,2.21,0,0,1,.775,1.746v3.018a3.1,3.1,0,0,0,.291,1.438v.107Zm-1.33-1.386a1.183,1.183,0,0,0,.659-.171,1.069,1.069,0,0,0,.375-.384v-1.091h-.617q-1.11,0-1.11,1a.6.6,0,0,0,.2.469A.71.71,0,0,0-1127.313,2202.279Z" transform="translate(1149.095 -2194.042)" fill="#fff"/><path d="M-1119.632,2198.768l-.7-.05a1.259,1.259,0,0,0-1.286.631v4.316h-2.123v-6.819h1.992l.068.876a1.647,1.647,0,0,1,1.494-1,2.072,2.072,0,0,1,.593.075Z" transform="translate(1149.877 -2194.042)" fill="#fff"/><path d="M-1115.691,2203.665a2.4,2.4,0,0,1-.2-.612,1.973,1.973,0,0,1-1.639.739,2.421,2.421,0,0,1-1.639-.584,1.855,1.855,0,0,1-.675-1.466,1.905,1.905,0,0,1,.819-1.676,4.175,4.175,0,0,1,2.383-.568h.655v-.36q0-.944-.814-.944a.665.665,0,0,0-.757.748h-2.123a1.9,1.9,0,0,1,.842-1.6,3.53,3.53,0,0,1,2.146-.617,3.1,3.1,0,0,1,2.061.636,2.213,2.213,0,0,1,.774,1.746v3.018a3.1,3.1,0,0,0,.291,1.438v.107Zm-1.329-1.386a1.183,1.183,0,0,0,.658-.171,1.074,1.074,0,0,0,.376-.384v-1.091h-.618q-1.109,0-1.109,1a.608.608,0,0,0,.2.469A.711.711,0,0,0-1117.02,2202.279Z" transform="translate(1150.354 -2194.042)" fill="#fff"/><path d="M-1111.508,2196.846l.07.8a2.311,2.311,0,0,1,1.947-.927,1.944,1.944,0,0,1,1.591.636,3.024,3.024,0,0,1,.545,1.916v4.393h-2.13v-4.3a1.154,1.154,0,0,0-.208-.76.965.965,0,0,0-.756-.243,1.011,1.011,0,0,0-.926.492v4.815h-2.125v-6.819Z" transform="translate(1151.13 -2194.042)" fill="#fff"/><path d="M-1104.547,2197.138v7.053a2.472,2.472,0,0,1-.695,1.865,2.661,2.661,0,0,1-1.916.656,4.558,4.558,0,0,1-1-.107V2205a4.185,4.185,0,0,0,.6.056.777.777,0,0,0,.882-.877v-7.039Zm-2.288-1.764a.954.954,0,0,1,.328-.748,1.228,1.228,0,0,1,.851-.292,1.228,1.228,0,0,1,.851.292.954.954,0,0,1,.328.748.956.956,0,0,1-.328.749,1.232,1.232,0,0,1-.851.292,1.233,1.233,0,0,1-.851-.292A.955.955,0,0,1-1106.836,2195.373Z" transform="translate(1151.784 -2194.334)" fill="#fff"/><path d="M-1100,2203.665a2.356,2.356,0,0,1-.2-.612,1.973,1.973,0,0,1-1.639.739,2.423,2.423,0,0,1-1.639-.584,1.857,1.857,0,0,1-.674-1.466,1.907,1.907,0,0,1,.818-1.676,4.175,4.175,0,0,1,2.383-.568h.656v-.36q0-.944-.814-.944a.664.664,0,0,0-.755.748h-2.125a1.9,1.9,0,0,1,.842-1.6,3.534,3.534,0,0,1,2.146-.617,3.1,3.1,0,0,1,2.061.636,2.215,2.215,0,0,1,.776,1.746v3.018a3.082,3.082,0,0,0,.29,1.438v.107Zm-1.33-1.386a1.186,1.186,0,0,0,.659-.171,1.07,1.07,0,0,0,.375-.384v-1.091h-.619q-1.108,0-1.109,1a.608.608,0,0,0,.2.469A.715.715,0,0,0-1101.326,2202.279Z" transform="translate(1152.275 -2194.042)" fill="#fff"/><path d="M-1141.7,2214.817a1.28,1.28,0,0,0-.321-1.139,4.129,4.129,0,0,0-1.614-.827,4.955,4.955,0,0,1-2.1-1.1,2.1,2.1,0,0,1-.47-1.885,2.318,2.318,0,0,1,1.03-1.66,3.754,3.754,0,0,1,2.153-.59,3.312,3.312,0,0,1,2.307.75,2.107,2.107,0,0,1,.6,2.055l-.012.037h-1.191a1.513,1.513,0,0,0-.385-1.345,1.951,1.951,0,0,0-1.468-.521,2.011,2.011,0,0,0-1.213.364,1.31,1.31,0,0,0-.577.9,1.291,1.291,0,0,0,.268,1.152,4.576,4.576,0,0,0,1.648.815,5.4,5.4,0,0,1,2.128,1.131,2.051,2.051,0,0,1,.462,1.856,2.3,2.3,0,0,1-1.062,1.684,4.1,4.1,0,0,1-2.235.567,4.291,4.291,0,0,1-2.473-.68,1.944,1.944,0,0,1-.754-2.118l.019-.038h1.185a1.324,1.324,0,0,0,.51,1.437,3,3,0,0,0,1.659.428,2.283,2.283,0,0,0,1.273-.356A1.318,1.318,0,0,0-1141.7,2214.817Z" transform="translate(1147.028 -2192.709)" fill="#fff"/><path d="M-1137.463,2216.8a2.477,2.477,0,0,1-2.121-.952,3.173,3.173,0,0,1-.483-2.458l.045-.277a4.082,4.082,0,0,1,1.2-2.458,3.136,3.136,0,0,1,2.221-.933,2.119,2.119,0,0,1,1.9.863,3.107,3.107,0,0,1,.372,2.25l-.1.656h-4.412a2.723,2.723,0,0,0,.214,1.712,1.374,1.374,0,0,0,1.3.626,3.385,3.385,0,0,0,1.126-.183,2.94,2.94,0,0,0,.9-.49l.366.806a3.6,3.6,0,0,1-1.053.6A4.143,4.143,0,0,1-1137.463,2216.8Zm.718-6.1a1.566,1.566,0,0,0-1.131.5,2.87,2.87,0,0,0-.729,1.273l.013.038h3.069l.012-.1a1.816,1.816,0,0,0-.176-1.238A1.134,1.134,0,0,0-1136.745,2210.7Z" transform="translate(1147.873 -2192.451)" fill="#fff"/><path d="M-1131.413,2215.827a1.671,1.671,0,0,0,1.044-.385,1.454,1.454,0,0,0,.583-.933h1.122l.011.038a2.328,2.328,0,0,1-.985,1.586,3.1,3.1,0,0,1-1.919.664,2.288,2.288,0,0,1-2.038-.987,3.316,3.316,0,0,1-.451-2.423l.038-.265a4.381,4.381,0,0,1,1.146-2.449,3.143,3.143,0,0,1,2.364-.954,2.237,2.237,0,0,1,1.746.712,1.946,1.946,0,0,1,.46,1.733l-.013.032h-1.134a1.348,1.348,0,0,0-.24-1.074,1.15,1.15,0,0,0-.964-.425,1.71,1.71,0,0,0-1.424.72,3.654,3.654,0,0,0-.694,1.705l-.037.265a3.1,3.1,0,0,0,.145,1.749A1.222,1.222,0,0,0-1131.413,2215.827Z" transform="translate(1148.61 -2192.451)" fill="#fff"/><path d="M-1123.838,2216.651l.07-.976a2.793,2.793,0,0,1-.948.825,2.6,2.6,0,0,1-1.213.284,1.878,1.878,0,0,1-1.613-.722,2.938,2.938,0,0,1-.309-2.208l.6-4.021h1.241l-.6,4.034a2.394,2.394,0,0,0,.089,1.519,1.054,1.054,0,0,0,.951.392,2.2,2.2,0,0,0,1.129-.281,2.178,2.178,0,0,0,.781-.791l.725-4.872h1.241l-1.021,6.819Z" transform="translate(1149.366 -2192.438)" fill="#fff"/><path d="M-1119.6,2210.823a2.95,2.95,0,0,1,.974-.816,2.6,2.6,0,0,1,1.213-.288,1.926,1.926,0,0,1,1.591.652,2.512,2.512,0,0,1,.324,1.989l-.643,4.3h-1.241l.643-4.279a1.711,1.711,0,0,0-.157-1.3,1.283,1.283,0,0,0-1.04-.363,2.017,2.017,0,0,0-1,.244,2.188,2.188,0,0,0-.744.671l-.757,5.022h-1.241l1.021-6.82h1.109Z" transform="translate(1150.13 -2192.451)" fill="#fff"/><path d="M-1114.948,2213.7a5.176,5.176,0,0,1,1.1-2.683,2.689,2.689,0,0,1,2.125-.978,2.111,2.111,0,0,1,1.018.233,1.853,1.853,0,0,1,.7.674l.567-3.794h1.241l-1.474,9.832h-.953l-.056-.863a2.78,2.78,0,0,1-.939.744,2.715,2.715,0,0,1-1.178.251,1.994,1.994,0,0,1-1.8-.914,3.323,3.323,0,0,1-.372-2.369Zm1.223.134a2.65,2.65,0,0,0,.167,1.67,1.271,1.271,0,0,0,1.226.6,1.79,1.79,0,0,0,.958-.259,2.437,2.437,0,0,0,.737-.718l.473-3.157a1.527,1.527,0,0,0-.52-.678,1.456,1.456,0,0,0-.879-.25,1.7,1.7,0,0,0-1.416.748,4.134,4.134,0,0,0-.727,1.906Z" transform="translate(1150.943 -2192.766)" fill="#fff"/><path d="M-1104.417,2216.665c-.008-.236-.012-.425-.012-.572a3.8,3.8,0,0,1,.026-.443,3.7,3.7,0,0,1-1.03.816,2.572,2.572,0,0,1-1.245.331,1.943,1.943,0,0,1-1.523-.552,1.735,1.735,0,0,1-.349-1.5,2.089,2.089,0,0,1,1.008-1.544,4.193,4.193,0,0,1,2.237-.535h1.35l.1-.674a1.106,1.106,0,0,0-.217-.961,1.285,1.285,0,0,0-.987-.337,1.728,1.728,0,0,0-1.009.3,1.055,1.055,0,0,0-.491.725l-1.184.012-.007-.038a1.953,1.953,0,0,1,.9-1.377,3.3,3.3,0,0,1,2-.6,2.458,2.458,0,0,1,1.752.6,1.82,1.82,0,0,1,.478,1.693l-.491,3.283a5.315,5.315,0,0,0-.072.715,3.609,3.609,0,0,0,.041.659Zm-1.921-.907a2.462,2.462,0,0,0,1.248-.354,2.1,2.1,0,0,0,.837-.795l.171-1.1h-1.393a2.045,2.045,0,0,0-1.248.385,1.332,1.332,0,0,0-.593.882.815.815,0,0,0,.167.727A1.086,1.086,0,0,0-1106.338,2215.759Z" transform="translate(1151.732 -2192.451)" fill="#fff"/><path d="M-1098.2,2210.944l-.63-.04a1.535,1.535,0,0,0-.858.244,2.017,2.017,0,0,0-.63.685l-.725,4.833h-1.241l1.021-6.82h1.109l-.025.964a2.866,2.866,0,0,1,.832-.8,1.916,1.916,0,0,1,1.027-.288,1.7,1.7,0,0,1,.262.021,1.6,1.6,0,0,1,.205.048Z" transform="translate(1152.503 -2192.451)" fill="#fff"/><path d="M-1096.925,2216.98h-1.242l1.022-6.82h1.241Zm1.285-8.565h-1.241l.19-1.267h1.241Z" transform="translate(1153.006 -2192.766)" fill="#fff"/><path d="M-1095.142,2213.193a4.343,4.343,0,0,1,1.188-2.521,3.226,3.226,0,0,1,2.373-.952,2.373,2.373,0,0,1,2.064.987,3.313,3.313,0,0,1,.483,2.486l-.026.139a4.362,4.362,0,0,1-1.191,2.524,3.246,3.246,0,0,1-2.377.942,2.378,2.378,0,0,1-2.064-.983,3.278,3.278,0,0,1-.475-2.483Zm1.217.139a2.965,2.965,0,0,0,.183,1.808,1.291,1.291,0,0,0,1.26.687,1.783,1.783,0,0,0,1.433-.716,3.633,3.633,0,0,0,.747-1.779l.025-.139a2.978,2.978,0,0,0-.192-1.8,1.29,1.29,0,0,0-1.257-.692,1.787,1.787,0,0,0-1.441.72,3.562,3.562,0,0,0-.733,1.775Z" transform="translate(1153.367 -2192.451)" fill="#fff"/></g><g transform="translate(-1461.458 2208.231)"><path d="M-1446.708,2201.414l1.828-6.682h2.47l-3.089,9.176h-2.42l-3.063-9.176h2.451Z" transform="translate(1465.947 -2194.228)" fill="#fff"/><path d="M-1439.761,2203.792a3.51,3.51,0,0,1-2.54-.936,3.235,3.235,0,0,1-.97-2.436v-.177a4.171,4.171,0,0,1,.387-1.846,2.831,2.831,0,0,1,1.131-1.239,3.412,3.412,0,0,1,1.764-.438,2.947,2.947,0,0,1,2.268.892,3.5,3.5,0,0,1,.833,2.485v.827h-4.223a1.544,1.544,0,0,0,.5.9,1.485,1.485,0,0,0,1,.328,1.91,1.91,0,0,0,1.576-.706l.971,1.146a2.708,2.708,0,0,1-1.126.873A3.792,3.792,0,0,1-1439.761,2203.792Zm-.239-5.434q-.934,0-1.11,1.235h2.143v-.163a1.05,1.05,0,0,0-.258-.791A1.03,1.03,0,0,0-1440,2198.358Z" transform="translate(1466.89 -2193.985)" fill="#fff"/><path d="M-1432.7,2198.768l-.7-.05a1.259,1.259,0,0,0-1.286.631v4.316h-2.123v-6.819h1.992l.069.876a1.646,1.646,0,0,1,1.494-1,2.066,2.066,0,0,1,.593.075Z" transform="translate(1467.681 -2193.985)" fill="#fff"/><path d="M-1432.811,2200.5a4.169,4.169,0,0,1,.7-2.552,2.308,2.308,0,0,1,1.955-.933,1.962,1.962,0,0,1,1.538.719v-3.454h2.129v9.681h-1.909l-.108-.73a2.01,2.01,0,0,1-1.663.857,2.3,2.3,0,0,1-1.928-.934A4.3,4.3,0,0,1-1432.811,2200.5Zm2.125.133q0,1.814,1.058,1.816a1.046,1.046,0,0,0,1.009-.594v-2.6a1.017,1.017,0,0,0-1-.6q-.983,0-1.065,1.588Z" transform="translate(1468.17 -2194.283)" fill="#fff"/><path d="M-1422.781,2203.792a3.512,3.512,0,0,1-2.54-.936,3.235,3.235,0,0,1-.97-2.436v-.177a4.186,4.186,0,0,1,.387-1.846,2.831,2.831,0,0,1,1.131-1.239,3.419,3.419,0,0,1,1.764-.438,2.948,2.948,0,0,1,2.27.892,3.5,3.5,0,0,1,.832,2.485v.827h-4.222a1.539,1.539,0,0,0,.5.9,1.491,1.491,0,0,0,1,.328,1.909,1.909,0,0,0,1.575-.706l.971,1.146a2.712,2.712,0,0,1-1.125.873A3.8,3.8,0,0,1-1422.781,2203.792Zm-.239-5.434q-.933,0-1.109,1.235h2.143v-.163a1.049,1.049,0,0,0-.259-.791A1.028,1.028,0,0,0-1423.02,2198.358Z" transform="translate(1468.968 -2193.985)" fill="#fff"/><path d="M-1458.985,2214.817a1.284,1.284,0,0,0-.322-1.139,4.127,4.127,0,0,0-1.614-.827,4.962,4.962,0,0,1-2.1-1.1,2.1,2.1,0,0,1-.47-1.885,2.321,2.321,0,0,1,1.03-1.66,3.755,3.755,0,0,1,2.153-.59,3.312,3.312,0,0,1,2.308.75,2.107,2.107,0,0,1,.6,2.055l-.012.037h-1.191a1.519,1.519,0,0,0-.385-1.345,1.955,1.955,0,0,0-1.469-.521,2.006,2.006,0,0,0-1.212.364,1.311,1.311,0,0,0-.578.9,1.294,1.294,0,0,0,.268,1.152,4.59,4.59,0,0,0,1.648.815,5.4,5.4,0,0,1,2.128,1.131,2.051,2.051,0,0,1,.464,1.856,2.309,2.309,0,0,1-1.063,1.684,4.1,4.1,0,0,1-2.234.567,4.294,4.294,0,0,1-2.474-.68,1.943,1.943,0,0,1-.753-2.118l.019-.038h1.184a1.323,1.323,0,0,0,.511,1.437,2.991,2.991,0,0,0,1.658.428,2.277,2.277,0,0,0,1.273-.356A1.317,1.317,0,0,0-1458.985,2214.817Z" transform="translate(1464.315 -2192.652)" fill="#fff"/><path d="M-1454.751,2216.8a2.479,2.479,0,0,1-2.121-.952,3.173,3.173,0,0,1-.481-2.458l.044-.277a4.082,4.082,0,0,1,1.2-2.458,3.138,3.138,0,0,1,2.222-.933,2.116,2.116,0,0,1,1.9.863,3.1,3.1,0,0,1,.373,2.25l-.094.656h-4.412a2.707,2.707,0,0,0,.214,1.712,1.372,1.372,0,0,0,1.3.626,3.377,3.377,0,0,0,1.125-.183,2.958,2.958,0,0,0,.9-.49l.365.806a3.588,3.588,0,0,1-1.053.6A4.142,4.142,0,0,1-1454.751,2216.8Zm.718-6.1a1.57,1.57,0,0,0-1.131.5,2.882,2.882,0,0,0-.728,1.273l.013.038h3.069l.013-.1a1.816,1.816,0,0,0-.177-1.238A1.133,1.133,0,0,0-1454.033,2210.7Z" transform="translate(1465.16 -2192.394)" fill="#fff"/><path d="M-1448.7,2215.827a1.672,1.672,0,0,0,1.043-.385,1.449,1.449,0,0,0,.582-.933h1.123l.012.038a2.335,2.335,0,0,1-.986,1.586,3.1,3.1,0,0,1-1.919.664,2.289,2.289,0,0,1-2.038-.987,3.316,3.316,0,0,1-.451-2.423l.038-.265a4.374,4.374,0,0,1,1.147-2.449,3.142,3.142,0,0,1,2.364-.954,2.235,2.235,0,0,1,1.745.712,1.938,1.938,0,0,1,.46,1.733l-.012.032h-1.135a1.353,1.353,0,0,0-.239-1.074,1.153,1.153,0,0,0-.965-.425,1.707,1.707,0,0,0-1.423.72,3.644,3.644,0,0,0-.694,1.705l-.038.265a3.113,3.113,0,0,0,.145,1.749A1.223,1.223,0,0,0-1448.7,2215.827Z" transform="translate(1465.897 -2192.394)" fill="#fff"/><path d="M-1441.125,2216.651l.069-.976a2.809,2.809,0,0,1-.949.825,2.593,2.593,0,0,1-1.213.284,1.879,1.879,0,0,1-1.613-.722,2.938,2.938,0,0,1-.309-2.208l.6-4.021h1.241l-.6,4.034a2.4,2.4,0,0,0,.088,1.519,1.057,1.057,0,0,0,.952.392,2.194,2.194,0,0,0,1.128-.281,2.181,2.181,0,0,0,.782-.791l.725-4.872h1.24l-1.02,6.819Z" transform="translate(1466.653 -2192.38)" fill="#fff"/><path d="M-1436.891,2210.823a2.944,2.944,0,0,1,.973-.816,2.607,2.607,0,0,1,1.213-.288,1.923,1.923,0,0,1,1.591.652,2.508,2.508,0,0,1,.324,1.989l-.642,4.3h-1.242l.643-4.279a1.7,1.7,0,0,0-.157-1.3,1.281,1.281,0,0,0-1.04-.363,2.021,2.021,0,0,0-1,.244,2.2,2.2,0,0,0-.744.671l-.755,5.022h-1.242l1.021-6.82h1.11Z" transform="translate(1467.417 -2192.394)" fill="#fff"/><path d="M-1432.234,2213.7a5.166,5.166,0,0,1,1.1-2.683,2.686,2.686,0,0,1,2.123-.978,2.1,2.1,0,0,1,1.018.233,1.846,1.846,0,0,1,.7.674l.568-3.794h1.241l-1.475,9.832h-.952l-.056-.863a2.8,2.8,0,0,1-.939.744,2.722,2.722,0,0,1-1.179.251,2,2,0,0,1-1.8-.914,3.33,3.33,0,0,1-.371-2.369Zm1.222.134a2.649,2.649,0,0,0,.167,1.67,1.272,1.272,0,0,0,1.226.6,1.789,1.789,0,0,0,.957-.259,2.439,2.439,0,0,0,.739-.718l.473-3.157a1.538,1.538,0,0,0-.52-.678,1.461,1.461,0,0,0-.88-.25,1.7,1.7,0,0,0-1.414.748,4.132,4.132,0,0,0-.728,1.906Z" transform="translate(1468.231 -2192.709)" fill="#fff"/><path d="M-1421.7,2216.665c-.009-.236-.012-.425-.012-.572a4.017,4.017,0,0,1,.025-.443,3.7,3.7,0,0,1-1.03.816,2.568,2.568,0,0,1-1.245.331,1.942,1.942,0,0,1-1.522-.552,1.736,1.736,0,0,1-.35-1.5,2.088,2.088,0,0,1,1.009-1.544,4.19,4.19,0,0,1,2.237-.535h1.349l.1-.674a1.109,1.109,0,0,0-.218-.961,1.284,1.284,0,0,0-.986-.337,1.722,1.722,0,0,0-1.008.3,1.047,1.047,0,0,0-.492.725l-1.185.012-.007-.038a1.953,1.953,0,0,1,.9-1.377,3.307,3.307,0,0,1,2-.6,2.456,2.456,0,0,1,1.752.6,1.82,1.82,0,0,1,.479,1.693l-.492,3.283a5.386,5.386,0,0,0-.073.715,3.709,3.709,0,0,0,.04.659Zm-1.923-.907a2.455,2.455,0,0,0,1.248-.354,2.1,2.1,0,0,0,.839-.795l.171-1.1h-1.394a2.041,2.041,0,0,0-1.247.385,1.328,1.328,0,0,0-.593.882.815.815,0,0,0,.167.727A1.083,1.083,0,0,0-1423.626,2215.759Z" transform="translate(1469.019 -2192.394)" fill="#fff"/><path d="M-1415.486,2210.944l-.631-.04a1.532,1.532,0,0,0-.856.244,2.008,2.008,0,0,0-.631.685l-.724,4.833h-1.242l1.021-6.82h1.11l-.026.964a2.864,2.864,0,0,1,.832-.8,1.916,1.916,0,0,1,1.027-.288,1.682,1.682,0,0,1,.261.021,1.6,1.6,0,0,1,.205.048Z" transform="translate(1469.79 -2192.394)" fill="#fff"/><path d="M-1414.213,2216.98h-1.241l1.021-6.82h1.241Zm1.286-8.565h-1.242l.19-1.267h1.241Z" transform="translate(1470.294 -2192.709)" fill="#fff"/><path d="M-1412.429,2213.193a4.341,4.341,0,0,1,1.187-2.521,3.228,3.228,0,0,1,2.373-.952,2.371,2.371,0,0,1,2.064.987,3.3,3.3,0,0,1,.483,2.486l-.026.139a4.355,4.355,0,0,1-1.191,2.524,3.243,3.243,0,0,1-2.376.942,2.375,2.375,0,0,1-2.064-.983,3.274,3.274,0,0,1-.476-2.483Zm1.217.139a2.965,2.965,0,0,0,.182,1.808,1.292,1.292,0,0,0,1.26.687,1.781,1.781,0,0,0,1.433-.716,3.612,3.612,0,0,0,.748-1.779l.025-.139a2.962,2.962,0,0,0-.192-1.8,1.289,1.289,0,0,0-1.257-.692,1.785,1.785,0,0,0-1.44.72,3.576,3.576,0,0,0-.734,1.775Z" transform="translate(1470.654 -2192.394)" fill="#fff"/></g><g transform="translate(-1079.014 2298.308)"><path d="M-1109.674,2280.867h-1.2v3.246h-2.212v-9.175h3.611a4.029,4.029,0,0,1,2.552.723,2.451,2.451,0,0,1,.922,2.046,2.975,2.975,0,0,1-.388,1.586,2.761,2.761,0,0,1-1.213,1.021l1.916,3.7v.1h-2.37Zm-1.2-1.7h1.4a1.254,1.254,0,0,0,.948-.333,1.28,1.28,0,0,0,.319-.926,1.3,1.3,0,0,0-.321-.932,1.251,1.251,0,0,0-.946-.338h-1.4Z" transform="translate(1124.849 -2274.49)" fill="#fff"/><path d="M-1105.907,2280.4a4.048,4.048,0,0,1,.4-1.821,2.85,2.85,0,0,1,1.141-1.225,3.444,3.444,0,0,1,1.746-.428,3.135,3.135,0,0,1,2.413.948,3.641,3.641,0,0,1,.882,2.58v.076a3.528,3.528,0,0,1-.885,2.53,3.142,3.142,0,0,1-2.4.936,3.18,3.18,0,0,1-2.338-.873,3.414,3.414,0,0,1-.951-2.366Zm2.124.131a2.54,2.54,0,0,0,.3,1.386.987.987,0,0,0,.875.442q1.135,0,1.159-1.748v-.212q0-1.835-1.171-1.835-1.066,0-1.154,1.583Z" transform="translate(1125.727 -2274.247)" fill="#fff"/><path d="M-1096.781,2277.343v7.052a2.473,2.473,0,0,1-.693,1.865,2.66,2.66,0,0,1-1.916.655,4.51,4.51,0,0,1-1-.106V2285.2a4.175,4.175,0,0,0,.6.057.777.777,0,0,0,.882-.877v-7.039Zm-2.288-1.764a.956.956,0,0,1,.328-.748,1.229,1.229,0,0,1,.852-.292,1.231,1.231,0,0,1,.851.292.956.956,0,0,1,.328.748.956.956,0,0,1-.328.748,1.232,1.232,0,0,1-.851.292,1.23,1.23,0,0,1-.852-.292A.956.956,0,0,1-1099.07,2275.578Z" transform="translate(1126.401 -2274.539)" fill="#fff"/><path d="M-1096.345,2280.4a4.031,4.031,0,0,1,.4-1.821,2.847,2.847,0,0,1,1.14-1.225,3.448,3.448,0,0,1,1.746-.428,3.135,3.135,0,0,1,2.413.948,3.637,3.637,0,0,1,.883,2.58v.076a3.529,3.529,0,0,1-.885,2.53,3.145,3.145,0,0,1-2.4.936,3.178,3.178,0,0,1-2.338-.873,3.409,3.409,0,0,1-.952-2.366Zm2.125.131a2.54,2.54,0,0,0,.3,1.386.984.984,0,0,0,.875.442q1.135,0,1.159-1.748v-.212q0-1.835-1.172-1.835-1.066,0-1.153,1.583Z" transform="translate(1126.897 -2274.247)" fill="#fff"/><path d="M-1118.743,2290.051l.07.8a2.31,2.31,0,0,1,1.947-.926,1.943,1.943,0,0,1,1.591.636,3.033,3.033,0,0,1,.544,1.916v4.393h-2.129v-4.305a1.141,1.141,0,0,0-.209-.758.955.955,0,0,0-.756-.244,1.015,1.015,0,0,0-.926.49v4.816h-2.124v-6.819Z" transform="translate(1123.913 -2272.656)" fill="#fff"/><path d="M-1110.337,2296.87a2.435,2.435,0,0,1-.2-.612,1.974,1.974,0,0,1-1.639.738,2.419,2.419,0,0,1-1.639-.584,1.856,1.856,0,0,1-.673-1.465,1.91,1.91,0,0,1,.818-1.677,4.189,4.189,0,0,1,2.383-.568h.655v-.359c0-.629-.271-.945-.813-.945a.665.665,0,0,0-.756.748h-2.125a1.9,1.9,0,0,1,.842-1.6,3.523,3.523,0,0,1,2.146-.617,3.094,3.094,0,0,1,2.061.636,2.211,2.211,0,0,1,.776,1.746v3.018a3.088,3.088,0,0,0,.291,1.439v.106Zm-1.33-1.387a1.206,1.206,0,0,0,.659-.168,1.064,1.064,0,0,0,.375-.386v-1.09h-.617q-1.109,0-1.11,1a.608.608,0,0,0,.2.469A.705.705,0,0,0-1111.667,2295.483Z" transform="translate(1124.677 -2272.656)" fill="#fff"/><path d="M-1103.986,2291.973l-.7-.051a1.257,1.257,0,0,0-1.285.63v4.318h-2.125v-6.819h1.992l.068.877a1.646,1.646,0,0,1,1.494-1,2.072,2.072,0,0,1,.593.075Z" transform="translate(1125.459 -2272.656)" fill="#fff"/><path d="M-1100.044,2296.87a2.4,2.4,0,0,1-.2-.612,1.975,1.975,0,0,1-1.639.738,2.417,2.417,0,0,1-1.639-.584,1.856,1.856,0,0,1-.673-1.465,1.91,1.91,0,0,1,.818-1.677,4.187,4.187,0,0,1,2.383-.568h.656v-.359c0-.629-.272-.945-.813-.945a.665.665,0,0,0-.757.748h-2.125a1.9,1.9,0,0,1,.842-1.6,3.52,3.52,0,0,1,2.146-.617,3.094,3.094,0,0,1,2.061.636,2.211,2.211,0,0,1,.776,1.746v3.018a3.087,3.087,0,0,0,.291,1.439v.106Zm-1.33-1.387a1.2,1.2,0,0,0,.658-.168,1.068,1.068,0,0,0,.376-.386v-1.09h-.619q-1.109,0-1.109,1a.607.607,0,0,0,.2.469A.709.709,0,0,0-1101.374,2295.483Z" transform="translate(1125.936 -2272.656)" fill="#fff"/><path d="M-1095.861,2290.051l.068.8a2.31,2.31,0,0,1,1.948-.926,1.943,1.943,0,0,1,1.591.636,3.033,3.033,0,0,1,.544,1.916v4.393h-2.129v-4.305a1.146,1.146,0,0,0-.209-.758.96.96,0,0,0-.756-.244,1.013,1.013,0,0,0-.926.49v4.816h-2.125v-6.819Z" transform="translate(1126.712 -2272.656)" fill="#fff"/><path d="M-1088.9,2290.343v7.052a2.473,2.473,0,0,1-.694,1.865,2.659,2.659,0,0,1-1.916.656,4.5,4.5,0,0,1-1-.107V2298.2a4.205,4.205,0,0,0,.6.057.777.777,0,0,0,.882-.876v-7.04Zm-2.288-1.764a.955.955,0,0,1,.328-.747,1.227,1.227,0,0,1,.852-.292,1.23,1.23,0,0,1,.851.292.955.955,0,0,1,.328.747.956.956,0,0,1-.328.748,1.232,1.232,0,0,1-.851.292,1.23,1.23,0,0,1-.852-.292A.956.956,0,0,1-1091.19,2288.578Z" transform="translate(1127.366 -2272.948)" fill="#fff"/><path d="M-1084.35,2296.87a2.358,2.358,0,0,1-.2-.612,1.976,1.976,0,0,1-1.639.738,2.413,2.413,0,0,1-1.639-.584,1.853,1.853,0,0,1-.675-1.465,1.908,1.908,0,0,1,.819-1.677,4.182,4.182,0,0,1,2.383-.568h.656v-.359c0-.629-.273-.945-.814-.945a.665.665,0,0,0-.756.748h-2.124a1.9,1.9,0,0,1,.842-1.6,3.518,3.518,0,0,1,2.146-.617,3.1,3.1,0,0,1,2.061.636,2.214,2.214,0,0,1,.774,1.746v3.018a3.1,3.1,0,0,0,.291,1.439v.106Zm-1.329-1.387a1.207,1.207,0,0,0,.658-.168,1.086,1.086,0,0,0,.376-.386v-1.09h-.618q-1.11,0-1.109,1a.606.606,0,0,0,.194.469A.711.711,0,0,0-1085.679,2295.483Z" transform="translate(1127.856 -2272.656)" fill="#fff"/><path d="M-1116.313,2301.913h-3.025l-1.229,8.2h-1.241l1.229-8.2h-2.987l.144-.975h7.254Z" transform="translate(1123.566 -2271.309)" fill="#fff"/><path d="M-1114.955,2310a2.479,2.479,0,0,1-2.121-.95,3.173,3.173,0,0,1-.481-2.458l.045-.278a4.079,4.079,0,0,1,1.2-2.457,3.133,3.133,0,0,1,2.221-.933,2.122,2.122,0,0,1,1.9.862,3.113,3.113,0,0,1,.372,2.251l-.094.655h-4.412a2.706,2.706,0,0,0,.214,1.71,1.37,1.37,0,0,0,1.3.626,3.364,3.364,0,0,0,1.126-.182,2.969,2.969,0,0,0,.9-.49l.366.806a3.586,3.586,0,0,1-1.054.6A4.171,4.171,0,0,1-1114.955,2310Zm.719-6.1a1.57,1.57,0,0,0-1.131.5,2.886,2.886,0,0,0-.729,1.274l.013.037h3.068l.013-.1a1.824,1.824,0,0,0-.176-1.238A1.14,1.14,0,0,0-1114.236,2303.9Z" transform="translate(1124.294 -2271.065)" fill="#fff"/><path d="M-1107.641,2304.147l-.63-.038a1.537,1.537,0,0,0-.858.244,2.016,2.016,0,0,0-.631.685l-.724,4.833h-1.242l1.022-6.819h1.109l-.026.964a2.882,2.882,0,0,1,.833-.8,1.927,1.927,0,0,1,1.027-.286,1.664,1.664,0,0,1,.261.021,1.63,1.63,0,0,1,.205.047Z" transform="translate(1125.015 -2271.065)" fill="#fff"/><path d="M-1104.984,2309.031a1.669,1.669,0,0,0,1.042-.384,1.456,1.456,0,0,0,.583-.933h1.123l.012.04a2.336,2.336,0,0,1-.987,1.584,3.1,3.1,0,0,1-1.919.663,2.29,2.29,0,0,1-2.039-.985,3.323,3.323,0,0,1-.45-2.423l.038-.265a4.374,4.374,0,0,1,1.147-2.449,3.142,3.142,0,0,1,2.363-.954,2.239,2.239,0,0,1,1.746.712,1.944,1.944,0,0,1,.46,1.734l-.013.03h-1.135a1.349,1.349,0,0,0-.238-1.074,1.158,1.158,0,0,0-.965-.426,1.708,1.708,0,0,0-1.423.722,3.616,3.616,0,0,0-.694,1.7l-.038.265a3.113,3.113,0,0,0,.145,1.749A1.222,1.222,0,0,0-1104.984,2309.031Z" transform="translate(1125.511 -2271.065)" fill="#fff"/><path d="M-1100.454,2310.185h-1.241l1.021-6.819h1.24Zm1.286-8.565h-1.243l.19-1.266h1.241Z" transform="translate(1126.242 -2271.38)" fill="#fff"/><path d="M-1094.7,2309.87c-.009-.236-.014-.426-.014-.571a4.3,4.3,0,0,1,.025-.443,3.689,3.689,0,0,1-1.03.816,2.563,2.563,0,0,1-1.244.33,1.947,1.947,0,0,1-1.522-.551,1.737,1.737,0,0,1-.35-1.5,2.088,2.088,0,0,1,1.009-1.545,4.194,4.194,0,0,1,2.237-.534h1.349l.1-.676a1.105,1.105,0,0,0-.219-.96,1.287,1.287,0,0,0-.987-.338,1.731,1.731,0,0,0-1.008.3,1.055,1.055,0,0,0-.492.726l-1.184.012-.007-.038a1.953,1.953,0,0,1,.9-1.377,3.314,3.314,0,0,1,2-.6,2.465,2.465,0,0,1,1.751.595,1.823,1.823,0,0,1,.479,1.692l-.49,3.284a5.2,5.2,0,0,0-.073.714,3.617,3.617,0,0,0,.041.66Zm-1.923-.907a2.451,2.451,0,0,0,1.248-.354,2.1,2.1,0,0,0,.837-.795l.172-1.1h-1.394a2.048,2.048,0,0,0-1.248.386,1.327,1.327,0,0,0-.591.881.816.816,0,0,0,.166.727A1.077,1.077,0,0,0-1096.621,2308.963Z" transform="translate(1126.588 -2271.065)" fill="#fff"/><path d="M-1088.482,2304.147l-.63-.038a1.539,1.539,0,0,0-.857.244,2,2,0,0,0-.63.685l-.725,4.833h-1.241l1.021-6.819h1.109l-.025.964a2.865,2.865,0,0,1,.832-.8,1.927,1.927,0,0,1,1.027-.286,1.662,1.662,0,0,1,.261.021,1.63,1.63,0,0,1,.205.047Z" transform="translate(1127.359 -2271.065)" fill="#fff"/><path d="M-1087.208,2310.185h-1.241l1.021-6.819h1.24Zm1.286-8.565h-1.242l.19-1.266h1.241Z" transform="translate(1127.863 -2271.38)" fill="#fff"/><path d="M-1085.425,2306.4a4.346,4.346,0,0,1,1.188-2.522,3.221,3.221,0,0,1,2.373-.952,2.373,2.373,0,0,1,2.064.987,3.311,3.311,0,0,1,.483,2.487l-.026.138a4.348,4.348,0,0,1-1.191,2.523,3.242,3.242,0,0,1-2.376.941,2.373,2.373,0,0,1-2.064-.982,3.274,3.274,0,0,1-.476-2.483Zm1.217.138a2.981,2.981,0,0,0,.182,1.808,1.292,1.292,0,0,0,1.262.686,1.784,1.784,0,0,0,1.433-.714,3.633,3.633,0,0,0,.747-1.78l.025-.138a2.973,2.973,0,0,0-.193-1.8,1.289,1.289,0,0,0-1.257-.693,1.789,1.789,0,0,0-1.44.722,3.574,3.574,0,0,0-.733,1.776Z" transform="translate(1128.223 -2271.065)" fill="#fff"/></g><g transform="translate(-1473.027 2298.25)"><path d="M-1458.821,2282.4h-3.031l-.53,1.714h-2.363l3.365-9.175h2.08l3.391,9.175h-2.376Zm-2.5-1.708h1.973l-.99-3.182Z" transform="translate(1475.832 -2274.433)" fill="#fff"/><path d="M-1453.772,2282.217h3.107v1.64h-5.792v-1.185l3.026-4h-2.894v-1.638h5.59v1.147Z" transform="translate(1476.846 -2274.176)" fill="#fff"/><path d="M-1446.313,2283.118a2.189,2.189,0,0,1-1.822.864,2.151,2.151,0,0,1-1.7-.651,2.749,2.749,0,0,1-.577-1.877v-4.417h2.124v4.43a.765.765,0,0,0,.852.878,1.113,1.113,0,0,0,1.039-.524v-4.783h2.137v6.819h-1.992Z" transform="translate(1477.586 -2274.176)" fill="#fff"/><path d="M-1441.665,2284.168h-2.13v-9.68h2.13Z" transform="translate(1478.395 -2274.488)" fill="#fff"/><path d="M-1464.237,2294.329l1.079-4.292h2.237l-2.225,6.819h-2.168l-2.224-6.819h2.243Z" transform="translate(1475.49 -2272.585)" fill="#fff"/><path d="M-1457.829,2297a3.508,3.508,0,0,1-2.541-.936,3.233,3.233,0,0,1-.97-2.436v-.176a4.2,4.2,0,0,1,.387-1.847,2.844,2.844,0,0,1,1.131-1.239,3.428,3.428,0,0,1,1.764-.437,2.95,2.95,0,0,1,2.27.891,3.507,3.507,0,0,1,.832,2.487v.825h-4.222a1.528,1.528,0,0,0,.5.9,1.483,1.483,0,0,0,1,.329,1.908,1.908,0,0,0,1.575-.706l.972,1.146a2.731,2.731,0,0,1-1.126.873A3.8,3.8,0,0,1-1457.829,2297Zm-.24-5.432q-.933,0-1.109,1.235h2.143v-.163a1.053,1.053,0,0,0-.258-.791A1.031,1.031,0,0,0-1458.069,2291.564Z" transform="translate(1476.248 -2272.599)" fill="#fff"/><path d="M-1450.768,2291.973l-.7-.051a1.259,1.259,0,0,0-1.286.63v4.318h-2.123v-6.819h1.991l.07.877a1.645,1.645,0,0,1,1.494-1,2.059,2.059,0,0,1,.592.075Z" transform="translate(1477.039 -2272.599)" fill="#fff"/><path d="M-1450.879,2293.707a4.169,4.169,0,0,1,.7-2.551,2.3,2.3,0,0,1,1.954-.933,1.963,1.963,0,0,1,1.538.717v-3.452h2.13v9.68h-1.909l-.108-.732a2.008,2.008,0,0,1-1.663.858,2.3,2.3,0,0,1-1.928-.932A4.3,4.3,0,0,1-1450.879,2293.707Zm2.125.133q0,1.817,1.058,1.816a1.043,1.043,0,0,0,1.008-.594v-2.6a1.016,1.016,0,0,0-1-.6q-.983,0-1.065,1.588Z" transform="translate(1477.528 -2272.897)" fill="#fff"/><path d="M-1440.849,2297a3.507,3.507,0,0,1-2.54-.936,3.233,3.233,0,0,1-.97-2.436v-.176a4.182,4.182,0,0,1,.387-1.847,2.843,2.843,0,0,1,1.131-1.239,3.425,3.425,0,0,1,1.764-.437,2.95,2.95,0,0,1,2.268.891,3.5,3.5,0,0,1,.833,2.487v.825h-4.223a1.536,1.536,0,0,0,.5.9,1.479,1.479,0,0,0,1,.329,1.911,1.911,0,0,0,1.576-.706l.971,1.146a2.718,2.718,0,0,1-1.125.873A3.809,3.809,0,0,1-1440.849,2297Zm-.239-5.432q-.935,0-1.11,1.235h2.144v-.163a1.053,1.053,0,0,0-.259-.791A1.03,1.03,0,0,0-1441.088,2291.564Z" transform="translate(1478.326 -2272.599)" fill="#fff"/><path d="M-1467.369,2301.913h-3.025l-1.229,8.2h-1.241l1.229-8.2h-2.988l.145-.975h7.255Z" transform="translate(1474.623 -2271.252)" fill="#fff"/><path d="M-1466.011,2310a2.475,2.475,0,0,1-2.12-.95,3.174,3.174,0,0,1-.483-2.458l.044-.278a4.087,4.087,0,0,1,1.2-2.457,3.133,3.133,0,0,1,2.222-.933,2.122,2.122,0,0,1,1.9.862,3.112,3.112,0,0,1,.371,2.251l-.094.655h-4.412a2.708,2.708,0,0,0,.214,1.71,1.371,1.371,0,0,0,1.3.626,3.364,3.364,0,0,0,1.126-.182,2.952,2.952,0,0,0,.9-.49l.366.806a3.613,3.613,0,0,1-1.053.6A4.178,4.178,0,0,1-1466.011,2310Zm.718-6.1a1.573,1.573,0,0,0-1.13.5,2.873,2.873,0,0,0-.729,1.274l.012.037h3.07l.012-.1a1.823,1.823,0,0,0-.176-1.238A1.141,1.141,0,0,0-1465.293,2303.9Z" transform="translate(1475.352 -2271.008)" fill="#fff"/><path d="M-1458.7,2304.147l-.63-.038a1.538,1.538,0,0,0-.858.244,1.993,1.993,0,0,0-.63.685l-.725,4.833h-1.241l1.021-6.819h1.109l-.025.964a2.882,2.882,0,0,1,.832-.8,1.926,1.926,0,0,1,1.027-.286,1.664,1.664,0,0,1,.262.021,1.513,1.513,0,0,1,.2.047Z" transform="translate(1476.072 -2271.008)" fill="#fff"/><path d="M-1456.04,2309.031a1.672,1.672,0,0,0,1.043-.384,1.454,1.454,0,0,0,.583-.933h1.122l.011.04a2.328,2.328,0,0,1-.985,1.584,3.1,3.1,0,0,1-1.919.663,2.287,2.287,0,0,1-2.038-.985,3.318,3.318,0,0,1-.451-2.423l.038-.265a4.376,4.376,0,0,1,1.147-2.449,3.141,3.141,0,0,1,2.363-.954,2.238,2.238,0,0,1,1.746.712,1.948,1.948,0,0,1,.46,1.734l-.012.03h-1.135a1.35,1.35,0,0,0-.24-1.074,1.154,1.154,0,0,0-.964-.426,1.708,1.708,0,0,0-1.423.722,3.643,3.643,0,0,0-.695,1.7l-.037.265a3.091,3.091,0,0,0,.145,1.749A1.221,1.221,0,0,0-1456.04,2309.031Z" transform="translate(1476.568 -2271.008)" fill="#fff"/><path d="M-1451.51,2310.185h-1.241l1.021-6.819h1.241Zm1.285-8.565h-1.241l.19-1.266h1.241Z" transform="translate(1477.299 -2271.323)" fill="#fff"/><path d="M-1445.755,2309.87c-.009-.236-.013-.426-.013-.571a4.02,4.02,0,0,1,.026-.443,3.7,3.7,0,0,1-1.03.816,2.571,2.571,0,0,1-1.245.33,1.949,1.949,0,0,1-1.523-.551,1.739,1.739,0,0,1-.349-1.5,2.09,2.09,0,0,1,1.008-1.545,4.2,4.2,0,0,1,2.238-.534h1.349l.1-.676a1.109,1.109,0,0,0-.218-.96,1.29,1.29,0,0,0-.987-.338,1.731,1.731,0,0,0-1.009.3,1.055,1.055,0,0,0-.492.726l-1.184.012-.007-.038a1.957,1.957,0,0,1,.9-1.377,3.311,3.311,0,0,1,2-.6,2.467,2.467,0,0,1,1.752.595,1.822,1.822,0,0,1,.478,1.692l-.492,3.284a5.363,5.363,0,0,0-.072.714,3.6,3.6,0,0,0,.04.66Zm-1.923-.907a2.455,2.455,0,0,0,1.248-.354,2.112,2.112,0,0,0,.839-.795l.169-1.1h-1.393a2.047,2.047,0,0,0-1.248.386,1.332,1.332,0,0,0-.592.881.813.813,0,0,0,.166.727A1.076,1.076,0,0,0-1447.677,2308.963Z" transform="translate(1477.645 -2271.008)" fill="#fff"/><path d="M-1439.537,2304.147l-.631-.038a1.54,1.54,0,0,0-.858.244,2.015,2.015,0,0,0-.63.685l-.725,4.833h-1.241l1.021-6.819h1.109l-.025.964a2.894,2.894,0,0,1,.832-.8,1.926,1.926,0,0,1,1.027-.286,1.667,1.667,0,0,1,.262.021,1.587,1.587,0,0,1,.205.047Z" transform="translate(1478.416 -2271.008)" fill="#fff"/><path d="M-1438.264,2310.185h-1.241l1.021-6.819h1.241Zm1.286-8.565h-1.242l.19-1.266h1.241Z" transform="translate(1478.92 -2271.323)" fill="#fff"/><path d="M-1436.481,2306.4a4.341,4.341,0,0,1,1.188-2.522,3.223,3.223,0,0,1,2.373-.952,2.373,2.373,0,0,1,2.064.987,3.31,3.31,0,0,1,.483,2.487l-.026.138a4.349,4.349,0,0,1-1.191,2.523,3.242,3.242,0,0,1-2.377.941,2.373,2.373,0,0,1-2.063-.982,3.274,3.274,0,0,1-.476-2.483Zm1.217.138a2.966,2.966,0,0,0,.183,1.808,1.29,1.29,0,0,0,1.26.686,1.784,1.784,0,0,0,1.433-.714,3.633,3.633,0,0,0,.748-1.78l.025-.138a2.982,2.982,0,0,0-.192-1.8,1.292,1.292,0,0,0-1.257-.693,1.784,1.784,0,0,0-1.44.722,3.566,3.566,0,0,0-.734,1.776Z" transform="translate(1479.28 -2271.008)" fill="#fff"/></g><g transform="translate(-1175.296 2125.073)"><path d="M-1203.427,2128.1h-3.031l-.53,1.714h-2.363l3.365-9.175h2.08l3.391,9.175h-2.376Zm-2.5-1.707h1.973l-.99-3.183Z" transform="translate(1209.351 -2120.136)"/><path d="M-1199.235,2122.755l.07.8a2.344,2.344,0,0,1,1.947-.927,1.725,1.725,0,0,1,1.745,1.028,2.269,2.269,0,0,1,2-1.028q2.072,0,2.13,2.508v4.437h-2.13v-4.3a1.294,1.294,0,0,0-.176-.762.75.75,0,0,0-.643-.24,1.007,1.007,0,0,0-.938.56l.006.09v4.656h-2.13v-4.292a1.371,1.371,0,0,0-.169-.773.749.749,0,0,0-.65-.24,1.021,1.021,0,0,0-.933.56v4.745h-2.123v-6.818Z" transform="translate(1210.345 -2119.893)"/><path d="M-1187.46,2129.573a2.371,2.371,0,0,1-.2-.612,1.971,1.971,0,0,1-1.639.74,2.419,2.419,0,0,1-1.639-.583,1.855,1.855,0,0,1-.675-1.466,1.9,1.9,0,0,1,.819-1.676,4.163,4.163,0,0,1,2.383-.568h.656v-.361q0-.943-.814-.943a.665.665,0,0,0-.756.747h-2.124a1.9,1.9,0,0,1,.842-1.6,3.534,3.534,0,0,1,2.146-.617,3.108,3.108,0,0,1,2.061.635,2.217,2.217,0,0,1,.774,1.747v3.018a3.086,3.086,0,0,0,.291,1.437v.107Zm-1.329-1.385a1.182,1.182,0,0,0,.658-.171,1.077,1.077,0,0,0,.376-.384v-1.092h-.619q-1.109,0-1.109,1a.61.61,0,0,0,.2.469A.71.71,0,0,0-1188.789,2128.188Z" transform="translate(1211.521 -2119.893)"/><path d="M-1181.108,2124.676l-.7-.05a1.255,1.255,0,0,0-1.285.632v4.315h-2.124v-6.818h1.991l.07.875a1.643,1.643,0,0,1,1.494-1,2.052,2.052,0,0,1,.592.075Z" transform="translate(1212.304 -2119.893)"/><path d="M-1180.888,2121.282a.957.957,0,0,1,.328-.749,1.234,1.234,0,0,1,.851-.292,1.235,1.235,0,0,1,.851.292.958.958,0,0,1,.328.749.959.959,0,0,1-.328.749,1.234,1.234,0,0,1-.851.292,1.233,1.233,0,0,1-.851-.292A.958.958,0,0,1-1180.888,2121.282Zm2.256,8.583h-2.13v-6.818h2.13Z" transform="translate(1212.834 -2120.185)"/><path d="M-1175.485,2129.871h-2.13v-9.68h2.13Z" transform="translate(1213.234 -2120.191)"/><path d="M-1172.324,2129.871h-2.13v-9.68h2.13Z" transform="translate(1213.621 -2120.191)"/><path d="M-1171.629,2126.1a4.028,4.028,0,0,1,.4-1.817,2.836,2.836,0,0,1,1.141-1.227,3.432,3.432,0,0,1,1.745-.429,3.13,3.13,0,0,1,2.414.95,3.635,3.635,0,0,1,.882,2.579v.076a3.534,3.534,0,0,1-.886,2.531,3.148,3.148,0,0,1-2.4.936,3.179,3.179,0,0,1-2.338-.874,3.411,3.411,0,0,1-.952-2.366Zm2.124.133a2.536,2.536,0,0,0,.3,1.386.987.987,0,0,0,.875.441q1.135,0,1.159-1.745v-.215q0-1.835-1.172-1.834-1.064,0-1.153,1.581Z" transform="translate(1213.967 -2119.893)"/><path d="M-1204.2,2135.755l.068.8a2.311,2.311,0,0,1,1.947-.927,1.948,1.948,0,0,1,1.592.635,3.03,3.03,0,0,1,.545,1.916v4.393h-2.13v-4.3a1.155,1.155,0,0,0-.208-.76.962.962,0,0,0-.756-.242,1.009,1.009,0,0,0-.926.492v4.813h-2.125v-6.818Z" transform="translate(1209.737 -2118.302)"/><path d="M-1195.8,2142.573a2.363,2.363,0,0,1-.2-.612,1.97,1.97,0,0,1-1.639.74,2.42,2.42,0,0,1-1.639-.584,1.855,1.855,0,0,1-.674-1.466,1.9,1.9,0,0,1,.819-1.676,4.164,4.164,0,0,1,2.383-.568h.655v-.362q0-.943-.814-.943a.665.665,0,0,0-.756.747h-2.124a1.9,1.9,0,0,1,.842-1.6,3.536,3.536,0,0,1,2.146-.617,3.107,3.107,0,0,1,2.061.635,2.213,2.213,0,0,1,.774,1.748v3.018a3.088,3.088,0,0,0,.291,1.437v.106Zm-1.329-1.385a1.184,1.184,0,0,0,.658-.171,1.078,1.078,0,0,0,.376-.384v-1.092h-.618q-1.11,0-1.109,1a.61.61,0,0,0,.2.469A.711.711,0,0,0-1197.125,2141.188Z" transform="translate(1210.501 -2118.302)"/><path d="M-1189.444,2137.676l-.7-.051a1.255,1.255,0,0,0-1.285.632v4.315h-2.123v-6.818h1.991l.07.875a1.643,1.643,0,0,1,1.494-1,2.058,2.058,0,0,1,.591.075Z" transform="translate(1211.284 -2118.302)"/><path d="M-1185.5,2142.573a2.41,2.41,0,0,1-.2-.612,1.97,1.97,0,0,1-1.639.74,2.424,2.424,0,0,1-1.639-.584,1.857,1.857,0,0,1-.673-1.466,1.905,1.905,0,0,1,.818-1.676,4.167,4.167,0,0,1,2.383-.568h.655v-.362q0-.943-.812-.943a.664.664,0,0,0-.757.747h-2.125a1.9,1.9,0,0,1,.842-1.6,3.541,3.541,0,0,1,2.146-.617,3.105,3.105,0,0,1,2.061.635,2.215,2.215,0,0,1,.776,1.748v3.018a3.074,3.074,0,0,0,.291,1.437v.106Zm-1.33-1.385a1.186,1.186,0,0,0,.659-.171,1.074,1.074,0,0,0,.375-.384v-1.092h-.618q-1.108,0-1.109,1a.607.607,0,0,0,.2.469A.71.71,0,0,0-1186.833,2141.188Z" transform="translate(1211.761 -2118.302)"/><path d="M-1181.32,2135.755l.068.8a2.312,2.312,0,0,1,1.948-.927,1.949,1.949,0,0,1,1.591.635,3.037,3.037,0,0,1,.544,1.916v4.393h-2.129v-4.3a1.148,1.148,0,0,0-.209-.76.96.96,0,0,0-.756-.242,1.01,1.01,0,0,0-.926.492v4.813h-2.125v-6.818Z" transform="translate(1212.537 -2118.302)"/><path d="M-1174.36,2136.047v7.053a2.482,2.482,0,0,1-.694,1.867,2.671,2.671,0,0,1-1.916.654,4.621,4.621,0,0,1-1-.107v-1.607a4.164,4.164,0,0,0,.6.056.777.777,0,0,0,.882-.875v-7.041Zm-2.287-1.765a.957.957,0,0,1,.328-.749,1.233,1.233,0,0,1,.851-.292,1.237,1.237,0,0,1,.851.292.961.961,0,0,1,.328.749.962.962,0,0,1-.328.749,1.234,1.234,0,0,1-.851.292,1.23,1.23,0,0,1-.851-.292A.958.958,0,0,1-1176.648,2134.282Z" transform="translate(1213.19 -2118.594)"/><path d="M-1169.809,2142.573a2.367,2.367,0,0,1-.2-.612,1.972,1.972,0,0,1-1.639.74,2.419,2.419,0,0,1-1.639-.584,1.855,1.855,0,0,1-.675-1.466,1.9,1.9,0,0,1,.819-1.676,4.163,4.163,0,0,1,2.383-.568h.656v-.362q0-.943-.814-.943a.665.665,0,0,0-.756.747h-2.124a1.9,1.9,0,0,1,.842-1.6,3.535,3.535,0,0,1,2.146-.617,3.109,3.109,0,0,1,2.061.635,2.217,2.217,0,0,1,.774,1.748v3.018a3.088,3.088,0,0,0,.291,1.437v.106Zm-1.329-1.385a1.185,1.185,0,0,0,.658-.171,1.087,1.087,0,0,0,.376-.384v-1.092h-.619q-1.109,0-1.109,1a.61.61,0,0,0,.2.469A.711.711,0,0,0-1171.138,2141.188Z" transform="translate(1213.681 -2118.302)"/><path d="M-1201.772,2147.618h-3.025l-1.229,8.2h-1.241l1.229-8.2h-2.987l.145-.977h7.254Z" transform="translate(1209.391 -2116.954)"/><path d="M-1200.414,2155.708a2.476,2.476,0,0,1-2.12-.953,3.176,3.176,0,0,1-.482-2.459l.045-.276a4.075,4.075,0,0,1,1.2-2.458,3.138,3.138,0,0,1,2.222-.933,2.116,2.116,0,0,1,1.9.863,3.108,3.108,0,0,1,.372,2.25l-.094.656h-4.412a2.715,2.715,0,0,0,.214,1.712,1.374,1.374,0,0,0,1.3.626,3.354,3.354,0,0,0,1.126-.183,2.946,2.946,0,0,0,.9-.491l.366.807a3.622,3.622,0,0,1-1.053.6A4.143,4.143,0,0,1-1200.414,2155.708Zm.719-6.1a1.563,1.563,0,0,0-1.131.5,2.861,2.861,0,0,0-.728,1.272l.013.039h3.068l.012-.1a1.822,1.822,0,0,0-.176-1.238A1.137,1.137,0,0,0-1199.695,2149.607Z" transform="translate(1210.119 -2116.711)"/><path d="M-1193.1,2149.852l-.631-.038a1.548,1.548,0,0,0-.858.241,2.039,2.039,0,0,0-.63.685l-.725,4.833h-1.241l1.021-6.818h1.109l-.025.964a2.854,2.854,0,0,1,.832-.8,1.919,1.919,0,0,1,1.027-.287,1.555,1.555,0,0,1,.261.021,1.64,1.64,0,0,1,.205.048Z" transform="translate(1210.84 -2116.711)"/><path d="M-1190.443,2154.736a1.677,1.677,0,0,0,1.043-.384,1.451,1.451,0,0,0,.583-.934h1.122l.012.038a2.327,2.327,0,0,1-.987,1.585,3.1,3.1,0,0,1-1.919.667,2.287,2.287,0,0,1-2.038-.987,3.323,3.323,0,0,1-.451-2.425l.038-.264a4.371,4.371,0,0,1,1.147-2.449,3.139,3.139,0,0,1,2.364-.954,2.231,2.231,0,0,1,1.745.713,1.942,1.942,0,0,1,.46,1.733l-.012.031h-1.135a1.352,1.352,0,0,0-.239-1.074,1.15,1.15,0,0,0-.965-.425,1.7,1.7,0,0,0-1.423.722,3.626,3.626,0,0,0-.694,1.7l-.038.264a3.121,3.121,0,0,0,.145,1.75A1.223,1.223,0,0,0-1190.443,2154.736Z" transform="translate(1211.336 -2116.711)"/><path d="M-1185.913,2155.888h-1.241l1.021-6.818h1.241Zm1.286-8.563h-1.243l.19-1.267h1.241Z" transform="translate(1212.067 -2117.026)"/><path d="M-1180.158,2155.573q-.013-.352-.013-.569a4.042,4.042,0,0,1,.026-.446,3.712,3.712,0,0,1-1.03.818,2.6,2.6,0,0,1-1.245.331,1.943,1.943,0,0,1-1.522-.553,1.738,1.738,0,0,1-.35-1.5,2.088,2.088,0,0,1,1.009-1.543,4.19,4.19,0,0,1,2.237-.535h1.349l.1-.675a1.108,1.108,0,0,0-.218-.961,1.29,1.29,0,0,0-.987-.337,1.717,1.717,0,0,0-1.008.3,1.044,1.044,0,0,0-.492.723l-1.185.013-.007-.037a1.955,1.955,0,0,1,.9-1.378,3.313,3.313,0,0,1,2-.6,2.464,2.464,0,0,1,1.752.6,1.825,1.825,0,0,1,.479,1.693l-.492,3.283a5.306,5.306,0,0,0-.073.715,3.676,3.676,0,0,0,.04.658Zm-1.922-.907a2.441,2.441,0,0,0,1.248-.354,2.112,2.112,0,0,0,.839-.793l.17-1.1h-1.394a2.04,2.04,0,0,0-1.247.384,1.328,1.328,0,0,0-.593.883.816.816,0,0,0,.167.727A1.077,1.077,0,0,0-1182.08,2154.666Z" transform="translate(1212.413 -2116.711)"/><path d="M-1173.94,2149.852l-.631-.038a1.542,1.542,0,0,0-.856.241,2.028,2.028,0,0,0-.631.685l-.724,4.833h-1.243l1.021-6.818h1.11l-.026.964a2.854,2.854,0,0,1,.832-.8,1.919,1.919,0,0,1,1.027-.287,1.544,1.544,0,0,1,.261.021,1.637,1.637,0,0,1,.205.048Z" transform="translate(1213.184 -2116.711)"/><path d="M-1172.667,2155.888h-1.241l1.021-6.818h1.241Zm1.286-8.563h-1.242l.19-1.267h1.241Z" transform="translate(1213.688 -2117.026)"/><path d="M-1170.884,2152.1a4.349,4.349,0,0,1,1.188-2.521,3.227,3.227,0,0,1,2.373-.952,2.372,2.372,0,0,1,2.064.987,3.3,3.3,0,0,1,.483,2.486l-.026.138a4.359,4.359,0,0,1-1.191,2.525,3.249,3.249,0,0,1-2.376.943,2.375,2.375,0,0,1-2.064-.984,3.275,3.275,0,0,1-.476-2.484Zm1.217.138a2.975,2.975,0,0,0,.183,1.809,1.291,1.291,0,0,0,1.26.687,1.786,1.786,0,0,0,1.433-.715,3.625,3.625,0,0,0,.747-1.781l.025-.138a2.97,2.97,0,0,0-.192-1.8,1.289,1.289,0,0,0-1.257-.692,1.779,1.779,0,0,0-1.44.722,3.553,3.553,0,0,0-.734,1.773Z" transform="translate(1214.048 -2116.711)"/></g><g transform="translate(-1378.407 2125.073)"><path d="M-1384.4,2128.1h-3.031l-.529,1.714h-2.364l3.365-9.175h2.081l3.39,9.175h-2.375Zm-2.5-1.707h1.973l-.99-3.183Z" transform="translate(1390.319 -2120.136)"/><path d="M-1380.2,2122.755l.068.8a2.344,2.344,0,0,1,1.947-.927,1.727,1.727,0,0,1,1.746,1.028,2.266,2.266,0,0,1,2-1.028q2.074,0,2.13,2.508v4.437h-2.13v-4.3a1.294,1.294,0,0,0-.176-.762.75.75,0,0,0-.643-.24,1.007,1.007,0,0,0-.938.56l.006.09v4.656h-2.13v-4.292a1.37,1.37,0,0,0-.17-.773.748.748,0,0,0-.65-.24,1.021,1.021,0,0,0-.933.56v4.745h-2.123v-6.818Z" transform="translate(1391.313 -2119.893)"/><path d="M-1368.427,2129.573a2.324,2.324,0,0,1-.2-.612,1.971,1.971,0,0,1-1.639.74,2.419,2.419,0,0,1-1.639-.583,1.859,1.859,0,0,1-.675-1.466,1.906,1.906,0,0,1,.819-1.676,4.162,4.162,0,0,1,2.383-.568h.656v-.361q0-.943-.814-.943a.664.664,0,0,0-.755.747h-2.125a1.9,1.9,0,0,1,.842-1.6,3.537,3.537,0,0,1,2.146-.617,3.107,3.107,0,0,1,2.061.635,2.213,2.213,0,0,1,.775,1.747v3.018a3.087,3.087,0,0,0,.291,1.437v.107Zm-1.33-1.385a1.182,1.182,0,0,0,.658-.171,1.069,1.069,0,0,0,.376-.384v-1.092h-.618q-1.109,0-1.109,1a.61.61,0,0,0,.2.469A.711.711,0,0,0-1369.757,2128.188Z" transform="translate(1392.489 -2119.893)"/><path d="M-1362.076,2124.676l-.7-.05a1.256,1.256,0,0,0-1.286.632v4.315h-2.124v-6.818h1.991l.07.875a1.644,1.644,0,0,1,1.494-1,2.049,2.049,0,0,1,.591.075Z" transform="translate(1393.272 -2119.893)"/><path d="M-1361.856,2121.282a.957.957,0,0,1,.328-.749,1.234,1.234,0,0,1,.851-.292,1.235,1.235,0,0,1,.851.292.958.958,0,0,1,.328.749.959.959,0,0,1-.328.749,1.234,1.234,0,0,1-.851.292,1.233,1.233,0,0,1-.851-.292A.958.958,0,0,1-1361.856,2121.282Zm2.256,8.583h-2.13v-6.818h2.13Z" transform="translate(1393.802 -2120.185)"/><path d="M-1356.453,2129.871h-2.13v-9.68h2.13Z" transform="translate(1394.202 -2120.191)"/><path d="M-1353.291,2129.871h-2.13v-9.68h2.13Z" transform="translate(1394.589 -2120.191)"/><path d="M-1352.6,2126.1a4.028,4.028,0,0,1,.4-1.817,2.843,2.843,0,0,1,1.141-1.227,3.433,3.433,0,0,1,1.746-.429,3.129,3.129,0,0,1,2.413.95,3.634,3.634,0,0,1,.882,2.579v.076a3.534,3.534,0,0,1-.886,2.531,3.148,3.148,0,0,1-2.4.936,3.179,3.179,0,0,1-2.338-.874,3.411,3.411,0,0,1-.951-2.366Zm2.124.133a2.537,2.537,0,0,0,.3,1.386.987.987,0,0,0,.875.441q1.135,0,1.161-1.745v-.215q0-1.835-1.172-1.834-1.066,0-1.154,1.581Z" transform="translate(1394.935 -2119.893)"/><path d="M-1379.607,2140.032l1.078-4.291h2.237l-2.224,6.818h-2.168l-2.225-6.818h2.244Z" transform="translate(1391.226 -2118.288)"/><path d="M-1373.2,2142.7a3.509,3.509,0,0,1-2.54-.936,3.236,3.236,0,0,1-.97-2.436v-.177a4.172,4.172,0,0,1,.387-1.846,2.815,2.815,0,0,1,1.131-1.238,3.4,3.4,0,0,1,1.764-.439,2.95,2.95,0,0,1,2.268.892,3.5,3.5,0,0,1,.833,2.486v.826h-4.224a1.544,1.544,0,0,0,.5.9,1.483,1.483,0,0,0,1,.326,1.907,1.907,0,0,0,1.576-.706l.971,1.147a2.723,2.723,0,0,1-1.126.875A3.814,3.814,0,0,1-1373.2,2142.7Zm-.239-5.433q-.934,0-1.11,1.235h2.144v-.164a1.053,1.053,0,0,0-.259-.79A1.025,1.025,0,0,0-1373.439,2137.268Z" transform="translate(1391.984 -2118.302)"/><path d="M-1366.138,2137.676l-.7-.051a1.255,1.255,0,0,0-1.285.632v4.315h-2.125v-6.818h1.992l.068.875a1.645,1.645,0,0,1,1.494-1,2.067,2.067,0,0,1,.593.075Z" transform="translate(1392.775 -2118.302)"/><path d="M-1366.25,2139.412a4.159,4.159,0,0,1,.7-2.552,2.3,2.3,0,0,1,1.954-.933,1.956,1.956,0,0,1,1.538.719v-3.456h2.129v9.68h-1.909l-.108-.729a2.01,2.01,0,0,1-1.663.857,2.3,2.3,0,0,1-1.928-.934A4.3,4.3,0,0,1-1366.25,2139.412Zm2.125.133q0,1.815,1.058,1.815a1.047,1.047,0,0,0,1.009-.593v-2.6a1.019,1.019,0,0,0-1-.6q-.983,0-1.065,1.588Z" transform="translate(1393.264 -2118.6)"/><path d="M-1356.22,2142.7a3.511,3.511,0,0,1-2.54-.936,3.236,3.236,0,0,1-.97-2.436v-.177a4.186,4.186,0,0,1,.387-1.846,2.813,2.813,0,0,1,1.131-1.238,3.406,3.406,0,0,1,1.764-.439,2.951,2.951,0,0,1,2.27.892,3.5,3.5,0,0,1,.832,2.486v.826h-4.222a1.536,1.536,0,0,0,.5.9,1.488,1.488,0,0,0,1,.326,1.906,1.906,0,0,0,1.575-.706l.971,1.147a2.727,2.727,0,0,1-1.125.875A3.819,3.819,0,0,1-1356.22,2142.7Zm-.239-5.433q-.933,0-1.109,1.235h2.142v-.164a1.052,1.052,0,0,0-.258-.79A1.028,1.028,0,0,0-1356.459,2137.268Z" transform="translate(1394.062 -2118.302)"/><path d="M-1382.739,2147.618h-3.026l-1.228,8.2h-1.242l1.229-8.2h-2.987l.145-.977h7.254Z" transform="translate(1390.359 -2116.954)"/><path d="M-1381.381,2155.708a2.477,2.477,0,0,1-2.121-.953,3.181,3.181,0,0,1-.483-2.459l.045-.276a4.084,4.084,0,0,1,1.2-2.458,3.136,3.136,0,0,1,2.221-.933,2.116,2.116,0,0,1,1.9.863,3.107,3.107,0,0,1,.373,2.25l-.1.656h-4.412a2.722,2.722,0,0,0,.214,1.712,1.375,1.375,0,0,0,1.305.626,3.351,3.351,0,0,0,1.125-.183,2.931,2.931,0,0,0,.9-.491l.366.807a3.624,3.624,0,0,1-1.053.6A4.141,4.141,0,0,1-1381.381,2155.708Zm.718-6.1a1.562,1.562,0,0,0-1.131.5,2.873,2.873,0,0,0-.729,1.272l.013.039h3.069l.012-.1a1.816,1.816,0,0,0-.176-1.238A1.137,1.137,0,0,0-1380.663,2149.607Z" transform="translate(1391.087 -2116.711)"/><path d="M-1374.067,2149.852l-.631-.038a1.541,1.541,0,0,0-.856.241,2.031,2.031,0,0,0-.631.685l-.724,4.833h-1.243l1.021-6.818h1.11l-.026.964a2.855,2.855,0,0,1,.832-.8,1.92,1.92,0,0,1,1.027-.287,1.546,1.546,0,0,1,.261.021,1.65,1.65,0,0,1,.205.048Z" transform="translate(1391.808 -2116.711)"/><path d="M-1371.411,2154.736a1.677,1.677,0,0,0,1.043-.384,1.452,1.452,0,0,0,.583-.934h1.122l.012.038a2.326,2.326,0,0,1-.987,1.585,3.094,3.094,0,0,1-1.918.667,2.289,2.289,0,0,1-2.039-.987,3.323,3.323,0,0,1-.451-2.425l.038-.264a4.378,4.378,0,0,1,1.147-2.449,3.139,3.139,0,0,1,2.364-.954,2.231,2.231,0,0,1,1.745.713,1.939,1.939,0,0,1,.46,1.733l-.012.031h-1.135a1.352,1.352,0,0,0-.239-1.074,1.149,1.149,0,0,0-.965-.425,1.7,1.7,0,0,0-1.423.722,3.626,3.626,0,0,0-.694,1.7l-.037.264a3.109,3.109,0,0,0,.144,1.75A1.224,1.224,0,0,0-1371.411,2154.736Z" transform="translate(1392.304 -2116.711)"/><path d="M-1366.881,2155.888h-1.241l1.021-6.818h1.241Zm1.286-8.563h-1.242l.19-1.267h1.241Z" transform="translate(1393.035 -2117.026)"/><path d="M-1361.125,2155.573q-.012-.352-.012-.569a4.036,4.036,0,0,1,.025-.446,3.694,3.694,0,0,1-1.031.818,2.6,2.6,0,0,1-1.245.331,1.944,1.944,0,0,1-1.522-.553,1.739,1.739,0,0,1-.35-1.5,2.088,2.088,0,0,1,1.009-1.543,4.19,4.19,0,0,1,2.237-.535h1.349l.1-.675a1.1,1.1,0,0,0-.218-.961,1.286,1.286,0,0,0-.986-.337,1.718,1.718,0,0,0-1.008.3,1.044,1.044,0,0,0-.492.723l-1.185.013-.007-.037a1.955,1.955,0,0,1,.9-1.378,3.317,3.317,0,0,1,2-.6,2.462,2.462,0,0,1,1.752.6,1.821,1.821,0,0,1,.479,1.693l-.492,3.283a5.366,5.366,0,0,0-.073.715,3.676,3.676,0,0,0,.042.658Zm-1.923-.907a2.442,2.442,0,0,0,1.248-.354,2.105,2.105,0,0,0,.839-.793l.171-1.1h-1.393a2.041,2.041,0,0,0-1.248.384,1.329,1.329,0,0,0-.593.883.816.816,0,0,0,.167.727A1.078,1.078,0,0,0-1363.048,2154.666Z" transform="translate(1393.381 -2116.711)"/><path d="M-1354.908,2149.852l-.631-.038a1.541,1.541,0,0,0-.856.241,2.029,2.029,0,0,0-.631.685l-.724,4.833h-1.242l1.021-6.818h1.11l-.026.964a2.854,2.854,0,0,1,.832-.8,1.922,1.922,0,0,1,1.028-.287,1.541,1.541,0,0,1,.26.021,1.648,1.648,0,0,1,.206.048Z" transform="translate(1394.152 -2116.711)"/><path d="M-1353.635,2155.888h-1.241l1.021-6.818h1.241Zm1.286-8.563h-1.241l.189-1.267h1.241Z" transform="translate(1394.656 -2117.026)"/><path d="M-1351.851,2152.1a4.341,4.341,0,0,1,1.187-2.521,3.229,3.229,0,0,1,2.373-.952,2.372,2.372,0,0,1,2.064.987,3.3,3.3,0,0,1,.483,2.486l-.025.138a4.367,4.367,0,0,1-1.192,2.525,3.248,3.248,0,0,1-2.376.943,2.376,2.376,0,0,1-2.064-.984,3.281,3.281,0,0,1-.476-2.484Zm1.217.138a2.968,2.968,0,0,0,.182,1.809,1.292,1.292,0,0,0,1.26.687,1.788,1.788,0,0,0,1.434-.715,3.632,3.632,0,0,0,.746-1.781l.026-.138a2.969,2.969,0,0,0-.193-1.8,1.289,1.289,0,0,0-1.257-.692,1.779,1.779,0,0,0-1.44.722,3.564,3.564,0,0,0-.734,1.773Z" transform="translate(1395.016 -2116.711)"/></g><g transform="translate(-1384.855 2475.149)"><path d="M-1390.14,2440.011h-3.031l-.53,1.715h-2.363l3.365-9.177h2.08l3.391,9.177h-2.376Zm-2.5-1.707h1.973l-.99-3.183Z" transform="translate(1396.064 -2432.046)" fill="#fff"/><path d="M-1385.091,2439.831h3.107v1.639h-5.792v-1.186l3.025-4h-2.893v-1.639h5.59v1.147Z" transform="translate(1397.078 -2431.789)" fill="#fff"/><path d="M-1377.632,2440.731a2.187,2.187,0,0,1-1.822.864,2.145,2.145,0,0,1-1.7-.652,2.743,2.743,0,0,1-.577-1.876v-4.418h2.125v4.431a.763.763,0,0,0,.851.875,1.109,1.109,0,0,0,1.039-.523v-4.784h2.137v6.82h-1.991Z" transform="translate(1397.818 -2431.789)" fill="#fff"/><path d="M-1372.984,2441.781h-2.13v-9.68h2.13Z" transform="translate(1398.627 -2432.101)" fill="#fff"/><path d="M-1366.4,2438.942l1.078-4.292h2.237l-2.224,6.82h-2.168l-2.225-6.82h2.244Z" transform="translate(1399.289 -2431.789)" fill="#fff"/><path d="M-1363.26,2433.191a.958.958,0,0,1,.328-.749,1.235,1.235,0,0,1,.851-.292,1.235,1.235,0,0,1,.851.292.958.958,0,0,1,.328.749.952.952,0,0,1-.328.747,1.227,1.227,0,0,1-.851.292,1.227,1.227,0,0,1-.851-.292A.953.953,0,0,1-1363.26,2433.191Zm2.256,8.584h-2.13v-6.82h2.13Z" transform="translate(1400.078 -2432.095)" fill="#fff"/><path d="M-1360.324,2438.01a4.019,4.019,0,0,1,.4-1.818,2.833,2.833,0,0,1,1.14-1.226,3.432,3.432,0,0,1,1.746-.429,3.131,3.131,0,0,1,2.413.948,3.64,3.64,0,0,1,.883,2.582v.075a3.535,3.535,0,0,1-.885,2.53,3.141,3.141,0,0,1-2.4.936,3.181,3.181,0,0,1-2.338-.872,3.416,3.416,0,0,1-.952-2.367Zm2.125.132a2.533,2.533,0,0,0,.3,1.386.985.985,0,0,0,.875.441q1.135,0,1.159-1.746v-.213q0-1.835-1.172-1.834-1.066,0-1.154,1.581Z" transform="translate(1400.437 -2431.803)" fill="#fff"/><path d="M-1351.4,2441.781h-2.13v-9.68h2.13Z" transform="translate(1401.268 -2432.101)" fill="#fff"/><path d="M-1347.143,2441.609a3.5,3.5,0,0,1-2.541-.936,3.232,3.232,0,0,1-.97-2.436v-.176a4.2,4.2,0,0,1,.387-1.847,2.833,2.833,0,0,1,1.131-1.238,3.419,3.419,0,0,1,1.764-.438,2.954,2.954,0,0,1,2.269.891,3.508,3.508,0,0,1,.832,2.487v.825h-4.222a1.527,1.527,0,0,0,.5.9,1.483,1.483,0,0,0,1,.328,1.905,1.905,0,0,0,1.575-.706l.972,1.147a2.729,2.729,0,0,1-1.126.873A3.8,3.8,0,0,1-1347.143,2441.609Zm-.24-5.432q-.933,0-1.109,1.236h2.143v-.165a1.051,1.051,0,0,0-.258-.79A1.027,1.027,0,0,0-1347.383,2436.177Z" transform="translate(1401.62 -2431.803)" fill="#fff"/><path d="M-1341.675,2433.14v1.695h1.122v1.475h-1.122v3.119a.793.793,0,0,0,.139.536.74.74,0,0,0,.548.151,3.07,3.07,0,0,0,.53-.037v1.519a3.912,3.912,0,0,1-1.2.183,2.221,2.221,0,0,1-1.62-.516,2.121,2.121,0,0,1-.524-1.57v-3.384h-.869v-1.475h.869v-1.695Z" transform="translate(1402.353 -2431.974)" fill="#fff"/><path d="M-1336.382,2441.483a2.346,2.346,0,0,1-.2-.612,1.975,1.975,0,0,1-1.639.737,2.415,2.415,0,0,1-1.639-.583,1.855,1.855,0,0,1-.674-1.465,1.906,1.906,0,0,1,.819-1.676,4.175,4.175,0,0,1,2.383-.568h.656v-.361q0-.943-.814-.943a.665.665,0,0,0-.757.748h-2.123a1.9,1.9,0,0,1,.842-1.605,3.53,3.53,0,0,1,2.146-.617,3.107,3.107,0,0,1,2.061.635,2.213,2.213,0,0,1,.774,1.746v3.019a3.088,3.088,0,0,0,.291,1.437v.108Zm-1.33-1.387a1.194,1.194,0,0,0,.658-.169,1.074,1.074,0,0,0,.376-.385v-1.091h-.619q-1.109,0-1.109,1a.606.606,0,0,0,.2.469A.7.7,0,0,0-1337.712,2440.1Z" transform="translate(1402.858 -2431.803)" fill="#fff"/><path d="M-1379.739,2446.526h-3.026l-1.228,8.2h-1.243l1.229-8.2h-2.987l.145-.976h7.254Z" transform="translate(1397.174 -2430.456)" fill="#fff"/><path d="M-1378.381,2454.615a2.474,2.474,0,0,1-2.121-.952,3.178,3.178,0,0,1-.483-2.458l.045-.277a4.087,4.087,0,0,1,1.2-2.458,3.132,3.132,0,0,1,2.221-.932,2.116,2.116,0,0,1,1.9.863,3.108,3.108,0,0,1,.373,2.25l-.1.656h-4.412a2.714,2.714,0,0,0,.215,1.71,1.373,1.373,0,0,0,1.305.627,3.351,3.351,0,0,0,1.125-.183,2.912,2.912,0,0,0,.9-.491l.366.807a3.61,3.61,0,0,1-1.053.6A4.168,4.168,0,0,1-1378.381,2454.615Zm.718-6.1a1.573,1.573,0,0,0-1.131.5,2.882,2.882,0,0,0-.728,1.273l.013.038h3.068l.012-.1a1.82,1.82,0,0,0-.176-1.239A1.139,1.139,0,0,0-1377.663,2448.514Z" transform="translate(1397.902 -2430.212)" fill="#fff"/><path d="M-1371.067,2448.76l-.631-.037a1.532,1.532,0,0,0-.856.242,2.015,2.015,0,0,0-.631.684l-.724,4.834h-1.243l1.021-6.82h1.11l-.026.964a2.872,2.872,0,0,1,.832-.8,1.925,1.925,0,0,1,1.027-.286,1.43,1.43,0,0,1,.261.022,1.258,1.258,0,0,1,.205.047Z" transform="translate(1398.623 -2430.212)" fill="#fff"/><path d="M-1368.411,2453.645a1.676,1.676,0,0,0,1.043-.384,1.453,1.453,0,0,0,.583-.933h1.122l.012.037a2.327,2.327,0,0,1-.987,1.584,3.093,3.093,0,0,1-1.918.666,2.29,2.29,0,0,1-2.039-.986,3.32,3.32,0,0,1-.451-2.423l.038-.265a4.375,4.375,0,0,1,1.147-2.448,3.136,3.136,0,0,1,2.364-.955,2.233,2.233,0,0,1,1.745.712,1.941,1.941,0,0,1,.46,1.734l-.012.03h-1.135a1.353,1.353,0,0,0-.239-1.074,1.152,1.152,0,0,0-.965-.426,1.705,1.705,0,0,0-1.423.722,3.637,3.637,0,0,0-.694,1.7l-.037.265a3.105,3.105,0,0,0,.144,1.749A1.224,1.224,0,0,0-1368.411,2453.645Z" transform="translate(1399.119 -2430.212)" fill="#fff"/><path d="M-1363.881,2454.8h-1.241l1.021-6.82h1.241Zm1.286-8.565h-1.243l.19-1.267h1.241Z" transform="translate(1399.85 -2430.527)" fill="#fff"/><path d="M-1358.125,2454.483c-.008-.235-.012-.426-.012-.57a4.036,4.036,0,0,1,.025-.446,3.653,3.653,0,0,1-1.03.817,2.582,2.582,0,0,1-1.245.331,1.946,1.946,0,0,1-1.522-.551,1.741,1.741,0,0,1-.35-1.5,2.085,2.085,0,0,1,1.009-1.544,4.188,4.188,0,0,1,2.237-.535h1.349l.1-.676a1.1,1.1,0,0,0-.218-.959,1.286,1.286,0,0,0-.987-.338,1.717,1.717,0,0,0-1.008.3,1.045,1.045,0,0,0-.492.724l-1.185.013-.007-.038a1.958,1.958,0,0,1,.9-1.377,3.317,3.317,0,0,1,2-.6,2.466,2.466,0,0,1,1.752.595,1.821,1.821,0,0,1,.479,1.692l-.492,3.284a5.346,5.346,0,0,0-.073.715,3.7,3.7,0,0,0,.042.659Zm-1.923-.908a2.438,2.438,0,0,0,1.248-.353,2.109,2.109,0,0,0,.839-.793l.17-1.1h-1.393a2.043,2.043,0,0,0-1.248.385,1.329,1.329,0,0,0-.593.882.813.813,0,0,0,.167.727A1.073,1.073,0,0,0-1360.048,2453.575Z" transform="translate(1400.196 -2430.212)" fill="#fff"/><path d="M-1351.908,2448.76l-.631-.037a1.532,1.532,0,0,0-.856.242,2.012,2.012,0,0,0-.631.684l-.724,4.834h-1.242l1.021-6.82h1.11l-.026.964a2.87,2.87,0,0,1,.832-.8,1.928,1.928,0,0,1,1.028-.286,1.425,1.425,0,0,1,.26.022,1.261,1.261,0,0,1,.205.047Z" transform="translate(1400.967 -2430.212)" fill="#fff"/><path d="M-1350.635,2454.8h-1.241l1.021-6.82h1.241Zm1.286-8.565h-1.241l.189-1.267h1.241Z" transform="translate(1401.471 -2430.527)" fill="#fff"/><path d="M-1348.851,2451.011a4.337,4.337,0,0,1,1.187-2.521,3.224,3.224,0,0,1,2.373-.952,2.372,2.372,0,0,1,2.064.986,3.3,3.3,0,0,1,.483,2.486l-.025.138a4.358,4.358,0,0,1-1.192,2.524,3.244,3.244,0,0,1-2.376.943,2.374,2.374,0,0,1-2.064-.983,3.28,3.28,0,0,1-.476-2.484Zm1.217.138a2.967,2.967,0,0,0,.182,1.809,1.292,1.292,0,0,0,1.26.687,1.784,1.784,0,0,0,1.434-.715,3.633,3.633,0,0,0,.746-1.781l.026-.138a2.975,2.975,0,0,0-.193-1.8,1.291,1.291,0,0,0-1.257-.692,1.783,1.783,0,0,0-1.44.722,3.574,3.574,0,0,0-.734,1.775Z" transform="translate(1401.831 -2430.212)" fill="#fff"/></g><g transform="translate(-1188.926 2475.149)"><path d="M-1218.086,2438.48h-1.2v3.246h-2.212v-9.177h3.611a4.033,4.033,0,0,1,2.553.724,2.454,2.454,0,0,1,.919,2.047,2.98,2.98,0,0,1-.387,1.586,2.763,2.763,0,0,1-1.213,1.02l1.916,3.705v.094h-2.369Zm-1.2-1.7h1.4a1.25,1.25,0,0,0,.948-.331,1.281,1.281,0,0,0,.319-.926,1.3,1.3,0,0,0-.321-.932,1.248,1.248,0,0,0-.946-.338h-1.4Z" transform="translate(1221.495 -2432.046)" fill="#fff"/><path d="M-1214.319,2438.01a4.019,4.019,0,0,1,.4-1.818,2.833,2.833,0,0,1,1.14-1.226,3.432,3.432,0,0,1,1.746-.429,3.132,3.132,0,0,1,2.413.948,3.64,3.64,0,0,1,.882,2.582v.075a3.53,3.53,0,0,1-.885,2.53,3.137,3.137,0,0,1-2.4.936,3.179,3.179,0,0,1-2.338-.872,3.416,3.416,0,0,1-.952-2.367Zm2.125.132a2.544,2.544,0,0,0,.3,1.386.986.986,0,0,0,.877.441q1.135,0,1.159-1.746v-.213q0-1.835-1.172-1.834-1.066,0-1.154,1.581Z" transform="translate(1222.373 -2431.803)" fill="#fff"/><path d="M-1205.193,2434.956v7.053a2.478,2.478,0,0,1-.693,1.865,2.664,2.664,0,0,1-1.916.656,4.573,4.573,0,0,1-1-.108v-1.607a4.042,4.042,0,0,0,.6.057.777.777,0,0,0,.882-.876v-7.04Zm-2.287-1.764a.958.958,0,0,1,.328-.749,1.233,1.233,0,0,1,.851-.292,1.236,1.236,0,0,1,.851.292.962.962,0,0,1,.328.749.956.956,0,0,1-.328.747,1.228,1.228,0,0,1-.851.292,1.225,1.225,0,0,1-.851-.292A.953.953,0,0,1-1207.48,2433.191Z" transform="translate(1223.048 -2432.095)" fill="#fff"/><path d="M-1204.756,2438.01a4.035,4.035,0,0,1,.4-1.818,2.835,2.835,0,0,1,1.141-1.226,3.431,3.431,0,0,1,1.745-.429,3.133,3.133,0,0,1,2.414.948,3.639,3.639,0,0,1,.882,2.582v.075a3.529,3.529,0,0,1-.885,2.53,3.139,3.139,0,0,1-2.4.936,3.181,3.181,0,0,1-2.338-.872,3.416,3.416,0,0,1-.951-2.367Zm2.124.132a2.533,2.533,0,0,0,.3,1.386.986.986,0,0,0,.875.441q1.135,0,1.159-1.746v-.213q0-1.835-1.172-1.834-1.064,0-1.153,1.581Z" transform="translate(1223.543 -2431.803)" fill="#fff"/><path d="M-1192.413,2438.942l1.077-4.292h2.237l-2.225,6.82h-2.168l-2.224-6.82h2.244Z" transform="translate(1224.649 -2431.789)" fill="#fff"/><path d="M-1189.27,2433.191a.962.962,0,0,1,.328-.749,1.237,1.237,0,0,1,.851-.292,1.237,1.237,0,0,1,.852.292.961.961,0,0,1,.328.749.956.956,0,0,1-.328.747,1.229,1.229,0,0,1-.852.292,1.229,1.229,0,0,1-.851-.292A.956.956,0,0,1-1189.27,2433.191Zm2.257,8.584h-2.13v-6.82h2.13Z" transform="translate(1225.438 -2432.095)" fill="#fff"/><path d="M-1186.333,2438.01a4.034,4.034,0,0,1,.4-1.818,2.835,2.835,0,0,1,1.141-1.226,3.429,3.429,0,0,1,1.745-.429,3.135,3.135,0,0,1,2.414.948,3.64,3.64,0,0,1,.882,2.582v.075a3.53,3.53,0,0,1-.886,2.53,3.141,3.141,0,0,1-2.4.936,3.181,3.181,0,0,1-2.338-.872,3.416,3.416,0,0,1-.952-2.367Zm2.125.132a2.535,2.535,0,0,0,.3,1.386.986.986,0,0,0,.875.441q1.135,0,1.159-1.746v-.213q0-1.835-1.172-1.834-1.066,0-1.154,1.581Z" transform="translate(1225.797 -2431.803)" fill="#fff"/><path d="M-1177.408,2441.781h-2.13v-9.68h2.13Z" transform="translate(1226.629 -2432.101)" fill="#fff"/><path d="M-1173.152,2441.609a3.5,3.5,0,0,1-2.54-.936,3.229,3.229,0,0,1-.971-2.436v-.176a4.182,4.182,0,0,1,.388-1.847,2.837,2.837,0,0,1,1.13-1.238,3.42,3.42,0,0,1,1.766-.438,2.954,2.954,0,0,1,2.268.891,3.509,3.509,0,0,1,.832,2.487v.825h-4.222a1.533,1.533,0,0,0,.5.9,1.477,1.477,0,0,0,1,.328,1.908,1.908,0,0,0,1.576-.706l.971,1.147a2.729,2.729,0,0,1-1.126.873A3.8,3.8,0,0,1-1173.152,2441.609Zm-.24-5.432q-.933,0-1.109,1.236h2.143v-.165a1.047,1.047,0,0,0-.258-.79A1.027,1.027,0,0,0-1173.392,2436.177Z" transform="translate(1226.981 -2431.803)" fill="#fff"/><path d="M-1167.684,2433.14v1.695h1.122v1.475h-1.122v3.119a.793.793,0,0,0,.139.536.74.74,0,0,0,.548.151,3.067,3.067,0,0,0,.53-.037v1.519a3.911,3.911,0,0,1-1.2.183,2.223,2.223,0,0,1-1.62-.516,2.121,2.121,0,0,1-.523-1.57v-3.384h-.87v-1.475h.87v-1.695Z" transform="translate(1227.713 -2431.974)" fill="#fff"/><path d="M-1162.391,2441.483a2.35,2.35,0,0,1-.2-.612,1.975,1.975,0,0,1-1.639.737,2.416,2.416,0,0,1-1.639-.583,1.854,1.854,0,0,1-.673-1.465,1.9,1.9,0,0,1,.818-1.676,4.174,4.174,0,0,1,2.383-.568h.655v-.361q0-.943-.814-.943a.664.664,0,0,0-.755.748h-2.125a1.9,1.9,0,0,1,.842-1.605,3.532,3.532,0,0,1,2.146-.617,3.105,3.105,0,0,1,2.061.635,2.217,2.217,0,0,1,.776,1.746v3.019a3.077,3.077,0,0,0,.289,1.437v.108Zm-1.33-1.387a1.2,1.2,0,0,0,.659-.169,1.07,1.07,0,0,0,.375-.385v-1.091h-.618q-1.108,0-1.109,1a.606.606,0,0,0,.2.469A.705.705,0,0,0-1163.721,2440.1Z" transform="translate(1228.219 -2431.803)" fill="#fff"/><path d="M-1205.776,2446.526h-3.026l-1.228,8.2h-1.242l1.229-8.2h-2.987l.145-.976h7.254Z" transform="translate(1222.531 -2430.456)" fill="#fff"/><path d="M-1204.418,2454.615a2.474,2.474,0,0,1-2.121-.952,3.174,3.174,0,0,1-.483-2.458l.045-.277a4.084,4.084,0,0,1,1.2-2.458,3.131,3.131,0,0,1,2.221-.932,2.116,2.116,0,0,1,1.9.863,3.108,3.108,0,0,1,.373,2.25l-.1.656h-4.412a2.706,2.706,0,0,0,.214,1.71,1.372,1.372,0,0,0,1.3.627,3.353,3.353,0,0,0,1.126-.183,2.91,2.91,0,0,0,.9-.491l.366.807a3.607,3.607,0,0,1-1.053.6A4.169,4.169,0,0,1-1204.418,2454.615Zm.718-6.1a1.572,1.572,0,0,0-1.131.5,2.883,2.883,0,0,0-.728,1.273l.013.038h3.069l.012-.1a1.819,1.819,0,0,0-.176-1.239A1.139,1.139,0,0,0-1203.7,2448.514Z" transform="translate(1223.259 -2430.212)" fill="#fff"/><path d="M-1197.1,2448.76l-.631-.037a1.539,1.539,0,0,0-.858.242,2.023,2.023,0,0,0-.63.684l-.725,4.834h-1.241l1.021-6.82h1.109l-.025.964a2.872,2.872,0,0,1,.832-.8,1.925,1.925,0,0,1,1.027-.286,1.439,1.439,0,0,1,.262.022,1.259,1.259,0,0,1,.205.047Z" transform="translate(1223.98 -2430.212)" fill="#fff"/><path d="M-1194.448,2453.645a1.676,1.676,0,0,0,1.043-.384,1.453,1.453,0,0,0,.583-.933h1.122l.012.037a2.327,2.327,0,0,1-.987,1.584,3.094,3.094,0,0,1-1.919.666,2.288,2.288,0,0,1-2.038-.986,3.319,3.319,0,0,1-.451-2.423l.038-.265a4.369,4.369,0,0,1,1.147-2.448,3.136,3.136,0,0,1,2.364-.955,2.233,2.233,0,0,1,1.745.712,1.945,1.945,0,0,1,.46,1.734l-.012.03h-1.135a1.354,1.354,0,0,0-.239-1.074,1.153,1.153,0,0,0-.965-.426,1.705,1.705,0,0,0-1.423.722,3.636,3.636,0,0,0-.694,1.7l-.038.265a3.115,3.115,0,0,0,.145,1.749A1.224,1.224,0,0,0-1194.448,2453.645Z" transform="translate(1224.476 -2430.212)" fill="#fff"/><path d="M-1189.918,2454.8h-1.241l1.021-6.82h1.241Zm1.286-8.565h-1.243l.19-1.267h1.241Z" transform="translate(1225.207 -2430.527)" fill="#fff"/><path d="M-1184.163,2454.483c-.009-.235-.012-.426-.012-.57a4.037,4.037,0,0,1,.025-.446,3.667,3.667,0,0,1-1.03.817,2.582,2.582,0,0,1-1.245.331,1.946,1.946,0,0,1-1.522-.551,1.741,1.741,0,0,1-.35-1.5,2.084,2.084,0,0,1,1.009-1.544,4.187,4.187,0,0,1,2.237-.535h1.349l.1-.676a1.107,1.107,0,0,0-.218-.959,1.29,1.29,0,0,0-.986-.338,1.717,1.717,0,0,0-1.008.3,1.044,1.044,0,0,0-.492.724l-1.185.013-.007-.038a1.958,1.958,0,0,1,.9-1.377,3.318,3.318,0,0,1,2-.6,2.466,2.466,0,0,1,1.752.595,1.821,1.821,0,0,1,.479,1.692l-.492,3.284a5.326,5.326,0,0,0-.073.715,3.709,3.709,0,0,0,.04.659Zm-1.923-.908a2.439,2.439,0,0,0,1.248-.353,2.109,2.109,0,0,0,.839-.793l.171-1.1h-1.394a2.041,2.041,0,0,0-1.247.385,1.328,1.328,0,0,0-.593.882.813.813,0,0,0,.167.727A1.073,1.073,0,0,0-1186.085,2453.575Z" transform="translate(1225.553 -2430.212)" fill="#fff"/><path d="M-1177.945,2448.76l-.631-.037a1.532,1.532,0,0,0-.856.242,2.011,2.011,0,0,0-.631.684l-.724,4.834h-1.243l1.021-6.82h1.11l-.026.964a2.869,2.869,0,0,1,.832-.8,1.924,1.924,0,0,1,1.027-.286,1.427,1.427,0,0,1,.261.022,1.258,1.258,0,0,1,.205.047Z" transform="translate(1226.324 -2430.212)" fill="#fff"/><path d="M-1176.672,2454.8h-1.241l1.021-6.82h1.241Zm1.286-8.565h-1.242l.19-1.267h1.241Z" transform="translate(1226.828 -2430.527)" fill="#fff"/><path d="M-1174.888,2451.011a4.338,4.338,0,0,1,1.188-2.521,3.224,3.224,0,0,1,2.373-.952,2.372,2.372,0,0,1,2.064.986,3.3,3.3,0,0,1,.482,2.486l-.026.138a4.35,4.35,0,0,1-1.191,2.524,3.244,3.244,0,0,1-2.376.943,2.374,2.374,0,0,1-2.064-.983,3.275,3.275,0,0,1-.476-2.484Zm1.217.138a2.969,2.969,0,0,0,.182,1.809,1.292,1.292,0,0,0,1.26.687,1.784,1.784,0,0,0,1.434-.715,3.635,3.635,0,0,0,.747-1.781l.025-.138a2.967,2.967,0,0,0-.192-1.8,1.291,1.291,0,0,0-1.257-.692,1.782,1.782,0,0,0-1.44.722,3.571,3.571,0,0,0-.734,1.775Z" transform="translate(1227.188 -2430.212)" fill="#fff"/></g><circle cx="4.326" cy="4.326" r="4.326" transform="translate(-1255.863 2312.089)" fill="#1d1d1b"/></g></g></svg>