<svg xmlns="http://www.w3.org/2000/svg" xmlns:xlink="http://www.w3.org/1999/xlink" width="726" height="631" viewBox="0 0 726 631"><defs><filter id="a" x="0" y="0" width="726" height="631" filterUnits="userSpaceOnUse"><feOffset dy="3" input="SourceAlpha"/><feGaussianBlur stdDeviation="3" result="b"/><feFlood flood-opacity="0.161"/><feComposite operator="in" in2="b"/><feComposite in="SourceGraphic"/></filter><filter id="c" x="180.479" y="122.007" width="114.84" height="81.3" filterUnits="userSpaceOnUse"><feOffset input="SourceAlpha"/><feGaussianBlur stdDeviation="4" result="d"/><feFlood flood-opacity="0.702"/><feComposite operator="in" in2="d"/><feComposite in="SourceGraphic"/></filter><filter id="e" x="255.67" y="379.28" width="117.903" height="111.354" filterUnits="userSpaceOnUse"><feOffset input="SourceAlpha"/><feGaussianBlur stdDeviation="4" result="f"/><feFlood flood-opacity="0.702"/><feComposite operator="in" in2="f"/><feComposite in="SourceGraphic"/></filter><filter id="g" x="101.749" y="379.817" width="118.379" height="111.096" filterUnits="userSpaceOnUse"><feOffset input="SourceAlpha"/><feGaussianBlur stdDeviation="4" result="h"/><feFlood flood-opacity="0.702"/><feComposite operator="in" in2="h"/><feComposite in="SourceGraphic"/></filter></defs><g transform="translate(-691 -5106)"><g transform="matrix(1, 0, 0, 1, 691, 5106)" filter="url(#a)"><rect width="708" height="613" rx="14" transform="translate(9 6)" fill="#fff"/></g><path d="M-686.452,997.354l38.165-38.165a174.479,174.479,0,0,0-78.4-45.588l-13.7,51.144A118.726,118.726,0,0,1-686.452,997.354Z" transform="translate(1701.008 4332.562)" fill="#f47140"/><path d="M-646.164,1061.223l53.75-14.4a176.009,176.009,0,0,0-17.572-42.575,176.023,176.023,0,0,0-27.535-35.957l-38.165,38.165A118.516,118.516,0,0,1-646.164,1061.223Z" transform="translate(1690.242 4323.463)" fill="#fbac3a"/><path d="M-586.909,1062.494l-53.75,14.4a119.117,119.117,0,0,1,3.075,26.96,118.769,118.769,0,0,1-5.014,34.225l55.637,14.908A174.5,174.5,0,0,0-586.909,1062.494Z" transform="translate(1684.737 4307.79)" fill="#f7cd5a"/><path d="M-648.878,1153.168a118.744,118.744,0,0,1-31.463,51.409l41.9,41.9a174.486,174.486,0,0,0,45.2-78.4Z" transform="translate(1691.017 4292.703)" fill="#f9f158"/><path d="M-788,1253.805a118.98,118.98,0,0,1-29.258-3.635l-15.577,58.135a174.487,174.487,0,0,0,90.693-.28l-15.574-58.121A118.972,118.972,0,0,1-788,1253.805Z" transform="translate(1716.389 4276.608)" fill="#81c163"/><path d="M-926.516,1153.495l-55.623,14.9a176.021,176.021,0,0,0,17.426,42.026,175.975,175.975,0,0,0,28.232,36.651l41.907-41.907A118.766,118.766,0,0,1-926.516,1153.495Z" transform="translate(1741.229 4292.649)" fill="#5c77bd"/><path d="M-932.827,1103.8a119.113,119.113,0,0,1,3.142-27.237l-53.764-14.406a174.478,174.478,0,0,0,.094,91.044l55.623-14.9A118.736,118.736,0,0,1-932.827,1103.8Z" transform="translate(1742.445 4307.845)" fill="#644ca5"/><path d="M-898.5,1005.783l-38.153-38.153a174.487,174.487,0,0,0-45.6,78.8l53.764,14.406A118.534,118.534,0,0,1-898.5,1005.783Z" transform="translate(1741.248 4323.573)" fill="#9653aa"/><path d="M-834.966,964.414l-13.7-51.134a176.023,176.023,0,0,0-42.776,17.625,176.047,176.047,0,0,0-36.1,27.682l38.153,38.153A118.672,118.672,0,0,1-834.966,964.414Z" transform="translate(1732.146 4332.615)" fill="#ca295d"/><rect width="48.552" height="48.552" transform="translate(1145.308 5445.871)" fill="#fe786e"/><rect width="48.552" height="48.552" transform="translate(1193.86 5445.871)" fill="#e0ec59"/><rect width="48.552" height="48.552" transform="translate(1242.412 5445.871)" fill="#37acdf"/><rect width="48.552" height="48.552" transform="translate(1290.964 5445.871)" fill="#316e88"/><g transform="matrix(1, 0, 0, 1, 691, 5106)" filter="url(#c)"><path d="M-788.018,959.088a118.876,118.876,0,0,1,32.229,4.428l13.7-51.144c-.183-.05-.361-.112-.545-.161a174.5,174.5,0,0,0-90.295-.107l13.7,51.134A118.858,118.858,0,0,1-788.018,959.088Z" transform="translate(1025.4 -772.21)" fill="#ec4c40"/></g><g transform="matrix(1, 0, 0, 1, 691, 5106)" filter="url(#e)"><path d="M-690.721,1214.837a118.592,118.592,0,0,1-52.005,29.233l15.574,58.121a176.044,176.044,0,0,0,41.824-17.372,175.989,175.989,0,0,0,36.5-28.085Z" transform="translate(1010.4 -823.56)" fill="#d7e458"/></g><g transform="matrix(1, 0, 0, 1, 691, 5106)" filter="url(#g)"><path d="M-885.461,1215.482l-41.907,41.907a174.488,174.488,0,0,0,78.25,45.056c.184.049.368.085.553.133l15.577-58.135A118.554,118.554,0,0,1-885.461,1215.482Z" transform="translate(1041.12 -823.66)" fill="#37a7d9"/></g><g transform="translate(866.267 5287.091)"><path d="M-790.7,969.64l-58.364,222.222s115.866.865,116.731,0S-790.7,969.64-790.7,969.64Z" transform="translate(852.822 -963.853)" fill="none" stroke="#1d1d1b" stroke-miterlimit="10" stroke-width="2"/><circle cx="4.66" cy="4.66" r="4.66" transform="translate(57.465)" fill="#1d1d1b" stroke="#fff" stroke-miterlimit="10" stroke-width="2"/><circle cx="4.66" cy="4.66" r="4.66" transform="translate(114.355 224.49)" fill="#1d1d1b" stroke="#fff" stroke-miterlimit="10" stroke-width="2"/><circle cx="4.66" cy="4.66" r="4.66" transform="translate(0 224.49)" fill="#1d1d1b" stroke="#fff" stroke-miterlimit="10" stroke-width="2"/></g><path d="M71.734,14.721H65.768V21H63.893V6.781H72.7V8.314H65.768v4.873h5.967Zm2.451.9a6.241,6.241,0,0,1,.61-2.793,4.553,4.553,0,0,1,1.7-1.914,4.626,4.626,0,0,1,2.485-.674,4.456,4.456,0,0,1,3.491,1.494A5.748,5.748,0,0,1,83.8,15.707v.127a6.3,6.3,0,0,1-.591,2.769,4.486,4.486,0,0,1-1.689,1.909A4.679,4.679,0,0,1,79,21.2,4.445,4.445,0,0,1,75.519,19.7a5.719,5.719,0,0,1-1.333-3.955ZM76,15.834a4.52,4.52,0,0,0,.815,2.822,2.763,2.763,0,0,0,4.37-.015A4.943,4.943,0,0,0,82,15.619a4.513,4.513,0,0,0-.825-2.817,2.623,2.623,0,0,0-2.192-1.079,2.594,2.594,0,0,0-2.158,1.064A4.906,4.906,0,0,0,76,15.834ZM79.8,6h2.188L79.371,8.871l-1.455,0Zm11.377,6.055a5.414,5.414,0,0,0-.889-.068A2.381,2.381,0,0,0,87.877,13.5V21H86.07V10.434h1.758l.029,1.221a2.813,2.813,0,0,1,2.52-1.416,1.846,1.846,0,0,1,.8.137Zm3.359-1.621.049,1.172a3.9,3.9,0,0,1,3.135-1.367,3.021,3.021,0,0,1,3.018,1.7,4,4,0,0,1,1.372-1.23,4.052,4.052,0,0,1,2-.469q3.477,0,3.535,3.682V21h-1.807V14.027a2.426,2.426,0,0,0-.518-1.694,2.279,2.279,0,0,0-1.738-.562,2.4,2.4,0,0,0-1.67.6,2.436,2.436,0,0,0-.771,1.616V21H99.322V14.076a2.016,2.016,0,0,0-2.256-2.3,2.417,2.417,0,0,0-2.432,1.514V21H92.828V10.434Zm22.354,9.521a3.837,3.837,0,0,1-3.1,1.24,3.285,3.285,0,0,1-2.573-.981,4.248,4.248,0,0,1-.894-2.905V10.434h1.807V17.26q0,2.4,1.953,2.4a2.7,2.7,0,0,0,2.754-1.543V10.434h1.807V21H116.93ZM123.355,21h-1.807V6h1.807Zm9.414,0a3.8,3.8,0,0,1-.254-1.113,4.031,4.031,0,0,1-3.008,1.309,3.73,3.73,0,0,1-2.563-.884,2.859,2.859,0,0,1-1-2.241,2.987,2.987,0,0,1,1.255-2.563,5.916,5.916,0,0,1,3.53-.913h1.758v-.83a2.029,2.029,0,0,0-.566-1.509,2.276,2.276,0,0,0-1.67-.562,2.634,2.634,0,0,0-1.621.488,1.439,1.439,0,0,0-.654,1.182h-1.816a2.493,2.493,0,0,1,.562-1.528,3.832,3.832,0,0,1,1.523-1.167,5.125,5.125,0,0,1,2.114-.43,4.177,4.177,0,0,1,2.861.913,3.294,3.294,0,0,1,1.074,2.515v4.863a5.946,5.946,0,0,0,.371,2.314V21Zm-3-1.377a3.175,3.175,0,0,0,1.611-.439,2.658,2.658,0,0,0,1.1-1.143V15.873H131.07q-3.32,0-3.32,1.943a1.645,1.645,0,0,0,.566,1.328A2.177,2.177,0,0,0,129.771,19.623ZM31.393,40.264A5.031,5.031,0,0,1,29.7,43.877,5.951,5.951,0,0,1,25.67,45.2a5.351,5.351,0,0,1-4.3-1.841A7.548,7.548,0,0,1,19.8,38.3v-.869a8.523,8.523,0,0,1,.723-3.613,5.416,5.416,0,0,1,2.065-2.4,5.786,5.786,0,0,1,3.12-.835A5.8,5.8,0,0,1,29.674,31.9a5.407,5.407,0,0,1,1.738,3.7h-2.93a2.97,2.97,0,0,0-.767-2,2.839,2.839,0,0,0-2.007-.62,2.489,2.489,0,0,0-2.192,1.05,5.883,5.883,0,0,0-.747,3.257v1.074a6.3,6.3,0,0,0,.7,3.369,2.443,2.443,0,0,0,2.2,1.064,2.892,2.892,0,0,0,2.026-.62,2.8,2.8,0,0,0,.767-1.919Zm1.3-.645a6.267,6.267,0,0,1,.605-2.8,4.432,4.432,0,0,1,1.743-1.9,5.086,5.086,0,0,1,2.642-.674,4.812,4.812,0,0,1,3.491,1.309A5.252,5.252,0,0,1,42.682,39.1l.02.723a5.523,5.523,0,0,1-1.357,3.9A4.718,4.718,0,0,1,37.7,45.2a4.742,4.742,0,0,1-3.647-1.465,5.62,5.62,0,0,1-1.362-3.984Zm2.822.2a3.95,3.95,0,0,0,.566,2.3,2.035,2.035,0,0,0,3.223.01,4.322,4.322,0,0,0,.576-2.518,3.91,3.91,0,0,0-.576-2.289,1.873,1.873,0,0,0-1.621-.812,1.842,1.842,0,0,0-1.6.807A4.395,4.395,0,0,0,35.514,39.819Zm11.572-5.386.088,1.182a3.713,3.713,0,0,1,3.037-1.377,2.818,2.818,0,0,1,2.8,1.611,3.628,3.628,0,0,1,3.174-1.611,3.152,3.152,0,0,1,2.559,1,4.6,4.6,0,0,1,.84,3.013V45H56.754V38.262a2.012,2.012,0,0,0-.352-1.313,1.558,1.558,0,0,0-1.24-.415A1.761,1.761,0,0,0,53.4,37.744L53.414,45H50.592V38.271a1.988,1.988,0,0,0-.361-1.328,1.573,1.573,0,0,0-1.23-.41,1.829,1.829,0,0,0-1.738,1V45H44.439V34.434Zm24.18,5.381a6.337,6.337,0,0,1-1.108,3.911,3.554,3.554,0,0,1-2.993,1.47,3.292,3.292,0,0,1-2.588-1.113v4.98H61.754V34.434h2.617l.1,1.035a3.317,3.317,0,0,1,2.676-1.23,3.578,3.578,0,0,1,3.037,1.445,6.509,6.509,0,0,1,1.084,3.984Zm-2.822-.205a4.159,4.159,0,0,0-.522-2.275,1.7,1.7,0,0,0-1.519-.8,1.848,1.848,0,0,0-1.826,1.016v4.326a1.879,1.879,0,0,0,1.846,1.045Q68.443,42.92,68.443,39.609ZM75.992,45H73.16V30h2.832Zm7.188.2A5.187,5.187,0,0,1,79.4,43.77a5.068,5.068,0,0,1-1.46-3.8V39.7a6.383,6.383,0,0,1,.615-2.847,4.515,4.515,0,0,1,1.743-1.934,4.893,4.893,0,0,1,2.573-.679,4.385,4.385,0,0,1,3.413,1.367,5.555,5.555,0,0,1,1.245,3.877v1.152H80.8a2.622,2.622,0,0,0,.825,1.66,2.494,2.494,0,0,0,1.743.625,3.046,3.046,0,0,0,2.549-1.182L87.3,43.291a4.237,4.237,0,0,1-1.719,1.4A5.639,5.639,0,0,1,83.18,45.2Zm-.322-8.682a1.764,1.764,0,0,0-1.362.569,2.946,2.946,0,0,0-.669,1.628h3.926v-.226a2.1,2.1,0,0,0-.508-1.457A1.819,1.819,0,0,0,82.857,36.514Zm8.916-2.08.088,1.182A3.713,3.713,0,0,1,94.9,34.238a2.818,2.818,0,0,1,2.8,1.611,3.628,3.628,0,0,1,3.174-1.611,3.152,3.152,0,0,1,2.559,1,4.6,4.6,0,0,1,.84,3.013V45h-2.832V38.262a2.012,2.012,0,0,0-.352-1.313,1.558,1.558,0,0,0-1.24-.415,1.761,1.761,0,0,0-1.758,1.211L98.1,45H95.279V38.271a1.988,1.988,0,0,0-.361-1.328,1.573,1.573,0,0,0-1.23-.41,1.829,1.829,0,0,0-1.738,1V45H89.127V34.434ZM111.3,45.2a5.187,5.187,0,0,1-3.784-1.426,5.068,5.068,0,0,1-1.46-3.8V39.7a6.383,6.383,0,0,1,.615-2.847,4.515,4.515,0,0,1,1.743-1.934,4.893,4.893,0,0,1,2.573-.679,4.385,4.385,0,0,1,3.413,1.367,5.555,5.555,0,0,1,1.245,3.877v1.152h-6.729a2.622,2.622,0,0,0,.825,1.66,2.494,2.494,0,0,0,1.743.625,3.046,3.046,0,0,0,2.549-1.182l1.387,1.553a4.237,4.237,0,0,1-1.719,1.4A5.639,5.639,0,0,1,111.3,45.2Zm-.322-8.682a1.764,1.764,0,0,0-1.362.569,2.946,2.946,0,0,0-.669,1.628h3.926v-.226a2.1,2.1,0,0,0-.508-1.457A1.819,1.819,0,0,0,110.982,36.514Zm8.867-2.08.088,1.221a3.689,3.689,0,0,1,3.037-1.416,3.066,3.066,0,0,1,2.5.986,4.6,4.6,0,0,1,.84,2.949V45h-2.822V38.242a1.831,1.831,0,0,0-.391-1.3,1.749,1.749,0,0,0-1.3-.405,1.942,1.942,0,0,0-1.787,1.016V45h-2.822V34.434Zm11.982-2.6v2.6h1.807V36.5h-1.807v5.273a1.259,1.259,0,0,0,.225.84,1.128,1.128,0,0,0,.859.254,4.5,4.5,0,0,0,.83-.068v2.139a5.81,5.81,0,0,1-1.709.254q-2.969,0-3.027-3V36.5h-1.543v-2.07h1.543v-2.6ZM141.334,45a3.134,3.134,0,0,1-.283-.947,3.415,3.415,0,0,1-2.666,1.143,3.752,3.752,0,0,1-2.573-.9,2.889,2.889,0,0,1-1.021-2.266,2.986,2.986,0,0,1,1.245-2.578,6.144,6.144,0,0,1,3.6-.908h1.3v-.605a1.741,1.741,0,0,0-.376-1.172,1.479,1.479,0,0,0-1.187-.439,1.682,1.682,0,0,0-1.118.342,1.161,1.161,0,0,0-.405.938h-2.822a2.835,2.835,0,0,1,.566-1.7,3.744,3.744,0,0,1,1.6-1.226,5.837,5.837,0,0,1,2.324-.444,4.611,4.611,0,0,1,3.1.981,3.433,3.433,0,0,1,1.147,2.759v4.58a5.052,5.052,0,0,0,.42,2.275V45ZM139,43.037a2.431,2.431,0,0,0,1.152-.278,1.828,1.828,0,0,0,.781-.747V40.2h-1.055q-2.119,0-2.256,1.465l-.01.166a1.13,1.13,0,0,0,.371.869A1.441,1.441,0,0,0,139,43.037Zm12.871-5.957A7.667,7.667,0,0,0,150.855,37a2.067,2.067,0,0,0-2.1,1.084V45h-2.822V34.434H148.6l.078,1.26a2.615,2.615,0,0,1,2.354-1.455,2.957,2.957,0,0,1,.879.127ZM156.207,45h-2.832V34.434h2.832Zm-3-13.3a1.39,1.39,0,0,1,.425-1.045,1.831,1.831,0,0,1,2.31,0,1.491,1.491,0,0,1,0,2.1,1.81,1.81,0,0,1-2.295,0A1.386,1.386,0,0,1,153.209,31.7Zm4.883,7.92a6.267,6.267,0,0,1,.605-2.8,4.432,4.432,0,0,1,1.743-1.9,5.086,5.086,0,0,1,2.642-.674,4.812,4.812,0,0,1,3.491,1.309,5.252,5.252,0,0,1,1.509,3.555l.02.723a5.523,5.523,0,0,1-1.357,3.9,5.261,5.261,0,0,1-7.29,0,5.62,5.62,0,0,1-1.362-3.984Zm2.822.2a3.95,3.95,0,0,0,.566,2.3,2.035,2.035,0,0,0,3.223.01,4.322,4.322,0,0,0,.576-2.518,3.91,3.91,0,0,0-.576-2.289,1.873,1.873,0,0,0-1.621-.812,1.842,1.842,0,0,0-1.6.807A4.395,4.395,0,0,0,160.914,39.819Zm14.648,2.261a.909.909,0,0,0-.513-.815,5.824,5.824,0,0,0-1.646-.532q-3.77-.791-3.77-3.2a2.9,2.9,0,0,1,1.167-2.349,4.708,4.708,0,0,1,3.052-.942,5.067,5.067,0,0,1,3.218.947,2.985,2.985,0,0,1,1.206,2.461h-2.822a1.366,1.366,0,0,0-.391-1,1.653,1.653,0,0,0-1.221-.4,1.689,1.689,0,0,0-1.1.322,1.017,1.017,0,0,0-.391.82.87.87,0,0,0,.444.757,4.571,4.571,0,0,0,1.5.5,12.243,12.243,0,0,1,1.777.474,2.92,2.92,0,0,1,2.236,2.842,2.756,2.756,0,0,1-1.24,2.339,5.35,5.35,0,0,1-3.2.894,5.588,5.588,0,0,1-2.358-.474,3.957,3.957,0,0,1-1.616-1.3,3.018,3.018,0,0,1-.586-1.782h2.676a1.473,1.473,0,0,0,.557,1.152,2.208,2.208,0,0,0,1.387.4,2.044,2.044,0,0,0,1.226-.308A.957.957,0,0,0,175.563,42.08ZM58.937,63.639A6.368,6.368,0,0,1,60.045,59.7a3.6,3.6,0,0,1,3.032-1.465,3.236,3.236,0,0,1,2.549,1.152V54h2.832V69H65.909l-.137-1.123A3.321,3.321,0,0,1,63.058,69.2a3.587,3.587,0,0,1-2.993-1.47A6.573,6.573,0,0,1,58.937,63.639Zm2.822.21a4.171,4.171,0,0,0,.518,2.279,1.686,1.686,0,0,0,1.5.792,1.888,1.888,0,0,0,1.846-1.105V61.638A1.861,1.861,0,0,0,63.8,60.533Q61.759,60.533,61.759,63.849ZM73.624,69H70.792V58.434h2.832Zm-3-13.3a1.39,1.39,0,0,1,.425-1.045,1.831,1.831,0,0,1,2.31,0,1.491,1.491,0,0,1,0,2.1,1.81,1.81,0,0,1-2.295,0A1.386,1.386,0,0,1,70.626,55.7ZM79.9,65.553l1.963-7.119h2.949L81.251,69h-2.7L74.991,58.434H77.94ZM89.034,69H86.2V58.434h2.832Zm-3-13.3a1.39,1.39,0,0,1,.425-1.045,1.831,1.831,0,0,1,2.31,0,1.491,1.491,0,0,1,0,2.1,1.81,1.81,0,0,1-2.295,0A1.386,1.386,0,0,1,86.036,55.7Zm4.883,7.939A6.368,6.368,0,0,1,92.027,59.7a3.6,3.6,0,0,1,3.032-1.465,3.236,3.236,0,0,1,2.549,1.152V54h2.832V69H97.892l-.137-1.123A3.321,3.321,0,0,1,95.04,69.2a3.587,3.587,0,0,1-2.993-1.47A6.573,6.573,0,0,1,90.919,63.639Zm2.822.21a4.171,4.171,0,0,0,.518,2.279,1.686,1.686,0,0,0,1.5.792,1.888,1.888,0,0,0,1.846-1.105V61.638a1.861,1.861,0,0,0-1.826-1.105Q93.741,60.533,93.741,63.849ZM105.606,69h-2.832V58.434h2.832Zm-3-13.3a1.39,1.39,0,0,1,.425-1.045,1.831,1.831,0,0,1,2.31,0,1.491,1.491,0,0,1,0,2.1,1.81,1.81,0,0,1-2.295,0A1.386,1.386,0,0,1,102.608,55.7Zm4.883,7.939A6.368,6.368,0,0,1,108.6,59.7a3.6,3.6,0,0,1,3.032-1.465,3.236,3.236,0,0,1,2.549,1.152V54h2.832V69h-2.549l-.137-1.123a3.321,3.321,0,0,1-2.715,1.318,3.587,3.587,0,0,1-2.993-1.47A6.573,6.573,0,0,1,107.491,63.639Zm2.822.21a4.171,4.171,0,0,0,.518,2.279,1.686,1.686,0,0,0,1.5.792,1.888,1.888,0,0,0,1.846-1.105V61.638a1.861,1.861,0,0,0-1.826-1.105Q110.313,60.533,110.313,63.849Zm8.447-.23a6.266,6.266,0,0,1,.605-2.8,4.432,4.432,0,0,1,1.743-1.9,5.086,5.086,0,0,1,2.642-.674,4.812,4.812,0,0,1,3.491,1.309,5.252,5.252,0,0,1,1.509,3.555l.02.723a5.523,5.523,0,0,1-1.357,3.9,5.261,5.261,0,0,1-7.29,0,5.62,5.62,0,0,1-1.362-3.984Zm2.822.2a3.95,3.95,0,0,0,.566,2.3,2.035,2.035,0,0,0,3.223.01,4.322,4.322,0,0,0,.576-2.518,3.91,3.91,0,0,0-.576-2.289,1.873,1.873,0,0,0-1.621-.812,1.842,1.842,0,0,0-1.6.807A4.395,4.395,0,0,0,121.583,63.819Zm14.648,2.261a.909.909,0,0,0-.513-.815,5.824,5.824,0,0,0-1.646-.532q-3.77-.791-3.77-3.2a2.9,2.9,0,0,1,1.167-2.349,4.708,4.708,0,0,1,3.052-.942,5.067,5.067,0,0,1,3.218.947,2.985,2.985,0,0,1,1.206,2.461h-2.822a1.366,1.366,0,0,0-.391-1,1.653,1.653,0,0,0-1.221-.4,1.689,1.689,0,0,0-1.1.322,1.017,1.017,0,0,0-.391.82.87.87,0,0,0,.444.757,4.571,4.571,0,0,0,1.5.5,12.243,12.243,0,0,1,1.777.474,2.92,2.92,0,0,1,2.236,2.842,2.756,2.756,0,0,1-1.24,2.339,5.35,5.35,0,0,1-3.2.894,5.588,5.588,0,0,1-2.358-.474,3.957,3.957,0,0,1-1.616-1.3,3.018,3.018,0,0,1-.586-1.782h2.676a1.473,1.473,0,0,0,.557,1.152,2.208,2.208,0,0,0,1.387.4,2.044,2.044,0,0,0,1.226-.308A.957.957,0,0,0,136.231,66.08Z" transform="translate(1143 5349)" fill="#12263f"/></g></svg>