<svg xmlns="http://www.w3.org/2000/svg" width="60" height="60" viewBox="0 0 60 60">
  <g id="Grupo_1069600" data-name="Grupo 1069600" transform="translate(-284 -5661.5)">
    <path id="Trazado_773584" data-name="Trazado 773584" d="M30,0A30,30,0,1,1,0,30,30,30,0,0,1,30,0Z" transform="translate(284 5661.5)" fill="#f5947a"/>
    <path id="Trazado_773585" data-name="Trazado 773585" d="M15.234,32l-.923-3.867H8.042L7.046,32H.205L7.441,10.994h7.852L22.1,32ZM11.25,15.564H11.1a10.2,10.2,0,0,1-.205,1.157q-.176.806-1.772,6.914H13.14l-1.465-5.713A18.066,18.066,0,0,1,11.25,15.564Z" transform="translate(305 5671.5)" fill="#12263f"/>
  </g>
</svg>
