<svg xmlns="http://www.w3.org/2000/svg" xmlns:xlink="http://www.w3.org/1999/xlink" width="726" height="631" viewBox="0 0 726 631">
  <defs>
    <filter id="Rectángulo_5622" x="0" y="0" width="726" height="631" filterUnits="userSpaceOnUse">
      <feOffset dy="3" input="SourceAlpha"/>
      <feGaussianBlur stdDeviation="3" result="blur"/>
      <feFlood flood-opacity="0.161"/>
      <feComposite operator="in" in2="blur"/>
      <feComposite in="SourceGraphic"/>
    </filter>
  </defs>
  <g id="Grupo_57116" data-name="Grupo 57116" transform="translate(-691 -10330)">
    <g transform="matrix(1, 0, 0, 1, 691, 10330)" filter="url(#Rectángulo_5622)">
      <rect id="Rectángulo_5622-2" data-name="Rectángulo 5622" width="708" height="613" rx="14" transform="translate(9 6)" fill="#fff"/>
    </g>
    <g id="Grupo_57061" data-name="Grupo 57061" transform="translate(4201.292 9082.623)">
      <circle id="Elipse_4192" data-name="Elipse 4192" cx="13.69" cy="13.69" r="13.69" transform="translate(-3319.939 1637.687)" fill="#44215b"/>
      <circle id="Elipse_4193" data-name="Elipse 4193" cx="13.69" cy="13.69" r="13.69" transform="translate(-3279.811 1637.687)" fill="#87d057"/>
      <circle id="Elipse_4194" data-name="Elipse 4194" cx="13.69" cy="13.69" r="13.69" transform="translate(-3239.683 1637.687)" fill="#236548"/>
      <circle id="Elipse_4195" data-name="Elipse 4195" cx="13.69" cy="13.69" r="13.69" transform="translate(-3199.555 1637.687)" fill="#266c55"/>
      <circle id="Elipse_4196" data-name="Elipse 4196" cx="13.69" cy="13.69" r="13.69" transform="translate(-3159.427 1637.687)" fill="#d3324f"/>
      <circle id="Elipse_4197" data-name="Elipse 4197" cx="13.69" cy="13.69" r="13.69" transform="translate(-3319.939 1689.829)" fill="#02255a"/>
      <circle id="Elipse_4198" data-name="Elipse 4198" cx="13.69" cy="13.69" r="13.69" transform="translate(-3279.811 1689.829)" fill="#f14a90"/>
      <circle id="Elipse_4199" data-name="Elipse 4199" cx="13.69" cy="13.69" r="13.69" transform="translate(-3239.683 1689.829)" fill="#f380b4"/>
      <circle id="Elipse_4200" data-name="Elipse 4200" cx="13.69" cy="13.69" r="13.69" transform="translate(-3199.555 1689.829)" fill="#e33a2d"/>
      <circle id="Elipse_4201" data-name="Elipse 4201" cx="13.69" cy="13.69" r="13.69" transform="translate(-3159.427 1689.829)" fill="#277db1"/>
      <circle id="Elipse_4202" data-name="Elipse 4202" cx="13.69" cy="13.69" r="13.69" transform="translate(-3319.939 1741.443)" fill="#181724"/>
      <circle id="Elipse_4203" data-name="Elipse 4203" cx="13.69" cy="13.69" r="13.69" transform="translate(-3279.811 1741.443)" fill="#3b4b54"/>
      <circle id="Elipse_4204" data-name="Elipse 4204" cx="13.69" cy="13.69" r="13.69" transform="translate(-3239.683 1741.443)" fill="#7e213d"/>
      <circle id="Elipse_4205" data-name="Elipse 4205" cx="13.69" cy="13.69" r="13.69" transform="translate(-3199.555 1741.443)" fill="#3b1308"/>
      <circle id="Elipse_4206" data-name="Elipse 4206" cx="13.69" cy="13.69" r="13.69" transform="translate(-3159.427 1741.443)" fill="#fff" stroke="#898989" stroke-miterlimit="10" stroke-width="1"/>
      <circle id="Elipse_4207" data-name="Elipse 4207" cx="13.69" cy="13.69" r="13.69" transform="translate(-3319.939 1460.191)" fill="#22665e"/>
      <circle id="Elipse_4208" data-name="Elipse 4208" cx="13.69" cy="13.69" r="13.69" transform="translate(-3279.811 1460.191)" fill="#7db9a0"/>
      <circle id="Elipse_4209" data-name="Elipse 4209" cx="13.69" cy="13.69" r="13.69" transform="translate(-3239.683 1460.191)" fill="#fffeb9"/>
      <circle id="Elipse_4210" data-name="Elipse 4210" cx="13.69" cy="13.69" r="13.69" transform="translate(-3319.939 1512.333)" fill="#2f5374"/>
      <circle id="Elipse_4211" data-name="Elipse 4211" cx="13.69" cy="13.69" r="13.69" transform="translate(-3279.811 1512.333)" fill="#7e87a8"/>
      <circle id="Elipse_4212" data-name="Elipse 4212" cx="13.69" cy="13.69" r="13.69" transform="translate(-3239.683 1512.333)" fill="#616065"/>
      <circle id="Elipse_4213" data-name="Elipse 4213" cx="13.69" cy="13.69" r="13.69" transform="translate(-3199.555 1512.333)" fill="#fff" stroke="#898989" stroke-miterlimit="10" stroke-width="1"/>
      <circle id="Elipse_4214" data-name="Elipse 4214" cx="13.69" cy="13.69" r="13.69" transform="translate(-3159.427 1512.333)" fill="#9b8b8c"/>
      <circle id="Elipse_4215" data-name="Elipse 4215" cx="13.69" cy="13.69" r="13.69" transform="translate(-3319.939 1563.946)" fill="#3c6e8b"/>
      <circle id="Elipse_4216" data-name="Elipse 4216" cx="13.69" cy="13.69" r="13.69" transform="translate(-3279.811 1563.946)" fill="#7d3d54"/>
      <circle id="Elipse_4217" data-name="Elipse 4217" cx="13.69" cy="13.69" r="13.69" transform="translate(-3239.683 1563.946)" fill="#9f2d49"/>
      <circle id="Elipse_4218" data-name="Elipse 4218" cx="13.69" cy="13.69" r="13.69" transform="translate(-3199.555 1563.946)" fill="#ea90af"/>
      <circle id="Elipse_4219" data-name="Elipse 4219" cx="13.69" cy="13.69" r="13.69" transform="translate(-3159.427 1563.946)" fill="#f7abb5"/>
      <circle id="Elipse_4220" data-name="Elipse 4220" cx="13.69" cy="13.69" r="13.69" transform="translate(-3084.949 1637.687)" fill="#cf4732"/>
      <circle id="Elipse_4221" data-name="Elipse 4221" cx="13.69" cy="13.69" r="13.69" transform="translate(-3044.821 1637.687)" fill="#822c15"/>
      <circle id="Elipse_4222" data-name="Elipse 4222" cx="13.69" cy="13.69" r="13.69" transform="translate(-3004.693 1637.687)" fill="#8f5328"/>
      <circle id="Elipse_4223" data-name="Elipse 4223" cx="13.69" cy="13.69" r="13.69" transform="translate(-2964.565 1637.687)" fill="#479235"/>
      <circle id="Elipse_4224" data-name="Elipse 4224" cx="13.69" cy="13.69" r="13.69" transform="translate(-3084.949 1689.829)" fill="#1e3e16"/>
      <circle id="Elipse_4225" data-name="Elipse 4225" cx="13.69" cy="13.69" r="13.69" transform="translate(-3044.821 1689.829)" fill="#f37e2d"/>
      <circle id="Elipse_4226" data-name="Elipse 4226" cx="13.69" cy="13.69" r="13.69" transform="translate(-3004.693 1689.829)" fill="#f26c3c"/>
      <circle id="Elipse_4227" data-name="Elipse 4227" cx="13.69" cy="13.69" r="13.69" transform="translate(-2964.565 1689.829)" fill="#76641d"/>
      <circle id="Elipse_4228" data-name="Elipse 4228" cx="13.69" cy="13.69" r="13.69" transform="translate(-2924.437 1689.829)" fill="#f48680"/>
      <circle id="Elipse_4229" data-name="Elipse 4229" cx="13.69" cy="13.69" r="13.69" transform="translate(-3084.949 1741.443)" fill="#287ca4"/>
      <circle id="Elipse_4230" data-name="Elipse 4230" cx="13.69" cy="13.69" r="13.69" transform="translate(-3044.821 1741.443)" fill="#d4a836"/>
      <circle id="Elipse_4231" data-name="Elipse 4231" cx="13.69" cy="13.69" r="13.69" transform="translate(-3004.693 1741.443)" fill="#fff" stroke="#898989" stroke-miterlimit="10" stroke-width="1"/>
      <circle id="Elipse_4232" data-name="Elipse 4232" cx="13.69" cy="13.69" r="13.69" transform="translate(-2964.565 1741.443)" fill="#d5bf73"/>
      <circle id="Elipse_4233" data-name="Elipse 4233" cx="13.69" cy="13.69" r="13.69" transform="translate(-2924.437 1741.443)" fill="#ef6358"/>
      <circle id="Elipse_4234" data-name="Elipse 4234" cx="13.69" cy="13.69" r="13.69" transform="translate(-3084.949 1460.191)" fill="#a7d98c"/>
      <circle id="Elipse_4235" data-name="Elipse 4235" cx="13.69" cy="13.69" r="13.69" transform="translate(-3044.821 1460.191)" fill="#399348"/>
      <circle id="Elipse_4236" data-name="Elipse 4236" cx="13.69" cy="13.69" r="13.69" transform="translate(-3004.693 1460.191)" fill="#4fd1d0"/>
      <circle id="Elipse_4237" data-name="Elipse 4237" cx="13.69" cy="13.69" r="13.69" transform="translate(-3084.949 1512.333)" fill="#fcd85f"/>
      <circle id="Elipse_4238" data-name="Elipse 4238" cx="13.69" cy="13.69" r="13.69" transform="translate(-3044.821 1512.333)" fill="#2b2249"/>
      <circle id="Elipse_4239" data-name="Elipse 4239" cx="13.69" cy="13.69" r="13.69" transform="translate(-3004.693 1512.333)" fill="#f58f45"/>
      <circle id="Elipse_4240" data-name="Elipse 4240" cx="13.69" cy="13.69" r="13.69" transform="translate(-2964.565 1512.333)" fill="#d69e7d"/>
      <circle id="Elipse_4241" data-name="Elipse 4241" cx="13.69" cy="13.69" r="13.69" transform="translate(-2924.437 1512.333)" fill="#5d382f"/>
      <circle id="Elipse_4242" data-name="Elipse 4242" cx="13.69" cy="13.69" r="13.69" transform="translate(-3084.949 1563.946)" fill="#ca5a9e"/>
      <circle id="Elipse_4243" data-name="Elipse 4243" cx="13.69" cy="13.69" r="13.69" transform="translate(-3044.821 1563.946)" fill="#f8bc9f"/>
      <circle id="Elipse_4244" data-name="Elipse 4244" cx="13.69" cy="13.69" r="13.69" transform="translate(-3004.693 1563.946)" fill="#d1351b"/>
      <circle id="Elipse_4245" data-name="Elipse 4245" cx="13.69" cy="13.69" r="13.69" transform="translate(-2964.565 1563.946)" fill="#f06964"/>
      <circle id="Elipse_4246" data-name="Elipse 4246" cx="13.69" cy="13.69" r="13.69" transform="translate(-2924.437 1563.946)" fill="#f3948f"/>
      <line id="Línea_260" data-name="Línea 260" y2="411.278" transform="translate(-3351.836 1368.677)" fill="none" stroke="#b1b1b1" stroke-miterlimit="10" stroke-width="2"/>
      <line id="Línea_261" data-name="Línea 261" x2="541.69" transform="translate(-3408.292 1410.172)" fill="none" stroke="#b1b1b1" stroke-miterlimit="10" stroke-width="2"/>
    </g>
    <path id="Trazado_108147" data-name="Trazado 108147" d="M188.831,8.339h-3.92V19h-2.637V8.339h-3.867V6.2h10.424Zm9.2,5.115H192.97v3.428h5.941V19h-8.578V6.2h8.561V8.339H192.97v3.05h5.063ZM203.9,6.2l3.287,9.281L210.46,6.2h3.463V19h-2.646V15.5l.264-6.038L208.087,19h-1.811l-3.445-9.527L203.1,15.5V19h-2.637V6.2Zm14.959,8.288V19h-2.637V6.2h4.992a5.776,5.776,0,0,1,2.536.527,3.886,3.886,0,0,1,1.683,1.5,4.178,4.178,0,0,1,.589,2.21,3.674,3.674,0,0,1-1.288,2.966,5.363,5.363,0,0,1-3.564,1.085Zm0-2.136h2.355a2.316,2.316,0,0,0,1.6-.492,1.79,1.79,0,0,0,.549-1.406,2.111,2.111,0,0,0-.554-1.521,2.068,2.068,0,0,0-1.529-.6h-2.417Zm16.673,1.1h-5.062v3.428h5.941V19h-8.578V6.2H236.4V8.339h-5.924v3.05h5.063Zm7.163.861h-2.1V19h-2.637V6.2h4.755a5.375,5.375,0,0,1,3.5,1.011,3.488,3.488,0,0,1,1.23,2.856,3.937,3.937,0,0,1-.567,2.184,3.866,3.866,0,0,1-1.718,1.393l2.769,5.229V19H245.1Zm-2.1-2.136h2.127a2.178,2.178,0,0,0,1.538-.505,1.806,1.806,0,0,0,.545-1.393,1.933,1.933,0,0,0-.514-1.424,2.137,2.137,0,0,0-1.578-.519H240.6Zm16.075,4.184H252.05L251.171,19h-2.8l4.764-12.8h2.443l4.79,12.8h-2.8Zm-3.911-2.136h3.2l-1.608-4.79Zm17.376-5.889h-3.92V19h-2.637V8.339h-3.867V6.2h10.424ZM281.327,6.2v8.429a4.315,4.315,0,0,1-1.314,3.322,5.066,5.066,0,0,1-3.59,1.222,5.123,5.123,0,0,1-3.56-1.187,4.242,4.242,0,0,1-1.345-3.261V6.2h2.637v8.446a2.438,2.438,0,0,0,.6,1.833,2.311,2.311,0,0,0,1.666.576q2.224,0,2.259-2.338V6.2Zm6.9,8.112h-2.1V19h-2.637V6.2h4.755a5.375,5.375,0,0,1,3.5,1.011,3.488,3.488,0,0,1,1.23,2.856,3.937,3.937,0,0,1-.567,2.184,3.866,3.866,0,0,1-1.718,1.393l2.769,5.229V19h-2.83Zm-2.1-2.136h2.127a2.178,2.178,0,0,0,1.538-.505,1.806,1.806,0,0,0,.545-1.393,1.933,1.933,0,0,0-.514-1.424,2.137,2.137,0,0,0-1.578-.519h-2.118ZM302.2,16.363h-4.623L296.7,19h-2.8l4.764-12.8H301.1l4.79,12.8h-2.8Zm-3.911-2.136h3.2l-1.608-4.79Z" transform="translate(851 10423)" fill="#12263f"/>
    <path id="Trazado_108150" data-name="Trazado 108150" d="M130.1,16.882h5.6V19h-8.235V6.2H130.1ZM146.687,6.2v8.429a4.315,4.315,0,0,1-1.314,3.322,5.066,5.066,0,0,1-3.59,1.222,5.123,5.123,0,0,1-3.56-1.187,4.242,4.242,0,0,1-1.345-3.261V6.2h2.637v8.446a2.438,2.438,0,0,0,.6,1.833,2.311,2.311,0,0,0,1.666.576q2.224,0,2.259-2.338V6.2Zm5.607,0,3.287,9.281,3.27-9.281h3.463V19h-2.646V15.5l.264-6.038L156.478,19h-1.811l-3.445-9.527.264,6.029V19h-2.637V6.2ZM167.42,19h-2.637V6.2h2.637Zm12.85,0h-2.637L172.5,10.58V19h-2.637V6.2H172.5l5.142,8.438V6.2h2.628Zm12.814-6.108a7.725,7.725,0,0,1-.668,3.313,5.03,5.03,0,0,1-1.912,2.2,5.649,5.649,0,0,1-5.691.009,5.08,5.08,0,0,1-1.934-2.184,7.5,7.5,0,0,1-.694-3.265v-.633A7.685,7.685,0,0,1,182.867,9,5.072,5.072,0,0,1,184.792,6.8a5.64,5.64,0,0,1,5.687,0A5.072,5.072,0,0,1,192.4,9a7.663,7.663,0,0,1,.681,3.318Zm-2.672-.58a5.385,5.385,0,0,0-.721-3.059,2.546,2.546,0,0,0-4.1-.013,5.324,5.324,0,0,0-.729,3.028v.624a5.453,5.453,0,0,0,.721,3.041,2.524,2.524,0,0,0,4.113.04,5.421,5.421,0,0,0,.721-3.037Zm11.224,3.331a1.353,1.353,0,0,0-.527-1.147,6.917,6.917,0,0,0-1.9-.844,13.458,13.458,0,0,1-2.171-.875,3.547,3.547,0,0,1-2.18-3.173,3.09,3.09,0,0,1,.584-1.85,3.812,3.812,0,0,1,1.679-1.27,6.318,6.318,0,0,1,2.457-.457,5.751,5.751,0,0,1,2.443.5,3.891,3.891,0,0,1,1.666,1.4,3.668,3.668,0,0,1,.593,2.057h-2.637a1.726,1.726,0,0,0-.554-1.367,2.276,2.276,0,0,0-1.556-.488,2.432,2.432,0,0,0-1.5.409,1.289,1.289,0,0,0-.536,1.077,1.235,1.235,0,0,0,.628,1.046,7.1,7.1,0,0,0,1.85.791,7.994,7.994,0,0,1,3.278,1.679,3.343,3.343,0,0,1,1.028,2.5,3.08,3.08,0,0,1-1.257,2.606,5.5,5.5,0,0,1-3.384.945,6.534,6.534,0,0,1-2.689-.541,4.256,4.256,0,0,1-1.85-1.481,3.793,3.793,0,0,1-.637-2.18h2.646q0,2.118,2.531,2.118a2.462,2.462,0,0,0,1.468-.382A1.244,1.244,0,0,0,201.636,15.643ZM208.869,19h-2.637V6.2h2.637Zm2.443,0V6.2h3.938a5.98,5.98,0,0,1,3.019.76,5.3,5.3,0,0,1,2.079,2.162,6.669,6.669,0,0,1,.747,3.186V12.9a6.688,6.688,0,0,1-.734,3.173,5.256,5.256,0,0,1-2.07,2.153,6.025,6.025,0,0,1-3.015.773Zm2.637-10.661v8.543h1.274a2.863,2.863,0,0,0,2.364-1.011,4.567,4.567,0,0,0,.835-2.892V12.3a4.64,4.64,0,0,0-.809-2.958,2.854,2.854,0,0,0-2.364-1.006Zm16.286,8.024h-4.623L224.733,19h-2.8l4.764-12.8h2.443l4.79,12.8h-2.8Zm-3.911-2.136h3.2l-1.608-4.79Zm8.8,4.772V6.2h3.938a5.98,5.98,0,0,1,3.019.76,5.3,5.3,0,0,1,2.079,2.162,6.669,6.669,0,0,1,.747,3.186V12.9a6.688,6.688,0,0,1-.734,3.173,5.256,5.256,0,0,1-2.07,2.153,6.025,6.025,0,0,1-3.015.773Zm2.637-10.661v8.543h1.274a2.863,2.863,0,0,0,2.364-1.011,4.567,4.567,0,0,0,.835-2.892V12.3a4.64,4.64,0,0,0-.809-2.958,2.854,2.854,0,0,0-2.364-1.006Z" transform="translate(774 10863) rotate(-90)" fill="#12263f"/>
    <path id="Trazado_108148" data-name="Trazado 108148" d="M110.448,13.577H105.3V19h-2.224V6.2h8.13V8H105.3V11.8h5.15Zm7.058-2.136a5.285,5.285,0,0,0-.87-.07,1.959,1.959,0,0,0-1.978,1.125V19h-2.136V9.49h2.039l.053,1.063a2.406,2.406,0,0,1,2.145-1.239,2,2,0,0,1,.756.123ZM121.153,19h-2.136V9.49h2.136Zm-.4-13.438h2.435l-2.435,2.663-1.714,0ZM129.265,19a3.3,3.3,0,0,1-.246-.888,3.593,3.593,0,0,1-4.834.246,2.615,2.615,0,0,1-.905-2.021A2.7,2.7,0,0,1,124.409,14a5.473,5.473,0,0,1,3.23-.813h1.31v-.624a1.666,1.666,0,0,0-.413-1.182,1.638,1.638,0,0,0-1.257-.444,1.881,1.881,0,0,0-1.2.365,1.129,1.129,0,0,0-.466.927h-2.136A2.37,2.37,0,0,1,124,10.769,3.455,3.455,0,0,1,125.411,9.7a4.955,4.955,0,0,1,1.991-.387,3.99,3.99,0,0,1,2.663.839,2.993,2.993,0,0,1,1.02,2.36V16.8a4.861,4.861,0,0,0,.36,2.048V19Zm-2.347-1.538a2.429,2.429,0,0,0,1.191-.308,2.055,2.055,0,0,0,.839-.826V14.535H127.8a3.148,3.148,0,0,0-1.784.413,1.338,1.338,0,0,0-.6,1.169,1.248,1.248,0,0,0,.409.98A1.583,1.583,0,0,0,126.918,17.462Z" transform="translate(851 10459)" fill="#12263f"/>
    <path id="Trazado_108149" data-name="Trazado 108149" d="M102.775,14.834a4.621,4.621,0,0,1-1.512,3.195,5.154,5.154,0,0,1-3.507,1.147,4.99,4.99,0,0,1-2.694-.725,4.759,4.759,0,0,1-1.8-2.061,7.438,7.438,0,0,1-.659-3.1v-1.2a7.491,7.491,0,0,1,.642-3.19,4.835,4.835,0,0,1,1.841-2.127,5.136,5.136,0,0,1,2.773-.747,4.946,4.946,0,0,1,3.41,1.147,4.793,4.793,0,0,1,1.5,3.248H100.56a3.161,3.161,0,0,0-.8-1.991,2.658,2.658,0,0,0-1.894-.611,2.6,2.6,0,0,0-2.228,1.06,5.3,5.3,0,0,0-.8,3.11v1.135a5.62,5.62,0,0,0,.743,3.167,2.464,2.464,0,0,0,2.175,1.091,2.875,2.875,0,0,0,1.969-.589,3.071,3.071,0,0,0,.835-1.96ZM110.237,19a3.3,3.3,0,0,1-.246-.888,3.593,3.593,0,0,1-4.834.246,2.615,2.615,0,0,1-.905-2.021A2.7,2.7,0,0,1,105.381,14a5.473,5.473,0,0,1,3.23-.813h1.31v-.624a1.666,1.666,0,0,0-.413-1.182,1.638,1.638,0,0,0-1.257-.444,1.881,1.881,0,0,0-1.2.365,1.129,1.129,0,0,0-.466.927h-2.136a2.37,2.37,0,0,1,.519-1.463A3.455,3.455,0,0,1,106.383,9.7a4.955,4.955,0,0,1,1.991-.387,3.99,3.99,0,0,1,2.663.839,2.993,2.993,0,0,1,1.02,2.36V16.8a4.861,4.861,0,0,0,.36,2.048V19Zm-2.347-1.538a2.429,2.429,0,0,0,1.191-.308,2.055,2.055,0,0,0,.839-.826V14.535h-1.151a3.148,3.148,0,0,0-1.784.413,1.338,1.338,0,0,0-.6,1.169,1.248,1.248,0,0,0,.409.98A1.583,1.583,0,0,0,107.89,17.462ZM109.077,5.5h2.435l-2.435,2.663-1.714,0ZM116.565,19h-2.136V5.5h2.136Zm4.6,0h-2.136V9.49h2.136ZM118.894,7.021a1.133,1.133,0,0,1,.312-.817,1.179,1.179,0,0,1,.892-.325,1.193,1.193,0,0,1,.9.325,1.125,1.125,0,0,1,.316.817,1.1,1.1,0,0,1-.316.8,1.2,1.2,0,0,1-.9.321,1.188,1.188,0,0,1-.892-.321A1.107,1.107,0,0,1,118.894,7.021Zm4.192,7.154a5.654,5.654,0,0,1,1.02-3.529,3.267,3.267,0,0,1,2.733-1.332,3.1,3.1,0,0,1,2.443,1.055V5.5h2.136V19h-1.934l-.105-.984a3.148,3.148,0,0,1-2.558,1.16,3.248,3.248,0,0,1-2.7-1.345A5.861,5.861,0,0,1,123.086,14.175Zm2.136.185a3.958,3.958,0,0,0,.558,2.263,1.811,1.811,0,0,0,1.586.813,2.017,2.017,0,0,0,1.916-1.169V12.206a1.986,1.986,0,0,0-1.9-1.143,1.824,1.824,0,0,0-1.6.822A4.408,4.408,0,0,0,125.222,14.359ZM139.329,19a3.3,3.3,0,0,1-.246-.888,3.593,3.593,0,0,1-4.834.246,2.615,2.615,0,0,1-.905-2.021A2.7,2.7,0,0,1,134.473,14a5.473,5.473,0,0,1,3.23-.813h1.31v-.624a1.666,1.666,0,0,0-.413-1.182,1.638,1.638,0,0,0-1.257-.444,1.881,1.881,0,0,0-1.2.365,1.129,1.129,0,0,0-.466.927h-2.136a2.37,2.37,0,0,1,.519-1.463A3.455,3.455,0,0,1,135.475,9.7a4.955,4.955,0,0,1,1.991-.387,3.99,3.99,0,0,1,2.663.839,2.993,2.993,0,0,1,1.02,2.36V16.8a4.861,4.861,0,0,0,.36,2.048V19Zm-2.347-1.538a2.429,2.429,0,0,0,1.191-.308,2.055,2.055,0,0,0,.839-.826V14.535h-1.151a3.148,3.148,0,0,0-1.784.413,1.338,1.338,0,0,0-.6,1.169,1.248,1.248,0,0,0,.409.98A1.583,1.583,0,0,0,136.982,17.462Z" transform="translate(1090 10459)" fill="#12263f"/>
    <path id="Trazado_108152" data-name="Trazado 108152" d="M62.542,12.936a7.851,7.851,0,0,1-.65,3.3,4.918,4.918,0,0,1-1.859,2.18,5.453,5.453,0,0,1-5.555,0A4.993,4.993,0,0,1,52.6,16.249a7.606,7.606,0,0,1-.672-3.243v-.721a7.784,7.784,0,0,1,.664-3.3A4.987,4.987,0,0,1,54.46,6.788a5.464,5.464,0,0,1,5.546-.009,4.924,4.924,0,0,1,1.868,2.162,7.767,7.767,0,0,1,.668,3.283Zm-2.224-.668a5.594,5.594,0,0,0-.8-3.261,2.838,2.838,0,0,0-4.535,0,5.486,5.486,0,0,0-.831,3.195v.738A5.552,5.552,0,0,0,54.97,16.2a2.646,2.646,0,0,0,2.281,1.151,2.615,2.615,0,0,0,2.272-1.125,5.671,5.671,0,0,0,.8-3.287Zm9.563,4.148a.968.968,0,0,0-.47-.87,5,5,0,0,0-1.56-.527,8.02,8.02,0,0,1-1.819-.58,2.428,2.428,0,0,1-1.6-2.241,2.531,2.531,0,0,1,1.037-2.057A4.1,4.1,0,0,1,68.1,9.314a4.266,4.266,0,0,1,2.755.844,2.677,2.677,0,0,1,1.05,2.188H69.775a1.316,1.316,0,0,0-.457-1.024,1.752,1.752,0,0,0-1.213-.409,1.893,1.893,0,0,0-1.147.325,1.025,1.025,0,0,0-.444.87.866.866,0,0,0,.413.765,5.68,5.68,0,0,0,1.67.549,7.9,7.9,0,0,1,1.973.659A2.794,2.794,0,0,1,71.634,15a2.342,2.342,0,0,1,.347,1.3,2.478,2.478,0,0,1-1.063,2.079,4.535,4.535,0,0,1-2.786.8,4.917,4.917,0,0,1-2.083-.422,3.428,3.428,0,0,1-1.424-1.16A2.746,2.746,0,0,1,64.115,16h2.074a1.5,1.5,0,0,0,.571,1.165,2.22,2.22,0,0,0,1.4.409,2.16,2.16,0,0,0,1.283-.321A.993.993,0,0,0,69.88,16.416Zm7.866,1.055A1.931,1.931,0,0,0,79.074,17a1.591,1.591,0,0,0,.563-1.151h2.013A3.137,3.137,0,0,1,81.1,17.51a3.632,3.632,0,0,1-1.406,1.217,4.191,4.191,0,0,1-1.916.448,4.055,4.055,0,0,1-3.164-1.292,5.124,5.124,0,0,1-1.169-3.568V14.1A5.039,5.039,0,0,1,74.6,10.62a4.018,4.018,0,0,1,3.164-1.305,3.907,3.907,0,0,1,2.764.989,3.542,3.542,0,0,1,1.121,2.6H79.636a1.956,1.956,0,0,0-.558-1.345,1.8,1.8,0,0,0-1.332-.527,1.879,1.879,0,0,0-1.6.751,3.834,3.834,0,0,0-.571,2.281V14.4a3.9,3.9,0,0,0,.558,2.307A1.878,1.878,0,0,0,77.747,17.471Zm11.276.6a3.312,3.312,0,0,1-2.672,1.107,2.952,2.952,0,0,1-2.342-.905,3.851,3.851,0,0,1-.8-2.619V9.49h2.136v6.135q0,1.811,1.5,1.811a2.111,2.111,0,0,0,2.1-1.116V9.49h2.136V19H89.076Zm9.22-6.627a5.285,5.285,0,0,0-.87-.07A1.959,1.959,0,0,0,95.4,12.5V19H93.259V9.49H95.3l.053,1.063A2.406,2.406,0,0,1,97.5,9.314a2,2,0,0,1,.756.123ZM105.01,19a3.3,3.3,0,0,1-.246-.888,3.593,3.593,0,0,1-4.834.246,2.615,2.615,0,0,1-.905-2.021A2.7,2.7,0,0,1,100.154,14a5.473,5.473,0,0,1,3.23-.813h1.31v-.624a1.666,1.666,0,0,0-.413-1.182,1.638,1.638,0,0,0-1.257-.444,1.881,1.881,0,0,0-1.2.365,1.129,1.129,0,0,0-.466.927H99.227a2.37,2.37,0,0,1,.519-1.463A3.455,3.455,0,0,1,101.156,9.7a4.955,4.955,0,0,1,1.991-.387,3.99,3.99,0,0,1,2.663.839,2.993,2.993,0,0,1,1.02,2.36V16.8a4.861,4.861,0,0,0,.36,2.048V19Zm-2.347-1.538a2.429,2.429,0,0,0,1.191-.308,2.055,2.055,0,0,0,.839-.826V14.535h-1.151a3.148,3.148,0,0,0-1.784.413,1.338,1.338,0,0,0-.6,1.169,1.248,1.248,0,0,0,.409.98A1.583,1.583,0,0,0,102.664,17.462Z" transform="translate(813 10863) rotate(-90)" fill="#12263f"/>
    <path id="Trazado_108156" data-name="Trazado 108156" d="M60.652,17H58.684V5.625h1.969Zm11.453,0H70.129l-5.07-8.07V17H63.082V5.625h1.977l5.086,8.1v-8.1h1.961Zm6.344-2.477,2.891-8.9h2.172L79.418,17H77.5L73.426,5.625H75.59ZM86.879,17H84.91V5.625h1.969Zm9.078-5.078H91.285v3.5h5.461V17H89.309V5.625h7.383V7.219H91.285v3.141h4.672Zm6.578.7h-2.2V17H98.355V5.625h4a4.653,4.653,0,0,1,3.039.884,3.126,3.126,0,0,1,1.07,2.557,3.2,3.2,0,0,1-.551,1.912,3.5,3.5,0,0,1-1.535,1.185l2.555,4.737V17h-2.117Zm-2.2-1.594h2.031a2.259,2.259,0,0,0,1.563-.5,1.757,1.757,0,0,0,.563-1.379,1.871,1.871,0,0,0-.52-1.414,2.207,2.207,0,0,0-1.551-.516h-2.086ZM117.363,17h-1.977l-5.07-8.07V17H108.34V5.625h1.977l5.086,8.1v-8.1h1.961Zm11.414-5.391a6.979,6.979,0,0,1-.578,2.934,4.371,4.371,0,0,1-1.652,1.938,4.847,4.847,0,0,1-4.937,0,4.438,4.438,0,0,1-1.672-1.926,6.761,6.761,0,0,1-.6-2.883v-.641a6.919,6.919,0,0,1,.59-2.937,4.433,4.433,0,0,1,1.664-1.949,4.857,4.857,0,0,1,4.93-.008,4.377,4.377,0,0,1,1.66,1.922,6.9,6.9,0,0,1,.594,2.918Zm-1.977-.594a4.973,4.973,0,0,0-.715-2.9,2.522,2.522,0,0,0-4.031,0,4.876,4.876,0,0,0-.738,2.84v.656a4.935,4.935,0,0,0,.73,2.9,2.352,2.352,0,0,0,2.027,1.023,2.325,2.325,0,0,0,2.02-1,5.041,5.041,0,0,0,.707-2.922Z" transform="translate(881.5 10689)" fill="#12263f"/>
    <path id="Trazado_108153" data-name="Trazado 108153" d="M67.445,14.523l2.891-8.9h2.172L68.414,17H66.5L62.422,5.625h2.164Zm12.992-2.6H75.766v3.5h5.461V17H73.789V5.625h7.383V7.219H75.766v3.141h4.672Zm6.578.7h-2.2V17H82.836V5.625h4a4.653,4.653,0,0,1,3.039.884,3.126,3.126,0,0,1,1.07,2.557,3.2,3.2,0,0,1-.551,1.912,3.5,3.5,0,0,1-1.535,1.185L91.414,16.9V17H89.3Zm-2.2-1.594h2.031a2.259,2.259,0,0,0,1.563-.5,1.757,1.757,0,0,0,.563-1.379,1.871,1.871,0,0,0-.52-1.414A2.207,2.207,0,0,0,86.9,7.219H84.813Zm14.375,3.32H94.781L93.859,17H91.8L96.1,5.625h1.773L102.18,17h-2.062Zm-3.852-1.594h3.3L96.984,8.039ZM112.492,17h-1.977l-5.07-8.07V17h-1.977V5.625h1.977l5.086,8.1v-8.1h1.961Zm11.414-5.391a6.979,6.979,0,0,1-.578,2.934,4.371,4.371,0,0,1-1.652,1.938,4.847,4.847,0,0,1-4.937,0,4.438,4.438,0,0,1-1.672-1.926,6.761,6.761,0,0,1-.6-2.883v-.641a6.919,6.919,0,0,1,.59-2.937,4.433,4.433,0,0,1,1.664-1.949,4.857,4.857,0,0,1,4.93-.008,4.377,4.377,0,0,1,1.66,1.922,6.9,6.9,0,0,1,.594,2.918Zm-1.977-.594a4.973,4.973,0,0,0-.715-2.9,2.522,2.522,0,0,0-4.031,0,4.876,4.876,0,0,0-.738,2.84v.656a4.935,4.935,0,0,0,.73,2.9,2.352,2.352,0,0,0,2.027,1.023,2.325,2.325,0,0,0,2.02-1,5.041,5.041,0,0,0,.707-2.922Z" transform="translate(881.5 10512)" fill="#12263f"/>
    <path id="Trazado_108158" data-name="Trazado 108158" d="M77.07,11.609a6.979,6.979,0,0,1-.578,2.934A4.371,4.371,0,0,1,74.84,16.48a4.847,4.847,0,0,1-4.937,0,4.438,4.438,0,0,1-1.672-1.926,6.761,6.761,0,0,1-.6-2.883v-.641a6.919,6.919,0,0,1,.59-2.937,4.433,4.433,0,0,1,1.664-1.949,4.857,4.857,0,0,1,4.93-.008,4.377,4.377,0,0,1,1.66,1.922,6.9,6.9,0,0,1,.594,2.918Zm-1.977-.594a4.973,4.973,0,0,0-.715-2.9,2.522,2.522,0,0,0-4.031,0,4.876,4.876,0,0,0-.738,2.84v.656a4.935,4.935,0,0,0,.73,2.9,2.352,2.352,0,0,0,2.027,1.023,2.325,2.325,0,0,0,2.02-1,5.041,5.041,0,0,0,.707-2.922Zm11.5-3.8H83.047V17H81.086V7.219H77.57V5.625h9.023Zm10.352,4.391a6.979,6.979,0,0,1-.578,2.934,4.371,4.371,0,0,1-1.652,1.938,4.847,4.847,0,0,1-4.937,0,4.438,4.438,0,0,1-1.672-1.926,6.761,6.761,0,0,1-.6-2.883v-.641a6.919,6.919,0,0,1,.59-2.937,4.433,4.433,0,0,1,1.664-1.949,4.857,4.857,0,0,1,4.93-.008,4.377,4.377,0,0,1,1.66,1.922,6.9,6.9,0,0,1,.594,2.918Zm-1.977-.594a4.973,4.973,0,0,0-.715-2.9,2.522,2.522,0,0,0-4.031,0,4.876,4.876,0,0,0-.738,2.84v.656a4.935,4.935,0,0,0,.73,2.9,2.352,2.352,0,0,0,2.027,1.023,2.325,2.325,0,0,0,2.02-1,5.041,5.041,0,0,0,.707-2.922ZM107.938,17h-1.977l-5.07-8.07V17H98.914V5.625h1.977l5.086,8.1v-8.1h1.961ZM106.3,2.75a2.1,2.1,0,0,1-.5,1.43,1.582,1.582,0,0,1-1.246.57,1.856,1.856,0,0,1-.527-.066,3.354,3.354,0,0,1-.633-.3,3.128,3.128,0,0,0-.578-.281,1.378,1.378,0,0,0-.371-.047.662.662,0,0,0-.5.223.821.821,0,0,0-.207.582L100.57,4.8a2.16,2.16,0,0,1,.5-1.445,1.557,1.557,0,0,1,1.238-.586,2.305,2.305,0,0,1,1.074.352,2.271,2.271,0,0,0,1.035.352.675.675,0,0,0,.508-.223.822.822,0,0,0,.211-.59Zm13.055,8.859a6.979,6.979,0,0,1-.578,2.934,4.371,4.371,0,0,1-1.652,1.938,4.847,4.847,0,0,1-4.937,0,4.438,4.438,0,0,1-1.672-1.926,6.761,6.761,0,0,1-.6-2.883v-.641a6.919,6.919,0,0,1,.59-2.937,4.433,4.433,0,0,1,1.664-1.949,4.857,4.857,0,0,1,4.93-.008,4.377,4.377,0,0,1,1.66,1.922,6.9,6.9,0,0,1,.594,2.918Zm-1.977-.594a4.973,4.973,0,0,0-.715-2.9,2.522,2.522,0,0,0-4.031,0,4.876,4.876,0,0,0-.738,2.84v.656a4.935,4.935,0,0,0,.73,2.9,2.352,2.352,0,0,0,2.027,1.023,2.325,2.325,0,0,0,2.02-1,5.041,5.041,0,0,0,.707-2.922Z" transform="translate(1116.5 10689)" fill="#12263f"/>
    <path id="Trazado_108155" data-name="Trazado 108155" d="M52.227,12.781V17H50.25V5.625H54.6a4.4,4.4,0,0,1,3.027.993A3.34,3.34,0,0,1,58.75,9.246a3.229,3.229,0,0,1-1.1,2.6,4.613,4.613,0,0,1-3.074.931Zm0-1.594H54.6a2.339,2.339,0,0,0,1.609-.5,1.823,1.823,0,0,0,.555-1.434A1.967,1.967,0,0,0,56.2,7.785a2.168,2.168,0,0,0-1.547-.566h-2.43Zm12.43,1.438h-2.2V17H60.477V5.625h4a4.653,4.653,0,0,1,3.039.884,3.126,3.126,0,0,1,1.07,2.557,3.2,3.2,0,0,1-.551,1.912A3.5,3.5,0,0,1,66.5,12.162L69.055,16.9V17H66.938Zm-2.2-1.594h2.031a2.259,2.259,0,0,0,1.563-.5,1.757,1.757,0,0,0,.563-1.379,1.871,1.871,0,0,0-.52-1.414,2.207,2.207,0,0,0-1.551-.516H62.453ZM72.547,17H70.578V5.625h1.969ZM77.539,5.625l3.281,8.719,3.273-8.719h2.555V17H84.68V13.25l.2-5.016L81.516,17H80.1L76.75,8.242l.2,5.008V17H74.977V5.625Zm17.813,8.727H90.945L90.023,17H87.969l4.3-11.375h1.773L98.344,17H96.281ZM91.5,12.758h3.3L93.148,8.039Zm11.539,1.766,2.891-8.9H108.1L104.008,17h-1.914L98.016,5.625h2.164Zm12.992-2.6h-4.672v3.5h5.461V17h-7.437V5.625h7.383V7.219h-5.406v3.141h4.672Zm6.578.7h-2.2V17H118.43V5.625h4a4.653,4.653,0,0,1,3.039.884,3.126,3.126,0,0,1,1.07,2.557,3.2,3.2,0,0,1-.551,1.912,3.5,3.5,0,0,1-1.535,1.185l2.555,4.737V17h-2.117Zm-2.2-1.594h2.031a2.259,2.259,0,0,0,1.563-.5,1.757,1.757,0,0,0,.563-1.379,1.871,1.871,0,0,0-.52-1.414,2.207,2.207,0,0,0-1.551-.516h-2.086Zm14.375,3.32h-4.406L129.453,17H127.4l4.3-11.375h1.773L137.773,17h-2.062Zm-3.852-1.594h3.3l-1.648-4.719Z" transform="translate(1116.5 10512)" fill="#12263f"/>
    <path id="Trazado_108157" data-name="Trazado 108157" d="M81.185,11.842a3.662,3.662,0,0,1-1.166,2.437,3.82,3.82,0,0,1-2.608.858,3.507,3.507,0,0,1-2.827-1.265,5.088,5.088,0,0,1-1.063-3.384V9.531a5.671,5.671,0,0,1,.5-2.44,3.7,3.7,0,0,1,1.4-1.617,3.911,3.911,0,0,1,2.105-.564,3.6,3.6,0,0,1,2.543.885,3.706,3.706,0,0,1,1.114,2.451H79.866a2.86,2.86,0,0,0-.742-1.728,2.244,2.244,0,0,0-1.6-.535,2.348,2.348,0,0,0-1.972.93,4.272,4.272,0,0,0-.714,2.648v.965a4.391,4.391,0,0,0,.677,2.579,2.187,2.187,0,0,0,1.894.958,2.526,2.526,0,0,0,1.678-.5,2.75,2.75,0,0,0,.776-1.726Zm5.168-3.1a3.79,3.79,0,0,0-.622-.048,1.667,1.667,0,0,0-1.688,1.06V15H82.778V7.6h1.23l.021.854a1.969,1.969,0,0,1,1.764-.991,1.292,1.292,0,0,1,.561.1Zm.69,2.5a4.369,4.369,0,0,1,.427-1.955,3.187,3.187,0,0,1,1.189-1.34,3.238,3.238,0,0,1,1.74-.472,3.119,3.119,0,0,1,2.444,1.046,4.024,4.024,0,0,1,.933,2.782v.089a4.407,4.407,0,0,1-.414,1.938,3.14,3.14,0,0,1-1.183,1.336,3.275,3.275,0,0,1-1.767.479,3.111,3.111,0,0,1-2.437-1.046,4,4,0,0,1-.933-2.769Zm1.271.15a3.164,3.164,0,0,0,.571,1.976,1.934,1.934,0,0,0,3.059-.01,3.46,3.46,0,0,0,.567-2.116,3.159,3.159,0,0,0-.578-1.972A1.836,1.836,0,0,0,90.4,8.506a1.816,1.816,0,0,0-1.511.745A3.435,3.435,0,0,0,88.315,11.384ZM96.552,7.6l.034.82a2.732,2.732,0,0,1,2.194-.957,2.115,2.115,0,0,1,2.112,1.189,2.8,2.8,0,0,1,.96-.861,2.837,2.837,0,0,1,1.4-.328q2.434,0,2.475,2.577V15h-1.265V10.119a1.7,1.7,0,0,0-.362-1.186,1.6,1.6,0,0,0-1.217-.393,1.677,1.677,0,0,0-1.169.42,1.706,1.706,0,0,0-.54,1.131V15H99.9V10.153A1.411,1.411,0,0,0,98.323,8.54a1.692,1.692,0,0,0-1.7,1.06V15H95.356V7.6ZM112.2,15a2.657,2.657,0,0,1-.178-.779,2.822,2.822,0,0,1-2.105.916,2.611,2.611,0,0,1-1.794-.619,2,2,0,0,1-.7-1.569,2.091,2.091,0,0,1,.878-1.794,4.141,4.141,0,0,1,2.471-.639H112V9.935a1.42,1.42,0,0,0-.4-1.056,1.593,1.593,0,0,0-1.169-.393,1.844,1.844,0,0,0-1.135.342,1.007,1.007,0,0,0-.458.827h-1.271a1.745,1.745,0,0,1,.393-1.07,2.683,2.683,0,0,1,1.066-.817,3.588,3.588,0,0,1,1.48-.3,2.924,2.924,0,0,1,2,.639,2.306,2.306,0,0,1,.752,1.76v3.4a4.162,4.162,0,0,0,.26,1.62V15Zm-2.1-.964a2.223,2.223,0,0,0,1.128-.308,1.861,1.861,0,0,0,.772-.8V11.411h-.991q-2.324,0-2.324,1.36a1.151,1.151,0,0,0,.4.93A1.524,1.524,0,0,0,110.1,14.036ZM75.662,27.384a4.4,4.4,0,0,1-.779,2.724,2.49,2.49,0,0,1-2.092,1.029,2.578,2.578,0,0,1-2.167-.991L70.562,31H69.4V20.5h1.265v3.917a2.564,2.564,0,0,1,2.112-.95,2.505,2.505,0,0,1,2.116,1.019,4.53,4.53,0,0,1,.769,2.789ZM74.4,27.24a3.417,3.417,0,0,0-.5-2,1.652,1.652,0,0,0-1.436-.7,1.857,1.857,0,0,0-1.8,1.162v3.2a1.909,1.909,0,0,0,1.812,1.162,1.643,1.643,0,0,0,1.415-.7A3.634,3.634,0,0,0,74.4,27.24Zm6.433-2.5a3.79,3.79,0,0,0-.622-.048,1.667,1.667,0,0,0-1.688,1.06V31H77.254V23.6h1.23l.021.854a1.969,1.969,0,0,1,1.764-.991,1.292,1.292,0,0,1,.561.1ZM83.366,31H82.1V23.6h1.265ZM82,21.642a.755.755,0,0,1,.188-.52.706.706,0,0,1,.557-.212.717.717,0,0,1,.561.212.747.747,0,0,1,.191.52.722.722,0,0,1-.191.513.73.73,0,0,1-.561.205.718.718,0,0,1-.557-.205A.73.73,0,0,1,82,21.642ZM86.763,31H85.5V20.5h1.265Zm3.4,0H88.9V20.5h1.265Zm6.59,0a2.657,2.657,0,0,1-.178-.779,2.822,2.822,0,0,1-2.105.916,2.611,2.611,0,0,1-1.794-.619,2,2,0,0,1-.7-1.569,2.091,2.091,0,0,1,.878-1.794,4.141,4.141,0,0,1,2.471-.639h1.23v-.581a1.42,1.42,0,0,0-.4-1.056,1.593,1.593,0,0,0-1.169-.393,1.844,1.844,0,0,0-1.135.342,1.007,1.007,0,0,0-.458.827H92.123a1.745,1.745,0,0,1,.393-1.07,2.683,2.683,0,0,1,1.066-.817,3.588,3.588,0,0,1,1.48-.3,2.924,2.924,0,0,1,2,.639,2.306,2.306,0,0,1,.752,1.76v3.4a4.162,4.162,0,0,0,.26,1.62V31Zm-2.1-.964a2.223,2.223,0,0,0,1.128-.308,1.861,1.861,0,0,0,.772-.8V27.411h-.991q-2.324,0-2.324,1.36a1.151,1.151,0,0,0,.4.93A1.524,1.524,0,0,0,94.652,30.036ZM101,23.6l.041.93a2.7,2.7,0,0,1,2.215-1.066q2.345,0,2.365,2.646V31h-1.265V26.105a1.7,1.7,0,0,0-.366-1.183,1.466,1.466,0,0,0-1.118-.383,1.825,1.825,0,0,0-1.08.328,2.228,2.228,0,0,0-.725.861V31H99.8V23.6Zm8.244-1.791V23.6h1.381v.978H109.24v4.593a1.027,1.027,0,0,0,.185.667.777.777,0,0,0,.629.222,3.062,3.062,0,0,0,.6-.082V31a3.688,3.688,0,0,1-.971.136,1.575,1.575,0,0,1-1.278-.513,2.2,2.2,0,0,1-.431-1.456V24.581h-1.347V23.6h1.347V21.813Zm5.927,9.324a3.232,3.232,0,0,1-2.447-.988,3.666,3.666,0,0,1-.943-2.642v-.232a4.438,4.438,0,0,1,.42-1.965,3.28,3.28,0,0,1,1.176-1.354,2.956,2.956,0,0,1,1.637-.489,2.77,2.77,0,0,1,2.242.95,4.114,4.114,0,0,1,.8,2.721v.526h-5.011a2.629,2.629,0,0,0,.639,1.767,2.009,2.009,0,0,0,1.555.673,2.2,2.2,0,0,0,1.135-.273,2.851,2.851,0,0,0,.813-.725l.772.6A3.106,3.106,0,0,1,115.167,31.137Zm-.157-6.631a1.687,1.687,0,0,0-1.285.557,2.708,2.708,0,0,0-.643,1.562h3.705v-.1a2.409,2.409,0,0,0-.52-1.494A1.588,1.588,0,0,0,115.009,24.506Z" transform="translate(998.5 10682)" fill="#12263f"/>
    <path id="Trazado_108154" data-name="Trazado 108154" d="M81.185,11.842a3.662,3.662,0,0,1-1.166,2.437,3.82,3.82,0,0,1-2.608.858,3.507,3.507,0,0,1-2.827-1.265,5.088,5.088,0,0,1-1.063-3.384V9.531a5.671,5.671,0,0,1,.5-2.44,3.7,3.7,0,0,1,1.4-1.617,3.911,3.911,0,0,1,2.105-.564,3.6,3.6,0,0,1,2.543.885,3.706,3.706,0,0,1,1.114,2.451H79.866a2.86,2.86,0,0,0-.742-1.728,2.244,2.244,0,0,0-1.6-.535,2.348,2.348,0,0,0-1.972.93,4.272,4.272,0,0,0-.714,2.648v.965a4.391,4.391,0,0,0,.677,2.579,2.187,2.187,0,0,0,1.894.958,2.526,2.526,0,0,0,1.678-.5,2.75,2.75,0,0,0,.776-1.726Zm5.168-3.1a3.79,3.79,0,0,0-.622-.048,1.667,1.667,0,0,0-1.688,1.06V15H82.778V7.6h1.23l.021.854a1.969,1.969,0,0,1,1.764-.991,1.292,1.292,0,0,1,.561.1Zm.69,2.5a4.369,4.369,0,0,1,.427-1.955,3.187,3.187,0,0,1,1.189-1.34,3.238,3.238,0,0,1,1.74-.472,3.119,3.119,0,0,1,2.444,1.046,4.024,4.024,0,0,1,.933,2.782v.089a4.407,4.407,0,0,1-.414,1.938,3.14,3.14,0,0,1-1.183,1.336,3.275,3.275,0,0,1-1.767.479,3.111,3.111,0,0,1-2.437-1.046,4,4,0,0,1-.933-2.769Zm1.271.15a3.164,3.164,0,0,0,.571,1.976,1.934,1.934,0,0,0,3.059-.01,3.46,3.46,0,0,0,.567-2.116,3.159,3.159,0,0,0-.578-1.972A1.836,1.836,0,0,0,90.4,8.506a1.816,1.816,0,0,0-1.511.745A3.435,3.435,0,0,0,88.315,11.384ZM96.552,7.6l.034.82a2.732,2.732,0,0,1,2.194-.957,2.115,2.115,0,0,1,2.112,1.189,2.8,2.8,0,0,1,.96-.861,2.837,2.837,0,0,1,1.4-.328q2.434,0,2.475,2.577V15h-1.265V10.119a1.7,1.7,0,0,0-.362-1.186,1.6,1.6,0,0,0-1.217-.393,1.677,1.677,0,0,0-1.169.42,1.706,1.706,0,0,0-.54,1.131V15H99.9V10.153A1.411,1.411,0,0,0,98.323,8.54a1.692,1.692,0,0,0-1.7,1.06V15H95.356V7.6ZM112.2,15a2.657,2.657,0,0,1-.178-.779,2.822,2.822,0,0,1-2.105.916,2.611,2.611,0,0,1-1.794-.619,2,2,0,0,1-.7-1.569,2.091,2.091,0,0,1,.878-1.794,4.141,4.141,0,0,1,2.471-.639H112V9.935a1.42,1.42,0,0,0-.4-1.056,1.593,1.593,0,0,0-1.169-.393,1.844,1.844,0,0,0-1.135.342,1.007,1.007,0,0,0-.458.827h-1.271a1.745,1.745,0,0,1,.393-1.07,2.683,2.683,0,0,1,1.066-.817,3.588,3.588,0,0,1,1.48-.3,2.924,2.924,0,0,1,2,.639,2.306,2.306,0,0,1,.752,1.76v3.4a4.162,4.162,0,0,0,.26,1.62V15Zm-2.1-.964a2.223,2.223,0,0,0,1.128-.308,1.861,1.861,0,0,0,.772-.8V11.411h-.991q-2.324,0-2.324,1.36a1.151,1.151,0,0,0,.4.93A1.524,1.524,0,0,0,110.1,14.036Zm-29.661,15a.931.931,0,0,0-.386-.8,3.718,3.718,0,0,0-1.347-.489,6.367,6.367,0,0,1-1.524-.492,2.169,2.169,0,0,1-.834-.684,1.635,1.635,0,0,1-.27-.943,1.919,1.919,0,0,1,.769-1.538,3,3,0,0,1,1.965-.629,3.091,3.091,0,0,1,2.041.649,2.063,2.063,0,0,1,.783,1.661H80.365a1.142,1.142,0,0,0-.441-.9,1.652,1.652,0,0,0-1.111-.376,1.729,1.729,0,0,0-1.08.3.947.947,0,0,0-.39.786.767.767,0,0,0,.362.69,4.458,4.458,0,0,0,1.309.444,6.821,6.821,0,0,1,1.535.506,2.239,2.239,0,0,1,.872.708,1.74,1.74,0,0,1,.284,1.008,1.893,1.893,0,0,1-.793,1.589,3.326,3.326,0,0,1-2.058.6,3.725,3.725,0,0,1-1.572-.314,2.557,2.557,0,0,1-1.07-.878,2.117,2.117,0,0,1-.386-1.22H77.09a1.309,1.309,0,0,0,.509,1.008,1.976,1.976,0,0,0,1.254.373,2.039,2.039,0,0,0,1.152-.291A.893.893,0,0,0,80.44,29.038Zm7.479,1.23a2.686,2.686,0,0,1-2.167.868,2.3,2.3,0,0,1-1.8-.687,2.974,2.974,0,0,1-.625-2.034V23.6h1.265v4.778q0,1.682,1.367,1.682a1.893,1.893,0,0,0,1.928-1.08V23.6h1.265V31h-1.2ZM95.636,31a2.657,2.657,0,0,1-.178-.779,2.822,2.822,0,0,1-2.105.916,2.611,2.611,0,0,1-1.794-.619,2,2,0,0,1-.7-1.569,2.091,2.091,0,0,1,.878-1.794,4.141,4.141,0,0,1,2.471-.639h1.23v-.581a1.42,1.42,0,0,0-.4-1.056,1.593,1.593,0,0,0-1.169-.393,1.844,1.844,0,0,0-1.135.342,1.007,1.007,0,0,0-.458.827H91.008a1.745,1.745,0,0,1,.393-1.07,2.683,2.683,0,0,1,1.066-.817,3.588,3.588,0,0,1,1.48-.3,2.924,2.924,0,0,1,2,.639,2.306,2.306,0,0,1,.752,1.76v3.4a4.162,4.162,0,0,0,.26,1.62V31Zm-2.1-.964a2.223,2.223,0,0,0,1.128-.308,1.861,1.861,0,0,0,.772-.8V27.411h-.991q-2.324,0-2.324,1.36a1.151,1.151,0,0,0,.4.93A1.524,1.524,0,0,0,93.538,30.036Zm7.485-.752,1.832-5.681h1.292L101.495,31h-.964l-2.68-7.4h1.292Zm7.41,1.853a3.232,3.232,0,0,1-2.447-.988,3.666,3.666,0,0,1-.943-2.642v-.232a4.438,4.438,0,0,1,.42-1.965,3.28,3.28,0,0,1,1.176-1.354,2.956,2.956,0,0,1,1.637-.489,2.77,2.77,0,0,1,2.242.95,4.114,4.114,0,0,1,.8,2.721v.526h-5.011a2.629,2.629,0,0,0,.639,1.767,2.009,2.009,0,0,0,1.555.673,2.2,2.2,0,0,0,1.135-.273,2.851,2.851,0,0,0,.813-.725l.772.6A3.106,3.106,0,0,1,108.433,31.137Zm-.157-6.631a1.687,1.687,0,0,0-1.285.557,2.708,2.708,0,0,0-.643,1.562h3.705v-.1a2.409,2.409,0,0,0-.52-1.494A1.588,1.588,0,0,0,108.276,24.506Z" transform="translate(996.5 10502)" fill="#12263f"/>
    <path id="Trazado_108151" data-name="Trazado 108151" d="M69.621,14.834a4.621,4.621,0,0,1-1.512,3.195A5.154,5.154,0,0,1,64.6,19.176a4.99,4.99,0,0,1-2.694-.725,4.759,4.759,0,0,1-1.8-2.061,7.438,7.438,0,0,1-.659-3.1v-1.2a7.491,7.491,0,0,1,.642-3.19,4.835,4.835,0,0,1,1.841-2.127,5.136,5.136,0,0,1,2.773-.747,4.946,4.946,0,0,1,3.41,1.147,4.793,4.793,0,0,1,1.5,3.248H67.406a3.161,3.161,0,0,0-.8-1.991,2.658,2.658,0,0,0-1.894-.611A2.6,2.6,0,0,0,62.48,8.88a5.3,5.3,0,0,0-.8,3.11v1.135a5.62,5.62,0,0,0,.743,3.167A2.464,2.464,0,0,0,64.6,17.383a2.875,2.875,0,0,0,1.969-.589,3.071,3.071,0,0,0,.835-1.96ZM73.673,19H71.537V5.5h2.136Zm8.007,0a3.3,3.3,0,0,1-.246-.888,3.593,3.593,0,0,1-4.834.246,2.615,2.615,0,0,1-.905-2.021A2.7,2.7,0,0,1,76.824,14a5.473,5.473,0,0,1,3.23-.813h1.31v-.624a1.666,1.666,0,0,0-.413-1.182,1.638,1.638,0,0,0-1.257-.444,1.881,1.881,0,0,0-1.2.365,1.129,1.129,0,0,0-.466.927H75.9a2.37,2.37,0,0,1,.519-1.463A3.455,3.455,0,0,1,77.826,9.7a4.955,4.955,0,0,1,1.991-.387,3.99,3.99,0,0,1,2.663.839,2.993,2.993,0,0,1,1.02,2.36V16.8a4.861,4.861,0,0,0,.36,2.048V19Zm-2.347-1.538a2.429,2.429,0,0,0,1.191-.308,2.055,2.055,0,0,0,.839-.826V14.535H80.212a3.148,3.148,0,0,0-1.784.413,1.338,1.338,0,0,0-.6,1.169,1.248,1.248,0,0,0,.409.98A1.583,1.583,0,0,0,79.333,17.462Zm11.382-6.021a5.285,5.285,0,0,0-.87-.07A1.959,1.959,0,0,0,87.867,12.5V19H85.731V9.49h2.039l.053,1.063a2.406,2.406,0,0,1,2.145-1.239,2,2,0,0,1,.756.123ZM97.482,19a3.3,3.3,0,0,1-.246-.888,3.593,3.593,0,0,1-4.834.246,2.615,2.615,0,0,1-.905-2.021A2.7,2.7,0,0,1,92.626,14a5.473,5.473,0,0,1,3.23-.813h1.31v-.624a1.666,1.666,0,0,0-.413-1.182A1.638,1.638,0,0,0,95.5,10.94a1.881,1.881,0,0,0-1.2.365,1.129,1.129,0,0,0-.466.927H91.7a2.37,2.37,0,0,1,.519-1.463A3.455,3.455,0,0,1,93.628,9.7a4.955,4.955,0,0,1,1.991-.387,3.99,3.99,0,0,1,2.663.839,2.993,2.993,0,0,1,1.02,2.36V16.8a4.861,4.861,0,0,0,.36,2.048V19Zm-2.347-1.538a2.429,2.429,0,0,0,1.191-.308,2.055,2.055,0,0,0,.839-.826V14.535H96.015a3.148,3.148,0,0,0-1.784.413,1.338,1.338,0,0,0-.6,1.169,1.248,1.248,0,0,0,.409.98A1.583,1.583,0,0,0,95.136,17.462Z" transform="translate(813 10693) rotate(-90)" fill="#12263f"/>
    <path id="Icon_awesome-long-arrow-alt-right" data-name="Icon awesome-long-arrow-alt-right" d="M22.074,14.078H.844A.767.767,0,0,0,0,14.732v3.052a.767.767,0,0,0,.844.654h21.23v2.51c0,1.165,1.818,1.749,2.881.925l6.051-4.69a1.112,1.112,0,0,0,0-1.85l-6.051-4.69c-1.063-.824-2.881-.24-2.881.925Z" transform="translate(1131 10681.5)" fill="#b9b9b9"/>
    <path id="Icon_awesome-long-arrow-alt-right-2" data-name="Icon awesome-long-arrow-alt-right" d="M22.074,14.078H.844A.767.767,0,0,0,0,14.732v3.052a.767.767,0,0,0,.844.654h21.23v2.51c0,1.165,1.818,1.749,2.881.925l6.051-4.69a1.112,1.112,0,0,0,0-1.85l-6.051-4.69c-1.063-.824-2.881-.24-2.881.925Z" transform="translate(1131 10503.5)" fill="#b9b9b9"/>
    <path id="Icon_awesome-long-arrow-alt-right-3" data-name="Icon awesome-long-arrow-alt-right" d="M22.074,14.078H.844A.767.767,0,0,0,0,14.732v3.052a.767.767,0,0,0,.844.654h21.23v2.51c0,1.165,1.818,1.749,2.881.925l6.051-4.69a1.112,1.112,0,0,0,0-1.85l-6.051-4.69c-1.063-.824-2.881-.24-2.881.925Z" transform="translate(1054.5 10714.017) rotate(180)" fill="#b9b9b9"/>
    <path id="Icon_awesome-long-arrow-alt-right-4" data-name="Icon awesome-long-arrow-alt-right" d="M22.074,14.078H.844A.767.767,0,0,0,0,14.732v3.052a.767.767,0,0,0,.844.654h21.23v2.51c0,1.165,1.818,1.749,2.881.925l6.051-4.69a1.112,1.112,0,0,0,0-1.85l-6.051-4.69c-1.063-.824-2.881-.24-2.881.925Z" transform="translate(1054.5 10536.017) rotate(180)" fill="#b9b9b9"/>
  </g>
</svg>
