<svg xmlns="http://www.w3.org/2000/svg" xmlns:xlink="http://www.w3.org/1999/xlink" width="726" height="631" viewBox="0 0 726 631"><defs><filter id="a" x="0" y="0" width="726" height="631" filterUnits="userSpaceOnUse"><feOffset dy="3" input="SourceAlpha"/><feGaussianBlur stdDeviation="3" result="b"/><feFlood flood-opacity="0.161"/><feComposite operator="in" in2="b"/><feComposite in="SourceGraphic"/></filter><filter id="c" x="351.218" y="303.798" width="225.746" height="170.322" filterUnits="userSpaceOnUse"><feOffset dy="3" input="SourceAlpha"/><feGaussianBlur stdDeviation="3" result="d"/><feFlood flood-opacity="0.161"/><feComposite operator="in" in2="d"/><feComposite in="SourceGraphic"/></filter><filter id="e" x="352.633" y="302.384" width="170.318" height="226.317" filterUnits="userSpaceOnUse"><feOffset dy="3" input="SourceAlpha"/><feGaussianBlur stdDeviation="3" result="f"/><feFlood flood-opacity="0.161"/><feComposite operator="in" in2="f"/><feComposite in="SourceGraphic"/></filter><filter id="g" x="351.218" y="156.002" width="225.418" height="169.66" filterUnits="userSpaceOnUse"><feOffset dy="3" input="SourceAlpha"/><feGaussianBlur stdDeviation="3" result="h"/><feFlood flood-opacity="0.161"/><feComposite operator="in" in2="h"/><feComposite in="SourceGraphic"/></filter><filter id="i" x="350.701" y="250.156" width="233.172" height="129.242" filterUnits="userSpaceOnUse"><feOffset dy="3" input="SourceAlpha"/><feGaussianBlur stdDeviation="3" result="j"/><feFlood flood-opacity="0.161"/><feComposite operator="in" in2="j"/><feComposite in="SourceGraphic"/></filter><filter id="k" x="352.633" y="101.967" width="169.661" height="225.109" filterUnits="userSpaceOnUse"><feOffset dy="3" input="SourceAlpha"/><feGaussianBlur stdDeviation="3" result="l"/><feFlood flood-opacity="0.161"/><feComposite operator="in" in2="l"/><feComposite in="SourceGraphic"/></filter><filter id="m" x="298.716" y="301.867" width="129.666" height="234.02" filterUnits="userSpaceOnUse"><feOffset dy="3" input="SourceAlpha"/><feGaussianBlur stdDeviation="3" result="n"/><feFlood flood-opacity="0.161"/><feComposite operator="in" in2="n"/><feComposite in="SourceGraphic"/></filter><filter id="o" x="149.841" y="303.798" width="226.069" height="170.499" filterUnits="userSpaceOnUse"><feOffset dy="3" input="SourceAlpha"/><feGaussianBlur stdDeviation="3" result="p"/><feFlood flood-opacity="0.161"/><feComposite operator="in" in2="p"/><feComposite in="SourceGraphic"/></filter><filter id="q" x="204.002" y="302.384" width="170.494" height="226.426" filterUnits="userSpaceOnUse"><feOffset dy="3" input="SourceAlpha"/><feGaussianBlur stdDeviation="3" result="r"/><feFlood flood-opacity="0.161"/><feComposite operator="in" in2="r"/><feComposite in="SourceGraphic"/></filter><filter id="s" x="299.052" y="94.897" width="129.008" height="232.696" filterUnits="userSpaceOnUse"><feOffset dy="3" input="SourceAlpha"/><feGaussianBlur stdDeviation="3" result="t"/><feFlood flood-opacity="0.161"/><feComposite operator="in" in2="t"/><feComposite in="SourceGraphic"/></filter><filter id="u" x="204.656" y="101.905" width="169.841" height="225.171" filterUnits="userSpaceOnUse"><feOffset dy="3" input="SourceAlpha"/><feGaussianBlur stdDeviation="3" result="v"/><feFlood flood-opacity="0.161"/><feComposite operator="in" in2="v"/><feComposite in="SourceGraphic"/></filter><filter id="w" x="142.9" y="250.067" width="233.528" height="129.417" filterUnits="userSpaceOnUse"><feOffset dy="3" input="SourceAlpha"/><feGaussianBlur stdDeviation="3" result="x"/><feFlood flood-opacity="0.161"/><feComposite operator="in" in2="x"/><feComposite in="SourceGraphic"/></filter><filter id="y" x="150.157" y="155.828" width="225.754" height="169.834" filterUnits="userSpaceOnUse"><feOffset dy="3" input="SourceAlpha"/><feGaussianBlur stdDeviation="3" result="z"/><feFlood flood-opacity="0.161"/><feComposite operator="in" in2="z"/><feComposite in="SourceGraphic"/></filter><filter id="aa" x="238.332" y="188.69" width="257.892" height="257.892" filterUnits="userSpaceOnUse"><feOffset dy="3" input="SourceAlpha"/><feGaussianBlur stdDeviation="3" result="ab"/><feFlood flood-opacity="0.161"/><feComposite operator="in" in2="ab"/><feComposite in="SourceGraphic"/></filter></defs><g transform="translate(-691 -7718)"><g transform="matrix(1, 0, 0, 1, 691, 7718)" filter="url(#a)"><rect width="708" height="613" rx="14" transform="translate(9 6)" fill="#fff"/></g><g transform="translate(0.385 4)"><g transform="matrix(1, 0, 0, 1, 690.61, 7714)" filter="url(#c)"><path d="M-1199.308,1098.685c-.058.221-.1.442-.16.663a209.325,209.325,0,0,1-54.047,93.869l-148.973-148.974Z" transform="translate(1766.05 -732.51)" fill="#fef121" stroke="#fff" stroke-miterlimit="10" stroke-width="2"/></g><g transform="matrix(1, 0, 0, 1, 690.61, 7714)" filter="url(#e)"><path d="M-1253.515,1193.217a211.164,211.164,0,0,1-43.967,33.867,211.15,211.15,0,0,1-50.413,20.9l-54.593-203.744Z" transform="translate(1766.05 -732.51)" fill="#8ad21b" stroke="#fff" stroke-miterlimit="10" stroke-width="2"/></g><g transform="matrix(1, 0, 0, 1, 690.61, 7714)" filter="url(#g)"><path d="M-1254.174,895.929a211.094,211.094,0,0,1,33.691,43.79,211.184,211.184,0,0,1,20.839,50.173l-202.844,54.351Z" transform="translate(1766.05 -732.51)" fill="#f6ac43" stroke="#fff" stroke-miterlimit="10" stroke-width="2"/></g><g transform="matrix(1, 0, 0, 1, 690.61, 7714)" filter="url(#i)"><path d="M-1199.644,989.892a209.3,209.3,0,0,1,.336,108.793l-203.18-54.442Z" transform="translate(1766.05 -732.51)" fill="#face32" stroke="#fff" stroke-miterlimit="10" stroke-width="2"/></g><g transform="matrix(1, 0, 0, 1, 690.61, 7714)" filter="url(#k)"><path d="M-1348.218,841.7a209.306,209.306,0,0,1,94.044,54.225l-148.314,148.314Z" transform="translate(1766.05 -732.51)" fill="#fb7833" stroke="#fff" stroke-miterlimit="10" stroke-width="2"/></g><g transform="matrix(1, 0, 0, 1, 690.61, 7714)" filter="url(#m)"><path d="M-1347.9,1247.987a209.309,209.309,0,0,1-109.217.112l54.624-203.856Z" transform="translate(1766.05 -732.51)" fill="#34b534" stroke="#fff" stroke-miterlimit="10" stroke-width="2"/></g><g transform="matrix(1, 0, 0, 1, 690.61, 7714)" filter="url(#o)"><path d="M-1551.638,1193.394a211.14,211.14,0,0,1-33.208-43.31,211.142,211.142,0,0,1-21.142-51.313l203.5-54.528Z" transform="translate(1766.05 -732.51)" fill="#197ac4" stroke="#fff" stroke-miterlimit="10" stroke-width="2"/></g><g transform="matrix(1, 0, 0, 1, 690.61, 7714)" filter="url(#q)"><path d="M-1457.112,1248.1a209.3,209.3,0,0,1-94.526-54.7l149.15-149.151Z" transform="translate(1766.05 -732.51)" fill="#1bb3cf" stroke="#fff" stroke-miterlimit="10" stroke-width="2"/></g><g transform="matrix(1, 0, 0, 1, 690.61, 7714)" filter="url(#s)"><path d="M-1402.488,1044.243l-54.288-202.6a209.313,209.313,0,0,1,108.558.062Z" transform="translate(1766.05 -732.51)" fill="#ff4929" stroke="#fff" stroke-miterlimit="10" stroke-width="2"/></g><g transform="matrix(1, 0, 0, 1, 690.61, 7714)" filter="url(#u)"><path d="M-1550.98,895.752a211.092,211.092,0,0,1,43.133-33.032,211.131,211.131,0,0,1,51.071-21.078l54.288,202.6Z" transform="translate(1766.05 -732.51)" fill="#d24499" stroke="#fff" stroke-miterlimit="10" stroke-width="2"/></g><g transform="matrix(1, 0, 0, 1, 690.61, 7714)" filter="url(#w)"><path d="M-1605.988,1098.771a209.313,209.313,0,0,1,.127-108.316c.059-.22.132-.433.193-.653l203.18,54.441Z" transform="translate(1766.05 -732.51)" fill="#525eba" stroke="#fff" stroke-miterlimit="10" stroke-width="2"/></g><g transform="matrix(1, 0, 0, 1, 690.61, 7714)" filter="url(#y)"><path d="M-1605.668,989.8a209.3,209.3,0,0,1,54.688-94.05l148.492,148.491Z" transform="translate(1766.05 -732.51)" fill="#7e38b0" stroke="#fff" stroke-miterlimit="10" stroke-width="2"/></g><g transform="matrix(1, 0, 0, 1, 690.61, 7714)" filter="url(#aa)"><circle cx="119.946" cy="119.946" r="119.946" transform="translate(247.33 194.69)" fill="#fff"/></g><path d="M-1548.172,1129.885l145.438-247.755,144.367,79.364-145.272,248.13Z" transform="translate(2456.667 6981.487)" fill="none" stroke="#282828" stroke-miterlimit="10" stroke-width="5"/><circle cx="11.826" cy="11.826" r="11.826" transform="translate(1042.107 7851.792)" fill="#ff4929" stroke="#282828" stroke-miterlimit="10" stroke-width="4"/><circle cx="11.826" cy="11.826" r="11.826" transform="translate(896.835 8098.202)" fill="#197ac4" stroke="#282828" stroke-miterlimit="10" stroke-width="4"/><circle cx="11.826" cy="11.826" r="11.826" transform="translate(1186.473 7931.155)" fill="#f6ac43" stroke="#282828" stroke-miterlimit="10" stroke-width="4"/><circle cx="11.826" cy="11.826" r="11.826" transform="translate(1041.201 8177.565)" fill="#34b534" stroke="#282828" stroke-miterlimit="10" stroke-width="4"/></g></g></svg>