<svg xmlns="http://www.w3.org/2000/svg" xmlns:xlink="http://www.w3.org/1999/xlink" width="296.406" height="314.524" viewBox="0 0 296.406 314.524">
  <defs>
    <linearGradient id="linear-gradient" x1="1" y1="0.5" x2="0" y2="0.5" gradientUnits="objectBoundingBox">
      <stop offset="0" stop-color="#b4bbe1" stop-opacity="0.102"/>
      <stop offset="0.627" stop-color="#b4bbe1" stop-opacity="0.239"/>
      <stop offset="1" stop-color="#b4bbe1" stop-opacity="0.302"/>
    </linearGradient>
    <clipPath id="clip-path">
      <path id="Trazado_98621" data-name="Trazado 98621" d="M230.047,170.272c11.815,0,20.049-5.316,20.049-10.087s5.337-74.512-30.378-72.107c-11.789.793-9.72,67.336-9.72,72.107S218.231,170.272,230.047,170.272Z" transform="translate(-209.858 -88.017)" fill="none"/>
    </clipPath>
    <linearGradient id="linear-gradient-2" x1="0.074" y1="0.075" x2="0.926" y2="0.927" xlink:href="#linear-gradient"/>
    <linearGradient id="linear-gradient-4" x1="1.811" y1="0.513" x2="-15.442" y2="0.338" gradientUnits="objectBoundingBox">
      <stop offset="0.035" stop-color="#ffa98c"/>
      <stop offset="0.317" stop-color="#feb892"/>
      <stop offset="0.86" stop-color="#fee0a3"/>
      <stop offset="1" stop-color="#feeca8"/>
    </linearGradient>
    <linearGradient id="linear-gradient-5" x1="11.754" y1="0.585" x2="-11.254" y2="0.411" xlink:href="#linear-gradient-4"/>
    <linearGradient id="linear-gradient-6" x1="-0.018" y1="-1.204" x2="0.539" y2="0.63" xlink:href="#linear-gradient-4"/>
    <linearGradient id="linear-gradient-7" x1="0.703" y1="0.535" x2="-1.967" y2="0.071" xlink:href="#linear-gradient-4"/>
    <linearGradient id="linear-gradient-8" x1="1.893" y1="0.906" x2="-0.955" y2="0.076" xlink:href="#linear-gradient-4"/>
    <linearGradient id="linear-gradient-9" x1="0.319" y1="-0.097" x2="0.514" y2="0.546" xlink:href="#linear-gradient-4"/>
    <linearGradient id="linear-gradient-25" x1="1.811" y1="0.513" x2="-15.44" y2="0.338" xlink:href="#linear-gradient-4"/>
    <linearGradient id="linear-gradient-26" x1="11.752" y1="0.585" x2="-11.252" y2="0.411" xlink:href="#linear-gradient-4"/>
    <radialGradient id="radial-gradient" cx="0.5" cy="0.5" r="0.31" gradientTransform="matrix(-1.221, 0.709, -1.221, -0.701, 644.198, -201.068)" gradientUnits="objectBoundingBox">
      <stop offset="0.056" stop-color="#92a3b0"/>
      <stop offset="1" stop-color="#fff"/>
    </radialGradient>
    <radialGradient id="radial-gradient-2" cx="0.5" cy="0.5" r="0.408" gradientTransform="matrix(1.495, -0.505, -0.874, -0.863, 0.189, 1.184)" gradientUnits="objectBoundingBox">
      <stop offset="0" stop-color="#fff"/>
      <stop offset="1"/>
    </radialGradient>
    <radialGradient id="radial-gradient-3" cx="0.5" cy="0.5" r="0.31" gradientTransform="matrix(-1.221, 0.709, -1.221, -0.701, 205.659, -63.486)" gradientUnits="objectBoundingBox">
      <stop offset="0" stop-color="#f5f6f8"/>
      <stop offset="0.137" stop-color="#f0f2f4"/>
      <stop offset="0.292" stop-color="#e2e6ea"/>
      <stop offset="0.455" stop-color="#ccd3da"/>
      <stop offset="0.623" stop-color="#acb9c3"/>
      <stop offset="0.712" stop-color="#99a9b5"/>
      <stop offset="0.762" stop-color="#a3b1bc"/>
      <stop offset="0.847" stop-color="#bec8d0"/>
      <stop offset="0.957" stop-color="#ebeef0"/>
      <stop offset="1" stop-color="#fff"/>
    </radialGradient>
  </defs>
  <g id="Grupo_53157" data-name="Grupo 53157" transform="translate(0)">
    <g id="Grupo_53063" data-name="Grupo 53063" transform="translate(236.1 16.239)">
      <g id="Grupo_53039" data-name="Grupo 53039" transform="translate(0.017 9.735)">
        <path id="Trazado_98573" data-name="Trazado 98573" d="M202.234,67.595l-4.189-2.434L142.115,98.88l4.189,2.434Z" transform="translate(-142.115 -65.16)" fill="#c9c4d2"/>
      </g>
      <path id="Trazado_98574" data-name="Trazado 98574" d="M200.572,101.314l.169,59.892c0,.194.011.381.027.561l.005.048c.017.165.04.324.07.477l.012.061a4.387,4.387,0,0,0,.11.425c.008.025.017.05.025.075a3.884,3.884,0,0,0,.143.367c.006.012.01.025.016.037a3.253,3.253,0,0,0,.2.369,2.691,2.691,0,0,0,.354.438c.031.032.063.063.1.093a2.472,2.472,0,0,0,.432.328h0l-4.189-2.435a2.466,2.466,0,0,1-.431-.328q-.049-.045-.1-.093a2.788,2.788,0,0,1-.354-.438l-.006-.007a3.433,3.433,0,0,1-.193-.35l-.005-.012c-.005-.012-.01-.025-.016-.038-.035-.078-.07-.157-.1-.241-.015-.04-.028-.083-.042-.125-.008-.025-.017-.05-.025-.076s-.016-.044-.022-.068c-.025-.084-.048-.171-.068-.261-.008-.031-.013-.064-.02-.1l-.012-.06c-.006-.032-.013-.062-.019-.094-.014-.08-.026-.161-.036-.244-.006-.045-.01-.092-.015-.139l0-.049c0-.019,0-.038-.006-.058-.006-.079-.011-.159-.015-.241s0-.163,0-.247v-.014l-.17-59.892Z" transform="translate(-196.366 -55.425)" fill="#a8cff0"/>
      <path id="Trazado_98575" data-name="Trazado 98575" d="M197.876,67.6l-55.93,33.719.169,59.892c.01,3.244,2.309,4.554,5.132,2.924l45.7-27.815a11.232,11.232,0,0,0,5.094-8.828Z" transform="translate(-137.74 -55.425)" fill="#fff"/>
      <path id="Trazado_98576" data-name="Trazado 98576" d="M143.628,92.541c0-.082.006-.164.011-.247l.009-.114,0-.049c0-.028,0-.057.007-.085.008-.083.017-.167.028-.251s.023-.17.036-.256l0-.008,0-.011c.012-.08.026-.16.041-.24s.035-.177.054-.266c.007-.032.015-.064.023-.1l.013-.056c.009-.039.017-.077.027-.116.022-.09.046-.181.071-.271.018-.067.038-.133.058-.2l.011-.038.01-.034c.027-.088.055-.176.085-.264s.059-.174.091-.261l.018-.049.015-.039c.02-.055.04-.109.061-.163.032-.083.065-.166.1-.249.025-.059.05-.118.076-.177l.014-.033.014-.033c.037-.083.074-.166.113-.248s.086-.18.131-.27l.021-.041.027-.052c.036-.072.073-.143.11-.214.048-.088.1-.175.148-.263.025-.044.049-.089.075-.134.01-.017.019-.035.03-.053.045-.076.094-.149.141-.224.067-.11.134-.22.205-.328.012-.017.022-.035.033-.052.1-.154.208-.3.317-.452l.007-.01v0c.075-.1.151-.2.228-.3.062-.078.125-.156.188-.232l0-.006,0,0q.1-.117.2-.231c.066-.075.132-.149.2-.221l.033-.034.034-.036c.047-.05.094-.1.143-.15.071-.072.142-.143.215-.213l.066-.061.052-.048.107-.1c.075-.067.151-.133.227-.2.033-.028.067-.054.1-.081l.052-.043.075-.062c.075-.058.149-.115.225-.171l.162-.115.032-.022.028-.021c.072-.049.144-.1.217-.143s.143-.09.216-.132l.05-.029,45.7-27.816.162-.091c.07-.038.14-.074.209-.108l.135-.064.032-.015.04-.018q.1-.046.2-.087c.069-.028.138-.054.206-.078l.036-.011.031-.01c.046-.016.092-.032.138-.045.071-.022.141-.041.211-.059l.1-.022.043-.01.065-.014c.075-.015.15-.027.224-.037.046-.006.091-.01.136-.014l.046-.005.045,0c.081-.006.161-.008.24-.008.035,0,.069,0,.1.005l.079,0c.027,0,.055,0,.082,0,.1.01.2.024.294.043l.006,0c.022,0,.043.013.065.018a2.534,2.534,0,0,1,.287.079l.022.01a2.491,2.491,0,0,1,.392.181l4.189,2.434a2.533,2.533,0,0,0-.392-.181,2.656,2.656,0,0,0-.308-.089c-.023,0-.043-.013-.066-.018a2.808,2.808,0,0,0-.382-.048l-.08,0a3.169,3.169,0,0,0-.388.008l-.047,0a4.117,4.117,0,0,0-.424.065l-.043.01a4.482,4.482,0,0,0-.45.126l-.032.01c-.159.055-.321.119-.485.194l-.032.016q-.251.115-.507.262l-45.7,27.816c-.173.1-.343.208-.511.325l-.032.022q-.235.165-.462.348l-.053.043c-.147.121-.291.247-.434.379l-.051.048c-.144.136-.286.278-.425.424L150.91,88c-.147.158-.292.321-.432.49l-.005.006q-.215.259-.417.533l-.007.011c-.121.164-.237.332-.35.5-.072.108-.139.22-.207.331-.057.091-.115.181-.169.274-.026.045-.05.09-.076.135-.089.158-.176.316-.257.476l-.027.052q-.148.294-.279.592l-.014.033q-.128.292-.237.589l-.015.039q-.113.3-.2.609l-.011.037c-.059.195-.111.391-.157.586l-.013.056c-.046.2-.086.4-.118.6v.011c-.033.2-.056.4-.073.6l0,.047c-.016.2-.024.4-.024.592l.018,6.108-4.189-2.434-.017-6.109C143.624,92.695,143.625,92.618,143.628,92.541Z" transform="translate(-143.625 -55.425)" fill="#0ba19f"/>
      <g id="Grupo_53040" data-name="Grupo 53040" transform="translate(4.188 2.434)">
        <path id="Trazado_98577" data-name="Trazado 98577" d="M147.214,86.375a11.245,11.245,0,0,0-5.1,8.831l.018,6.108L198.063,67.6l-.018-6.109c-.009-3.244-2.3-4.557-5.128-2.927Z" transform="translate(-142.115 -57.859)" fill="#3ecfcd"/>
      </g>
      <g id="Grupo_53062" data-name="Grupo 53062" transform="translate(13.656 25.875)">
        <g id="Grupo_53051" data-name="Grupo 53051" transform="translate(23.529 21.309)">
          <g id="Grupo_53045" data-name="Grupo 53045">
            <g id="Grupo_53041" data-name="Grupo 53041">
              <path id="Trazado_98578" data-name="Trazado 98578" d="M150.466,110.967l14.6-8.358v.9a.618.618,0,0,1-.057.047l-14.543,8.325Z" transform="translate(-150.466 -102.609)" fill="#2672ab"/>
            </g>
            <g id="Grupo_53042" data-name="Grupo 53042" transform="translate(0 8.481)">
              <path id="Trazado_98579" data-name="Trazado 98579" d="M150.466,119.448l14.6-8.358v.9c-.019.013-.037.035-.057.047l-14.543,8.325Z" transform="translate(-150.466 -111.09)" fill="#2672ab"/>
            </g>
            <g id="Grupo_53043" data-name="Grupo 53043" transform="translate(0 16.961)">
              <path id="Trazado_98580" data-name="Trazado 98580" d="M150.466,127.928l14.6-8.358v.9a.618.618,0,0,1-.057.047l-14.543,8.325Z" transform="translate(-150.466 -119.57)" fill="#2672ab"/>
            </g>
            <g id="Grupo_53044" data-name="Grupo 53044" transform="translate(6.862 25.439)">
              <path id="Trazado_98581" data-name="Trazado 98581" d="M150.466,132.429l7.738-4.381v.9c-.019.013-.036.034-.055.045l-7.683,4.35Z" transform="translate(-150.466 -128.048)" fill="#2672ab"/>
            </g>
          </g>
          <g id="Grupo_53050" data-name="Grupo 53050" transform="translate(0 4.38)">
            <g id="Grupo_53046" data-name="Grupo 53046">
              <path id="Trazado_98582" data-name="Trazado 98582" d="M150.466,115.347l14.6-8.358v.9a.617.617,0,0,1-.057.047l-14.543,8.325Z" transform="translate(-150.466 -106.989)" fill="#2672ab"/>
            </g>
            <g id="Grupo_53047" data-name="Grupo 53047" transform="translate(0 8.481)">
              <path id="Trazado_98583" data-name="Trazado 98583" d="M150.466,123.828l14.6-8.358v.9c-.019.013-.037.035-.057.047l-14.543,8.325Z" transform="translate(-150.466 -115.47)" fill="#2672ab"/>
            </g>
            <g id="Grupo_53048" data-name="Grupo 53048" transform="translate(0 16.961)">
              <path id="Trazado_98584" data-name="Trazado 98584" d="M165.066,123.95v.9a.618.618,0,0,1-.057.047l-10.6,6.068h-.657v.377l-3.285,1.88v-.914Z" transform="translate(-150.466 -123.95)" fill="#2672ab"/>
            </g>
            <g id="Grupo_53049" data-name="Grupo 53049" transform="translate(11.388 25.44)">
              <path id="Trazado_98585" data-name="Trazado 98585" d="M150.466,134.254l3.212-1.825v.9c-.019.013-.036.034-.055.046l-3.157,1.792Z" transform="translate(-150.466 -132.429)" fill="#2672ab"/>
            </g>
          </g>
        </g>
        <g id="Grupo_53059" data-name="Grupo 53059" transform="translate(1.142 32.211)">
          <g id="Grupo_53055" data-name="Grupo 53055" transform="translate(0)">
            <g id="Grupo_53052" data-name="Grupo 53052" transform="translate(0)">
              <path id="Trazado_98586" data-name="Trazado 98586" d="M172.853,121.869l14.6-8.358v.9c-.02.013-.037.035-.057.047l-14.543,8.325Z" transform="translate(-172.853 -113.511)" fill="#2672ab"/>
            </g>
            <g id="Grupo_53053" data-name="Grupo 53053" transform="translate(0 8.48)">
              <path id="Trazado_98587" data-name="Trazado 98587" d="M172.853,130.349l14.6-8.358v.9c-.02.014-.037.036-.057.047l-14.543,8.325Z" transform="translate(-172.853 -121.991)" fill="#2672ab"/>
            </g>
            <g id="Grupo_53054" data-name="Grupo 53054" transform="translate(6.545 16.961)">
              <path id="Trazado_98588" data-name="Trazado 98588" d="M172.853,135.088l8.055-4.616v.9c-.02.013-.037.035-.057.047l-8,4.583Z" transform="translate(-172.853 -130.472)" fill="#2672ab"/>
            </g>
          </g>
          <g id="Grupo_53058" data-name="Grupo 53058" transform="translate(0 4.38)">
            <g id="Grupo_53056" data-name="Grupo 53056" transform="translate(0)">
              <path id="Trazado_98589" data-name="Trazado 98589" d="M172.853,126.249l14.6-8.358v.9c-.02.013-.037.035-.057.047l-14.543,8.325Z" transform="translate(-172.853 -117.891)" fill="#2672ab"/>
            </g>
            <g id="Grupo_53057" data-name="Grupo 53057" transform="translate(0 8.48)">
              <path id="Trazado_98590" data-name="Trazado 98590" d="M172.853,134.729l14.6-8.358v.9c-.02.014-.037.036-.057.047l-14.543,8.325Z" transform="translate(-172.853 -126.371)" fill="#2672ab"/>
            </g>
          </g>
        </g>
        <g id="Grupo_53060" data-name="Grupo 53060" transform="translate(24.18)">
          <path id="Trazado_98591" data-name="Trazado 98591" d="M149.728,82.307l.024,8.438L157.1,86.5c-.007-2.33-.834-3.968-2.169-4.723s-3.17-.646-5.2.525" transform="translate(-142.408 -81.3)" fill="#dae3f2"/>
          <path id="Trazado_98592" data-name="Trazado 98592" d="M156.226,87.962l-5.654,3.265.018,6.5a12.419,12.419,0,0,0,5.636-9.762" transform="translate(-142.383 -81.3)" fill="#3ecfcd"/>
          <path id="Trazado_98593" data-name="Trazado 98593" d="M164.391,82.307a16.14,16.14,0,0,0-7.32,12.678c.007,2.33.834,3.963,2.169,4.723l5.175-8.963-.024-8.438" transform="translate(-157.071 -81.3)" fill="#2672ab"/>
          <path id="Trazado_98594" data-name="Trazado 98594" d="M162.223,90.745l-5.175,8.963c1.33.758,3.17.641,5.2-.529l-.023-8.434" transform="translate(-154.879 -81.3)" fill="#b4bbe1"/>
        </g>
        <g id="Grupo_53061" data-name="Grupo 53061" transform="translate(0 16.547)">
          <path id="Trazado_98595" data-name="Trazado 98595" d="M173.406,100.172l4.028-2.325.02,7.019-4.028,2.325-.02-7.019" transform="translate(-162.265 -97.847)" fill="#3ecfcd"/>
          <path id="Trazado_98596" data-name="Trazado 98596" d="M178.813,100.337l4.031-2.327.028,9.978-4.031,2.327-.028-9.978" transform="translate(-173.09 -97.847)" fill="#dae3f2"/>
          <path id="Trazado_98597" data-name="Trazado 98597" d="M184.532,100.871l4.028-2.325.036,12.743-4.028,2.325-.036-12.743" transform="translate(-184.532 -97.847)" fill="#2672ab"/>
        </g>
      </g>
    </g>
    <g id="Grupo_53156" data-name="Grupo 53156" transform="translate(0 0)">
      <g id="Grupo_53087" data-name="Grupo 53087" transform="translate(185.124 48.831)">
        <g id="Grupo_53065" data-name="Grupo 53065" transform="translate(0 59.092)">
          <path id="Trazado_98598" data-name="Trazado 98598" d="M213.479,214c0,5.239,7.482,9.485,16.712,9.485S246.9,219.238,246.9,214s-7.482-9.484-16.711-9.484S213.479,208.761,213.479,214Z" transform="translate(-207.153 -147.11)" fill="url(#linear-gradient)"/>
          <path id="Trazado_98599" data-name="Trazado 98599" d="M253.228,160.185,246.9,210.473l-.066,0c-.672,4.889-7.859,8.739-16.645,8.739-9.23,0-16.712-4.246-16.712-9.484l-6.326-49.541Z" transform="translate(-207.153 -147.11)" fill="#347ee7"/>
          <path id="Trazado_98600" data-name="Trazado 98600" d="M207.157,160.19l6.327,49.541c0,3.839,4.012,7.141,9.789,8.631a6.163,6.163,0,0,1-1.387-3.783l-6.316-49.541h37.047l.608-4.848Z" transform="translate(-207.154 -147.11)" fill="#206fce"/>
          <g id="Grupo_53064" data-name="Grupo 53064" transform="translate(0)">
            <ellipse id="Elipse_3936" data-name="Elipse 3936" cx="23.037" cy="13.075" rx="23.037" ry="13.075" transform="translate(0)" fill="#d0dcfe"/>
            <ellipse id="Elipse_3937" data-name="Elipse 3937" cx="20.049" cy="10.087" rx="20.049" ry="10.087" transform="translate(2.989 2.989)" fill="#272c91"/>
            <ellipse id="Elipse_3938" data-name="Elipse 3938" cx="20.049" cy="10.087" rx="20.049" ry="10.087" transform="translate(2.989 2.989)" fill="#272c91"/>
          </g>
        </g>
        <g id="Grupo_53086" data-name="Grupo 53086" transform="translate(2.849)">
          <g id="Grupo_53085" data-name="Grupo 53085" clip-path="url(#clip-path)">
            <g id="Grupo_53067" data-name="Grupo 53067" transform="translate(3.4 48.307)">
              <rect id="Rectángulo_5016" data-name="Rectángulo 5016" width="1.521" height="8.837" rx="0.501" transform="translate(9.249 19.134) rotate(169.022)" fill="#fd9220"/>
              <g id="Grupo_53066" data-name="Grupo 53066" transform="translate(0)">
                <path id="Trazado_98601" data-name="Trazado 98601" d="M231.668,193.439c.132.693,1.351.8,2.723.232s2.378-1.586,2.247-2.28-1.351-.8-2.723-.232S231.537,192.745,231.668,193.439Z" transform="translate(-221.327 -136.324)" fill="#9a98ed"/>
                <path id="Trazado_98602" data-name="Trazado 98602" d="M236.638,136.921l10.329,54.471L242,193.439l-10.329-54.47Z" transform="translate(-231.657 -136.324)" fill="#fbc006"/>
                <path id="Trazado_98603" data-name="Trazado 98603" d="M242,138.968c.132.694,1.351.8,2.723.232s2.378-1.586,2.247-2.279-1.351-.8-2.723-.232S241.866,138.275,242,138.968Z" transform="translate(-241.986 -136.324)" fill="#205ce1"/>
              </g>
            </g>
            <g id="Grupo_53084" data-name="Grupo 53084" transform="translate(16.045 32.503)">
              <path id="Trazado_98604" data-name="Trazado 98604" d="M222.788,125.117l.041,1.735.02.707.061,2.387.01.707.061,2.386.02.708.051,2.317.02.708.061,2.344.02.708.051,2.386.02.694.061,2.386.021.708.05,2.345.021.693.06,2.359.011.707.06,2.359.021.694.05,2.4.021.708.061,2.386.02.694.051,2.372.02.694.061,2.4.02.694.051,2.358.02.708.061,2.386.01.694.243,9.754c.051,2.233,1.654,3.787,3.216,3.121l5.173-2.219a3.5,3.5,0,0,0,1.724-3.372l-1.755-57.175c-.06-2.026-1.409-3.524-2.87-3.191l-4.849,1.1C223.63,121.94,222.748,123.411,222.788,125.117Z" transform="translate(-222.786 -120.521)" fill="#205ce1"/>
              <g id="Grupo_53068" data-name="Grupo 53068" transform="translate(0.042 5.764)">
                <path id="Trazado_98605" data-name="Trazado 98605" d="M231.823,126.852l.02.707a.062.062,0,0,0,.041-.014l2.2-.568a.387.387,0,0,0,.2-.417c-.031-.18-.163-.319-.3-.263Z" transform="translate(-231.823 -126.284)" fill="#fff"/>
              </g>
              <g id="Grupo_53069" data-name="Grupo 53069" transform="translate(0.123 8.849)">
                <path id="Trazado_98606" data-name="Trazado 98606" d="M231.739,129.946l.01.707a.071.071,0,0,0,.051-.014l2.2-.582a.337.337,0,0,0,.2-.4c-.031-.18-.163-.319-.294-.277Z" transform="translate(-231.739 -129.369)" fill="#fff"/>
              </g>
              <g id="Grupo_53070" data-name="Grupo 53070" transform="translate(0.194 11.942)">
                <path id="Trazado_98607" data-name="Trazado 98607" d="M231.658,133.039l.02.708c.021,0,.031-.014.051-.014l2.2-.582a.345.345,0,0,0,.2-.4c-.03-.194-.152-.319-.294-.277Z" transform="translate(-231.658 -132.463)" fill="#fff"/>
              </g>
              <g id="Grupo_53071" data-name="Grupo 53071" transform="translate(0.265 14.967)">
                <path id="Trazado_98608" data-name="Trazado 98608" d="M231.6,136.064l.02.708c.021,0,.031,0,.041-.014l2.2-.583a.336.336,0,0,0,.2-.4c-.031-.194-.152-.319-.294-.278Z" transform="translate(-231.597 -135.487)" fill="#fff"/>
              </g>
              <g id="Grupo_53072" data-name="Grupo 53072" transform="translate(0.346 18.02)">
                <path id="Trazado_98609" data-name="Trazado 98609" d="M231.519,139.116l.02.708a.06.06,0,0,0,.041-.014l2.2-.583c.132-.027.223-.208.2-.4s-.162-.319-.3-.277Z" transform="translate(-231.519 -138.54)" fill="#fff"/>
              </g>
              <g id="Grupo_53073" data-name="Grupo 53073" transform="translate(0.417 21.108)">
                <path id="Trazado_98610" data-name="Trazado 98610" d="M231.438,142.21l.02.694h.051l2.2-.583a.385.385,0,0,0,.2-.416c-.03-.18-.162-.319-.3-.264Z" transform="translate(-231.438 -141.629)" fill="#fff"/>
              </g>
              <g id="Grupo_53074" data-name="Grupo 53074" transform="translate(0.498 24.194)">
                <path id="Trazado_98611" data-name="Trazado 98611" d="M231.377,145.29l.021.708a.031.031,0,0,0,.03-.014l2.2-.583c.132-.027.223-.208.2-.4s-.162-.319-.3-.277Z" transform="translate(-231.377 -144.714)" fill="#fff"/>
              </g>
              <g id="Grupo_53075" data-name="Grupo 53075" transform="translate(0.569 27.241)">
                <path id="Trazado_98612" data-name="Trazado 98612" d="M231.283,148.343l.021.693h.05l2.2-.582a.352.352,0,0,0,.2-.4c-.03-.194-.162-.333-.294-.277Z" transform="translate(-231.283 -147.761)" fill="#fff"/>
              </g>
              <g id="Grupo_53076" data-name="Grupo 53076" transform="translate(0.65 30.298)">
                <path id="Trazado_98613" data-name="Trazado 98613" d="M231.222,151.4l.011.707a.062.062,0,0,0,.04-.013l2.2-.583a.336.336,0,0,0,.2-.4c-.03-.2-.152-.319-.294-.278Z" transform="translate(-231.222 -150.818)" fill="#fff"/>
              </g>
              <g id="Grupo_53077" data-name="Grupo 53077" transform="translate(0.721 33.359)">
                <path id="Trazado_98614" data-name="Trazado 98614" d="M231.141,154.461l.021.694h.04l2.2-.583a.351.351,0,0,0,.2-.4c-.03-.194-.162-.333-.294-.278Z" transform="translate(-231.141 -153.88)" fill="#fff"/>
              </g>
              <g id="Grupo_53078" data-name="Grupo 53078" transform="translate(0.792 36.458)">
                <path id="Trazado_98615" data-name="Trazado 98615" d="M231.063,157.555l.021.708a.069.069,0,0,0,.05-.014l2.2-.583c.131-.028.223-.208.2-.4s-.152-.319-.3-.278Z" transform="translate(-231.063 -156.979)" fill="#fff"/>
              </g>
              <g id="Grupo_53079" data-name="Grupo 53079" transform="translate(0.874 39.538)">
                <path id="Trazado_98616" data-name="Trazado 98616" d="M230.979,160.649l.02.694h.01c.01,0,.03-.014.041-.014l2.2-.583a.342.342,0,0,0,.2-.4c-.02-.194-.152-.319-.294-.278Z" transform="translate(-230.979 -160.058)" fill="#fff"/>
              </g>
              <g id="Grupo_53080" data-name="Grupo 53080" transform="translate(0.945 42.605)">
                <path id="Trazado_98617" data-name="Trazado 98617" d="M230.89,163.715l.02.694h.02a.071.071,0,0,0,.051-.014l2.2-.583c.142-.027.223-.208.2-.4s-.163-.319-.294-.277Z" transform="translate(-230.89 -163.125)" fill="#fff"/>
              </g>
              <g id="Grupo_53081" data-name="Grupo 53081" transform="translate(1.026 45.712)">
                <path id="Trazado_98618" data-name="Trazado 98618" d="M230.85,166.809l.02.694h.03l2.2-.583a.375.375,0,0,0,.2-.4c-.03-.2-.152-.319-.3-.278Z" transform="translate(-230.85 -166.232)" fill="#fff"/>
              </g>
              <g id="Grupo_53082" data-name="Grupo 53082" transform="translate(1.097 48.765)">
                <path id="Trazado_98619" data-name="Trazado 98619" d="M230.776,169.861l.02.708a.031.031,0,0,0,.03-.014l2.2-.583a.334.334,0,0,0,.2-.4c-.02-.18-.152-.319-.294-.277Z" transform="translate(-230.776 -169.285)" fill="#fff"/>
              </g>
              <g id="Grupo_53083" data-name="Grupo 53083" transform="translate(1.178 51.858)">
                <path id="Trazado_98620" data-name="Trazado 98620" d="M230.684,172.955l.01.694h.051l2.2-.583a.352.352,0,0,0,.2-.4c-.021-.194-.163-.319-.295-.278Z" transform="translate(-230.684 -172.378)" fill="#fff"/>
              </g>
            </g>
          </g>
        </g>
      </g>
      <g id="Grupo_53089" data-name="Grupo 53089" transform="translate(194.284 154.983)">
        <g id="Grupo_53088" data-name="Grupo 53088" transform="translate(0)">
          <path id="Trazado_98622" data-name="Trazado 98622" d="M242.7,284.06l-16.133,9.293-38.423-22.119,16.009-9.346Z" transform="translate(-186.778 -194.169)" fill="url(#linear-gradient-2)"/>
          <path id="Trazado_98623" data-name="Trazado 98623" d="M194.12,195.431l35.9,20.678-12.178,7.007L192.1,202.147V196.6A1.348,1.348,0,0,1,194.12,195.431Z" transform="translate(-178.051 -194.169)" fill="#b4bbe1"/>
          <path id="Trazado_98624" data-name="Trazado 98624" d="M240.642,218.032l-35.7-20.562-12.851,7.415,35.687,20.556Z" transform="translate(-188.667 -194.169)" fill="#dae3f2"/>
          <path id="Trazado_98625" data-name="Trazado 98625" d="M189.816,202.657a1.469,1.469,0,0,1,1.555-.148l35.785,20.607,12.178-7.007-35.9-20.678a1.318,1.318,0,0,0-1.166-.075v-.008s1.251-.613,1.745-.905a1.453,1.453,0,0,1,1.505-.108l37.77,21.755v63.458l-14.148-8.15v16.324l-38.622-22.247a2.33,2.33,0,0,1-1.168-2.02L188.145,203.6S189.269,203,189.816,202.657Z" transform="translate(-187.366 -194.169)" fill="#ced2ef"/>
          <path id="Trazado_98626" data-name="Trazado 98626" d="M188.145,225.4l16.133-9.293v63.458l-16.133,9.293Z" transform="translate(-148.356 -194.169)" fill="#c5c8e8"/>
          <path id="Trazado_98627" data-name="Trazado 98627" d="M189.647,228.826l12.438-7.164v4.854l-12.438,7.164Z" transform="translate(-147.664 -194.169)" fill="#fff"/>
          <path id="Trazado_98628" data-name="Trazado 98628" d="M189.647,235.233l12.438-7.164v1.68l-12.438,7.164Z" transform="translate(-147.664 -194.169)" fill="#fff"/>
          <path id="Trazado_98629" data-name="Trazado 98629" d="M189.647,238.359l12.438-7.164v1.68l-12.438,7.164Z" transform="translate(-147.664 -194.169)" fill="#fff"/>
          <path id="Trazado_98630" data-name="Trazado 98630" d="M189.647,280.6l12.438-7.164v1.68l-12.438,7.164Z" transform="translate(-147.664 -194.169)" fill="#fff"/>
          <path id="Trazado_98631" data-name="Trazado 98631" d="M206.3,203.643l37.77,21.755v63.458l-38.622-22.247a2.33,2.33,0,0,1-1.168-2.02V204.81A1.347,1.347,0,0,1,206.3,203.643Z" transform="translate(-204.278 -194.169)" fill="#b4bbe1"/>
        </g>
      </g>
      <g id="Grupo_53091" data-name="Grupo 53091" transform="translate(170.271 166.95)">
        <g id="Grupo_53090" data-name="Grupo 53090" transform="translate(0)">
          <path id="Trazado_98632" data-name="Trazado 98632" d="M266.714,296.027l-16.133,9.293L212.158,283.2l16.009-9.346Z" transform="translate(-210.791 -206.136)" fill="url(#linear-gradient-2)"/>
          <path id="Trazado_98633" data-name="Trazado 98633" d="M218.133,207.4l35.9,20.678-12.178,7.007-25.741-20.969v-5.548A1.347,1.347,0,0,1,218.133,207.4Z" transform="translate(-202.064 -206.136)" fill="#b4bbe1"/>
          <path id="Trazado_98634" data-name="Trazado 98634" d="M264.655,230l-35.7-20.562-12.851,7.415,35.687,20.556Z" transform="translate(-212.68 -206.136)" fill="#dae3f2"/>
          <path id="Trazado_98635" data-name="Trazado 98635" d="M213.828,214.624a1.469,1.469,0,0,1,1.555-.149l35.785,20.608,12.178-7.007-35.9-20.678a1.322,1.322,0,0,0-1.166-.076v-.007s1.251-.614,1.745-.906a1.459,1.459,0,0,1,1.506-.108L267.3,228.057v63.457l-14.148-8.149v16.323l-38.622-22.246a2.331,2.331,0,0,1-1.168-2.02l-1.2-59.859S213.281,214.968,213.828,214.624Z" transform="translate(-211.378 -206.136)" fill="#ced2ef"/>
          <path id="Trazado_98636" data-name="Trazado 98636" d="M212.158,237.365l16.133-9.293V291.53l-16.133,9.293Z" transform="translate(-172.368 -206.136)" fill="#c5c8e8"/>
          <path id="Trazado_98637" data-name="Trazado 98637" d="M213.66,240.792l12.438-7.164v4.854l-12.438,7.164Z" transform="translate(-171.677 -206.136)" fill="#fff"/>
          <path id="Trazado_98638" data-name="Trazado 98638" d="M213.66,247.2l12.438-7.164v1.68L213.66,248.88Z" transform="translate(-171.677 -206.136)" fill="#fff"/>
          <path id="Trazado_98639" data-name="Trazado 98639" d="M213.66,250.325l12.438-7.164v1.68l-12.438,7.164Z" transform="translate(-171.677 -206.136)" fill="#fff"/>
          <path id="Trazado_98640" data-name="Trazado 98640" d="M213.66,292.568,226.1,285.4v1.68l-12.438,7.164Z" transform="translate(-171.677 -206.136)" fill="#fff"/>
          <path id="Trazado_98641" data-name="Trazado 98641" d="M230.311,215.609l37.77,21.756v63.458l-38.622-22.247a2.331,2.331,0,0,1-1.168-2.02V216.777A1.348,1.348,0,0,1,230.311,215.609Z" transform="translate(-228.291 -206.136)" fill="#b4bbe1"/>
        </g>
      </g>
      <g id="Grupo_53100" data-name="Grupo 53100" transform="translate(117.796 28.847)">
        <g id="Grupo_53092" data-name="Grupo 53092" transform="translate(33.569)" opacity="0.9">
          <path id="Trazado_98642" data-name="Trazado 98642" d="M286.987,73.567v138.4l-4.805-2.767V70.8Z" transform="translate(-282.181 -68.033)" fill="url(#linear-gradient-4)"/>
          <path id="Trazado_98643" data-name="Trazado 98643" d="M277.427,73.567v138.4l4.767-2.767V70.815Z" transform="translate(-272.635 -68.033)" fill="url(#linear-gradient-5)"/>
          <path id="Trazado_98644" data-name="Trazado 98644" d="M286.987,70.815l-4.767,2.752L277.427,70.8l4.792-2.767Z" transform="translate(-277.427 -68.033)" fill="url(#linear-gradient-6)"/>
        </g>
        <g id="Grupo_53093" data-name="Grupo 53093" transform="translate(4.814 13.863)" opacity="0.9">
          <path id="Trazado_98645" data-name="Trazado 98645" d="M315.741,101.3v5.51l-4.806-2.767V98.53Z" transform="translate(-310.936 -81.897)" fill="url(#linear-gradient-7)"/>
          <path id="Trazado_98646" data-name="Trazado 98646" d="M282.168,101.3v5.51l28.781-16.633v-5.5Z" transform="translate(-277.376 -81.897)" fill="url(#linear-gradient-8)"/>
          <path id="Trazado_98647" data-name="Trazado 98647" d="M315.741,84.678,286.961,101.3l-4.792-2.767L310.974,81.9Z" transform="translate(-282.168 -81.897)" fill="url(#linear-gradient-9)"/>
        </g>
        <g id="Grupo_53094" data-name="Grupo 53094" transform="translate(4.814 36.01)" opacity="0.9">
          <path id="Trazado_98648" data-name="Trazado 98648" d="M315.741,123.443v5.51l-4.806-2.767v-5.51Z" transform="translate(-310.936 -104.043)" fill="url(#linear-gradient-7)"/>
          <path id="Trazado_98649" data-name="Trazado 98649" d="M282.168,123.443v5.51l28.781-16.633v-5.5Z" transform="translate(-277.376 -104.043)" fill="url(#linear-gradient-8)"/>
          <path id="Trazado_98650" data-name="Trazado 98650" d="M315.741,106.825l-28.781,16.618-4.792-2.767,28.806-16.633Z" transform="translate(-282.168 -104.043)" fill="url(#linear-gradient-9)"/>
        </g>
        <g id="Grupo_53095" data-name="Grupo 53095" transform="translate(4.814 58.243)" opacity="0.9">
          <path id="Trazado_98651" data-name="Trazado 98651" d="M315.741,145.676v5.51l-4.806-2.767v-5.51Z" transform="translate(-310.936 -126.276)" fill="url(#linear-gradient-7)"/>
          <path id="Trazado_98652" data-name="Trazado 98652" d="M282.168,145.676v5.51l28.781-16.633v-5.5Z" transform="translate(-277.376 -126.276)" fill="url(#linear-gradient-8)"/>
          <path id="Trazado_98653" data-name="Trazado 98653" d="M315.741,129.058l-28.781,16.618-4.792-2.767,28.806-16.633Z" transform="translate(-282.168 -126.276)" fill="url(#linear-gradient-9)"/>
        </g>
        <g id="Grupo_53096" data-name="Grupo 53096" transform="translate(4.814 80.389)" opacity="0.9">
          <path id="Trazado_98654" data-name="Trazado 98654" d="M315.741,167.823v5.51l-4.806-2.767v-5.51Z" transform="translate(-310.936 -148.423)" fill="url(#linear-gradient-7)"/>
          <path id="Trazado_98655" data-name="Trazado 98655" d="M282.168,167.823v5.51L310.949,156.7v-5.5Z" transform="translate(-277.376 -148.423)" fill="url(#linear-gradient-8)"/>
          <path id="Trazado_98656" data-name="Trazado 98656" d="M315.741,151.2l-28.781,16.618-4.792-2.767,28.806-16.633Z" transform="translate(-282.168 -148.423)" fill="url(#linear-gradient-9)"/>
        </g>
        <g id="Grupo_53097" data-name="Grupo 53097" transform="translate(4.814 102.449)" opacity="0.9">
          <path id="Trazado_98657" data-name="Trazado 98657" d="M315.741,189.883v5.51l-4.806-2.767v-5.51Z" transform="translate(-310.936 -170.483)" fill="url(#linear-gradient-7)"/>
          <path id="Trazado_98658" data-name="Trazado 98658" d="M282.168,189.883v5.51l28.781-16.633v-5.495Z" transform="translate(-277.376 -170.483)" fill="url(#linear-gradient-8)"/>
          <path id="Trazado_98659" data-name="Trazado 98659" d="M315.741,173.264l-28.781,16.618-4.792-2.767,28.806-16.633Z" transform="translate(-282.168 -170.483)" fill="url(#linear-gradient-9)"/>
        </g>
        <g id="Grupo_53098" data-name="Grupo 53098" transform="translate(4.814 124.596)" opacity="0.9">
          <path id="Trazado_98660" data-name="Trazado 98660" d="M315.741,212.029v5.51l-4.806-2.767v-5.51Z" transform="translate(-310.936 -192.629)" fill="url(#linear-gradient-7)"/>
          <path id="Trazado_98661" data-name="Trazado 98661" d="M282.168,212.029v5.51l28.781-16.633v-5.5Z" transform="translate(-277.376 -192.629)" fill="url(#linear-gradient-8)"/>
          <path id="Trazado_98662" data-name="Trazado 98662" d="M315.741,195.411l-28.781,16.618-4.792-2.767,28.806-16.633Z" transform="translate(-282.168 -192.629)" fill="url(#linear-gradient-9)"/>
        </g>
        <g id="Grupo_53099" data-name="Grupo 53099" transform="translate(0 19.406)" opacity="0.9">
          <path id="Trazado_98663" data-name="Trazado 98663" d="M320.555,92.974V231.35l-4.805-2.767V90.207Z" transform="translate(-315.75 -87.44)" fill="url(#linear-gradient-25)"/>
          <path id="Trazado_98664" data-name="Trazado 98664" d="M311,92.974V231.35l4.767-2.767V90.221Z" transform="translate(-306.203 -87.44)" fill="url(#linear-gradient-26)"/>
          <path id="Trazado_98665" data-name="Trazado 98665" d="M320.555,90.221l-4.767,2.752L311,90.207l4.792-2.767Z" transform="translate(-310.996 -87.44)" fill="url(#linear-gradient-6)"/>
        </g>
      </g>
      <g id="Grupo_53115" data-name="Grupo 53115" transform="translate(4.649)">
        <path id="Trazado_98666" data-name="Trazado 98666" d="M432.472,232.489V46.858c0-5.917-3.6-8.637-8.036-6.075L323.784,98.753c-4.438,2.562-8.036,9.436-8.036,15.354V299.738Z" transform="translate(-314.517 -39.186)" fill="#d1ebff"/>
        <path id="Trazado_98667" data-name="Trazado 98667" d="M318.785,299.1V113.474c0-5.917,3.6-12.791,8.036-15.354L427.473,40.151a5.433,5.433,0,0,1,4.7-.691c.168.065,1.362.679,1.52.766l.008,0a5.257,5.257,0,0,0-5,.552L328.052,98.753c-4.438,2.562-8.036,9.436-8.036,15.354V299.738Z" transform="translate(-318.785 -39.186)" fill="#a8cff0"/>
        <g id="Grupo_53101" data-name="Grupo 53101" transform="translate(5.729 42.841)">
          <path id="Trazado_98668" data-name="Trazado 98668" d="M320.247,101.639l33.695-19.612V229.89L320.247,249.3Z" transform="translate(-246.215 -82.027)" fill="#f0f8ff"/>
          <path id="Trazado_98669" data-name="Trazado 98669" d="M427.974,88.161V251.9l-69.529,40.058V128.63Z" transform="translate(-358.445 -82.027)" fill="#f0f8ff"/>
        </g>
        <path id="Trazado_98670" data-name="Trazado 98670" d="M318.785,125.385V113.474c0-5.917,3.6-12.791,8.036-15.354L427.473,40.151a5.433,5.433,0,0,1,4.7-.691c.168.065,1.362.679,1.52.766l.008,0a5.257,5.257,0,0,0-5,.552L328.052,98.753c-4.438,2.562-8.036,9.436-8.036,15.354v11.911Z" transform="translate(-318.785 -39.186)" fill="#d62d69"/>
        <path id="Trazado_98671" data-name="Trazado 98671" d="M323.784,98.753l100.652-57.97c4.438-2.562,8.036.158,8.036,6.075V58.585L315.748,125.834V114.107C315.748,108.189,319.346,101.315,323.784,98.753Z" transform="translate(-314.517 -39.186)" fill="#f76195"/>
        <g id="Grupo_53105" data-name="Grupo 53105" transform="translate(16.032 62.155)">
          <g id="Grupo_53102" data-name="Grupo 53102" transform="translate(0)">
            <path id="Trazado_98672" data-name="Trazado 98672" d="M365.046,139.233l5.381-3.064v2.2l-5.381,3.065ZM372,135.262l12.487-7.184v2.2L372,137.459Zm14.058-8.091,13-7.5v2.2l-13,7.5Zm14.569-8.408,7.766-4.592v2.2l-7.766,4.593Z" transform="translate(-355.766 -101.341)" fill="#2672ab"/>
            <path id="Trazado_98673" data-name="Trazado 98673" d="M371.722,132.833l-6.676,3.854v-2.2l6.676-3.854Zm8.168-4.691-6.6,3.784v-2.2l6.6-3.784Zm20.066-11.581-18.5,10.674v-2.2l18.5-10.675Zm1.571-3.1,9.435-5.556v2.2l-9.435,5.556Zm-25.958,8.62,35.393-20.736v3.334l-35.393,20.737Z" transform="translate(-358.337 -101.341)" fill="#f76195"/>
            <path id="Trazado_98674" data-name="Trazado 98674" d="M380.094,141.388l-15.048,8.625v-2.2l15.048-8.625Zm8.168-4.691-6.6,3.784v-2.2l6.6-3.784Zm15.145-8.737-13.575,7.83v-2.2l13.575-7.83Zm1.571-3.1,9.435-5.556v2.2l-9.435,5.557Z" transform="translate(-361.788 -101.341)" fill="#2672ab"/>
            <path id="Trazado_98675" data-name="Trazado 98675" d="M365.046,151.725,381.1,142.5v2.2l-16.056,9.228Zm17.627-10.135,12.487-7.184v2.2l-12.487,7.185Zm14.058-8.091,11.506-6.69v2.2L396.731,135.7Zm13.076-7.6,2.054-1.22v2.2l-2.054,1.22Z" transform="translate(-359.236 -101.341)" fill="#2672ab"/>
            <path id="Trazado_98676" data-name="Trazado 98676" d="M381.284,154.591l-16.238,9.38v-2.2l16.238-9.379Zm3.527-2.008-1.957,1.1v-2.2l1.957-1.1Zm15.145-8.738-13.575,7.831v-2.2l13.575-7.831Zm1.571-3.1,9.435-5.556v2.2l-9.435,5.557Z" transform="translate(-358.337 -101.341)" fill="#2672ab"/>
            <path id="Trazado_98677" data-name="Trazado 98677" d="M365.046,170.937l12.6-7.3v2.2l-12.6,7.3Zm14.175-8.207,12.488-7.184v2.2l-12.488,7.185Zm14.058-8.091,9.538-5.574v2.2l-9.538,5.574Zm11.108-6.481,13.284-7.816v2.2l-13.284,7.816Z" transform="translate(-365.046 -101.341)" fill="#2672ab"/>
            <path id="Trazado_98678" data-name="Trazado 98678" d="M376.643,167.676l-11.6,6.7v-2.2l11.6-6.7Zm8.168-4.69-6.6,3.783v-2.2l6.6-3.783Zm15.145-8.738-13.575,7.83v-2.2l13.575-7.831Zm1.571-3.1,9.435-5.556v2.2l-9.435,5.557Z" transform="translate(-358.337 -101.341)" fill="#2672ab"/>
          </g>
          <g id="Grupo_53103" data-name="Grupo 53103" transform="translate(2.811 56.982)">
            <path id="Trazado_98679" data-name="Trazado 98679" d="M365.046,196.375l5.828-3.225v2.2l-5.828,3.224Zm7.4-4.132,12.487-7.184v2.2l-12.487,7.184Zm14.058-8.091,13-7.5v2.2l-13,7.5Zm14.569-8.407,7.766-4.593v2.2l-7.766,4.593Z" transform="translate(-359.024 -158.323)" fill="#2672ab"/>
            <path id="Trazado_98680" data-name="Trazado 98680" d="M375.62,189.814l-10.574,5.942v-2.2l10.574-5.942Zm8.168-4.69-6.6,3.783v-2.2l6.6-3.783Zm20.066-11.582-18.5,10.675v-2.2l18.5-10.674Zm1.571-3.1,9.435-5.556v2.2l-9.435,5.557Zm-25.958,8.62,35.393-20.736v3.334l-35.393,20.736Z" transform="translate(-365.046 -158.323)" fill="#f76195"/>
            <path id="Trazado_98681" data-name="Trazado 98681" d="M380.541,198.369l-15.495,8.785v-2.2l15.495-8.785Zm8.168-4.69-6.6,3.783v-2.2l6.6-3.783Zm15.145-8.738-13.575,7.831v-2.2l13.575-7.831Zm1.571-3.1,9.435-5.556v2.2l-9.435,5.557Z" transform="translate(-365.046 -158.323)" fill="#2672ab"/>
            <path id="Trazado_98682" data-name="Trazado 98682" d="M365.046,208.866l16.5-9.388v2.2l-16.5,9.388Zm18.074-10.294,12.487-7.185v2.2l-12.487,7.184Zm14.058-8.092,11.506-6.689v2.2l-11.506,6.689Zm13.076-7.6,2.054-1.221v2.2l-2.054,1.221Z" transform="translate(-362.494 -158.323)" fill="#2672ab"/>
          </g>
          <g id="Grupo_53104" data-name="Grupo 53104" transform="translate(2.436 92.483)">
            <path id="Trazado_98683" data-name="Trazado 98683" d="M365.046,235.234l9.672-5.458v2.2l-9.672,5.458Zm11.243-6.365,12.487-7.184v2.2l-12.487,7.185Zm14.058-8.091,15.337-8.871v2.2l-15.337,8.871ZM407.254,211l5.428-3.222v2.2l-5.428,3.223Z" transform="translate(-362.493 -193.824)" fill="#2672ab"/>
            <path id="Trazado_98684" data-name="Trazado 98684" d="M371.722,226.44l-6.676,3.854v-2.2l6.676-3.854Zm8.168-4.691-6.6,3.784v-2.2l6.6-3.784Zm20.066-11.581-18.5,10.674v-2.2l18.5-10.675Zm1.571-3.1,9.435-5.556v2.2l-9.435,5.557Zm-25.958,7.5,35.393-20.736v3.334l-35.393,20.736Z" transform="translate(-360.773 -193.824)" fill="#f76195"/>
            <path id="Trazado_98685" data-name="Trazado 98685" d="M380.565,232.337l-15.519,8.849v-2.2l15.519-8.848ZM384,230.3l-1.863,1.127v-2.2L384,228.107Zm15.145-8.737-13.575,7.83v-2.2l13.575-7.83Zm1.571-3.1,9.435-5.556v2.2l-9.435,5.557Z" transform="translate(-359.961 -193.824)" fill="#2672ab"/>
            <path id="Trazado_98686" data-name="Trazado 98686" d="M365.046,245.745l16.877-9.641v2.2l-16.877,9.641ZM383.494,235.2l12.487-7.184v2.2l-12.487,7.185Zm14.058-8.091,1.946-1.136v2.2l-1.946,1.135Zm3.517-2.043,11.613-6.774v2.2l-11.613,6.774Z" transform="translate(-362.493 -193.824)" fill="#2672ab"/>
            <path id="Trazado_98687" data-name="Trazado 98687" d="M365.046,261.345l12.487-7.185v2.2l-12.487,7.184Zm14.058-8.092,1.946-1.135v2.2L379.1,255.45Zm3.517-2.042,11.613-6.774v2.2l-11.613,6.775Z" transform="translate(-344.045 -193.824)" fill="#2672ab"/>
            <path id="Trazado_98688" data-name="Trazado 98688" d="M365.046,249.07l6.109-3.409v2.2l-6.109,3.408Zm7.68-4.316,12.487-7.184v2.2l-12.487,7.184Zm14.058-8.091,13-7.5v2.2l-13,7.5Zm14.569-8.407,7.766-4.593v2.2l-7.766,4.593Z" transform="translate(-358.93 -193.824)" fill="#2672ab"/>
            <path id="Trazado_98689" data-name="Trazado 98689" d="M380.916,250.88l-15.87,9.038v-2.2l15.87-9.039Zm8.168-4.69-6.6,3.783v-2.2l6.6-3.783Zm15.145-8.738-13.575,7.831v-2.2l13.575-7.831Zm1.571-3.1,9.435-5.556v2.2l-9.435,5.557Z" transform="translate(-365.046 -193.824)" fill="#2672ab"/>
            <path id="Trazado_98690" data-name="Trazado 98690" d="M365.046,260.128l14.72-8.364v2.2l-14.72,8.364Zm16.291-9.27,12.487-7.185v2.2l-12.487,7.184Zm14.058-8.092,10.381-5.971v2.2L395.4,244.963Zm11.952-6.878,3.178-1.939v2.2l-3.178,1.939Z" transform="translate(-360.336 -193.824)" fill="#2672ab"/>
            <path id="Trazado_98691" data-name="Trazado 98691" d="M383.307,260.026l-18.261,10.3v-2.2l18.261-10.295Zm5.777-3.434-4.206,2.527v-2.2l4.206-2.527Zm15.145-8.737-13.575,7.83v-2.2l13.575-7.831Zm1.571-3.1,9.435-5.556v2.2l-9.435,5.557Z" transform="translate(-365.046 -193.824)" fill="#2672ab"/>
          </g>
        </g>
        <g id="Grupo_53106" data-name="Grupo 53106" transform="translate(33.382 32.621)">
          <path id="Trazado_98692" data-name="Trazado 98692" d="M364.927,95.225l2.213-1.243v2.2l-2.213,1.243Zm3.783-2.15,8.083-4.654v2.2l-8.083,4.654Zm9.654-5.561,5.008-2.962v2.2l-5.008,2.962Zm6.578-3.869,7.767-4.593v2.2l-7.767,4.593Z" transform="translate(-357.315 -71.808)" fill="#fff"/>
          <path id="Trazado_98693" data-name="Trazado 98693" d="M364.927,92.544l35.393-20.736v3.334L364.927,95.878Z" transform="translate(-364.927 -71.808)" fill="#fff"/>
        </g>
        <g id="Grupo_53107" data-name="Grupo 53107" transform="translate(83.502 111.064)">
          <path id="Trazado_98694" data-name="Trazado 98694" d="M324.441,170.2l7.872-4.592v2.2l-7.872,4.592Zm9.443-5.5,2.856-1.706v2.2l-2.856,1.706Zm4.427-2.613,7.766-4.593v2.2l-7.766,4.593Z" transform="translate(-320.317 -150.251)" fill="#f76195"/>
          <path id="Trazado_98695" data-name="Trazado 98695" d="M324.441,165.314l25.76-15.063v3.334l-25.76,15.063Z" transform="translate(-324.441 -150.251)" fill="#f76195"/>
        </g>
        <g id="Grupo_53108" data-name="Grupo 53108" transform="translate(83.596 60.428)">
          <path id="Trazado_98696" data-name="Trazado 98696" d="M332.032,110.217l18.075-10.6v2.292l-18.075,10.6Z" transform="translate(-332.032 -99.614)" fill="#2672ab"/>
        </g>
        <path id="Trazado_98697" data-name="Trazado 98697" d="M323.233,99.96c0,2.209,1.561,3.1,3.487,1.988a7.686,7.686,0,0,0,3.487-6.014c0-2.21-1.562-3.1-3.487-1.988A7.681,7.681,0,0,0,323.233,99.96Z" transform="translate(-219.737 -39.186)" fill="#f76195"/>
        <g id="Grupo_53109" data-name="Grupo 53109" transform="translate(83.596 70.456)">
          <path id="Trazado_98698" data-name="Trazado 98698" d="M332.032,120.245l18.075-10.6v2.292l-18.075,10.6Z" transform="translate(-332.032 -109.642)" fill="#2672ab"/>
        </g>
        <path id="Trazado_98699" data-name="Trazado 98699" d="M323.233,109.988c0,2.209,1.561,3.1,3.487,1.988a7.686,7.686,0,0,0,3.487-6.014c0-2.21-1.562-3.1-3.487-1.988A7.68,7.68,0,0,0,323.233,109.988Z" transform="translate(-219.737 -39.186)" fill="#f76195"/>
        <g id="Grupo_53110" data-name="Grupo 53110" transform="translate(83.596 80.296)">
          <path id="Trazado_98700" data-name="Trazado 98700" d="M332.032,130.086l18.075-10.6v2.292l-18.075,10.6Z" transform="translate(-332.032 -119.482)" fill="#2672ab"/>
        </g>
        <path id="Trazado_98701" data-name="Trazado 98701" d="M323.233,119.828c0,2.21,1.561,3.1,3.487,1.988a7.685,7.685,0,0,0,3.487-6.014c0-2.21-1.562-3.1-3.487-1.988A7.684,7.684,0,0,0,323.233,119.828Z" transform="translate(-219.737 -39.186)" fill="#f76195"/>
        <g id="Grupo_53111" data-name="Grupo 53111" transform="translate(83.596 90.137)">
          <path id="Trazado_98702" data-name="Trazado 98702" d="M332.032,139.927l18.075-10.6v2.292l-18.075,10.6Z" transform="translate(-332.032 -129.323)" fill="#2672ab"/>
        </g>
        <path id="Trazado_98703" data-name="Trazado 98703" d="M323.233,129.669c0,2.209,1.561,3.1,3.487,1.988a7.686,7.686,0,0,0,3.487-6.014c0-2.21-1.562-3.1-3.487-1.988A7.681,7.681,0,0,0,323.233,129.669Z" transform="translate(-219.737 -39.186)" fill="#f76195"/>
        <g id="Grupo_53112" data-name="Grupo 53112" transform="translate(83.596 100.165)">
          <path id="Trazado_98704" data-name="Trazado 98704" d="M332.032,149.954l18.075-10.6v2.292l-18.075,10.6Z" transform="translate(-332.032 -139.351)" fill="#2672ab"/>
        </g>
        <path id="Trazado_98705" data-name="Trazado 98705" d="M323.233,139.7c0,2.209,1.561,3.1,3.487,1.988a7.686,7.686,0,0,0,3.487-6.014c0-2.21-1.562-3.1-3.487-1.988A7.681,7.681,0,0,0,323.233,139.7Z" transform="translate(-219.737 -39.186)" fill="#f76195"/>
        <g id="Grupo_53113" data-name="Grupo 53113" transform="translate(83.502 128.215)">
          <path id="Trazado_98706" data-name="Trazado 98706" d="M324.441,182.464,350.2,167.4v3.334L324.441,185.8Z" transform="translate(-324.441 -167.401)" fill="#a8cff0"/>
          <path id="Trazado_98707" data-name="Trazado 98707" d="M324.441,177.4l17.091-9.994v3.334l-17.091,9.994Z" transform="translate(-315.772 -167.401)" fill="#2672ab"/>
          <path id="Trazado_98708" data-name="Trazado 98708" d="M324.441,189.493,350.2,174.43v3.334l-25.76,15.063Z" transform="translate(-324.441 -167.401)" fill="#a8cff0"/>
          <path id="Trazado_98709" data-name="Trazado 98709" d="M324.441,186.963,345.89,174.43v3.334L324.441,190.3Z" transform="translate(-320.13 -167.401)" fill="#2672ab"/>
          <path id="Trazado_98710" data-name="Trazado 98710" d="M324.441,196.522l25.76-15.063v3.334l-25.76,15.063Z" transform="translate(-324.441 -167.401)" fill="#a8cff0"/>
          <path id="Trazado_98711" data-name="Trazado 98711" d="M324.441,187.2l9.828-5.745v3.334l-9.828,5.746Z" transform="translate(-308.508 -167.401)" fill="#2672ab"/>
          <path id="Trazado_98712" data-name="Trazado 98712" d="M324.441,203.551l25.76-15.063v3.334l-25.76,15.063Z" transform="translate(-324.441 -167.401)" fill="#a8cff0"/>
          <path id="Trazado_98713" data-name="Trazado 98713" d="M324.441,198.482l17.091-9.994v3.334l-17.091,9.994Z" transform="translate(-315.772 -167.401)" fill="#2672ab"/>
          <path id="Trazado_98714" data-name="Trazado 98714" d="M324.441,210.3l25.76-15.063v3.334l-25.76,15.063Z" transform="translate(-324.441 -167.401)" fill="#a8cff0"/>
          <path id="Trazado_98715" data-name="Trazado 98715" d="M324.441,198.3l5.236-3.067v3.334l-5.236,3.067Z" transform="translate(-303.916 -167.401)" fill="#2672ab"/>
          <path id="Trazado_98716" data-name="Trazado 98716" d="M324.441,217.328l25.76-15.063V205.6l-25.76,15.063Z" transform="translate(-324.441 -167.401)" fill="#a8cff0"/>
          <path id="Trazado_98717" data-name="Trazado 98717" d="M324.441,214.423l20.793-12.158V205.6l-20.793,12.158Z" transform="translate(-319.473 -167.401)" fill="#2672ab"/>
        </g>
        <g id="Grupo_53114" data-name="Grupo 53114" transform="translate(83.451 175.525)">
          <path id="Trazado_98718" data-name="Trazado 98718" d="M324.5,220.009l3.071-1.773v-3.524l-3.071,1.773Z" transform="translate(-301.823 -214.711)" fill="#f76195"/>
          <path id="Trazado_98719" data-name="Trazado 98719" d="M330.171,223.282l3.071-1.773v-3.524l-3.071,1.773Z" transform="translate(-313.162 -214.711)" fill="#f76195"/>
          <path id="Trazado_98720" data-name="Trazado 98720" d="M335.841,226.555l3.071-1.773v-3.524l-3.071,1.773Z" transform="translate(-324.502 -214.711)" fill="#f76195"/>
          <path id="Trazado_98721" data-name="Trazado 98721" d="M341.511,229.829l3.071-1.773v-3.524l-3.071,1.773Z" transform="translate(-335.841 -214.711)" fill="#a8cff0"/>
          <path id="Trazado_98722" data-name="Trazado 98722" d="M347.181,233.1l3.071-1.773V227.8l-3.071,1.773Z" transform="translate(-347.181 -214.711)" fill="#a8cff0"/>
          <path id="Trazado_98723" data-name="Trazado 98723" d="M324.5,226.013l3.071-1.773v-3.524l-3.071,1.773Z" transform="translate(-301.823 -214.711)" fill="#f76195"/>
          <path id="Trazado_98724" data-name="Trazado 98724" d="M330.171,229.286l3.071-1.773v-3.524l-3.071,1.773Z" transform="translate(-313.162 -214.711)" fill="#f76195"/>
          <path id="Trazado_98725" data-name="Trazado 98725" d="M335.841,232.559l3.071-1.773v-3.524l-3.071,1.773Z" transform="translate(-324.502 -214.711)" fill="#f76195"/>
          <path id="Trazado_98726" data-name="Trazado 98726" d="M341.511,235.833l3.071-1.773v-3.524l-3.071,1.773Z" transform="translate(-335.841 -214.711)" fill="#f76195"/>
          <path id="Trazado_98727" data-name="Trazado 98727" d="M347.181,239.106l3.071-1.773v-3.524l-3.071,1.773Z" transform="translate(-347.181 -214.711)" fill="#a8cff0"/>
        </g>
        <path id="Trazado_98728" data-name="Trazado 98728" d="M315.748,115.67c0-5.918,3.6-12.792,8.036-15.354L411.528,49.78V232.489l-95.78,55.183Z" transform="translate(-293.573 -39.186)" fill="#084c94" opacity="0.2"/>
      </g>
      <g id="Grupo_53130" data-name="Grupo 53130" transform="translate(30.278 0.132)">
        <path id="Trazado_98729" data-name="Trazado 98729" d="M406.773,243.572V47.424c0-6.252-3.8-9.126-8.491-6.419L291.928,102.259c-4.689,2.708-8.491,9.971-8.491,16.224V314.63Z" transform="translate(-282.136 -39.318)" fill="#d1ebff"/>
        <path id="Trazado_98730" data-name="Trazado 98730" d="M286.646,313.962V117.814c0-6.252,3.8-13.516,8.491-16.223L401.491,40.337a5.739,5.739,0,0,1,4.969-.729c.177.068,1.439.716,1.606.809l.008.005c-1.446-.7-3.281-.572-5.282.583L296.438,102.259c-4.689,2.708-8.491,9.971-8.491,16.224V314.63Z" transform="translate(-286.646 -39.318)" fill="#a8cff0"/>
        <g id="Grupo_53116" data-name="Grupo 53116" transform="translate(6.054 45.267)">
          <path id="Trazado_98731" data-name="Trazado 98731" d="M288.19,105.308l35.6-20.723v156.24l-35.6,20.512Z" transform="translate(-209.965 -84.585)" fill="#f0f8ff"/>
          <path id="Trazado_98732" data-name="Trazado 98732" d="M402.02,91.067V264.078l-73.468,42.327V133.829Z" transform="translate(-328.552 -84.585)" fill="#f0f8ff"/>
        </g>
        <path id="Trazado_98733" data-name="Trazado 98733" d="M286.646,130.4V117.814c0-6.252,3.8-13.516,8.491-16.223L401.491,40.337a5.739,5.739,0,0,1,4.969-.729c.177.068,1.439.716,1.606.809l.008.005c-1.446-.7-3.281-.572-5.282.583L296.438,102.259c-4.689,2.708-8.491,9.971-8.491,16.224v12.585Z" transform="translate(-286.646 -39.318)" fill="#fc0"/>
        <path id="Trazado_98734" data-name="Trazado 98734" d="M291.928,102.259,398.282,41.005c4.69-2.707,8.491.167,8.491,6.419V59.815L283.437,130.874V118.483C283.437,112.23,287.239,104.967,291.928,102.259Z" transform="translate(-282.136 -39.318)" fill="#ffde17"/>
        <g id="Grupo_53120" data-name="Grupo 53120" transform="translate(16.94 65.676)">
          <g id="Grupo_53117" data-name="Grupo 53117">
            <path id="Trazado_98735" data-name="Trazado 98735" d="M335.527,145.033l5.686-3.238v2.321l-5.686,3.238Zm7.346-4.2,13.194-7.592v2.321l-13.194,7.592Zm14.854-8.55,13.735-7.925v2.321l-13.735,7.925Zm15.4-8.884,8.206-4.853v2.321l-8.206,4.854Z" transform="translate(-325.721 -104.994)" fill="#2672ab"/>
            <path id="Trazado_98736" data-name="Trazado 98736" d="M342.581,138.269l-7.054,4.073v-2.321l7.054-4.073Zm8.63-4.956-6.971,4V134.99l6.971-4Zm21.2-12.237-19.543,11.279v-2.321l19.543-11.279Zm1.66-3.279,9.97-5.871v2.32l-9.97,5.872ZM346.645,126.9l37.4-21.911v3.523l-37.4,21.911Z" transform="translate(-328.437 -104.994)" fill="#ffde17"/>
            <path id="Trazado_98737" data-name="Trazado 98737" d="M351.428,147.309l-15.9,9.114V154.1l15.9-9.114Zm8.63-4.956-6.971,4V144.03l6.971-4Zm16-9.233L361.718,141.4v-2.321l14.343-8.275Zm1.66-3.279,9.97-5.871v2.321l-9.97,5.871Z" transform="translate(-332.084 -104.994)" fill="#2672ab"/>
            <path id="Trazado_98738" data-name="Trazado 98738" d="M335.527,158.232l16.966-9.751V150.8l-16.966,9.751Zm18.626-10.709,13.194-7.591v2.321l-13.194,7.591Zm14.854-8.55,12.157-7.068v2.321l-12.157,7.068Zm13.817-8.026,2.17-1.29v2.321l-2.17,1.29Z" transform="translate(-329.387 -104.994)" fill="#2672ab"/>
            <path id="Trazado_98739" data-name="Trazado 98739" d="M352.684,161.261l-17.157,9.911v-2.321l17.157-9.911Zm3.727-2.123-2.067,1.165v-2.321l2.067-1.165Zm16-9.232-14.343,8.274v-2.321l14.343-8.274Zm1.66-3.28,9.97-5.871v2.321l-9.97,5.871Z" transform="translate(-328.437 -104.994)" fill="#2672ab"/>
            <path id="Trazado_98740" data-name="Trazado 98740" d="M335.527,178.533l13.319-7.714v2.321l-13.319,7.714Zm14.979-8.672,13.2-7.592v2.321l-13.2,7.592Zm14.854-8.55,10.078-5.89v2.321l-10.078,5.89Zm11.738-6.848,14.036-8.258v2.321L377.1,156.784Z" transform="translate(-335.527 -104.994)" fill="#2672ab"/>
            <path id="Trazado_98741" data-name="Trazado 98741" d="M347.781,175.087l-12.254,7.077v-2.321l12.254-7.077Zm8.63-4.957-6.971,4v-2.322l6.971-4Zm16-9.232-14.343,8.274v-2.321l14.343-8.274Zm1.66-3.28,9.97-5.871v2.321l-9.97,5.872Z" transform="translate(-328.437 -104.994)" fill="#2672ab"/>
          </g>
          <g id="Grupo_53118" data-name="Grupo 53118" transform="translate(2.971 60.21)">
            <path id="Trazado_98742" data-name="Trazado 98742" d="M335.527,205.411,341.685,202v2.321l-6.158,3.407Zm7.818-4.365,13.194-7.592v2.322l-13.194,7.591ZM358.2,192.5l13.735-7.925v2.321L358.2,194.817Zm15.4-8.883,8.206-4.853v2.321l-8.206,4.853Z" transform="translate(-329.164 -165.204)" fill="#2672ab"/>
            <path id="Trazado_98743" data-name="Trazado 98743" d="M346.7,198.479l-11.173,6.278v-2.321l11.173-6.278Zm8.63-4.956-6.971,4V195.2l6.971-4Zm21.2-12.237L356.99,192.564v-2.321l19.543-11.279Zm1.66-3.28,9.97-5.871v2.321l-9.97,5.871Zm-27.429,9.108,37.4-21.91v3.523l-37.4,21.911Z" transform="translate(-335.527 -165.204)" fill="#ffde17"/>
            <path id="Trazado_98744" data-name="Trazado 98744" d="M351.9,207.518,335.527,216.8V214.48L351.9,205.2Zm8.63-4.956-6.971,4v-2.321l6.971-4Zm16-9.232L362.19,201.6v-2.321l14.343-8.274Zm1.66-3.28,9.97-5.871V186.5l-9.97,5.872Z" transform="translate(-335.527 -165.204)" fill="#2672ab"/>
            <path id="Trazado_98745" data-name="Trazado 98745" d="M335.527,218.61l17.438-9.919v2.321l-17.438,9.919Zm19.1-10.878,13.194-7.591v2.321l-13.194,7.592Zm14.854-8.549,12.157-7.069v2.322L369.479,201.5Zm13.817-8.027,2.17-1.29v2.322l-2.17,1.289Z" transform="translate(-332.83 -165.204)" fill="#2672ab"/>
          </g>
          <g id="Grupo_53119" data-name="Grupo 53119" transform="translate(2.575 97.722)">
            <path id="Trazado_98746" data-name="Trazado 98746" d="M335.527,246.471l10.22-5.767v2.322l-10.22,5.767Zm11.88-6.725,13.194-7.591v2.321l-13.194,7.591Zm14.854-8.549,16.206-9.374v2.321l-16.206,9.374Zm17.866-10.332,5.735-3.4v2.321l-5.735,3.4Z" transform="translate(-332.83 -202.716)" fill="#2672ab"/>
            <path id="Trazado_98747" data-name="Trazado 98747" d="M342.581,237.179l-7.054,4.073v-2.321l7.054-4.073Zm8.63-4.956-6.971,4V233.9l6.971-4Zm21.2-12.237-19.543,11.279v-2.321l19.543-11.279Zm1.66-3.28,9.97-5.871v2.321l-9.97,5.872Zm-27.429,7.92,37.4-21.91v3.523l-37.4,21.911Z" transform="translate(-331.012 -202.716)" fill="#ffde17"/>
            <path id="Trazado_98748" data-name="Trazado 98748" d="M351.925,243.411l-16.4,9.35V250.44l16.4-9.35Zm3.628-2.148-1.968,1.19v-2.321l1.968-1.191Zm16-9.233L357.213,240.3v-2.321l14.343-8.274Zm1.66-3.279,9.97-5.871V225.2l-9.97,5.871Z" transform="translate(-330.154 -202.716)" fill="#2672ab"/>
            <path id="Trazado_98749" data-name="Trazado 98749" d="M335.527,257.578l17.834-10.187v2.321L335.527,259.9Zm19.494-11.145,13.194-7.591v2.321l-13.194,7.591Zm14.854-8.55,2.056-1.2v2.322l-2.056,1.2Zm3.716-2.158,12.271-7.158v2.321l-12.271,7.158Z" transform="translate(-332.83 -202.716)" fill="#2672ab"/>
            <path id="Trazado_98750" data-name="Trazado 98750" d="M335.527,274.062l13.194-7.592v2.322l-13.194,7.591Zm14.854-8.55,2.056-1.2v2.321l-2.056,1.2Zm3.716-2.158,12.271-7.158v2.321L354.1,265.675Z" transform="translate(-313.336 -202.716)" fill="#2672ab"/>
            <path id="Trazado_98751" data-name="Trazado 98751" d="M335.527,261.091l6.455-3.6v2.321l-6.455,3.6Zm8.115-4.559,13.194-7.592v2.321l-13.194,7.592Zm14.854-8.55,13.735-7.925v2.321L358.5,250.3Zm15.4-8.884,8.206-4.853v2.322l-8.206,4.853Z" transform="translate(-329.065 -202.716)" fill="#2672ab"/>
            <path id="Trazado_98752" data-name="Trazado 98752" d="M352.3,263l-16.769,9.55v-2.321l16.769-9.55Zm8.63-4.956-6.971,4v-2.321l6.971-4Zm16-9.232-14.343,8.274v-2.321l14.343-8.275Zm1.66-3.28,9.97-5.871v2.321l-9.97,5.871Z" transform="translate(-335.527 -202.716)" fill="#2672ab"/>
            <path id="Trazado_98753" data-name="Trazado 98753" d="M335.527,272.777l15.554-8.838v2.321L335.527,275.1Zm17.214-9.8,13.194-7.592v2.321L352.741,265.3Zm14.854-8.55,10.969-6.31v2.321l-10.969,6.31Zm12.628-7.268,3.359-2.049v2.322l-3.359,2.048Z" transform="translate(-330.55 -202.716)" fill="#2672ab"/>
            <path id="Trazado_98754" data-name="Trazado 98754" d="M354.822,272.668l-19.3,10.879v-2.321l19.3-10.879Zm6.1-3.628-4.444,2.67v-2.321l4.444-2.67Zm16-9.232-14.343,8.274v-2.321l14.343-8.274Zm1.66-3.28,9.97-5.871v2.321l-9.97,5.871Z" transform="translate(-335.527 -202.716)" fill="#2672ab"/>
          </g>
        </g>
        <g id="Grupo_53121" data-name="Grupo 53121" transform="translate(35.274 34.469)">
          <path id="Trazado_98755" data-name="Trazado 98755" d="M335.4,98.531l2.339-1.313v2.321l-2.339,1.313Zm4-2.271,8.541-4.918v2.321L339.4,98.581Zm10.2-5.876,5.292-3.13v2.321L349.6,92.7Zm6.952-4.089,8.206-4.853v2.322l-8.206,4.853Z" transform="translate(-327.36 -73.787)" fill="#fff"/>
          <path id="Trazado_98756" data-name="Trazado 98756" d="M335.4,95.7l37.4-21.911V77.31L335.4,99.222Z" transform="translate(-335.402 -73.787)" fill="#fff"/>
        </g>
        <g id="Grupo_53122" data-name="Grupo 53122" transform="translate(88.233 117.356)">
          <path id="Trazado_98757" data-name="Trazado 98757" d="M292.621,177.754l8.319-4.853v2.322l-8.319,4.852Zm9.979-5.811,3.018-1.8v2.321l-3.018,1.8Zm4.677-2.761,8.207-4.853v2.322l-8.207,4.853Z" transform="translate(-288.264 -156.674)" fill="#ffde17"/>
          <path id="Trazado_98758" data-name="Trazado 98758" d="M292.621,172.59l27.22-15.916V160.2l-27.22,15.917Z" transform="translate(-292.621 -156.674)" fill="#ffde17"/>
        </g>
        <g id="Grupo_53123" data-name="Grupo 53123" transform="translate(88.332 63.851)">
          <path id="Trazado_98759" data-name="Trazado 98759" d="M300.643,114.373l19.1-11.2v2.422l-19.1,11.2Z" transform="translate(-300.643 -103.169)" fill="#2672ab"/>
        </g>
        <path id="Trazado_98760" data-name="Trazado 98760" d="M291.346,103.534c0,2.335,1.65,3.276,3.685,2.1a8.12,8.12,0,0,0,3.684-6.355c0-2.335-1.65-3.275-3.684-2.1A8.119,8.119,0,0,0,291.346,103.534Z" transform="translate(-181.987 -39.318)" fill="#ffde17"/>
        <g id="Grupo_53124" data-name="Grupo 53124" transform="translate(88.332 74.447)">
          <path id="Trazado_98761" data-name="Trazado 98761" d="M300.643,124.969l19.1-11.2v2.422l-19.1,11.2Z" transform="translate(-300.643 -113.765)" fill="#2672ab"/>
        </g>
        <path id="Trazado_98762" data-name="Trazado 98762" d="M291.346,114.13c0,2.335,1.65,3.276,3.685,2.1a8.12,8.12,0,0,0,3.684-6.355c0-2.335-1.65-3.275-3.684-2.1A8.115,8.115,0,0,0,291.346,114.13Z" transform="translate(-181.987 -39.318)" fill="#ffde17"/>
        <g id="Grupo_53125" data-name="Grupo 53125" transform="translate(88.332 84.845)">
          <path id="Trazado_98763" data-name="Trazado 98763" d="M300.643,135.367l19.1-11.2v2.422l-19.1,11.2Z" transform="translate(-300.643 -124.163)" fill="#2672ab"/>
        </g>
        <path id="Trazado_98764" data-name="Trazado 98764" d="M291.346,124.528c0,2.335,1.65,3.276,3.685,2.1a8.12,8.12,0,0,0,3.684-6.355c0-2.335-1.65-3.275-3.684-2.1A8.115,8.115,0,0,0,291.346,124.528Z" transform="translate(-181.987 -39.318)" fill="#ffde17"/>
        <g id="Grupo_53126" data-name="Grupo 53126" transform="translate(88.332 95.243)">
          <path id="Trazado_98765" data-name="Trazado 98765" d="M300.643,145.765l19.1-11.2v2.422l-19.1,11.2Z" transform="translate(-300.643 -134.561)" fill="#2672ab"/>
        </g>
        <path id="Trazado_98766" data-name="Trazado 98766" d="M291.346,134.926c0,2.335,1.65,3.276,3.685,2.1a8.12,8.12,0,0,0,3.684-6.355c0-2.335-1.65-3.275-3.684-2.1A8.115,8.115,0,0,0,291.346,134.926Z" transform="translate(-181.987 -39.318)" fill="#ffde17"/>
        <g id="Grupo_53127" data-name="Grupo 53127" transform="translate(88.332 105.839)">
          <path id="Trazado_98767" data-name="Trazado 98767" d="M300.643,156.361l19.1-11.2v2.422l-19.1,11.2Z" transform="translate(-300.643 -145.157)" fill="#2672ab"/>
        </g>
        <path id="Trazado_98768" data-name="Trazado 98768" d="M291.346,145.522c0,2.335,1.65,3.276,3.685,2.1a8.12,8.12,0,0,0,3.684-6.355c0-2.335-1.65-3.275-3.684-2.1A8.117,8.117,0,0,0,291.346,145.522Z" transform="translate(-181.987 -39.318)" fill="#ffde17"/>
        <g id="Grupo_53128" data-name="Grupo 53128" transform="translate(88.233 135.479)">
          <path id="Trazado_98769" data-name="Trazado 98769" d="M292.621,190.713l27.22-15.916v3.523l-27.22,15.917Z" transform="translate(-292.621 -174.797)" fill="#a8cff0"/>
          <path id="Trazado_98770" data-name="Trazado 98770" d="M292.621,185.357l18.059-10.56v3.523L292.621,188.88Z" transform="translate(-283.461 -174.797)" fill="#2672ab"/>
          <path id="Trazado_98771" data-name="Trazado 98771" d="M292.621,198.14l27.22-15.916v3.523l-27.22,15.917Z" transform="translate(-292.621 -174.797)" fill="#a8cff0"/>
          <path id="Trazado_98772" data-name="Trazado 98772" d="M292.621,195.466l22.664-13.242v3.523l-22.664,13.243Z" transform="translate(-288.066 -174.797)" fill="#2672ab"/>
          <path id="Trazado_98773" data-name="Trazado 98773" d="M292.621,205.567l27.22-15.916v3.523l-27.22,15.917Z" transform="translate(-292.621 -174.797)" fill="#a8cff0"/>
          <path id="Trazado_98774" data-name="Trazado 98774" d="M292.621,195.722l10.385-6.071v3.523l-10.385,6.071Z" transform="translate(-275.787 -174.797)" fill="#2672ab"/>
          <path id="Trazado_98775" data-name="Trazado 98775" d="M292.621,212.994l27.22-15.916V200.6l-27.22,15.917Z" transform="translate(-292.621 -174.797)" fill="#a8cff0"/>
          <path id="Trazado_98776" data-name="Trazado 98776" d="M292.621,207.638l18.059-10.56V200.6l-18.059,10.56Z" transform="translate(-283.461 -174.797)" fill="#2672ab"/>
          <path id="Trazado_98777" data-name="Trazado 98777" d="M292.621,220.124l27.22-15.916v3.523l-27.22,15.917Z" transform="translate(-292.621 -174.797)" fill="#a8cff0"/>
          <path id="Trazado_98778" data-name="Trazado 98778" d="M292.621,207.449l5.532-3.241v3.523l-5.532,3.241Z" transform="translate(-270.934 -174.797)" fill="#2672ab"/>
          <path id="Trazado_98779" data-name="Trazado 98779" d="M292.621,227.551l27.22-15.916v3.523l-27.22,15.917Z" transform="translate(-292.621 -174.797)" fill="#a8cff0"/>
          <path id="Trazado_98780" data-name="Trazado 98780" d="M292.621,224.482l21.971-12.846v3.523L292.621,228Z" transform="translate(-287.373 -174.797)" fill="#2672ab"/>
        </g>
        <g id="Grupo_53129" data-name="Grupo 53129" transform="translate(88.179 185.469)">
          <path id="Trazado_98781" data-name="Trazado 98781" d="M292.686,230.384l3.245-1.874v-3.724l-3.245,1.874Z" transform="translate(-268.723 -224.787)" fill="#ffde17"/>
          <path id="Trazado_98782" data-name="Trazado 98782" d="M298.677,233.843l3.245-1.874v-3.724l-3.245,1.874Z" transform="translate(-280.704 -224.787)" fill="#ffde17"/>
          <path id="Trazado_98783" data-name="Trazado 98783" d="M304.668,237.3l3.245-1.874V231.7l-3.245,1.874Z" transform="translate(-292.686 -224.787)" fill="#ffde17"/>
          <path id="Trazado_98784" data-name="Trazado 98784" d="M310.659,240.76l3.245-1.874v-3.724l-3.245,1.874Z" transform="translate(-304.668 -224.787)" fill="#a8cff0"/>
          <path id="Trazado_98785" data-name="Trazado 98785" d="M316.65,244.219l3.245-1.873v-3.724L316.65,240.5Z" transform="translate(-316.65 -224.787)" fill="#a8cff0"/>
          <path id="Trazado_98786" data-name="Trazado 98786" d="M292.686,236.728l3.245-1.874v-3.724L292.686,233Z" transform="translate(-268.723 -224.787)" fill="#ffde17"/>
          <path id="Trazado_98787" data-name="Trazado 98787" d="M298.677,240.187l3.245-1.874V234.59l-3.245,1.874Z" transform="translate(-280.704 -224.787)" fill="#ffde17"/>
          <path id="Trazado_98788" data-name="Trazado 98788" d="M304.668,243.646l3.245-1.874v-3.724l-3.245,1.874Z" transform="translate(-292.686 -224.787)" fill="#ffde17"/>
          <path id="Trazado_98789" data-name="Trazado 98789" d="M310.659,247.1l3.245-1.874v-3.724l-3.245,1.874Z" transform="translate(-304.668 -224.787)" fill="#ffde17"/>
          <path id="Trazado_98790" data-name="Trazado 98790" d="M316.65,250.563l3.245-1.874v-3.724l-3.245,1.874Z" transform="translate(-316.65 -224.787)" fill="#a8cff0"/>
        </g>
        <path id="Trazado_98791" data-name="Trazado 98791" d="M283.437,121.922c0-6.253,3.8-13.517,8.492-16.224l92.65-53.362V243.572L283.437,301.843Z" transform="translate(-259.942 -39.318)" fill="#084c94" opacity="0.2"/>
      </g>
      <path id="Trazado_98792" data-name="Trazado 98792" d="M379.133,255.8V49.419c0-6.579-4-9.6-8.934-6.754L258.293,107.116c-4.934,2.849-8.934,10.491-8.934,17.07V330.573Z" transform="translate(-190.14 -39.186)" fill="#d1ebff"/>
      <path id="Trazado_98793" data-name="Trazado 98793" d="M252.736,329.869V123.483c0-6.579,4-14.222,8.934-17.071L373.576,41.961a6.038,6.038,0,0,1,5.228-.767c.187.072,1.514.754,1.69.851l.008.005c-1.522-.739-3.453-.6-5.557.615L263.039,107.116c-4.934,2.849-8.934,10.491-8.934,17.07V330.573Z" transform="translate(-194.886 -39.186)" fill="#a8cff0"/>
      <g id="Grupo_53131" data-name="Grupo 53131" transform="translate(64.22 49.333)">
        <path id="Trazado_98794" data-name="Trazado 98794" d="M254.361,110.324l37.462-21.8v164.4L254.361,274.5Z" transform="translate(-172.052 -88.52)" fill="#fff"/>
        <path id="Trazado_98795" data-name="Trazado 98795" d="M374.132,95.34V277.382l-77.3,44.537V140.333Z" transform="translate(-296.829 -88.52)" fill="#fff"/>
      </g>
      <path id="Trazado_98796" data-name="Trazado 98796" d="M252.736,136.725V123.483c0-6.579,4-14.222,8.934-17.071L373.576,41.961a6.038,6.038,0,0,1,5.228-.767c.187.072,1.514.754,1.69.851l.008.005c-1.522-.739-3.453-.6-5.557.615L263.039,107.116c-4.934,2.849-8.934,10.491-8.934,17.07v13.243Z" transform="translate(-194.886 -39.186)" fill="#0ba19f"/>
      <path id="Trazado_98797" data-name="Trazado 98797" d="M258.293,107.116,370.2,42.665c4.934-2.849,8.934.175,8.934,6.754V62.457L249.359,137.224V124.186C249.359,117.607,253.359,109.965,258.293,107.116Z" transform="translate(-190.14 -39.186)" fill="#3ecfcd"/>
      <g id="Grupo_53135" data-name="Grupo 53135" transform="translate(75.674 70.808)">
        <g id="Grupo_53132" data-name="Grupo 53132" transform="translate(0)">
          <path id="Trazado_98798" data-name="Trazado 98798" d="M304.169,152.122l5.983-3.407v2.442l-5.983,3.408Zm7.729-4.415,13.883-7.988v2.442L311.9,150.149Zm15.63-9,14.451-8.339v2.442l-14.451,8.339Zm16.2-9.347,8.634-5.107V126.7l-8.634,5.106Z" transform="translate(-293.851 -109.994)" fill="#2672ab"/>
          <path id="Trazado_98799" data-name="Trazado 98799" d="M311.591,145.006l-7.422,4.285v-2.442l7.422-4.285Zm9.081-5.215L313.337,144v-2.443l7.335-4.207Zm22.31-12.876-20.564,11.868V136.34l20.564-11.867Zm1.746-3.451,10.49-6.177v2.442l-10.49,6.178Zm-28.86,9.584,39.35-23.054V113.7l-39.35,23.056Z" transform="translate(-296.709 -109.994)" fill="#3ecfcd"/>
          <path id="Trazado_98800" data-name="Trazado 98800" d="M320.9,154.517l-16.731,9.59v-2.442l16.731-9.59Zm9.08-5.215-7.334,4.207v-2.442l7.334-4.207Zm16.839-9.714-15.092,8.706v-2.442l15.092-8.706Zm1.746-3.451,10.49-6.177V132.4l-10.49,6.178Z" transform="translate(-300.546 -109.994)" fill="#2672ab"/>
          <path id="Trazado_98801" data-name="Trazado 98801" d="M304.169,166.01l17.852-10.259v2.442l-17.852,10.26Zm19.6-11.267,13.884-7.988V149.2l-13.884,7.988Zm15.63-9,12.792-7.437v2.443L339.4,148.189Zm14.538-8.445,2.283-1.357v2.442l-2.283,1.357Z" transform="translate(-297.709 -109.994)" fill="#2672ab"/>
          <path id="Trazado_98802" data-name="Trazado 98802" d="M322.222,169.2l-18.053,10.428v-2.443l18.053-10.428Zm3.921-2.234-2.175,1.225v-2.442l2.175-1.225Zm16.839-9.714-15.092,8.706v-2.443l15.092-8.706Zm1.746-3.451,10.49-6.178v2.442l-10.49,6.178Z" transform="translate(-296.709 -109.994)" fill="#2672ab"/>
          <path id="Trazado_98803" data-name="Trazado 98803" d="M304.169,187.371l14.014-8.117V181.7l-14.014,8.117Zm15.761-9.125,13.883-7.988V172.7l-13.883,7.987Zm15.63-9,10.6-6.2v2.442l-10.6,6.2Zm12.349-7.206,14.769-8.689V155.8l-14.769,8.689Z" transform="translate(-304.169 -109.994)" fill="#2672ab"/>
          <path id="Trazado_98804" data-name="Trazado 98804" d="M317.063,183.745l-12.894,7.446v-2.442l12.894-7.446Zm9.08-5.215-7.334,4.207v-2.443l7.334-4.207Zm16.839-9.714-15.092,8.706v-2.443l15.092-8.706Zm1.746-3.451,10.49-6.178v2.442l-10.49,6.178Z" transform="translate(-296.709 -109.994)" fill="#2672ab"/>
        </g>
        <g id="Grupo_53133" data-name="Grupo 53133" transform="translate(3.126 63.352)">
          <path id="Trazado_98805" data-name="Trazado 98805" d="M304.169,215.652l6.48-3.585v2.443l-6.48,3.585Zm8.226-4.593,13.883-7.988v2.443L312.4,213.5Zm15.63-9,14.451-8.339v2.443l-14.451,8.338Zm16.2-9.347,8.634-5.106v2.442l-8.634,5.106Z" transform="translate(-297.474 -173.346)" fill="#2672ab"/>
          <path id="Trazado_98806" data-name="Trazado 98806" d="M315.925,208.358l-11.756,6.606v-2.442l11.756-6.606Zm9.081-5.215-7.335,4.207v-2.442l7.335-4.207Zm22.31-12.876-20.564,11.868v-2.442l20.564-11.868Zm1.746-3.45,10.49-6.178v2.442l-10.49,6.178ZM320.2,196.4l39.35-23.054v3.707L320.2,200.108Z" transform="translate(-304.169 -173.346)" fill="#3ecfcd"/>
          <path id="Trazado_98807" data-name="Trazado 98807" d="M321.4,217.87l-17.228,9.767v-2.442l17.228-9.768Zm9.08-5.215-7.334,4.207v-2.443l7.334-4.207Zm16.839-9.715-15.092,8.706V209.2l15.092-8.706Zm1.746-3.45,10.49-6.178v2.442l-10.49,6.178Z" transform="translate(-304.169 -173.346)" fill="#2672ab"/>
          <path id="Trazado_98808" data-name="Trazado 98808" d="M304.169,229.541,322.517,219.1v2.442l-18.348,10.438Zm20.094-11.446,13.884-7.988v2.442l-13.884,7.988Zm15.63-9,12.792-7.438V204.1l-12.792,7.437Zm14.538-8.446,2.283-1.357v2.442l-2.283,1.358Z" transform="translate(-301.331 -173.346)" fill="#2672ab"/>
        </g>
        <g id="Grupo_53134" data-name="Grupo 53134" transform="translate(2.709 102.822)">
          <path id="Trazado_98809" data-name="Trazado 98809" d="M304.169,258.856l10.754-6.068v2.442L304.169,261.3Zm12.5-7.076,13.883-7.988v2.442l-13.883,7.988Zm15.63-9,17.052-9.863v2.442L332.3,245.226Zm18.8-10.872,6.034-3.582v2.442l-6.034,3.583Z" transform="translate(-301.331 -212.816)" fill="#2672ab"/>
          <path id="Trazado_98810" data-name="Trazado 98810" d="M311.591,249.079l-7.422,4.285v-2.442l7.422-4.286Zm9.081-5.215-7.335,4.207v-2.443l7.335-4.207Zm22.31-12.876-20.564,11.867v-2.442l20.564-11.867Zm1.746-3.451,10.49-6.177V223.8l-10.49,6.177Zm-28.86,8.334,39.35-23.055v3.707l-39.35,23.055Z" transform="translate(-299.418 -212.816)" fill="#3ecfcd"/>
          <path id="Trazado_98811" data-name="Trazado 98811" d="M321.423,255.636l-17.254,9.837v-2.442l17.254-9.837Zm3.817-2.261-2.071,1.253v-2.443l2.071-1.252Zm16.839-9.714-15.092,8.706v-2.442l15.092-8.706Zm1.746-3.451,10.49-6.177v2.442l-10.49,6.178Z" transform="translate(-298.515 -212.816)" fill="#2672ab"/>
          <path id="Trazado_98812" data-name="Trazado 98812" d="M304.169,270.542l18.765-10.718v2.442l-18.765,10.719Zm20.511-11.727,13.884-7.987v2.442l-13.884,7.988Zm15.63-9,2.163-1.262V251l-2.163,1.263Zm3.91-2.27,12.911-7.532v2.442l-12.911,7.532Z" transform="translate(-301.331 -212.816)" fill="#2672ab"/>
          <path id="Trazado_98813" data-name="Trazado 98813" d="M304.169,287.887l13.884-7.988v2.442l-13.884,7.988Zm15.63-9,2.163-1.262v2.442l-2.163,1.263Zm3.91-2.27,12.911-7.532v2.442l-12.911,7.532Z" transform="translate(-280.82 -212.816)" fill="#2672ab"/>
          <path id="Trazado_98814" data-name="Trazado 98814" d="M304.169,274.239l6.792-3.79v2.443l-6.792,3.789Zm8.538-4.8,13.883-7.987V263.9l-13.883,7.987Zm15.63-9,14.451-8.338v2.442l-14.451,8.338Zm16.2-9.347,8.634-5.106v2.442l-8.634,5.107Z" transform="translate(-297.369 -212.816)" fill="#2672ab"/>
          <path id="Trazado_98815" data-name="Trazado 98815" d="M321.813,276.252,304.169,286.3v-2.442l17.644-10.049Zm9.081-5.215-7.334,4.207V272.8l7.334-4.207Zm16.839-9.715-15.092,8.707v-2.443l15.092-8.706Zm1.746-3.45,10.49-6.178v2.442l-10.49,6.178Z" transform="translate(-304.169 -212.816)" fill="#2672ab"/>
          <path id="Trazado_98816" data-name="Trazado 98816" d="M304.169,286.534l16.366-9.3v2.442l-16.366,9.3Zm18.112-10.307,13.884-7.988v2.442l-13.884,7.988Zm15.63-9,11.541-6.639v2.442l-11.541,6.639Zm13.288-7.648,3.533-2.155v2.442l-3.533,2.156Z" transform="translate(-298.932 -212.816)" fill="#2672ab"/>
          <path id="Trazado_98817" data-name="Trazado 98817" d="M324.472,286.42l-20.3,11.446v-2.442l20.3-11.446Zm6.422-3.817-4.676,2.809v-2.443l4.676-2.809Zm16.839-9.715-15.092,8.706v-2.442l15.092-8.706Zm1.746-3.45,10.49-6.178V265.7l-10.49,6.178Z" transform="translate(-304.169 -212.816)" fill="#2672ab"/>
        </g>
      </g>
      <g id="Grupo_53136" data-name="Grupo 53136" transform="translate(94.964 37.972)">
        <path id="Trazado_98818" data-name="Trazado 98818" d="M304.037,103.193l2.46-1.382v2.442l-2.46,1.383Zm4.207-2.39,8.986-5.174v2.442l-8.986,5.174Zm10.732-6.183,5.568-3.293v2.442l-5.568,3.294Zm7.315-4.3,8.634-5.106v2.442l-8.634,5.106Z" transform="translate(-295.575 -77.158)" fill="#fff"/>
        <path id="Trazado_98819" data-name="Trazado 98819" d="M304.037,100.212l39.351-23.055v3.707L304.037,103.92Z" transform="translate(-304.037 -77.158)" fill="#fff"/>
      </g>
      <g id="Grupo_53137" data-name="Grupo 53137" transform="translate(150.688 125.185)">
        <path id="Trazado_98820" data-name="Trazado 98820" d="M259.023,186.551l8.753-5.1v2.442l-8.753,5.106Zm10.5-6.114,3.176-1.9v2.442l-3.176,1.9Zm4.922-2.9,8.635-5.106v2.442l-8.635,5.107Z" transform="translate(-254.438 -164.371)" fill="#3ecfcd"/>
        <path id="Trazado_98821" data-name="Trazado 98821" d="M259.023,181.118l28.64-16.747v3.707l-28.64,16.747Z" transform="translate(-259.023 -164.371)" fill="#3ecfcd"/>
      </g>
      <g id="Grupo_53138" data-name="Grupo 53138" transform="translate(150.792 68.887)">
        <path id="Trazado_98822" data-name="Trazado 98822" d="M267.463,119.862l20.1-11.789v2.549l-20.1,11.789Z" transform="translate(-267.463 -108.073)" fill="#2672ab"/>
      </g>
      <g id="Grupo_53139" data-name="Grupo 53139" transform="translate(142.878 11.198)">
        <ellipse id="Elipse_3939" data-name="Elipse 3939" cx="12.886" cy="22.321" rx="12.886" ry="22.321" transform="matrix(-0.863, -0.505, 0.505, -0.863, 22.249, 51.546)" fill="#a8cff0"/>
      </g>
      <path id="Trazado_98823" data-name="Trazado 98823" d="M267.17,93.49C275.914,88.442,283,76.216,283,66.182c0-4.777-1.62-8.176-4.247-9.9,3.6,1.249,5.914,5.012,5.914,10.735,0,10.033-7.088,22.26-15.832,27.308-4.581,2.644-8.694,2.774-11.585.875C259.966,96.14,263.413,95.659,267.17,93.49Z" transform="translate(-103.569 -39.186)" fill="#72b5e8"/>
      <path id="Trazado_98824" data-name="Trazado 98824" d="M257.681,108.457c0,2.457,1.735,3.447,3.876,2.211a8.543,8.543,0,0,0,3.877-6.687c0-2.457-1.736-3.446-3.877-2.21A8.541,8.541,0,0,0,257.681,108.457Z" transform="translate(-84.763 -39.186)" fill="#3ecfcd"/>
      <g id="Grupo_53140" data-name="Grupo 53140" transform="translate(150.792 80.036)">
        <path id="Trazado_98825" data-name="Trazado 98825" d="M267.463,131.011l20.1-11.789v2.549l-20.1,11.789Z" transform="translate(-267.463 -119.222)" fill="#2672ab"/>
      </g>
      <path id="Trazado_98826" data-name="Trazado 98826" d="M257.681,119.607c0,2.456,1.735,3.446,3.876,2.21a8.543,8.543,0,0,0,3.877-6.687c0-2.456-1.736-3.446-3.877-2.21A8.542,8.542,0,0,0,257.681,119.607Z" transform="translate(-84.763 -39.186)" fill="#3ecfcd"/>
      <g id="Grupo_53141" data-name="Grupo 53141" transform="translate(150.792 90.977)">
        <path id="Trazado_98827" data-name="Trazado 98827" d="M267.463,141.952l20.1-11.789v2.549l-20.1,11.789Z" transform="translate(-267.463 -130.163)" fill="#2672ab"/>
      </g>
      <path id="Trazado_98828" data-name="Trazado 98828" d="M257.681,130.547c0,2.457,1.735,3.447,3.876,2.211a8.543,8.543,0,0,0,3.877-6.687c0-2.457-1.736-3.446-3.877-2.21A8.541,8.541,0,0,0,257.681,130.547Z" transform="translate(-84.763 -39.186)" fill="#3ecfcd"/>
      <g id="Grupo_53142" data-name="Grupo 53142" transform="translate(150.792 101.918)">
        <path id="Trazado_98829" data-name="Trazado 98829" d="M267.463,152.893l20.1-11.789v2.549l-20.1,11.789Z" transform="translate(-267.463 -141.104)" fill="#2672ab"/>
      </g>
      <path id="Trazado_98830" data-name="Trazado 98830" d="M257.681,141.488c0,2.457,1.735,3.447,3.876,2.21a8.541,8.541,0,0,0,3.877-6.686c0-2.457-1.736-3.446-3.877-2.21A8.54,8.54,0,0,0,257.681,141.488Z" transform="translate(-84.763 -39.186)" fill="#3ecfcd"/>
      <g id="Grupo_53143" data-name="Grupo 53143" transform="translate(150.792 113.067)">
        <path id="Trazado_98831" data-name="Trazado 98831" d="M267.463,164.042l20.1-11.789V154.8l-20.1,11.789Z" transform="translate(-267.463 -152.253)" fill="#2672ab"/>
      </g>
      <path id="Trazado_98832" data-name="Trazado 98832" d="M257.681,152.637c0,2.457,1.735,3.447,3.876,2.211a8.543,8.543,0,0,0,3.877-6.687c0-2.457-1.736-3.446-3.877-2.21A8.541,8.541,0,0,0,257.681,152.637Z" transform="translate(-84.763 -39.186)" fill="#3ecfcd"/>
      <g id="Grupo_53144" data-name="Grupo 53144" transform="translate(150.688 144.253)">
        <path id="Trazado_98833" data-name="Trazado 98833" d="M259.023,200.187l28.64-16.747v3.707l-28.64,16.747Z" transform="translate(-259.023 -183.44)" fill="#a8cff0"/>
        <path id="Trazado_98834" data-name="Trazado 98834" d="M259.023,194.551l19-11.111v3.707l-19,11.112Z" transform="translate(-249.385 -183.44)" fill="#2672ab"/>
        <path id="Trazado_98835" data-name="Trazado 98835" d="M259.023,208l28.64-16.747v3.707l-28.64,16.747Z" transform="translate(-259.023 -183.44)" fill="#a8cff0"/>
        <path id="Trazado_98836" data-name="Trazado 98836" d="M259.023,205.188l23.847-13.934v3.707L259.023,208.9Z" transform="translate(-254.23 -183.44)" fill="#2672ab"/>
        <path id="Trazado_98837" data-name="Trazado 98837" d="M259.023,215.816l28.64-16.747v3.707l-28.64,16.747Z" transform="translate(-259.023 -183.44)" fill="#a8cff0"/>
        <path id="Trazado_98838" data-name="Trazado 98838" d="M259.023,205.457l10.927-6.387v3.707l-10.927,6.388Z" transform="translate(-241.31 -183.44)" fill="#2672ab"/>
        <path id="Trazado_98839" data-name="Trazado 98839" d="M259.023,223.631l28.64-16.747v3.707l-28.64,16.747Z" transform="translate(-259.023 -183.44)" fill="#a8cff0"/>
        <path id="Trazado_98840" data-name="Trazado 98840" d="M259.023,218l19-11.111v3.706l-19,11.112Z" transform="translate(-249.385 -183.44)" fill="#2672ab"/>
        <path id="Trazado_98841" data-name="Trazado 98841" d="M259.023,231.133l28.64-16.747v3.707l-28.64,16.747Z" transform="translate(-259.023 -183.44)" fill="#a8cff0"/>
        <path id="Trazado_98842" data-name="Trazado 98842" d="M259.023,217.8l5.821-3.41v3.707l-5.821,3.41Z" transform="translate(-236.204 -183.44)" fill="#2672ab"/>
        <path id="Trazado_98843" data-name="Trazado 98843" d="M259.023,238.948l28.64-16.747v3.707l-28.64,16.747Z" transform="translate(-259.023 -183.44)" fill="#a8cff0"/>
        <path id="Trazado_98844" data-name="Trazado 98844" d="M259.023,235.718,282.141,222.2v3.706l-23.118,13.518Z" transform="translate(-253.501 -183.44)" fill="#2672ab"/>
      </g>
      <g id="Grupo_53145" data-name="Grupo 53145" transform="translate(150.632 196.853)">
        <path id="Trazado_98845" data-name="Trazado 98845" d="M259.091,241.929l3.414-1.971v-3.918l-3.414,1.971Z" transform="translate(-233.877 -236.039)" fill="#3ecfcd"/>
        <path id="Trazado_98846" data-name="Trazado 98846" d="M265.395,245.568l3.414-1.971v-3.918l-3.414,1.971Z" transform="translate(-246.484 -236.039)" fill="#3ecfcd"/>
        <path id="Trazado_98847" data-name="Trazado 98847" d="M271.7,249.207l3.414-1.971v-3.918l-3.414,1.971Z" transform="translate(-259.091 -236.039)" fill="#3ecfcd"/>
        <path id="Trazado_98848" data-name="Trazado 98848" d="M278,252.847l3.414-1.971v-3.918L278,248.929Z" transform="translate(-271.698 -236.039)" fill="#a8cff0"/>
        <path id="Trazado_98849" data-name="Trazado 98849" d="M284.306,256.486l3.414-1.971V250.6l-3.414,1.971Z" transform="translate(-284.306 -236.039)" fill="#a8cff0"/>
        <path id="Trazado_98850" data-name="Trazado 98850" d="M259.091,248.6l3.414-1.971v-3.918l-3.414,1.971Z" transform="translate(-233.877 -236.039)" fill="#3ecfcd"/>
        <path id="Trazado_98851" data-name="Trazado 98851" d="M265.395,252.243l3.414-1.971v-3.918l-3.414,1.971Z" transform="translate(-246.484 -236.039)" fill="#3ecfcd"/>
        <path id="Trazado_98852" data-name="Trazado 98852" d="M271.7,255.883l3.414-1.971v-3.918l-3.414,1.971Z" transform="translate(-259.091 -236.039)" fill="#3ecfcd"/>
        <path id="Trazado_98853" data-name="Trazado 98853" d="M278,259.522l3.414-1.971v-3.918L278,255.6Z" transform="translate(-271.698 -236.039)" fill="#3ecfcd"/>
        <path id="Trazado_98854" data-name="Trazado 98854" d="M284.306,263.161l3.414-1.971v-3.918l-3.414,1.971Z" transform="translate(-284.306 -236.039)" fill="#a8cff0"/>
      </g>
      <ellipse id="Elipse_3940" data-name="Elipse 3940" cx="15.938" cy="27.607" rx="15.938" ry="27.607" transform="matrix(-0.863, -0.505, 0.505, -0.863, 169.951, 71.035)" fill="url(#radial-gradient)" style="mix-blend-mode: multiply;isolation: isolate"/>
      <ellipse id="Elipse_3941" data-name="Elipse 3941" cx="36.007" cy="62.369" rx="36.007" ry="62.369" transform="translate(90.78 263.32) rotate(-149.689)" opacity="0.7" fill="url(#radial-gradient-2)" style="mix-blend-mode: screen;isolation: isolate"/>
      <ellipse id="Elipse_3942" data-name="Elipse 3942" cx="49.133" cy="85.104" rx="49.133" ry="85.104" transform="translate(84.833 288.256) rotate(-149.689)" opacity="0.3" fill="url(#radial-gradient-3)" style="mix-blend-mode: multiply;isolation: isolate"/>
      <path id="Trazado_98855" data-name="Trazado 98855" d="M394.464,308.47c9.561,2.1,16.193,6.7,16.193,12.038,0,7.324-12.5,13.261-27.918,13.261a56.233,56.233,0,0,1-9.159-.745l-35.257,19.8c-2.276,1.315-6.253,1.15-8.881-.368-2.911-1.478-6.37-4.309-2.876-6.371L359.307,327.7Z" transform="translate(-297.401 -39.186)" fill="#92b4d1" opacity="0.2"/>
      <g id="Grupo_53146" data-name="Grupo 53146" transform="translate(28.361 244.317)">
        <path id="Trazado_98856" data-name="Trazado 98856" d="M395.881,342.468a7.494,7.494,0,1,0,10.151-3.042A7.494,7.494,0,0,0,395.881,342.468Z" transform="translate(-394.966 -283.503)" fill="#001a46"/>
        <path id="Trazado_98857" data-name="Trazado 98857" d="M393.767,295.348l16.223,8.741-24.2,44.646,0,0c-.011.022-.021.045-.032.067-1.406,2.609-6.177,2.767-10.657.353s-6.973-6.486-5.567-9.1c.012-.022.026-.042.038-.064h0Z" transform="translate(-369.139 -283.503)" fill="#084c94"/>
        <path id="Trazado_98858" data-name="Trazado 98858" d="M369.156,295.38c-1.406,2.609,1.087,6.681,5.567,9.1s9.251,2.256,10.657-.353-1.087-6.681-5.567-9.1S370.562,292.771,369.156,295.38Z" transform="translate(-344.546 -283.503)" fill="#2672ab"/>
        <path id="Trazado_98859" data-name="Trazado 98859" d="M369.371,295.38l.016-.024c-.963,2.61,1.492,6.392,5.744,8.683,4.465,2.406,9.218,2.256,10.641-.328a3.219,3.219,0,0,1-.177.411c-1.406,2.609-6.177,2.767-10.657.353S367.965,297.989,369.371,295.38Z" transform="translate(-344.761 -283.503)" fill="#3f92d1"/>
        <path id="Trazado_98860" data-name="Trazado 98860" d="M372.2,283.5l9.65,5.2-6.862,12.734h0l-.013.027c-.843,1.564-3.681,1.658-6.345.222s-4.148-3.857-3.311-5.409c.007-.013.015-.025.015-.025l.006-.014Z" transform="translate(-336.953 -283.503)" fill="#001a46"/>
      </g>
      <path id="Trazado_98861" data-name="Trazado 98861" d="M389.6,232.58l-7.318-1.447-3.762-2.069,4.046,1.7Z" transform="translate(-329.759 -39.186)" fill="#a8cff0"/>
      <g id="Grupo_53148" data-name="Grupo 53148" transform="translate(155.57 10.844)">
        <path id="Trazado_98862" data-name="Trazado 98862" d="M237.724,94.038c0-13.343,9.426-29.6,21.054-36.315,5.606-3.237,10.7-3.663,14.473-1.741l.012-.02,5.288,2.9-1.515,2.6a21.282,21.282,0,0,1,1.088,7.056c0,13.343-9.426,29.6-21.053,36.315a21.657,21.657,0,0,1-6.823,2.641l-1.545,2.654-4.208-2.252C240.332,105.866,237.724,101.054,237.724,94.038Z" transform="translate(-233.493 -50.03)" fill="#0ba19f"/>
        <ellipse id="Elipse_3943" data-name="Elipse 3943" cx="17.136" cy="29.682" rx="17.136" ry="29.682" transform="matrix(-0.863, -0.505, 0.505, -0.863, 29.588, 68.546)" fill="#fff"/>
        <ellipse id="Elipse_3944" data-name="Elipse 3944" cx="17.136" cy="29.682" rx="17.136" ry="29.682" transform="translate(30.056 68.801) rotate(-149.689)" fill="#3ecfcd"/>
        <g id="Grupo_53147" data-name="Grupo 53147" transform="translate(4.281 4.971)">
          <ellipse id="Elipse_3945" data-name="Elipse 3945" cx="14.88" cy="25.773" rx="14.88" ry="25.773" transform="matrix(-0.863, -0.505, 0.505, -0.863, 25.691, 59.52)" fill="#fff"/>
        </g>
      </g>
      <g id="Grupo_53149" data-name="Grupo 53149" transform="translate(178.071 6.91)">
        <path id="Trazado_98863" data-name="Trazado 98863" d="M231.619,116.2c15.8-9.124,28.662-31.3,28.662-49.439,0-8.873-3.032-15.51-8.537-18.689-5.552-3.208-12.907-2.492-20.705,2.011A46.383,46.383,0,0,0,223.37,55.7l.774.865a45.226,45.226,0,0,1,7.475-5.473c7.425-4.288,14.369-5,19.544-2.011,5.131,2.962,7.957,9.242,7.957,17.683,0,17.767-12.6,39.494-28.081,48.433Z" transform="translate(-223.37 -46.097)" fill="#f76195"/>
      </g>
      <g id="Grupo_53150" data-name="Grupo 53150" transform="translate(176.93 13.533)">
        <path id="Trazado_98864" data-name="Trazado 98864" d="M256.589,57.34l4.393-1.1a.58.58,0,1,0-.281-1.126l-2.26.565.807-2.177a.581.581,0,0,0-1.089-.4Z" transform="translate(-256.589 -52.72)" fill="#f76195"/>
      </g>
      <path id="Trazado_98865" data-name="Trazado 98865" d="M250.9,117.081c0,1.309.925,1.837,2.066,1.178a4.552,4.552,0,0,0,2.066-3.563c0-1.31-.925-1.837-2.066-1.178A4.551,4.551,0,0,0,250.9,117.081Z" transform="translate(-67.59 -39.186)" fill="#f76195"/>
      <g id="Grupo_53151" data-name="Grupo 53151" transform="translate(47.706 144.186)">
        <path id="Trazado_98866" data-name="Trazado 98866" d="M327.506,275.379c-6.365,3.674-12.278,4.912-17.24,4.067a48.061,48.061,0,0,0,4.75-2.379c21.789-12.58,39.452-43.046,39.452-68.049a47.635,47.635,0,0,0-.259-4.776c3.109,3.824,4.935,9.416,4.935,16.565C359.144,240.858,344.979,265.291,327.506,275.379Z" transform="translate(-278.764 -183.372)" fill="#3f92d1"/>
        <path id="Trazado_98867" data-name="Trazado 98867" d="M353.886,188.789c10.506-6.065,20.051-6.863,27.121-3.263l.022-.037,9.617,5.269c-7.1-3.818-16.783-3.125-27.47,3.045-21.789,12.58-39.453,43.046-39.453,68.048,0,12.269,4.27,20.914,11.176,25.08l-7.778-4.162c-7.8-3.767-12.687-12.782-12.687-25.931C314.434,231.835,332.1,201.369,353.886,188.789Z" transform="translate(-314.434 -183.372)" fill="#3f92d1"/>
        <path id="Trazado_98868" data-name="Trazado 98868" d="M341.905,193.8c10.687-6.17,20.366-6.863,27.47-3.045l.293.16-.013.022c7.209,4.04,11.7,12.786,11.7,25.356,0,25-17.664,55.469-39.452,68.049-11.044,6.376-21.006,6.9-28.167,2.641l0,0-.108-.058c-6.906-4.166-11.176-12.811-11.176-25.08C302.452,236.849,320.116,206.383,341.905,193.8Zm-17.24,85.643c4.962.845,10.875-.393,17.24-4.067,17.473-10.088,31.638-34.521,31.638-54.572,0-7.149-1.826-12.741-4.935-16.565-5.612-6.9-15.46-7.965-26.7-1.473-17.474,10.088-31.639,34.521-31.639,54.571C310.266,270.088,316,277.969,324.665,279.446Z" transform="translate(-293.163 -183.372)" fill="#a8cff0"/>
      </g>
    </g>
  </g>
</svg>
