<svg xmlns="http://www.w3.org/2000/svg" xmlns:xlink="http://www.w3.org/1999/xlink" width="726" height="631" viewBox="0 0 726 631"><defs><filter id="a" x="0" y="0" width="726" height="631" filterUnits="userSpaceOnUse"><feOffset dy="3" input="SourceAlpha"/><feGaussianBlur stdDeviation="3" result="b"/><feFlood flood-opacity="0.161"/><feComposite operator="in" in2="b"/><feComposite in="SourceGraphic"/></filter></defs><g transform="translate(-691 -9677)"><g transform="matrix(1, 0, 0, 1, 691, 9677)" filter="url(#a)"><rect width="708" height="613" rx="14" transform="translate(9 6)" fill="#fff"/></g><g transform="translate(1017.778 9749.001)"><path d="M-2115.615,326.232h-4.676l-.977,2.81h-2.181l4.56-12.071h1.881l4.568,12.071h-2.188Zm-4.086-1.692h3.5l-1.75-5.006Z" transform="translate(2123.449 -316.308)"/><path d="M-2113.572,319.124l.058.937a3.228,3.228,0,0,1,2.586-1.1,2.479,2.479,0,0,1,2.463,1.376,3.184,3.184,0,0,1,2.753-1.376,2.794,2.794,0,0,1,2.209.821,3.619,3.619,0,0,1,.742,2.421v5.894h-2.015v-5.836a1.789,1.789,0,0,0-.373-1.252,1.635,1.635,0,0,0-1.234-.4,1.679,1.679,0,0,0-1.123.368,1.95,1.95,0,0,0-.61.966l.009,6.152h-2.015v-5.9a1.436,1.436,0,0,0-1.617-1.583,1.771,1.771,0,0,0-1.715.986v6.5h-2.015v-8.97Z" transform="translate(2127.25 -315.361)"/><path d="M-2100.01,328.095a3.161,3.161,0,0,1-.232-.837,3.135,3.135,0,0,1-2.355,1,3.167,3.167,0,0,1-2.2-.771,2.468,2.468,0,0,1-.854-1.906,2.546,2.546,0,0,1,1.064-2.2,5.158,5.158,0,0,1,3.048-.768h1.234v-.588a1.579,1.579,0,0,0-.388-1.116,1.546,1.546,0,0,0-1.186-.418,1.778,1.778,0,0,0-1.128.344,1.061,1.061,0,0,0-.44.874h-2.014a2.235,2.235,0,0,1,.488-1.38,3.27,3.27,0,0,1,1.332-1.007,4.68,4.68,0,0,1,1.876-.365,3.77,3.77,0,0,1,2.513.791,2.823,2.823,0,0,1,.961,2.226v4.045a4.59,4.59,0,0,0,.339,1.931v.142Zm-2.213-1.45a2.292,2.292,0,0,0,1.124-.291,1.927,1.927,0,0,0,.792-.779v-1.692h-1.085a2.971,2.971,0,0,0-1.683.39,1.261,1.261,0,0,0-.564,1.1,1.177,1.177,0,0,0,.385.924A1.5,1.5,0,0,0-2102.223,326.645Z" transform="translate(2131.926 -315.361)"/><path d="M-2094.542,320.965a4.979,4.979,0,0,0-.821-.066,1.848,1.848,0,0,0-1.865,1.061v6.134h-2.015v-8.97h1.924l.05,1a2.27,2.27,0,0,1,2.022-1.168,1.869,1.869,0,0,1,.713.117Z" transform="translate(2134.981 -315.361)"/><path d="M-2095.193,317.839a1.088,1.088,0,0,1,.294-.778,1.109,1.109,0,0,1,.841-.309,1.124,1.124,0,0,1,.846.309,1.074,1.074,0,0,1,.3.778,1.05,1.05,0,0,1-.3.765,1.128,1.128,0,0,1-.846.3,1.112,1.112,0,0,1-.841-.3A1.063,1.063,0,0,1-2095.193,317.839Zm2.138,11.307h-2.014v-8.97h2.014Z" transform="translate(2136.909 -316.412)"/><path d="M-2090.158,329.256h-2.014V316.522h2.014Z" transform="translate(2138.348 -316.522)"/><path d="M-2087.221,329.256h-2.014V316.522h2.014Z" transform="translate(2139.748 -316.522)"/><path d="M-2086.642,323.527a5.31,5.31,0,0,1,.522-2.375,3.813,3.813,0,0,1,1.468-1.624,4.133,4.133,0,0,1,2.173-.568,3.923,3.923,0,0,1,2.947,1.168,4.6,4.6,0,0,1,1.222,3.1l.009.472a5.326,5.326,0,0,1-.511,2.371,3.763,3.763,0,0,1-1.459,1.617,4.172,4.172,0,0,1-2.194.571A3.889,3.889,0,0,1-2085.5,327a4.839,4.839,0,0,1-1.142-3.369Zm2.015.174a3.621,3.621,0,0,0,.572,2.167,1.862,1.862,0,0,0,1.591.784,1.84,1.84,0,0,0,1.588-.8,3.988,3.988,0,0,0,.567-2.33,3.57,3.57,0,0,0-.583-2.156,1.868,1.868,0,0,0-1.587-.8,1.853,1.853,0,0,0-1.568.783A3.921,3.921,0,0,0-2084.627,323.7Z" transform="translate(2140.983 -315.361)"/></g><g transform="translate(1022.898 10216.517)"><path d="M-2114.652,643.079l3.068-9.441h2.3l-4.344,12.069h-2.031l-4.327-12.069h2.3Z" transform="translate(2119.981 -632.974)"/><path d="M-2111.94,634.5a1.081,1.081,0,0,1,.294-.777,1.11,1.11,0,0,1,.842-.309,1.119,1.119,0,0,1,.844.309,1.074,1.074,0,0,1,.3.777,1.053,1.053,0,0,1-.3.766,1.122,1.122,0,0,1-.844.3,1.114,1.114,0,0,1-.842-.3A1.059,1.059,0,0,1-2111.94,634.5Zm2.138,11.307h-2.014v-8.969h2.014Z" transform="translate(2123.812 -633.078)"/><path d="M-2109.263,640.194a5.28,5.28,0,0,1,.523-2.375,3.809,3.809,0,0,1,1.467-1.624,4.128,4.128,0,0,1,2.173-.568,3.923,3.923,0,0,1,2.947,1.168,4.608,4.608,0,0,1,1.223,3.1l.009.472a5.331,5.331,0,0,1-.511,2.37,3.767,3.767,0,0,1-1.459,1.617,4.159,4.159,0,0,1-2.194.573,3.882,3.882,0,0,1-3.037-1.265,4.836,4.836,0,0,1-1.141-3.369Zm2.015.174a3.617,3.617,0,0,0,.571,2.167,1.861,1.861,0,0,0,1.592.784,1.841,1.841,0,0,0,1.589-.8,4,4,0,0,0,.567-2.33,3.563,3.563,0,0,0-.583-2.155,1.865,1.865,0,0,0-1.587-.8,1.848,1.848,0,0,0-1.568.782A3.919,3.919,0,0,0-2107.248,640.368Z" transform="translate(2125.087 -632.027)"/><path d="M-2100.358,645.922h-2.015V633.188h2.015Z" transform="translate(2128.369 -633.188)"/><path d="M-2095.461,644.927a4.17,4.17,0,0,1-3.1-1.206,4.377,4.377,0,0,1-1.19-3.213v-.248a5.381,5.381,0,0,1,.518-2.4,3.952,3.952,0,0,1,1.456-1.646,3.856,3.856,0,0,1,2.089-.588,3.528,3.528,0,0,1,2.832,1.168,4.946,4.946,0,0,1,1,3.309v.812h-5.861a2.689,2.689,0,0,0,.742,1.757,2.227,2.227,0,0,0,1.636.648,2.727,2.727,0,0,0,2.256-1.121l1.087,1.036a3.624,3.624,0,0,1-1.438,1.249A4.518,4.518,0,0,1-2095.461,644.927Zm-.241-7.685a1.7,1.7,0,0,0-1.339.579,3.014,3.014,0,0,0-.649,1.618h3.837v-.151a2.451,2.451,0,0,0-.539-1.53A1.687,1.687,0,0,0-2095.7,637.243Z" transform="translate(2129.615 -632.027)"/><path d="M-2090.516,634.261v2.181h1.584v1.493h-1.584v5.008a1.1,1.1,0,0,0,.2.741.938.938,0,0,0,.725.227,3.132,3.132,0,0,0,.7-.083v1.559a4.96,4.96,0,0,1-1.326.191q-2.321,0-2.321-2.563v-5.08h-1.476v-1.493h1.476v-2.181Z" transform="translate(2132.355 -632.677)"/><path d="M-2084.075,644.76a3.07,3.07,0,0,1-.233-.837,3.136,3.136,0,0,1-2.354,1,3.163,3.163,0,0,1-2.206-.772,2.465,2.465,0,0,1-.853-1.906,2.553,2.553,0,0,1,1.064-2.2,5.167,5.167,0,0,1,3.047-.766h1.234v-.589a1.577,1.577,0,0,0-.388-1.115,1.546,1.546,0,0,0-1.186-.419,1.78,1.78,0,0,0-1.128.344,1.069,1.069,0,0,0-.44.875h-2.014a2.244,2.244,0,0,1,.489-1.38,3.253,3.253,0,0,1,1.332-1.007,4.66,4.66,0,0,1,1.876-.365,3.769,3.769,0,0,1,2.513.791,2.822,2.822,0,0,1,.961,2.226v4.045a4.59,4.59,0,0,0,.34,1.931v.14Zm-2.213-1.45a2.29,2.29,0,0,0,1.122-.289,1.929,1.929,0,0,0,.791-.781v-1.69h-1.085a2.974,2.974,0,0,0-1.683.39,1.264,1.264,0,0,0-.562,1.1,1.178,1.178,0,0,0,.384.924A1.5,1.5,0,0,0-2086.289,643.311Z" transform="translate(2134.396 -632.027)"/></g><g transform="translate(1255.827 10080.209)"><path d="M-1957.777,548.508h-2.337v4.643h-2.1V541.08h4.244a4.932,4.932,0,0,1,3.224.939,3.312,3.312,0,0,1,1.135,2.712,3.391,3.391,0,0,1-.585,2.029,3.717,3.717,0,0,1-1.628,1.256l2.71,5.029v.106h-2.247Zm-2.337-1.69h2.156a2.391,2.391,0,0,0,1.658-.534,1.866,1.866,0,0,0,.6-1.465,1.981,1.981,0,0,0-.552-1.5,2.329,2.329,0,0,0-1.646-.548h-2.213Z" transform="translate(1962.21 -540.758)"/><path d="M-1955.422,547.636a5.272,5.272,0,0,1,.523-2.374,3.805,3.805,0,0,1,1.468-1.625,4.126,4.126,0,0,1,2.172-.568,3.927,3.927,0,0,1,2.948,1.168,4.611,4.611,0,0,1,1.222,3.1l.009.472a5.338,5.338,0,0,1-.511,2.371,3.761,3.761,0,0,1-1.458,1.615,4.16,4.16,0,0,1-2.194.573,3.887,3.887,0,0,1-3.037-1.264,4.84,4.84,0,0,1-1.141-3.371Zm2.015.174a3.616,3.616,0,0,0,.571,2.167,1.858,1.858,0,0,0,1.592.784,1.837,1.837,0,0,0,1.589-.8,4,4,0,0,0,.567-2.33,3.579,3.579,0,0,0-.583-2.155,1.872,1.872,0,0,0-1.589-.8,1.851,1.851,0,0,0-1.566.782A3.922,3.922,0,0,0-1953.407,547.81Z" transform="translate(1965.444 -539.811)"/><path d="M-1945.983,544.286v9.765a2.952,2.952,0,0,1-.685,2.1,2.62,2.62,0,0,1-2,.725,4,4,0,0,1-1.069-.142v-1.592a3.074,3.074,0,0,0,.713.075q1,0,1.028-1.094v-9.84Zm-2.19-2.339a1.092,1.092,0,0,1,.294-.778,1.115,1.115,0,0,1,.841-.307,1.134,1.134,0,0,1,.848.307,1.083,1.083,0,0,1,.3.778,1.051,1.051,0,0,1-.3.765,1.133,1.133,0,0,1-.848.3,1.113,1.113,0,0,1-.841-.3A1.06,1.06,0,0,1-1948.173,541.947Z" transform="translate(1968.151 -540.862)"/><path d="M-1945.994,547.636a5.292,5.292,0,0,1,.523-2.374,3.805,3.805,0,0,1,1.468-1.625,4.127,4.127,0,0,1,2.173-.568,3.923,3.923,0,0,1,2.947,1.168,4.6,4.6,0,0,1,1.222,3.1l.009.472a5.325,5.325,0,0,1-.511,2.371,3.763,3.763,0,0,1-1.459,1.615,4.159,4.159,0,0,1-2.194.573,3.886,3.886,0,0,1-3.037-1.264,4.839,4.839,0,0,1-1.141-3.371Zm2.015.174a3.614,3.614,0,0,0,.572,2.167,1.857,1.857,0,0,0,1.592.784,1.837,1.837,0,0,0,1.588-.8,4,4,0,0,0,.567-2.33,3.567,3.567,0,0,0-.583-2.155,1.869,1.869,0,0,0-1.587-.8,1.852,1.852,0,0,0-1.568.782A3.922,3.922,0,0,0-1943.979,547.81Z" transform="translate(1969.935 -539.811)"/></g><g transform="translate(807.81 10079.868)"><path d="M-2257.835,550.341h-4.676l-.977,2.809h-2.181l4.559-12.071h1.881l4.569,12.071h-2.19Zm-4.086-1.692h3.5l-1.748-5.008Z" transform="translate(2265.668 -540.417)"/><path d="M-2255.086,550.542h4.776v1.608h-7.278v-1.318l4.55-6.026h-4.467v-1.624h7.022v1.276Z" transform="translate(2269.517 -539.416)"/><path d="M-2246.117,551.272a3.125,3.125,0,0,1-2.521,1.044,2.784,2.784,0,0,1-2.21-.853,3.632,3.632,0,0,1-.75-2.471v-5.81h2.015v5.786c0,1.138.471,1.708,1.417,1.708a1.992,1.992,0,0,0,1.981-1.054v-6.44h2.014v8.969h-1.9Z" transform="translate(2272.371 -539.416)"/><path d="M-2243.075,553.365h-2.014V540.631h2.014Z" transform="translate(2275.471 -540.631)"/></g><g transform="translate(1254.783 9898.142)"><path d="M-1953.343,429.831h-2.1l-5.38-8.564v8.564h-2.1V417.76h2.1l5.4,8.6v-8.6h2.08Z" transform="translate(1962.917 -417.437)"/><path d="M-1949.432,428.884a3.185,3.185,0,0,1-.232-.839,3.138,3.138,0,0,1-2.355,1,3.157,3.157,0,0,1-2.2-.772,2.461,2.461,0,0,1-.855-1.906,2.55,2.55,0,0,1,1.066-2.2,5.16,5.16,0,0,1,3.046-.766h1.236v-.589a1.571,1.571,0,0,0-.39-1.115,1.543,1.543,0,0,0-1.184-.419,1.766,1.766,0,0,0-1.128.345,1.06,1.06,0,0,0-.44.874h-2.014a2.234,2.234,0,0,1,.489-1.38,3.25,3.25,0,0,1,1.33-1.007,4.667,4.667,0,0,1,1.878-.365,3.767,3.767,0,0,1,2.511.791,2.825,2.825,0,0,1,.961,2.226v4.045a4.565,4.565,0,0,0,.341,1.931v.142Zm-2.213-1.451a2.291,2.291,0,0,0,1.124-.289,1.955,1.955,0,0,0,.791-.78v-1.692h-1.085a2.966,2.966,0,0,0-1.683.39,1.261,1.261,0,0,0-.564,1.1,1.179,1.179,0,0,0,.385.924A1.5,1.5,0,0,0-1951.646,427.433Z" transform="translate(1966.651 -416.49)"/><path d="M-1943.964,421.753a5.169,5.169,0,0,0-.821-.065,1.851,1.851,0,0,0-1.866,1.06v6.136h-2.014v-8.97h1.924l.049,1a2.272,2.272,0,0,1,2.023-1.168,1.9,1.9,0,0,1,.713.115Z" transform="translate(1969.706 -416.49)"/><path d="M-1939.337,428.884a3.056,3.056,0,0,1-.232-.839,3.137,3.137,0,0,1-2.355,1,3.156,3.156,0,0,1-2.2-.772,2.46,2.46,0,0,1-.853-1.906,2.549,2.549,0,0,1,1.064-2.2,5.166,5.166,0,0,1,3.047-.766h1.234v-.589a1.57,1.57,0,0,0-.39-1.115,1.544,1.544,0,0,0-1.186-.419,1.766,1.766,0,0,0-1.126.345,1.06,1.06,0,0,0-.44.874h-2.015a2.237,2.237,0,0,1,.49-1.38,3.239,3.239,0,0,1,1.33-1.007,4.665,4.665,0,0,1,1.876-.365,3.773,3.773,0,0,1,2.514.791,2.835,2.835,0,0,1,.961,2.226v4.045a4.6,4.6,0,0,0,.338,1.931v.142Zm-2.213-1.451a2.3,2.3,0,0,0,1.124-.289,1.937,1.937,0,0,0,.791-.78v-1.692h-1.087a2.967,2.967,0,0,0-1.682.39,1.261,1.261,0,0,0-.564,1.1,1.178,1.178,0,0,0,.385.924A1.5,1.5,0,0,0-1941.55,427.433Z" transform="translate(1971.461 -416.49)"/><path d="M-1936.687,419.913l.058,1.036a3.228,3.228,0,0,1,2.612-1.2q2.8,0,2.851,3.208v5.928h-2.014v-5.812a1.838,1.838,0,0,0-.369-1.262,1.545,1.545,0,0,0-1.206-.412,1.943,1.943,0,0,0-1.816,1.1v6.384h-2.014v-8.97Z" transform="translate(1974.508 -416.49)"/><path d="M-1929.535,420.965v9.766a2.941,2.941,0,0,1-.685,2.1,2.619,2.619,0,0,1-2,.726,4.069,4.069,0,0,1-1.07-.142v-1.592a3.076,3.076,0,0,0,.712.075q1.005,0,1.029-1.1v-9.84Zm-2.188-2.339a1.082,1.082,0,0,1,.294-.777,1.107,1.107,0,0,1,.84-.309,1.124,1.124,0,0,1,.846.309,1.074,1.074,0,0,1,.3.777,1.052,1.052,0,0,1-.3.766,1.127,1.127,0,0,1-.846.3,1.111,1.111,0,0,1-.84-.3A1.06,1.06,0,0,1-1931.723,418.626Z" transform="translate(1977.03 -417.541)"/><path d="M-1923.839,428.884a3.121,3.121,0,0,1-.232-.839,3.137,3.137,0,0,1-2.355,1,3.158,3.158,0,0,1-2.2-.772,2.46,2.46,0,0,1-.854-1.906,2.549,2.549,0,0,1,1.065-2.2,5.166,5.166,0,0,1,3.047-.766h1.234v-.589a1.57,1.57,0,0,0-.39-1.115,1.544,1.544,0,0,0-1.186-.419,1.767,1.767,0,0,0-1.126.345,1.061,1.061,0,0,0-.44.874h-2.014a2.234,2.234,0,0,1,.489-1.38,3.239,3.239,0,0,1,1.33-1.007,4.665,4.665,0,0,1,1.876-.365,3.773,3.773,0,0,1,2.514.791,2.836,2.836,0,0,1,.961,2.226v4.045a4.592,4.592,0,0,0,.338,1.931v.142Zm-2.213-1.451a2.3,2.3,0,0,0,1.124-.289,1.936,1.936,0,0,0,.791-.78v-1.692h-1.086a2.967,2.967,0,0,0-1.682.39,1.262,1.262,0,0,0-.564,1.1,1.179,1.179,0,0,0,.385.924A1.5,1.5,0,0,0-1926.052,427.433Z" transform="translate(1978.844 -416.49)"/></g><g transform="translate(792.666 9897.803)"><path d="M-2270.595,427.2l3.066-9.441h2.306l-4.345,12.071h-2.032l-4.327-12.071h2.3Z" transform="translate(2275.926 -417.097)"/><path d="M-2264.073,429.049a4.171,4.171,0,0,1-3.1-1.206,4.375,4.375,0,0,1-1.19-3.213v-.248a5.384,5.384,0,0,1,.518-2.4,3.941,3.941,0,0,1,1.456-1.646,3.853,3.853,0,0,1,2.089-.588,3.522,3.522,0,0,1,2.83,1.168,4.945,4.945,0,0,1,1,3.309v.812h-5.861a2.694,2.694,0,0,0,.741,1.758,2.229,2.229,0,0,0,1.637.647,2.723,2.723,0,0,0,2.255-1.121l1.086,1.036a3.613,3.613,0,0,1-1.438,1.249A4.508,4.508,0,0,1-2264.073,429.049Zm-.241-7.685a1.7,1.7,0,0,0-1.339.579,3.028,3.028,0,0,0-.651,1.618h3.838v-.151a2.448,2.448,0,0,0-.539-1.53A1.686,1.686,0,0,0-2264.314,421.365Z" transform="translate(2279.527 -416.15)"/><path d="M-2257.266,421.753a5.151,5.151,0,0,0-.821-.065,1.852,1.852,0,0,0-1.866,1.06v6.136h-2.014v-8.97h1.924l.051,1a2.269,2.269,0,0,1,2.022-1.168,1.9,1.9,0,0,1,.713.115Z" transform="translate(2282.576 -416.15)"/><path d="M-2258.283,425.493a5.335,5.335,0,0,1,.961-3.328,3.083,3.083,0,0,1,2.58-1.256,2.93,2.93,0,0,1,2.3,1v-4.593h2.014v12.734h-1.824l-.1-.929a2.965,2.965,0,0,1-2.411,1.094,3.06,3.06,0,0,1-2.55-1.27A5.517,5.517,0,0,1-2258.283,425.493Zm2.015.174a3.731,3.731,0,0,0,.526,2.135,1.71,1.71,0,0,0,1.5.768,1.9,1.9,0,0,0,1.808-1.1v-3.83a1.873,1.873,0,0,0-1.791-1.078,1.719,1.719,0,0,0-1.509.777A4.147,4.147,0,0,0-2256.268,425.667Z" transform="translate(2284.331 -417.311)"/><path d="M-2247.474,429.049a4.168,4.168,0,0,1-3.1-1.206,4.376,4.376,0,0,1-1.191-3.213v-.248a5.378,5.378,0,0,1,.52-2.4,3.943,3.943,0,0,1,1.454-1.646,3.857,3.857,0,0,1,2.089-.588,3.523,3.523,0,0,1,2.832,1.168,4.945,4.945,0,0,1,1,3.309v.812h-5.861a2.693,2.693,0,0,0,.743,1.758,2.227,2.227,0,0,0,1.638.647,2.725,2.725,0,0,0,2.254-1.121l1.086,1.036a3.613,3.613,0,0,1-1.438,1.249A4.506,4.506,0,0,1-2247.474,429.049Zm-.24-7.685a1.7,1.7,0,0,0-1.339.579,3,3,0,0,0-.651,1.618h3.838v-.151a2.459,2.459,0,0,0-.539-1.53A1.691,1.691,0,0,0-2247.714,421.365Z" transform="translate(2287.433 -416.15)"/></g><g transform="translate(1268.327 9978.169)"><path d="M-1941.627,479.393h-2.337v4.643h-2.1V471.965h4.245a4.943,4.943,0,0,1,3.226.938,3.317,3.317,0,0,1,1.137,2.714,3.387,3.387,0,0,1-.586,2.029,3.726,3.726,0,0,1-1.628,1.256l2.711,5.027v.108h-2.247Zm-2.337-1.69h2.156a2.39,2.39,0,0,0,1.658-.536,1.86,1.86,0,0,0,.6-1.463,1.986,1.986,0,0,0-.551-1.5,2.346,2.346,0,0,0-1.647-.548h-2.213Z" transform="translate(1957.402 -471.642)"/><path d="M-1939.272,478.521a5.3,5.3,0,0,1,.521-2.375,3.815,3.815,0,0,1,1.468-1.625,4.141,4.141,0,0,1,2.173-.567,3.926,3.926,0,0,1,2.947,1.168,4.6,4.6,0,0,1,1.222,3.1l.009.472a5.325,5.325,0,0,1-.511,2.371,3.761,3.761,0,0,1-1.459,1.615,4.157,4.157,0,0,1-2.192.573,3.89,3.89,0,0,1-3.038-1.265,4.834,4.834,0,0,1-1.14-3.369Zm2.014.174a3.627,3.627,0,0,0,.571,2.167,1.864,1.864,0,0,0,1.593.784,1.838,1.838,0,0,0,1.587-.8,3.99,3.99,0,0,0,.568-2.33,3.565,3.565,0,0,0-.585-2.156,1.87,1.87,0,0,0-1.587-.8,1.852,1.852,0,0,0-1.568.782A3.921,3.921,0,0,0-1937.258,478.7Z" transform="translate(1960.637 -470.695)"/><path d="M-1929.834,475.17v9.766a2.944,2.944,0,0,1-.685,2.1,2.617,2.617,0,0,1-2,.726,4.016,4.016,0,0,1-1.07-.142V486.03a3.081,3.081,0,0,0,.713.075q1,0,1.028-1.1v-9.84Zm-2.188-2.339a1.082,1.082,0,0,1,.294-.777,1.107,1.107,0,0,1,.84-.309,1.123,1.123,0,0,1,.846.309,1.074,1.074,0,0,1,.3.777,1.053,1.053,0,0,1-.3.766,1.132,1.132,0,0,1-.846.3,1.116,1.116,0,0,1-.84-.3A1.06,1.06,0,0,1-1932.022,472.831Z" transform="translate(1963.344 -471.746)"/><path d="M-1929.845,478.521a5.264,5.264,0,0,1,.524-2.375,3.8,3.8,0,0,1,1.466-1.625,4.146,4.146,0,0,1,2.173-.567,3.923,3.923,0,0,1,2.947,1.168,4.6,4.6,0,0,1,1.222,3.1l.009.472a5.342,5.342,0,0,1-.511,2.371,3.77,3.77,0,0,1-1.459,1.615,4.159,4.159,0,0,1-2.194.573,3.889,3.889,0,0,1-3.037-1.265,4.835,4.835,0,0,1-1.141-3.369Zm2.017.174a3.617,3.617,0,0,0,.57,2.167,1.861,1.861,0,0,0,1.592.784,1.845,1.845,0,0,0,1.59-.8,4.014,4.014,0,0,0,.565-2.33,3.577,3.577,0,0,0-.583-2.156,1.867,1.867,0,0,0-1.587-.8,1.854,1.854,0,0,0-1.568.782A3.922,3.922,0,0,0-1927.828,478.7Z" transform="translate(1965.127 -470.695)"/><path d="M-1951.844,487.118l.058,1.036a3.224,3.224,0,0,1,2.612-1.2q2.8,0,2.851,3.208v5.928h-2.014v-5.812a1.843,1.843,0,0,0-.369-1.264,1.552,1.552,0,0,0-1.206-.41,1.943,1.943,0,0,0-1.816,1.1v6.384h-2.014v-8.97Z" transform="translate(1953.743 -464.502)"/><path d="M-1941.877,496.089a3.082,3.082,0,0,1-.232-.839,3.136,3.136,0,0,1-2.355,1,3.157,3.157,0,0,1-2.2-.772,2.46,2.46,0,0,1-.853-1.906,2.548,2.548,0,0,1,1.064-2.2,5.167,5.167,0,0,1,3.047-.766h1.234v-.589a1.571,1.571,0,0,0-.39-1.115,1.545,1.545,0,0,0-1.186-.419,1.767,1.767,0,0,0-1.126.345,1.06,1.06,0,0,0-.44.874h-2.015a2.243,2.243,0,0,1,.489-1.38,3.254,3.254,0,0,1,1.332-1.007,4.664,4.664,0,0,1,1.876-.365,3.758,3.758,0,0,1,2.513.791,2.827,2.827,0,0,1,.962,2.226v4.045a4.6,4.6,0,0,0,.338,1.931v.142Zm-2.213-1.451a2.285,2.285,0,0,0,1.122-.291,1.928,1.928,0,0,0,.793-.778v-1.692h-1.087a2.963,2.963,0,0,0-1.682.39,1.261,1.261,0,0,0-.564,1.1,1.177,1.177,0,0,0,.385.924A1.494,1.494,0,0,0-1944.09,494.638Z" transform="translate(1956.707 -464.502)"/><path d="M-1936.41,488.959a4.946,4.946,0,0,0-.819-.066,1.85,1.85,0,0,0-1.866,1.06v6.136h-2.014v-8.97h1.922l.052,1a2.27,2.27,0,0,1,2.023-1.168,1.893,1.893,0,0,1,.711.115Z" transform="translate(1959.761 -464.502)"/><path d="M-1931.781,496.089a3.193,3.193,0,0,1-.232-.839,3.137,3.137,0,0,1-2.355,1,3.156,3.156,0,0,1-2.2-.772,2.466,2.466,0,0,1-.855-1.906,2.549,2.549,0,0,1,1.066-2.2,5.164,5.164,0,0,1,3.046-.766h1.236v-.589a1.576,1.576,0,0,0-.388-1.115,1.546,1.546,0,0,0-1.186-.419,1.766,1.766,0,0,0-1.128.345,1.061,1.061,0,0,0-.44.874h-2.014a2.234,2.234,0,0,1,.489-1.38,3.254,3.254,0,0,1,1.332-1.007,4.654,4.654,0,0,1,1.876-.365,3.76,3.76,0,0,1,2.511.791,2.822,2.822,0,0,1,.962,2.226v4.045a4.591,4.591,0,0,0,.34,1.931v.142Zm-2.213-1.451a2.292,2.292,0,0,0,1.123-.291,1.943,1.943,0,0,0,.792-.778v-1.692h-1.085a2.965,2.965,0,0,0-1.683.39,1.261,1.261,0,0,0-.564,1.1,1.176,1.176,0,0,0,.385.924A1.5,1.5,0,0,0-1933.993,494.638Z" transform="translate(1961.516 -464.502)"/><path d="M-1929.132,487.118l.059,1.036a3.221,3.221,0,0,1,2.61-1.2q2.8,0,2.853,3.208v5.928h-2.014v-5.812a1.851,1.851,0,0,0-.369-1.264,1.557,1.557,0,0,0-1.208-.41,1.941,1.941,0,0,0-1.814,1.1v6.384h-2.014v-8.97Z" transform="translate(1964.564 -464.502)"/><path d="M-1921.98,488.17v9.766a2.955,2.955,0,0,1-.684,2.1,2.62,2.62,0,0,1-2,.726,3.978,3.978,0,0,1-1.067-.142V499.03a3.051,3.051,0,0,0,.712.075c.669,0,1.012-.365,1.027-1.1v-9.84Zm-2.189-2.339a1.087,1.087,0,0,1,.294-.777,1.114,1.114,0,0,1,.843-.309,1.125,1.125,0,0,1,.846.309,1.073,1.073,0,0,1,.3.777,1.051,1.051,0,0,1-.3.766,1.134,1.134,0,0,1-.846.3,1.123,1.123,0,0,1-.843-.3A1.065,1.065,0,0,1-1924.169,485.831Z" transform="translate(1967.086 -465.553)"/><path d="M-1916.282,496.089a3.2,3.2,0,0,1-.232-.839,3.135,3.135,0,0,1-2.353,1,3.157,3.157,0,0,1-2.206-.772,2.466,2.466,0,0,1-.855-1.906,2.549,2.549,0,0,1,1.066-2.2,5.166,5.166,0,0,1,3.046-.766h1.236v-.589a1.577,1.577,0,0,0-.388-1.115,1.546,1.546,0,0,0-1.186-.419,1.766,1.766,0,0,0-1.128.345,1.061,1.061,0,0,0-.44.874h-2.014a2.235,2.235,0,0,1,.489-1.38,3.256,3.256,0,0,1,1.332-1.007,4.654,4.654,0,0,1,1.876-.365,3.759,3.759,0,0,1,2.511.791,2.821,2.821,0,0,1,.962,2.226v4.045a4.6,4.6,0,0,0,.34,1.931v.142Zm-2.213-1.451a2.292,2.292,0,0,0,1.124-.291,1.934,1.934,0,0,0,.791-.778v-1.692h-1.085a2.965,2.965,0,0,0-1.683.39,1.261,1.261,0,0,0-.564,1.1,1.176,1.176,0,0,0,.385.924A1.494,1.494,0,0,0-1918.5,494.638Z" transform="translate(1968.899 -464.502)"/></g><g transform="translate(786 9977.829)"><path d="M-2269.854,481.225h-4.676l-.977,2.811h-2.181l4.559-12.071h1.883l4.568,12.071h-2.188Zm-4.086-1.69h3.5l-1.75-5.008Z" transform="translate(2281.753 -471.302)"/><path d="M-2267.1,481.426h4.774v1.609h-7.278v-1.318l4.552-6.027h-4.469v-1.625h7.022v1.277Z" transform="translate(2285.602 -470.302)"/><path d="M-2258.136,482.156a3.123,3.123,0,0,1-2.521,1.045,2.784,2.784,0,0,1-2.208-.853,3.635,3.635,0,0,1-.751-2.471v-5.811h2.016v5.786q0,1.707,1.417,1.708a1.991,1.991,0,0,0,1.981-1.053v-6.441h2.015v8.97h-1.9Z" transform="translate(2288.456 -470.302)"/><path d="M-2255.093,484.25h-2.014V471.516h2.014Z" transform="translate(2291.557 -471.516)"/><path d="M-2276.43,493.481l1.9-6.416h2.082l-3.109,8.97h-1.75l-3.132-8.97h2.089Z" transform="translate(2280.441 -464.109)"/><path d="M-2270.189,496.254a4.171,4.171,0,0,1-3.1-1.206,4.377,4.377,0,0,1-1.19-3.213v-.248a5.384,5.384,0,0,1,.518-2.4,3.931,3.931,0,0,1,1.456-1.645,3.826,3.826,0,0,1,2.089-.589,3.523,3.523,0,0,1,2.83,1.168,4.946,4.946,0,0,1,1,3.309v.812h-5.86a2.692,2.692,0,0,0,.741,1.758,2.229,2.229,0,0,0,1.637.647,2.724,2.724,0,0,0,2.254-1.121l1.087,1.036a3.626,3.626,0,0,1-1.438,1.249A4.507,4.507,0,0,1-2270.189,496.254Zm-.241-7.684a1.7,1.7,0,0,0-1.339.579,3.024,3.024,0,0,0-.651,1.618h3.838v-.149a2.454,2.454,0,0,0-.539-1.531A1.686,1.686,0,0,0-2270.43,488.57Z" transform="translate(2283.279 -464.162)"/><path d="M-2263.382,488.959a4.979,4.979,0,0,0-.821-.066,1.85,1.85,0,0,0-1.866,1.06v6.136h-2.014v-8.97h1.923l.049,1a2.275,2.275,0,0,1,2.024-1.168,1.892,1.892,0,0,1,.711.115Z" transform="translate(2286.328 -464.162)"/><path d="M-2264.4,492.7a5.34,5.34,0,0,1,.961-3.329,3.084,3.084,0,0,1,2.579-1.255,2.927,2.927,0,0,1,2.3.994v-4.592h2.014V497.25h-1.825l-.1-.929a2.971,2.971,0,0,1-2.412,1.094,3.062,3.062,0,0,1-2.548-1.268A5.531,5.531,0,0,1-2264.4,492.7Zm2.014.174a3.736,3.736,0,0,0,.527,2.135,1.708,1.708,0,0,0,1.5.766,1.906,1.906,0,0,0,1.809-1.1v-3.831a1.874,1.874,0,0,0-1.791-1.078,1.72,1.72,0,0,0-1.509.775A4.154,4.154,0,0,0-2262.385,492.872Z" transform="translate(2288.083 -465.323)"/><path d="M-2253.591,496.254a4.174,4.174,0,0,1-3.1-1.206,4.379,4.379,0,0,1-1.19-3.213v-.248a5.377,5.377,0,0,1,.518-2.4,3.938,3.938,0,0,1,1.455-1.645,3.834,3.834,0,0,1,2.089-.589,3.525,3.525,0,0,1,2.832,1.168,4.945,4.945,0,0,1,1,3.309v.812h-5.861a2.694,2.694,0,0,0,.743,1.758,2.228,2.228,0,0,0,1.637.647,2.725,2.725,0,0,0,2.254-1.121l1.087,1.036a3.624,3.624,0,0,1-1.438,1.249A4.519,4.519,0,0,1-2253.591,496.254Zm-.24-7.684a1.7,1.7,0,0,0-1.338.579,3,3,0,0,0-.651,1.618h3.837v-.149a2.448,2.448,0,0,0-.538-1.531A1.691,1.691,0,0,0-2253.832,488.57Z" transform="translate(2291.185 -464.162)"/></g><g transform="translate(1149.571 9769.224)"><path d="M-2026.346,339.929h-4.676l-.977,2.811h-2.182l4.561-12.071h1.882l4.567,12.071h-2.188Zm-4.088-1.69h3.5l-1.75-5.008Z" transform="translate(2034.181 -330.006)"/><path d="M-2024.3,332.822l.058.936a3.232,3.232,0,0,1,2.586-1.1,2.48,2.48,0,0,1,2.463,1.376,3.176,3.176,0,0,1,2.752-1.376,2.794,2.794,0,0,1,2.209.821,3.62,3.62,0,0,1,.743,2.421v5.894h-2.015v-5.836a1.789,1.789,0,0,0-.372-1.252,1.635,1.635,0,0,0-1.236-.4,1.678,1.678,0,0,0-1.124.369,1.942,1.942,0,0,0-.61.966l.009,6.152h-2.014v-5.9a1.439,1.439,0,0,0-1.618-1.584,1.775,1.775,0,0,0-1.716.986v6.5h-2.014v-8.97Z" transform="translate(2037.983 -329.059)"/><path d="M-2010.742,341.793a3.168,3.168,0,0,1-.232-.839,3.133,3.133,0,0,1-2.353,1,3.168,3.168,0,0,1-2.206-.771,2.469,2.469,0,0,1-.853-1.906,2.548,2.548,0,0,1,1.066-2.2,5.161,5.161,0,0,1,3.046-.766h1.234v-.589a1.577,1.577,0,0,0-.388-1.115,1.546,1.546,0,0,0-1.186-.419,1.772,1.772,0,0,0-1.128.345,1.065,1.065,0,0,0-.44.874h-2.014a2.244,2.244,0,0,1,.489-1.38,3.256,3.256,0,0,1,1.332-1.007,4.656,4.656,0,0,1,1.876-.365,3.76,3.76,0,0,1,2.513.791,2.827,2.827,0,0,1,.963,2.226v4.045a4.6,4.6,0,0,0,.338,1.931v.142Zm-2.213-1.451a2.3,2.3,0,0,0,1.124-.289,1.933,1.933,0,0,0,.791-.78v-1.692h-1.085a2.972,2.972,0,0,0-1.683.39,1.26,1.26,0,0,0-.562,1.1,1.176,1.176,0,0,0,.384.924A1.5,1.5,0,0,0-2012.955,340.342Z" transform="translate(2042.658 -329.059)"/><path d="M-2005.273,334.663a4.963,4.963,0,0,0-.821-.066,1.847,1.847,0,0,0-1.865,1.06v6.136h-2.015v-8.97h1.924l.05,1a2.27,2.27,0,0,1,2.022-1.168,1.9,1.9,0,0,1,.713.115Z" transform="translate(2045.713 -329.059)"/><path d="M-2005.925,331.537a1.089,1.089,0,0,1,.294-.778,1.114,1.114,0,0,1,.843-.309,1.122,1.122,0,0,1,.844.309,1.074,1.074,0,0,1,.3.778,1.05,1.05,0,0,1-.3.765,1.131,1.131,0,0,1-.844.3,1.123,1.123,0,0,1-.843-.3A1.064,1.064,0,0,1-2005.925,331.537Zm2.138,11.307h-2.014v-8.97h2.014Z" transform="translate(2047.641 -330.11)"/><path d="M-2000.889,342.954h-2.014V330.22h2.014Z" transform="translate(2049.081 -330.22)"/><path d="M-1997.953,342.954h-2.014V330.22h2.014Z" transform="translate(2050.479 -330.22)"/><path d="M-1997.373,337.225a5.3,5.3,0,0,1,.521-2.375,3.823,3.823,0,0,1,1.469-1.624,4.123,4.123,0,0,1,2.172-.568,3.921,3.921,0,0,1,2.947,1.168,4.609,4.609,0,0,1,1.224,3.1l.007.472a5.342,5.342,0,0,1-.509,2.371,3.768,3.768,0,0,1-1.46,1.615,4.15,4.15,0,0,1-2.192.573,3.9,3.9,0,0,1-3.038-1.264,4.849,4.849,0,0,1-1.14-3.371Zm2.014.174a3.617,3.617,0,0,0,.573,2.167,1.861,1.861,0,0,0,1.592.784,1.838,1.838,0,0,0,1.587-.8,3.992,3.992,0,0,0,.568-2.33,3.565,3.565,0,0,0-.585-2.156,1.869,1.869,0,0,0-1.587-.8,1.848,1.848,0,0,0-1.567.782A3.91,3.91,0,0,0-1995.359,337.4Z" transform="translate(2051.715 -329.059)"/><path d="M-2029.3,345.822l.059,1.036a3.222,3.222,0,0,1,2.612-1.2q2.8,0,2.851,3.208v5.928h-2.014V348.98a1.851,1.851,0,0,0-.369-1.264,1.555,1.555,0,0,0-1.206-.41,1.943,1.943,0,0,0-1.816,1.1v6.384h-2.014v-8.97Z" transform="translate(2035.601 -322.866)"/><path d="M-2019.334,354.793a3.058,3.058,0,0,1-.232-.839,3.139,3.139,0,0,1-2.355,1,3.158,3.158,0,0,1-2.2-.771,2.466,2.466,0,0,1-.855-1.906,2.554,2.554,0,0,1,1.064-2.2,5.17,5.17,0,0,1,3.047-.766h1.236v-.589a1.572,1.572,0,0,0-.39-1.115,1.544,1.544,0,0,0-1.186-.419,1.764,1.764,0,0,0-1.126.345,1.056,1.056,0,0,0-.44.874h-2.015a2.244,2.244,0,0,1,.489-1.38,3.256,3.256,0,0,1,1.332-1.007,4.666,4.666,0,0,1,1.876-.365,3.755,3.755,0,0,1,2.511.791,2.822,2.822,0,0,1,.963,2.226v4.045a4.594,4.594,0,0,0,.34,1.931v.142Zm-2.213-1.451a2.305,2.305,0,0,0,1.122-.289,1.957,1.957,0,0,0,.793-.779v-1.692h-1.087a2.96,2.96,0,0,0-1.682.39,1.261,1.261,0,0,0-.564,1.1,1.177,1.177,0,0,0,.385.924A1.492,1.492,0,0,0-2021.548,353.342Z" transform="translate(2038.564 -322.866)"/><path d="M-2013.868,347.663a4.959,4.959,0,0,0-.819-.066,1.849,1.849,0,0,0-1.866,1.06v6.136h-2.014v-8.97h1.922l.05,1a2.272,2.272,0,0,1,2.023-1.168,1.9,1.9,0,0,1,.713.115Z" transform="translate(2041.619 -322.866)"/><path d="M-2009.24,354.793a3.166,3.166,0,0,1-.232-.839,3.134,3.134,0,0,1-2.355,1,3.167,3.167,0,0,1-2.2-.771,2.469,2.469,0,0,1-.854-1.906,2.548,2.548,0,0,1,1.066-2.2,5.161,5.161,0,0,1,3.046-.766h1.234v-.589a1.576,1.576,0,0,0-.388-1.115,1.546,1.546,0,0,0-1.186-.419,1.769,1.769,0,0,0-1.128.345,1.065,1.065,0,0,0-.44.874h-2.014a2.234,2.234,0,0,1,.489-1.38,3.254,3.254,0,0,1,1.332-1.007,4.656,4.656,0,0,1,1.876-.365,3.76,3.76,0,0,1,2.513.791,2.827,2.827,0,0,1,.963,2.226v4.045a4.592,4.592,0,0,0,.338,1.931v.142Zm-2.213-1.451a2.3,2.3,0,0,0,1.124-.289,1.937,1.937,0,0,0,.792-.779v-1.692h-1.085a2.971,2.971,0,0,0-1.683.39,1.261,1.261,0,0,0-.564,1.1,1.177,1.177,0,0,0,.385.924A1.5,1.5,0,0,0-2011.453,353.342Z" transform="translate(2043.374 -322.866)"/><path d="M-2006.59,345.822l.058,1.036a3.223,3.223,0,0,1,2.61-1.2q2.8,0,2.853,3.208v5.928h-2.014V348.98a1.843,1.843,0,0,0-.369-1.264,1.553,1.553,0,0,0-1.208-.41,1.942,1.942,0,0,0-1.814,1.1v6.384h-2.014v-8.97Z" transform="translate(2046.421 -322.866)"/><path d="M-1999.437,346.874v9.766a2.949,2.949,0,0,1-.685,2.1,2.619,2.619,0,0,1-2,.726,4,4,0,0,1-1.069-.142v-1.592a3.059,3.059,0,0,0,.711.075c.669,0,1.013-.365,1.028-1.094v-9.841Zm-2.189-2.337a1.089,1.089,0,0,1,.294-.778,1.11,1.11,0,0,1,.842-.309,1.125,1.125,0,0,1,.846.309,1.074,1.074,0,0,1,.3.778,1.05,1.05,0,0,1-.3.765,1.135,1.135,0,0,1-.846.3,1.119,1.119,0,0,1-.842-.3A1.065,1.065,0,0,1-2001.627,344.537Z" transform="translate(2048.943 -323.918)"/><path d="M-1993.742,354.793a3.156,3.156,0,0,1-.232-.839,3.133,3.133,0,0,1-2.353,1,3.168,3.168,0,0,1-2.206-.771,2.469,2.469,0,0,1-.854-1.906,2.548,2.548,0,0,1,1.066-2.2,5.161,5.161,0,0,1,3.046-.766h1.234v-.589a1.577,1.577,0,0,0-.388-1.115,1.546,1.546,0,0,0-1.186-.419,1.772,1.772,0,0,0-1.128.345,1.065,1.065,0,0,0-.44.874h-2.014a2.244,2.244,0,0,1,.489-1.38,3.255,3.255,0,0,1,1.332-1.007,4.657,4.657,0,0,1,1.876-.365,3.761,3.761,0,0,1,2.513.791,2.826,2.826,0,0,1,.962,2.226v4.045a4.6,4.6,0,0,0,.338,1.931v.142Zm-2.213-1.451a2.3,2.3,0,0,0,1.124-.289,1.937,1.937,0,0,0,.791-.779v-1.692h-1.085a2.971,2.971,0,0,0-1.683.39,1.26,1.26,0,0,0-.562,1.1,1.175,1.175,0,0,0,.384.924A1.5,1.5,0,0,0-1995.955,353.342Z" transform="translate(2050.757 -322.866)"/></g><g transform="translate(882.397 9769.224)"><path d="M-2207.314,339.929h-4.676l-.977,2.811h-2.181l4.559-12.071h1.881l4.569,12.071h-2.19Zm-4.087-1.69h3.5l-1.748-5.008Z" transform="translate(2215.148 -330.006)"/><path d="M-2205.271,332.822l.058.936a3.231,3.231,0,0,1,2.586-1.1,2.48,2.48,0,0,1,2.463,1.376,3.178,3.178,0,0,1,2.752-1.376,2.794,2.794,0,0,1,2.209.821,3.613,3.613,0,0,1,.742,2.421v5.894h-2.015v-5.836a1.787,1.787,0,0,0-.372-1.252,1.634,1.634,0,0,0-1.236-.4,1.672,1.672,0,0,0-1.124.369,1.944,1.944,0,0,0-.61.966l.009,6.152h-2.014v-5.9a1.438,1.438,0,0,0-1.618-1.584,1.774,1.774,0,0,0-1.715.986v6.5h-2.014v-8.97Z" transform="translate(2218.949 -329.059)"/><path d="M-2191.708,341.793a3.084,3.084,0,0,1-.233-.839,3.134,3.134,0,0,1-2.354,1,3.162,3.162,0,0,1-2.2-.771,2.466,2.466,0,0,1-.855-1.906,2.552,2.552,0,0,1,1.066-2.2,5.165,5.165,0,0,1,3.046-.766h1.236v-.589a1.57,1.57,0,0,0-.39-1.115,1.543,1.543,0,0,0-1.185-.419,1.771,1.771,0,0,0-1.128.345,1.064,1.064,0,0,0-.439.874h-2.015a2.244,2.244,0,0,1,.489-1.38,3.253,3.253,0,0,1,1.332-1.007,4.665,4.665,0,0,1,1.876-.365,3.76,3.76,0,0,1,2.513.791,2.821,2.821,0,0,1,.961,2.226v4.045a4.59,4.59,0,0,0,.34,1.931v.142Zm-2.213-1.451a2.3,2.3,0,0,0,1.122-.289,1.95,1.95,0,0,0,.793-.78v-1.692h-1.087a2.964,2.964,0,0,0-1.682.39,1.261,1.261,0,0,0-.564,1.1,1.18,1.18,0,0,0,.384.924A1.5,1.5,0,0,0-2193.922,340.342Z" transform="translate(2223.625 -329.059)"/><path d="M-2186.242,334.663a4.973,4.973,0,0,0-.819-.066,1.848,1.848,0,0,0-1.866,1.06v6.136h-2.014v-8.97h1.922l.05,1a2.272,2.272,0,0,1,2.022-1.168,1.9,1.9,0,0,1,.713.115Z" transform="translate(2226.679 -329.059)"/><path d="M-2186.893,331.537a1.086,1.086,0,0,1,.295-.778,1.106,1.106,0,0,1,.84-.309,1.124,1.124,0,0,1,.846.309,1.074,1.074,0,0,1,.3.778,1.05,1.05,0,0,1-.3.765,1.133,1.133,0,0,1-.846.3,1.115,1.115,0,0,1-.84-.3A1.062,1.062,0,0,1-2186.893,331.537Zm2.139,11.307h-2.015v-8.97h2.015Z" transform="translate(2228.608 -330.11)"/><path d="M-2181.857,342.954h-2.015V330.22h2.015Z" transform="translate(2230.047 -330.22)"/><path d="M-2178.921,342.954h-2.014V330.22h2.014Z" transform="translate(2231.446 -330.22)"/><path d="M-2178.341,337.225a5.283,5.283,0,0,1,.523-2.375,3.817,3.817,0,0,1,1.466-1.624,4.133,4.133,0,0,1,2.173-.568,3.923,3.923,0,0,1,2.947,1.168,4.6,4.6,0,0,1,1.222,3.1l.009.472a5.319,5.319,0,0,1-.511,2.371,3.753,3.753,0,0,1-1.458,1.615,4.159,4.159,0,0,1-2.193.573,3.9,3.9,0,0,1-3.039-1.264,4.849,4.849,0,0,1-1.14-3.371Zm2.014.174a3.619,3.619,0,0,0,.573,2.167,1.86,1.86,0,0,0,1.592.784,1.838,1.838,0,0,0,1.587-.8,3.988,3.988,0,0,0,.569-2.33,3.567,3.567,0,0,0-.585-2.156,1.867,1.867,0,0,0-1.587-.8,1.849,1.849,0,0,0-1.566.782A3.91,3.91,0,0,0-2176.327,337.4Z" transform="translate(2232.682 -329.059)"/><path d="M-2203.8,352.185l1.9-6.416h2.082l-3.109,8.97h-1.748l-3.134-8.97h2.089Z" transform="translate(2218.643 -322.813)"/><path d="M-2197.561,354.958a4.165,4.165,0,0,1-3.1-1.206,4.377,4.377,0,0,1-1.19-3.213v-.248a5.377,5.377,0,0,1,.518-2.4,3.94,3.94,0,0,1,1.456-1.645,3.842,3.842,0,0,1,2.089-.589,3.522,3.522,0,0,1,2.83,1.168,4.94,4.94,0,0,1,1,3.309v.812h-5.861a2.692,2.692,0,0,0,.741,1.758,2.229,2.229,0,0,0,1.637.647,2.726,2.726,0,0,0,2.256-1.121l1.087,1.038a3.628,3.628,0,0,1-1.44,1.248A4.5,4.5,0,0,1-2197.561,354.958Zm-.24-7.684a1.7,1.7,0,0,0-1.339.58,3.01,3.01,0,0,0-.651,1.617h3.838v-.149a2.44,2.44,0,0,0-.539-1.529A1.683,1.683,0,0,0-2197.8,347.274Z" transform="translate(2221.48 -322.866)"/><path d="M-2190.753,347.663a4.977,4.977,0,0,0-.821-.066,1.847,1.847,0,0,0-1.865,1.06v6.136h-2.015v-8.97h1.924l.05,1a2.269,2.269,0,0,1,2.022-1.168,1.9,1.9,0,0,1,.713.115Z" transform="translate(2224.53 -322.866)"/><path d="M-2191.77,351.4a5.34,5.34,0,0,1,.961-3.329,3.084,3.084,0,0,1,2.579-1.255,2.924,2.924,0,0,1,2.3,1V343.22h2.014v12.734h-1.823l-.1-.929a2.966,2.966,0,0,1-2.411,1.094,3.063,3.063,0,0,1-2.55-1.268A5.528,5.528,0,0,1-2191.77,351.4Zm2.015.174a3.731,3.731,0,0,0,.525,2.135,1.711,1.711,0,0,0,1.5.766,1.9,1.9,0,0,0,1.807-1.1v-3.831a1.875,1.875,0,0,0-1.791-1.078,1.72,1.72,0,0,0-1.509.775A4.152,4.152,0,0,0-2189.755,351.576Z" transform="translate(2226.284 -324.027)"/><path d="M-2180.961,354.958a4.164,4.164,0,0,1-3.1-1.206,4.378,4.378,0,0,1-1.19-3.213v-.248a5.384,5.384,0,0,1,.519-2.4,3.93,3.93,0,0,1,1.456-1.645,3.839,3.839,0,0,1,2.089-.589,3.523,3.523,0,0,1,2.83,1.168,4.95,4.95,0,0,1,1,3.309v.812h-5.86a2.692,2.692,0,0,0,.741,1.758,2.228,2.228,0,0,0,1.637.647,2.724,2.724,0,0,0,2.254-1.121l1.086,1.038a3.62,3.62,0,0,1-1.437,1.248A4.51,4.51,0,0,1-2180.961,354.958Zm-.241-7.684a1.7,1.7,0,0,0-1.339.58,3.014,3.014,0,0,0-.651,1.617h3.838v-.149a2.446,2.446,0,0,0-.539-1.529A1.681,1.681,0,0,0-2181.2,347.274Z" transform="translate(2229.388 -322.866)"/></g><g transform="translate(893.27 10180.997)"><path d="M-2194.223,618.839h-4.676l-.979,2.81h-2.181l4.561-12.071h1.881l4.568,12.071h-2.188Zm-4.088-1.692h3.5l-1.748-5.008Z" transform="translate(2210.51 -608.915)"/><path d="M-2191.474,619.039h4.776v1.609h-7.28V619.33l4.552-6.028h-4.467v-1.624h7.02v1.277Z" transform="translate(2214.359 -607.915)"/><path d="M-2182.506,619.769a3.124,3.124,0,0,1-2.52,1.045,2.79,2.79,0,0,1-2.21-.853,3.633,3.633,0,0,1-.75-2.472v-5.811h2.014v5.787q0,1.705,1.419,1.707a1.99,1.99,0,0,0,1.981-1.053v-6.442h2.014v8.971h-1.9Z" transform="translate(2217.214 -607.915)"/><path d="M-2179.464,621.863h-2.014V609.129h2.014Z" transform="translate(2220.314 -609.129)"/><path d="M-2203.77,631.094l1.9-6.416h2.08l-3.109,8.971h-1.748l-3.135-8.971h2.089Z" transform="translate(2207.783 -601.722)"/><path d="M-2201.516,623.446a1.083,1.083,0,0,1,.294-.778,1.11,1.11,0,0,1,.841-.309,1.126,1.126,0,0,1,.846.309,1.08,1.08,0,0,1,.3.778,1.05,1.05,0,0,1-.3.763,1.131,1.131,0,0,1-.846.306,1.115,1.115,0,0,1-.841-.306A1.053,1.053,0,0,1-2201.516,623.446Zm2.138,11.308h-2.013v-8.97h2.013Z" transform="translate(2210.768 -602.827)"/><path d="M-2198.838,629.134a5.28,5.28,0,0,1,.522-2.375,3.809,3.809,0,0,1,1.466-1.626,4.146,4.146,0,0,1,2.173-.568,3.924,3.924,0,0,1,2.947,1.169,4.6,4.6,0,0,1,1.222,3.1l.009.471a5.327,5.327,0,0,1-.511,2.373,3.765,3.765,0,0,1-1.459,1.617,4.17,4.17,0,0,1-2.192.571,3.9,3.9,0,0,1-3.038-1.264,4.841,4.841,0,0,1-1.14-3.369Zm2.013.173a3.619,3.619,0,0,0,.573,2.169,1.857,1.857,0,0,0,1.591.782,1.834,1.834,0,0,0,1.587-.8,3.975,3.975,0,0,0,.568-2.328,3.566,3.566,0,0,0-.584-2.155,1.866,1.866,0,0,0-1.587-.8,1.853,1.853,0,0,0-1.568.782A3.919,3.919,0,0,0-2196.825,629.307Z" transform="translate(2212.044 -601.776)"/><path d="M-2189.934,634.863h-2.014V622.129h2.014Z" transform="translate(2215.326 -602.936)"/><path d="M-2185.036,633.868a4.162,4.162,0,0,1-3.1-1.206,4.372,4.372,0,0,1-1.191-3.213V629.2a5.387,5.387,0,0,1,.52-2.4,3.927,3.927,0,0,1,1.454-1.645,3.834,3.834,0,0,1,2.089-.591,3.524,3.524,0,0,1,2.832,1.169,4.947,4.947,0,0,1,1,3.309v.812h-5.861a2.694,2.694,0,0,0,.743,1.758,2.224,2.224,0,0,0,1.637.645,2.726,2.726,0,0,0,2.255-1.118l1.086,1.036a3.618,3.618,0,0,1-1.438,1.246A4.489,4.489,0,0,1-2185.036,633.868Zm-.24-7.685a1.7,1.7,0,0,0-1.339.58,2.986,2.986,0,0,0-.651,1.615h3.838v-.148a2.451,2.451,0,0,0-.539-1.529A1.682,1.682,0,0,0-2185.276,626.183Z" transform="translate(2216.573 -601.776)"/><path d="M-2180.091,623.2v2.181h1.583v1.491h-1.583v5.008a1.1,1.1,0,0,0,.2.743.943.943,0,0,0,.727.227,3.132,3.132,0,0,0,.7-.081v1.558a4.977,4.977,0,0,1-1.327.19q-2.321,0-2.321-2.562v-5.083h-1.476v-1.491h1.476V623.2Z" transform="translate(2219.312 -602.426)"/><path d="M-2173.651,633.7a3.135,3.135,0,0,1-.231-.837,3.136,3.136,0,0,1-2.355,1,3.162,3.162,0,0,1-2.2-.771,2.466,2.466,0,0,1-.855-1.906,2.544,2.544,0,0,1,1.066-2.2,5.152,5.152,0,0,1,3.046-.768h1.235v-.588a1.572,1.572,0,0,0-.39-1.116,1.544,1.544,0,0,0-1.186-.419,1.774,1.774,0,0,0-1.126.345,1.06,1.06,0,0,0-.44.874h-2.014a2.235,2.235,0,0,1,.489-1.38,3.253,3.253,0,0,1,1.33-1.007,4.666,4.666,0,0,1,1.876-.366,3.761,3.761,0,0,1,2.513.793,2.82,2.82,0,0,1,.961,2.225v4.047a4.6,4.6,0,0,0,.34,1.931v.142Zm-2.213-1.451a2.3,2.3,0,0,0,1.124-.291,1.94,1.94,0,0,0,.791-.778V629.49h-1.086a2.964,2.964,0,0,0-1.682.39,1.261,1.261,0,0,0-.564,1.1,1.177,1.177,0,0,0,.385.924A1.5,1.5,0,0,0-2175.864,632.251Z" transform="translate(2221.353 -601.776)"/></g><g transform="translate(1150.104 10181.336)"><path d="M-2023.09,617.006h-2.337v4.643h-2.1V609.578h4.244a4.948,4.948,0,0,1,3.226.938,3.322,3.322,0,0,1,1.135,2.714,3.4,3.4,0,0,1-.585,2.028,3.723,3.723,0,0,1-1.63,1.256l2.712,5.027v.108h-2.247Zm-2.337-1.69h2.155a2.4,2.4,0,0,0,1.658-.534,1.867,1.867,0,0,0,.6-1.465,1.986,1.986,0,0,0-.551-1.5,2.331,2.331,0,0,0-1.646-.546h-2.213Z" transform="translate(2036.819 -609.255)"/><path d="M-2020.736,616.134a5.283,5.283,0,0,1,.523-2.375,3.821,3.821,0,0,1,1.466-1.625,4.145,4.145,0,0,1,2.173-.568,3.924,3.924,0,0,1,2.947,1.169,4.6,4.6,0,0,1,1.223,3.1l.009.471a5.328,5.328,0,0,1-.511,2.373,3.765,3.765,0,0,1-1.459,1.617,4.17,4.17,0,0,1-2.192.571,3.9,3.9,0,0,1-3.038-1.264,4.842,4.842,0,0,1-1.14-3.369Zm2.014.173a3.619,3.619,0,0,0,.573,2.169,1.858,1.858,0,0,0,1.592.782,1.834,1.834,0,0,0,1.587-.8,3.977,3.977,0,0,0,.568-2.328,3.568,3.568,0,0,0-.584-2.155,1.867,1.867,0,0,0-1.587-.8,1.854,1.854,0,0,0-1.568.782A3.919,3.919,0,0,0-2018.722,616.307Z" transform="translate(2040.053 -608.308)"/><path d="M-2011.3,612.783v9.766a2.947,2.947,0,0,1-.684,2.1,2.62,2.62,0,0,1-2,.726,3.992,3.992,0,0,1-1.069-.142v-1.591a3.15,3.15,0,0,0,.711.075c.669,0,1.013-.365,1.028-1.094v-9.841Zm-2.188-2.337a1.083,1.083,0,0,1,.294-.778,1.11,1.11,0,0,1,.842-.309,1.125,1.125,0,0,1,.846.309,1.074,1.074,0,0,1,.3.778,1.045,1.045,0,0,1-.3.763,1.13,1.13,0,0,1-.846.306,1.114,1.114,0,0,1-.842-.306A1.053,1.053,0,0,1-2013.487,610.446Z" transform="translate(2042.76 -609.359)"/><path d="M-2011.308,616.134a5.283,5.283,0,0,1,.523-2.375,3.815,3.815,0,0,1,1.468-1.625,4.136,4.136,0,0,1,2.172-.568,3.922,3.922,0,0,1,2.947,1.169,4.6,4.6,0,0,1,1.223,3.1l.009.471a5.347,5.347,0,0,1-.509,2.373,3.768,3.768,0,0,1-1.46,1.617,4.166,4.166,0,0,1-2.192.571,3.9,3.9,0,0,1-3.038-1.264,4.849,4.849,0,0,1-1.14-3.369Zm2.015.173a3.619,3.619,0,0,0,.571,2.169,1.86,1.86,0,0,0,1.592.782,1.839,1.839,0,0,0,1.589-.8,3.99,3.99,0,0,0,.567-2.328,3.57,3.57,0,0,0-.584-2.155,1.867,1.867,0,0,0-1.587-.8,1.85,1.85,0,0,0-1.566.782A3.909,3.909,0,0,0-2009.293,616.307Z" transform="translate(2044.544 -608.308)"/><path d="M-2029.807,631.094l1.9-6.416h2.08l-3.109,8.971h-1.748l-3.134-8.971h2.089Z" transform="translate(2033.82 -602.062)"/><path d="M-2027.553,623.446a1.082,1.082,0,0,1,.294-.778,1.11,1.11,0,0,1,.841-.309,1.125,1.125,0,0,1,.846.309,1.079,1.079,0,0,1,.3.778,1.049,1.049,0,0,1-.3.763,1.129,1.129,0,0,1-.846.306,1.114,1.114,0,0,1-.841-.306A1.052,1.052,0,0,1-2027.553,623.446Zm2.138,11.308h-2.014v-8.97h2.014Z" transform="translate(2036.805 -603.166)"/><path d="M-2024.875,629.134a5.283,5.283,0,0,1,.523-2.375,3.8,3.8,0,0,1,1.466-1.626,4.145,4.145,0,0,1,2.173-.568,3.924,3.924,0,0,1,2.947,1.169,4.6,4.6,0,0,1,1.222,3.1l.009.471a5.324,5.324,0,0,1-.511,2.373,3.765,3.765,0,0,1-1.459,1.617,4.17,4.17,0,0,1-2.192.571,3.9,3.9,0,0,1-3.038-1.264,4.843,4.843,0,0,1-1.14-3.369Zm2.014.173a3.629,3.629,0,0,0,.571,2.169,1.863,1.863,0,0,0,1.593.782,1.835,1.835,0,0,0,1.587-.8,3.979,3.979,0,0,0,.569-2.328,3.57,3.57,0,0,0-.585-2.155,1.869,1.869,0,0,0-1.587-.8,1.854,1.854,0,0,0-1.568.782A3.918,3.918,0,0,0-2022.861,629.307Z" transform="translate(2038.081 -602.115)"/><path d="M-2015.971,634.863h-2.014V622.129h2.014Z" transform="translate(2041.363 -603.276)"/><path d="M-2011.073,633.868a4.168,4.168,0,0,1-3.106-1.206,4.377,4.377,0,0,1-1.19-3.213V629.2a5.407,5.407,0,0,1,.518-2.4,3.936,3.936,0,0,1,1.456-1.645,3.833,3.833,0,0,1,2.089-.591,3.527,3.527,0,0,1,2.832,1.169,4.949,4.949,0,0,1,1,3.309v.812h-5.861a2.7,2.7,0,0,0,.743,1.758,2.226,2.226,0,0,0,1.637.645,2.727,2.727,0,0,0,2.254-1.118l1.086,1.036a3.617,3.617,0,0,1-1.438,1.246A4.5,4.5,0,0,1-2011.073,633.868Zm-.242-7.685a1.7,1.7,0,0,0-1.338.58,2.988,2.988,0,0,0-.651,1.615h3.837v-.148A2.44,2.44,0,0,0-2010,626.7,1.682,1.682,0,0,0-2011.315,626.183Z" transform="translate(2042.609 -602.115)"/><path d="M-2006.127,623.2v2.181h1.583v1.491h-1.583v5.008a1.1,1.1,0,0,0,.2.743.941.941,0,0,0,.726.227,3.146,3.146,0,0,0,.7-.081v1.558a4.978,4.978,0,0,1-1.327.19q-2.321,0-2.321-2.562v-5.083h-1.476v-1.491h1.476V623.2Z" transform="translate(2045.349 -602.765)"/><path d="M-1999.688,633.7a3.061,3.061,0,0,1-.232-.837,3.138,3.138,0,0,1-2.355,1,3.162,3.162,0,0,1-2.2-.771,2.466,2.466,0,0,1-.855-1.906,2.543,2.543,0,0,1,1.066-2.2,5.154,5.154,0,0,1,3.046-.768h1.236v-.588a1.572,1.572,0,0,0-.39-1.116,1.544,1.544,0,0,0-1.186-.419,1.773,1.773,0,0,0-1.126.345,1.061,1.061,0,0,0-.44.874h-2.015a2.244,2.244,0,0,1,.489-1.38,3.269,3.269,0,0,1,1.332-1.007,4.667,4.667,0,0,1,1.876-.366,3.762,3.762,0,0,1,2.513.793,2.821,2.821,0,0,1,.961,2.225v4.047a4.6,4.6,0,0,0,.339,1.931v.142Zm-2.213-1.451a2.287,2.287,0,0,0,1.122-.291,1.936,1.936,0,0,0,.793-.778V629.49h-1.086a2.964,2.964,0,0,0-1.682.39,1.261,1.261,0,0,0-.564,1.1,1.177,1.177,0,0,0,.385.924A1.5,1.5,0,0,0-2001.9,632.251Z" transform="translate(2047.39 -602.115)"/></g><circle cx="29.857" cy="29.857" r="29.857" transform="translate(1019.59 9780.324)" fill="#fef121"/><circle cx="29.857" cy="29.857" r="29.857" transform="translate(1112.904 9806.165)" fill="#face32"/><circle cx="29.857" cy="29.857" r="29.857" transform="translate(926.717 9806.165)" fill="#8ad21b"/><circle cx="29.857" cy="29.857" r="29.857" transform="translate(858.647 9876.848)" fill="#34b534"/><circle cx="29.857" cy="29.857" r="29.857" transform="translate(1178.204 9876.848)" fill="#f6ac43"/><circle cx="29.857" cy="29.857" r="29.857" transform="translate(858.647 10045.145)" fill="#197ac4"/><circle cx="29.857" cy="29.857" r="29.857" transform="translate(837.573 9965.431)" fill="#1bb3cf"/><circle cx="29.857" cy="29.857" r="29.857" transform="translate(1198.594 9965.431)" fill="#fb7833"/><circle cx="29.857" cy="29.857" r="29.857" transform="translate(1178.204 10045.145)" fill="#ff4929"/><circle cx="29.857" cy="29.857" r="29.857" transform="translate(1112.904 10115.112)" fill="#d24499"/><circle cx="29.857" cy="29.857" r="29.857" transform="translate(926.717 10116.589)" fill="#197ac4"/><circle cx="29.857" cy="29.857" r="29.857" transform="translate(1019.59 10140.009)" fill="#7e38b0"/><line x2="347.415" y2="333.697" transform="translate(882.396 9831.961)" fill="none" stroke="#424242" stroke-miterlimit="10" stroke-width="1"/><g transform="translate(988.255 9920.778)"><path d="M-2120.106,445.8a5.308,5.308,0,0,1-3.823,1.367,5.922,5.922,0,0,1-3.78-1.916,5.756,5.756,0,0,1-1.6-2.776,5.468,5.468,0,0,1,.214-3.133,8.527,8.527,0,0,1,1.984-3.055l.97-.971a8.635,8.635,0,0,1,3.112-2.07,5.558,5.558,0,0,1,3.221-.23,5.894,5.894,0,0,1,2.858,1.645,5.682,5.682,0,0,1,1.838,3.7,5.5,5.5,0,0,1-1.418,3.856l-1.8-1.8a3.626,3.626,0,0,0,.964-2.269,3.052,3.052,0,0,0-1.042-2.034,2.979,2.979,0,0,0-2.669-.946,6.064,6.064,0,0,0-3.171,1.878l-.921.921a6.445,6.445,0,0,0-1.968,3.176,2.829,2.829,0,0,0,.88,2.652,3.3,3.3,0,0,0,2.076,1.121A3.521,3.521,0,0,0-2121.9,444Z" transform="translate(2150.117 -432.873)"/><path d="M-2121.339,442.616a6.449,6.449,0,0,1,2.493-1.594,4.63,4.63,0,0,1,2.663-.136,5.037,5.037,0,0,1,2.358,1.379,4.775,4.775,0,0,1,1.531,3.545,5.607,5.607,0,0,1-1.617,3.722l-.4.415a6.5,6.5,0,0,1-2.479,1.6,4.585,4.585,0,0,1-2.648.136,5.07,5.07,0,0,1-2.381-1.4,4.739,4.739,0,0,1-1.527-3.7,5.906,5.906,0,0,1,1.921-3.881Zm1.584,1.884a4.4,4.4,0,0,0-1.374,2.359,2.261,2.261,0,0,0,.7,2.043,2.239,2.239,0,0,0,2.052.682,4.861,4.861,0,0,0,2.494-1.516,4.349,4.349,0,0,0,1.352-2.359,2.271,2.271,0,0,0-.682-2.051,2.25,2.25,0,0,0-2.022-.675A4.779,4.779,0,0,0-2119.755,444.5Z" transform="translate(2153.019 -429.121)"/><path d="M-2116.986,455.879l-1.735-1.735,10.962-10.961,1.734,1.733Z" transform="translate(2155.225 -427.961)"/><path d="M-2113.175,450.78a6.451,6.451,0,0,1,2.494-1.594,4.63,4.63,0,0,1,2.664-.136,5.052,5.052,0,0,1,2.358,1.379,4.777,4.777,0,0,1,1.531,3.545,5.606,5.606,0,0,1-1.617,3.722l-.4.415a6.509,6.509,0,0,1-2.479,1.6,4.583,4.583,0,0,1-2.648.134,5.053,5.053,0,0,1-2.38-1.4,4.732,4.732,0,0,1-1.526-3.7,5.9,5.9,0,0,1,1.919-3.883Zm1.584,1.884a4.4,4.4,0,0,0-1.375,2.359,2.269,2.269,0,0,0,.7,2.045,2.239,2.239,0,0,0,2.052.681,4.842,4.842,0,0,0,2.494-1.516,4.333,4.333,0,0,0,1.353-2.359,2.271,2.271,0,0,0-.682-2.051,2.253,2.253,0,0,0-2.022-.675A4.778,4.778,0,0,0-2111.591,452.664Z" transform="translate(2156.908 -425.232)"/><path d="M-2100.45,459.094a6.223,6.223,0,0,0-.649-.762,2.249,2.249,0,0,0-2.519-.692l-5.281,5.281-1.735-1.735,7.723-7.721,1.655,1.655-.821.906a2.762,2.762,0,0,1,2.747.735,2.273,2.273,0,0,1,.514.715Z" transform="translate(2159.077 -423.064)"/><path d="M-2104.509,467.589a5.078,5.078,0,0,1-1.635-3.712,5.329,5.329,0,0,1,1.741-3.79l.216-.213a6.536,6.536,0,0,1,2.511-1.621,4.807,4.807,0,0,1,2.668-.164,4.687,4.687,0,0,1,2.306,1.292,4.288,4.288,0,0,1,1.43,3.443,6.014,6.014,0,0,1-1.987,3.709l-.7.7-5.045-5.045a3.266,3.266,0,0,0-.874,2.151,2.715,2.715,0,0,0,.852,1.966,3.322,3.322,0,0,0,2.906.977l.043,1.828a4.426,4.426,0,0,1-2.314-.165A5.46,5.46,0,0,1-2104.509,467.589Zm6.409-6.822a2.071,2.071,0,0,0-1.652-.653,3.67,3.67,0,0,0-1.953.83l3.306,3.306.127-.128a3,3,0,0,0,.855-1.781A2.057,2.057,0,0,0-2098.1,460.767Z" transform="translate(2161.217 -420.917)"/><path d="M-2095.874,471.717a1.115,1.115,0,0,0,.326-1.088,5.812,5.812,0,0,0-.84-1.7,9.17,9.17,0,0,1-1.005-1.947,2.785,2.785,0,0,1,.521-3.118,2.907,2.907,0,0,1,2.511-.828,4.714,4.714,0,0,1,2.813,1.469,4.907,4.907,0,0,1,1.552,2.925,3.077,3.077,0,0,1-.924,2.629l-1.735-1.736a1.506,1.506,0,0,0,.461-1.2,2.018,2.018,0,0,0-.653-1.317,2.177,2.177,0,0,0-1.2-.667,1.186,1.186,0,0,0-1.068.345,1,1,0,0,0-.285.958,6.567,6.567,0,0,0,.909,1.8,9.108,9.108,0,0,1,1.067,2.138,3.206,3.206,0,0,1,.118,1.609,2.688,2.688,0,0,1-.774,1.338,2.852,2.852,0,0,1-2.552.825,5.207,5.207,0,0,1-2.909-1.617,5.666,5.666,0,0,1-1.348-2.034,3.927,3.927,0,0,1-.214-2.1,3.147,3.147,0,0,1,.878-1.705l1.683,1.683a1.727,1.727,0,0,0-.481,1.41,2.561,2.561,0,0,0,.8,1.468,2.485,2.485,0,0,0,1.3.781A1.142,1.142,0,0,0-2095.874,471.717Z" transform="translate(2163.592 -418.515)"/><path d="M-2090.434,478.9a2.222,2.222,0,0,0,1.456.7,1.83,1.83,0,0,0,1.391-.477l1.634,1.633a3.593,3.593,0,0,1-1.8.9,4.182,4.182,0,0,1-2.129-.154,4.83,4.83,0,0,1-1.921-1.193,4.649,4.649,0,0,1-1.519-3.619,5.885,5.885,0,0,1,1.948-3.844l.179-.179a5.789,5.789,0,0,1,3.764-1.881,4.611,4.611,0,0,1,3.629,1.509,4.486,4.486,0,0,1,1.441,3.047,4.07,4.07,0,0,1-1.2,3.019l-1.633-1.634a2.253,2.253,0,0,0,.638-1.544,2.063,2.063,0,0,0-.652-1.51,2.156,2.156,0,0,0-1.909-.688,4.4,4.4,0,0,0-2.317,1.388l-.277.278a4.475,4.475,0,0,0-1.42,2.328A2.153,2.153,0,0,0-2090.434,478.9Z" transform="translate(2167.323 -414.817)"/><path d="M-2084.886,487.12a3.84,3.84,0,0,1,.522-.92,3.82,3.82,0,0,1-2.891-1.163,3.844,3.844,0,0,1-1.234-2.562,3.007,3.007,0,0,1,.907-2.378,3.1,3.1,0,0,1,2.811-.976,6.3,6.3,0,0,1,3.283,1.962l1.063,1.063.506-.506a1.908,1.908,0,0,0,.625-1.295,1.881,1.881,0,0,0-.66-1.38,2.161,2.161,0,0,0-1.267-.675,1.3,1.3,0,0,0-1.131.375l-1.735-1.735a2.728,2.728,0,0,1,1.609-.768,3.965,3.965,0,0,1,2.012.279,5.636,5.636,0,0,1,1.931,1.3,4.591,4.591,0,0,1,1.481,2.843,3.444,3.444,0,0,1-1.088,2.745l-3.483,3.481a5.566,5.566,0,0,0-1.37,1.956l-.123.123Zm-.655-3.154a2.792,2.792,0,0,0,1.216.717,2.345,2.345,0,0,0,1.353.01l1.456-1.456-.935-.935a3.621,3.621,0,0,0-1.783-1.113,1.533,1.533,0,0,0-1.436.464,1.431,1.431,0,0,0-.463,1.128A1.817,1.817,0,0,0-2085.542,483.966Zm10.675-8.749,1.977,1.977-4.14.186-1.388-1.4Z" transform="translate(2169.625 -412.702)"/><path d="M-2082.01,490.856l-1.734-1.735,10.962-10.961,1.733,1.733Z" transform="translate(2171.887 -411.299)"/><path d="M-2079.481,493.157l-1.735-1.735,7.723-7.721,1.733,1.735Zm7.893-11.576a1.325,1.325,0,0,1,.923-.415,1.348,1.348,0,0,1,.991.459,1.363,1.363,0,0,1,.461.992,1.3,1.3,0,0,1-.412.926,1.272,1.272,0,0,1-.914.4,1.378,1.378,0,0,1-.991-.467,1.355,1.355,0,0,1-.462-.986A1.285,1.285,0,0,1-2071.589,481.581Z" transform="translate(2173.091 -409.868)"/><path d="M-2075.629,488.362a6.5,6.5,0,0,1,3.694-2.036,3.75,3.75,0,0,1,3.3,1.137,3.565,3.565,0,0,1,1.127,2.84l3.954-3.954,1.733,1.735-10.96,10.962-1.571-1.571.714-.883a3.621,3.621,0,0,1-3.019-1.137,3.726,3.726,0,0,1-1.1-3.286A6.731,6.731,0,0,1-2075.629,488.362Zm1.584,1.885a4.539,4.539,0,0,0-1.384,2.291,2.082,2.082,0,0,0,.628,1.947,2.319,2.319,0,0,0,2.505.607l3.3-3.3a2.282,2.282,0,0,0-.614-2.47,2.1,2.1,0,0,0-1.965-.632A5.08,5.08,0,0,0-2074.045,490.247Z" transform="translate(2174.719 -407.429)"/><path d="M-2070.082,493.873a6.452,6.452,0,0,1,2.494-1.6,4.64,4.64,0,0,1,2.663-.134,5.026,5.026,0,0,1,2.358,1.38,4.776,4.776,0,0,1,1.531,3.543,5.6,5.6,0,0,1-1.616,3.722l-.4.413a6.5,6.5,0,0,1-2.479,1.6,4.587,4.587,0,0,1-2.649.136,5.074,5.074,0,0,1-2.38-1.394,4.739,4.739,0,0,1-1.527-3.706,5.9,5.9,0,0,1,1.919-3.881Zm1.584,1.884a4.411,4.411,0,0,0-1.375,2.359,2.262,2.262,0,0,0,.7,2.043,2.238,2.238,0,0,0,2.051.682,4.86,4.86,0,0,0,2.5-1.516,4.348,4.348,0,0,0,1.352-2.359,2.271,2.271,0,0,0-.682-2.051,2.246,2.246,0,0,0-2.023-.675A4.759,4.759,0,0,0-2068.5,495.757Z" transform="translate(2177.436 -404.703)"/><path d="M-2061.481,506.109a1.114,1.114,0,0,0,.325-1.09,5.742,5.742,0,0,0-.838-1.695,9.179,9.179,0,0,1-1.006-1.946,2.787,2.787,0,0,1,.521-3.121,2.907,2.907,0,0,1,2.511-.827,4.715,4.715,0,0,1,2.813,1.47,4.9,4.9,0,0,1,1.552,2.922,3.074,3.074,0,0,1-.924,2.631l-1.735-1.735a1.515,1.515,0,0,0,.462-1.2,2.022,2.022,0,0,0-.654-1.317,2.168,2.168,0,0,0-1.194-.666,1.173,1.173,0,0,0-1.067.345,1,1,0,0,0-.287.957,6.579,6.579,0,0,0,.911,1.8,9.142,9.142,0,0,1,1.066,2.138,3.207,3.207,0,0,1,.118,1.609,2.7,2.7,0,0,1-.774,1.339,2.85,2.85,0,0,1-2.552.824,5.211,5.211,0,0,1-2.909-1.618,5.647,5.647,0,0,1-1.348-2.033,3.926,3.926,0,0,1-.214-2.1,3.158,3.158,0,0,1,.879-1.705l1.683,1.685a1.728,1.728,0,0,0-.481,1.408,2.55,2.55,0,0,0,.8,1.466,2.47,2.47,0,0,0,1.3.782A1.146,1.146,0,0,0-2061.481,506.109Z" transform="translate(2179.975 -402.132)"/><path d="M-2134.111,471.392a5.3,5.3,0,0,1-3.821,1.366,5.916,5.916,0,0,1-3.78-1.915,5.74,5.74,0,0,1-1.6-2.776,5.45,5.45,0,0,1,.214-3.133,8.529,8.529,0,0,1,1.984-3.056l.97-.97a8.6,8.6,0,0,1,3.111-2.07,5.539,5.539,0,0,1,3.223-.23,5.9,5.9,0,0,1,2.858,1.645,5.684,5.684,0,0,1,1.838,3.7,5.5,5.5,0,0,1-1.417,3.856l-1.8-1.8a3.626,3.626,0,0,0,.963-2.269,3.044,3.044,0,0,0-1.041-2.033,2.979,2.979,0,0,0-2.669-.948,6.068,6.068,0,0,0-3.172,1.878l-.923.921a6.449,6.449,0,0,0-1.966,3.174,2.824,2.824,0,0,0,.88,2.652,3.29,3.29,0,0,0,2.076,1.121,3.521,3.521,0,0,0,2.269-.912Z" transform="translate(2143.447 -420.681)"/><path d="M-2135.342,468.209a6.455,6.455,0,0,1,2.493-1.594,4.636,4.636,0,0,1,2.662-.134,5.039,5.039,0,0,1,2.36,1.38,4.769,4.769,0,0,1,1.529,3.542,5.59,5.59,0,0,1-1.615,3.722l-.4.415a6.48,6.48,0,0,1-2.48,1.6,4.58,4.58,0,0,1-2.647.137,5.07,5.07,0,0,1-2.38-1.4,4.747,4.747,0,0,1-1.528-3.7,5.9,5.9,0,0,1,1.921-3.881Zm1.584,1.885a4.39,4.39,0,0,0-1.375,2.358,2.263,2.263,0,0,0,.7,2.043,2.238,2.238,0,0,0,2.051.684,4.891,4.891,0,0,0,2.495-1.516,4.366,4.366,0,0,0,1.353-2.359,2.273,2.273,0,0,0-.682-2.052,2.256,2.256,0,0,0-2.024-.675A4.77,4.77,0,0,0-2133.758,470.095Z" transform="translate(2146.349 -416.928)"/><path d="M-2130.989,481.475l-1.735-1.735,10.962-10.962,1.733,1.733Z" transform="translate(2148.554 -415.769)"/><path d="M-2127.177,476.373a6.455,6.455,0,0,1,2.493-1.594,4.637,4.637,0,0,1,2.662-.134,5.04,5.04,0,0,1,2.359,1.38,4.77,4.77,0,0,1,1.53,3.545,5.594,5.594,0,0,1-1.615,3.719l-.4.415a6.479,6.479,0,0,1-2.48,1.6,4.567,4.567,0,0,1-2.647.137,5.078,5.078,0,0,1-2.38-1.4,4.744,4.744,0,0,1-1.528-3.7,5.9,5.9,0,0,1,1.921-3.881Zm1.584,1.885a4.39,4.39,0,0,0-1.375,2.358,2.266,2.266,0,0,0,.7,2.045,2.237,2.237,0,0,0,2.051.682,4.87,4.87,0,0,0,2.495-1.516,4.347,4.347,0,0,0,1.353-2.359,2.269,2.269,0,0,0-.682-2.051,2.251,2.251,0,0,0-2.024-.676A4.774,4.774,0,0,0-2125.594,478.259Z" transform="translate(2150.238 -413.039)"/><path d="M-2114.453,484.689a6.111,6.111,0,0,0-.649-.763,2.243,2.243,0,0,0-2.519-.691l-5.281,5.279-1.735-1.733,7.721-7.721,1.655,1.655-.821.906a2.764,2.764,0,0,1,2.749.735,2.322,2.322,0,0,1,.514.713Z" transform="translate(2152.406 -410.871)"/><path d="M-2118.513,493.184a5.074,5.074,0,0,1-1.633-3.712,5.325,5.325,0,0,1,1.74-3.79l.214-.214a6.552,6.552,0,0,1,2.511-1.618,4.773,4.773,0,0,1,2.669-.165,4.681,4.681,0,0,1,2.306,1.292,4.287,4.287,0,0,1,1.431,3.443,6.022,6.022,0,0,1-1.987,3.707l-.7.7-5.045-5.045a3.273,3.273,0,0,0-.873,2.151,2.7,2.7,0,0,0,.852,1.965,3.317,3.317,0,0,0,2.906.979l.041,1.826a4.4,4.4,0,0,1-2.312-.164A5.507,5.507,0,0,1-2118.513,493.184Zm6.409-6.822a2.064,2.064,0,0,0-1.652-.654,3.675,3.675,0,0,0-1.951.831l3.306,3.3.128-.128a2.978,2.978,0,0,0,.852-1.78A2.049,2.049,0,0,0-2112.1,486.362Z" transform="translate(2154.546 -408.724)"/><path d="M-2109.877,497.311a1.111,1.111,0,0,0,.325-1.087,5.742,5.742,0,0,0-.838-1.7,9.15,9.15,0,0,1-1.006-1.947,2.785,2.785,0,0,1,.52-3.118,2.9,2.9,0,0,1,2.513-.828,4.7,4.7,0,0,1,2.811,1.47,4.88,4.88,0,0,1,1.552,2.922,3.068,3.068,0,0,1-.924,2.629l-1.733-1.735a1.517,1.517,0,0,0,.46-1.2,2.01,2.01,0,0,0-.652-1.318,2.171,2.171,0,0,0-1.2-.666,1.171,1.171,0,0,0-1.067.346.99.99,0,0,0-.285.957,6.55,6.55,0,0,0,.909,1.8,9.12,9.12,0,0,1,1.068,2.139,3.21,3.21,0,0,1,.116,1.608,2.676,2.676,0,0,1-.774,1.339,2.845,2.845,0,0,1-2.551.824,5.213,5.213,0,0,1-2.908-1.615,5.681,5.681,0,0,1-1.35-2.034,3.942,3.942,0,0,1-.212-2.1,3.15,3.15,0,0,1,.878-1.707l1.683,1.685a1.725,1.725,0,0,0-.481,1.409,2.549,2.549,0,0,0,.8,1.467,2.5,2.5,0,0,0,1.3.782A1.144,1.144,0,0,0-2109.877,497.311Z" transform="translate(2156.922 -406.322)"/><path d="M-2107.946,504.109l6.437-6.435-1.178-1.178,1.285-1.284,1.178,1.178.707-.707a3.744,3.744,0,0,1,2.7-1.27,3.862,3.862,0,0,1,2.7,1.3,5.684,5.684,0,0,1,.842,1.1l-1.4,1.313a4.784,4.784,0,0,0-.607-.72,1.574,1.574,0,0,0-2.518.035l-.687.685,1.571,1.571-1.284,1.283-1.571-1.568-6.435,6.436Z" transform="translate(2160.358 -403.558)"/><path d="M-2094.669,504.473a5.975,5.975,0,0,0-.649-.762,2.248,2.248,0,0,0-2.519-.692l-5.281,5.281-1.735-1.735,7.721-7.72,1.657,1.655-.821.905a2.765,2.765,0,0,1,2.747.735,2.283,2.283,0,0,1,.514.715Z" transform="translate(2161.831 -401.446)"/><path d="M-2099.545,512.448l-1.735-1.735,7.721-7.72,1.733,1.733Zm10.581-11.24,1.977,1.977-4.138.186-1.388-1.4Z" transform="translate(2163.533 -400.321)"/><path d="M-2095.677,507.876a6.438,6.438,0,0,1,2.495-1.594,4.624,4.624,0,0,1,2.662-.134,5.03,5.03,0,0,1,2.357,1.379,4.774,4.774,0,0,1,1.531,3.545,5.589,5.589,0,0,1-1.617,3.72l-.4.413a6.484,6.484,0,0,1-2.48,1.6,4.586,4.586,0,0,1-2.649.136,5.058,5.058,0,0,1-2.378-1.394,4.74,4.74,0,0,1-1.528-3.7,5.893,5.893,0,0,1,1.919-3.883Zm1.584,1.884a4.409,4.409,0,0,0-1.374,2.358,2.262,2.262,0,0,0,.7,2.045,2.236,2.236,0,0,0,2.052.682,4.861,4.861,0,0,0,2.493-1.516,4.338,4.338,0,0,0,1.353-2.359,2.276,2.276,0,0,0-.682-2.052,2.254,2.254,0,0,0-2.022-.673A4.781,4.781,0,0,0-2094.093,509.759Z" transform="translate(2165.244 -398.032)"/><path d="M-2087.076,520.112a1.112,1.112,0,0,0,.325-1.088,5.775,5.775,0,0,0-.838-1.695,9.222,9.222,0,0,1-1.007-1.947,2.789,2.789,0,0,1,.521-3.12,2.906,2.906,0,0,1,2.513-.827,4.7,4.7,0,0,1,2.809,1.469,4.891,4.891,0,0,1,1.553,2.922,3.081,3.081,0,0,1-.924,2.631l-1.735-1.735a1.508,1.508,0,0,0,.461-1.2,2,2,0,0,0-.651-1.317,2.17,2.17,0,0,0-1.2-.666,1.17,1.17,0,0,0-1.066.345.99.99,0,0,0-.286.954,6.55,6.55,0,0,0,.911,1.8,9.139,9.139,0,0,1,1.068,2.138,3.219,3.219,0,0,1,.116,1.609,2.663,2.663,0,0,1-.775,1.338,2.838,2.838,0,0,1-2.55.825,5.217,5.217,0,0,1-2.908-1.617,5.651,5.651,0,0,1-1.349-2.034,3.935,3.935,0,0,1-.213-2.1,3.156,3.156,0,0,1,.877-1.707l1.685,1.685a1.731,1.731,0,0,0-.482,1.408,2.549,2.549,0,0,0,.8,1.468,2.482,2.482,0,0,0,1.3.781A1.143,1.143,0,0,0-2087.076,520.112Z" transform="translate(2167.783 -395.461)"/></g></g></svg>