<svg xmlns="http://www.w3.org/2000/svg" width="298.729" height="184.494" viewBox="0 0 298.729 184.494">
  <g id="Grupo_1069604" data-name="Grupo 1069604" transform="translate(-1108.271 -6692.592)">
    <g id="Grupo_1067753" data-name="Grupo 1067753" transform="translate(1108.271 6657.224)">
      <path id="Trazado_771748" data-name="Trazado 771748" d="M-184.944,694.135c.244-.911.473-1.822.7-2.73,2.579-10.3,4.955-20.168,17.272-26.576,10.021-5.213,23.43-4.737,35.2-2.424s23.028,6.246,35.092,7.371c18.446,1.721,37.806-3.72,50.312-14.138,8.892-7.407,14.932-17.382,26.83-21.739,7.774-2.847,16.953-2.757,25.335-1.188a73.315,73.315,0,0,1,38.371,20.172,73.867,73.867,0,0,1,18.472,32.958,88.018,88.018,0,0,1-.514,48.117,79.508,79.508,0,0,1-32.112,44.2c-8.116,5.42-17.564,9.6-27.411,13-41.041,14.148-87.975,14.6-132.85,11.285-27.588-2.035-55.765-5.592-79.631-16.277-13.89-6.219-15.924-17.428-20.793-28.052-4.914-10.723-2.006-23.71,8.638-31.915,9.648-7.438,24.227-11.066,31.5-19.921C-187.531,702.613-186.082,698.387-184.944,694.135Z" transform="translate(232.993 -584.277)" fill="#baefe4"/>
    </g>
    <g id="OBJECTS" transform="translate(959.04 6529.656)">
      <g id="Grupo_1067752" data-name="Grupo 1067752" transform="translate(155.96 162.936)">
        <g id="Grupo_1067680" data-name="Grupo 1067680" transform="translate(0 115.803)">
          <g id="Grupo_1067679" data-name="Grupo 1067679">
            <rect id="Rectángulo_373973" data-name="Rectángulo 373973" width="36.334" height="32.684" fill="#dee9f0"/>
            <rect id="Rectángulo_373974" data-name="Rectángulo 373974" width="15.762" height="32.684" transform="translate(35.653)" fill="#a6c2c4"/>
            <rect id="Rectángulo_373975" data-name="Rectángulo 373975" width="7.842" height="4.794" transform="translate(14.242)" fill="#a6c2c4"/>
          </g>
        </g>
        <g id="Grupo_1067684" data-name="Grupo 1067684" transform="translate(22.922 19.045)">
          <path id="Trazado_773430" data-name="Trazado 773430" d="M231.056,217.05,214.04,341.6h1.677l16.209-115.811Z" transform="translate(-191.462 -211.809)" fill="#6fd9c0"/>
          <g id="Grupo_1067683" data-name="Grupo 1067683" transform="translate(16.499)">
            <g id="Grupo_1067681" data-name="Grupo 1067681">
              <path id="Trazado_773431" data-name="Trazado 773431" d="M264.636,340.147H219.151L206.28,210.36h45.485Z" transform="translate(-206.28 -210.36)" fill="#005158"/>
              <path id="Trazado_773432" data-name="Trazado 773432" d="M250.166,214.86,262.333,337.6H222.5L210.33,214.86Z" transform="translate(-207.157 -211.335)" fill="#dee9f0"/>
            </g>
            <g id="Grupo_1067682" data-name="Grupo 1067682" transform="translate(10.717 3.525)">
              <path id="Trazado_773433" data-name="Trazado 773433" d="M253.508,224.68l2.225,22.46L224.483,333.6l-2.233-22.46Z" transform="translate(-220.456 -216.987)" fill="#fff"/>
              <path id="Trazado_773434" data-name="Trazado 773434" d="M259.082,272.2l.94,9.44L235.3,350.016H230.95Z" transform="translate(-222.34 -227.279)" fill="#fff"/>
              <path id="Trazado_773435" data-name="Trazado 773435" d="M250.756,214.86l-30.083,83.214-.713-7.184,27.482-76.03Z" transform="translate(-219.96 -214.86)" fill="#fff"/>
            </g>
          </g>
          <path id="Trazado_773436" data-name="Trazado 773436" d="M202.236,217.05,185.22,341.6H186.9l16.2-115.811Z" transform="translate(-185.22 -211.809)" fill="#6fd9c0"/>
        </g>
        <g id="Grupo_1067687" data-name="Grupo 1067687" transform="translate(77.173 13.603)">
          <g id="Grupo_1067685" data-name="Grupo 1067685" transform="translate(0 0.368)">
            <path id="Trazado_773437" data-name="Trazado 773437" d="M284.829,211.824c-.008-.682-.008-1.692-.016-2.335a3.156,3.156,0,0,0,1.88-1.214,2.781,2.781,0,0,0-4.223-3.588.681.681,0,1,0,.956.971,1.43,1.43,0,0,1,1.293-.376,1.455,1.455,0,0,1,1.026.87,1.441,1.441,0,0,1-.165,1.332,1.922,1.922,0,0,1-1.481.721.676.676,0,0,0-.65.682c0,.157.016,1.927.016,2.938a34.237,34.237,0,0,0-10.936,2.1l.642,1.582c.11-.047,11.171-4.387,21.638-.008l.658-1.575A28.52,28.52,0,0,0,284.829,211.824Z" transform="translate(-258.382 -203.883)" fill="#6fd9c0"/>
            <path id="Trazado_773438" data-name="Trazado 773438" d="M306.1,226c-4.74-5.766-12.221-9.769-18.159-11.876-1.018,2.366-4.058,4.082-7.654,4.082s-6.628-1.716-7.654-4.082c-5.938,2.107-13.42,6.111-18.159,11.876l8.641,8.422,3.384-2.695-3.29,41.152a74.792,74.792,0,0,0,34.141,0l-3.29-41.152,3.384,2.695Z" transform="translate(-254.47 -206.1)" fill="#005158"/>
          </g>
          <g id="Grupo_1067686" data-name="Grupo 1067686" transform="translate(7.466)">
            <path id="Trazado_773439" data-name="Trazado 773439" d="M299.322,212.436c-.008-.768-.016-1.927-.016-2.656a3.57,3.57,0,0,0,2.139-1.379,3.164,3.164,0,0,0-4.81-4.074.776.776,0,1,0,1.089,1.1,1.609,1.609,0,0,1,2.444,2.076,2.181,2.181,0,0,1-1.684.823.776.776,0,0,0-.744.776c0,.18.016,2.194.023,3.345a39.455,39.455,0,0,0-12.433,2.382l.729,1.8c.125-.047,12.7-4.99,24.6-.008l.752-1.794A32.049,32.049,0,0,0,299.322,212.436Z" transform="translate(-268.62 -203.414)" fill="#6fd9c0"/>
            <path id="Trazado_773440" data-name="Trazado 773440" d="M305.521,248.482c1.222-10.811,4.5-14.673,4.5-14.673l2.382,2.444,9.119-8.892s-8.547-10.067-20.267-13.271c-.556,2.82-3.463,4.975-6.972,4.975s-6.416-2.154-6.972-4.975c-11.72,3.212-20.267,13.271-20.267,13.271l9.119,8.892,2.382-2.444s3.275,3.87,4.5,14.673c-.924,9.589-19.037,42.9-19.037,52.95a174.441,174.441,0,0,0,60.557,0C324.557,291.381,306.445,258.07,305.521,248.482Z" transform="translate(-264 -205.726)" fill="#f79577"/>
          </g>
          <path id="Trazado_773441" data-name="Trazado 773441" d="M341.614,336.225V214.382a8.145,8.145,0,0,0-8.132-8.132h-60.3a8.145,8.145,0,0,0-8.132,8.132V336.225H256.74v2.9h18.2v-2.9h-8.312V214.382a6.573,6.573,0,0,1,6.565-6.565h60.3a6.573,6.573,0,0,1,6.565,6.565V336.225h-8.3v2.9h18.2v-2.9Z" transform="translate(-254.962 -204.028)"/>
        </g>
        <g id="Grupo_1067691" data-name="Grupo 1067691" transform="translate(245.253 17.634)">
          <g id="Grupo_1067690" data-name="Grupo 1067690">
            <g id="Grupo_1067688" data-name="Grupo 1067688" transform="translate(7.74)">
              <path id="Trazado_773442" data-name="Trazado 773442" d="M495.607,208.56c-.509,0-.917.721-.917,1.606v127.64c0,.885.415,1.606.917,1.606s.917-.721.917-1.606V210.166C496.523,209.273,496.108,208.56,495.607,208.56Z" transform="translate(-482.32 -208.56)" fill="#6fd9c0"/>
              <path id="Trazado_773443" data-name="Trazado 773443" d="M478.9,374.05h26.385s-2.209-5.57-13.193-5.57S478.9,374.05,478.9,374.05Z" transform="translate(-478.9 -243.198)" fill="#6fd9c0"/>
            </g>
            <g id="Grupo_1067689" data-name="Grupo 1067689" transform="translate(6.69 6.22)">
              <path id="Trazado_773444" data-name="Trazado 773444" d="M499.323,216.5H484.282l-6.722,7.152,5.5,25.085h17.486l5.5-25.085Z" transform="translate(-477.56 -216.5)" fill="#005158"/>
            </g>
            <path id="Trazado_773445" data-name="Trazado 773445" d="M498.876,257.65H481.2s-12.182,19.624-12.182,38.465a53.69,53.69,0,0,0,42.038,0C511.058,277.267,498.876,257.65,498.876,257.65Z" transform="translate(-469.02 -219.193)" fill="#005158"/>
          </g>
          <path id="Trazado_773446" data-name="Trazado 773446" d="M482.236,224.381c1.073-1.622,2.139-3.243,3.212-4.865.306-.454.6-.917.909-1.371.078-.117-.117-.235-.2-.11-1.073,1.622-2.139,3.243-3.212,4.865l-.909,1.371a.1.1,0,0,0-.016.078.121.121,0,0,0-.063.125c.572,3.165,1.128,6.338,1.645,9.511.517,3.157,1.018,6.314,1.481,9.479q.4,2.691.776,5.382c0,.016.008.023.008.031a.109.109,0,0,0-.023.031q-1.833,3.537-3.345,7.223-1.516,3.7-2.711,7.529-1.187,3.807-2.029,7.7t-1.355,7.842c-.337,2.648-.564,5.3-.666,7.975-.016.329-.023.666-.031.995-.008.141.219.141.227,0,.07-2.64.259-5.28.564-7.9q.458-3.96,1.269-7.865t1.951-7.724q1.14-3.8,2.6-7.489t3.267-7.27c.149-.3.3-.6.454-.885a.1.1,0,0,0-.008-.118.113.113,0,0,0,.047-.11q-.658-4.783-1.4-9.55-.74-4.736-1.551-9.471-.458-2.679-.948-5.343C482.2,224.412,482.22,224.4,482.236,224.381Z" transform="translate(-470.469 -210.601)" fill="#f79577"/>
          <path id="Trazado_773447" data-name="Trazado 773447" d="M506.306,224.381c-1.073-1.622-2.139-3.243-3.212-4.865-.306-.454-.6-.917-.909-1.371-.078-.117.117-.235.2-.11,1.073,1.622,2.139,3.243,3.212,4.865l.909,1.371a.1.1,0,0,1,.016.078.121.121,0,0,1,.063.125c-.572,3.165-1.128,6.338-1.645,9.511-.517,3.157-1.018,6.314-1.481,9.479q-.4,2.691-.776,5.382c0,.016-.008.023-.008.031a.107.107,0,0,1,.023.031q1.833,3.537,3.345,7.223,1.516,3.7,2.711,7.529,1.187,3.807,2.029,7.7t1.355,7.842c.337,2.648.564,5.3.666,7.975.016.329.023.666.031.995.008.141-.219.141-.227,0-.071-2.64-.259-5.28-.564-7.9q-.458-3.96-1.269-7.865t-1.951-7.724q-1.14-3.8-2.6-7.489t-3.267-7.27c-.149-.3-.3-.6-.454-.885a.1.1,0,0,1,.008-.118.113.113,0,0,1-.047-.11q.658-4.783,1.4-9.55.74-4.736,1.551-9.471.458-2.679.948-5.343C506.337,224.412,506.314,224.4,506.306,224.381Z" transform="translate(-476.199 -210.601)" fill="#f79577"/>
          <path id="Trazado_773448" data-name="Trazado 773448" d="M504.32,225.62a78.6,78.6,0,0,1-18.849.713c-1.771-.141-3.525-.353-5.28-.611-.141-.023-.2.2-.063.219a79,79,0,0,0,18.966.564c1.771-.165,3.525-.384,5.28-.658C504.516,225.816,504.461,225.6,504.32,225.62Z" transform="translate(-471.409 -212.255)" fill="#f79577"/>
          <path id="Trazado_773449" data-name="Trazado 773449" d="M502.114,242.89a58.712,58.712,0,0,1-13.725.65q-1.939-.141-3.878-.4c-.141-.016-.2.2-.063.219a58.979,58.979,0,0,0,13.843.266c1.293-.125,2.585-.3,3.87-.517C502.318,243.085,502.255,242.866,502.114,242.89Z" transform="translate(-472.344 -215.995)" fill="#f79577"/>
          <path id="Trazado_773450" data-name="Trazado 773450" d="M502.543,265.679a52.913,52.913,0,0,1-7.771.956,51.6,51.6,0,0,1-7.779-.212q-2.2-.223-4.371-.635c-.141-.024-.2.188-.063.219a52.611,52.611,0,0,0,15.676.564q2.2-.247,4.371-.682C502.746,265.868,502.684,265.656,502.543,265.679Z" transform="translate(-471.935 -220.931)" fill="#f79577"/>
          <path id="Trazado_773451" data-name="Trazado 773451" d="M505.967,284.229c-1.919.353-3.854.642-5.8.854-1.927.219-3.87.368-5.813.447s-3.87.1-5.8.055q-2.914-.07-5.821-.345t-5.8-.752l-.713-.117c-.141-.023-.2.188-.063.219q2.867.505,5.774.8,2.926.306,5.875.407c1.951.063,3.909.063,5.86,0s3.9-.2,5.844-.407,3.878-.47,5.805-.807c.235-.039.47-.086.713-.125C506.17,284.417,506.108,284.2,505.967,284.229Z" transform="translate(-470.549 -224.949)" fill="#f79577"/>
        </g>
        <g id="Grupo_1067721" data-name="Grupo 1067721" transform="translate(174.433 2.07)">
          <path id="Trazado_773452" data-name="Trazado 773452" d="M448.5,190.163a7.387,7.387,0,0,0-2.961,4.747c-.447,2.656.556,5.523-.494,8-.392.924-1.065,1.919-.65,2.836.258.58.924.979.932,1.614.023,1.12-1.841,1.261-2.256,2.3-.486,1.222,1.355,2.248,1.332,3.564-.031,1.183-1.488,1.778-1.974,2.852a2.576,2.576,0,0,0,1.426,3.157,6.23,6.23,0,0,0,3.768.235,12.784,12.784,0,0,1,3.8-.368c1.771.243,3.259,1.394,4.794,2.311s3.431,1.637,5.084.94c1.058-.447,1.833-1.418,2.906-1.841a12.843,12.843,0,0,1,2.906-.447,2.6,2.6,0,0,0,2.256-1.622c.259-1.05-.564-2.037-1.371-2.758s-1.723-1.543-1.723-2.624c0-1.238,1.253-2.421.736-3.541-.494-1.073-2.248-1.144-2.609-2.272-.368-1.159,1.089-2.1,1.3-3.29.188-1.12-.736-2.076-1.363-3.016-1.716-2.57-1.465-6.048-3.024-8.719-2.013-3.439-6.009-3.87-9.581-3.345A7.374,7.374,0,0,0,448.5,190.163Z" transform="translate(-392.403 -188.693)"/>
          <g id="Grupo_1067695" data-name="Grupo 1067695" transform="translate(39.225 61.245)">
            <g id="Grupo_1067692" data-name="Grupo 1067692" transform="translate(0 78.826)">
              <path id="Trazado_773453" data-name="Trazado 773453" d="M448.066,372.849l-.016.125c-.016.188-.039.368-.07.556-.039.157-.063.337-.1.509l-19.146.133a3.556,3.556,0,0,1-.031-.509c.008-.157.016-.345.047-.564a.714.714,0,0,1,.023-.125c.2-1.081.979-2.57,3.588-3.071.125-.031.259-.047.4-.07h.008c.2-.031.407-.055.627-.07a1.917,1.917,0,0,1,.219-.016c5.233-.447,7.536-2.217,7.536-2.217a16.631,16.631,0,0,0,5.883-.039,7.452,7.452,0,0,1,.642,1.512c.047.165.094.337.141.525.008.031.016.07.031.117.016.07.031.157.055.235.008.023.008.055.016.078s.008.023.016.039a9.767,9.767,0,0,1,.133,2.852Z" transform="translate(-428.692 -367.49)" fill="#005158"/>
              <path id="Trazado_773454" data-name="Trazado 773454" d="M442.152,367.742a.344.344,0,0,1,.243-.1.373.373,0,0,1,.243.1,1.22,1.22,0,0,1,.157.125q.376.294.776.564a.339.339,0,0,1,.157.2.356.356,0,0,1-.031.266.347.347,0,0,1-.47.125c-.368-.251-.721-.517-1.073-.791a.344.344,0,0,1-.1-.243A.385.385,0,0,1,442.152,367.742Z" transform="translate(-431.584 -367.523)" fill="#fff"/>
              <path id="Trazado_773455" data-name="Trazado 773455" d="M440.432,368.532a.345.345,0,0,1,.486,0,5.288,5.288,0,0,0,.838.783c.047.039.094.07.149.11a.339.339,0,0,1,.157.2.355.355,0,0,1-.031.266.346.346,0,0,1-.47.125,6.23,6.23,0,0,1-1.128-1,.358.358,0,0,1-.1-.243A.344.344,0,0,1,440.432,368.532Z" transform="translate(-431.211 -367.694)" fill="#fff"/>
              <path id="Trazado_773456" data-name="Trazado 773456" d="M438.842,369.112a.343.343,0,0,1,.243-.1.314.314,0,0,1,.243.1l.783.995a.358.358,0,0,1,.1.243.348.348,0,0,1-.345.345.314.314,0,0,1-.243-.1l-.783-.995a.4.4,0,0,1-.1-.243A.381.381,0,0,1,438.842,369.112Z" transform="translate(-430.867 -367.819)" fill="#fff"/>
              <path id="Trazado_773457" data-name="Trazado 773457" d="M437.064,369.548a.351.351,0,0,1,.47.118c.172.3.353.588.525.885a.342.342,0,0,1-.117.47.351.351,0,0,1-.47-.117c-.172-.3-.353-.588-.525-.885A.342.342,0,0,1,437.064,369.548Z" transform="translate(-430.468 -367.926)" fill="#fff"/>
              <path id="Trazado_773458" data-name="Trazado 773458" d="M448.048,374.49c-.024.18-.039.368-.078.556-.031.164-.063.337-.1.517l-19.139.133a4.225,4.225,0,0,1-.039-.509,4.011,4.011,0,0,1,.055-.564Z" transform="translate(-428.69 -369.006)" fill="#fff"/>
            </g>
            <g id="Grupo_1067693" data-name="Grupo 1067693" transform="translate(25.175 74.894)">
              <path id="Trazado_773459" data-name="Trazado 773459" d="M479.607,367.437l.008.125c.023.188.047.36.055.564,0,.164.008.337.016.525l-18.629,4.411a3.466,3.466,0,0,1-.149-.486,4.32,4.32,0,0,1-.078-.556.667.667,0,0,1,0-.125c-.047-1.1.376-2.726,2.812-3.792.117-.055.243-.1.376-.157h.008c.2-.078.384-.141.6-.211.071-.023.141-.047.2-.063,5-1.606,6.855-3.847,6.855-3.847a16.69,16.69,0,0,0,5.727-1.355,7.354,7.354,0,0,1,.964,1.332c.078.149.172.306.258.478.016.031.031.063.055.1.031.063.07.141.1.219.008.024.024.047.031.071s.016.023.023.039a8.857,8.857,0,0,1,.447,1.222A9.947,9.947,0,0,1,479.607,367.437Z" transform="translate(-460.826 -362.47)" fill="#005158"/>
              <path id="Trazado_773460" data-name="Trazado 773460" d="M472.364,364.885a.389.389,0,0,1,.212-.157.422.422,0,0,1,.258.039c.063.031.125.055.18.086.29.133.588.258.877.376a.338.338,0,0,1,.227.431.347.347,0,0,1-.431.227c-.415-.165-.823-.345-1.222-.533a.363.363,0,0,1-.157-.211A.382.382,0,0,1,472.364,364.885Z" transform="translate(-463.312 -362.958)" fill="#fff"/>
              <path id="Trazado_773461" data-name="Trazado 773461" d="M470.854,366.044a.342.342,0,0,1,.47-.11,5.5,5.5,0,0,0,.995.58l.164.07a.339.339,0,0,1,.227.431.347.347,0,0,1-.431.227,6.2,6.2,0,0,1-1.324-.721.355.355,0,0,1-.157-.212A.432.432,0,0,1,470.854,366.044Z" transform="translate(-462.985 -363.209)" fill="#fff"/>
              <path id="Trazado_773462" data-name="Trazado 773462" d="M469.437,366.954a.39.39,0,0,1,.211-.157.33.33,0,0,1,.259.039l.987.791a.419.419,0,0,1,.157.212.373.373,0,0,1-.039.258.39.39,0,0,1-.212.157.33.33,0,0,1-.259-.039l-.987-.791a.42.42,0,0,1-.157-.211A.373.373,0,0,1,469.437,366.954Z" transform="translate(-462.681 -363.405)" fill="#fff"/>
              <path id="Trazado_773463" data-name="Trazado 773463" d="M467.8,367.784a.353.353,0,0,1,.486.008c.235.251.47.494.713.744a.343.343,0,1,1-.494.478c-.235-.251-.47-.494-.713-.744A.353.353,0,0,1,467.8,367.784Z" transform="translate(-462.315 -363.601)" fill="#fff"/>
              <path id="Trazado_773464" data-name="Trazado 773464" d="M479.616,368.98c.023.18.039.368.047.556.008.172.016.345.016.525l-18.622,4.411a3.065,3.065,0,0,1-.149-.486,4.533,4.533,0,0,1-.078-.556Z" transform="translate(-460.827 -363.88)" fill="#fff"/>
            </g>
            <g id="Grupo_1067694" data-name="Grupo 1067694" transform="translate(9.446)">
              <path id="Trazado_773465" data-name="Trazado 773465" d="M456.439,266.886l-.65,7.826-3.972,47.655-1.943,23.33a15.823,15.823,0,0,1-5.883.039s-.729-9.675-1.347-22.883c-.807-17.2-1.426-40.4-.023-55.982h13.819Z" transform="translate(-440.973 -266.87)" fill="#feae93"/>
              <path id="Trazado_773466" data-name="Trazado 773466" d="M458.475,266.89c-.94,7.693-2.538,38.528-1.551,42.946.588,2.624,14.039,33.256,14.039,33.256a8.436,8.436,0,0,0,5.531-1.347l-8.453-32.519s5.46-31.2,3.071-42.335Z" transform="translate(-444.184 -266.874)" fill="#feae93"/>
              <path id="Trazado_773467" data-name="Trazado 773467" d="M470.621,327.581a15.354,15.354,0,0,1-2.2,1.2c-.07.031-.133.063-.212.094a23.455,23.455,0,0,1-7.865,1.974s-6.9-19.679-7.16-20.784a19.164,19.164,0,0,1-.149-3.627l-1.058,24.834s-6.549,1.293-10.85,0c0,0-1.434-51.9,1.285-64.38h25.281C470.3,277.051,465.27,309,465.27,309Z" transform="translate(-440.748 -266.874)" fill="#6fd9c0"/>
              <path id="Trazado_773468" data-name="Trazado 773468" d="M457.042,271.721l-.211,3.525c-.517-1.222-1.026-2.444-1.543-3.666-.055-.133-.274-.07-.219.063q.823,1.962,1.653,3.925a.113.113,0,0,0,.086.07q-.259,4.548-.454,9.1-.27,6.51-.415,13.02c-.055,2.436-.086,4.873-.11,7.309a.114.114,0,0,0,.227,0q.059-6.51.259-13.02t.533-13.012c.125-2.436.266-4.865.415-7.3C457.277,271.572,457.05,271.572,457.042,271.721Z" transform="translate(-443.848 -267.874)" fill="#005158"/>
              <path id="Trazado_773469" data-name="Trazado 773469" d="M474.194,329.384c-.07.031-.133.063-.211.094q-.082-.47-.188-.94a76.276,76.276,0,0,0-3.094-9.581,39.551,39.551,0,0,1-2.483-9.636,51.527,51.527,0,0,1,.58-11.14l1.363-11.3q.67-5.605,1.347-11.218a7.968,7.968,0,0,1-.7-.431,8.208,8.208,0,0,1-3.4-5.405c-.023-.141.2-.2.211-.055a7.773,7.773,0,0,0,.478,1.731,7.965,7.965,0,0,0,4.411,4.395c.133.055.078.266-.055.219-.251-.1-.5-.212-.744-.337-.047.415-.1.83-.149,1.246q-.682,5.629-1.355,11.258-.67,5.594-1.347,11.195a41.891,41.891,0,0,0-.274,11.109,49.432,49.432,0,0,0,2.765,9.542A57.436,57.436,0,0,1,474.194,329.384Z" transform="translate(-446.522 -267.479)" fill="#005158"/>
            </g>
          </g>
          <g id="Grupo_1067714" data-name="Grupo 1067714" transform="translate(0 15.81)">
            <g id="Grupo_1067697" data-name="Grupo 1067697" transform="translate(20.787 1.711)">
              <g id="Grupo_1067696" data-name="Grupo 1067696">
                <path id="Trazado_773470" data-name="Trazado 773470" d="M415.727,219.622a3.887,3.887,0,0,1-3.549.674,3.624,3.624,0,0,1-2.186-2.17s-2.413,1.724-2.993,1.426,1.927-2.523,1.927-2.523-3.369.838-3.541.3,3.353-1.7,3.353-1.7-3.737-.752-3.58-1.512,4.763.149,4.763.149-1.958-2.718-1.394-3.149c.815-.611,5.178,4,5.225,3.948s.807-3.016,1.935-2.5c1.089.5-.157,1.59.11,2.993C415.907,216.23,416.745,218.565,415.727,219.622Z" transform="translate(-405.154 -211.059)" fill="#fea789"/>
              </g>
              <path id="Trazado_773471" data-name="Trazado 773471" d="M442.711,219.12c-3.549,1.246-11.414,14.893-11.414,14.893l-13.036-14.524-3.651,2.671s10.5,19.045,17.039,19.3c5.57.219,11.289-11.72,11.563-12.158C443.486,228.873,442.711,219.12,442.711,219.12Z" transform="translate(-407.202 -212.805)" fill="#fea789"/>
            </g>
            <g id="Grupo_1067698" data-name="Grupo 1067698">
              <path id="Trazado_773472" data-name="Trazado 773472" d="M404.11,217.5c-.235-.736-.58-1.833-.8-2.53a3.594,3.594,0,0,0,1.637-1.943,3.166,3.166,0,0,0-5.8-2.483.775.775,0,0,0,1.363.736,1.665,1.665,0,0,1,1.277-.846,1.633,1.633,0,0,1,1.4.6,1.672,1.672,0,0,1,.274,1.5,2.184,2.184,0,0,1-1.363,1.285.775.775,0,0,0-.478.964c.055.172.658,2.092,1,3.189a39.04,39.04,0,0,0-11.179,5.946l1.222,1.5c.1-.086,10.662-8.508,23.5-7.254l.188-1.935A31.831,31.831,0,0,0,404.11,217.5Z" transform="translate(-381.399 -208.874)" fill="#6fd9c0"/>
              <path id="Trazado_773473" data-name="Trazado 773473" d="M421.613,248.216c-2.013-10.686-.031-15.347-.031-15.347l2.993,1.637,6.095-11.187s-11.132-7.1-23.275-6.714c.305,2.859-1.841,5.774-5.194,6.808s-6.769-.165-8.124-2.7c-10.247,6.518-15.457,18.653-15.457,18.653l11.336,5.805,1.551-3.04s4.27,2.734,8.617,12.7c1.943,9.432-5.547,46.6-2.585,56.209a174.633,174.633,0,0,0,57.855-17.854C452.448,283.6,425.319,257.1,421.613,248.216Z" transform="translate(-378.62 -210.546)" fill="#005158"/>
              <path id="Trazado_773474" data-name="Trazado 773474" d="M451.072,288.631q-2.526-1.833-4.888-3.87c-1.567-1.347-3.071-2.758-4.528-4.23s-2.844-3-4.168-4.583c-1.34-1.59-2.609-3.243-3.807-4.935s-2.327-3.431-3.384-5.217c-.125-.219-.258-.431-.384-.65a.112.112,0,0,0-.2.11q1.563,2.7,3.345,5.272t3.753,4.967c1.324,1.606,2.7,3.165,4.152,4.661s2.953,2.93,4.52,4.309,3.173,2.671,4.841,3.909l.627.462C451.072,288.913,451.181,288.717,451.072,288.631Z" transform="translate(-389.684 -221.05)" fill="#6fd9c0"/>
              <path id="Trazado_773475" data-name="Trazado 773475" d="M454.778,298.24q-2.679-1.633-5.218-3.494c-1.692-1.23-3.329-2.538-4.912-3.9s-3.1-2.789-4.567-4.27-2.883-3.04-4.223-4.638-2.624-3.259-3.831-4.967l-.446-.635c-.078-.117-.274-.008-.2.11,1.191,1.724,2.46,3.392,3.784,5.014s2.734,3.188,4.191,4.7,2.985,2.961,4.559,4.348,3.2,2.7,4.881,3.956,3.416,2.444,5.2,3.557c.219.141.439.274.666.407C454.785,298.507,454.9,298.311,454.778,298.24Z" transform="translate(-390.045 -223.475)" fill="#6fd9c0"/>
              <path id="Trazado_773476" data-name="Trazado 773476" d="M424.344,238.268a16.855,16.855,0,0,1-1.951,5.022,17.159,17.159,0,0,1-3.408,4.176,16.535,16.535,0,0,1-2.46,1.825c-.125.078-.008.266.11.2a17,17,0,0,0,4.152-3.549,17.634,17.634,0,0,0,2.844-4.653,16.966,16.966,0,0,0,.917-2.953C424.586,238.19,424.375,238.127,424.344,238.268Z" transform="translate(-386.818 -215.224)" fill="#6fd9c0"/>
              <path id="Trazado_773477" data-name="Trazado 773477" d="M425.849,244.63a12.028,12.028,0,0,1-4.708,5.907,11.728,11.728,0,0,1-1.911,1.011c-.133.055-.07.274.063.219a12.325,12.325,0,0,0,5.829-5.069,11.731,11.731,0,0,0,.948-2.006C426.116,244.559,425.9,244.5,425.849,244.63Z" transform="translate(-387.4 -216.603)" fill="#6fd9c0"/>
              <path id="Trazado_773478" data-name="Trazado 773478" d="M421.832,300.1q-.059-2.726-.306-5.437-.247-2.691-.674-5.351-.435-2.691-1.058-5.343c-.055-.219-.1-.439-.157-.65-.031-.141-.251-.078-.219.063.431,1.755.791,3.525,1.1,5.312s.548,3.588.729,5.4c.18,1.786.29,3.588.345,5.382.055,1.81.039,3.611-.031,5.421s-.212,3.611-.407,5.405c-.023.219-.047.447-.078.666-.016.141.2.141.227,0q.329-2.7.454-5.429Q421.895,302.809,421.832,300.1Z" transform="translate(-387.456 -224.981)" fill="#6fd9c0"/>
              <path id="Trazado_773479" data-name="Trazado 773479" d="M427.95,300.009c-.078-.713-.164-1.426-.243-2.139-.016-.141-.243-.141-.227,0,.29,2.523.572,5.053.862,7.576.078.713.164,1.426.243,2.139.016.141.243.141.227,0C428.53,305.062,428.24,302.532,427.95,300.009Z" transform="translate(-389.203 -228.127)" fill="#6fd9c0"/>
            </g>
            <g id="Grupo_1067710" data-name="Grupo 1067710" transform="translate(50.326 6.648)">
              <g id="Grupo_1067709" data-name="Grupo 1067709">
                <g id="Grupo_1067708" data-name="Grupo 1067708">
                  <g id="Grupo_1067707" data-name="Grupo 1067707">
                    <g id="Grupo_1067706" data-name="Grupo 1067706">
                      <g id="Grupo_1067705" data-name="Grupo 1067705">
                        <g id="Grupo_1067704" data-name="Grupo 1067704">
                          <g id="Grupo_1067703" data-name="Grupo 1067703">
                            <g id="Grupo_1067702" data-name="Grupo 1067702">
                              <g id="Grupo_1067701" data-name="Grupo 1067701">
                                <g id="Grupo_1067700" data-name="Grupo 1067700">
                                  <g id="Grupo_1067699" data-name="Grupo 1067699">
                                    <path id="Trazado_773480" data-name="Trazado 773480" d="M442.86,256.162c11.234,4.035,24.944.313,25.281,0,0,0-3.643-14.454-3.956-23.753a100.565,100.565,0,0,0-1.128-13.3v-.039l-5.17-1.708h-5.123l-2.389.776-1.528.6c-6.541,14.4-.838,17.078-.838,17.078Z" transform="translate(-442.86 -217.36)" fill="#f79577"/>
                                  </g>
                                </g>
                              </g>
                            </g>
                          </g>
                        </g>
                      </g>
                    </g>
                  </g>
                </g>
              </g>
            </g>
            <g id="Grupo_1067713" data-name="Grupo 1067713" transform="translate(43.05 8.332)">
              <g id="Grupo_1067712" data-name="Grupo 1067712" transform="translate(0 30.935)">
                <g id="Grupo_1067711" data-name="Grupo 1067711">
                  <path id="Trazado_773481" data-name="Trazado 773481" d="M441.679,259.783c-.431-.133-.807.321-1.535.172s-1.692-.995-2.272-.956-4.63,1.34-4.277,2.217c.212.525,2.421-.306,2.468-.274s-2.593,1.371-2.225,2.06,3.2-1.238,3.259-1.183-2.021,1.731-1.535,2.288,2.342-1.277,2.413-1.246-1.261,1.512-.846,1.825,2.092-1.52,2.2-1.473a4.338,4.338,0,0,0,1.763,1.089c.885.165,2.5-.94,2.507-1.645A5.277,5.277,0,0,0,441.679,259.783Z" transform="translate(-433.572 -258.998)" fill="#feae93"/>
                </g>
              </g>
              <path id="Trazado_773482" data-name="Trazado 773482" d="M463.183,219.581c5.092,1.5,5.5,18.065,3.846,23.142-1.3,3.988-21.888,12.292-21.888,12.292l-1.661-3.792,17.642-10.952S458.192,218.108,463.183,219.581Z" transform="translate(-435.718 -219.51)" fill="#feae93"/>
            </g>
          </g>
          <g id="Grupo_1067720" data-name="Grupo 1067720" transform="translate(54.258 1.095)">
            <g id="Grupo_1067719" data-name="Grupo 1067719">
              <path id="Trazado_773483" data-name="Trazado 773483" d="M448.195,201.909a.59.59,0,0,1,.008.117,6.311,6.311,0,0,0,1.927,4.207,22.406,22.406,0,0,0,1.865,1.528c.1.078.2.165.29.243.979.83,1.528,1.747,1.387,4.356a2.925,2.925,0,0,0,5.382.3,26,26,0,0,1,1.512-7.576c.157-.454.313-.838.439-1.144.251-.588.423-.909.423-.909s.235-6.949-.658-8.845c-2.186-4.583-10.811-3.533-11.673-.024A23.909,23.909,0,0,0,448.195,201.909Z" transform="translate(-447.935 -190.315)" fill="#feae93"/>
              <path id="Trazado_773484" data-name="Trazado 773484" d="M447.942,197.251a6.762,6.762,0,0,0,4.082-3.674,4.841,4.841,0,0,0,5.171,2.938,1.833,1.833,0,0,0,1.974,2.491,1.974,1.974,0,0,0,1.1,2.256,5.2,5.2,0,0,0,2.687.36,23.589,23.589,0,0,0-1.747-7.615,7.186,7.186,0,0,0-1.716-2.679c-1.4-1.23-3.463-1.379-5.312-1.144a8.655,8.655,0,0,0-3.094.9A6.319,6.319,0,0,0,447.942,197.251Z" transform="translate(-447.879 -190.091)"/>
              <g id="Grupo_1067717" data-name="Grupo 1067717" transform="translate(1.19 7.738)">
                <g id="Grupo_1067715" data-name="Grupo 1067715" transform="translate(4.952 2.155)">
                  <path id="Trazado_773485" data-name="Trazado 773485" d="M456.8,203.292a.541.541,0,1,1-.509-.572A.543.543,0,0,1,456.8,203.292Z" transform="translate(-455.719 -202.719)"/>
                  <path id="Trazado_773486" data-name="Trazado 773486" d="M456.309,203.161a.2.2,0,1,1-.188-.212A.207.207,0,0,1,456.309,203.161Z" transform="translate(-455.76 -202.769)" fill="#fff"/>
                </g>
                <g id="Grupo_1067716" data-name="Grupo 1067716" transform="translate(0.761 1.92)">
                  <path id="Trazado_773487" data-name="Trazado 773487" d="M451.451,202.992a.541.541,0,1,1-.509-.572A.543.543,0,0,1,451.451,202.992Z" transform="translate(-450.369 -202.419)"/>
                  <path id="Trazado_773488" data-name="Trazado 773488" d="M450.959,202.861a.2.2,0,1,1-.188-.212A.211.211,0,0,1,450.959,202.861Z" transform="translate(-450.41 -202.469)" fill="#fff"/>
                </g>
                <path id="Trazado_773489" data-name="Trazado 773489" d="M451.726,200.361a1.777,1.777,0,0,0-2.209-.016.355.355,0,0,0-.071.447.26.26,0,0,0,.384.078,1.294,1.294,0,0,1,.94-.259,1.388,1.388,0,0,1,.47.157c.133.078.258.2.407.118a.2.2,0,0,0,.094-.086A.343.343,0,0,0,451.726,200.361Z" transform="translate(-449.398 -199.969)"/>
                <path id="Trazado_773490" data-name="Trazado 773490" d="M455.022,200.545a2.27,2.27,0,0,1,2.523.251.317.317,0,1,1-.415.478,1.621,1.621,0,0,0-1.042-.36,1.7,1.7,0,0,0-.556.1c-.157.055-.313.165-.486.07a.384.384,0,0,1-.1-.094A.316.316,0,0,1,455.022,200.545Z" transform="translate(-450.587 -200.035)"/>
                <path id="Trazado_773491" data-name="Trazado 773491" d="M452.483,204.869a.066.066,0,0,1-.063-.055c-.11-.47.055-.619.211-.658a.69.69,0,0,1,.556.157.073.073,0,0,1,.016.1.074.074,0,0,1-.1.016.565.565,0,0,0-.439-.133c-.141.039-.18.2-.11.494a.072.072,0,0,1-.055.086C452.5,204.869,452.491,204.869,452.483,204.869Z" transform="translate(-450.045 -200.873)" fill="#a85d4f"/>
                <path id="Trazado_773492" data-name="Trazado 773492" d="M452.554,206.832a2.119,2.119,0,0,1-.94-.345.3.3,0,1,1,.345-.5,1.607,1.607,0,0,0,1.912-.133.3.3,0,1,1,.446.415A2.2,2.2,0,0,1,452.554,206.832Z" transform="translate(-449.849 -201.222)" fill="#c15353"/>
              </g>
              <g id="Grupo_1067718" data-name="Grupo 1067718" transform="translate(12.302 9.969)">
                <path id="Trazado_773493" data-name="Trazado 773493" d="M466.628,205.82a1.685,1.685,0,1,1,.219-2.632A1.892,1.892,0,0,1,466.628,205.82Z" transform="translate(-463.582 -202.816)" fill="#feae93"/>
                <path id="Trazado_773494" data-name="Trazado 773494" d="M466.6,203.769a1.277,1.277,0,0,0-1.112-.039,1.128,1.128,0,0,0-.447.306.65.65,0,0,0-.125.572.918.918,0,0,0,.282.376.841.841,0,0,1,.2.219.323.323,0,0,1-.439.431.145.145,0,0,0-.133.259.714.714,0,0,0,.243.07.61.61,0,0,0,.588-.885.961.961,0,0,0-.259-.3.6.6,0,0,1-.2-.251.348.348,0,0,1,.07-.306.5.5,0,0,1,.117-.1.581.581,0,0,1,.4.165.519.519,0,0,1,.1.423.144.144,0,0,0,.11.172h.023a.144.144,0,0,0,.149-.11.779.779,0,0,0-.157-.666.646.646,0,0,0-.2-.157.947.947,0,0,1,.65.078.56.56,0,0,1,.243.689.145.145,0,0,0,.259.133A.857.857,0,0,0,466.6,203.769Z" transform="translate(-463.832 -202.991)" fill="#a85d4f"/>
              </g>
            </g>
          </g>
        </g>
        <g id="Grupo_1067750" data-name="Grupo 1067750" transform="translate(123.394 0)">
          <g id="Grupo_1067724" data-name="Grupo 1067724" transform="translate(0 63.503)">
            <path id="Trazado_773495" data-name="Trazado 773495" d="M359.15,267.11c2.6,17.047-2.75,78.7-2.75,78.7a15.928,15.928,0,0,1-5.868-.039L345.19,267.11Z" transform="translate(-320.34 -267.11)" fill="#6fd9c0"/>
            <g id="Grupo_1067722" data-name="Grupo 1067722" transform="translate(29.12 78.646)">
              <path id="Trazado_773496" data-name="Trazado 773496" d="M350.687,372.851l.016.125c.016.188.039.36.07.556.039.157.063.337.1.509l19.107.133a3.555,3.555,0,0,0,.031-.509c-.008-.157-.016-.345-.047-.564a.707.707,0,0,0-.023-.125c-.2-1.073-.971-2.57-3.58-3.063-.125-.031-.259-.047-.4-.07h-.008c-.2-.031-.407-.055-.627-.07a1.924,1.924,0,0,0-.219-.016c-5.225-.447-7.529-2.217-7.529-2.217a16.545,16.545,0,0,1-5.868-.039,7.455,7.455,0,0,0-.642,1.512c-.047.165-.094.337-.141.525a.8.8,0,0,1-.031.11c-.016.07-.031.157-.055.235-.008.023-.008.055-.016.078s-.008.023-.008.039a8.8,8.8,0,0,0-.165,1.293A10.463,10.463,0,0,0,350.687,372.851Z" transform="translate(-350.641 -367.5)" fill="#f79577"/>
              <path id="Trazado_773497" data-name="Trazado 773497" d="M361.481,367.762a.344.344,0,0,0-.243-.1.374.374,0,0,0-.243.1,1.22,1.22,0,0,0-.157.125c-.251.2-.509.376-.776.556a.34.34,0,0,0-.157.2.355.355,0,0,0,.031.266.345.345,0,0,0,.47.125c.368-.251.721-.517,1.073-.791a.344.344,0,0,0,.1-.243A.38.38,0,0,0,361.481,367.762Z" transform="translate(-352.645 -367.535)" fill="#fff"/>
              <path id="Trazado_773498" data-name="Trazado 773498" d="M363.186,368.542a.345.345,0,0,0-.486,0,5.673,5.673,0,0,1-.838.783c-.047.039-.094.07-.149.11a.339.339,0,0,0-.157.2.356.356,0,0,0,.031.266.346.346,0,0,0,.47.125,6.174,6.174,0,0,0,1.12-.995.358.358,0,0,0,.1-.243A.37.37,0,0,0,363.186,368.542Z" transform="translate(-353.002 -367.704)" fill="#fff"/>
              <path id="Trazado_773499" data-name="Trazado 773499" d="M364.841,369.122a.343.343,0,0,0-.243-.1.314.314,0,0,0-.243.1l-.783.987a.38.38,0,0,0-.1.243.358.358,0,0,0,.1.243.344.344,0,0,0,.243.1.314.314,0,0,0,.243-.1l.783-.987a.38.38,0,0,0,.1-.243A.344.344,0,0,0,364.841,369.122Z" transform="translate(-353.42 -367.829)" fill="#fff"/>
              <path id="Trazado_773500" data-name="Trazado 773500" d="M366.692,369.558a.351.351,0,0,0-.47.117c-.172.3-.353.588-.525.885a.342.342,0,0,0,.117.47.351.351,0,0,0,.47-.117c.172-.3.353-.588.525-.885A.342.342,0,0,0,366.692,369.558Z" transform="translate(-353.892 -367.936)" fill="#fff"/>
              <path id="Trazado_773501" data-name="Trazado 773501" d="M350.72,374.5c.023.18.039.368.078.548.031.165.063.337.1.517l19.1.133a4.233,4.233,0,0,0,.039-.509,3.8,3.8,0,0,0-.055-.556Z" transform="translate(-350.658 -369.016)" fill="#fff"/>
            </g>
            <path id="Trazado_773502" data-name="Trazado 773502" d="M330.166,267.11c-3.674,20.47-1.073,78.7-1.073,78.7a15.928,15.928,0,0,0,5.868-.039l9.158-78.662Z" transform="translate(-316.66 -267.11)" fill="#6fd9c0"/>
            <g id="Grupo_1067723" data-name="Grupo 1067723" transform="translate(0 78.646)">
              <path id="Trazado_773503" data-name="Trazado 773503" d="M332.807,372.851l-.016.125c-.016.188-.039.36-.07.556-.039.157-.063.337-.1.509l-19.107.133a3.559,3.559,0,0,1-.031-.509c.008-.157.016-.345.047-.564a.7.7,0,0,1,.023-.125c.2-1.073.971-2.57,3.58-3.063.125-.031.258-.047.4-.07h.008c.2-.031.407-.055.627-.07a1.923,1.923,0,0,1,.219-.016c5.225-.447,7.529-2.217,7.529-2.217a16.545,16.545,0,0,0,5.868-.039,7.45,7.45,0,0,1,.642,1.512c.047.165.094.337.141.525a.793.793,0,0,0,.031.11c.016.07.031.157.055.235.008.023.008.055.016.078s.008.023.008.039a8.805,8.805,0,0,1,.164,1.293A10.463,10.463,0,0,1,332.807,372.851Z" transform="translate(-313.472 -367.5)" fill="#f79577"/>
              <path id="Trazado_773504" data-name="Trazado 773504" d="M326.9,367.762a.344.344,0,0,1,.243-.1.374.374,0,0,1,.243.1,1.22,1.22,0,0,1,.157.125c.251.2.509.376.776.556a.34.34,0,0,1,.157.2.355.355,0,0,1-.031.266.345.345,0,0,1-.47.125c-.368-.251-.721-.517-1.073-.791a.34.34,0,0,1,0-.486Z" transform="translate(-316.357 -367.535)" fill="#fff"/>
              <path id="Trazado_773505" data-name="Trazado 773505" d="M325.184,368.542a.345.345,0,0,1,.486,0,5.671,5.671,0,0,0,.838.783c.047.039.094.07.149.11a.339.339,0,0,1,.157.2.356.356,0,0,1-.031.266.347.347,0,0,1-.47.125,6.172,6.172,0,0,1-1.12-.995.358.358,0,0,1-.1-.243A.336.336,0,0,1,325.184,368.542Z" transform="translate(-315.987 -367.704)" fill="#fff"/>
              <path id="Trazado_773506" data-name="Trazado 773506" d="M323.6,369.122a.344.344,0,0,1,.243-.1.314.314,0,0,1,.243.1l.783.987a.38.38,0,0,1,.1.243.358.358,0,0,1-.1.243.344.344,0,0,1-.243.1.314.314,0,0,1-.243-.1l-.783-.987a.38.38,0,0,1-.1-.243A.344.344,0,0,1,323.6,369.122Z" transform="translate(-315.642 -367.829)" fill="#fff"/>
              <path id="Trazado_773507" data-name="Trazado 773507" d="M321.824,369.558a.351.351,0,0,1,.47.117c.172.3.353.588.525.885a.342.342,0,0,1-.117.47.351.351,0,0,1-.47-.117c-.172-.3-.353-.588-.525-.885A.342.342,0,0,1,321.824,369.558Z" transform="translate(-315.244 -367.936)" fill="#fff"/>
              <path id="Trazado_773508" data-name="Trazado 773508" d="M332.789,374.5c-.024.18-.039.368-.078.548-.031.165-.063.337-.1.517l-19.1.133a4.228,4.228,0,0,1-.039-.509,3.8,3.8,0,0,1,.055-.556Z" transform="translate(-313.47 -369.016)" fill="#fff"/>
            </g>
          </g>
          <g id="Grupo_1067744" data-name="Grupo 1067744" transform="translate(10.662 16.426)">
            <g id="Grupo_1067727" data-name="Grupo 1067727" transform="translate(24.137 4.468)">
              <path id="Trazado_773509" data-name="Trazado 773509" d="M357.89,219.35c4.5,1.645,13.02,18.214,13.02,18.214l11.062-14.979,3.713,2.084s-9.464,20.071-15.018,20.071c-3.917,0-12.1-12.965-12.1-12.965Z" transform="translate(-357.89 -214.156)" fill="#fea789"/>
              <path id="Trazado_773510" data-name="Trazado 773510" d="M357.89,219.35c4.434,1.622,13.059,17.11,13.059,17.11l1.9-2.436a14.847,14.847,0,0,1,4.834,5.539s-3.721,5.923-6.776,5.578S359.073,233.8,359.073,233.8Z" transform="translate(-357.89 -214.156)" fill="#dee9f0"/>
              <g id="Grupo_1067726" data-name="Grupo 1067726" transform="translate(21.572)">
                <g id="Grupo_1067725" data-name="Grupo 1067725">
                  <path id="Trazado_773511" data-name="Trazado 773511" d="M389.785,223.829A3.891,3.891,0,0,0,393,222.2a3.6,3.6,0,0,0,.407-3.04s2.953-.1,3.235-.7-3.055-.823-3.055-.823,3.173-1.387,2.985-1.927-3.682.7-3.682.7,2.491-2.867,1.911-3.376-3.674,3.024-3.674,3.024-.11-3.345-.815-3.337c-1.018.008-1.653,6.322-1.731,6.306s-2.476-1.9-3.048-.8c-.556,1.058,1.089,1.167,1.739,2.436C387.576,221.251,388.336,223.617,389.785,223.829Z" transform="translate(-385.426 -212.72)" fill="#fea789"/>
                </g>
              </g>
            </g>
            <g id="Grupo_1067740" data-name="Grupo 1067740" transform="translate(2.852 7.86)">
              <g id="Grupo_1067739" data-name="Grupo 1067739">
                <g id="Grupo_1067738" data-name="Grupo 1067738">
                  <g id="Grupo_1067737" data-name="Grupo 1067737">
                    <g id="Grupo_1067736" data-name="Grupo 1067736">
                      <g id="Grupo_1067735" data-name="Grupo 1067735">
                        <g id="Grupo_1067734" data-name="Grupo 1067734">
                          <g id="Grupo_1067733" data-name="Grupo 1067733">
                            <g id="Grupo_1067732" data-name="Grupo 1067732">
                              <g id="Grupo_1067731" data-name="Grupo 1067731">
                                <g id="Grupo_1067730" data-name="Grupo 1067730">
                                  <g id="Grupo_1067729" data-name="Grupo 1067729">
                                    <g id="Grupo_1067728" data-name="Grupo 1067728">
                                      <path id="Trazado_773512" data-name="Trazado 773512" d="M356.016,256.267c-11.391,3.478-24.975.329-25.3,0,0,0,5.022-15.2,5.8-24.45.736-8.829,1.316-13.279,1.316-13.279V218.5l5.241-1.449,5.108.243,2.342.885,1.5.674c5.821,14.673.008,17.063.008,17.063Z" transform="translate(-330.72 -217.05)" fill="#dee9f0"/>
                                    </g>
                                  </g>
                                </g>
                              </g>
                            </g>
                          </g>
                        </g>
                      </g>
                    </g>
                  </g>
                </g>
              </g>
            </g>
            <g id="Grupo_1067741" data-name="Grupo 1067741">
              <path id="Trazado_773513" data-name="Trazado 773513" d="M387.088,215.378c.157-.7.4-1.747.548-2.413a3.332,3.332,0,0,0,2.233-.8,2.952,2.952,0,0,0-3.5-4.724.724.724,0,0,0,.752,1.238,1.5,1.5,0,0,1,1.778,2.405,2.049,2.049,0,0,1-1.7.392.724.724,0,0,0-.838.548c-.039.164-.454,1.99-.689,3.04a36.385,36.385,0,0,0-11.79-.478l.274,1.786c.125-.016,12.589-1.833,22.327,5.225l1.058-1.465A29.787,29.787,0,0,0,387.088,215.378Z" transform="translate(-337.217 -207.017)" fill="#6fd9c0"/>
              <path id="Trazado_773514" data-name="Trazado 773514" d="M382.506,247.076c2.624-11.211,11.171-23.745,11.171-23.745l-6.283-3.682c-5.147,11.1-14.1,9.009-14.1,9.009s-8.954-2.1-8.633-14.328l-7.262.509s2.092,15.026-.533,26.236c-15.77,15.911-29.785,48.869-29.785,48.869s9.894,5.437,29.511,10.028,30.9,4.113,30.9,4.113S389.58,268.33,382.506,247.076Z" transform="translate(-327.08 -208.601)" fill="#f79577"/>
              <path id="Trazado_773515" data-name="Trazado 773515" d="M391.235,289.131c.306-2.3.525-4.606.642-6.917s.149-4.63.078-6.949-.235-4.653-.494-6.964-.611-4.591-1.058-6.863c-.055-.282-.11-.564-.172-.838-.031-.133-.235-.07-.2.063q.705,3.408,1.128,6.863c.282,2.288.462,4.591.556,6.894s.086,4.614-.008,6.917q-.141,3.49-.58,6.957c-.282,2.288-.666,4.567-1.136,6.823-.055.282-.117.556-.18.838a.108.108,0,0,0,.212.047C390.514,293.73,390.922,291.434,391.235,289.131Z" transform="translate(-340.666 -218.607)" fill="#6e8f89"/>
              <path id="Trazado_773516" data-name="Trazado 773516" d="M385.294,288.27c.313-2.256.619-4.5.932-6.761l.525-3.815c.016-.133-.188-.188-.212-.047-.313,2.256-.619,4.5-.932,6.761s-.619,4.5-.932,6.761l-.525,3.815c-.016.133.188.188.211.047C384.675,292.775,384.98,290.526,385.294,288.27Z" transform="translate(-339.441 -222.297)" fill="#6e8f89"/>
              <path id="Trazado_773517" data-name="Trazado 773517" d="M394.5,239.966a14.1,14.1,0,0,1-3.823,4,14.717,14.717,0,0,1-5.029,2.288,14.186,14.186,0,0,1-3.095.392.106.106,0,0,0,.008.212,14.446,14.446,0,0,0,5.507-1.183,15.033,15.033,0,0,0,4.638-3.126,14.49,14.49,0,0,0,1.99-2.483C394.765,239.95,394.577,239.848,394.5,239.966Z" transform="translate(-339.073 -214.142)" fill="#6e8f89"/>
              <path id="Trazado_773518" data-name="Trazado 773518" d="M392.865,246.865a15.986,15.986,0,0,1-6.275,2.327,16.9,16.9,0,0,1-1.888.164.106.106,0,0,0,.008.212,16.472,16.472,0,0,0,6.573-1.582,16.941,16.941,0,0,0,1.692-.94C393.092,246.967,392.982,246.786,392.865,246.865Z" transform="translate(-339.538 -215.644)" fill="#6e8f89"/>
              <path id="Trazado_773519" data-name="Trazado 773519" d="M360.393,266.846q-1.739,2.691-3.243,5.515c-1.011,1.888-1.943,3.823-2.789,5.789-.846,1.951-1.606,3.925-2.288,5.938s-1.293,4.066-1.81,6.134-.956,4.176-1.308,6.291c-.039.259-.086.517-.125.776-.023.133.188.188.212.047.329-2.107.736-4.2,1.238-6.275q.74-3.091,1.739-6.126,1-3.055,2.256-6.017c.823-1.959,1.731-3.878,2.711-5.758s2.053-3.745,3.189-5.546l.423-.658A.116.116,0,0,0,360.393,266.846Z" transform="translate(-331.79 -219.964)" fill="#6e8f89"/>
              <path id="Trazado_773520" data-name="Trazado 773520" d="M355.965,294.955c.431-1.9.854-3.784,1.285-5.68l.729-3.22a.109.109,0,0,0-.212-.047c-.431,1.9-.862,3.8-1.285,5.7s-.854,3.784-1.285,5.68l-.729,3.22a.108.108,0,0,0,.211.047Q355.327,297.8,355.965,294.955Z" transform="translate(-333.012 -224.109)" fill="#6e8f89"/>
            </g>
            <g id="Grupo_1067742" data-name="Grupo 1067742" transform="translate(7.099 9.309)">
              <path id="Trazado_773521" data-name="Trazado 773521" d="M364.615,247.361s3.369-2.3,3.807-2.2,4.168,1.05,4.481,1.606-.063.885-.705.854a9.551,9.551,0,0,1-1.684-.337,1.355,1.355,0,0,1,1.065.736c.29.666-.548,1.05-.548,1.05a1.265,1.265,0,0,1-.674.846s.313.3.321.462c.008.259-1.293,1.747-1.677,1.481-.478-.337.329-1.277.329-1.277l-.862-.682a4,4,0,0,1-2.64,1.238c-1.449-.039-1.637-.924-2.28-1.308Z" transform="translate(-342.078 -224.587)" fill="#feae93"/>
              <path id="Trazado_773522" data-name="Trazado 773522" d="M339.146,218.9c-3.643,1.535-2.374,19.985-.509,21.888,2.687,2.742,19.679,3.862,19.679,3.862l.736-3.134-15.128-4.387L342.9,223.177Z" transform="translate(-336.288 -218.9)" fill="#feae93"/>
              <path id="Trazado_773523" data-name="Trazado 773523" d="M339,218.9c-5.131,1.535-1.974,21.865-1.042,22.5s6.071,1.825,6.071,1.825,2.037-3.235,2.076-5.938l-1.982-.415-.948-13.937Z" transform="translate(-336.142 -218.9)" fill="#dee9f0"/>
            </g>
            <g id="Grupo_1067743" data-name="Grupo 1067743" transform="translate(7.933 12.212)">
              <path id="Trazado_773524" data-name="Trazado 773524" d="M347.714,238.969a16.447,16.447,0,0,1-2.123-.611q-.141-4.078-.274-8.155c-.008-.125-.008-.243-.016-.368.259-.486.509-.971.768-1.457.07-.125-.125-.243-.2-.11-.2.376-.392.744-.588,1.12-.016-.509-.031-1.018-.055-1.528a.114.114,0,0,0-.227,0q.141,4.1.274,8.2c.023.736.047,1.473.078,2.209-.18-.07-.36-.141-.533-.219-.133-.055-.243.133-.11.2a15.46,15.46,0,0,0,2.938.94C347.792,239.212,347.855,238.993,347.714,238.969Z" transform="translate(-338.819 -223.72)" fill="#a6c2c4"/>
              <path id="Trazado_773525" data-name="Trazado 773525" d="M343.335,248.135c-1.1-.3-2.209-.6-3.306-.9-.274-.078-.548-.149-.83-.227a2.585,2.585,0,0,1-.674-.251,1.863,1.863,0,0,1-.627-1.246c-.157-.627-.313-1.253-.47-1.872-.031-.141-.251-.078-.219.063.141.58.29,1.159.431,1.739a2.885,2.885,0,0,0,.533,1.332,2.926,2.926,0,0,0,1.379.58c.58.157,1.159.313,1.731.47l1.974.541C343.414,248.385,343.469,248.174,343.335,248.135Z" transform="translate(-337.206 -227.143)" fill="#a6c2c4"/>
              <path id="Trazado_773526" data-name="Trazado 773526" d="M360.8,230.161a24.776,24.776,0,0,0-1.12-4.881,25.975,25.975,0,0,0-1.042-2.617c-.063-.133-.251-.016-.2.11a25.2,25.2,0,0,1,1.622,4.653c.2.791.345,1.582.462,2.389a10.728,10.728,0,0,1,.117,2.554,5.126,5.126,0,0,1-.838,2.421c-.078.118.11.227.2.11A6.735,6.735,0,0,0,360.8,230.161Z" transform="translate(-341.802 -222.605)" fill="#a6c2c4"/>
            </g>
          </g>
          <g id="Grupo_1067749" data-name="Grupo 1067749" transform="translate(17.18)">
            <g id="Grupo_1067748" data-name="Grupo 1067748">
              <g id="Grupo_1067745" data-name="Grupo 1067745">
                <ellipse id="Elipse_4760" data-name="Elipse 4760" cx="9.424" cy="9.174" rx="9.424" ry="9.174" transform="translate(2.131 1.896)"/>
                <path id="Trazado_773527" data-name="Trazado 773527" d="M343.438,189.967a4.02,4.02,0,1,1-4.019-3.917A3.971,3.971,0,0,1,343.438,189.967Z" transform="translate(-335.4 -186.05)"/>
              </g>
              <path id="Trazado_773528" data-name="Trazado 773528" d="M356.271,201.8c-.008.039-.008.078-.016.118a6.34,6.34,0,0,1-1.919,4.2,24.088,24.088,0,0,1-1.865,1.528c-.1.078-.2.165-.29.243-.971.83-1.528,1.739-1.379,4.348a2.915,2.915,0,0,1-5.366.3,25.678,25.678,0,0,0-1.512-7.56c-.157-.454-.306-.838-.439-1.144-.251-.588-.423-.909-.423-.909s-.235-6.933.658-8.829c2.186-4.575,10.788-3.525,11.649-.023A23.841,23.841,0,0,1,356.271,201.8Z" transform="translate(-337.054 -187.132)" fill="#feae93"/>
              <path id="Trazado_773529" data-name="Trazado 773529" d="M356.217,197.028a7.56,7.56,0,0,1-4.5-4.176,7.032,7.032,0,0,1-6.275,5.641,3.631,3.631,0,0,1-2.687,3.016,11.725,11.725,0,0,1-.431-6.534,6.934,6.934,0,0,1,4.3-4.763,9.292,9.292,0,0,1,3.862-.219,6.935,6.935,0,0,1,3.337,1.034,5.4,5.4,0,0,1,1.88,2.773A16.021,16.021,0,0,1,356.217,197.028Z" transform="translate(-336.835 -186.883)"/>
              <g id="Grupo_1067746" data-name="Grupo 1067746" transform="translate(11.244 10.833)">
                <path id="Trazado_773530" data-name="Trazado 773530" d="M355.754,200.271a1.766,1.766,0,0,1,2.2-.016.355.355,0,0,1,.07.447.26.26,0,0,1-.384.078,1.245,1.245,0,0,0-.94-.251,1.447,1.447,0,0,0-.47.157c-.133.07-.259.2-.407.117a.2.2,0,0,1-.094-.086A.344.344,0,0,1,355.754,200.271Z" transform="translate(-351.032 -199.879)"/>
                <path id="Trazado_773531" data-name="Trazado 773531" d="M352.375,200.445a2.271,2.271,0,0,0-2.515.243.317.317,0,0,0,.415.478,1.62,1.62,0,0,1,1.042-.36,1.7,1.7,0,0,1,.556.1c.157.055.313.165.486.07a.384.384,0,0,0,.1-.094A.324.324,0,0,0,352.375,200.445Z" transform="translate(-349.753 -199.943)"/>
                <path id="Trazado_773532" data-name="Trazado 773532" d="M355.437,204.769a.067.067,0,0,0,.063-.055c.11-.47-.055-.619-.212-.658a.69.69,0,0,0-.556.157.073.073,0,0,0-.016.1.074.074,0,0,0,.1.016.565.565,0,0,1,.439-.133c.141.039.18.2.11.486a.072.072,0,0,0,.055.086Z" transform="translate(-350.825 -200.781)" fill="#a85d4f"/>
                <path id="Trazado_773533" data-name="Trazado 773533" d="M354.79,206.722a2.09,2.09,0,0,0,.932-.345.3.3,0,0,0-.345-.5,1.6,1.6,0,0,1-1.9-.133.3.3,0,1,0-.446.415A2.171,2.171,0,0,0,354.79,206.722Z" transform="translate(-350.444 -201.127)" fill="#c15353"/>
                <path id="Trazado_773534" data-name="Trazado 773534" d="M350.856,203.562h0a.155.155,0,0,1-.157-.141c-.016-.415.125-1.128.729-1.152a.685.685,0,0,1,.533.2,1.4,1.4,0,0,1,.321.9.16.16,0,0,1-.149.149.149.149,0,0,1-.149-.149,1.1,1.1,0,0,0-.235-.689.407.407,0,0,0-.313-.11c-.462.016-.447.83-.447.838A.134.134,0,0,1,350.856,203.562Z" transform="translate(-349.958 -200.396)"/>
                <path id="Trazado_773535" data-name="Trazado 773535" d="M356.226,203.272h0a.155.155,0,0,1-.157-.141c-.016-.415.125-1.128.729-1.152a.685.685,0,0,1,.533.2,1.4,1.4,0,0,1,.321.9.154.154,0,0,1-.149.149.149.149,0,0,1-.149-.149,1.1,1.1,0,0,0-.235-.689.407.407,0,0,0-.313-.11c-.462.016-.447.83-.447.838A.139.139,0,0,1,356.226,203.272Z" transform="translate(-351.121 -200.334)"/>
              </g>
              <g id="Grupo_1067747" data-name="Grupo 1067747" transform="translate(3.503 13.056)">
                <path id="Trazado_773536" data-name="Trazado 773536" d="M340.52,205.712a1.681,1.681,0,1,0-.212-2.624A1.882,1.882,0,0,0,340.52,205.712Z" transform="translate(-339.871 -202.716)" fill="#feae93"/>
                <path id="Trazado_773537" data-name="Trazado 773537" d="M340.952,203.659a1.274,1.274,0,0,1,1.112-.039,1.045,1.045,0,0,1,.439.306.65.65,0,0,1,.125.572.919.919,0,0,1-.282.376.841.841,0,0,0-.2.219.323.323,0,0,0,.439.431.145.145,0,0,1,.133.259.667.667,0,0,1-.243.071.59.59,0,0,1-.462-.172.632.632,0,0,1-.117-.713.96.96,0,0,1,.259-.3.672.672,0,0,0,.2-.251.348.348,0,0,0-.07-.306.5.5,0,0,0-.118-.1.6.6,0,0,0-.4.165.519.519,0,0,0-.1.423.144.144,0,0,1-.11.172h-.023a.144.144,0,0,1-.149-.11.779.779,0,0,1,.157-.666.569.569,0,0,1,.2-.157.948.948,0,0,0-.65.078.56.56,0,0,0-.243.689.145.145,0,0,1-.259.133A.86.86,0,0,1,340.952,203.659Z" transform="translate(-340.013 -202.888)" fill="#a85d4f"/>
              </g>
            </g>
          </g>
        </g>
        <g id="Grupo_1067751" data-name="Grupo 1067751" transform="translate(145.502 111.769)">
          <rect id="Rectángulo_373976" data-name="Rectángulo 373976" width="22.821" height="36.468" transform="translate(19.193)" fill="#005158"/>
          <rect id="Rectángulo_373977" data-name="Rectángulo 373977" width="33.788" height="36.468" fill="#a6c2c4"/>
          <path id="Trazado_773538" data-name="Trazado 773538" d="M366.154,335.43h-9.37a1.752,1.752,0,0,1-1.755-1.755h0a1.752,1.752,0,0,1,1.755-1.755h9.37a1.752,1.752,0,0,1,1.755,1.755h0A1.752,1.752,0,0,1,366.154,335.43Z" transform="translate(-344.579 -329.413)" fill="#005158"/>
        </g>
      </g>
    </g>
  </g>
</svg>
