<svg xmlns="http://www.w3.org/2000/svg" width="57" height="57" viewBox="0 0 57 57"><g transform="translate(-815 -15781)"><path d="M365.439,1199.853a4.525,4.525,0,0,0,4.3-4.083l.308-3.091a4.56,4.56,0,0,0-2.831-4.667l-.652-.261a9.077,9.077,0,0,0,2.852-6.054c0-1.536-.931-3.876-3.542-5.834-3.578-2.683-8.444-3.247-11.9-3.247a27.543,27.543,0,0,0-7.072,1.06c-4.879,1.464-7.457,4.237-7.457,8.021,0,3.139,1.782,6.477,5.3,9.921q.6.588,1.268,1.18a19.93,19.93,0,0,0-2.61,6.637c-1.1,4.864-1.518,11.433-1.229,19.526a.908.908,0,0,0,.907.876h4.541v6.357a.908.908,0,0,0,.908.908h14.53a.908.908,0,0,0,.907-.869c.567-13.065.091-20.54-.42-24.537a4.487,4.487,0,0,0,1.889-1.842Zm-24.17-18.157c0-2.933,2.063-5.043,6.131-6.271a26.125,26.125,0,0,1,6.583-.993c5.753,0,9.052,1.568,10.806,2.883,2.078,1.559,2.815,3.334,2.815,4.382,0,2.5-2.072,4.588-2.917,5.335a87.025,87.025,0,0,1-8.752-3.578,8.024,8.024,0,0,0,3.19-3.318,3.449,3.449,0,0,0,.267-2.334l0-.015,0-.009a.908.908,0,0,0-1.731.548v0a1.891,1.891,0,0,1-.262,1.234,7.647,7.647,0,0,1-3.408,2.936c-4.118-2.194-3.676-4.149-3.67-4.169v0a.908.908,0,0,0-1.731-.548l0,.009,0,.015a3.452,3.452,0,0,0,.266,2.334c.691,1.554,2.285,2.963,4.737,4.19a85.937,85.937,0,0,0,11,4.583l1.973.79a2.736,2.736,0,0,1,1.7,2.8l-.308,3.091a2.715,2.715,0,0,1-2.712,2.453h-.084l-7.045-4.4a.908.908,0,0,0-.962,1.54l6.531,4.083a2.719,2.719,0,0,1-3.49.8c-6.184-3.322-10.946-6.6-14.155-9.745-3.153-3.089-4.752-5.991-4.752-8.623Zm16.393-3.345,0-.013Zm-7.359,0,0-.013,0,.013Zm12.1,37.854h-3.852c.054-3.341.213-9.221.679-14.587l.085.047a4.516,4.516,0,0,0,2.139.543c.109,0,.218,0,.328-.012a118.843,118.843,0,0,1,.621,14.01Zm-4.91-15.54c-.255,2.722-.428,5.614-.544,8.275H344.055c.3-5.67,1.17-11.782,3.349-14.965A71.705,71.705,0,0,0,357.493,1200.664Zm-13.517,10.091h12.9c-.118,3.226-.154,5.925-.165,7.265H343.965c-.055-1.941-.082-4.5.011-7.265Zm5.466,14.53v-5.449h8.173a.908.908,0,0,0,.908-.908c0-.018,0-.342.006-.908h3.859c-.033,2.712-.112,5.229-.194,7.265Z" transform="translate(488.684 14608.885)" fill="#ff9696"/><rect width="57" height="57" transform="translate(815 15781)" fill="none"/></g></svg>