<svg xmlns="http://www.w3.org/2000/svg" xmlns:xlink="http://www.w3.org/1999/xlink" width="498.053" height="205.5" viewBox="0 0 498.053 205.5">
  <defs>
    <filter id="Trazado_773607" x="12.907" y="30.968" width="25.598" height="33.032" filterUnits="userSpaceOnUse">
      <feOffset dy="3" input="SourceAlpha"/>
      <feGaussianBlur stdDeviation="3" result="blur"/>
      <feFlood flood-opacity="0.161"/>
      <feComposite operator="in" in2="blur"/>
      <feComposite in="SourceGraphic"/>
    </filter>
    <filter id="Trazado_773610" x="64.587" y="143.455" width="70.633" height="33.801" filterUnits="userSpaceOnUse">
      <feOffset dy="3" input="SourceAlpha"/>
      <feGaussianBlur stdDeviation="3" result="blur-2"/>
      <feFlood flood-opacity="0.161"/>
      <feComposite operator="in" in2="blur-2"/>
      <feComposite in="SourceGraphic"/>
    </filter>
    <filter id="Trazado_773611" x="13.01" y="143.05" width="28.356" height="32.95" filterUnits="userSpaceOnUse">
      <feOffset dy="3" input="SourceAlpha"/>
      <feGaussianBlur stdDeviation="3" result="blur-3"/>
      <feFlood flood-opacity="0.161"/>
      <feComposite operator="in" in2="blur-3"/>
      <feComposite in="SourceGraphic"/>
    </filter>
  </defs>
  <g id="Grupo_1069609" data-name="Grupo 1069609" transform="translate(-550.973 -9972.906)">
    <g id="Grupo_1069608" data-name="Grupo 1069608">
      <path id="Trazado_106749" data-name="Trazado 106749" d="M1443.313,731.058H1293.377l27.219-47.144-27.219-47.144h149.937l27.219,47.144Z" transform="translate(-742.404 9447.349)" fill="#f5947a"/>
      <path id="Trazado_106750" data-name="Trazado 106750" d="M1618.988,731.058H1469.051l27.219-47.144-27.219-47.144h149.937l27.219,47.144Z" transform="translate(-757.628 9447.349)" fill="#f5947a" opacity="0.267"/>
      <path id="Trazado_106751" data-name="Trazado 106751" d="M1794.661,731.058H1644.725l27.219-47.144-27.219-47.144h149.937l27.219,47.144Z" transform="translate(-772.854 9447.349)" fill="#f5947a" opacity="0.267"/>
      <path id="Trazado_106752" data-name="Trazado 106752" d="M1443.313,609.293H1293.377l27.219-47.144L1293.377,515h149.937l27.219,47.144Z" transform="translate(-742.404 9457.901)" fill="#73d8c0"/>
      <path id="Trazado_106753" data-name="Trazado 106753" d="M1618.988,609.293H1469.051l27.219-47.144L1469.051,515h149.937l27.219,47.144Z" transform="translate(-757.628 9457.901)" fill="#baefe4" opacity="0.6"/>
      <path id="Trazado_106754" data-name="Trazado 106754" d="M1794.661,609.293H1644.725l27.219-47.144L1644.725,515h149.937l27.219,47.144Z" transform="translate(-772.854 9457.901)" fill="#baefe4" opacity="0.6"/>
      <path id="Trazado_773608" data-name="Trazado 773608" d="M23.474,0A23.474,23.474,0,1,1,0,23.474,23.474,23.474,0,0,1,23.474,0Z" transform="translate(554.982 10107.788)" fill="#935949" stroke="#fff" stroke-width="6.216"/>
      <path id="Trazado_773606" data-name="Trazado 773606" d="M23.474,0A23.474,23.474,0,1,1,0,23.474,23.474,23.474,0,0,1,23.474,0Z" transform="translate(554.982 9995.747)" fill="#075157" stroke="#fff" stroke-width="6.216"/>
      <g id="Grupo_56478" data-name="Grupo 56478" transform="translate(780.025 9987.69)">
        <path id="Trazado_106755" data-name="Trazado 106755" d="M1561.54,571.948h-16.475l1.647-36.246h13.18Z" transform="translate(-1544.241 -531.583)" fill="#86bec4"/>
        <path id="Trazado_106756" data-name="Trazado 106756" d="M1547.614,575.387h11.533a1.647,1.647,0,0,1,1.648,1.648h0a1.647,1.647,0,0,1-1.648,1.648h-11.533a1.647,1.647,0,0,1-1.647-1.648h0A1.647,1.647,0,0,1,1547.614,575.387Z" transform="translate(-1544.319 -535.022)" fill="#d6a045"/>
        <path id="Trazado_106757" data-name="Trazado 106757" d="M1550.476,532.094h6.591v3.3h-6.591Z" transform="translate(-1544.71 -531.27)" fill="#ebae48"/>
        <path id="Trazado_106758" data-name="Trazado 106758" d="M1583.187,571.948h-16.476l1.648-36.246h13.18Z" transform="translate(-1546.117 -531.583)" fill="#d4c99b"/>
        <path id="Trazado_106759" data-name="Trazado 106759" d="M1569.261,575.387h11.533a1.648,1.648,0,0,1,1.648,1.648h0a1.648,1.648,0,0,1-1.648,1.648h-11.533a1.648,1.648,0,0,1-1.648-1.648h0A1.648,1.648,0,0,1,1569.261,575.387Z" transform="translate(-1546.195 -535.022)" fill="#ebae48"/>
        <path id="Trazado_106760" data-name="Trazado 106760" d="M1572.123,532.094h6.59v3.3h-6.59Z" transform="translate(-1546.586 -531.27)" fill="#ebae48"/>
        <path id="Trazado_106761" data-name="Trazado 106761" d="M1590.182,561.858l.423,16.47-36.276-.717-.339-13.176Z" transform="translate(-1545.015 -533.85)" fill="#ffad54"/>
        <path id="Trazado_106762" data-name="Trazado 106762" d="M1593.98,575.9l-.3-11.534a1.648,1.648,0,0,1,1.6-1.69h0a1.648,1.648,0,0,1,1.691,1.6l.3,11.533a1.647,1.647,0,0,1-1.6,1.69h0A1.648,1.648,0,0,1,1593.98,575.9Z" transform="translate(-1548.454 -533.921)" fill="#ebae48"/>
        <path id="Trazado_106763" data-name="Trazado 106763" d="M1550.493,568.383l3.3-.086.172,6.59-3.3.086Z" transform="translate(-1544.712 -534.408)" fill="#ebae48"/>
        <path id="Trazado_106764" data-name="Trazado 106764" d="M1546.634,573.2a.825.825,0,0,1,.824-.824h.824v-1.648h-2.433l.127-2.773,1.827-.837-.687-1.5-1.056.484.107-2.355,4.93-2.26-.687-1.5-4.159,1.906.333-7.328,11.3,4.195.574-1.544-11.791-4.379.078-1.712.6-.275,12.571,4.67.131,2.884,1.646-.075-1.049-23.065a.824.824,0,0,0-.823-.786h-2.471v-2.471a.824.824,0,0,0-.824-.824h-6.591a.824.824,0,0,0-.824.824v2.471h-2.471a.824.824,0,0,0-.823.786l-1.647,36.246a.823.823,0,0,0,.786.86h.179a2.47,2.47,0,0,0,2.329,3.3h3.3v-1.648h-3.3a.825.825,0,0,1-.824-.824Zm.488-30.483,11.957-5.479.1,2.259-12.165,5.576Zm-.191,4.206,12.33-5.651.1,2.26-12.54,5.748Zm12.514-1.616.2,4.368-5.373-2Zm-9.988,4.579,2.7-1.236,7.572,2.813.1,2.275Zm1.3-17.05h4.943v1.648h-4.943Zm6.785,3.3-10.332,4.735.215-4.735Z" transform="translate(-1544.163 -531.192)"/>
        <path id="Trazado_106765" data-name="Trazado 106765" d="M1568.286,554.574l9.65,3.584.573-1.544-10.145-3.768.078-1.712.6-.274,12.571,4.67.057,1.237,1.646-.075-.973-21.418a.824.824,0,0,0-.823-.786h-2.472v-2.471a.824.824,0,0,0-.824-.824h-6.59a.824.824,0,0,0-.824.824v2.471h-2.471a.824.824,0,0,0-.823.786l-1.049,23.065,1.646.075Zm.539-11.853,11.956-5.479.1,2.259-12.166,5.576Zm-.191,4.206,12.33-5.651.1,2.26-12.541,5.748Zm12.514-1.616.2,4.368-5.373-2Zm-9.988,4.579,2.7-1.236,7.572,2.813.1,2.275Zm1.3-17.05h4.943v1.648h-4.943Zm6.785,3.3-10.332,4.735.216-4.735Z" transform="translate(-1546.096 -531.192)"/>
        <path id="Trazado_106766" data-name="Trazado 106766" d="M1594.276,575.673l-.3-11.529a2.475,2.475,0,0,0-3.354-2.246l0-.14a.823.823,0,0,0-.844-.8l-.037,0-36.192,2.578a.824.824,0,0,0-.765.842l.064,2.471-2.471.064a.824.824,0,0,0-.8.844l.17,6.588a.824.824,0,0,0,.823.8h.022l2.47-.064.064,2.471a.824.824,0,0,0,.807.8l36.276.716h.016a.823.823,0,0,0,.824-.824v-.02l0-.143a2.451,2.451,0,0,0,.762.121h.065a2.471,2.471,0,0,0,2.408-2.534Zm-34.692-10.916,2.257-.161,6.067,12.388-2.357-.047ZM1563.7,576.9l-2.357-.047-5.784-11.811,2.256-.16Zm3.444-5.227,2.619-7.642,2.271-.162-3.585,10.467Zm-1.025-2.092-2.5-5.112,4.361-.311Zm3.355,6.848,4.345-12.687,2.271-.162-4.613,13.474-1.713-.034Zm6.721-8.068,4.345,8.872-7.334-.144Zm.755-2.2.926-2.7.082-.006,6.792,13.869-2.358-.047Zm2.78-2.836,2.257-.16,6.973,14.238-2.357-.047Zm9.57,11.026-5.54-11.313,5.24-.373Zm-37.928-.869-.127-4.941,1.647-.043.127,4.941Zm3.12-6.867,5,10.206-4.739-.093ZM1592.4,576.3a.823.823,0,0,1-1.42-.546l-.3-11.529a.825.825,0,0,1,.8-.845h.022a.824.824,0,0,1,.823.8l.3,11.529a.823.823,0,0,1-.226.588Z" transform="translate(-1544.632 -533.771)"/>
      </g>
      <g id="Grupo_56480" data-name="Grupo 56480" transform="translate(940.898 9986.335)">
        <path id="Trazado_106767" data-name="Trazado 106767" d="M1747.073,546.745h11.114v14.819h-11.114Z" transform="translate(-1722.621 -531.185)" fill="#2ea5c5"/>
        <path id="Trazado_106768" data-name="Trazado 106768" d="M1747.073,538.632h11.114v7.41h-11.114Z" transform="translate(-1722.621 -530.481)" fill="#057998"/>
        <g id="Grupo_56479" data-name="Grupo 56479" transform="translate(6.668 40.753)">
          <path id="Trazado_106769" data-name="Trazado 106769" d="M1727.6,574.328h1.482v2.964H1727.6Z" transform="translate(-1727.602 -574.328)" fill="#fdc01e"/>
          <path id="Trazado_106770" data-name="Trazado 106770" d="M1730.847,574.328h1.482v2.964h-1.482Z" transform="translate(-1727.883 -574.328)" fill="#fdc01e"/>
          <path id="Trazado_106771" data-name="Trazado 106771" d="M1734.092,574.328h1.482v2.964h-1.482Z" transform="translate(-1728.165 -574.328)" fill="#fdc01e"/>
          <path id="Trazado_106772" data-name="Trazado 106772" d="M1737.337,574.328h1.482v2.964h-1.482Z" transform="translate(-1728.446 -574.328)" fill="#fdc01e"/>
          <path id="Trazado_106773" data-name="Trazado 106773" d="M1740.583,574.328h1.481v2.964h-1.481Z" transform="translate(-1728.727 -574.328)" fill="#fdc01e"/>
          <path id="Trazado_106774" data-name="Trazado 106774" d="M1743.828,574.328h1.481v2.964h-1.481Z" transform="translate(-1729.008 -574.328)" fill="#fdc01e"/>
          <path id="Trazado_106775" data-name="Trazado 106775" d="M1747.073,574.328h1.481v2.964h-1.481Z" transform="translate(-1729.29 -574.328)" fill="#fdc01e"/>
          <path id="Trazado_106776" data-name="Trazado 106776" d="M1750.318,574.328h1.481v2.964h-1.481Z" transform="translate(-1729.571 -574.328)" fill="#fdc01e"/>
        </g>
        <path id="Trazado_106777" data-name="Trazado 106777" d="M1728.522,556.869h-5.927c-.819,0-1.482-.995-1.482-2.222s.663-2.223,1.482-2.223h5.927Z" transform="translate(-1720.371 -531.677)" fill="#ebae48"/>
        <path id="Trazado_106778" data-name="Trazado 106778" d="M1728.522,540.644h-5.927c-.819,0-1.482-1-1.482-2.223s.663-2.223,1.482-2.223h5.927Z" transform="translate(-1720.371 -530.27)" fill="#ebae48"/>
        <path id="Trazado_106779" data-name="Trazado 106779" d="M1751.172,537.929v33.343H1725.98V537.929c0-4.092,2.322-7.41,5.187-7.41h25.192Z" transform="translate(-1720.793 -529.778)" fill="#0093b9"/>
        <path id="Trazado_106780" data-name="Trazado 106780" d="M1763.7,556.377c-.66,3.007-2.627,5.187-4.949,5.187-2.865,0-5.187-3.317-5.187-7.409s2.322-7.41,5.187-7.41c2.322,0,4.288,2.18,4.949,5.187Z" transform="translate(-1723.184 -531.185)" fill="#5db9d3"/>
        <path id="Trazado_106781" data-name="Trazado 106781" d="M1765.91,556.869h-5.187c-.818,0-1.481-.995-1.481-2.222s.663-2.223,1.481-2.223h5.187Z" transform="translate(-1723.676 -531.677)" fill="#ebae48"/>
        <path id="Trazado_106782" data-name="Trazado 106782" d="M1725.98,567.838h25.193V570.8H1725.98Z" transform="translate(-1720.793 -533.013)" fill="#fdc01e"/>
        <path id="Trazado_106783" data-name="Trazado 106783" d="M1725.98,571.083h25.193v3.7H1725.98Z" transform="translate(-1720.793 -533.294)" fill="#f79726"/>
        <ellipse id="Elipse_4116" data-name="Elipse 4116" cx="1.482" cy="2.223" rx="1.482" ry="2.223" transform="translate(40.753 20.747)" fill="#cf8a29"/>
        <path id="Trazado_106784" data-name="Trazado 106784" d="M1763.7,540.152c-.66,3.007-2.627,5.187-4.949,5.187-2.865,0-5.187-3.318-5.187-7.41s2.322-7.41,5.187-7.41c2.322,0,4.288,2.181,4.949,5.187Z" transform="translate(-1723.184 -529.778)" fill="#0085aa"/>
        <path id="Trazado_106785" data-name="Trazado 106785" d="M1765.91,540.644h-5.187c-.818,0-1.481-1-1.481-2.223s.663-2.223,1.481-2.223h5.187Z" transform="translate(-1723.676 -530.27)" fill="#ebae48"/>
        <ellipse id="Elipse_4117" data-name="Elipse 4117" cx="1.482" cy="2.223" rx="1.482" ry="2.223" transform="translate(40.753 5.928)" fill="#cf8a29"/>
        <path id="Trazado_106786" data-name="Trazado 106786" d="M1762.535,549.714h-1.142a7.551,7.551,0,0,0-3.036-4.445,7.554,7.554,0,0,0,3.036-4.446h1.142c1.247,0,2.223-1.3,2.223-2.964s-.976-2.964-2.223-2.964h-1.142c-.876-3.126-3.043-5.187-5.527-5.187h-25.192a5.257,5.257,0,0,0-4.275,2.486,8.929,8.929,0,0,0-1.252,2.7h-2.623c-1.247,0-2.223,1.3-2.223,2.964s.976,2.964,2.223,2.964h2.222v8.891h-2.222c-1.247,0-2.223,1.3-2.223,2.965s.976,2.964,2.223,2.964h2.222V571.2a.742.742,0,0,0,.742.742h1.481v1.481h1.482v-1.481h1.482v1.481h1.482v-1.481h1.482v1.481h1.482v-1.481h1.481v1.481h1.482v-1.481h1.482v1.481h1.481v-1.481h1.482v1.481h1.481v-1.481h1.482v1.481h1.481v-1.481h1.482v1.481h1.481v-1.481h1.482a.741.741,0,0,0,.741-.742V560.829h4.446c2.484,0,4.651-2.06,5.527-5.187h1.142c1.247,0,2.223-1.3,2.223-2.964S1763.782,549.714,1762.535,549.714Zm-5.187,4.446c-.3,0-.741-.577-.741-1.481s.439-1.482.741-1.482h3.253a3.942,3.942,0,0,0,0,2.964Zm3.253-17.783a3.942,3.942,0,0,0,0,2.964h-3.253c-.3,0-.741-.577-.741-1.482s.439-1.481.741-1.481Zm2.675,1.481c0,.905-.439,1.482-.742,1.482s-.741-.577-.741-1.482.438-1.481.741-1.481S1763.277,536.954,1763.277,537.859Zm-3.435-2.964h-2.493c-1.246,0-2.222,1.3-2.222,2.964s.976,2.964,2.222,2.964h2.493c-.747,2.221-2.3,3.705-3.975,3.705a3.824,3.824,0,0,1-3.061-1.855,9.057,9.057,0,0,1,0-9.628,3.825,3.825,0,0,1,3.061-1.854C1757.541,531.19,1759.095,532.674,1759.842,534.895Zm-8.421,8.372c.056.087.112.173.171.257a7.094,7.094,0,0,0,.851,1h-1.022Zm0,2.743h1.022a7.093,7.093,0,0,0-.851,1c-.059.084-.115.17-.171.257Zm-23.807-12.965a3.825,3.825,0,0,1,3.061-1.854h21.768a7.036,7.036,0,0,0-.851,1,9.939,9.939,0,0,0-1.652,5.664v25.934h-23.711V537.859A8.448,8.448,0,0,1,1727.614,533.044Zm-1.385,32.23h23.711v1.482h-23.711Zm-3.7-25.933c-.3,0-.742-.577-.742-1.482s.439-1.481.742-1.481h2.32a11.308,11.308,0,0,0-.1,1.481v1.482Zm0,14.819c-.3,0-.742-.577-.742-1.481s.439-1.482.742-1.482h2.222v2.964Zm3.7,16.3v-2.223h23.711v2.223Zm25.193-11.114v-1.261c.056.087.112.173.171.257a7.046,7.046,0,0,0,.851,1Zm4.446,0a3.825,3.825,0,0,1-3.061-1.854,9.058,9.058,0,0,1,0-9.629,3.825,3.825,0,0,1,3.061-1.854c1.674,0,3.228,1.484,3.975,3.7h-2.493c-1.246,0-2.222,1.3-2.222,2.965s.976,2.964,2.222,2.964h2.493C1759.095,557.862,1757.541,559.347,1755.867,559.347Zm6.668-5.187c-.3,0-.741-.577-.741-1.481s.438-1.482.741-1.482.742.577.742,1.482S1762.838,554.16,1762.535,554.16Z" transform="translate(-1720.301 -529.708)"/>
      </g>
      <g id="Grupo_56481" data-name="Grupo 56481" transform="translate(937.055 10093.729)">
        <path id="Trazado_106787" data-name="Trazado 106787" d="M1766.524,659.383H1770a1.738,1.738,0,0,1,1.738,1.738v5.214a1.738,1.738,0,0,1-1.738,1.738h-3.476Z" transform="translate(-1720.464 -648.34)" fill="#b3b2b3"/>
        <path id="Trazado_106788" data-name="Trazado 106788" d="M1717.045,690.783h46.929v4.346a1.738,1.738,0,0,1-1.738,1.738h-43.453a1.738,1.738,0,0,1-1.738-1.738v-4.346Z" transform="translate(-1716.175 -651.061)" fill="#b3b2b3"/>
        <path id="Trazado_106789" data-name="Trazado 106789" d="M1763.974,690.174V655.412a1.738,1.738,0,0,0-1.738-1.738h-36.5a1.738,1.738,0,0,0-1.738,1.738v13.906a1.738,1.738,0,0,0,1.738,1.738h8.69l7.822-7.822h7.822v19.988h-33.024v6.952Z" transform="translate(-1716.175 -647.845)" fill="#ff9696"/>
        <path id="Trazado_106790" data-name="Trazado 106790" d="M1753.2,664.141h13.9v14.774h-13.9Z" transform="translate(-1719.309 -648.752)" fill="#cbcbca"/>
        <path id="Trazado_106791" data-name="Trazado 106791" d="M1757.009,667.947h6.952v4.346h-6.952Z" transform="translate(-1719.639 -649.082)" fill="#fdc01e"/>
        <path id="Trazado_106792" data-name="Trazado 106792" d="M1763.669,688.88h1.738v1.738h-1.738Z" transform="translate(-1720.216 -650.896)"/>
        <path id="Trazado_106793" data-name="Trazado 106793" d="M1756.927,673.079h6.952a.869.869,0,0,0,.869-.869v-4.346a.869.869,0,0,0-.869-.87h-6.952a.869.869,0,0,0-.87.87v4.346A.869.869,0,0,0,1756.927,673.079Zm.869-4.346h5.214v2.608H1757.8Z" transform="translate(-1719.557 -649)"/>
        <path id="Trazado_106794" data-name="Trazado 106794" d="M1756.057,675.559h1.738V677.3h-1.738Z" transform="translate(-1719.557 -649.742)"/>
        <path id="Trazado_106795" data-name="Trazado 106795" d="M1759.863,675.559h1.738V677.3h-1.738Z" transform="translate(-1719.886 -649.742)"/>
        <path id="Trazado_106796" data-name="Trazado 106796" d="M1763.669,675.559h1.738V677.3h-1.738Z" transform="translate(-1720.216 -649.742)"/>
        <path id="Trazado_106797" data-name="Trazado 106797" d="M1727.512,656.529h1.738v1.738h-1.738Z" transform="translate(-1717.083 -648.093)"/>
        <path id="Trazado_106798" data-name="Trazado 106798" d="M1765.63,657.467h-.869v-2.608a2.608,2.608,0,0,0-2.607-2.607h-1.738v-1.738h-1.738v1.738h-19.988v-1.738h-1.738v1.738h-1.738v-1.738a.87.87,0,0,0-.255-.615l-2.608-2.608-1.228,1.229,2.353,2.353v1.378h-7.822a2.61,2.61,0,0,0-2.608,2.607v13.906a2.611,2.611,0,0,0,2.608,2.607v2.608a.869.869,0,0,0,.869.869h2.607v4.346h1.738v-4.346h2.608v-1.738h-2.608v-1.738h3.476a.866.866,0,0,0,.615-.255l7.567-7.567h6.593V681.8h-32.155a.869.869,0,0,0-.87.87v8.69a2.611,2.611,0,0,0,2.608,2.608h43.453a2.609,2.609,0,0,0,2.607-2.608V667.895h.869a2.611,2.611,0,0,0,2.608-2.608v-5.214A2.609,2.609,0,0,0,1765.63,657.467Zm-2.608,19.119h-12.166V663.549h12.166Zm-26.071-22.595v12.675l-1.738,1.738V653.99Zm-12.167,14.774V654.859a.87.87,0,0,1,.87-.869h7.822v15.643h-7.822A.871.871,0,0,1,1724.783,668.764Zm4.346,4.345h-1.738v-1.738h1.738Zm13.036-11.3a.873.873,0,0,0-.615.255l-2.861,2.861V653.99h23.464a.869.869,0,0,1,.869.869v6.952Zm7.822,21.726a.869.869,0,0,0,.869-.869v-4.346h12.166v10.429h-19.988v-3.477H1741.3v3.477h-2.607v-1.739h-1.738v1.739h-2.608v-1.739h-1.738v1.739H1730v-3.477h-1.738v3.477h-2.608v-1.739h-1.738v1.739h-2.608v-1.739h-1.738v1.739h-1.738v-5.215Zm13.035,7.822a.87.87,0,0,1-.869.869H1718.7a.872.872,0,0,1-.87-.869v-.869h45.191Zm3.477-26.072a.871.871,0,0,1-.87.87h-.869V659.2h.869a.87.87,0,0,1,.87.869Z" transform="translate(-1716.093 -647.292)"/>
      </g>
      <g id="Grupo_56482" data-name="Grupo 56482" transform="translate(775.59 10099.512)">
        <path id="Trazado_106799" data-name="Trazado 106799" d="M1589.493,656.827h6.826v3.9h-6.826Z" transform="translate(-1543.656 -653.902)" fill="#057998"/>
        <path id="Trazado_106800" data-name="Trazado 106800" d="M1569.2,663.234h7.8v4.876h-7.8Z" transform="translate(-1541.898 -654.457)" fill="#5db9d3"/>
        <path id="Trazado_106801" data-name="Trazado 106801" d="M1540.375,676.93h0a1.951,1.951,0,0,1,1.95-1.951h36.084a1.951,1.951,0,0,1,1.951,1.951h0a1.951,1.951,0,0,1-1.951,1.951h-36.084A1.95,1.95,0,0,1,1540.375,676.93Z" transform="translate(-1539.4 -655.475)" fill="#cbcbca"/>
        <path id="Trazado_106802" data-name="Trazado 106802" d="M1559.589,654.692a9.751,9.751,0,0,0-8.246,4.545l-8.833,13.984h36.084l.059-.233a9.993,9.993,0,0,1,9.694-7.569V654.692Zm24.857,5.954a2.019,2.019,0,0,1-1.281,1.87,13.871,13.871,0,0,0-5.394,3.879h-13.814a3.463,3.463,0,0,1-2.58-5.772,6.1,6.1,0,0,1,4.539-2.029h16.525a2,2,0,0,1,2,2Z" transform="translate(-1539.585 -653.717)" fill="#f7f1d7"/>
        <path id="Trazado_106803" data-name="Trazado 106803" d="M1561.518,665.021a4.389,4.389,0,0,0,4.052,2.627h13.814a.975.975,0,0,0,.744-.343,12.923,12.923,0,0,1,5.013-3.606,2.984,2.984,0,0,0,1.893-2.775v-.048a2.983,2.983,0,0,0-2.979-2.98h-16.526a7.077,7.077,0,0,0-5.266,2.355,4.387,4.387,0,0,0-.744,4.771Zm13.812.676h-5.851v-1.95h5.851Zm-11.615-4.147a5.129,5.129,0,0,1,3.813-1.705h16.526a1.03,1.03,0,0,1,1.029,1.029v.049a1.041,1.041,0,0,1-.669.964,14.907,14.907,0,0,0-5.472,3.81h-1.661v-2.925a.975.975,0,0,0-.975-.975h-7.8a.975.975,0,0,0-.975.975V665.7h-1.959a2.488,2.488,0,0,1-1.854-4.147Z" transform="translate(-1541.198 -653.994)"/>
        <path id="Trazado_106804" data-name="Trazado 106804" d="M1552.12,669.641h1.951v1.95h-1.951Z" transform="translate(-1540.417 -655.012)"/>
        <path id="Trazado_106805" data-name="Trazado 106805" d="M1556.392,669.641h1.95v1.95h-1.95Z" transform="translate(-1540.788 -655.012)"/>
        <path id="Trazado_106806" data-name="Trazado 106806" d="M1592.945,657.608v-1.059a.975.975,0,0,0-.975-.976h-2.925V654.6a.975.975,0,0,0-.975-.975h-28.758a10.674,10.674,0,0,0-9.069,5l-8.582,13.588a2.925,2.925,0,0,0,.573,5.794h36.084a2.925,2.925,0,0,0,1.215-5.586,9,9,0,0,1,8.538-6.117.975.975,0,0,0,.975-.975v-3.9h2.925a.975.975,0,0,0,.975-.975V659.6a3.908,3.908,0,0,1,2.926,3.778v15.6a3.905,3.905,0,0,1-3.9,3.9h-39.01a2.926,2.926,0,0,0,0,5.852h21.455v-1.951H1552.96a.975.975,0,1,1,0-1.95h39.01a5.858,5.858,0,0,0,5.852-5.852v-15.6A5.859,5.859,0,0,0,1592.945,657.608Zm-14.629,18.447h-36.084a.975.975,0,0,1,0-1.951h36.084a.975.975,0,1,1,0,1.951Zm8.777-11.661a10.948,10.948,0,0,0-9.525,7.76H1544l7.887-12.489a8.735,8.735,0,0,1,7.422-4.091h27.783Zm3.9-4.919h-1.951v-1.95H1591Z" transform="translate(-1539.307 -653.624)"/>
        <path id="Trazado_106807" data-name="Trazado 106807" d="M1579.883,689.928h1.95v1.951h-1.95Z" transform="translate(-1542.824 -656.77)"/>
      </g>
      <g transform="matrix(1, 0, 0, 1, 550.97, 9972.91)" filter="url(#Trazado_773607)">
        <path id="Trazado_773607-2" data-name="Trazado 773607" d="M4.05,0V-10.582a6.452,6.452,0,0,1-1.487.641A10.243,10.243,0,0,1,.82-9.618V-12.9A11.518,11.518,0,0,0,3.4-13.643a13.308,13.308,0,0,0,2.446-1.389H8.418V0Z" transform="translate(21.09 52)" fill="#fff"/>
      </g>
      <path id="Trazado_773609" data-name="Trazado 773609" d="M5.875-11.238v2.646h4.368v3.466H5.875V0H1.446V-14.7h9.218v3.466ZM17.032-13.33a1.876,1.876,0,0,1-.672,1.5,2.628,2.628,0,0,1-1.769.574,2.563,2.563,0,0,1-1.748-.595,1.881,1.881,0,0,1-.682-1.477,1.821,1.821,0,0,1,.661-1.461,2.65,2.65,0,0,1,1.769-.559,2.675,2.675,0,0,1,1.769.559A1.81,1.81,0,0,1,17.032-13.33ZM12.407,0V-10.5h4.368V0ZM30.721-5.568a7.684,7.684,0,0,1-.569,3.051A4.638,4.638,0,0,1,28.537-.467a4.067,4.067,0,0,1-2.369.723A3.739,3.739,0,0,1,24.43-.118a3.13,3.13,0,0,1-1.143-.969h-.041V0H18.877V-15.545h4.368v6.47h.041a3.6,3.6,0,0,1,1.389-1.23,4.161,4.161,0,0,1,1.933-.451,3.683,3.683,0,0,1,3.051,1.323A6.066,6.066,0,0,1,30.721-5.568Zm-4.43.133a2.606,2.606,0,0,0-.405-1.589,1.374,1.374,0,0,0-1.164-.533A1.37,1.37,0,0,0,23.61-7a2.255,2.255,0,0,0-.446,1.451v.636a2.338,2.338,0,0,0,.4,1.436,1.277,1.277,0,0,0,1.077.533,1.379,1.379,0,0,0,1.22-.651A3.324,3.324,0,0,0,26.291-5.435ZM40.257-6.757a3.4,3.4,0,0,0-.667-.205,3.373,3.373,0,0,0-.7-.092q-2.164,0-2.164,2.5V0H32.361V-10.5h4.368v1.846h.041a3.279,3.279,0,0,1,1.138-1.512,2.924,2.924,0,0,1,1.723-.518,1.48,1.48,0,0,1,.625.123ZM47.342,0V-1.6H47.3A3.435,3.435,0,0,1,44.1.256a3.063,3.063,0,0,1-2.328-.882,3.276,3.276,0,0,1-.841-2.358q0-3.1,3.8-3.589l2.6-.338a.993.993,0,0,0-.461-.841A2.1,2.1,0,0,0,45.64-8.08a8.172,8.172,0,0,0-3.722,1v-2.84a9.958,9.958,0,0,1,2.133-.6,12.413,12.413,0,0,1,2.194-.236,5.509,5.509,0,0,1,3.881,1.143,5.1,5.1,0,0,1,1.2,3.82V0ZM44.758-3.568a.968.968,0,0,0,.272.708,1.036,1.036,0,0,0,.774.277A1.377,1.377,0,0,0,46.917-3.1a1.986,1.986,0,0,0,.426-1.312v-.4L45.866-4.6Q44.758-4.419,44.758-3.568Zm17.073.082A3.207,3.207,0,0,1,60.472-.723a6.386,6.386,0,0,1-3.789.979A13.173,13.173,0,0,1,54.935.113a10.8,10.8,0,0,1-1.7-.349V-3.3a8.356,8.356,0,0,0,3.24.861q1.282,0,1.282-.667a.526.526,0,0,0-.3-.456,10.511,10.511,0,0,0-1.559-.6,4.4,4.4,0,0,1-2.03-1.169,2.779,2.779,0,0,1-.636-1.9,3.027,3.027,0,0,1,1.3-2.579,6.085,6.085,0,0,1,3.645-.948,11.587,11.587,0,0,1,2.912.4v2.943a8.807,8.807,0,0,0-1.415-.461,5.715,5.715,0,0,0-1.292-.185,1.406,1.406,0,0,0-.687.144.442.442,0,0,0-.256.4.558.558,0,0,0,.277.482,4.9,4.9,0,0,0,1.107.441,5.139,5.139,0,0,1,2.307,1.21A2.651,2.651,0,0,1,61.831-3.486Z" transform="translate(622 10025.906)" fill="#12263f"/>
      <g transform="matrix(1, 0, 0, 1, 550.97, 9972.91)" filter="url(#Trazado_773610)">
        <path id="Trazado_773610-2" data-name="Trazado 773610" d="M-17.878-11.238V0h-4.45V-11.238H-26.44V-14.7h12.725v3.466Zm9.29,7.229a1.476,1.476,0,0,0,.779,1.061,3.514,3.514,0,0,0,1.764.385,7.263,7.263,0,0,0,2.892-.584V-.379A10.393,10.393,0,0,1-7.009.256a6.083,6.083,0,0,1-4.276-1.4,4.99,4.99,0,0,1-1.528-3.866A6.378,6.378,0,0,1-12.141-8a4.833,4.833,0,0,1,1.989-2.025,5.877,5.877,0,0,1,2.907-.733,5.72,5.72,0,0,1,2.789.636A4.235,4.235,0,0,1-2.7-8.336,5.724,5.724,0,0,1-2.1-5.65v1.641ZM-5.963-6.3q0-1.815-1.3-1.815a1.1,1.1,0,0,0-.913.5A2.482,2.482,0,0,0-8.608-6.3ZM-.59,0V-15.545H3.779V0ZM11.7,0V-1.6h-.041A3.435,3.435,0,0,1,8.465.256,3.063,3.063,0,0,1,6.137-.625,3.276,3.276,0,0,1,5.3-2.984q0-3.1,3.8-3.589l2.6-.338a.993.993,0,0,0-.461-.841A2.1,2.1,0,0,0,10-8.08a8.172,8.172,0,0,0-3.722,1v-2.84a9.958,9.958,0,0,1,2.133-.6,12.413,12.413,0,0,1,2.194-.236,5.509,5.509,0,0,1,3.881,1.143,5.1,5.1,0,0,1,1.2,3.82V0ZM9.121-3.568a.968.968,0,0,0,.272.708,1.036,1.036,0,0,0,.774.277A1.377,1.377,0,0,0,11.279-3.1,1.986,1.986,0,0,0,11.7-4.409v-.4L10.228-4.6Q9.121-4.419,9.121-3.568Zm17.073.082A3.207,3.207,0,0,1,24.835-.723a6.386,6.386,0,0,1-3.789.979A13.173,13.173,0,0,1,19.3.113a10.8,10.8,0,0,1-1.7-.349V-3.3a8.356,8.356,0,0,0,3.24.861q1.282,0,1.282-.667a.526.526,0,0,0-.3-.456,10.511,10.511,0,0,0-1.559-.6,4.4,4.4,0,0,1-2.03-1.169,2.779,2.779,0,0,1-.636-1.9,3.027,3.027,0,0,1,1.3-2.579,6.085,6.085,0,0,1,3.645-.948,11.587,11.587,0,0,1,2.912.4v2.943a8.807,8.807,0,0,0-1.415-.461,5.715,5.715,0,0,0-1.292-.185,1.406,1.406,0,0,0-.687.144.442.442,0,0,0-.256.4.558.558,0,0,0,.277.482,4.9,4.9,0,0,0,1.107.441A5.139,5.139,0,0,1,25.5-5.383,2.651,2.651,0,0,1,26.194-3.486Z" transform="translate(100.03 165)" fill="#fff"/>
      </g>
      <g transform="matrix(1, 0, 0, 1, 550.97, 9972.91)" filter="url(#Trazado_773611)">
        <path id="Trazado_773611-2" data-name="Trazado 773611" d="M.923,0V-1.179A6.891,6.891,0,0,1,1.23-3.353,5.461,5.461,0,0,1,2.2-5.086,14.927,14.927,0,0,1,4.5-7.167,17.071,17.071,0,0,0,6.055-8.5a3.328,3.328,0,0,0,.574-.784,1.809,1.809,0,0,0,.19-.82q0-1.466-1.764-1.466a5.293,5.293,0,0,0-3.394,1.3v-3.579A10.284,10.284,0,0,1,3.943-14.7a9.614,9.614,0,0,1,2.179-.246A5.459,5.459,0,0,1,9.833-13.8a4.052,4.052,0,0,1,1.313,3.22,5.019,5.019,0,0,1-.687,2.7A8.141,8.141,0,0,1,7.906-5.578,16.893,16.893,0,0,0,6.014-4.23a1.2,1.2,0,0,0-.477.723h5.742V0Z" transform="translate(21.09 164)" fill="#fff"/>
      </g>
      <path id="Trazado_773612" data-name="Trazado 773612" d="M70.754,17H69.441V11.891h-5.8V17H62.332V5.8h1.313v4.914h5.8V5.8h1.313ZM74.176,6.969a.812.812,0,0,1-.586-.234.791.791,0,0,1-.242-.594.821.821,0,0,1,.828-.836.827.827,0,0,1,.6.238.835.835,0,0,1,0,1.184A.82.82,0,0,1,74.176,6.969ZM74.8,17H73.52V9H74.8Zm3.875,0H77.395V5.156h1.281Zm5.938.188a3.711,3.711,0,0,1-2.832-1.121,4.153,4.153,0,0,1-1.059-2.973,4.326,4.326,0,0,1,1.1-3.148A3.96,3.96,0,0,1,84.8,8.813a3.588,3.588,0,0,1,2.793,1.1,4.368,4.368,0,0,1,1,3.055,4.3,4.3,0,0,1-1.082,3.066A3.791,3.791,0,0,1,84.613,17.188Zm.094-7.3a2.437,2.437,0,0,0-1.953.84,3.449,3.449,0,0,0-.719,2.316,3.262,3.262,0,0,0,.727,2.242,2.469,2.469,0,0,0,1.945.82,2.342,2.342,0,0,0,1.91-.8,3.492,3.492,0,0,0,.668-2.289,3.552,3.552,0,0,0-.668-2.312A2.332,2.332,0,0,0,84.707,9.891Zm5.453,6.82V15.336a3.792,3.792,0,0,0,2.3.773q1.688,0,1.688-1.125a.976.976,0,0,0-.145-.543,1.44,1.44,0,0,0-.391-.395,3.007,3.007,0,0,0-.578-.309q-.332-.137-.715-.285a9.207,9.207,0,0,1-.934-.426,2.82,2.82,0,0,1-.672-.484,1.8,1.8,0,0,1-.406-.613,2.17,2.17,0,0,1-.137-.8,1.912,1.912,0,0,1,.258-1,2.286,2.286,0,0,1,.688-.727,3.206,3.206,0,0,1,.98-.441,4.349,4.349,0,0,1,1.137-.148,4.59,4.59,0,0,1,1.859.359v1.3a3.624,3.624,0,0,0-2.031-.578,2.374,2.374,0,0,0-.648.082,1.587,1.587,0,0,0-.5.23,1.065,1.065,0,0,0-.32.355.936.936,0,0,0-.113.457,1.1,1.1,0,0,0,.113.523,1.152,1.152,0,0,0,.332.375,2.538,2.538,0,0,0,.531.3q.313.133.711.289a9.9,9.9,0,0,1,.953.418,3.269,3.269,0,0,1,.719.484,1.893,1.893,0,0,1,.457.621,2,2,0,0,1,.16.836,1.971,1.971,0,0,1-.262,1.031,2.243,2.243,0,0,1-.7.727,3.2,3.2,0,0,1-1.008.43,4.976,4.976,0,0,1-1.2.141A4.539,4.539,0,0,1,90.16,16.711Z" transform="translate(716.06 10038.906)" fill="#12263f"/>
      <path id="Trazado_773613" data-name="Trazado 773613" d="M54.148,17H52.7l-1.187-3.141h-4.75L45.641,17H44.18l4.3-11.2h1.359Zm-3.07-4.32L49.32,7.906a4.571,4.571,0,0,1-.172-.75h-.031a4.185,4.185,0,0,1-.18.75L47.2,12.68Zm10,3.953a4.163,4.163,0,0,1-2.187.555,3.622,3.622,0,0,1-2.762-1.113,4.035,4.035,0,0,1-1.051-2.887,4.435,4.435,0,0,1,1.133-3.176,3.963,3.963,0,0,1,3.023-1.2,4.209,4.209,0,0,1,1.859.391v1.313a3.258,3.258,0,0,0-1.906-.625,2.576,2.576,0,0,0-2.012.879,3.335,3.335,0,0,0-.785,2.309,3.176,3.176,0,0,0,.738,2.219,2.545,2.545,0,0,0,1.98.813,3.211,3.211,0,0,0,1.969-.7ZM68.742,17H67.461V15.75H67.43a2.682,2.682,0,0,1-2.461,1.438,2.63,2.63,0,0,1-1.871-.633,2.192,2.192,0,0,1-.676-1.68q0-2.242,2.641-2.609l2.4-.336q0-2.039-1.648-2.039a3.938,3.938,0,0,0-2.609.984V9.563a4.958,4.958,0,0,1,2.719-.75q2.82,0,2.82,2.984Zm-1.281-4.047-1.93.266a3.133,3.133,0,0,0-1.344.441,1.273,1.273,0,0,0-.453,1.121,1.221,1.221,0,0,0,.418.957,1.615,1.615,0,0,0,1.113.371,2.056,2.056,0,0,0,1.574-.668,2.387,2.387,0,0,0,.621-1.691Zm5.008,2.891h-.031V17H71.156V5.156h1.281v5.25h.031a3.03,3.03,0,0,1,2.766-1.594,2.932,2.932,0,0,1,2.41,1.074,4.436,4.436,0,0,1,.871,2.879,4.959,4.959,0,0,1-.977,3.215,3.251,3.251,0,0,1-2.672,1.207A2.631,2.631,0,0,1,72.469,15.844Zm-.031-3.227v1.117a2.379,2.379,0,0,0,.645,1.684,2.3,2.3,0,0,0,3.461-.2,4.086,4.086,0,0,0,.66-2.477,3.225,3.225,0,0,0-.617-2.094,2.043,2.043,0,0,0-1.672-.758,2.27,2.27,0,0,0-1.8.777A2.854,2.854,0,0,0,72.438,12.617ZM86.289,17H85.008V15.75h-.031a2.682,2.682,0,0,1-2.461,1.438,2.63,2.63,0,0,1-1.871-.633,2.192,2.192,0,0,1-.676-1.68q0-2.242,2.641-2.609l2.4-.336q0-2.039-1.648-2.039a3.938,3.938,0,0,0-2.609.984V9.563a4.958,4.958,0,0,1,2.719-.75q2.82,0,2.82,2.984Zm-1.281-4.047-1.93.266a3.133,3.133,0,0,0-1.344.441,1.273,1.273,0,0,0-.453,1.121,1.221,1.221,0,0,0,.418.957,1.615,1.615,0,0,0,1.113.371,2.056,2.056,0,0,0,1.574-.668,2.387,2.387,0,0,0,.621-1.691ZM95.531,17H94.25V15.641h-.031a2.958,2.958,0,0,1-2.75,1.547,2.988,2.988,0,0,1-2.41-1.074,4.407,4.407,0,0,1-.9-2.926,4.794,4.794,0,0,1,1-3.18,3.3,3.3,0,0,1,2.664-1.2,2.564,2.564,0,0,1,2.4,1.3h.031V5.156h1.281ZM94.25,13.383V12.2a2.289,2.289,0,0,0-.641-1.641,2.149,2.149,0,0,0-1.625-.672,2.212,2.212,0,0,0-1.844.859,3.766,3.766,0,0,0-.672,2.375,3.387,3.387,0,0,0,.645,2.184,2.107,2.107,0,0,0,1.73.8,2.188,2.188,0,0,0,1.738-.773A2.882,2.882,0,0,0,94.25,13.383Zm7.219,3.8a3.711,3.711,0,0,1-2.832-1.121,4.153,4.153,0,0,1-1.059-2.973,4.326,4.326,0,0,1,1.1-3.148,3.96,3.96,0,0,1,2.977-1.133,3.588,3.588,0,0,1,2.793,1.1,4.368,4.368,0,0,1,1,3.055,4.3,4.3,0,0,1-1.082,3.066A3.791,3.791,0,0,1,101.469,17.188Zm.094-7.3a2.437,2.437,0,0,0-1.953.84,3.449,3.449,0,0,0-.719,2.316,3.262,3.262,0,0,0,.727,2.242,2.469,2.469,0,0,0,1.945.82,2.342,2.342,0,0,0,1.91-.8,3.492,3.492,0,0,0,.668-2.289,3.552,3.552,0,0,0-.668-2.312A2.332,2.332,0,0,0,101.563,9.891Zm5.453,6.82V15.336a3.792,3.792,0,0,0,2.3.773q1.688,0,1.688-1.125a.976.976,0,0,0-.145-.543,1.44,1.44,0,0,0-.391-.395,3.007,3.007,0,0,0-.578-.309q-.332-.137-.715-.285a9.207,9.207,0,0,1-.934-.426,2.82,2.82,0,0,1-.672-.484,1.8,1.8,0,0,1-.406-.613,2.17,2.17,0,0,1-.137-.8,1.912,1.912,0,0,1,.258-1,2.286,2.286,0,0,1,.688-.727,3.206,3.206,0,0,1,.98-.441,4.349,4.349,0,0,1,1.137-.148,4.59,4.59,0,0,1,1.859.359v1.3a3.624,3.624,0,0,0-2.031-.578,2.374,2.374,0,0,0-.648.082,1.587,1.587,0,0,0-.5.23,1.065,1.065,0,0,0-.32.355.936.936,0,0,0-.113.457,1.1,1.1,0,0,0,.113.523,1.152,1.152,0,0,0,.332.375,2.538,2.538,0,0,0,.531.3q.313.133.711.289a9.9,9.9,0,0,1,.953.418,3.269,3.269,0,0,1,.719.484,1.893,1.893,0,0,1,.457.621,2,2,0,0,1,.16.836,1.971,1.971,0,0,1-.262,1.031,2.243,2.243,0,0,1-.7.727,3.2,3.2,0,0,1-1.008.43,4.976,4.976,0,0,1-1.2.141A4.539,4.539,0,0,1,107.016,16.711Z" transform="translate(716.06 10148.906)" fill="#12263f"/>
      <path id="Trazado_773614" data-name="Trazado 773614" d="M62.332,6.984H59.1V17H57.785V6.984H54.559V5.8h7.773Zm6.453,6.336H63.137a2.992,2.992,0,0,0,.719,2.063,2.478,2.478,0,0,0,1.891.727,3.931,3.931,0,0,0,2.484-.891v1.2a4.643,4.643,0,0,1-2.789.766,3.381,3.381,0,0,1-2.664-1.09,4.461,4.461,0,0,1-.969-3.066,4.375,4.375,0,0,1,1.059-3.043A3.394,3.394,0,0,1,65.5,8.813a3.008,3.008,0,0,1,2.43,1.016,4.234,4.234,0,0,1,.859,2.82Zm-1.312-1.086a2.607,2.607,0,0,0-.535-1.727,1.823,1.823,0,0,0-1.465-.617,2.07,2.07,0,0,0-1.539.648,2.943,2.943,0,0,0-.781,1.7ZM72,16.664a5.014,5.014,0,0,1-.793,3.035,2.658,2.658,0,0,1-2.27,1.066,2.409,2.409,0,0,1-1.062-.25v-1.2a2.12,2.12,0,0,0,1.094.352q1.75,0,1.75-2.8V9H72Zm-.625-9.7a.812.812,0,0,1-.586-.234.791.791,0,0,1-.242-.594.821.821,0,0,1,.828-.836.827.827,0,0,1,.6.238.835.835,0,0,1,0,1.184A.82.82,0,0,1,71.379,6.969Zm3.875,0a.812.812,0,0,1-.586-.234.791.791,0,0,1-.242-.594.821.821,0,0,1,.828-.836.827.827,0,0,1,.6.238.835.835,0,0,1,0,1.184A.82.82,0,0,1,75.254,6.969ZM75.879,17H74.6V9h1.281ZM85.3,17H84.02V15.641h-.031a2.958,2.958,0,0,1-2.75,1.547,2.988,2.988,0,0,1-2.41-1.074,4.407,4.407,0,0,1-.9-2.926,4.794,4.794,0,0,1,1-3.18,3.3,3.3,0,0,1,2.664-1.2,2.564,2.564,0,0,1,2.4,1.3h.031V5.156H85.3ZM84.02,13.383V12.2a2.289,2.289,0,0,0-.641-1.641,2.149,2.149,0,0,0-1.625-.672,2.212,2.212,0,0,0-1.844.859,3.766,3.766,0,0,0-.672,2.375,3.387,3.387,0,0,0,.645,2.184,2.107,2.107,0,0,0,1.73.8,2.188,2.188,0,0,0,1.738-.773A2.882,2.882,0,0,0,84.02,13.383Zm7.219,3.8a3.711,3.711,0,0,1-2.832-1.121,4.153,4.153,0,0,1-1.059-2.973,4.326,4.326,0,0,1,1.1-3.148,3.96,3.96,0,0,1,2.977-1.133,3.588,3.588,0,0,1,2.793,1.1,4.368,4.368,0,0,1,1,3.055,4.3,4.3,0,0,1-1.082,3.066A3.791,3.791,0,0,1,91.238,17.188Zm.094-7.3a2.437,2.437,0,0,0-1.953.84,3.449,3.449,0,0,0-.719,2.316,3.262,3.262,0,0,0,.727,2.242,2.469,2.469,0,0,0,1.945.82,2.342,2.342,0,0,0,1.91-.8,3.492,3.492,0,0,0,.668-2.289,3.552,3.552,0,0,0-.668-2.312A2.332,2.332,0,0,0,91.332,9.891Zm5.453,6.82V15.336a3.792,3.792,0,0,0,2.3.773q1.688,0,1.688-1.125a.976.976,0,0,0-.145-.543,1.44,1.44,0,0,0-.391-.395,3.007,3.007,0,0,0-.578-.309q-.332-.137-.715-.285a9.207,9.207,0,0,1-.934-.426,2.82,2.82,0,0,1-.672-.484,1.8,1.8,0,0,1-.406-.613,2.17,2.17,0,0,1-.137-.8,1.912,1.912,0,0,1,.258-1,2.286,2.286,0,0,1,.688-.727,3.206,3.206,0,0,1,.98-.441,4.349,4.349,0,0,1,1.137-.148,4.59,4.59,0,0,1,1.859.359v1.3a3.624,3.624,0,0,0-2.031-.578,2.374,2.374,0,0,0-.648.082,1.587,1.587,0,0,0-.5.23,1.065,1.065,0,0,0-.32.355.936.936,0,0,0-.113.457,1.1,1.1,0,0,0,.113.523,1.152,1.152,0,0,0,.332.375,2.538,2.538,0,0,0,.531.3q.313.133.711.289a9.9,9.9,0,0,1,.953.418,3.269,3.269,0,0,1,.719.484,1.893,1.893,0,0,1,.457.621,2,2,0,0,1,.16.836,1.971,1.971,0,0,1-.262,1.031,2.243,2.243,0,0,1-.7.727,3.2,3.2,0,0,1-1.008.43,4.976,4.976,0,0,1-1.2.141A4.539,4.539,0,0,1,96.785,16.711Z" transform="translate(879.06 10038.906)" fill="#12263f"/>
      <path id="Trazado_773615" data-name="Trazado 773615" d="M48.2,16.531a6.571,6.571,0,0,1-3.094.656,4.989,4.989,0,0,1-3.828-1.539,5.679,5.679,0,0,1-1.437-4.039,5.952,5.952,0,0,1,1.617-4.344,5.489,5.489,0,0,1,4.1-1.656A6.576,6.576,0,0,1,48.2,6.07v1.4A5.355,5.355,0,0,0,45.539,6.8,4.076,4.076,0,0,0,42.41,8.086a4.856,4.856,0,0,0-1.2,3.445,4.621,4.621,0,0,0,1.121,3.262,3.815,3.815,0,0,0,2.941,1.215,5.518,5.518,0,0,0,2.922-.75Zm5.453.656a3.711,3.711,0,0,1-2.832-1.121,4.153,4.153,0,0,1-1.059-2.973,4.326,4.326,0,0,1,1.1-3.148,3.96,3.96,0,0,1,2.977-1.133,3.588,3.588,0,0,1,2.793,1.1,4.368,4.368,0,0,1,1,3.055,4.3,4.3,0,0,1-1.082,3.066A3.791,3.791,0,0,1,53.648,17.188Zm.094-7.3a2.437,2.437,0,0,0-1.953.84,3.449,3.449,0,0,0-.719,2.316,3.262,3.262,0,0,0,.727,2.242,2.469,2.469,0,0,0,1.945.82,2.342,2.342,0,0,0,1.91-.8,3.492,3.492,0,0,0,.668-2.289,3.552,3.552,0,0,0-.668-2.312A2.332,2.332,0,0,0,53.742,9.891ZM66.32,17H65.039V12.438q0-2.547-1.859-2.547a2.017,2.017,0,0,0-1.59.723,2.679,2.679,0,0,0-.629,1.824V17H59.68V9h1.281v1.328h.031a2.887,2.887,0,0,1,2.625-1.516,2.448,2.448,0,0,1,2.008.848,3.776,3.776,0,0,1,.7,2.449ZM72.688,6.281a1.707,1.707,0,0,0-.852-.211q-1.344,0-1.344,1.7V9h1.875v1.094H70.492V17H69.219V10.094H67.852V9h1.367V7.7a2.7,2.7,0,0,1,.727-1.988,2.453,2.453,0,0,1,1.813-.73,2.511,2.511,0,0,1,.93.141Zm7.484,7.039H74.523a2.992,2.992,0,0,0,.719,2.063,2.478,2.478,0,0,0,1.891.727,3.931,3.931,0,0,0,2.484-.891v1.2a4.643,4.643,0,0,1-2.789.766,3.381,3.381,0,0,1-2.664-1.09,4.461,4.461,0,0,1-.969-3.066,4.375,4.375,0,0,1,1.059-3.043,3.394,3.394,0,0,1,2.629-1.176,3.008,3.008,0,0,1,2.43,1.016,4.234,4.234,0,0,1,.859,2.82Zm-1.312-1.086a2.607,2.607,0,0,0-.535-1.727,1.823,1.823,0,0,0-1.465-.617,2.07,2.07,0,0,0-1.539.648,2.943,2.943,0,0,0-.781,1.7Zm8.7,4.4a4.163,4.163,0,0,1-2.187.555,3.622,3.622,0,0,1-2.762-1.113,4.035,4.035,0,0,1-1.051-2.887A4.435,4.435,0,0,1,82.7,10.012a3.963,3.963,0,0,1,3.023-1.2,4.209,4.209,0,0,1,1.859.391v1.313a3.258,3.258,0,0,0-1.906-.625,2.576,2.576,0,0,0-2.012.879,3.335,3.335,0,0,0-.785,2.309,3.176,3.176,0,0,0,.738,2.219,2.545,2.545,0,0,0,1.98.813,3.211,3.211,0,0,0,1.969-.7Zm7.391,0a4.163,4.163,0,0,1-2.187.555A3.622,3.622,0,0,1,90,16.074a4.035,4.035,0,0,1-1.051-2.887,4.435,4.435,0,0,1,1.133-3.176,3.963,3.963,0,0,1,3.023-1.2,4.209,4.209,0,0,1,1.859.391v1.313a3.258,3.258,0,0,0-1.906-.625,2.576,2.576,0,0,0-2.012.879,3.335,3.335,0,0,0-.785,2.309A3.176,3.176,0,0,0,91,15.3a2.545,2.545,0,0,0,1.98.813,3.211,3.211,0,0,0,1.969-.7Zm2.594-9.664a.812.812,0,0,1-.586-.234.791.791,0,0,1-.242-.594.821.821,0,0,1,.828-.836.827.827,0,0,1,.6.238.835.835,0,0,1,0,1.184A.82.82,0,0,1,97.547,6.969ZM98.172,17H96.891V9h1.281Zm5.938.188a3.711,3.711,0,0,1-2.832-1.121,4.153,4.153,0,0,1-1.059-2.973,4.326,4.326,0,0,1,1.1-3.148A3.96,3.96,0,0,1,104.3,8.813a3.588,3.588,0,0,1,2.793,1.1,4.368,4.368,0,0,1,1,3.055,4.3,4.3,0,0,1-1.082,3.066A3.791,3.791,0,0,1,104.109,17.188Zm.094-7.3a2.437,2.437,0,0,0-1.953.84,3.449,3.449,0,0,0-.719,2.316,3.262,3.262,0,0,0,.727,2.242,2.469,2.469,0,0,0,1.945.82,2.342,2.342,0,0,0,1.91-.8,3.492,3.492,0,0,0,.668-2.289,3.552,3.552,0,0,0-.668-2.312A2.332,2.332,0,0,0,104.2,9.891Zm1.875-4.969-2.047,2.563h-.992l1.742-2.562ZM116.781,17H115.5V12.438q0-2.547-1.859-2.547a2.017,2.017,0,0,0-1.59.723,2.679,2.679,0,0,0-.629,1.824V17h-1.281V9h1.281v1.328h.031a2.887,2.887,0,0,1,2.625-1.516,2.448,2.448,0,0,1,2.008.848,3.776,3.776,0,0,1,.7,2.449Z" transform="translate(879.06 10148.906)" fill="#12263f"/>
    </g>
  </g>
</svg>
