<svg xmlns="http://www.w3.org/2000/svg" width="57" height="57" viewBox="0 0 57 57"><g transform="translate(-591 -15072)"><g transform="translate(600.738 15073)"><path d="M303.748,1197.363c-3.141-2.792-4.38-6.939-3.681-12.326a28.731,28.731,0,0,1,2.085-7.5.908.908,0,0,0-.417-1.2l-7.265-3.633a.916.916,0,0,0-.406-.1H277.718a.916.916,0,0,0-.406.1l-7.265,3.633a.908.908,0,0,0-.417,1.2c.061.13,5.983,13.087-1.6,19.824a.905.905,0,0,0-.306.678v19.979a.906.906,0,0,0,.333.7l9.989,8.173a.908.908,0,0,0,1.217-.06l6.623-6.624,6.623,6.624a.907.907,0,0,0,1.216.06l9.99-8.173a.906.906,0,0,0,.333-.7v-19.979A.905.905,0,0,0,303.748,1197.363Zm-17.856-6.752c-3.416-2.345-5.38-8.3-6.386-12.548h12.774c-.218.917-.48,1.915-.793,2.937C290.021,1185.785,288.094,1189.09,285.892,1190.612Zm6.785-14.365h-13.57c-.145-.722-.254-1.342-.333-1.816h14.236C292.932,1174.906,292.822,1175.525,292.676,1176.247Zm-23.131,32.692h5.449v1.816h-5.449Zm9.02,16.031-9.02-7.381v-5.018H275.9a.907.907,0,0,0,.908-.908v-3.633a.908.908,0,0,0-.908-.908h-6.357v-8.681c3.356-3.18,4.727-7.9,3.966-13.685a30.833,30.833,0,0,0-1.888-7.17l5.382-2.691c.569,3.437,2.52,12.871,7.274,16.774l-1.616,1.077a.91.91,0,0,0-.4.756v22.7a.909.909,0,0,0,.266.641l2.083,2.083Zm14.652,0-6.684-6.684-2.458-2.458v-21.84l2.306-1.538c5.575-3.231,7.785-13.861,8.4-17.554l5.382,2.691a30.785,30.785,0,0,0-1.887,7.17c-.761,5.784.609,10.5,3.965,13.685v8.681H295.88a.908.908,0,0,0-.908.908v3.633a.907.907,0,0,0,.908.908h6.357v5.018Zm9.02-16.031v1.816h-5.449v-1.816Z" transform="translate(-267.729 -1172.615)" fill="#ff9696"/><ellipse cx="0.908" cy="0.908" rx="0.908" ry="0.908" transform="translate(18.162 23.611)" fill="#ff9696"/><ellipse cx="0.908" cy="0.908" rx="0.908" ry="0.908" transform="translate(18.162 30.875)" fill="#ff9696"/><ellipse cx="0.908" cy="0.908" rx="0.908" ry="0.908" transform="translate(18.162 38.14)" fill="#ff9696"/></g><rect width="57" height="57" transform="translate(591 15072)" fill="none"/></g></svg>