<svg xmlns="http://www.w3.org/2000/svg" width="60" height="60" viewBox="0 0 60 60">
  <g id="Grupo_1069605" data-name="Grupo 1069605" transform="translate(-185.805 -7018)">
    <path id="Trazado_773428" data-name="Trazado 773428" d="M30,0A30,30,0,1,1,0,30,30,30,0,0,1,30,0Z" transform="translate(185.805 7018)" fill="#f5947a"/>
    <path id="Trazado_773593" data-name="Trazado 773593" d="M17.7,31.429a17.755,17.755,0,0,1-6.021.938,12.252,12.252,0,0,1-5.786-1.282,8.776,8.776,0,0,1-3.713-3.647A11.275,11.275,0,0,1,.894,21.98a12.012,12.012,0,0,1,1.436-5.918,9.928,9.928,0,0,1,4.058-4.006,12.519,12.519,0,0,1,6.035-1.414A20.977,20.977,0,0,1,17.7,11.3v5.845a7.442,7.442,0,0,0-2.095-.82,10.469,10.469,0,0,0-2.461-.293,5.508,5.508,0,0,0-4.065,1.479,5.408,5.408,0,0,0-1.487,4.014A5.314,5.314,0,0,0,9.075,25.5a5.436,5.436,0,0,0,3.977,1.458A10.318,10.318,0,0,0,17.7,25.789Z" transform="translate(206.805 7029)" fill="#12263f"/>
  </g>
</svg>
