<svg xmlns="http://www.w3.org/2000/svg" width="57" height="57" viewBox="0 0 57 57"><g transform="translate(-368 -14372)"><g transform="translate(374.204 14373)"><ellipse cx="0.908" cy="0.908" rx="0.908" ry="0.908" transform="translate(23.59 32.692)" fill="#ff9696"/><ellipse cx="0.908" cy="0.908" rx="0.908" ry="0.908" transform="translate(23.61 39.956)" fill="#ff9696"/><path d="M222.634,1178.662a.91.91,0,0,0-.619-.605l-10.211-2.919-1.032-2.063a.905.905,0,0,0-.812-.5v0H197.248v0a.9.9,0,0,0-.812.5l-1.032,2.063-10.211,2.919a.908.908,0,0,0-.619.605,68.6,68.6,0,0,0-1.848,9.794A254.718,254.718,0,0,0,180.9,1220.7a.907.907,0,0,0,.908.908h5.55l-.1.8a.907.907,0,0,0,.321.807c5.68,4.734,13.954,3.876,14.3,3.837a.909.909,0,0,0,.762-.615l.955-2.864.954,2.864a.907.907,0,0,0,.761.615,18.321,18.321,0,0,0,1.895.084c2.844,0,8.3-.5,12.408-3.921a.91.91,0,0,0,.321-.806l-.1-.8h5.55a.907.907,0,0,0,.908-.908,254.72,254.72,0,0,0-1.824-32.246A68.6,68.6,0,0,0,222.634,1178.662Zm-12.435-2.674,2.983,5.967-2.534.634a.909.909,0,0,0-.66,1.1.925.925,0,0,0,.125.284l1.48,2.22-7.377,11.067Zm-1.948.217h-9.3l-.51-1.817h10.316Zm-.511,1.816-4.136,14.706-4.137-14.706Zm-10.732-2.033,5.652,20.094-.135.479-6.911-10.367,1.48-2.221a.907.907,0,0,0-.535-1.384l-2.534-.634Zm-14.29,43.806c.05-19.925,1.737-31.67,2.781-37.045l4.469,17.13-2.39,19.915Zm7.561-7.265h5.151v1.816h-5.368Zm10.838,12.759c-1.839.092-7.734.1-11.99-3.163l.158-1.315.559-4.648h6.5a.909.909,0,0,0,.908-.909v-3.632a.908.908,0,0,0-.908-.908H190.5l1.294-10.789a.9.9,0,0,0-.023-.338l-5.225-20.028,7.757-2.216-2.407,4.813a.909.909,0,0,0,.406,1.218.958.958,0,0,0,.186.068l2.382.6-1.1,1.652a.906.906,0,0,0,0,1.008l8.11,12.167-.965,3.43a.892.892,0,0,0-.034.246h0v13.622a.894.894,0,0,0,.065.337l1.693,4.232Zm4.973,0-1.624-4.874c-.006-.017-.014-.032-.021-.048h0l-1.751-4.379v-13.171l5.632-8.448H214.5a.908.908,0,1,0,0-1.816h-4.963l3.9-5.853a.909.909,0,0,0,0-1.008l-1.1-1.652,2.381-.6a.909.909,0,0,0,.661-1.1.879.879,0,0,0-.069-.186l-2.406-4.812,7.756,2.216-5.225,20.027a.921.921,0,0,0-.023.338l1.294,10.789h-5.842a.908.908,0,0,0-.908.908v3.632a.909.909,0,0,0,.908.909h6.5l.559,4.648.158,1.315C213.823,1225.385,207.927,1225.38,206.09,1225.289Zm11.056-10.943h-5.369v-1.816h5.151Zm2.483,5.449-2.39-19.915,4.471-17.136c1.044,5.363,2.73,17.09,2.779,37.051Z" transform="translate(-180.902 -1172.573)" fill="#ff9696"/></g><rect width="57" height="57" transform="translate(368 14372)" fill="none"/></g></svg>