<svg xmlns="http://www.w3.org/2000/svg" width="60" height="60" viewBox="0 0 60 60">
  <g id="Grupo_1069604" data-name="Grupo 1069604" transform="translate(-185.805 -6688)">
    <path id="Trazado_773591" data-name="Trazado 773591" d="M30,0A30,30,0,1,1,0,30,30,30,0,0,1,30,0Z" transform="translate(185.805 6688)" fill="#f5947a"/>
    <path id="Trazado_773592" data-name="Trazado 773592" d="M20.01,25.555a5.674,5.674,0,0,1-2.168,4.768A9.947,9.947,0,0,1,11.646,32H2.065V10.994h8.921q8.364,0,8.364,5.083a3.964,3.964,0,0,1-.527,2.014,4.744,4.744,0,0,1-1.6,1.6,6.712,6.712,0,0,1-2.366.938v.059a6.669,6.669,0,0,1,2.681.886,5.232,5.232,0,0,1,1.831,1.772A4.192,4.192,0,0,1,20.01,25.555Zm-7.383-8.379q0-1.948-3.062-1.948H8.394V19.2h1.831a2.6,2.6,0,0,0,1.729-.564A1.813,1.813,0,0,0,12.627,17.176Zm.659,8.35a1.91,1.91,0,0,0-.659-1.494,2.527,2.527,0,0,0-1.743-.586H8.394v4.292H10.5a3.188,3.188,0,0,0,2.036-.593A1.956,1.956,0,0,0,13.286,25.525Z" transform="translate(206.805 6699)" fill="#12263f"/>
  </g>
</svg>
