<svg xmlns="http://www.w3.org/2000/svg" width="57" height="57" viewBox="0 0 57 57"><g transform="translate(-1039 -16488)"><g transform="translate(1039.657 16493)"><path d="M392.716,1209.813l1.434.716,2.3,9.981a2.711,2.711,0,0,0,2.655,2.111H414.25a2.738,2.738,0,0,0,2.7-2.339l1.482-10.374h2.057l1.482,10.375a2.737,2.737,0,0,0,2.7,2.338h15.143a2.71,2.71,0,0,0,2.654-2.111l2.3-9.98,1.434-.717a.907.907,0,0,0,.5-.812v-3.633a.906.906,0,0,0-.075-.36h0v0l0,0-11.16-25.756a2.725,2.725,0,0,0-3.283-1.526l-5.874,1.762a2.721,2.721,0,0,0-1.861,3.27l.032.129a2.725,2.725,0,0,0,3.3,1.982l.087-.024,3.028-.865a.912.912,0,0,1,1.082.509l7.557,17.174c-.52-.144-1.06-.276-1.618-.39a19.957,19.957,0,0,0-7.359-.181,17.89,17.89,0,0,0-7.5,3.176,9.493,9.493,0,0,0-7.2,0,17.877,17.877,0,0,0-7.5-3.176,19.931,19.931,0,0,0-7.358.181c-.559.114-1.1.246-1.618.39l7.556-17.174a.912.912,0,0,1,1.082-.508l3.028.865a2.726,2.726,0,0,0,3.368-1.871c.008-.029.016-.059.023-.087l.032-.129a2.72,2.72,0,0,0-1.86-3.271l-5.874-1.762a2.725,2.725,0,0,0-3.283,1.527L392.291,1205v.006h0a.906.906,0,0,0-.075.36V1209A.909.909,0,0,0,392.716,1209.813Zm40.924-26.062a2.735,2.735,0,0,0-3.242-1.523l-3.028.865a.909.909,0,0,1-1.123-.624l-.008-.029-.032-.128a.908.908,0,0,1,.621-1.09l5.874-1.762a.908.908,0,0,1,1.094.508l10.113,23.338c-.612-.3-1.3-.6-2.055-.886Zm-32.279,19.294a16.455,16.455,0,0,1,13.909,3.043.85.85,0,0,0,1.186-.065,7.215,7.215,0,0,1,6,0,.849.849,0,0,0,1.185.065,16.461,16.461,0,0,1,13.91-3.043,23.182,23.182,0,0,1,2.95.814l.026.058.063-.026a24.506,24.506,0,0,1,4.292,1.992v2.557l-1.314.657a.9.9,0,0,0-.479.608l-2.4,10.4a.9.9,0,0,1-.885.7H424.664a.912.912,0,0,1-.9-.779l-1.594-11.155a.907.907,0,0,0-.9-.779h-3.633a.907.907,0,0,0-.9.779l-1.593,11.154a.913.913,0,0,1-.9.78H399.108a.9.9,0,0,1-.885-.7l-2.4-10.4a.9.9,0,0,0-.479-.607l-1.315-.657v-2.557A24.322,24.322,0,0,1,401.361,1203.046Zm3.757-23.077a.907.907,0,0,1,1.095-.508l5.874,1.762a.906.906,0,0,1,.62,1.089l-.032.13a.909.909,0,0,1-1.1.66l-.028-.008-3.029-.865a2.732,2.732,0,0,0-3.241,1.522l-8.215,18.67c-.754.288-1.442.591-2.054.885Z" transform="translate(-392.214 -1177.605)" fill="#ff9696"/><path d="M399.751,1219.752a.907.907,0,0,0,.88.688h12.714a.908.908,0,0,0,.9-.817l.908-9.082a.907.907,0,0,0-.164-.618,11.079,11.079,0,0,0-8.912-4.013c-5.659,0-8.556,1.888-8.677,1.969a.909.909,0,0,0-.378.976Zm6.329-12.026a9.49,9.49,0,0,1,7.233,3l-.789,7.893H401.342l-2.382-9.529A16.6,16.6,0,0,1,406.081,1207.726Z" transform="translate(-392.459 -1179.054)" fill="#ff9696"/><path d="M426.626,1219.623a.908.908,0,0,0,.9.817h12.713a.909.909,0,0,0,.881-.688l2.724-10.9a.908.908,0,0,0-.378-.976c-.12-.081-3.018-1.969-8.677-1.969a11.077,11.077,0,0,0-8.911,4.012.91.91,0,0,0-.165.619Zm8.168-11.9a18.663,18.663,0,0,1,5.759.834,11.331,11.331,0,0,1,1.362.538l-2.381,9.526H428.352l-.789-7.891A9.552,9.552,0,0,1,434.794,1207.726Z" transform="translate(-393.93 -1179.054)" fill="#ff9696"/></g><rect width="57" height="57" transform="translate(1039 16488)" fill="none"/></g></svg>