<svg xmlns="http://www.w3.org/2000/svg" width="60" height="66.221" viewBox="0 0 60 66.221">
  <g id="pdf" transform="translate(-24.049)">
    <g id="Grupo_80235" data-name="Grupo 80235" transform="translate(25.019 0.97)">
      <path id="Trazado_114332" data-name="Trazado 114332" d="M38.806,272.31H36.732a5.184,5.184,0,0,1-5.184-5.184,3.11,3.11,0,0,1,3.11-3.11h4.147Z" transform="translate(-31.548 -230.839)" fill="#c47661"/>
      <path id="Trazado_114333" data-name="Trazado 114333" d="M130.877,17.261l-9.153-9.153a2.073,2.073,0,0,0-1.466-.607H81.719a2.074,2.074,0,0,0-2.074,2.074V41.969l2.074,29.812h47.692a2.074,2.074,0,0,0,2.074-2.074V18.728a2.073,2.073,0,0,0-.607-1.466Z" transform="translate(-73.424 -7.501)" fill="#eceaec"/>
      <path id="Trazado_114334" data-name="Trazado 114334" d="M403.68,18.728a2.074,2.074,0,0,0-.607-1.466l-9.154-9.153a2.073,2.073,0,0,0-1.466-.607h-.178V17.869a1.037,1.037,0,0,0,1.037,1.037H403.68Z" transform="translate(-345.619 -7.501)" fill="#dad8db"/>
      <path id="Trazado_114335" data-name="Trazado 114335" d="M82.756,66.6V7.5H81.72a2.074,2.074,0,0,0-2.074,2.074V69.707a2.074,2.074,0,0,0,2.074,2.074h47.692a2.074,2.074,0,0,0,2.074-2.074V68.67H84.83A2.076,2.076,0,0,1,82.756,66.6Z" transform="translate(-73.425 -7.5)" fill="#dad8db"/>
      <path id="Trazado_114336" data-name="Trazado 114336" d="M66.8,291.175H34.659a3.11,3.11,0,0,1-3.11-3.11v18.662a3.11,3.11,0,0,0,3.11,3.11H66.8a2.074,2.074,0,0,0,2.074-2.074V293.249A2.073,2.073,0,0,0,66.8,291.175Z" transform="translate(-31.549 -251.777)" fill="#f5947a"/>
      <path id="Trazado_114337" data-name="Trazado 114337" d="M34.659,309.837H66.8a2.074,2.074,0,0,0,2.074-2.074v-1.037H36.733a2.076,2.076,0,0,1-2.074-2.074V291.175a3.11,3.11,0,0,1-3.11-3.11v18.662A3.11,3.11,0,0,0,34.659,309.837Z" transform="translate(-31.549 -251.777)" fill="#c47661"/>
    </g>
    <g id="Grupo_80236" data-name="Grupo 80236" transform="translate(24.049 0)">
      <path id="Trazado_114338" data-name="Trazado 114338" d="M83.158,10.045,74,.891A3.024,3.024,0,0,0,71.852,0H33.313A3.047,3.047,0,0,0,30.27,3.044V33.177h-2.14a4.085,4.085,0,0,0-4.08,4.08V55.92A4.085,4.085,0,0,0,28.129,60H60.27a3.047,3.047,0,0,0,3.044-3.044V42.442A3.047,3.047,0,0,0,60.27,39.4H28.129a2.14,2.14,0,0,1,0-4.281h2.14v1.1a.97.97,0,0,0,1.94,0V3.044a1.1,1.1,0,0,1,1.1-1.1H70.7v9.4a2.009,2.009,0,0,0,2.007,2.007h9.4V63.177a1.1,1.1,0,0,1-1.1,1.1H33.313a1.1,1.1,0,0,1-1.1-1.1.97.97,0,0,0-1.94,0,3.047,3.047,0,0,0,3.044,3.044H81.005a3.047,3.047,0,0,0,3.044-3.044V12.2A3.023,3.023,0,0,0,83.158,10.045ZM28.129,41.338H60.27a1.1,1.1,0,0,1,1.1,1.1V56.957a1.1,1.1,0,0,1-1.1,1.1H28.129a2.143,2.143,0,0,1-2.14-2.14V40.73A4.054,4.054,0,0,0,28.129,41.338Zm44.515-30V2.275l9.13,9.129H72.711A.067.067,0,0,1,72.644,11.338Z" transform="translate(-24.049 0)"/>
      <path id="Trazado_114339" data-name="Trazado 114339" d="M230.041,355.1a.97.97,0,0,0,.97-.97v-3.225h2.1a.97.97,0,0,0,0-1.94h-2.1v-2.1h2.367a.97.97,0,0,0,0-1.94h-3.337a.97.97,0,0,0-.97.97v8.233A.97.97,0,0,0,230.041,355.1Z" transform="translate(-202.554 -300.316)"/>
      <path id="Trazado_114340" data-name="Trazado 114340" d="M155.7,355.349a.97.97,0,0,0,.683.282h0c.069,0,1.694-.006,2.343-.018,2.4-.042,4.137-2.135,4.137-4.977,0-2.987-1.7-4.995-4.22-4.995h-2.28a.97.97,0,0,0-.97.972v.006h0v7.91a1.364,1.364,0,0,0,.3.819Zm2.947-7.767c1.681,0,2.28,1.578,2.28,3.054,0,2.071-1.12,3.018-2.231,3.037-.309.005-.859.01-1.346.013,0-.952-.01-5.114-.011-6.1Z" transform="translate(-138.41 -300.937)"/>
      <path id="Trazado_114341" data-name="Trazado 114341" d="M88.915,354.926a.97.97,0,0,0,.97-.97v-2.638c.482,0,1.029-.005,1.339-.005a3.311,3.311,0,1,0,0-6.621H88.915a.97.97,0,0,0-.97.97h0v8.294A.97.97,0,0,0,88.915,354.926Zm2.309-8.294a1.371,1.371,0,1,1,0,2.741c-.308,0-.849,0-1.329,0,0-.5-.006-2.228-.008-2.746h1.337Z" transform="translate(-79.681 -300.11)"/>
      <path id="Trazado_114342" data-name="Trazado 114342" d="M188.074,99.666c-2.384.752-4.831,1.794-6.136,3.141a2.708,2.708,0,0,0-.536,3.539,2.315,2.315,0,0,0,1.96,1.175,2.58,2.58,0,0,0,.922-.18c1.14-.436,2.371-1.676,3.763-3.791.45-.683.9-1.442,1.358-2.263q.247-.073.505-.145a48.387,48.387,0,0,1,8.553-1.554,11.865,11.865,0,0,0,4.83,3.191,2.708,2.708,0,0,0,3.406-1.965,2.015,2.015,0,0,0-.981-2.452,10.017,10.017,0,0,0-4.954-.832c-.5.006-1.019.026-1.564.06a38.74,38.74,0,0,1-5.332-7.045q.1-.345.19-.679a14.771,14.771,0,0,0,.7-5.6c-.284-1.811-1.453-2.069-1.943-2.1a2.589,2.589,0,0,0-3,2.249A9.279,9.279,0,0,0,191,89.29c.228.485.484.984.765,1.495q-.157.5-.341,1.049a55.737,55.737,0,0,1-3.354,7.832Zm-4.658,5.91c-.069.009-.186.023-.385-.285a.6.6,0,0,1-.033-.7c.324-.6,1.43-1.451,3.569-2.326-1.493,2.316-2.609,3.241-3.151,3.309Zm21.455-5.431a.348.348,0,0,1-.016.066c-.242.739-.568.809-1.121.68a7.014,7.014,0,0,1-2.492-1.421C203.834,99.49,204.739,99.957,204.871,100.145ZM191.735,84.7c.04-.277.084-.589.822-.589q.07,0,.148,0c.221.269.335,1.467-.177,3.837A6.929,6.929,0,0,1,191.735,84.7Zm1.351,8.278c.426.654.884,1.315,1.369,1.974.7.946,1.483,1.928,2.315,2.865-.963.116-1.955.266-2.949.446-.672.122-1.844.352-3.215.694q.456-.946.9-1.957C192.087,95.662,192.624,94.3,193.086,92.975Z" transform="translate(-160.667 -71.54)"/>
    </g>
  </g>
</svg>
